{
 "cells": [
  {
   "cell_type": "code",
   "execution_count": 1,
   "id": "dbed2293",
   "metadata": {},
   "outputs": [
    {
     "name": "stdout",
     "output_type": "stream",
     "text": [
      "['acousticbrainz_genre', 'baf', 'ballroom', 'beatles', 'beatport_key', 'billboard', 'brid', 'candombe', 'cante100', 'cipi', 'compmusic_carnatic_rhythm', 'compmusic_carnatic_varnam', 'compmusic_hindustani_rhythm', 'compmusic_indian_tonic', 'compmusic_jingju_acappella', 'compmusic_otmm_makam', 'compmusic_raga', 'cuidado', 'da_tacos', 'dagstuhl_choirset', 'dali', 'egfxset', 'filosax', 'four_way_tabla', 'freesound_one_shot_percussive_sounds', 'giantsteps_key', 'giantsteps_tempo', 'good_sounds', 'groove_midi', 'gtzan_genre', 'guitarset', 'hainsworth', 'haydn_op20', 'idmt_smt_audio_effects', 'ikala', 'irmas', 'maestro', 'mdb_stem_synth', 'medley_solos_db', 'medleydb_melody', 'medleydb_pitch', 'mridangam_stroke', 'mtg_jamendo_autotagging_moodtheme', 'openmic2018', 'orchset', 'phenicx_anechoic', 'queen', 'rwc_classical', 'rwc_jazz', 'rwc_popular', 'salami', 'saraga_carnatic', 'saraga_hindustani', 'scms', 'simac', 'slakh', 'tinysol', 'tonality_classicaldb', 'tonas', 'vocadito']\n"
     ]
    },
    {
     "name": "stderr",
     "output_type": "stream",
     "text": [
      "INFO: Note: NumExpr detected 64 cores but \"NUMEXPR_MAX_THREADS\" not set, so enforcing safe limit of 16.\n",
      "INFO: NumExpr defaulting to 16 threads.\n"
     ]
    }
   ],
   "source": [
    "import mirdata\n",
    "print(mirdata.list_datasets())\n",
    "maestro = mirdata.initialize('maestro', data_home='/root/musica/data')"
   ]
  },
  {
   "cell_type": "code",
   "execution_count": 2,
   "id": "7663b911",
   "metadata": {},
   "outputs": [],
   "source": [
    "# maestro.download()"
   ]
  },
  {
   "cell_type": "code",
   "execution_count": 3,
   "id": "7de6c9be",
   "metadata": {},
   "outputs": [],
   "source": [
    "# maestro.download(partial_download=['index'])"
   ]
  },
  {
   "cell_type": "code",
   "execution_count": 4,
   "id": "f7680e73",
   "metadata": {},
   "outputs": [],
   "source": [
    "example_track = maestro.choice_track()"
   ]
  },
  {
   "cell_type": "code",
   "execution_count": 5,
   "id": "bb33a6e6",
   "metadata": {},
   "outputs": [
    {
     "data": {
      "text/plain": [
       "Track(\n",
       "  audio_path=\"...oot/musica/data/2004/MIDI-Unprocessed_XP_20_R2_2004_01_ORIG_MID--AUDIO_20_R1_2004_01_Track01_wav.wav\",\n",
       "  midi_path=\"...ot/musica/data/2004/MIDI-Unprocessed_XP_20_R2_2004_01_ORIG_MID--AUDIO_20_R1_2004_01_Track01_wav.midi\",\n",
       "  track_id=\"2004/MIDI-Unprocessed_XP_20_R2_2004_01_ORIG_MID--AUDIO_20_R1_2004_01_Track01_wav\",\n",
       "  audio: The track's audio\n",
       "\n",
       "        Returns,\n",
       "  canonical_composer: ,\n",
       "  canonical_title: ,\n",
       "  duration: ,\n",
       "  midi: ,\n",
       "  notes: ,\n",
       "  split: ,\n",
       "  year: ,\n",
       ")"
      ]
     },
     "execution_count": 5,
     "metadata": {},
     "output_type": "execute_result"
    }
   ],
   "source": [
    "example_track"
   ]
  },
  {
   "cell_type": "code",
   "execution_count": 6,
   "id": "60c0ccac",
   "metadata": {},
   "outputs": [],
   "source": [
    "midi_path = '/root/musica/data/2008/MIDI-Unprocessed_01_R1_2008_01-04_ORIG_MID--AUDIO_01_R1_2008_wav--1.midi'\n",
    "wav_path = '/root/musica/data/2008/MIDI-Unprocessed_01_R1_2008_01-04_ORIG_MID--AUDIO_01_R1_2008_wav--1.wav'"
   ]
  },
  {
   "cell_type": "code",
   "execution_count": 15,
   "id": "12050249",
   "metadata": {},
   "outputs": [],
   "source": [
    "import torchaudio\n",
    "example_melody = example_track.audio_path\n",
    "\n",
    "# Load audio\n",
    "waveform, sample_rate = torchaudio.load(example_track.audio_path)"
   ]
  },
  {
   "cell_type": "code",
   "execution_count": 7,
   "id": "45f84d5b",
   "metadata": {},
   "outputs": [
    {
     "name": "stdout",
     "output_type": "stream",
     "text": [
      "Track 0: \n",
      "MetaMessage('set_tempo', tempo=500000, time=0)\n",
      "MetaMessage('time_signature', numerator=4, denominator=4, clocks_per_click=24, notated_32nd_notes_per_beat=8, time=0)\n",
      "MetaMessage('end_of_track', time=1)\n",
      "Track 1: Cui05-08.mid\n",
      "MetaMessage('track_name', name='Cui05-08.mid', time=0)\n",
      "program_change channel=0 program=0 time=0\n",
      "control_change channel=0 control=67 value=11 time=370\n",
      "control_change channel=0 control=67 value=22 time=15\n",
      "control_change channel=0 control=67 value=36 time=15\n",
      "control_change channel=0 control=67 value=51 time=16\n",
      "control_change channel=0 control=67 value=64 time=14\n",
      "control_change channel=0 control=67 value=79 time=15\n",
      "control_change channel=0 control=67 value=90 time=16\n",
      "control_change channel=0 control=67 value=101 time=14\n",
      "control_change channel=0 control=67 value=110 time=16\n",
      "control_change channel=0 control=67 value=118 time=15\n",
      "control_change channel=0 control=67 value=126 time=15\n",
      "control_change channel=0 control=67 value=127 time=16\n",
      "note_on channel=0 note=51 velocity=44 time=236\n",
      "note_on channel=0 note=67 velocity=42 time=407\n",
      "note_on channel=0 note=68 velocity=53 time=205\n",
      "note_on channel=0 note=67 velocity=0 time=3\n",
      "note_on channel=0 note=68 velocity=0 time=186\n",
      "note_on channel=0 note=70 velocity=60 time=5\n",
      "note_on channel=0 note=68 velocity=64 time=185\n",
      "note_on channel=0 note=70 velocity=0 time=4\n",
      "control_change channel=0 control=67 value=122 time=122\n",
      "control_change channel=0 control=67 value=103 time=15\n",
      "control_change channel=0 control=67 value=89 time=15\n",
      "control_change channel=0 control=67 value=78 time=15\n",
      "control_change channel=0 control=67 value=66 time=15\n",
      "note_on channel=0 note=67 velocity=66 time=4\n",
      "control_change channel=0 control=67 value=54 time=13\n",
      "control_change channel=0 control=67 value=40 time=15\n",
      "note_on channel=0 note=68 velocity=0 time=0\n",
      "control_change channel=0 control=67 value=25 time=15\n",
      "control_change channel=0 control=67 value=10 time=16\n",
      "control_change channel=0 control=67 value=0 time=15\n",
      "note_on channel=0 note=65 velocity=64 time=115\n",
      "note_on channel=0 note=67 velocity=0 time=9\n",
      "note_on channel=0 note=63 velocity=65 time=177\n",
      "note_on channel=0 note=65 velocity=0 time=17\n",
      "note_on channel=0 note=73 velocity=63 time=246\n",
      "note_on channel=0 note=55 velocity=40 time=316\n",
      "note_on channel=0 note=56 velocity=50 time=214\n",
      "note_on channel=0 note=55 velocity=0 time=5\n",
      "note_on channel=0 note=56 velocity=0 time=160\n",
      "note_on channel=0 note=58 velocity=52 time=21\n",
      "note_on channel=0 note=56 velocity=52 time=206\n",
      "note_on channel=0 note=58 velocity=0 time=10\n",
      "note_on channel=0 note=55 velocity=55 time=177\n",
      "note_on channel=0 note=56 velocity=0 time=20\n",
      "note_on channel=0 note=51 velocity=0 time=73\n",
      "note_on channel=0 note=53 velocity=51 time=95\n",
      "note_on channel=0 note=55 velocity=0 time=19\n",
      "note_on channel=0 note=51 velocity=55 time=175\n",
      "note_on channel=0 note=53 velocity=0 time=54\n",
      "note_on channel=0 note=63 velocity=0 time=32\n",
      "note_on channel=0 note=56 velocity=55 time=164\n",
      "note_on channel=0 note=73 velocity=0 time=21\n",
      "note_on channel=0 note=72 velocity=61 time=180\n",
      "note_on channel=0 note=73 velocity=63 time=180\n",
      "note_on channel=0 note=72 velocity=0 time=10\n",
      "note_on channel=0 note=73 velocity=0 time=168\n",
      "note_on channel=0 note=75 velocity=71 time=3\n",
      "note_on channel=0 note=73 velocity=71 time=196\n",
      "note_on channel=0 note=75 velocity=0 time=19\n",
      "note_on channel=0 note=72 velocity=72 time=179\n",
      "note_on channel=0 note=73 velocity=0 time=1\n",
      "note_on channel=0 note=72 velocity=0 time=177\n",
      "note_on channel=0 note=70 velocity=71 time=5\n",
      "note_on channel=0 note=70 velocity=0 time=176\n",
      "note_on channel=0 note=68 velocity=67 time=11\n",
      "note_on channel=0 note=77 velocity=67 time=223\n",
      "note_on channel=0 note=56 velocity=0 time=74\n",
      "note_on channel=0 note=56 velocity=60 time=132\n",
      "note_on channel=0 note=58 velocity=62 time=192\n",
      "note_on channel=0 note=56 velocity=0 time=11\n",
      "note_on channel=0 note=60 velocity=56 time=175\n",
      "note_on channel=0 note=58 velocity=0 time=7\n",
      "note_on channel=0 note=60 velocity=0 time=188\n",
      "note_on channel=0 note=58 velocity=50 time=4\n",
      "note_on channel=0 note=56 velocity=48 time=180\n",
      "note_on channel=0 note=58 velocity=0 time=3\n",
      "note_on channel=0 note=56 velocity=0 time=191\n",
      "note_on channel=0 note=55 velocity=50 time=9\n",
      "note_on channel=0 note=55 velocity=0 time=159\n",
      "note_on channel=0 note=53 velocity=63 time=46\n",
      "note_on channel=0 note=62 velocity=72 time=246\n",
      "note_on channel=0 note=53 velocity=0 time=142\n",
      "note_on channel=0 note=74 velocity=66 time=43\n",
      "note_on channel=0 note=68 velocity=0 time=9\n",
      "note_on channel=0 note=77 velocity=0 time=47\n",
      "note_on channel=0 note=75 velocity=72 time=141\n",
      "note_on channel=0 note=74 velocity=0 time=21\n",
      "note_on channel=0 note=77 velocity=74 time=152\n",
      "note_on channel=0 note=75 velocity=0 time=11\n",
      "note_on channel=0 note=75 velocity=72 time=184\n",
      "note_on channel=0 note=77 velocity=0 time=2\n",
      "note_on channel=0 note=74 velocity=70 time=189\n",
      "note_on channel=0 note=75 velocity=0 time=2\n",
      "note_on channel=0 note=74 velocity=0 time=179\n",
      "note_on channel=0 note=72 velocity=70 time=4\n",
      "control_change channel=0 control=64 value=35 time=124\n",
      "control_change channel=0 control=64 value=44 time=14\n",
      "control_change channel=0 control=64 value=50 time=16\n",
      "control_change channel=0 control=64 value=55 time=23\n",
      "note_on channel=0 note=72 velocity=0 time=13\n",
      "control_change channel=0 control=64 value=59 time=2\n",
      "note_on channel=0 note=70 velocity=69 time=10\n",
      "control_change channel=0 control=64 value=62 time=5\n",
      "control_change channel=0 control=64 value=64 time=16\n",
      "control_change channel=0 control=64 value=66 time=15\n",
      "control_change channel=0 control=64 value=68 time=15\n",
      "control_change channel=0 control=64 value=71 time=15\n",
      "control_change channel=0 control=64 value=75 time=15\n",
      "control_change channel=0 control=64 value=77 time=15\n",
      "control_change channel=0 control=64 value=78 time=16\n",
      "note_on channel=0 note=62 velocity=0 time=104\n",
      "note_on channel=0 note=80 velocity=76 time=57\n",
      "control_change channel=0 control=64 value=77 time=20\n",
      "control_change channel=0 control=64 value=77 time=30\n",
      "control_change channel=0 control=64 value=76 time=31\n",
      "control_change channel=0 control=64 value=76 time=15\n",
      "control_change channel=0 control=64 value=75 time=16\n",
      "control_change channel=0 control=64 value=75 time=14\n",
      "control_change channel=0 control=64 value=74 time=15\n",
      "control_change channel=0 control=64 value=73 time=16\n",
      "control_change channel=0 control=64 value=73 time=15\n",
      "control_change channel=0 control=64 value=72 time=16\n",
      "control_change channel=0 control=64 value=71 time=14\n",
      "control_change channel=0 control=64 value=70 time=15\n",
      "note_on channel=0 note=62 velocity=60 time=10\n",
      "note_on channel=0 note=51 velocity=0 time=4\n",
      "control_change channel=0 control=64 value=70 time=3\n",
      "control_change channel=0 control=64 value=69 time=15\n",
      "control_change channel=0 control=64 value=69 time=15\n",
      "control_change channel=0 control=64 value=68 time=16\n",
      "control_change channel=0 control=64 value=68 time=15\n",
      "control_change channel=0 control=64 value=67 time=30\n",
      "control_change channel=0 control=64 value=67 time=30\n",
      "control_change channel=0 control=64 value=66 time=30\n",
      "control_change channel=0 control=64 value=66 time=16\n",
      "control_change channel=0 control=64 value=65 time=15\n",
      "note_on channel=0 note=62 velocity=0 time=9\n",
      "note_on channel=0 note=63 velocity=65 time=1\n",
      "control_change channel=0 control=64 value=64 time=5\n",
      "control_change channel=0 control=64 value=63 time=15\n",
      "control_change channel=0 control=64 value=62 time=24\n",
      "control_change channel=0 control=64 value=62 time=15\n",
      "control_change channel=0 control=64 value=61 time=15\n",
      "control_change channel=0 control=64 value=61 time=30\n",
      "control_change channel=0 control=64 value=60 time=15\n",
      "control_change channel=0 control=64 value=60 time=15\n",
      "control_change channel=0 control=64 value=59 time=15\n",
      "control_change channel=0 control=64 value=58 time=16\n",
      "control_change channel=0 control=64 value=56 time=15\n",
      "control_change channel=0 control=64 value=55 time=15\n",
      "note_on channel=0 note=63 velocity=0 time=2\n",
      "note_on channel=0 note=65 velocity=60 time=6\n",
      "control_change channel=0 control=64 value=54 time=7\n",
      "control_change channel=0 control=64 value=53 time=15\n",
      "control_change channel=0 control=64 value=52 time=15\n",
      "control_change channel=0 control=64 value=50 time=16\n",
      "control_change channel=0 control=64 value=49 time=14\n",
      "control_change channel=0 control=64 value=48 time=16\n",
      "control_change channel=0 control=64 value=47 time=15\n",
      "control_change channel=0 control=64 value=46 time=15\n",
      "control_change channel=0 control=64 value=44 time=16\n",
      "control_change channel=0 control=64 value=42 time=14\n",
      "control_change channel=0 control=64 value=41 time=16\n",
      "control_change channel=0 control=64 value=39 time=15\n",
      "note_on channel=0 note=65 velocity=0 time=3\n",
      "note_on channel=0 note=63 velocity=60 time=11\n",
      "control_change channel=0 control=64 value=37 time=1\n",
      "control_change channel=0 control=64 value=35 time=16\n",
      "control_change channel=0 control=64 value=33 time=14\n",
      "control_change channel=0 control=64 value=31 time=15\n",
      "control_change channel=0 control=64 value=28 time=16\n",
      "control_change channel=0 control=64 value=25 time=15\n",
      "control_change channel=0 control=64 value=21 time=16\n",
      "control_change channel=0 control=64 value=18 time=15\n",
      "control_change channel=0 control=64 value=13 time=15\n",
      "control_change channel=0 control=64 value=0 time=16\n",
      "note_on channel=0 note=63 velocity=0 time=37\n",
      "note_on channel=0 note=62 velocity=53 time=29\n",
      "note_on channel=0 note=62 velocity=0 time=210\n",
      "note_on channel=0 note=60 velocity=51 time=5\n",
      "note_on channel=0 note=58 velocity=52 time=193\n",
      "note_on channel=0 note=60 velocity=0 time=38\n",
      "note_on channel=0 note=63 velocity=56 time=229\n",
      "note_on channel=0 note=58 velocity=0 time=152\n",
      "note_on channel=0 note=77 velocity=48 time=160\n",
      "note_on channel=0 note=80 velocity=0 time=1\n",
      "note_on channel=0 note=77 velocity=0 time=187\n",
      "note_on channel=0 note=79 velocity=50 time=18\n",
      "note_on channel=0 note=79 velocity=0 time=178\n",
      "note_on channel=0 note=80 velocity=57 time=7\n",
      "note_on channel=0 note=79 velocity=60 time=185\n",
      "note_on channel=0 note=80 velocity=0 time=21\n",
      "note_on channel=0 note=70 velocity=0 time=160\n",
      "note_on channel=0 note=77 velocity=58 time=17\n",
      "note_on channel=0 note=79 velocity=0 time=136\n",
      "note_on channel=0 note=75 velocity=54 time=60\n",
      "note_on channel=0 note=77 velocity=0 time=99\n",
      "note_on channel=0 note=74 velocity=48 time=123\n",
      "note_on channel=0 note=75 velocity=0 time=33\n",
      "control_change channel=0 control=64 value=26 time=239\n",
      "control_change channel=0 control=64 value=34 time=15\n",
      "note_on channel=0 note=79 velocity=43 time=11\n",
      "note_on channel=0 note=75 velocity=45 time=2\n",
      "control_change channel=0 control=64 value=41 time=3\n",
      "control_change channel=0 control=64 value=47 time=16\n",
      "control_change channel=0 control=64 value=52 time=22\n",
      "note_on channel=0 note=74 velocity=0 time=12\n",
      "control_change channel=0 control=64 value=56 time=4\n",
      "control_change channel=0 control=64 value=59 time=14\n",
      "control_change channel=0 control=64 value=61 time=16\n",
      "control_change channel=0 control=64 value=62 time=15\n",
      "control_change channel=0 control=64 value=63 time=15\n",
      "control_change channel=0 control=64 value=64 time=16\n",
      "control_change channel=0 control=64 value=66 time=15\n",
      "note_on channel=0 note=63 velocity=0 time=13\n",
      "control_change channel=0 control=64 value=67 time=1\n",
      "control_change channel=0 control=64 value=68 time=16\n",
      "control_change channel=0 control=64 value=68 time=15\n",
      "control_change channel=0 control=64 value=68 time=76\n",
      "control_change channel=0 control=64 value=67 time=15\n",
      "control_change channel=0 control=64 value=66 time=15\n",
      "note_on channel=0 note=63 velocity=42 time=8\n",
      "control_change channel=0 control=64 value=65 time=7\n",
      "control_change channel=0 control=64 value=64 time=16\n",
      "control_change channel=0 control=64 value=63 time=15\n",
      "control_change channel=0 control=64 value=62 time=14\n",
      "control_change channel=0 control=64 value=62 time=16\n",
      "control_change channel=0 control=64 value=61 time=15\n",
      "control_change channel=0 control=64 value=60 time=15\n",
      "control_change channel=0 control=64 value=59 time=16\n",
      "control_change channel=0 control=64 value=57 time=15\n",
      "control_change channel=0 control=64 value=56 time=15\n",
      "control_change channel=0 control=64 value=53 time=15\n",
      "control_change channel=0 control=64 value=52 time=15\n",
      "control_change channel=0 control=64 value=50 time=16\n",
      "note_on channel=0 note=63 velocity=0 time=9\n",
      "control_change channel=0 control=64 value=49 time=6\n",
      "note_on channel=0 note=65 velocity=46 time=6\n",
      "control_change channel=0 control=64 value=48 time=10\n",
      "control_change channel=0 control=64 value=47 time=14\n",
      "control_change channel=0 control=64 value=45 time=15\n",
      "control_change channel=0 control=64 value=42 time=16\n",
      "control_change channel=0 control=64 value=39 time=15\n",
      "control_change channel=0 control=64 value=35 time=15\n",
      "control_change channel=0 control=64 value=31 time=16\n",
      "control_change channel=0 control=64 value=28 time=15\n",
      "control_change channel=0 control=64 value=25 time=15\n",
      "control_change channel=0 control=64 value=23 time=15\n",
      "control_change channel=0 control=64 value=20 time=15\n",
      "note_on channel=0 note=65 velocity=0 time=14\n",
      "control_change channel=0 control=64 value=17 time=1\n",
      "control_change channel=0 control=64 value=0 time=15\n",
      "note_on channel=0 note=67 velocity=52 time=11\n",
      "note_on channel=0 note=67 velocity=0 time=183\n",
      "note_on channel=0 note=65 velocity=50 time=18\n",
      "note_on channel=0 note=65 velocity=0 time=175\n",
      "note_on channel=0 note=63 velocity=51 time=12\n",
      "note_on channel=0 note=63 velocity=0 time=164\n",
      "note_on channel=0 note=62 velocity=47 time=31\n",
      "note_on channel=0 note=62 velocity=0 time=181\n",
      "note_on channel=0 note=60 velocity=36 time=33\n",
      "note_on channel=0 note=60 velocity=0 time=228\n",
      "note_on channel=0 note=58 velocity=36 time=40\n",
      "note_on channel=0 note=75 velocity=0 time=178\n",
      "note_on channel=0 note=58 velocity=0 time=121\n",
      "note_on channel=0 note=60 velocity=41 time=25\n",
      "note_on channel=0 note=75 velocity=47 time=6\n",
      "note_on channel=0 note=79 velocity=0 time=52\n",
      "note_on channel=0 note=60 velocity=0 time=118\n",
      "note_on channel=0 note=62 velocity=50 time=37\n",
      "note_on channel=0 note=77 velocity=62 time=11\n",
      "note_on channel=0 note=75 velocity=0 time=10\n",
      "note_on channel=0 note=62 velocity=0 time=156\n",
      "note_on channel=0 note=63 velocity=51 time=23\n",
      "note_on channel=0 note=79 velocity=67 time=5\n",
      "note_on channel=0 note=77 velocity=0 time=33\n",
      "note_on channel=0 note=63 velocity=0 time=130\n",
      "note_on channel=0 note=77 velocity=68 time=23\n",
      "note_on channel=0 note=62 velocity=53 time=3\n",
      "note_on channel=0 note=79 velocity=0 time=37\n",
      "note_on channel=0 note=62 velocity=0 time=146\n",
      "note_on channel=0 note=60 velocity=53 time=8\n",
      "note_on channel=0 note=75 velocity=73 time=0\n",
      "note_on channel=0 note=77 velocity=0 time=27\n",
      "note_on channel=0 note=60 velocity=0 time=156\n",
      "note_on channel=0 note=58 velocity=57 time=14\n",
      "note_on channel=0 note=74 velocity=67 time=3\n",
      "note_on channel=0 note=75 velocity=0 time=13\n",
      "note_on channel=0 note=74 velocity=0 time=175\n",
      "note_on channel=0 note=58 velocity=0 time=9\n",
      "note_on channel=0 note=72 velocity=69 time=1\n",
      "note_on channel=0 note=56 velocity=51 time=7\n",
      "note_on channel=0 note=56 velocity=0 time=181\n",
      "note_on channel=0 note=55 velocity=53 time=26\n",
      "note_on channel=0 note=84 velocity=78 time=74\n",
      "note_on channel=0 note=51 velocity=54 time=194\n",
      "note_on channel=0 note=55 velocity=0 time=1\n",
      "note_on channel=0 note=53 velocity=57 time=204\n",
      "note_on channel=0 note=51 velocity=0 time=3\n",
      "note_on channel=0 note=53 velocity=0 time=180\n",
      "note_on channel=0 note=55 velocity=57 time=13\n",
      "note_on channel=0 note=53 velocity=55 time=195\n",
      "note_on channel=0 note=55 velocity=0 time=36\n",
      "note_on channel=0 note=51 velocity=50 time=163\n",
      "note_on channel=0 note=53 velocity=0 time=23\n",
      "note_on channel=0 note=72 velocity=0 time=84\n",
      "note_on channel=0 note=51 velocity=0 time=89\n",
      "note_on channel=0 note=50 velocity=48 time=5\n",
      "note_on channel=0 note=50 velocity=0 time=196\n",
      "note_on channel=0 note=48 velocity=44 time=13\n",
      "note_on channel=0 note=74 velocity=45 time=226\n",
      "note_on channel=0 note=48 velocity=0 time=5\n",
      "note_on channel=0 note=53 velocity=36 time=3\n",
      "note_on channel=0 note=84 velocity=0 time=155\n",
      "note_on channel=0 note=48 velocity=44 time=95\n",
      "note_on channel=0 note=81 velocity=59 time=5\n",
      "note_on channel=0 note=53 velocity=0 time=192\n",
      "note_on channel=0 note=48 velocity=0 time=11\n",
      "note_on channel=0 note=50 velocity=48 time=0\n",
      "note_on channel=0 note=82 velocity=72 time=1\n",
      "note_on channel=0 note=81 velocity=0 time=24\n",
      "note_on channel=0 note=50 velocity=0 time=151\n",
      "note_on channel=0 note=51 velocity=54 time=20\n",
      "note_on channel=0 note=84 velocity=75 time=3\n",
      "note_on channel=0 note=82 velocity=0 time=28\n",
      "note_on channel=0 note=51 velocity=0 time=141\n",
      "note_on channel=0 note=50 velocity=51 time=21\n",
      "note_on channel=0 note=82 velocity=74 time=10\n",
      "note_on channel=0 note=84 velocity=0 time=52\n",
      "note_on channel=0 note=74 velocity=0 time=122\n",
      "note_on channel=0 note=50 velocity=0 time=12\n",
      "note_on channel=0 note=81 velocity=73 time=6\n",
      "note_on channel=0 note=48 velocity=46 time=6\n",
      "note_on channel=0 note=82 velocity=0 time=54\n",
      "note_on channel=0 note=79 velocity=68 time=132\n",
      "note_on channel=0 note=46 velocity=51 time=1\n",
      "note_on channel=0 note=48 velocity=0 time=30\n",
      "note_on channel=0 note=81 velocity=0 time=42\n",
      "note_on channel=0 note=77 velocity=60 time=134\n",
      "note_on channel=0 note=45 velocity=42 time=13\n",
      "note_on channel=0 note=46 velocity=0 time=1\n",
      "note_on channel=0 note=79 velocity=0 time=40\n",
      "note_on channel=0 note=82 velocity=51 time=196\n",
      "note_on channel=0 note=50 velocity=36 time=1\n",
      "note_on channel=0 note=45 velocity=0 time=37\n",
      "note_on channel=0 note=77 velocity=0 time=13\n",
      "note_on channel=0 note=82 velocity=0 time=240\n",
      "note_on channel=0 note=50 velocity=0 time=8\n",
      "note_on channel=0 note=46 velocity=44 time=7\n",
      "note_on channel=0 note=81 velocity=55 time=5\n",
      "note_on channel=0 note=81 velocity=0 time=207\n",
      "note_on channel=0 note=48 velocity=52 time=1\n",
      "note_on channel=0 note=79 velocity=60 time=0\n",
      "note_on channel=0 note=46 velocity=0 time=9\n",
      "note_on channel=0 note=79 velocity=0 time=163\n",
      "note_on channel=0 note=48 velocity=0 time=14\n",
      "note_on channel=0 note=77 velocity=66 time=6\n",
      "note_on channel=0 note=50 velocity=56 time=3\n",
      "note_on channel=0 note=75 velocity=69 time=191\n",
      "note_on channel=0 note=48 velocity=54 time=10\n",
      "note_on channel=0 note=50 velocity=0 time=22\n",
      "note_on channel=0 note=77 velocity=0 time=0\n",
      "note_on channel=0 note=74 velocity=76 time=157\n",
      "note_on channel=0 note=46 velocity=56 time=11\n",
      "note_on channel=0 note=75 velocity=0 time=7\n",
      "note_on channel=0 note=48 velocity=0 time=8\n",
      "note_on channel=0 note=46 velocity=0 time=170\n",
      "note_on channel=0 note=72 velocity=72 time=3\n",
      "note_on channel=0 note=45 velocity=54 time=11\n",
      "note_on channel=0 note=74 velocity=0 time=11\n",
      "note_on channel=0 note=72 velocity=0 time=166\n",
      "note_on channel=0 note=70 velocity=68 time=6\n",
      "note_on channel=0 note=45 velocity=0 time=8\n",
      "note_on channel=0 note=43 velocity=47 time=7\n",
      "note_on channel=0 note=48 velocity=44 time=233\n",
      "note_on channel=0 note=75 velocity=72 time=18\n",
      "note_on channel=0 note=43 velocity=0 time=14\n",
      "note_on channel=0 note=70 velocity=0 time=144\n",
      "note_on channel=0 note=51 velocity=52 time=191\n",
      "note_on channel=0 note=53 velocity=60 time=230\n",
      "note_on channel=0 note=51 velocity=0 time=3\n",
      "note_on channel=0 note=53 velocity=0 time=200\n",
      "note_on channel=0 note=55 velocity=62 time=0\n",
      "note_on channel=0 note=53 velocity=61 time=207\n",
      "note_on channel=0 note=55 velocity=0 time=6\n",
      "note_on channel=0 note=53 velocity=0 time=179\n",
      "note_on channel=0 note=51 velocity=52 time=4\n",
      "note_on channel=0 note=51 velocity=0 time=218\n",
      "note_on channel=0 note=48 velocity=0 time=4\n",
      "note_on channel=0 note=50 velocity=52 time=10\n",
      "note_on channel=0 note=48 velocity=54 time=230\n",
      "note_on channel=0 note=50 velocity=0 time=24\n",
      "note_on channel=0 note=57 velocity=59 time=263\n",
      "note_on channel=0 note=75 velocity=0 time=99\n",
      "note_on channel=0 note=75 velocity=57 time=205\n",
      "note_on channel=0 note=77 velocity=66 time=201\n",
      "note_on channel=0 note=75 velocity=0 time=6\n",
      "note_on channel=0 note=79 velocity=69 time=187\n",
      "note_on channel=0 note=77 velocity=0 time=24\n",
      "note_on channel=0 note=77 velocity=68 time=182\n",
      "note_on channel=0 note=79 velocity=0 time=32\n",
      "note_on channel=0 note=75 velocity=65 time=184\n",
      "note_on channel=0 note=77 velocity=0 time=16\n",
      "control_change channel=0 control=64 value=20 time=29\n",
      "control_change channel=0 control=64 value=44 time=16\n",
      "control_change channel=0 control=64 value=55 time=15\n",
      "control_change channel=0 control=64 value=60 time=16\n",
      "control_change channel=0 control=64 value=63 time=15\n",
      "control_change channel=0 control=64 value=64 time=15\n",
      "control_change channel=0 control=64 value=66 time=16\n",
      "control_change channel=0 control=64 value=69 time=15\n",
      "control_change channel=0 control=64 value=74 time=14\n",
      "control_change channel=0 control=64 value=77 time=16\n",
      "control_change channel=0 control=64 value=79 time=15\n",
      "note_on channel=0 note=74 velocity=62 time=9\n",
      "note_on channel=0 note=75 velocity=0 time=5\n",
      "control_change channel=0 control=64 value=80 time=1\n",
      "control_change channel=0 control=64 value=81 time=15\n",
      "control_change channel=0 control=64 value=82 time=15\n",
      "note_on channel=0 note=57 velocity=0 time=0\n",
      "control_change channel=0 control=64 value=83 time=16\n",
      "control_change channel=0 control=64 value=84 time=15\n",
      "control_change channel=0 control=64 value=85 time=14\n",
      "control_change channel=0 control=64 value=85 time=16\n",
      "control_change channel=0 control=64 value=86 time=15\n",
      "control_change channel=0 control=64 value=86 time=16\n",
      "note_on channel=0 note=74 velocity=0 time=73\n",
      "note_on channel=0 note=72 velocity=62 time=9\n",
      "note_on channel=0 note=48 velocity=0 time=286\n",
      "control_change channel=0 control=64 value=86 time=5\n",
      "note_on channel=0 note=58 velocity=59 time=8\n",
      "note_on channel=0 note=72 velocity=0 time=0\n",
      "note_on channel=0 note=46 velocity=53 time=4\n",
      "control_change channel=0 control=64 value=85 time=2\n",
      "note_on channel=0 note=74 velocity=59 time=5\n",
      "control_change channel=0 control=64 value=85 time=11\n",
      "control_change channel=0 control=64 value=84 time=15\n",
      "control_change channel=0 control=64 value=83 time=15\n",
      "control_change channel=0 control=64 value=81 time=17\n",
      "control_change channel=0 control=64 value=80 time=14\n",
      "control_change channel=0 control=64 value=78 time=16\n",
      "control_change channel=0 control=64 value=76 time=15\n",
      "control_change channel=0 control=64 value=74 time=14\n",
      "control_change channel=0 control=64 value=71 time=16\n",
      "control_change channel=0 control=64 value=68 time=15\n",
      "control_change channel=0 control=64 value=64 time=16\n",
      "control_change channel=0 control=64 value=56 time=15\n",
      "control_change channel=0 control=64 value=37 time=14\n",
      "control_change channel=0 control=64 value=0 time=16\n",
      "note_on channel=0 note=74 velocity=0 time=45\n",
      "note_on channel=0 note=72 velocity=54 time=23\n",
      "note_on channel=0 note=72 velocity=0 time=93\n",
      "note_on channel=0 note=74 velocity=60 time=12\n",
      "note_on channel=0 note=74 velocity=0 time=77\n",
      "note_on channel=0 note=75 velocity=63 time=16\n",
      "note_on channel=0 note=75 velocity=0 time=91\n",
      "note_on channel=0 note=74 velocity=64 time=1\n",
      "note_on channel=0 note=74 velocity=0 time=51\n",
      "note_on channel=0 note=72 velocity=68 time=25\n",
      "note_on channel=0 note=70 velocity=64 time=68\n",
      "note_on channel=0 note=72 velocity=0 time=5\n",
      "note_on channel=0 note=70 velocity=0 time=63\n",
      "note_on channel=0 note=69 velocity=67 time=8\n",
      "note_on channel=0 note=69 velocity=0 time=62\n",
      "note_on channel=0 note=70 velocity=67 time=21\n",
      "note_on channel=0 note=70 velocity=0 time=57\n",
      "note_on channel=0 note=69 velocity=68 time=18\n",
      "note_on channel=0 note=69 velocity=0 time=70\n",
      "note_on channel=0 note=70 velocity=64 time=4\n",
      "note_on channel=0 note=70 velocity=0 time=49\n",
      "note_on channel=0 note=72 velocity=60 time=21\n",
      "note_on channel=0 note=70 velocity=64 time=71\n",
      "note_on channel=0 note=72 velocity=0 time=7\n",
      "note_on channel=0 note=68 velocity=68 time=62\n",
      "note_on channel=0 note=70 velocity=0 time=8\n",
      "note_on channel=0 note=68 velocity=0 time=53\n",
      "note_on channel=0 note=67 velocity=64 time=7\n",
      "note_on channel=0 note=67 velocity=0 time=74\n",
      "note_on channel=0 note=65 velocity=66 time=3\n",
      "note_on channel=0 note=65 velocity=0 time=51\n",
      "note_on channel=0 note=67 velocity=55 time=22\n",
      "note_on channel=0 note=67 velocity=0 time=67\n",
      "note_on channel=0 note=65 velocity=67 time=6\n",
      "note_on channel=0 note=65 velocity=0 time=72\n",
      "note_on channel=0 note=67 velocity=66 time=1\n",
      "note_on channel=0 note=67 velocity=0 time=62\n",
      "note_on channel=0 note=68 velocity=65 time=9\n",
      "note_on channel=0 note=67 velocity=66 time=77\n",
      "note_on channel=0 note=68 velocity=0 time=12\n",
      "note_on channel=0 note=67 velocity=0 time=35\n",
      "note_on channel=0 note=65 velocity=67 time=27\n",
      "note_on channel=0 note=63 velocity=70 time=74\n",
      "note_on channel=0 note=65 velocity=0 time=0\n",
      "note_on channel=0 note=63 velocity=0 time=62\n",
      "note_on channel=0 note=62 velocity=63 time=16\n",
      "note_on channel=0 note=62 velocity=0 time=53\n",
      "note_on channel=0 note=63 velocity=64 time=19\n",
      "note_on channel=0 note=63 velocity=0 time=63\n",
      "note_on channel=0 note=62 velocity=72 time=15\n",
      "note_on channel=0 note=63 velocity=62 time=83\n",
      "note_on channel=0 note=62 velocity=0 time=5\n",
      "note_on channel=0 note=63 velocity=0 time=64\n",
      "note_on channel=0 note=65 velocity=65 time=10\n",
      "note_on channel=0 note=58 velocity=0 time=39\n",
      "note_on channel=0 note=63 velocity=63 time=49\n",
      "note_on channel=0 note=65 velocity=0 time=15\n",
      "note_on channel=0 note=62 velocity=64 time=76\n",
      "note_on channel=0 note=63 velocity=0 time=21\n",
      "note_on channel=0 note=62 velocity=0 time=59\n",
      "note_on channel=0 note=60 velocity=65 time=21\n",
      "note_on channel=0 note=58 velocity=64 time=102\n",
      "note_on channel=0 note=60 velocity=0 time=10\n",
      "note_on channel=0 note=57 velocity=72 time=166\n",
      "note_on channel=0 note=58 velocity=0 time=309\n",
      "note_on channel=0 note=60 velocity=58 time=45\n",
      "note_on channel=0 note=60 velocity=0 time=116\n",
      "note_on channel=0 note=62 velocity=60 time=0\n",
      "note_on channel=0 note=63 velocity=68 time=101\n",
      "note_on channel=0 note=62 velocity=0 time=11\n",
      "note_on channel=0 note=63 velocity=0 time=61\n",
      "note_on channel=0 note=65 velocity=72 time=15\n",
      "note_on channel=0 note=65 velocity=0 time=77\n",
      "note_on channel=0 note=67 velocity=70 time=9\n",
      "note_on channel=0 note=69 velocity=70 time=75\n",
      "note_on channel=0 note=67 velocity=0 time=33\n",
      "note_on channel=0 note=70 velocity=72 time=46\n",
      "note_on channel=0 note=69 velocity=0 time=21\n",
      "note_on channel=0 note=72 velocity=74 time=71\n",
      "note_on channel=0 note=70 velocity=0 time=29\n",
      "note_on channel=0 note=69 velocity=70 time=54\n",
      "note_on channel=0 note=72 velocity=0 time=9\n",
      "control_change channel=0 control=64 value=26 time=54\n",
      "control_change channel=0 control=64 value=61 time=14\n",
      "note_on channel=0 note=65 velocity=71 time=0\n",
      "note_on channel=0 note=69 velocity=0 time=0\n",
      "control_change channel=0 control=64 value=65 time=16\n",
      "control_change channel=0 control=64 value=67 time=15\n",
      "control_change channel=0 control=64 value=68 time=15\n",
      "control_change channel=0 control=64 value=69 time=16\n",
      "control_change channel=0 control=64 value=71 time=15\n",
      "note_on channel=0 note=67 velocity=73 time=11\n",
      "control_change channel=0 control=64 value=72 time=4\n",
      "note_on channel=0 note=65 velocity=0 time=9\n",
      "control_change channel=0 control=64 value=73 time=7\n",
      "control_change channel=0 control=64 value=74 time=14\n",
      "note_on channel=0 note=69 velocity=69 time=40\n",
      "control_change channel=0 control=64 value=73 time=37\n",
      "note_on channel=0 note=67 velocity=0 time=9\n",
      "control_change channel=0 control=64 value=73 time=21\n",
      "note_on channel=0 note=70 velocity=75 time=3\n",
      "note_on channel=0 note=69 velocity=0 time=10\n",
      "control_change channel=0 control=64 value=72 time=2\n",
      "control_change channel=0 control=64 value=71 time=16\n",
      "control_change channel=0 control=64 value=70 time=15\n",
      "note_on channel=0 note=70 velocity=0 time=1\n",
      "control_change channel=0 control=64 value=68 time=13\n",
      "control_change channel=0 control=64 value=66 time=16\n",
      "note_on channel=0 note=72 velocity=76 time=8\n",
      "control_change channel=0 control=64 value=63 time=7\n",
      "control_change channel=0 control=64 value=55 time=16\n",
      "control_change channel=0 control=64 value=32 time=15\n",
      "control_change channel=0 control=64 value=0 time=14\n",
      "note_on channel=0 note=74 velocity=73 time=33\n",
      "note_on channel=0 note=75 velocity=71 time=70\n",
      "note_on channel=0 note=74 velocity=0 time=63\n",
      "control_change channel=0 control=64 value=33 time=10\n",
      "control_change channel=0 control=64 value=61 time=15\n",
      "control_change channel=0 control=64 value=65 time=14\n",
      "control_change channel=0 control=64 value=67 time=16\n",
      "control_change channel=0 control=64 value=69 time=15\n",
      "control_change channel=0 control=64 value=70 time=15\n",
      "control_change channel=0 control=64 value=72 time=15\n",
      "control_change channel=0 control=64 value=73 time=15\n",
      "note_on channel=0 note=75 velocity=0 time=2\n",
      "control_change channel=0 control=64 value=73 time=14\n",
      "control_change channel=0 control=64 value=73 time=15\n",
      "note_on channel=0 note=77 velocity=67 time=5\n",
      "control_change channel=0 control=64 value=72 time=9\n",
      "control_change channel=0 control=64 value=70 time=16\n",
      "control_change channel=0 control=64 value=65 time=15\n",
      "control_change channel=0 control=64 value=47 time=16\n",
      "note_on channel=0 note=75 velocity=75 time=10\n",
      "control_change channel=0 control=64 value=0 time=4\n",
      "note_on channel=0 note=77 velocity=0 time=21\n",
      "note_on channel=0 note=74 velocity=76 time=41\n",
      "note_on channel=0 note=75 velocity=0 time=28\n",
      "control_change channel=0 control=64 value=43 time=48\n",
      "control_change channel=0 control=64 value=60 time=16\n",
      "control_change channel=0 control=64 value=64 time=14\n",
      "control_change channel=0 control=64 value=67 time=16\n",
      "control_change channel=0 control=64 value=69 time=15\n",
      "control_change channel=0 control=64 value=72 time=15\n",
      "note_on channel=0 note=75 velocity=86 time=12\n",
      "control_change channel=0 control=64 value=76 time=4\n",
      "control_change channel=0 control=64 value=78 time=15\n",
      "control_change channel=0 control=64 value=80 time=15\n",
      "control_change channel=0 control=64 value=80 time=16\n",
      "note_on channel=0 note=74 velocity=0 time=3\n",
      "control_change channel=0 control=64 value=81 time=12\n",
      "control_change channel=0 control=64 value=81 time=15\n",
      "note_on channel=0 note=75 velocity=0 time=109\n",
      "note_on channel=0 note=75 velocity=87 time=99\n",
      "control_change channel=0 control=64 value=81 time=27\n",
      "control_change channel=0 control=64 value=80 time=16\n",
      "control_change channel=0 control=64 value=79 time=15\n",
      "control_change channel=0 control=64 value=76 time=15\n",
      "control_change channel=0 control=64 value=73 time=15\n",
      "control_change channel=0 control=64 value=69 time=15\n",
      "control_change channel=0 control=64 value=63 time=15\n",
      "control_change channel=0 control=64 value=38 time=15\n",
      "control_change channel=0 control=64 value=0 time=15\n",
      "control_change channel=0 control=64 value=39 time=274\n",
      "control_change channel=0 control=64 value=50 time=16\n",
      "control_change channel=0 control=64 value=56 time=14\n",
      "control_change channel=0 control=64 value=59 time=15\n",
      "control_change channel=0 control=64 value=62 time=16\n",
      "control_change channel=0 control=64 value=63 time=15\n",
      "control_change channel=0 control=64 value=64 time=16\n",
      "control_change channel=0 control=64 value=65 time=15\n",
      "control_change channel=0 control=64 value=67 time=14\n",
      "control_change channel=0 control=64 value=70 time=16\n",
      "control_change channel=0 control=64 value=73 time=15\n",
      "control_change channel=0 control=64 value=75 time=16\n",
      "control_change channel=0 control=64 value=77 time=15\n",
      "control_change channel=0 control=64 value=78 time=14\n",
      "control_change channel=0 control=64 value=78 time=16\n",
      "control_change channel=0 control=64 value=79 time=15\n",
      "control_change channel=0 control=64 value=80 time=15\n",
      "control_change channel=0 control=64 value=81 time=16\n",
      "control_change channel=0 control=64 value=82 time=14\n",
      "control_change channel=0 control=64 value=82 time=16\n",
      "control_change channel=0 control=64 value=83 time=15\n",
      "control_change channel=0 control=64 value=83 time=15\n",
      "control_change channel=0 control=64 value=84 time=54\n",
      "note_on channel=0 note=57 velocity=0 time=106\n",
      "note_on channel=0 note=72 velocity=0 time=31\n",
      "note_on channel=0 note=74 velocity=50 time=141\n",
      "note_on channel=0 note=75 velocity=0 time=46\n",
      "note_on channel=0 note=74 velocity=0 time=41\n",
      "control_change channel=0 control=64 value=83 time=213\n",
      "control_change channel=0 control=64 value=83 time=45\n",
      "control_change channel=0 control=64 value=82 time=31\n",
      "control_change channel=0 control=64 value=82 time=14\n",
      "control_change channel=0 control=64 value=81 time=16\n",
      "control_change channel=0 control=64 value=80 time=15\n",
      "note_on channel=0 note=58 velocity=58 time=10\n",
      "control_change channel=0 control=64 value=77 time=6\n",
      "note_on channel=0 note=74 velocity=54 time=0\n",
      "note_on channel=0 note=65 velocity=53 time=15\n",
      "control_change channel=0 control=64 value=73 time=7\n",
      "control_change channel=0 control=64 value=65 time=15\n",
      "control_change channel=0 control=64 value=31 time=16\n",
      "control_change channel=0 control=64 value=0 time=14\n",
      "control_change channel=0 control=64 value=41 time=139\n",
      "control_change channel=0 control=64 value=59 time=14\n",
      "control_change channel=0 control=64 value=64 time=15\n",
      "control_change channel=0 control=64 value=66 time=16\n",
      "control_change channel=0 control=64 value=69 time=15\n",
      "note_on channel=0 note=74 velocity=0 time=3\n",
      "control_change channel=0 control=64 value=72 time=13\n",
      "control_change channel=0 control=64 value=76 time=14\n",
      "control_change channel=0 control=64 value=79 time=15\n",
      "control_change channel=0 control=64 value=81 time=16\n",
      "control_change channel=0 control=64 value=82 time=15\n",
      "control_change channel=0 control=64 value=82 time=15\n",
      "control_change channel=0 control=64 value=83 time=15\n",
      "control_change channel=0 control=64 value=83 time=15\n",
      "control_change channel=0 control=64 value=84 time=16\n",
      "note_on channel=0 note=46 velocity=0 time=208\n",
      "control_change channel=0 control=64 value=83 time=35\n",
      "control_change channel=0 control=64 value=83 time=46\n",
      "control_change channel=0 control=64 value=82 time=30\n",
      "note_on channel=0 note=63 velocity=68 time=6\n",
      "control_change channel=0 control=64 value=82 time=9\n",
      "note_on channel=0 note=58 velocity=0 time=5\n",
      "control_change channel=0 control=64 value=81 time=10\n",
      "control_change channel=0 control=64 value=81 time=39\n",
      "note_on channel=0 note=65 velocity=0 time=4\n",
      "control_change channel=0 control=64 value=80 time=11\n",
      "control_change channel=0 control=64 value=79 time=15\n",
      "control_change channel=0 control=64 value=79 time=15\n",
      "control_change channel=0 control=64 value=78 time=16\n",
      "control_change channel=0 control=64 value=77 time=14\n",
      "control_change channel=0 control=64 value=76 time=16\n",
      "control_change channel=0 control=64 value=75 time=15\n",
      "control_change channel=0 control=64 value=74 time=15\n",
      "control_change channel=0 control=64 value=73 time=16\n",
      "control_change channel=0 control=64 value=73 time=14\n",
      "control_change channel=0 control=64 value=72 time=15\n",
      "control_change channel=0 control=64 value=71 time=16\n",
      "control_change channel=0 control=64 value=70 time=15\n",
      "control_change channel=0 control=64 value=69 time=16\n",
      "control_change channel=0 control=64 value=67 time=14\n",
      "control_change channel=0 control=64 value=65 time=15\n",
      "control_change channel=0 control=64 value=62 time=16\n",
      "control_change channel=0 control=64 value=59 time=15\n",
      "control_change channel=0 control=64 value=57 time=16\n",
      "control_change channel=0 control=64 value=56 time=60\n",
      "control_change channel=0 control=64 value=56 time=31\n",
      "control_change channel=0 control=64 value=55 time=31\n",
      "control_change channel=0 control=64 value=54 time=14\n",
      "control_change channel=0 control=64 value=53 time=15\n",
      "control_change channel=0 control=64 value=52 time=16\n",
      "control_change channel=0 control=64 value=50 time=15\n",
      "control_change channel=0 control=64 value=48 time=16\n",
      "control_change channel=0 control=64 value=45 time=15\n",
      "control_change channel=0 control=64 value=42 time=15\n",
      "control_change channel=0 control=64 value=37 time=16\n",
      "control_change channel=0 control=64 value=32 time=15\n",
      "control_change channel=0 control=64 value=21 time=15\n",
      "note_on channel=0 note=53 velocity=59 time=8\n",
      "control_change channel=0 control=64 value=0 time=5\n",
      "note_on channel=0 note=62 velocity=56 time=612\n",
      "note_on channel=0 note=58 velocity=55 time=3\n",
      "note_on channel=0 note=63 velocity=0 time=88\n",
      "note_on channel=0 note=53 velocity=0 time=254\n",
      "note_on channel=0 note=62 velocity=0 time=246\n",
      "note_on channel=0 note=60 velocity=61 time=10\n",
      "note_on channel=0 note=56 velocity=49 time=606\n",
      "note_on channel=0 note=58 velocity=0 time=77\n",
      "note_on channel=0 note=63 velocity=64 time=536\n",
      "note_on channel=0 note=58 velocity=42 time=16\n",
      "note_on channel=0 note=55 velocity=40 time=12\n",
      "note_on channel=0 note=56 velocity=0 time=43\n",
      "note_on channel=0 note=60 velocity=0 time=4\n",
      "note_on channel=0 note=68 velocity=64 time=525\n",
      "note_on channel=0 note=60 velocity=47 time=21\n",
      "note_on channel=0 note=58 velocity=0 time=14\n",
      "note_on channel=0 note=63 velocity=0 time=89\n",
      "note_on channel=0 note=60 velocity=0 time=444\n",
      "note_on channel=0 note=62 velocity=49 time=12\n",
      "note_on channel=0 note=55 velocity=0 time=4\n",
      "note_on channel=0 note=53 velocity=38 time=5\n",
      "control_change channel=0 control=64 value=56 time=127\n",
      "control_change channel=0 control=64 value=65 time=15\n",
      "control_change channel=0 control=64 value=69 time=15\n",
      "control_change channel=0 control=64 value=73 time=15\n",
      "control_change channel=0 control=64 value=78 time=16\n",
      "note_on channel=0 note=62 velocity=0 time=9\n",
      "note_on channel=0 note=53 velocity=0 time=4\n",
      "control_change channel=0 control=64 value=81 time=2\n",
      "control_change channel=0 control=64 value=83 time=14\n",
      "control_change channel=0 control=64 value=84 time=16\n",
      "control_change channel=0 control=64 value=86 time=15\n",
      "note_on channel=0 note=68 velocity=0 time=0\n",
      "control_change channel=0 control=64 value=87 time=16\n",
      "control_change channel=0 control=64 value=88 time=15\n",
      "control_change channel=0 control=64 value=90 time=14\n",
      "control_change channel=0 control=64 value=90 time=16\n",
      "control_change channel=0 control=64 value=90 time=145\n",
      "control_change channel=0 control=64 value=89 time=31\n",
      "control_change channel=0 control=64 value=89 time=31\n",
      "control_change channel=0 control=64 value=88 time=14\n",
      "control_change channel=0 control=64 value=87 time=16\n",
      "control_change channel=0 control=64 value=85 time=15\n",
      "control_change channel=0 control=64 value=84 time=14\n",
      "note_on channel=0 note=70 velocity=68 time=2\n",
      "note_on channel=0 note=67 velocity=61 time=3\n",
      "note_on channel=0 note=63 velocity=58 time=2\n",
      "note_on channel=0 note=51 velocity=53 time=6\n",
      "control_change channel=0 control=64 value=81 time=3\n",
      "control_change channel=0 control=64 value=79 time=15\n",
      "control_change channel=0 control=64 value=76 time=16\n",
      "control_change channel=0 control=64 value=72 time=15\n",
      "control_change channel=0 control=64 value=67 time=14\n",
      "control_change channel=0 control=64 value=59 time=16\n",
      "control_change channel=0 control=64 value=0 time=15\n",
      "note_on channel=0 note=61 velocity=54 time=491\n",
      "note_on channel=0 note=75 velocity=64 time=3\n",
      "note_on channel=0 note=67 velocity=0 time=41\n",
      "note_on channel=0 note=63 velocity=0 time=27\n",
      "note_on channel=0 note=70 velocity=0 time=505\n",
      "note_on channel=0 note=65 velocity=55 time=21\n",
      "note_on channel=0 note=56 velocity=37 time=5\n",
      "note_on channel=0 note=60 velocity=51 time=1\n",
      "note_on channel=0 note=51 velocity=0 time=32\n",
      "note_on channel=0 note=61 velocity=0 time=38\n",
      "note_on channel=0 note=58 velocity=49 time=458\n",
      "note_on channel=0 note=74 velocity=65 time=28\n",
      "control_change channel=0 control=64 value=41 time=38\n",
      "note_on channel=0 note=60 velocity=0 time=14\n",
      "control_change channel=0 control=64 value=60 time=2\n",
      "control_change channel=0 control=64 value=65 time=14\n",
      "control_change channel=0 control=64 value=69 time=15\n",
      "control_change channel=0 control=64 value=74 time=16\n",
      "note_on channel=0 note=75 velocity=0 time=0\n",
      "control_change channel=0 control=64 value=80 time=15\n",
      "control_change channel=0 control=64 value=83 time=16\n",
      "control_change channel=0 control=64 value=85 time=14\n",
      "control_change channel=0 control=64 value=87 time=15\n",
      "control_change channel=0 control=64 value=88 time=16\n",
      "control_change channel=0 control=64 value=90 time=15\n",
      "note_on channel=0 note=65 velocity=0 time=0\n",
      "control_change channel=0 control=64 value=93 time=15\n",
      "control_change channel=0 control=64 value=95 time=16\n",
      "note_on channel=0 note=58 velocity=0 time=2\n",
      "control_change channel=0 control=64 value=97 time=13\n",
      "control_change channel=0 control=64 value=98 time=16\n",
      "note_on channel=0 note=56 velocity=0 time=0\n",
      "control_change channel=0 control=64 value=100 time=14\n",
      "note_on channel=0 note=74 velocity=0 time=10\n",
      "control_change channel=0 control=64 value=101 time=5\n",
      "control_change channel=0 control=64 value=101 time=16\n",
      "control_change channel=0 control=64 value=102 time=15\n",
      "control_change channel=0 control=64 value=102 time=45\n",
      "control_change channel=0 control=64 value=102 time=160\n",
      "control_change channel=0 control=64 value=101 time=31\n",
      "control_change channel=0 control=64 value=100 time=15\n",
      "note_on channel=0 note=55 velocity=49 time=15\n",
      "control_change channel=0 control=64 value=100 time=1\n",
      "control_change channel=0 control=64 value=99 time=14\n",
      "note_on channel=0 note=67 velocity=68 time=15\n",
      "control_change channel=0 control=64 value=98 time=1\n",
      "note_on channel=0 note=75 velocity=73 time=0\n",
      "control_change channel=0 control=64 value=96 time=15\n",
      "control_change channel=0 control=64 value=95 time=15\n",
      "control_change channel=0 control=64 value=93 time=16\n",
      "control_change channel=0 control=64 value=90 time=15\n",
      "control_change channel=0 control=64 value=87 time=15\n",
      "control_change channel=0 control=64 value=84 time=16\n",
      "control_change channel=0 control=64 value=81 time=14\n",
      "control_change channel=0 control=64 value=78 time=16\n",
      "control_change channel=0 control=64 value=74 time=15\n",
      "control_change channel=0 control=64 value=67 time=15\n",
      "control_change channel=0 control=64 value=54 time=16\n",
      "control_change channel=0 control=64 value=0 time=14\n",
      "note_on channel=0 note=63 velocity=65 time=404\n",
      "note_on channel=0 note=60 velocity=58 time=10\n",
      "note_on channel=0 note=55 velocity=0 time=224\n",
      "note_on channel=0 note=80 velocity=63 time=359\n",
      "note_on channel=0 note=72 velocity=61 time=7\n",
      "note_on channel=0 note=75 velocity=0 time=26\n",
      "note_on channel=0 note=67 velocity=0 time=4\n",
      "note_on channel=0 note=72 velocity=0 time=509\n",
      "note_on channel=0 note=60 velocity=0 time=6\n",
      "note_on channel=0 note=70 velocity=53 time=25\n",
      "note_on channel=0 note=65 velocity=37 time=15\n",
      "note_on channel=0 note=62 velocity=40 time=3\n",
      "note_on channel=0 note=63 velocity=0 time=30\n",
      "note_on channel=0 note=63 velocity=32 time=578\n",
      "note_on channel=0 note=79 velocity=46 time=5\n",
      "note_on channel=0 note=62 velocity=0 time=65\n",
      "note_on channel=0 note=80 velocity=0 time=1\n",
      "note_on channel=0 note=65 velocity=0 time=39\n",
      "control_change channel=0 control=64 value=39 time=54\n",
      "control_change channel=0 control=64 value=56 time=16\n",
      "control_change channel=0 control=64 value=61 time=15\n",
      "control_change channel=0 control=64 value=63 time=15\n",
      "control_change channel=0 control=64 value=65 time=16\n",
      "control_change channel=0 control=64 value=67 time=14\n",
      "note_on channel=0 note=70 velocity=0 time=3\n",
      "control_change channel=0 control=64 value=70 time=12\n",
      "control_change channel=0 control=64 value=73 time=16\n",
      "control_change channel=0 control=64 value=75 time=15\n",
      "control_change channel=0 control=64 value=76 time=16\n",
      "control_change channel=0 control=64 value=77 time=15\n",
      "control_change channel=0 control=64 value=77 time=14\n",
      "control_change channel=0 control=64 value=78 time=31\n",
      "control_change channel=0 control=64 value=77 time=99\n",
      "control_change channel=0 control=64 value=77 time=46\n",
      "control_change channel=0 control=64 value=76 time=30\n",
      "control_change channel=0 control=64 value=75 time=15\n",
      "control_change channel=0 control=64 value=74 time=15\n",
      "control_change channel=0 control=64 value=71 time=15\n",
      "control_change channel=0 control=64 value=67 time=15\n",
      "control_change channel=0 control=64 value=56 time=15\n",
      "note_on channel=0 note=72 velocity=44 time=13\n",
      "control_change channel=0 control=64 value=0 time=3\n",
      "note_on channel=0 note=56 velocity=28 time=0\n",
      "control_change channel=0 control=64 value=29 time=153\n",
      "control_change channel=0 control=64 value=52 time=15\n",
      "control_change channel=0 control=64 value=60 time=14\n",
      "control_change channel=0 control=64 value=64 time=16\n",
      "control_change channel=0 control=64 value=66 time=15\n",
      "control_change channel=0 control=64 value=69 time=16\n",
      "control_change channel=0 control=64 value=72 time=15\n",
      "note_on channel=0 note=79 velocity=0 time=7\n",
      "control_change channel=0 control=64 value=74 time=7\n",
      "control_change channel=0 control=64 value=76 time=16\n",
      "control_change channel=0 control=64 value=77 time=15\n",
      "control_change channel=0 control=64 value=77 time=31\n",
      "control_change channel=0 control=64 value=77 time=76\n",
      "control_change channel=0 control=64 value=76 time=46\n",
      "control_change channel=0 control=64 value=75 time=30\n",
      "control_change channel=0 control=64 value=75 time=15\n",
      "control_change channel=0 control=64 value=73 time=15\n",
      "control_change channel=0 control=64 value=71 time=16\n",
      "control_change channel=0 control=64 value=69 time=14\n",
      "control_change channel=0 control=64 value=66 time=15\n",
      "note_on channel=0 note=77 velocity=57 time=12\n",
      "control_change channel=0 control=64 value=62 time=4\n",
      "note_on channel=0 note=68 velocity=30 time=4\n",
      "control_change channel=0 control=64 value=56 time=11\n",
      "control_change channel=0 control=64 value=51 time=23\n",
      "control_change channel=0 control=64 value=49 time=15\n",
      "control_change channel=0 control=64 value=47 time=16\n",
      "control_change channel=0 control=64 value=45 time=14\n",
      "control_change channel=0 control=64 value=42 time=15\n",
      "control_change channel=0 control=64 value=37 time=16\n",
      "control_change channel=0 control=64 value=31 time=15\n",
      "control_change channel=0 control=64 value=24 time=15\n",
      "control_change channel=0 control=64 value=15 time=15\n",
      "control_change channel=0 control=64 value=0 time=15\n",
      "note_on channel=0 note=75 velocity=62 time=103\n",
      "note_on channel=0 note=77 velocity=0 time=55\n",
      "note_on channel=0 note=74 velocity=50 time=247\n",
      "note_on channel=0 note=58 velocity=28 time=2\n",
      "note_on channel=0 note=70 velocity=49 time=5\n",
      "note_on channel=0 note=56 velocity=0 time=43\n",
      "note_on channel=0 note=72 velocity=0 time=5\n",
      "note_on channel=0 note=75 velocity=0 time=12\n",
      "note_on channel=0 note=75 velocity=43 time=552\n",
      "note_on channel=0 note=74 velocity=0 time=55\n",
      "note_on channel=0 note=67 velocity=31 time=1\n",
      "note_on channel=0 note=68 velocity=0 time=15\n",
      "note_on channel=0 note=63 velocity=0 time=58\n",
      "note_on channel=0 note=65 velocity=28 time=515\n",
      "note_on channel=0 note=67 velocity=0 time=83\n",
      "note_on channel=0 note=74 velocity=45 time=508\n",
      "control_change channel=0 control=64 value=37 time=1\n",
      "note_on channel=0 note=75 velocity=0 time=9\n",
      "control_change channel=0 control=64 value=52 time=6\n",
      "control_change channel=0 control=64 value=60 time=15\n",
      "control_change channel=0 control=64 value=63 time=16\n",
      "control_change channel=0 control=64 value=65 time=14\n",
      "control_change channel=0 control=64 value=67 time=16\n",
      "control_change channel=0 control=64 value=70 time=14\n",
      "control_change channel=0 control=64 value=73 time=15\n",
      "control_change channel=0 control=64 value=77 time=16\n",
      "control_change channel=0 control=64 value=80 time=14\n",
      "control_change channel=0 control=64 value=81 time=15\n",
      "control_change channel=0 control=64 value=81 time=16\n",
      "control_change channel=0 control=64 value=82 time=15\n",
      "control_change channel=0 control=64 value=83 time=16\n",
      "control_change channel=0 control=64 value=84 time=14\n",
      "control_change channel=0 control=64 value=86 time=15\n",
      "control_change channel=0 control=64 value=87 time=16\n",
      "control_change channel=0 control=64 value=87 time=15\n",
      "control_change channel=0 control=64 value=88 time=16\n",
      "note_on channel=0 note=68 velocity=58 time=6\n",
      "control_change channel=0 control=64 value=88 time=9\n",
      "note_on channel=0 note=68 velocity=0 time=233\n",
      "control_change channel=0 control=64 value=88 time=26\n",
      "control_change channel=0 control=64 value=87 time=15\n",
      "control_change channel=0 control=64 value=86 time=15\n",
      "control_change channel=0 control=64 value=84 time=16\n",
      "note_on channel=0 note=67 velocity=65 time=8\n",
      "note_on channel=0 note=60 velocity=39 time=4\n",
      "control_change channel=0 control=64 value=82 time=3\n",
      "note_on channel=0 note=76 velocity=61 time=0\n",
      "control_change channel=0 control=64 value=79 time=14\n",
      "control_change channel=0 control=64 value=76 time=16\n",
      "control_change channel=0 control=64 value=73 time=15\n",
      "control_change channel=0 control=64 value=69 time=24\n",
      "control_change channel=0 control=64 value=63 time=14\n",
      "note_on channel=0 note=70 velocity=0 time=2\n",
      "note_on channel=0 note=74 velocity=0 time=0\n",
      "control_change channel=0 control=64 value=47 time=13\n",
      "control_change channel=0 control=64 value=0 time=16\n",
      "note_on channel=0 note=65 velocity=0 time=0\n",
      "note_on channel=0 note=77 velocity=61 time=492\n",
      "note_on channel=0 note=58 velocity=0 time=5\n",
      "note_on channel=0 note=72 velocity=59 time=2\n",
      "note_on channel=0 note=56 velocity=35 time=2\n",
      "note_on channel=0 note=76 velocity=0 time=31\n",
      "note_on channel=0 note=67 velocity=0 time=52\n",
      "note_on channel=0 note=56 velocity=0 time=420\n",
      "note_on channel=0 note=62 velocity=52 time=53\n",
      "note_on channel=0 note=71 velocity=58 time=2\n",
      "note_on channel=0 note=55 velocity=45 time=2\n",
      "note_on channel=0 note=72 velocity=0 time=42\n",
      "note_on channel=0 note=60 velocity=0 time=40\n",
      "note_on channel=0 note=62 velocity=0 time=424\n",
      "note_on channel=0 note=60 velocity=52 time=26\n",
      "note_on channel=0 note=63 velocity=49 time=6\n",
      "note_on channel=0 note=75 velocity=69 time=29\n",
      "note_on channel=0 note=72 velocity=57 time=4\n",
      "note_on channel=0 note=55 velocity=0 time=1\n",
      "note_on channel=0 note=77 velocity=0 time=48\n",
      "note_on channel=0 note=71 velocity=0 time=52\n",
      "note_on channel=0 note=72 velocity=0 time=143\n",
      "note_on channel=0 note=70 velocity=70 time=11\n",
      "note_on channel=0 note=65 velocity=56 time=263\n",
      "note_on channel=0 note=74 velocity=73 time=6\n",
      "note_on channel=0 note=63 velocity=0 time=3\n",
      "note_on channel=0 note=68 velocity=70 time=0\n",
      "note_on channel=0 note=70 velocity=0 time=21\n",
      "note_on channel=0 note=75 velocity=0 time=31\n",
      "note_on channel=0 note=65 velocity=0 time=223\n",
      "note_on channel=0 note=63 velocity=65 time=6\n",
      "note_on channel=0 note=70 velocity=63 time=296\n",
      "note_on channel=0 note=79 velocity=72 time=1\n",
      "note_on channel=0 note=58 velocity=45 time=9\n",
      "note_on channel=0 note=62 velocity=47 time=2\n",
      "note_on channel=0 note=74 velocity=0 time=8\n",
      "note_on channel=0 note=68 velocity=0 time=29\n",
      "note_on channel=0 note=60 velocity=0 time=12\n",
      "note_on channel=0 note=63 velocity=0 time=6\n",
      "note_on channel=0 note=58 velocity=0 time=510\n",
      "note_on channel=0 note=68 velocity=54 time=14\n",
      "note_on channel=0 note=60 velocity=43 time=9\n",
      "note_on channel=0 note=63 velocity=36 time=5\n",
      "note_on channel=0 note=70 velocity=0 time=10\n",
      "note_on channel=0 note=62 velocity=0 time=30\n",
      "note_on channel=0 note=79 velocity=0 time=516\n",
      "note_on channel=0 note=60 velocity=0 time=7\n",
      "note_on channel=0 note=62 velocity=42 time=11\n",
      "note_on channel=0 note=65 velocity=33 time=0\n",
      "note_on channel=0 note=77 velocity=49 time=4\n",
      "note_on channel=0 note=63 velocity=0 time=2\n",
      "note_on channel=0 note=62 velocity=0 time=558\n",
      "note_on channel=0 note=58 velocity=50 time=19\n",
      "note_on channel=0 note=65 velocity=0 time=7\n",
      "note_on channel=0 note=55 velocity=49 time=1\n",
      "control_change channel=0 control=64 value=44 time=285\n",
      "control_change channel=0 control=64 value=57 time=15\n",
      "control_change channel=0 control=64 value=62 time=14\n",
      "control_change channel=0 control=64 value=64 time=16\n",
      "control_change channel=0 control=64 value=66 time=15\n",
      "control_change channel=0 control=64 value=68 time=15\n",
      "control_change channel=0 control=64 value=72 time=16\n",
      "control_change channel=0 control=64 value=77 time=14\n",
      "control_change channel=0 control=64 value=79 time=16\n",
      "control_change channel=0 control=64 value=81 time=15\n",
      "note_on channel=0 note=68 velocity=0 time=7\n",
      "control_change channel=0 control=64 value=82 time=8\n",
      "control_change channel=0 control=64 value=82 time=16\n",
      "control_change channel=0 control=64 value=83 time=14\n",
      "control_change channel=0 control=64 value=85 time=15\n",
      "control_change channel=0 control=64 value=86 time=16\n",
      "control_change channel=0 control=64 value=87 time=14\n",
      "note_on channel=0 note=58 velocity=0 time=3\n",
      "control_change channel=0 control=64 value=87 time=13\n",
      "control_change channel=0 control=64 value=88 time=15\n",
      "note_on channel=0 note=75 velocity=65 time=9\n",
      "note_on channel=0 note=67 velocity=61 time=3\n",
      "control_change channel=0 control=64 value=88 time=3\n",
      "note_on channel=0 note=77 velocity=0 time=19\n",
      "control_change channel=0 control=64 value=89 time=26\n",
      "note_on channel=0 note=55 velocity=0 time=202\n",
      "note_on channel=0 note=56 velocity=66 time=16\n",
      "note_on channel=0 note=67 velocity=0 time=15\n",
      "control_change channel=0 control=64 value=88 time=3\n",
      "control_change channel=0 control=64 value=88 time=76\n",
      "control_change channel=0 control=64 value=87 time=46\n",
      "control_change channel=0 control=64 value=87 time=31\n",
      "control_change channel=0 control=64 value=86 time=17\n",
      "control_change channel=0 control=64 value=86 time=14\n",
      "control_change channel=0 control=64 value=85 time=31\n",
      "control_change channel=0 control=64 value=85 time=15\n",
      "control_change channel=0 control=64 value=84 time=16\n",
      "control_change channel=0 control=64 value=83 time=14\n",
      "control_change channel=0 control=64 value=81 time=15\n",
      "note_on channel=0 note=56 velocity=0 time=9\n",
      "control_change channel=0 control=64 value=76 time=7\n",
      "note_on channel=0 note=58 velocity=67 time=3\n",
      "note_on channel=0 note=65 velocity=64 time=0\n",
      "control_change channel=0 control=64 value=69 time=12\n",
      "control_change channel=0 control=64 value=56 time=15\n",
      "control_change channel=0 control=64 value=0 time=16\n",
      "control_change channel=0 control=64 value=47 time=106\n",
      "control_change channel=0 control=64 value=62 time=16\n",
      "control_change channel=0 control=64 value=67 time=14\n",
      "control_change channel=0 control=64 value=72 time=16\n",
      "control_change channel=0 control=64 value=77 time=15\n",
      "control_change channel=0 control=64 value=80 time=14\n",
      "control_change channel=0 control=64 value=82 time=16\n",
      "control_change channel=0 control=64 value=83 time=15\n",
      "control_change channel=0 control=64 value=84 time=15\n",
      "control_change channel=0 control=64 value=85 time=16\n",
      "note_on channel=0 note=65 velocity=0 time=0\n",
      "control_change channel=0 control=64 value=86 time=14\n",
      "note_on channel=0 note=75 velocity=0 time=6\n",
      "control_change channel=0 control=64 value=86 time=10\n",
      "control_change channel=0 control=64 value=87 time=15\n",
      "control_change channel=0 control=64 value=87 time=174\n",
      "control_change channel=0 control=64 value=86 time=16\n",
      "control_change channel=0 control=64 value=85 time=15\n",
      "control_change channel=0 control=64 value=84 time=14\n",
      "note_on channel=0 note=46 velocity=57 time=13\n",
      "control_change channel=0 control=64 value=82 time=3\n",
      "note_on channel=0 note=74 velocity=63 time=3\n",
      "note_on channel=0 note=67 velocity=62 time=1\n",
      "control_change channel=0 control=64 value=79 time=11\n",
      "control_change channel=0 control=64 value=76 time=16\n",
      "control_change channel=0 control=64 value=72 time=15\n",
      "control_change channel=0 control=64 value=66 time=16\n",
      "control_change channel=0 control=64 value=53 time=16\n",
      "control_change channel=0 control=64 value=0 time=14\n",
      "note_on channel=0 note=68 velocity=67 time=201\n",
      "note_on channel=0 note=67 velocity=0 time=17\n",
      "note_on channel=0 note=51 velocity=42 time=292\n",
      "note_on channel=0 note=67 velocity=57 time=3\n",
      "note_on channel=0 note=68 velocity=0 time=26\n",
      "note_on channel=0 note=46 velocity=0 time=8\n",
      "control_change channel=0 control=64 value=50 time=144\n",
      "control_change channel=0 control=64 value=60 time=16\n",
      "control_change channel=0 control=64 value=63 time=15\n",
      "note_on channel=0 note=74 velocity=0 time=2\n",
      "note_on channel=0 note=58 velocity=0 time=5\n",
      "control_change channel=0 control=64 value=65 time=8\n",
      "control_change channel=0 control=64 value=67 time=14\n",
      "control_change channel=0 control=64 value=69 time=15\n",
      "control_change channel=0 control=64 value=72 time=16\n",
      "control_change channel=0 control=64 value=75 time=15\n",
      "control_change channel=0 control=64 value=78 time=15\n",
      "control_change channel=0 control=64 value=79 time=16\n",
      "control_change channel=0 control=64 value=79 time=15\n",
      "control_change channel=0 control=64 value=80 time=45\n",
      "control_change channel=0 control=64 value=79 time=92\n",
      "control_change channel=0 control=64 value=78 time=30\n",
      "control_change channel=0 control=64 value=76 time=16\n",
      "control_change channel=0 control=64 value=72 time=14\n",
      "control_change channel=0 control=64 value=64 time=16\n",
      "note_on channel=0 note=72 velocity=60 time=14\n",
      "control_change channel=0 control=64 value=40 time=1\n",
      "note_on channel=0 note=63 velocity=46 time=4\n",
      "control_change channel=0 control=64 value=0 time=11\n",
      "control_change channel=0 control=64 value=34 time=45\n",
      "control_change channel=0 control=64 value=51 time=16\n",
      "control_change channel=0 control=64 value=60 time=15\n",
      "control_change channel=0 control=64 value=63 time=15\n",
      "control_change channel=0 control=64 value=65 time=15\n",
      "control_change channel=0 control=64 value=67 time=15\n",
      "control_change channel=0 control=64 value=70 time=16\n",
      "control_change channel=0 control=64 value=72 time=15\n",
      "control_change channel=0 control=64 value=75 time=14\n",
      "control_change channel=0 control=64 value=77 time=16\n",
      "control_change channel=0 control=64 value=78 time=15\n",
      "note_on channel=0 note=63 velocity=0 time=53\n",
      "note_on channel=0 note=72 velocity=0 time=5\n",
      "control_change channel=0 control=64 value=77 time=11\n",
      "note_on channel=0 note=70 velocity=60 time=6\n",
      "control_change channel=0 control=64 value=76 time=9\n",
      "note_on channel=0 note=62 velocity=51 time=2\n",
      "control_change channel=0 control=64 value=72 time=13\n",
      "control_change channel=0 control=64 value=65 time=15\n",
      "control_change channel=0 control=64 value=49 time=15\n",
      "control_change channel=0 control=64 value=0 time=16\n",
      "control_change channel=0 control=64 value=21 time=15\n",
      "note_on channel=0 note=67 velocity=0 time=4\n",
      "control_change channel=0 control=64 value=49 time=11\n",
      "control_change channel=0 control=64 value=57 time=15\n",
      "control_change channel=0 control=64 value=60 time=15\n",
      "control_change channel=0 control=64 value=62 time=16\n",
      "control_change channel=0 control=64 value=64 time=14\n",
      "control_change channel=0 control=64 value=65 time=16\n",
      "control_change channel=0 control=64 value=67 time=15\n",
      "control_change channel=0 control=64 value=69 time=15\n",
      "control_change channel=0 control=64 value=71 time=16\n",
      "control_change channel=0 control=64 value=72 time=15\n",
      "control_change channel=0 control=64 value=73 time=15\n",
      "control_change channel=0 control=64 value=72 time=31\n",
      "control_change channel=0 control=64 value=70 time=16\n",
      "note_on channel=0 note=69 velocity=61 time=3\n",
      "note_on channel=0 note=60 velocity=40 time=2\n",
      "note_on channel=0 note=65 velocity=51 time=7\n",
      "note_on channel=0 note=70 velocity=0 time=2\n",
      "control_change channel=0 control=64 value=64 time=1\n",
      "control_change channel=0 control=64 value=47 time=14\n",
      "note_on channel=0 note=62 velocity=0 time=6\n",
      "control_change channel=0 control=64 value=0 time=10\n",
      "control_change channel=0 control=64 value=39 time=61\n",
      "control_change channel=0 control=64 value=59 time=16\n",
      "control_change channel=0 control=64 value=65 time=15\n",
      "control_change channel=0 control=64 value=69 time=14\n",
      "control_change channel=0 control=64 value=73 time=16\n",
      "control_change channel=0 control=64 value=78 time=15\n",
      "control_change channel=0 control=64 value=81 time=16\n",
      "control_change channel=0 control=64 value=82 time=15\n",
      "note_on channel=0 note=51 velocity=0 time=13\n",
      "note_on channel=0 note=60 velocity=0 time=4\n",
      "control_change channel=0 control=64 value=82 time=13\n",
      "note_on channel=0 note=69 velocity=0 time=7\n",
      "control_change channel=0 control=64 value=82 time=229\n",
      "control_change channel=0 control=64 value=81 time=14\n",
      "control_change channel=0 control=64 value=81 time=15\n",
      "control_change channel=0 control=64 value=80 time=16\n",
      "control_change channel=0 control=64 value=79 time=15\n",
      "control_change channel=0 control=64 value=78 time=15\n",
      "note_on channel=0 note=50 velocity=42 time=1\n",
      "control_change channel=0 control=64 value=77 time=14\n",
      "note_on channel=0 note=62 velocity=42 time=0\n",
      "note_on channel=0 note=70 velocity=76 time=2\n",
      "control_change channel=0 control=64 value=76 time=13\n",
      "control_change channel=0 control=64 value=74 time=16\n",
      "control_change channel=0 control=64 value=72 time=15\n",
      "control_change channel=0 control=64 value=69 time=16\n",
      "control_change channel=0 control=64 value=66 time=15\n",
      "control_change channel=0 control=64 value=63 time=15\n",
      "control_change channel=0 control=64 value=57 time=16\n",
      "control_change channel=0 control=64 value=53 time=15\n",
      "control_change channel=0 control=64 value=52 time=14\n",
      "control_change channel=0 control=64 value=51 time=16\n",
      "control_change channel=0 control=64 value=50 time=15\n",
      "control_change channel=0 control=64 value=46 time=15\n",
      "control_change channel=0 control=64 value=42 time=16\n",
      "control_change channel=0 control=64 value=35 time=16\n",
      "control_change channel=0 control=64 value=28 time=15\n",
      "control_change channel=0 control=64 value=15 time=15\n",
      "control_change channel=0 control=64 value=0 time=15\n",
      "note_on channel=0 note=62 velocity=0 time=22\n",
      "note_on channel=0 note=60 velocity=62 time=4\n",
      "note_on channel=0 note=50 velocity=0 time=269\n",
      "note_on channel=0 note=55 velocity=53 time=0\n",
      "note_on channel=0 note=60 velocity=0 time=4\n",
      "note_on channel=0 note=58 velocity=60 time=13\n",
      "note_on channel=0 note=65 velocity=0 time=1\n",
      "control_change channel=0 control=64 value=26 time=105\n",
      "control_change channel=0 control=64 value=49 time=15\n",
      "control_change channel=0 control=64 value=58 time=16\n",
      "control_change channel=0 control=64 value=62 time=15\n",
      "control_change channel=0 control=64 value=64 time=14\n",
      "control_change channel=0 control=64 value=66 time=16\n",
      "control_change channel=0 control=64 value=69 time=15\n",
      "control_change channel=0 control=64 value=71 time=15\n",
      "control_change channel=0 control=64 value=74 time=16\n",
      "control_change channel=0 control=64 value=76 time=15\n",
      "note_on channel=0 note=70 velocity=0 time=1\n",
      "note_on channel=0 note=58 velocity=0 time=13\n",
      "control_change channel=0 control=64 value=77 time=2\n",
      "note_on channel=0 note=57 velocity=68 time=6\n",
      "control_change channel=0 control=64 value=76 time=115\n",
      "control_change channel=0 control=64 value=76 time=29\n",
      "control_change channel=0 control=64 value=75 time=16\n",
      "control_change channel=0 control=64 value=75 time=15\n",
      "control_change channel=0 control=64 value=74 time=17\n",
      "control_change channel=0 control=64 value=72 time=15\n",
      "control_change channel=0 control=64 value=70 time=15\n",
      "control_change channel=0 control=64 value=68 time=15\n",
      "control_change channel=0 control=64 value=65 time=15\n",
      "control_change channel=0 control=64 value=64 time=15\n",
      "note_on channel=0 note=58 velocity=58 time=1\n",
      "control_change channel=0 control=64 value=63 time=15\n",
      "note_on channel=0 note=57 velocity=0 time=13\n",
      "control_change channel=0 control=64 value=62 time=2\n",
      "control_change channel=0 control=64 value=61 time=15\n",
      "note_on channel=0 note=75 velocity=72 time=9\n",
      "note_on channel=0 note=63 velocity=72 time=5\n",
      "control_change channel=0 control=64 value=59 time=1\n",
      "control_change channel=0 control=64 value=56 time=15\n",
      "control_change channel=0 control=64 value=52 time=16\n",
      "control_change channel=0 control=64 value=47 time=14\n",
      "control_change channel=0 control=64 value=41 time=15\n",
      "control_change channel=0 control=64 value=36 time=16\n",
      "control_change channel=0 control=64 value=29 time=15\n",
      "control_change channel=0 control=64 value=18 time=16\n",
      "control_change channel=0 control=64 value=0 time=14\n",
      "note_on channel=0 note=74 velocity=63 time=11\n",
      "note_on channel=0 note=75 velocity=0 time=71\n",
      "note_on channel=0 note=72 velocity=58 time=58\n",
      "note_on channel=0 note=74 velocity=0 time=0\n",
      "note_on channel=0 note=55 velocity=0 time=19\n",
      "note_on channel=0 note=72 velocity=0 time=58\n",
      "note_on channel=0 note=75 velocity=24 time=12\n",
      "note_on channel=0 note=70 velocity=59 time=40\n",
      "note_on channel=0 note=70 velocity=0 time=103\n",
      "note_on channel=0 note=69 velocity=55 time=71\n",
      "note_on channel=0 note=60 velocity=42 time=9\n",
      "note_on channel=0 note=53 velocity=35 time=14\n",
      "note_on channel=0 note=58 velocity=0 time=8\n",
      "note_on channel=0 note=63 velocity=0 time=370\n",
      "note_on channel=0 note=75 velocity=0 time=162\n",
      "note_on channel=0 note=74 velocity=53 time=18\n",
      "note_on channel=0 note=70 velocity=58 time=5\n",
      "note_on channel=0 note=60 velocity=0 time=5\n",
      "note_on channel=0 note=62 velocity=56 time=9\n",
      "note_on channel=0 note=63 velocity=66 time=278\n",
      "note_on channel=0 note=62 velocity=0 time=34\n",
      "note_on channel=0 note=74 velocity=0 time=259\n",
      "note_on channel=0 note=72 velocity=62 time=16\n",
      "note_on channel=0 note=65 velocity=67 time=7\n",
      "note_on channel=0 note=69 velocity=0 time=41\n",
      "note_on channel=0 note=63 velocity=0 time=7\n",
      "note_on channel=0 note=70 velocity=0 time=12\n",
      "note_on channel=0 note=68 velocity=53 time=507\n",
      "note_on channel=0 note=65 velocity=0 time=245\n",
      "note_on channel=0 note=63 velocity=52 time=16\n",
      "note_on channel=0 note=72 velocity=0 time=171\n",
      "note_on channel=0 note=53 velocity=0 time=71\n",
      "note_on channel=0 note=70 velocity=58 time=21\n",
      "note_on channel=0 note=63 velocity=0 time=2\n",
      "note_on channel=0 note=55 velocity=39 time=1\n",
      "note_on channel=0 note=62 velocity=44 time=24\n",
      "note_on channel=0 note=68 velocity=0 time=31\n",
      "note_on channel=0 note=62 velocity=0 time=202\n",
      "control_change channel=0 control=64 value=27 time=8\n",
      "control_change channel=0 control=64 value=47 time=15\n",
      "note_on channel=0 note=58 velocity=42 time=4\n",
      "control_change channel=0 control=64 value=56 time=12\n",
      "control_change channel=0 control=64 value=61 time=15\n",
      "control_change channel=0 control=64 value=64 time=15\n",
      "control_change channel=0 control=64 value=65 time=16\n",
      "control_change channel=0 control=64 value=67 time=15\n",
      "control_change channel=0 control=64 value=68 time=16\n",
      "control_change channel=0 control=64 value=70 time=15\n",
      "control_change channel=0 control=64 value=73 time=14\n",
      "note_on channel=0 note=58 velocity=0 time=6\n",
      "control_change channel=0 control=64 value=74 time=10\n",
      "control_change channel=0 control=64 value=75 time=15\n",
      "note_on channel=0 note=55 velocity=0 time=55\n",
      "note_on channel=0 note=67 velocity=52 time=62\n",
      "note_on channel=0 note=63 velocity=48 time=1\n",
      "control_change channel=0 control=64 value=75 time=26\n",
      "control_change channel=0 control=64 value=74 time=30\n",
      "control_change channel=0 control=64 value=73 time=16\n",
      "control_change channel=0 control=64 value=72 time=15\n",
      "control_change channel=0 control=64 value=71 time=16\n",
      "control_change channel=0 control=64 value=67 time=15\n",
      "control_change channel=0 control=64 value=64 time=15\n",
      "note_on channel=0 note=53 velocity=52 time=3\n",
      "control_change channel=0 control=64 value=58 time=12\n",
      "control_change channel=0 control=64 value=49 time=15\n",
      "control_change channel=0 control=64 value=44 time=15\n",
      "control_change channel=0 control=64 value=43 time=16\n",
      "control_change channel=0 control=64 value=43 time=15\n",
      "control_change channel=0 control=64 value=42 time=15\n",
      "note_on channel=0 note=53 velocity=0 time=2\n",
      "control_change channel=0 control=64 value=40 time=13\n",
      "control_change channel=0 control=64 value=37 time=15\n",
      "control_change channel=0 control=64 value=34 time=15\n",
      "note_on channel=0 note=51 velocity=47 time=9\n",
      "control_change channel=0 control=64 value=31 time=6\n",
      "control_change channel=0 control=64 value=29 time=16\n",
      "control_change channel=0 control=64 value=29 time=30\n",
      "control_change channel=0 control=64 value=27 time=30\n",
      "control_change channel=0 control=64 value=24 time=15\n",
      "note_on channel=0 note=51 velocity=0 time=15\n",
      "control_change channel=0 control=64 value=18 time=1\n",
      "control_change channel=0 control=64 value=0 time=15\n",
      "note_on channel=0 note=50 velocity=45 time=36\n",
      "note_on channel=0 note=67 velocity=0 time=114\n",
      "note_on channel=0 note=68 velocity=55 time=50\n",
      "note_on channel=0 note=50 velocity=0 time=3\n",
      "note_on channel=0 note=48 velocity=46 time=6\n",
      "note_on channel=0 note=70 velocity=0 time=26\n",
      "note_on channel=0 note=50 velocity=46 time=510\n",
      "note_on channel=0 note=65 velocity=54 time=9\n",
      "note_on channel=0 note=58 velocity=50 time=11\n",
      "note_on channel=0 note=68 velocity=0 time=14\n",
      "note_on channel=0 note=48 velocity=0 time=19\n",
      "note_on channel=0 note=50 velocity=0 time=525\n",
      "note_on channel=0 note=51 velocity=46 time=7\n",
      "note_on channel=0 note=67 velocity=57 time=4\n",
      "note_on channel=0 note=65 velocity=0 time=43\n",
      "note_on channel=0 note=63 velocity=0 time=439\n",
      "note_on channel=0 note=63 velocity=53 time=131\n",
      "note_on channel=0 note=51 velocity=0 time=139\n",
      "note_on channel=0 note=49 velocity=45 time=12\n",
      "note_on channel=0 note=49 velocity=0 time=113\n",
      "note_on channel=0 note=61 velocity=55 time=31\n",
      "note_on channel=0 note=48 velocity=41 time=6\n",
      "note_on channel=0 note=67 velocity=0 time=16\n",
      "control_change channel=0 control=64 value=46 time=25\n",
      "control_change channel=0 control=64 value=56 time=16\n",
      "control_change channel=0 control=64 value=60 time=14\n",
      "control_change channel=0 control=64 value=62 time=16\n",
      "control_change channel=0 control=64 value=64 time=15\n",
      "control_change channel=0 control=64 value=65 time=15\n",
      "control_change channel=0 control=64 value=66 time=16\n",
      "note_on channel=0 note=46 velocity=54 time=5\n",
      "control_change channel=0 control=64 value=67 time=9\n",
      "note_on channel=0 note=48 velocity=0 time=7\n",
      "control_change channel=0 control=64 value=68 time=8\n",
      "control_change channel=0 control=64 value=68 time=16\n",
      "note_on channel=0 note=46 velocity=0 time=4\n",
      "note_on channel=0 note=61 velocity=0 time=48\n",
      "control_change channel=0 control=64 value=68 time=8\n",
      "control_change channel=0 control=64 value=67 time=16\n",
      "control_change channel=0 control=64 value=66 time=15\n",
      "control_change channel=0 control=64 value=64 time=14\n",
      "control_change channel=0 control=64 value=61 time=16\n",
      "note_on channel=0 note=63 velocity=0 time=12\n",
      "control_change channel=0 control=64 value=55 time=3\n",
      "note_on channel=0 note=44 velocity=47 time=2\n",
      "note_on channel=0 note=60 velocity=59 time=0\n",
      "control_change channel=0 control=64 value=48 time=22\n",
      "control_change channel=0 control=64 value=40 time=15\n",
      "control_change channel=0 control=64 value=33 time=16\n",
      "control_change channel=0 control=64 value=23 time=15\n",
      "control_change channel=0 control=64 value=0 time=14\n",
      "note_on channel=0 note=56 velocity=45 time=476\n",
      "note_on channel=0 note=65 velocity=55 time=12\n",
      "note_on channel=0 note=56 velocity=0 time=274\n",
      "note_on channel=0 note=65 velocity=0 time=16\n",
      "note_on channel=0 note=63 velocity=56 time=6\n",
      "note_on channel=0 note=55 velocity=46 time=20\n",
      "note_on channel=0 note=63 velocity=0 time=236\n",
      "note_on channel=0 note=53 velocity=31 time=69\n",
      "note_on channel=0 note=62 velocity=48 time=4\n",
      "note_on channel=0 note=46 velocity=44 time=10\n",
      "note_on channel=0 note=55 velocity=0 time=61\n",
      "note_on channel=0 note=44 velocity=0 time=45\n",
      "note_on channel=0 note=58 velocity=0 time=123\n",
      "note_on channel=0 note=58 velocity=61 time=349\n",
      "note_on channel=0 note=60 velocity=0 time=3\n",
      "note_on channel=0 note=55 velocity=41 time=15\n",
      "note_on channel=0 note=53 velocity=0 time=30\n",
      "note_on channel=0 note=53 velocity=44 time=230\n",
      "note_on channel=0 note=55 velocity=0 time=43\n",
      "note_on channel=0 note=46 velocity=0 time=255\n",
      "note_on channel=0 note=51 velocity=39 time=6\n",
      "note_on channel=0 note=63 velocity=51 time=18\n",
      "note_on channel=0 note=48 velocity=38 time=8\n",
      "note_on channel=0 note=62 velocity=0 time=32\n",
      "note_on channel=0 note=53 velocity=0 time=5\n",
      "note_on channel=0 note=58 velocity=0 time=547\n",
      "note_on channel=0 note=57 velocity=58 time=26\n",
      "note_on channel=0 note=51 velocity=0 time=259\n",
      "note_on channel=0 note=53 velocity=48 time=17\n",
      "note_on channel=0 note=53 velocity=0 time=284\n",
      "note_on channel=0 note=58 velocity=52 time=35\n",
      "note_on channel=0 note=55 velocity=42 time=2\n",
      "note_on channel=0 note=46 velocity=38 time=14\n",
      "note_on channel=0 note=48 velocity=0 time=19\n",
      "note_on channel=0 note=57 velocity=0 time=55\n",
      "note_on channel=0 note=62 velocity=53 time=496\n",
      "note_on channel=0 note=53 velocity=45 time=7\n",
      "note_on channel=0 note=55 velocity=0 time=14\n",
      "note_on channel=0 note=58 velocity=0 time=36\n",
      "note_on channel=0 note=63 velocity=0 time=23\n",
      "note_on channel=0 note=60 velocity=49 time=206\n",
      "note_on channel=0 note=53 velocity=0 time=11\n",
      "note_on channel=0 note=62 velocity=0 time=0\n",
      "note_on channel=0 note=51 velocity=45 time=3\n",
      "note_on channel=0 note=60 velocity=0 time=261\n",
      "note_on channel=0 note=51 velocity=0 time=54\n",
      "note_on channel=0 note=62 velocity=47 time=2\n",
      "note_on channel=0 note=53 velocity=35 time=14\n",
      "note_on channel=0 note=70 velocity=50 time=203\n",
      "note_on channel=0 note=70 velocity=0 time=118\n",
      "note_on channel=0 note=72 velocity=58 time=21\n",
      "note_on channel=0 note=72 velocity=0 time=120\n",
      "note_on channel=0 note=74 velocity=57 time=10\n",
      "note_on channel=0 note=51 velocity=61 time=139\n",
      "note_on channel=0 note=72 velocity=59 time=4\n",
      "note_on channel=0 note=74 velocity=0 time=8\n",
      "note_on channel=0 note=62 velocity=0 time=12\n",
      "note_on channel=0 note=53 velocity=0 time=59\n",
      "note_on channel=0 note=72 velocity=0 time=60\n",
      "note_on channel=0 note=70 velocity=61 time=12\n",
      "note_on channel=0 note=46 velocity=0 time=36\n",
      "note_on channel=0 note=70 velocity=0 time=88\n",
      "note_on channel=0 note=69 velocity=62 time=15\n",
      "note_on channel=0 note=69 velocity=0 time=91\n",
      "note_on channel=0 note=67 velocity=64 time=46\n",
      "note_on channel=0 note=67 velocity=0 time=108\n",
      "note_on channel=0 note=65 velocity=67 time=53\n",
      "note_on channel=0 note=65 velocity=0 time=242\n",
      "note_on channel=0 note=67 velocity=64 time=45\n",
      "note_on channel=0 note=67 velocity=0 time=121\n",
      "note_on channel=0 note=69 velocity=65 time=3\n",
      "note_on channel=0 note=69 velocity=0 time=106\n",
      "note_on channel=0 note=70 velocity=63 time=41\n",
      "note_on channel=0 note=50 velocity=63 time=9\n",
      "note_on channel=0 note=51 velocity=0 time=9\n",
      "note_on channel=0 note=69 velocity=60 time=119\n",
      "note_on channel=0 note=70 velocity=0 time=0\n",
      "note_on channel=0 note=69 velocity=0 time=90\n",
      "note_on channel=0 note=67 velocity=62 time=55\n",
      "note_on channel=0 note=65 velocity=64 time=139\n",
      "note_on channel=0 note=67 velocity=0 time=9\n",
      "note_on channel=0 note=63 velocity=66 time=132\n",
      "note_on channel=0 note=65 velocity=0 time=2\n",
      "note_on channel=0 note=55 velocity=64 time=7\n",
      "note_on channel=0 note=50 velocity=0 time=40\n",
      "note_on channel=0 note=62 velocity=55 time=93\n",
      "note_on channel=0 note=63 velocity=0 time=0\n",
      "note_on channel=0 note=62 velocity=0 time=95\n",
      "note_on channel=0 note=60 velocity=61 time=62\n",
      "note_on channel=0 note=60 velocity=0 time=89\n",
      "note_on channel=0 note=58 velocity=63 time=48\n",
      "note_on channel=0 note=58 velocity=0 time=165\n",
      "note_on channel=0 note=63 velocity=73 time=11\n",
      "control_change channel=0 control=64 value=50 time=59\n",
      "control_change channel=0 control=64 value=60 time=16\n",
      "control_change channel=0 control=64 value=64 time=15\n",
      "control_change channel=0 control=64 value=65 time=15\n",
      "control_change channel=0 control=64 value=68 time=15\n",
      "control_change channel=0 control=64 value=73 time=15\n",
      "control_change channel=0 control=64 value=77 time=15\n",
      "control_change channel=0 control=64 value=80 time=15\n",
      "note_on channel=0 note=63 velocity=0 time=11\n",
      "control_change channel=0 control=64 value=82 time=4\n",
      "control_change channel=0 control=64 value=83 time=16\n",
      "control_change channel=0 control=64 value=84 time=15\n",
      "control_change channel=0 control=64 value=85 time=15\n",
      "control_change channel=0 control=64 value=86 time=15\n",
      "control_change channel=0 control=64 value=88 time=15\n",
      "control_change channel=0 control=64 value=88 time=16\n",
      "control_change channel=0 control=64 value=89 time=15\n",
      "note_on channel=0 note=63 velocity=74 time=4\n",
      "control_change channel=0 control=64 value=89 time=12\n",
      "control_change channel=0 control=64 value=90 time=29\n",
      "note_on channel=0 note=63 velocity=0 time=48\n",
      "control_change channel=0 control=64 value=90 time=29\n",
      "control_change channel=0 control=64 value=90 time=107\n",
      "control_change channel=0 control=64 value=89 time=31\n",
      "control_change channel=0 control=64 value=88 time=15\n",
      "control_change channel=0 control=64 value=87 time=14\n",
      "control_change channel=0 control=64 value=84 time=16\n",
      "note_on channel=0 note=63 velocity=76 time=4\n",
      "note_on channel=0 note=53 velocity=58 time=5\n",
      "control_change channel=0 control=64 value=81 time=6\n",
      "control_change channel=0 control=64 value=75 time=16\n",
      "control_change channel=0 control=64 value=70 time=15\n",
      "control_change channel=0 control=64 value=63 time=14\n",
      "control_change channel=0 control=64 value=34 time=16\n",
      "note_on channel=0 note=55 velocity=0 time=9\n",
      "control_change channel=0 control=64 value=0 time=6\n",
      "note_on channel=0 note=68 velocity=59 time=66\n",
      "note_on channel=0 note=68 velocity=0 time=137\n",
      "note_on channel=0 note=70 velocity=61 time=15\n",
      "note_on channel=0 note=72 velocity=62 time=150\n",
      "note_on channel=0 note=70 velocity=0 time=10\n",
      "note_on channel=0 note=70 velocity=64 time=130\n",
      "note_on channel=0 note=72 velocity=0 time=0\n",
      "note_on channel=0 note=62 velocity=71 time=5\n",
      "control_change channel=0 control=64 value=29 time=102\n",
      "note_on channel=0 note=63 velocity=0 time=0\n",
      "control_change channel=0 control=64 value=55 time=16\n",
      "control_change channel=0 control=64 value=62 time=15\n",
      "control_change channel=0 control=64 value=65 time=16\n",
      "note_on channel=0 note=68 velocity=70 time=0\n",
      "control_change channel=0 control=64 value=68 time=15\n",
      "note_on channel=0 note=70 velocity=0 time=13\n",
      "control_change channel=0 control=64 value=71 time=1\n",
      "control_change channel=0 control=64 value=75 time=16\n",
      "control_change channel=0 control=64 value=79 time=15\n",
      "control_change channel=0 control=64 value=81 time=14\n",
      "control_change channel=0 control=64 value=82 time=16\n",
      "note_on channel=0 note=62 velocity=0 time=28\n",
      "control_change channel=0 control=64 value=82 time=3\n",
      "control_change channel=0 control=64 value=83 time=22\n",
      "note_on channel=0 note=68 velocity=0 time=6\n",
      "note_on channel=0 note=67 velocity=78 time=2\n",
      "control_change channel=0 control=64 value=84 time=8\n",
      "note_on channel=0 note=53 velocity=0 time=11\n",
      "control_change channel=0 control=64 value=84 time=4\n",
      "control_change channel=0 control=64 value=85 time=15\n",
      "note_on channel=0 note=67 velocity=0 time=31\n",
      "note_on channel=0 note=65 velocity=58 time=79\n",
      "note_on channel=0 note=67 velocity=72 time=9\n",
      "note_on channel=0 note=65 velocity=0 time=46\n",
      "note_on channel=0 note=67 velocity=0 time=2\n",
      "control_change channel=0 control=64 value=84 time=2\n",
      "control_change channel=0 control=64 value=84 time=45\n",
      "control_change channel=0 control=64 value=83 time=15\n",
      "control_change channel=0 control=64 value=82 time=15\n",
      "note_on channel=0 note=51 velocity=70 time=13\n",
      "control_change channel=0 control=64 value=80 time=2\n",
      "note_on channel=0 note=67 velocity=82 time=0\n",
      "note_on channel=0 note=63 velocity=69 time=3\n",
      "control_change channel=0 control=64 value=76 time=12\n",
      "control_change channel=0 control=64 value=72 time=16\n",
      "control_change channel=0 control=64 value=65 time=14\n",
      "control_change channel=0 control=64 value=50 time=15\n",
      "control_change channel=0 control=64 value=0 time=16\n",
      "note_on channel=0 note=75 velocity=81 time=72\n",
      "note_on channel=0 note=75 velocity=0 time=127\n",
      "note_on channel=0 note=77 velocity=82 time=11\n",
      "note_on channel=0 note=79 velocity=85 time=127\n",
      "note_on channel=0 note=77 velocity=0 time=25\n",
      "note_on channel=0 note=56 velocity=77 time=135\n",
      "note_on channel=0 note=63 velocity=0 time=0\n",
      "note_on channel=0 note=77 velocity=78 time=10\n",
      "note_on channel=0 note=51 velocity=0 time=22\n",
      "note_on channel=0 note=79 velocity=0 time=0\n",
      "note_on channel=0 note=67 velocity=0 time=111\n",
      "note_on channel=0 note=75 velocity=75 time=10\n",
      "note_on channel=0 note=77 velocity=0 time=50\n",
      "note_on channel=0 note=53 velocity=69 time=76\n",
      "note_on channel=0 note=75 velocity=0 time=8\n",
      "note_on channel=0 note=74 velocity=77 time=6\n",
      "note_on channel=0 note=53 velocity=0 time=65\n",
      "note_on channel=0 note=74 velocity=0 time=11\n",
      "note_on channel=0 note=72 velocity=83 time=53\n",
      "note_on channel=0 note=55 velocity=71 time=156\n",
      "note_on channel=0 note=70 velocity=80 time=0\n",
      "note_on channel=0 note=72 velocity=0 time=0\n",
      "note_on channel=0 note=55 velocity=0 time=267\n",
      "note_on channel=0 note=70 velocity=0 time=2\n",
      "note_on channel=0 note=53 velocity=65 time=9\n",
      "note_on channel=0 note=72 velocity=74 time=20\n",
      "note_on channel=0 note=72 velocity=0 time=122\n",
      "note_on channel=0 note=74 velocity=70 time=4\n",
      "note_on channel=0 note=53 velocity=0 time=124\n",
      "note_on channel=0 note=56 velocity=0 time=3\n",
      "note_on channel=0 note=55 velocity=65 time=6\n",
      "note_on channel=0 note=74 velocity=0 time=1\n",
      "note_on channel=0 note=51 velocity=59 time=6\n",
      "note_on channel=0 note=75 velocity=72 time=10\n",
      "note_on channel=0 note=75 velocity=0 time=83\n",
      "note_on channel=0 note=74 velocity=64 time=35\n",
      "note_on channel=0 note=74 velocity=0 time=72\n",
      "note_on channel=0 note=72 velocity=61 time=60\n",
      "note_on channel=0 note=51 velocity=0 time=2\n",
      "note_on channel=0 note=50 velocity=56 time=2\n",
      "control_change channel=0 control=64 value=58 time=33\n",
      "control_change channel=0 control=64 value=65 time=15\n",
      "control_change channel=0 control=64 value=69 time=15\n",
      "note_on channel=0 note=72 velocity=0 time=8\n",
      "control_change channel=0 control=64 value=73 time=7\n",
      "control_change channel=0 control=64 value=78 time=15\n",
      "control_change channel=0 control=64 value=80 time=16\n",
      "control_change channel=0 control=64 value=81 time=15\n",
      "note_on channel=0 note=70 velocity=71 time=9\n",
      "note_on channel=0 note=50 velocity=0 time=1\n",
      "control_change channel=0 control=64 value=82 time=21\n",
      "note_on channel=0 note=70 velocity=0 time=21\n",
      "control_change channel=0 control=64 value=81 time=85\n",
      "control_change channel=0 control=64 value=79 time=15\n",
      "note_on channel=0 note=55 velocity=0 time=6\n",
      "control_change channel=0 control=64 value=76 time=9\n",
      "note_on channel=0 note=60 velocity=71 time=4\n",
      "note_on channel=0 note=68 velocity=77 time=0\n",
      "note_on channel=0 note=48 velocity=62 time=3\n",
      "control_change channel=0 control=64 value=72 time=9\n",
      "control_change channel=0 control=64 value=66 time=14\n",
      "control_change channel=0 control=64 value=56 time=15\n",
      "control_change channel=0 control=64 value=0 time=16\n",
      "note_on channel=0 note=67 velocity=66 time=92\n",
      "note_on channel=0 note=51 velocity=59 time=4\n",
      "note_on channel=0 note=48 velocity=0 time=7\n",
      "note_on channel=0 note=68 velocity=0 time=37\n",
      "note_on channel=0 note=67 velocity=0 time=30\n",
      "note_on channel=0 note=51 velocity=0 time=39\n",
      "note_on channel=0 note=65 velocity=69 time=18\n",
      "note_on channel=0 note=53 velocity=66 time=3\n",
      "note_on channel=0 note=53 velocity=0 time=93\n",
      "note_on channel=0 note=65 velocity=0 time=2\n",
      "note_on channel=0 note=60 velocity=0 time=26\n",
      "note_on channel=0 note=63 velocity=71 time=12\n",
      "note_on channel=0 note=55 velocity=64 time=3\n",
      "note_on channel=0 note=63 velocity=0 time=93\n",
      "note_on channel=0 note=55 velocity=0 time=27\n",
      "note_on channel=0 note=68 velocity=83 time=33\n",
      "note_on channel=0 note=53 velocity=62 time=8\n",
      "note_on channel=0 note=53 velocity=0 time=121\n",
      "control_change channel=0 control=64 value=35 time=14\n",
      "note_on channel=0 note=51 velocity=63 time=0\n",
      "control_change channel=0 control=64 value=47 time=16\n",
      "control_change channel=0 control=64 value=53 time=14\n",
      "control_change channel=0 control=64 value=56 time=15\n",
      "control_change channel=0 control=64 value=58 time=16\n",
      "note_on channel=0 note=68 velocity=0 time=2\n",
      "control_change channel=0 control=64 value=60 time=12\n",
      "control_change channel=0 control=64 value=62 time=16\n",
      "note_on channel=0 note=51 velocity=0 time=13\n",
      "control_change channel=0 control=64 value=64 time=2\n",
      "control_change channel=0 control=64 value=65 time=15\n",
      "control_change channel=0 control=64 value=65 time=16\n",
      "note_on channel=0 note=68 velocity=82 time=6\n",
      "note_on channel=0 note=50 velocity=62 time=2\n",
      "control_change channel=0 control=64 value=66 time=82\n",
      "note_on channel=0 note=50 velocity=0 time=35\n",
      "note_on channel=0 note=48 velocity=58 time=22\n",
      "control_change channel=0 control=64 value=65 time=50\n",
      "control_change channel=0 control=64 value=65 time=29\n",
      "note_on channel=0 note=68 velocity=0 time=8\n",
      "control_change channel=0 control=64 value=64 time=8\n",
      "control_change channel=0 control=64 value=62 time=15\n",
      "control_change channel=0 control=64 value=59 time=15\n",
      "note_on channel=0 note=48 velocity=0 time=7\n",
      "note_on channel=0 note=58 velocity=54 time=4\n",
      "control_change channel=0 control=64 value=53 time=5\n",
      "note_on channel=0 note=68 velocity=81 time=8\n",
      "control_change channel=0 control=64 value=40 time=7\n",
      "note_on channel=0 note=51 velocity=50 time=7\n",
      "control_change channel=0 control=64 value=24 time=9\n",
      "control_change channel=0 control=64 value=0 time=15\n",
      "note_on channel=0 note=51 velocity=0 time=89\n",
      "note_on channel=0 note=50 velocity=52 time=26\n",
      "note_on channel=0 note=50 velocity=0 time=123\n",
      "note_on channel=0 note=48 velocity=52 time=32\n",
      "note_on channel=0 note=48 velocity=0 time=115\n",
      "note_on channel=0 note=46 velocity=50 time=26\n",
      "note_on channel=0 note=68 velocity=0 time=133\n",
      "note_on channel=0 note=58 velocity=0 time=31\n",
      "note_on channel=0 note=67 velocity=64 time=3\n",
      "note_on channel=0 note=46 velocity=0 time=6\n",
      "note_on channel=0 note=51 velocity=49 time=2\n",
      "note_on channel=0 note=62 velocity=62 time=126\n",
      "note_on channel=0 note=62 velocity=0 time=122\n",
      "note_on channel=0 note=51 velocity=0 time=1\n",
      "note_on channel=0 note=50 velocity=50 time=38\n",
      "note_on channel=0 note=63 velocity=66 time=2\n",
      "note_on channel=0 note=63 velocity=0 time=122\n",
      "note_on channel=0 note=65 velocity=68 time=27\n",
      "note_on channel=0 note=50 velocity=0 time=83\n",
      "note_on channel=0 note=65 velocity=0 time=57\n",
      "note_on channel=0 note=48 velocity=67 time=6\n",
      "note_on channel=0 note=63 velocity=72 time=0\n",
      "note_on channel=0 note=63 velocity=0 time=105\n",
      "note_on channel=0 note=62 velocity=67 time=46\n",
      "note_on channel=0 note=62 velocity=0 time=114\n",
      "note_on channel=0 note=60 velocity=65 time=40\n",
      "note_on channel=0 note=67 velocity=0 time=28\n",
      "note_on channel=0 note=60 velocity=0 time=82\n",
      "note_on channel=0 note=58 velocity=69 time=38\n",
      "note_on channel=0 note=58 velocity=0 time=64\n",
      "note_on channel=0 note=69 velocity=73 time=61\n",
      "note_on channel=0 note=63 velocity=70 time=1\n",
      "note_on channel=0 note=48 velocity=0 time=9\n",
      "note_on channel=0 note=48 velocity=65 time=128\n",
      "note_on channel=0 note=63 velocity=0 time=94\n",
      "note_on channel=0 note=48 velocity=0 time=27\n",
      "note_on channel=0 note=60 velocity=71 time=16\n",
      "note_on channel=0 note=50 velocity=67 time=11\n",
      "note_on channel=0 note=69 velocity=0 time=99\n",
      "note_on channel=0 note=50 velocity=0 time=17\n",
      "note_on channel=0 note=51 velocity=68 time=9\n",
      "note_on channel=0 note=60 velocity=0 time=115\n",
      "note_on channel=0 note=51 velocity=0 time=9\n",
      "note_on channel=0 note=50 velocity=63 time=29\n",
      "note_on channel=0 note=70 velocity=76 time=2\n",
      "note_on channel=0 note=65 velocity=76 time=3\n",
      "note_on channel=0 note=50 velocity=0 time=140\n",
      "note_on channel=0 note=48 velocity=64 time=14\n",
      "note_on channel=0 note=48 velocity=0 time=121\n",
      "note_on channel=0 note=72 velocity=77 time=21\n",
      "note_on channel=0 note=46 velocity=71 time=3\n",
      "note_on channel=0 note=70 velocity=0 time=86\n",
      "note_on channel=0 note=46 velocity=0 time=14\n",
      "note_on channel=0 note=45 velocity=71 time=36\n",
      "note_on channel=0 note=46 velocity=71 time=157\n",
      "note_on channel=0 note=45 velocity=0 time=13\n",
      "note_on channel=0 note=65 velocity=0 time=3\n",
      "note_on channel=0 note=74 velocity=78 time=0\n",
      "note_on channel=0 note=72 velocity=0 time=29\n",
      "note_on channel=0 note=65 velocity=77 time=110\n",
      "note_on channel=0 note=46 velocity=0 time=108\n",
      "note_on channel=0 note=58 velocity=80 time=41\n",
      "note_on channel=0 note=67 velocity=81 time=10\n",
      "note_on channel=0 note=65 velocity=0 time=34\n",
      "note_on channel=0 note=68 velocity=86 time=98\n",
      "note_on channel=0 note=67 velocity=0 time=25\n",
      "note_on channel=0 note=58 velocity=0 time=64\n",
      "note_on channel=0 note=58 velocity=73 time=53\n",
      "note_on channel=0 note=51 velocity=65 time=10\n",
      "note_on channel=0 note=67 velocity=79 time=6\n",
      "note_on channel=0 note=68 velocity=0 time=34\n",
      "note_on channel=0 note=67 velocity=0 time=86\n",
      "note_on channel=0 note=65 velocity=76 time=24\n",
      "note_on channel=0 note=63 velocity=72 time=142\n",
      "note_on channel=0 note=65 velocity=0 time=7\n",
      "note_on channel=0 note=74 velocity=0 time=24\n",
      "note_on channel=0 note=63 velocity=0 time=107\n",
      "note_on channel=0 note=62 velocity=74 time=7\n",
      "note_on channel=0 note=63 velocity=68 time=174\n",
      "note_on channel=0 note=67 velocity=65 time=6\n",
      "note_on channel=0 note=62 velocity=0 time=3\n",
      "note_on channel=0 note=67 velocity=0 time=156\n",
      "note_on channel=0 note=74 velocity=61 time=0\n",
      "note_on channel=0 note=74 velocity=0 time=114\n",
      "note_on channel=0 note=72 velocity=67 time=15\n",
      "note_on channel=0 note=51 velocity=0 time=121\n",
      "note_on channel=0 note=70 velocity=76 time=19\n",
      "note_on channel=0 note=72 velocity=0 time=17\n",
      "note_on channel=0 note=58 velocity=0 time=15\n",
      "note_on channel=0 note=70 velocity=0 time=110\n",
      "note_on channel=0 note=65 velocity=73 time=24\n",
      "note_on channel=0 note=69 velocity=74 time=0\n",
      "note_on channel=0 note=53 velocity=65 time=160\n",
      "note_on channel=0 note=63 velocity=0 time=68\n",
      "note_on channel=0 note=53 velocity=0 time=50\n",
      "note_on channel=0 note=55 velocity=64 time=13\n",
      "note_on channel=0 note=70 velocity=76 time=2\n",
      "note_on channel=0 note=69 velocity=0 time=32\n",
      "note_on channel=0 note=57 velocity=71 time=104\n",
      "note_on channel=0 note=55 velocity=0 time=4\n",
      "note_on channel=0 note=72 velocity=80 time=12\n",
      "note_on channel=0 note=70 velocity=0 time=3\n",
      "note_on channel=0 note=74 velocity=85 time=147\n",
      "note_on channel=0 note=58 velocity=63 time=6\n",
      "note_on channel=0 note=62 velocity=60 time=0\n",
      "note_on channel=0 note=57 velocity=0 time=5\n",
      "note_on channel=0 note=72 velocity=0 time=7\n",
      "control_change channel=0 control=64 value=20 time=31\n",
      "control_change channel=0 control=64 value=44 time=16\n",
      "control_change channel=0 control=64 value=53 time=15\n",
      "control_change channel=0 control=64 value=57 time=15\n",
      "control_change channel=0 control=64 value=61 time=16\n",
      "control_change channel=0 control=64 value=63 time=22\n",
      "control_change channel=0 control=64 value=65 time=16\n",
      "note_on channel=0 note=62 velocity=0 time=1\n",
      "control_change channel=0 control=64 value=67 time=14\n",
      "note_on channel=0 note=57 velocity=67 time=1\n",
      "control_change channel=0 control=64 value=71 time=15\n",
      "note_on channel=0 note=58 velocity=0 time=10\n",
      "control_change channel=0 control=64 value=74 time=5\n",
      "control_change channel=0 control=64 value=77 time=14\n",
      "control_change channel=0 control=64 value=79 time=16\n",
      "control_change channel=0 control=64 value=80 time=15\n",
      "control_change channel=0 control=64 value=80 time=14\n",
      "note_on channel=0 note=57 velocity=0 time=40\n",
      "note_on channel=0 note=55 velocity=69 time=14\n",
      "note_on channel=0 note=55 velocity=0 time=82\n",
      "note_on channel=0 note=53 velocity=71 time=57\n",
      "control_change channel=0 control=64 value=80 time=81\n",
      "control_change channel=0 control=64 value=79 time=16\n",
      "control_change channel=0 control=64 value=79 time=15\n",
      "control_change channel=0 control=64 value=78 time=15\n",
      "control_change channel=0 control=64 value=75 time=16\n",
      "note_on channel=0 note=67 velocity=84 time=12\n",
      "control_change channel=0 control=64 value=69 time=3\n",
      "note_on channel=0 note=53 velocity=0 time=3\n",
      "note_on channel=0 note=65 velocity=0 time=3\n",
      "note_on channel=0 note=51 velocity=69 time=2\n",
      "control_change channel=0 control=64 value=58 time=8\n",
      "control_change channel=0 control=64 value=0 time=15\n",
      "note_on channel=0 note=50 velocity=69 time=137\n",
      "note_on channel=0 note=51 velocity=0 time=1\n",
      "note_on channel=0 note=50 velocity=0 time=133\n",
      "note_on channel=0 note=48 velocity=67 time=23\n",
      "note_on channel=0 note=48 velocity=0 time=135\n",
      "note_on channel=0 note=46 velocity=69 time=9\n",
      "control_change channel=0 control=64 value=23 time=55\n",
      "control_change channel=0 control=64 value=43 time=16\n",
      "note_on channel=0 note=67 velocity=0 time=4\n",
      "control_change channel=0 control=64 value=52 time=11\n",
      "control_change channel=0 control=64 value=58 time=14\n",
      "note_on channel=0 note=74 velocity=0 time=3\n",
      "control_change channel=0 control=64 value=62 time=13\n",
      "control_change channel=0 control=64 value=64 time=15\n",
      "control_change channel=0 control=64 value=66 time=16\n",
      "note_on channel=0 note=51 velocity=64 time=0\n",
      "note_on channel=0 note=63 velocity=69 time=7\n",
      "control_change channel=0 control=64 value=69 time=7\n",
      "control_change channel=0 control=64 value=71 time=15\n",
      "note_on channel=0 note=46 velocity=0 time=5\n",
      "control_change channel=0 control=64 value=73 time=11\n",
      "control_change channel=0 control=64 value=76 time=15\n",
      "note_on channel=0 note=51 velocity=0 time=14\n",
      "control_change channel=0 control=64 value=77 time=1\n",
      "note_on channel=0 note=63 velocity=0 time=4\n",
      "control_change channel=0 control=64 value=77 time=11\n",
      "note_on channel=0 note=72 velocity=77 time=50\n",
      "control_change channel=0 control=64 value=76 time=87\n",
      "control_change channel=0 control=64 value=73 time=16\n",
      "control_change channel=0 control=64 value=67 time=15\n",
      "control_change channel=0 control=64 value=48 time=15\n",
      "control_change channel=0 control=64 value=0 time=16\n",
      "note_on channel=0 note=62 velocity=83 time=6\n",
      "note_on channel=0 note=51 velocity=74 time=3\n",
      "note_on channel=0 note=74 velocity=81 time=0\n",
      "note_on channel=0 note=72 velocity=0 time=37\n",
      "control_change channel=0 control=64 value=56 time=46\n",
      "control_change channel=0 control=64 value=64 time=14\n",
      "control_change channel=0 control=64 value=67 time=16\n",
      "control_change channel=0 control=64 value=70 time=15\n",
      "note_on channel=0 note=75 velocity=84 time=19\n",
      "control_change channel=0 control=64 value=74 time=3\n",
      "note_on channel=0 note=51 velocity=0 time=0\n",
      "note_on channel=0 note=62 velocity=0 time=2\n",
      "control_change channel=0 control=64 value=77 time=13\n",
      "note_on channel=0 note=74 velocity=0 time=4\n",
      "control_change channel=0 control=64 value=79 time=12\n",
      "control_change channel=0 control=64 value=80 time=15\n",
      "control_change channel=0 control=64 value=81 time=15\n",
      "control_change channel=0 control=64 value=80 time=61\n",
      "control_change channel=0 control=64 value=79 time=15\n",
      "note_on channel=0 note=77 velocity=92 time=14\n",
      "control_change channel=0 control=64 value=77 time=2\n",
      "note_on channel=0 note=60 velocity=80 time=6\n",
      "note_on channel=0 note=51 velocity=72 time=2\n",
      "control_change channel=0 control=64 value=72 time=7\n",
      "control_change channel=0 control=64 value=65 time=15\n",
      "note_on channel=0 note=75 velocity=0 time=9\n",
      "control_change channel=0 control=64 value=38 time=6\n",
      "control_change channel=0 control=64 value=0 time=15\n",
      "note_on channel=0 note=69 velocity=76 time=98\n",
      "note_on channel=0 note=70 velocity=79 time=152\n",
      "note_on channel=0 note=69 velocity=0 time=26\n",
      "note_on channel=0 note=72 velocity=78 time=136\n",
      "note_on channel=0 note=70 velocity=0 time=22\n",
      "note_on channel=0 note=60 velocity=0 time=54\n",
      "note_on channel=0 note=51 velocity=0 time=23\n",
      "note_on channel=0 note=70 velocity=81 time=51\n",
      "note_on channel=0 note=50 velocity=61 time=8\n",
      "note_on channel=0 note=62 velocity=65 time=5\n",
      "note_on channel=0 note=72 velocity=0 time=17\n",
      "control_change channel=0 control=64 value=20 time=9\n",
      "control_change channel=0 control=64 value=61 time=15\n",
      "control_change channel=0 control=64 value=67 time=15\n",
      "control_change channel=0 control=64 value=72 time=15\n",
      "note_on channel=0 note=77 velocity=0 time=0\n",
      "control_change channel=0 control=64 value=78 time=16\n",
      "control_change channel=0 control=64 value=81 time=15\n",
      "control_change channel=0 control=64 value=84 time=15\n",
      "control_change channel=0 control=64 value=85 time=15\n",
      "note_on channel=0 note=70 velocity=0 time=2\n",
      "note_on channel=0 note=69 velocity=82 time=4\n",
      "control_change channel=0 control=64 value=87 time=9\n",
      "control_change channel=0 control=64 value=89 time=16\n",
      "control_change channel=0 control=64 value=91 time=15\n",
      "control_change channel=0 control=64 value=93 time=15\n",
      "note_on channel=0 note=50 velocity=0 time=2\n",
      "control_change channel=0 control=64 value=95 time=14\n",
      "control_change channel=0 control=64 value=96 time=15\n",
      "note_on channel=0 note=69 velocity=0 time=8\n",
      "control_change channel=0 control=64 value=98 time=7\n",
      "control_change channel=0 control=64 value=99 time=15\n",
      "control_change channel=0 control=64 value=101 time=15\n",
      "note_on channel=0 note=67 velocity=84 time=9\n",
      "control_change channel=0 control=64 value=102 time=7\n",
      "control_change channel=0 control=64 value=103 time=15\n",
      "control_change channel=0 control=64 value=105 time=15\n",
      "control_change channel=0 control=64 value=106 time=15\n",
      "control_change channel=0 control=64 value=106 time=15\n",
      "control_change channel=0 control=64 value=107 time=15\n",
      "note_on channel=0 note=67 velocity=0 time=11\n",
      "control_change channel=0 control=64 value=107 time=19\n",
      "note_on channel=0 note=65 velocity=86 time=33\n",
      "note_on channel=0 note=65 velocity=0 time=51\n",
      "note_on channel=0 note=55 velocity=73 time=94\n",
      "note_on channel=0 note=62 velocity=0 time=44\n",
      "control_change channel=0 control=64 value=106 time=8\n",
      "note_on channel=0 note=70 velocity=95 time=10\n",
      "control_change channel=0 control=64 value=104 time=4\n",
      "control_change channel=0 control=64 value=102 time=16\n",
      "control_change channel=0 control=64 value=98 time=15\n",
      "control_change channel=0 control=64 value=94 time=15\n",
      "control_change channel=0 control=64 value=89 time=15\n",
      "control_change channel=0 control=64 value=84 time=15\n",
      "control_change channel=0 control=64 value=78 time=16\n",
      "control_change channel=0 control=64 value=71 time=23\n",
      "control_change channel=0 control=64 value=63 time=16\n",
      "control_change channel=0 control=64 value=0 time=14\n",
      "note_on channel=0 note=77 velocity=75 time=24\n",
      "note_on channel=0 note=62 velocity=61 time=4\n",
      "note_on channel=0 note=62 velocity=0 time=145\n",
      "note_on channel=0 note=79 velocity=74 time=1\n",
      "note_on channel=0 note=63 velocity=71 time=2\n",
      "note_on channel=0 note=77 velocity=0 time=13\n",
      "note_on channel=0 note=63 velocity=0 time=113\n",
      "note_on channel=0 note=65 velocity=73 time=16\n",
      "note_on channel=0 note=80 velocity=83 time=7\n",
      "note_on channel=0 note=79 velocity=0 time=12\n",
      "note_on channel=0 note=65 velocity=0 time=117\n",
      "note_on channel=0 note=63 velocity=74 time=16\n",
      "note_on channel=0 note=79 velocity=78 time=1\n",
      "note_on channel=0 note=80 velocity=0 time=13\n",
      "control_change channel=0 control=64 value=51 time=33\n",
      "control_change channel=0 control=64 value=60 time=14\n",
      "note_on channel=0 note=70 velocity=0 time=11\n",
      "control_change channel=0 control=64 value=63 time=5\n",
      "control_change channel=0 control=64 value=65 time=15\n",
      "control_change channel=0 control=64 value=68 time=15\n",
      "control_change channel=0 control=64 value=71 time=16\n",
      "note_on channel=0 note=63 velocity=0 time=5\n",
      "control_change channel=0 control=64 value=75 time=11\n",
      "note_on channel=0 note=62 velocity=76 time=4\n",
      "note_on channel=0 note=77 velocity=83 time=2\n",
      "control_change channel=0 control=64 value=78 time=9\n",
      "control_change channel=0 control=64 value=80 time=15\n",
      "note_on channel=0 note=79 velocity=0 time=5\n",
      "control_change channel=0 control=64 value=81 time=10\n",
      "control_change channel=0 control=64 value=81 time=16\n",
      "note_on channel=0 note=75 velocity=84 time=97\n",
      "note_on channel=0 note=62 velocity=0 time=2\n",
      "note_on channel=0 note=60 velocity=75 time=2\n",
      "note_on channel=0 note=77 velocity=0 time=6\n",
      "note_on channel=0 note=75 velocity=0 time=69\n",
      "note_on channel=0 note=58 velocity=76 time=51\n",
      "note_on channel=0 note=74 velocity=80 time=0\n",
      "note_on channel=0 note=60 velocity=0 time=22\n",
      "note_on channel=0 note=55 velocity=0 time=87\n",
      "control_change channel=0 control=64 value=81 time=5\n",
      "note_on channel=0 note=74 velocity=0 time=20\n",
      "control_change channel=0 control=64 value=80 time=10\n",
      "control_change channel=0 control=64 value=78 time=15\n",
      "note_on channel=0 note=75 velocity=93 time=5\n",
      "note_on channel=0 note=60 velocity=78 time=3\n",
      "note_on channel=0 note=58 velocity=0 time=1\n",
      "control_change channel=0 control=64 value=75 time=7\n",
      "control_change channel=0 control=64 value=69 time=15\n",
      "control_change channel=0 control=64 value=61 time=14\n",
      "control_change channel=0 control=64 value=0 time=16\n",
      "note_on channel=0 note=70 velocity=66 time=94\n",
      "note_on channel=0 note=55 velocity=52 time=26\n",
      "note_on channel=0 note=70 velocity=0 time=119\n",
      "note_on channel=0 note=55 velocity=0 time=8\n",
      "note_on channel=0 note=72 velocity=67 time=3\n",
      "note_on channel=0 note=57 velocity=61 time=2\n",
      "note_on channel=0 note=57 velocity=0 time=153\n",
      "note_on channel=0 note=74 velocity=68 time=2\n",
      "note_on channel=0 note=58 velocity=66 time=2\n",
      "note_on channel=0 note=72 velocity=0 time=14\n",
      "note_on channel=0 note=58 velocity=0 time=127\n",
      "note_on channel=0 note=72 velocity=71 time=6\n",
      "note_on channel=0 note=57 velocity=56 time=2\n",
      "note_on channel=0 note=74 velocity=0 time=26\n",
      "note_on channel=0 note=57 velocity=0 time=101\n",
      "note_on channel=0 note=70 velocity=70 time=23\n",
      "note_on channel=0 note=55 velocity=55 time=1\n",
      "note_on channel=0 note=72 velocity=0 time=11\n",
      "note_on channel=0 note=75 velocity=0 time=23\n",
      "note_on channel=0 note=70 velocity=0 time=88\n",
      "note_on channel=0 note=55 velocity=0 time=10\n",
      "note_on channel=0 note=69 velocity=66 time=12\n",
      "note_on channel=0 note=53 velocity=54 time=4\n",
      "note_on channel=0 note=53 velocity=0 time=61\n",
      "note_on channel=0 note=67 velocity=66 time=77\n",
      "note_on channel=0 note=69 velocity=0 time=8\n",
      "note_on channel=0 note=51 velocity=51 time=9\n",
      "note_on channel=0 note=67 velocity=0 time=122\n",
      "note_on channel=0 note=51 velocity=0 time=41\n",
      "note_on channel=0 note=69 velocity=62 time=0\n",
      "note_on channel=0 note=53 velocity=46 time=8\n",
      "note_on channel=0 note=75 velocity=52 time=147\n",
      "note_on channel=0 note=75 velocity=0 time=98\n",
      "control_change channel=0 control=64 value=31 time=18\n",
      "control_change channel=0 control=64 value=51 time=14\n",
      "note_on channel=0 note=77 velocity=54 time=14\n",
      "control_change channel=0 control=64 value=58 time=2\n",
      "control_change channel=0 control=64 value=62 time=15\n",
      "control_change channel=0 control=64 value=63 time=16\n",
      "control_change channel=0 control=64 value=65 time=15\n",
      "control_change channel=0 control=64 value=67 time=14\n",
      "control_change channel=0 control=64 value=70 time=16\n",
      "note_on channel=0 note=77 velocity=0 time=0\n",
      "control_change channel=0 control=64 value=73 time=15\n",
      "control_change channel=0 control=64 value=75 time=14\n",
      "control_change channel=0 control=64 value=76 time=16\n",
      "control_change channel=0 control=64 value=77 time=15\n",
      "note_on channel=0 note=79 velocity=64 time=0\n",
      "control_change channel=0 control=64 value=77 time=16\n",
      "note_on channel=0 note=79 velocity=0 time=42\n",
      "control_change channel=0 control=64 value=77 time=33\n",
      "control_change channel=0 control=64 value=76 time=16\n",
      "control_change channel=0 control=64 value=73 time=15\n",
      "control_change channel=0 control=64 value=69 time=15\n",
      "control_change channel=0 control=64 value=63 time=15\n",
      "note_on channel=0 note=77 velocity=74 time=3\n",
      "control_change channel=0 control=64 value=36 time=12\n",
      "control_change channel=0 control=64 value=0 time=16\n",
      "control_change channel=0 control=64 value=13 time=91\n",
      "control_change channel=0 control=64 value=24 time=15\n",
      "note_on channel=0 note=75 velocity=74 time=19\n",
      "control_change channel=0 control=64 value=28 time=4\n",
      "note_on channel=0 note=77 velocity=0 time=9\n",
      "control_change channel=0 control=64 value=29 time=7\n",
      "note_on channel=0 note=74 velocity=72 time=133\n",
      "note_on channel=0 note=75 velocity=0 time=2\n",
      "control_change channel=0 control=64 value=28 time=2\n",
      "note_on channel=0 note=69 velocity=0 time=57\n",
      "control_change channel=0 control=64 value=27 time=3\n",
      "control_change channel=0 control=64 value=26 time=62\n",
      "note_on channel=0 note=74 velocity=0 time=15\n",
      "note_on channel=0 note=72 velocity=68 time=6\n",
      "control_change channel=0 control=64 value=25 time=9\n",
      "control_change channel=0 control=64 value=24 time=46\n",
      "control_change channel=0 control=64 value=23 time=60\n",
      "note_on channel=0 note=72 velocity=0 time=18\n",
      "control_change channel=0 control=64 value=21 time=27\n",
      "note_on channel=0 note=74 velocity=60 time=4\n",
      "control_change channel=0 control=64 value=20 time=57\n",
      "control_change channel=0 control=64 value=18 time=15\n",
      "control_change channel=0 control=64 value=17 time=16\n",
      "control_change channel=0 control=64 value=15 time=15\n",
      "note_on channel=0 note=60 velocity=0 time=7\n",
      "note_on channel=0 note=53 velocity=0 time=15\n",
      "control_change channel=0 control=64 value=13 time=8\n",
      "note_on channel=0 note=54 velocity=47 time=1\n",
      "control_change channel=0 control=64 value=10 time=59\n",
      "control_change channel=0 control=64 value=0 time=31\n",
      "note_on channel=0 note=54 velocity=0 time=55\n",
      "note_on channel=0 note=62 velocity=54 time=21\n",
      "note_on channel=0 note=55 velocity=52 time=3\n",
      "note_on channel=0 note=55 velocity=0 time=96\n",
      "note_on channel=0 note=57 velocity=57 time=52\n",
      "note_on channel=0 note=57 velocity=0 time=106\n",
      "note_on channel=0 note=62 velocity=0 time=26\n",
      "note_on channel=0 note=58 velocity=50 time=16\n",
      "note_on channel=0 note=67 velocity=58 time=1\n",
      "note_on channel=0 note=53 velocity=48 time=157\n",
      "note_on channel=0 note=58 velocity=0 time=84\n",
      "note_on channel=0 note=53 velocity=0 time=22\n",
      "note_on channel=0 note=67 velocity=0 time=7\n",
      "note_on channel=0 note=65 velocity=49 time=29\n",
      "note_on channel=0 note=51 velocity=36 time=1\n",
      "control_change channel=0 control=64 value=24 time=47\n",
      "control_change channel=0 control=64 value=40 time=14\n",
      "control_change channel=0 control=64 value=54 time=16\n",
      "control_change channel=0 control=64 value=61 time=15\n",
      "control_change channel=0 control=64 value=63 time=16\n",
      "control_change channel=0 control=64 value=65 time=14\n",
      "control_change channel=0 control=64 value=67 time=15\n",
      "note_on channel=0 note=50 velocity=38 time=15\n",
      "control_change channel=0 control=64 value=69 time=1\n",
      "note_on channel=0 note=65 velocity=0 time=3\n",
      "note_on channel=0 note=51 velocity=0 time=6\n",
      "control_change channel=0 control=64 value=73 time=14\n",
      "control_change channel=0 control=64 value=76 time=16\n",
      "note_on channel=0 note=50 velocity=0 time=9\n",
      "control_change channel=0 control=64 value=77 time=5\n",
      "control_change channel=0 control=64 value=77 time=92\n",
      "control_change channel=0 control=64 value=76 time=16\n",
      "control_change channel=0 control=64 value=74 time=15\n",
      "note_on channel=0 note=63 velocity=56 time=0\n",
      "note_on channel=0 note=48 velocity=44 time=5\n",
      "control_change channel=0 control=64 value=72 time=10\n",
      "control_change channel=0 control=64 value=68 time=16\n",
      "control_change channel=0 control=64 value=61 time=15\n",
      "control_change channel=0 control=64 value=42 time=16\n",
      "control_change channel=0 control=64 value=0 time=15\n",
      "note_on channel=0 note=55 velocity=46 time=68\n",
      "note_on channel=0 note=55 velocity=0 time=128\n",
      "note_on channel=0 note=57 velocity=57 time=28\n",
      "note_on channel=0 note=57 velocity=0 time=125\n",
      "note_on channel=0 note=58 velocity=55 time=26\n",
      "note_on channel=0 note=58 velocity=0 time=111\n",
      "note_on channel=0 note=74 velocity=0 time=32\n",
      "note_on channel=0 note=57 velocity=45 time=27\n",
      "note_on channel=0 note=72 velocity=58 time=0\n",
      "note_on channel=0 note=57 velocity=0 time=126\n",
      "note_on channel=0 note=55 velocity=50 time=40\n",
      "note_on channel=0 note=55 velocity=0 time=110\n",
      "note_on channel=0 note=54 velocity=48 time=38\n",
      "note_on channel=0 note=54 velocity=0 time=110\n",
      "note_on channel=0 note=55 velocity=44 time=51\n",
      "note_on channel=0 note=63 velocity=0 time=88\n",
      "note_on channel=0 note=55 velocity=0 time=44\n",
      "note_on channel=0 note=48 velocity=0 time=25\n",
      "note_on channel=0 note=62 velocity=46 time=18\n",
      "note_on channel=0 note=50 velocity=25 time=3\n",
      "note_on channel=0 note=54 velocity=32 time=4\n",
      "control_change channel=0 control=64 value=49 time=257\n",
      "control_change channel=0 control=64 value=57 time=15\n",
      "control_change channel=0 control=64 value=60 time=14\n",
      "control_change channel=0 control=64 value=62 time=16\n",
      "note_on channel=0 note=70 velocity=56 time=10\n",
      "note_on channel=0 note=72 velocity=0 time=4\n",
      "control_change channel=0 control=64 value=64 time=1\n",
      "note_on channel=0 note=55 velocity=35 time=2\n",
      "control_change channel=0 control=64 value=67 time=14\n",
      "note_on channel=0 note=54 velocity=0 time=2\n",
      "control_change channel=0 control=64 value=70 time=14\n",
      "control_change channel=0 control=64 value=74 time=15\n",
      "note_on channel=0 note=62 velocity=0 time=6\n",
      "control_change channel=0 control=64 value=76 time=9\n",
      "control_change channel=0 control=64 value=78 time=15\n",
      "control_change channel=0 control=64 value=78 time=15\n",
      "control_change channel=0 control=64 value=79 time=16\n",
      "control_change channel=0 control=64 value=80 time=14\n",
      "control_change channel=0 control=64 value=80 time=16\n",
      "control_change channel=0 control=64 value=80 time=122\n",
      "control_change channel=0 control=64 value=79 time=29\n",
      "note_on channel=0 note=70 velocity=0 time=7\n",
      "control_change channel=0 control=64 value=76 time=9\n",
      "control_change channel=0 control=64 value=73 time=14\n",
      "note_on channel=0 note=69 velocity=49 time=0\n",
      "control_change channel=0 control=64 value=67 time=15\n",
      "note_on channel=0 note=60 velocity=38 time=4\n",
      "control_change channel=0 control=64 value=56 time=12\n",
      "control_change channel=0 control=64 value=0 time=15\n",
      "control_change channel=0 control=64 value=38 time=205\n",
      "control_change channel=0 control=64 value=57 time=16\n",
      "control_change channel=0 control=64 value=64 time=14\n",
      "control_change channel=0 control=64 value=67 time=15\n",
      "control_change channel=0 control=64 value=70 time=16\n",
      "note_on channel=0 note=55 velocity=0 time=3\n",
      "note_on channel=0 note=50 velocity=0 time=8\n",
      "control_change channel=0 control=64 value=73 time=4\n",
      "note_on channel=0 note=60 velocity=0 time=10\n",
      "control_change channel=0 control=64 value=75 time=6\n",
      "note_on channel=0 note=54 velocity=34 time=0\n",
      "control_change channel=0 control=64 value=77 time=15\n",
      "control_change channel=0 control=64 value=78 time=14\n",
      "control_change channel=0 control=64 value=78 time=31\n",
      "note_on channel=0 note=69 velocity=0 time=10\n",
      "note_on channel=0 note=54 velocity=0 time=89\n",
      "control_change channel=0 control=64 value=78 time=54\n",
      "control_change channel=0 control=64 value=77 time=31\n",
      "control_change channel=0 control=64 value=76 time=15\n",
      "control_change channel=0 control=64 value=73 time=15\n",
      "control_change channel=0 control=64 value=67 time=16\n",
      "note_on channel=0 note=43 velocity=35 time=13\n",
      "control_change channel=0 control=64 value=55 time=1\n",
      "control_change channel=0 control=64 value=0 time=16\n",
      "note_on channel=0 note=58 velocity=55 time=3\n",
      "note_on channel=0 note=67 velocity=59 time=0\n",
      "control_change channel=0 control=64 value=49 time=118\n",
      "control_change channel=0 control=64 value=61 time=15\n",
      "note_on channel=0 note=43 velocity=0 time=3\n",
      "control_change channel=0 control=64 value=64 time=12\n",
      "note_on channel=0 note=55 velocity=59 time=11\n",
      "control_change channel=0 control=64 value=65 time=5\n",
      "control_change channel=0 control=64 value=66 time=14\n",
      "control_change channel=0 control=64 value=67 time=16\n",
      "control_change channel=0 control=64 value=68 time=15\n",
      "control_change channel=0 control=64 value=69 time=15\n",
      "control_change channel=0 control=64 value=69 time=45\n",
      "note_on channel=0 note=58 velocity=0 time=10\n",
      "note_on channel=0 note=55 velocity=0 time=16\n",
      "note_on channel=0 note=56 velocity=70 time=0\n",
      "control_change channel=0 control=64 value=68 time=5\n",
      "control_change channel=0 control=64 value=67 time=38\n",
      "control_change channel=0 control=64 value=67 time=16\n",
      "control_change channel=0 control=64 value=66 time=15\n",
      "control_change channel=0 control=64 value=65 time=14\n",
      "control_change channel=0 control=64 value=65 time=16\n",
      "control_change channel=0 control=64 value=64 time=15\n",
      "control_change channel=0 control=64 value=64 time=15\n",
      "note_on channel=0 note=58 velocity=78 time=18\n",
      "note_on channel=0 note=56 velocity=0 time=10\n",
      "control_change channel=0 control=64 value=63 time=2\n",
      "control_change channel=0 control=64 value=63 time=16\n",
      "control_change channel=0 control=64 value=62 time=15\n",
      "control_change channel=0 control=64 value=61 time=15\n",
      "control_change channel=0 control=64 value=61 time=15\n",
      "control_change channel=0 control=64 value=60 time=15\n",
      "control_change channel=0 control=64 value=59 time=15\n",
      "control_change channel=0 control=64 value=57 time=16\n",
      "control_change channel=0 control=64 value=55 time=14\n",
      "control_change channel=0 control=64 value=50 time=16\n",
      "note_on channel=0 note=56 velocity=66 time=14\n",
      "note_on channel=0 note=63 velocity=86 time=0\n",
      "control_change channel=0 control=64 value=43 time=1\n",
      "note_on channel=0 note=58 velocity=0 time=13\n",
      "control_change channel=0 control=64 value=33 time=2\n",
      "note_on channel=0 note=67 velocity=0 time=11\n",
      "control_change channel=0 control=64 value=17 time=5\n",
      "control_change channel=0 control=64 value=0 time=15\n",
      "note_on channel=0 note=56 velocity=0 time=89\n",
      "note_on channel=0 note=55 velocity=63 time=21\n",
      "note_on channel=0 note=55 velocity=0 time=155\n",
      "note_on channel=0 note=53 velocity=60 time=14\n",
      "note_on channel=0 note=53 velocity=0 time=131\n",
      "note_on channel=0 note=51 velocity=61 time=28\n",
      "note_on channel=0 note=51 velocity=0 time=137\n",
      "note_on channel=0 note=65 velocity=70 time=11\n",
      "note_on channel=0 note=58 velocity=58 time=13\n",
      "note_on channel=0 note=58 velocity=0 time=126\n",
      "note_on channel=0 note=50 velocity=63 time=18\n",
      "note_on channel=0 note=50 velocity=0 time=114\n",
      "note_on channel=0 note=51 velocity=67 time=41\n",
      "note_on channel=0 note=53 velocity=64 time=159\n",
      "note_on channel=0 note=51 velocity=0 time=2\n",
      "note_on channel=0 note=63 velocity=0 time=122\n",
      "note_on channel=0 note=62 velocity=67 time=6\n",
      "note_on channel=0 note=65 velocity=0 time=3\n",
      "note_on channel=0 note=70 velocity=62 time=3\n",
      "note_on channel=0 note=51 velocity=55 time=18\n",
      "note_on channel=0 note=53 velocity=0 time=0\n",
      "note_on channel=0 note=51 velocity=0 time=122\n",
      "note_on channel=0 note=50 velocity=62 time=33\n",
      "note_on channel=0 note=50 velocity=0 time=145\n",
      "note_on channel=0 note=48 velocity=68 time=11\n",
      "note_on channel=0 note=48 velocity=0 time=136\n",
      "note_on channel=0 note=46 velocity=69 time=5\n",
      "control_change channel=0 control=64 value=41 time=132\n",
      "note_on channel=0 note=70 velocity=0 time=0\n",
      "note_on channel=0 note=46 velocity=0 time=11\n",
      "control_change channel=0 control=64 value=56 time=4\n",
      "control_change channel=0 control=64 value=62 time=16\n",
      "note_on channel=0 note=52 velocity=64 time=5\n",
      "note_on channel=0 note=67 velocity=80 time=4\n",
      "control_change channel=0 control=64 value=65 time=5\n",
      "control_change channel=0 control=64 value=68 time=15\n",
      "note_on channel=0 note=62 velocity=0 time=12\n",
      "control_change channel=0 control=64 value=71 time=4\n",
      "control_change channel=0 control=64 value=74 time=15\n",
      "control_change channel=0 control=64 value=76 time=15\n",
      "note_on channel=0 note=52 velocity=0 time=5\n",
      "control_change channel=0 control=64 value=77 time=10\n",
      "control_change channel=0 control=64 value=78 time=15\n",
      "note_on channel=0 note=58 velocity=79 time=55\n",
      "control_change channel=0 control=64 value=77 time=45\n",
      "control_change channel=0 control=64 value=77 time=30\n",
      "control_change channel=0 control=64 value=76 time=15\n",
      "control_change channel=0 control=64 value=75 time=15\n",
      "control_change channel=0 control=64 value=75 time=15\n",
      "control_change channel=0 control=64 value=74 time=15\n",
      "note_on channel=0 note=58 velocity=0 time=5\n",
      "control_change channel=0 control=64 value=73 time=11\n",
      "note_on channel=0 note=60 velocity=81 time=1\n",
      "control_change channel=0 control=64 value=72 time=14\n",
      "control_change channel=0 control=64 value=70 time=15\n",
      "control_change channel=0 control=64 value=67 time=15\n",
      "control_change channel=0 control=64 value=64 time=15\n",
      "control_change channel=0 control=64 value=60 time=15\n",
      "control_change channel=0 control=64 value=55 time=16\n",
      "control_change channel=0 control=64 value=53 time=15\n",
      "note_on channel=0 note=60 velocity=0 time=22\n",
      "control_change channel=0 control=64 value=52 time=8\n",
      "control_change channel=0 control=64 value=51 time=15\n",
      "note_on channel=0 note=61 velocity=82 time=0\n",
      "control_change channel=0 control=64 value=50 time=16\n",
      "control_change channel=0 control=64 value=48 time=14\n",
      "control_change channel=0 control=64 value=47 time=15\n",
      "control_change channel=0 control=64 value=45 time=16\n",
      "control_change channel=0 control=64 value=42 time=15\n",
      "control_change channel=0 control=64 value=39 time=16\n",
      "control_change channel=0 control=64 value=35 time=15\n",
      "note_on channel=0 note=61 velocity=0 time=7\n",
      "control_change channel=0 control=64 value=30 time=8\n",
      "control_change channel=0 control=64 value=24 time=15\n",
      "control_change channel=0 control=64 value=13 time=15\n",
      "note_on channel=0 note=60 velocity=69 time=4\n",
      "note_on channel=0 note=68 velocity=90 time=8\n",
      "control_change channel=0 control=64 value=0 time=3\n",
      "note_on channel=0 note=53 velocity=54 time=0\n",
      "note_on channel=0 note=65 velocity=73 time=4\n",
      "note_on channel=0 note=67 velocity=0 time=35\n",
      "note_on channel=0 note=58 velocity=72 time=109\n",
      "note_on channel=0 note=60 velocity=0 time=2\n",
      "note_on channel=0 note=53 velocity=0 time=128\n",
      "note_on channel=0 note=58 velocity=0 time=22\n",
      "note_on channel=0 note=56 velocity=67 time=15\n",
      "note_on channel=0 note=56 velocity=0 time=133\n",
      "note_on channel=0 note=53 velocity=3 time=12\n",
      "note_on channel=0 note=55 velocity=66 time=2\n",
      "note_on channel=0 note=55 velocity=0 time=158\n",
      "note_on channel=0 note=56 velocity=58 time=10\n",
      "note_on channel=0 note=73 velocity=84 time=9\n",
      "note_on channel=0 note=53 velocity=0 time=17\n",
      "note_on channel=0 note=65 velocity=0 time=9\n",
      "note_on channel=0 note=68 velocity=0 time=14\n",
      "control_change channel=0 control=64 value=31 time=14\n",
      "control_change channel=0 control=64 value=42 time=14\n",
      "control_change channel=0 control=64 value=51 time=16\n",
      "control_change channel=0 control=64 value=55 time=15\n",
      "control_change channel=0 control=64 value=59 time=15\n",
      "control_change channel=0 control=64 value=61 time=16\n",
      "control_change channel=0 control=64 value=63 time=14\n",
      "note_on channel=0 note=65 velocity=74 time=3\n",
      "control_change channel=0 control=64 value=65 time=12\n",
      "control_change channel=0 control=64 value=68 time=16\n",
      "control_change channel=0 control=64 value=71 time=16\n",
      "control_change channel=0 control=64 value=73 time=16\n",
      "control_change channel=0 control=64 value=74 time=15\n",
      "control_change channel=0 control=64 value=75 time=14\n",
      "control_change channel=0 control=64 value=75 time=16\n",
      "note_on channel=0 note=56 velocity=0 time=28\n",
      "control_change channel=0 control=64 value=76 time=3\n",
      "note_on channel=0 note=58 velocity=72 time=12\n",
      "note_on channel=0 note=67 velocity=79 time=7\n",
      "control_change channel=0 control=64 value=76 time=10\n",
      "note_on channel=0 note=65 velocity=0 time=14\n",
      "control_change channel=0 control=64 value=77 time=32\n",
      "note_on channel=0 note=58 velocity=0 time=25\n",
      "note_on channel=0 note=68 velocity=86 time=62\n",
      "note_on channel=0 note=60 velocity=66 time=1\n",
      "note_on channel=0 note=67 velocity=0 time=21\n",
      "note_on channel=0 note=60 velocity=0 time=9\n",
      "control_change channel=0 control=64 value=76 time=72\n",
      "control_change channel=0 control=64 value=72 time=16\n",
      "control_change channel=0 control=64 value=64 time=15\n",
      "control_change channel=0 control=64 value=0 time=15\n",
      "note_on channel=0 note=67 velocity=85 time=0\n",
      "note_on channel=0 note=58 velocity=68 time=5\n",
      "note_on channel=0 note=46 velocity=60 time=9\n",
      "note_on channel=0 note=68 velocity=0 time=26\n",
      "control_change channel=0 control=64 value=51 time=52\n",
      "control_change channel=0 control=64 value=61 time=15\n",
      "control_change channel=0 control=64 value=64 time=15\n",
      "note_on channel=0 note=67 velocity=0 time=12\n",
      "control_change channel=0 control=64 value=67 time=2\n",
      "note_on channel=0 note=65 velocity=80 time=12\n",
      "control_change channel=0 control=64 value=70 time=3\n",
      "control_change channel=0 control=64 value=73 time=14\n",
      "control_change channel=0 control=64 value=76 time=16\n",
      "note_on channel=0 note=58 velocity=0 time=11\n",
      "control_change channel=0 control=64 value=77 time=4\n",
      "control_change channel=0 control=64 value=78 time=15\n",
      "control_change channel=0 control=64 value=78 time=16\n",
      "control_change channel=0 control=64 value=78 time=45\n",
      "control_change channel=0 control=64 value=77 time=15\n",
      "control_change channel=0 control=64 value=74 time=16\n",
      "note_on channel=0 note=56 velocity=71 time=2\n",
      "note_on channel=0 note=64 velocity=79 time=0\n",
      "note_on channel=0 note=65 velocity=0 time=8\n",
      "control_change channel=0 control=64 value=69 time=4\n",
      "control_change channel=0 control=64 value=58 time=15\n",
      "control_change channel=0 control=64 value=0 time=16\n",
      "control_change channel=0 control=64 value=28 time=31\n",
      "control_change channel=0 control=64 value=54 time=14\n",
      "control_change channel=0 control=64 value=61 time=16\n",
      "note_on channel=0 note=64 velocity=0 time=4\n",
      "control_change channel=0 control=64 value=64 time=12\n",
      "control_change channel=0 control=64 value=66 time=15\n",
      "note_on channel=0 note=65 velocity=81 time=14\n",
      "control_change channel=0 control=64 value=68 time=2\n",
      "control_change channel=0 control=64 value=72 time=14\n",
      "control_change channel=0 control=64 value=76 time=15\n",
      "control_change channel=0 control=64 value=78 time=16\n",
      "control_change channel=0 control=64 value=78 time=15\n",
      "note_on channel=0 note=56 velocity=0 time=11\n",
      "note_on channel=0 note=65 velocity=0 time=28\n",
      "control_change channel=0 control=64 value=79 time=6\n",
      "note_on channel=0 note=46 velocity=0 time=5\n",
      "control_change channel=0 control=64 value=78 time=64\n",
      "note_on channel=0 note=55 velocity=75 time=1\n",
      "note_on channel=0 note=48 velocity=66 time=4\n",
      "control_change channel=0 control=64 value=78 time=26\n",
      "control_change channel=0 control=64 value=76 time=14\n",
      "note_on channel=0 note=64 velocity=79 time=10\n",
      "control_change channel=0 control=64 value=74 time=5\n",
      "control_change channel=0 control=64 value=71 time=16\n",
      "control_change channel=0 control=64 value=66 time=15\n",
      "control_change channel=0 control=64 value=59 time=16\n",
      "control_change channel=0 control=64 value=41 time=14\n",
      "control_change channel=0 control=64 value=0 time=15\n",
      "note_on channel=0 note=73 velocity=0 time=7\n",
      "note_on channel=0 note=70 velocity=79 time=60\n",
      "note_on channel=0 note=72 velocity=80 time=146\n",
      "note_on channel=0 note=70 velocity=0 time=25\n",
      "note_on channel=0 note=73 velocity=78 time=121\n",
      "note_on channel=0 note=72 velocity=0 time=15\n",
      "note_on channel=0 note=73 velocity=0 time=114\n",
      "note_on channel=0 note=56 velocity=81 time=25\n",
      "note_on channel=0 note=72 velocity=72 time=12\n",
      "note_on channel=0 note=55 velocity=0 time=35\n",
      "note_on channel=0 note=70 velocity=78 time=125\n",
      "note_on channel=0 note=64 velocity=0 time=11\n",
      "note_on channel=0 note=72 velocity=0 time=12\n",
      "control_change channel=0 control=64 value=42 time=31\n",
      "control_change channel=0 control=64 value=54 time=14\n",
      "control_change channel=0 control=64 value=61 time=15\n",
      "control_change channel=0 control=64 value=65 time=16\n",
      "control_change channel=0 control=64 value=67 time=14\n",
      "control_change channel=0 control=64 value=70 time=16\n",
      "control_change channel=0 control=64 value=72 time=14\n",
      "note_on channel=0 note=68 velocity=85 time=9\n",
      "control_change channel=0 control=64 value=75 time=6\n",
      "note_on channel=0 note=70 velocity=0 time=11\n",
      "control_change channel=0 control=64 value=77 time=5\n",
      "control_change channel=0 control=64 value=78 time=15\n",
      "control_change channel=0 control=64 value=79 time=16\n",
      "note_on channel=0 note=68 velocity=0 time=57\n",
      "note_on channel=0 note=67 velocity=85 time=25\n",
      "note_on channel=0 note=67 velocity=0 time=78\n",
      "note_on channel=0 note=49 velocity=68 time=45\n",
      "note_on channel=0 note=56 velocity=0 time=12\n",
      "control_change channel=0 control=64 value=78 time=10\n",
      "control_change channel=0 control=64 value=77 time=16\n",
      "note_on channel=0 note=65 velocity=96 time=3\n",
      "control_change channel=0 control=64 value=75 time=12\n",
      "note_on channel=0 note=48 velocity=0 time=12\n",
      "control_change channel=0 control=64 value=71 time=2\n",
      "control_change channel=0 control=64 value=65 time=16\n",
      "control_change channel=0 control=64 value=53 time=15\n",
      "control_change channel=0 control=64 value=0 time=15\n",
      "note_on channel=0 note=63 velocity=66 time=91\n",
      "note_on channel=0 note=61 velocity=62 time=156\n",
      "note_on channel=0 note=63 velocity=0 time=50\n",
      "note_on channel=0 note=61 velocity=0 time=63\n",
      "note_on channel=0 note=60 velocity=59 time=34\n",
      "note_on channel=0 note=60 velocity=0 time=124\n",
      "note_on channel=0 note=58 velocity=59 time=31\n",
      "note_on channel=0 note=56 velocity=50 time=163\n",
      "note_on channel=0 note=56 velocity=0 time=132\n",
      "note_on channel=0 note=55 velocity=54 time=24\n",
      "note_on channel=0 note=55 velocity=0 time=138\n",
      "note_on channel=0 note=53 velocity=57 time=20\n",
      "note_on channel=0 note=49 velocity=0 time=45\n",
      "note_on channel=0 note=53 velocity=0 time=99\n",
      "note_on channel=0 note=55 velocity=52 time=22\n",
      "note_on channel=0 note=48 velocity=42 time=17\n",
      "note_on channel=0 note=58 velocity=0 time=24\n",
      "note_on channel=0 note=58 velocity=52 time=123\n",
      "note_on channel=0 note=58 velocity=0 time=55\n",
      "note_on channel=0 note=60 velocity=50 time=86\n",
      "note_on channel=0 note=65 velocity=0 time=108\n",
      "note_on channel=0 note=60 velocity=0 time=9\n",
      "note_on channel=0 note=61 velocity=56 time=32\n",
      "note_on channel=0 note=61 velocity=0 time=105\n",
      "note_on channel=0 note=60 velocity=57 time=63\n",
      "note_on channel=0 note=64 velocity=59 time=1\n",
      "control_change channel=0 control=67 value=11 time=50\n",
      "control_change channel=0 control=67 value=18 time=14\n",
      "control_change channel=0 control=67 value=27 time=16\n",
      "note_on channel=0 note=60 velocity=0 time=8\n",
      "control_change channel=0 control=67 value=37 time=7\n",
      "control_change channel=0 control=67 value=47 time=16\n",
      "control_change channel=0 control=67 value=57 time=15\n",
      "control_change channel=0 control=67 value=67 time=14\n",
      "note_on channel=0 note=58 velocity=50 time=15\n",
      "control_change channel=0 control=67 value=79 time=1\n",
      "control_change channel=0 control=64 value=34 time=15\n",
      "control_change channel=0 control=67 value=89 time=0\n",
      "control_change channel=0 control=64 value=44 time=16\n",
      "control_change channel=0 control=67 value=99 time=0\n",
      "control_change channel=0 control=64 value=51 time=15\n",
      "control_change channel=0 control=67 value=108 time=0\n",
      "control_change channel=0 control=64 value=57 time=14\n",
      "control_change channel=0 control=67 value=116 time=0\n",
      "control_change channel=0 control=64 value=61 time=16\n",
      "control_change channel=0 control=67 value=123 time=0\n",
      "control_change channel=0 control=64 value=63 time=15\n",
      "control_change channel=0 control=67 value=127 time=0\n",
      "note_on channel=0 note=58 velocity=0 time=1\n",
      "note_on channel=0 note=55 velocity=0 time=1\n",
      "control_change channel=0 control=64 value=64 time=13\n",
      "control_change channel=0 control=64 value=65 time=16\n",
      "control_change channel=0 control=64 value=66 time=15\n",
      "note_on channel=0 note=64 velocity=0 time=2\n",
      "control_change channel=0 control=64 value=68 time=13\n",
      "note_on channel=0 note=56 velocity=51 time=1\n",
      "control_change channel=0 control=64 value=69 time=14\n",
      "control_change channel=0 control=64 value=71 time=15\n",
      "control_change channel=0 control=64 value=71 time=16\n",
      "control_change channel=0 control=64 value=72 time=15\n",
      "control_change channel=0 control=64 value=73 time=14\n",
      "note_on channel=0 note=56 velocity=0 time=23\n",
      "note_on channel=0 note=55 velocity=42 time=52\n",
      "note_on channel=0 note=48 velocity=0 time=92\n",
      "control_change channel=0 control=64 value=72 time=16\n",
      "control_change channel=0 control=64 value=71 time=15\n",
      "control_change channel=0 control=64 value=68 time=15\n",
      "control_change channel=0 control=64 value=61 time=15\n",
      "note_on channel=0 note=55 velocity=0 time=0\n",
      "control_change channel=0 control=64 value=24 time=16\n",
      "note_on channel=0 note=53 velocity=40 time=10\n",
      "note_on channel=0 note=65 velocity=63 time=11\n",
      "control_change channel=0 control=64 value=0 time=2\n",
      "note_on channel=0 note=56 velocity=54 time=1\n",
      "control_change channel=0 control=67 value=124 time=76\n",
      "control_change channel=0 control=67 value=116 time=15\n",
      "control_change channel=0 control=64 value=39 time=16\n",
      "control_change channel=0 control=67 value=103 time=0\n",
      "control_change channel=0 control=64 value=58 time=14\n",
      "control_change channel=0 control=67 value=83 time=0\n",
      "note_on channel=0 note=53 velocity=0 time=10\n",
      "control_change channel=0 control=64 value=63 time=6\n",
      "control_change channel=0 control=67 value=63 time=0\n",
      "note_on channel=0 note=41 velocity=58 time=5\n",
      "control_change channel=0 control=64 value=66 time=10\n",
      "control_change channel=0 control=67 value=39 time=0\n",
      "control_change channel=0 control=64 value=67 time=15\n",
      "control_change channel=0 control=67 value=8 time=0\n",
      "note_on channel=0 note=56 velocity=0 time=7\n",
      "control_change channel=0 control=64 value=69 time=8\n",
      "control_change channel=0 control=67 value=0 time=0\n",
      "control_change channel=0 control=64 value=72 time=15\n",
      "control_change channel=0 control=64 value=74 time=15\n",
      "note_on channel=0 note=65 velocity=0 time=8\n",
      "control_change channel=0 control=64 value=75 time=8\n",
      "control_change channel=0 control=64 value=76 time=15\n",
      "note_on channel=0 note=41 velocity=0 time=41\n",
      "note_on channel=0 note=43 velocity=66 time=18\n",
      "control_change channel=0 control=64 value=75 time=62\n",
      "control_change channel=0 control=64 value=75 time=30\n",
      "note_on channel=0 note=43 velocity=0 time=15\n",
      "control_change channel=0 control=64 value=74 time=16\n",
      "note_on channel=0 note=44 velocity=74 time=19\n",
      "control_change channel=0 control=64 value=74 time=12\n",
      "control_change channel=0 control=64 value=73 time=45\n",
      "control_change channel=0 control=64 value=73 time=15\n",
      "control_change channel=0 control=64 value=72 time=15\n",
      "control_change channel=0 control=64 value=71 time=16\n",
      "control_change channel=0 control=64 value=70 time=15\n",
      "note_on channel=0 note=44 velocity=0 time=11\n",
      "control_change channel=0 control=64 value=67 time=4\n",
      "control_change channel=0 control=64 value=65 time=15\n",
      "control_change channel=0 control=64 value=62 time=15\n",
      "note_on channel=0 note=43 velocity=65 time=3\n",
      "note_on channel=0 note=72 velocity=84 time=2\n",
      "control_change channel=0 control=64 value=60 time=11\n",
      "control_change channel=0 control=64 value=57 time=15\n",
      "control_change channel=0 control=64 value=56 time=14\n",
      "control_change channel=0 control=64 value=55 time=16\n",
      "control_change channel=0 control=64 value=53 time=15\n",
      "control_change channel=0 control=64 value=51 time=16\n",
      "control_change channel=0 control=64 value=49 time=14\n",
      "control_change channel=0 control=64 value=48 time=15\n",
      "control_change channel=0 control=64 value=47 time=16\n",
      "note_on channel=0 note=43 velocity=0 time=4\n",
      "control_change channel=0 control=64 value=47 time=19\n",
      "note_on channel=0 note=41 velocity=65 time=3\n",
      "control_change channel=0 control=64 value=46 time=13\n",
      "control_change channel=0 control=64 value=44 time=14\n",
      "control_change channel=0 control=64 value=44 time=15\n",
      "control_change channel=0 control=64 value=43 time=16\n",
      "control_change channel=0 control=64 value=42 time=15\n",
      "control_change channel=0 control=64 value=40 time=16\n",
      "control_change channel=0 control=64 value=38 time=14\n",
      "control_change channel=0 control=64 value=35 time=16\n",
      "note_on channel=0 note=41 velocity=0 time=1\n",
      "control_change channel=0 control=64 value=32 time=15\n",
      "control_change channel=0 control=64 value=27 time=15\n",
      "note_on channel=0 note=39 velocity=58 time=9\n",
      "control_change channel=0 control=64 value=18 time=7\n",
      "control_change channel=0 control=64 value=0 time=14\n",
      "note_on channel=0 note=39 velocity=0 time=83\n",
      "note_on channel=0 note=38 velocity=60 time=46\n",
      "note_on channel=0 note=38 velocity=0 time=99\n",
      "note_on channel=0 note=43 velocity=60 time=66\n",
      "note_on channel=0 note=50 velocity=62 time=0\n",
      "note_on channel=0 note=65 velocity=65 time=161\n",
      "note_on channel=0 note=67 velocity=72 time=162\n",
      "note_on channel=0 note=50 velocity=0 time=3\n",
      "note_on channel=0 note=65 velocity=0 time=21\n",
      "note_on channel=0 note=67 velocity=0 time=96\n",
      "note_on channel=0 note=68 velocity=67 time=38\n",
      "note_on channel=0 note=72 velocity=0 time=2\n",
      "note_on channel=0 note=72 velocity=23 time=0\n",
      "note_on channel=0 note=72 velocity=0 time=81\n",
      "note_on channel=0 note=68 velocity=0 time=29\n",
      "note_on channel=0 note=67 velocity=79 time=49\n",
      "note_on channel=0 note=55 velocity=65 time=2\n",
      "note_on channel=0 note=71 velocity=73 time=4\n",
      "note_on channel=0 note=67 velocity=0 time=125\n",
      "control_change channel=0 control=64 value=50 time=4\n",
      "control_change channel=0 control=64 value=60 time=15\n",
      "note_on channel=0 note=71 velocity=0 time=10\n",
      "control_change channel=0 control=64 value=64 time=5\n",
      "note_on channel=0 note=65 velocity=80 time=0\n",
      "control_change channel=0 control=64 value=66 time=16\n",
      "control_change channel=0 control=64 value=70 time=15\n",
      "control_change channel=0 control=64 value=74 time=16\n",
      "control_change channel=0 control=64 value=79 time=14\n",
      "control_change channel=0 control=64 value=82 time=15\n",
      "control_change channel=0 control=64 value=83 time=16\n",
      "control_change channel=0 control=64 value=84 time=15\n",
      "note_on channel=0 note=65 velocity=0 time=0\n",
      "control_change channel=0 control=64 value=85 time=15\n",
      "control_change channel=0 control=64 value=86 time=15\n",
      "control_change channel=0 control=64 value=88 time=15\n",
      "note_on channel=0 note=63 velocity=82 time=0\n",
      "control_change channel=0 control=64 value=89 time=16\n",
      "control_change channel=0 control=64 value=90 time=15\n",
      "control_change channel=0 control=64 value=91 time=15\n",
      "control_change channel=0 control=64 value=91 time=15\n",
      "control_change channel=0 control=64 value=92 time=15\n",
      "note_on channel=0 note=63 velocity=0 time=6\n",
      "control_change channel=0 control=64 value=92 time=17\n",
      "control_change channel=0 control=64 value=93 time=15\n",
      "control_change channel=0 control=64 value=93 time=15\n",
      "note_on channel=0 note=62 velocity=80 time=16\n",
      "note_on channel=0 note=62 velocity=0 time=46\n",
      "note_on channel=0 note=48 velocity=73 time=84\n",
      "control_change channel=0 control=64 value=93 time=53\n",
      "note_on channel=0 note=75 velocity=84 time=13\n",
      "control_change channel=0 control=64 value=92 time=3\n",
      "note_on channel=0 note=43 velocity=0 time=9\n",
      "control_change channel=0 control=64 value=90 time=6\n",
      "control_change channel=0 control=64 value=87 time=16\n",
      "control_change channel=0 control=64 value=84 time=15\n",
      "control_change channel=0 control=64 value=78 time=14\n",
      "control_change channel=0 control=64 value=72 time=16\n",
      "control_change channel=0 control=64 value=65 time=15\n",
      "control_change channel=0 control=64 value=34 time=15\n",
      "control_change channel=0 control=64 value=0 time=16\n",
      "note_on channel=0 note=67 velocity=67 time=25\n",
      "note_on channel=0 note=68 velocity=71 time=156\n",
      "note_on channel=0 note=67 velocity=0 time=24\n",
      "note_on channel=0 note=70 velocity=74 time=127\n",
      "note_on channel=0 note=68 velocity=0 time=13\n",
      "note_on channel=0 note=55 velocity=0 time=129\n",
      "note_on channel=0 note=51 velocity=70 time=16\n",
      "note_on channel=0 note=68 velocity=80 time=4\n",
      "note_on channel=0 note=48 velocity=0 time=5\n",
      "note_on channel=0 note=70 velocity=0 time=21\n",
      "control_change channel=0 control=64 value=52 time=18\n",
      "control_change channel=0 control=64 value=63 time=16\n",
      "control_change channel=0 control=64 value=66 time=15\n",
      "note_on channel=0 note=75 velocity=0 time=11\n",
      "control_change channel=0 control=64 value=69 time=3\n",
      "control_change channel=0 control=64 value=74 time=16\n",
      "note_on channel=0 note=68 velocity=0 time=3\n",
      "control_change channel=0 control=64 value=78 time=12\n",
      "control_change channel=0 control=64 value=81 time=16\n",
      "control_change channel=0 control=64 value=83 time=15\n",
      "note_on channel=0 note=67 velocity=82 time=0\n",
      "note_on channel=0 note=51 velocity=0 time=3\n",
      "control_change channel=0 control=64 value=84 time=12\n",
      "control_change channel=0 control=64 value=85 time=16\n",
      "control_change channel=0 control=64 value=85 time=15\n",
      "control_change channel=0 control=64 value=86 time=31\n",
      "note_on channel=0 note=67 velocity=0 time=9\n",
      "note_on channel=0 note=65 velocity=84 time=67\n",
      "note_on channel=0 note=65 velocity=0 time=61\n",
      "note_on channel=0 note=63 velocity=86 time=80\n",
      "note_on channel=0 note=63 velocity=0 time=63\n",
      "control_change channel=0 control=64 value=85 time=70\n",
      "control_change channel=0 control=64 value=85 time=29\n",
      "note_on channel=0 note=65 velocity=90 time=9\n",
      "control_change channel=0 control=64 value=84 time=7\n",
      "note_on channel=0 note=53 velocity=70 time=4\n",
      "control_change channel=0 control=64 value=83 time=10\n",
      "note_on channel=0 note=56 velocity=55 time=7\n",
      "control_change channel=0 control=64 value=82 time=9\n",
      "control_change channel=0 control=64 value=81 time=23\n",
      "control_change channel=0 control=64 value=78 time=15\n",
      "control_change channel=0 control=64 value=76 time=16\n",
      "control_change channel=0 control=64 value=72 time=14\n",
      "control_change channel=0 control=64 value=67 time=16\n",
      "control_change channel=0 control=64 value=57 time=15\n",
      "control_change channel=0 control=64 value=0 time=15\n",
      "note_on channel=0 note=75 velocity=76 time=13\n",
      "note_on channel=0 note=75 velocity=0 time=132\n",
      "note_on channel=0 note=77 velocity=83 time=15\n",
      "note_on channel=0 note=77 velocity=0 time=87\n",
      "note_on channel=0 note=79 velocity=84 time=57\n",
      "note_on channel=0 note=79 velocity=0 time=102\n",
      "note_on channel=0 note=77 velocity=89 time=48\n",
      "control_change channel=0 control=64 value=39 time=77\n",
      "control_change channel=0 control=64 value=56 time=15\n",
      "control_change channel=0 control=64 value=61 time=15\n",
      "control_change channel=0 control=64 value=63 time=16\n",
      "control_change channel=0 control=64 value=65 time=15\n",
      "note_on channel=0 note=75 velocity=84 time=11\n",
      "note_on channel=0 note=65 velocity=0 time=1\n",
      "control_change channel=0 control=64 value=67 time=3\n",
      "note_on channel=0 note=77 velocity=0 time=12\n",
      "control_change channel=0 control=64 value=69 time=3\n",
      "control_change channel=0 control=64 value=73 time=15\n",
      "control_change channel=0 control=64 value=75 time=16\n",
      "control_change channel=0 control=64 value=76 time=22\n",
      "control_change channel=0 control=64 value=77 time=16\n",
      "note_on channel=0 note=53 velocity=0 time=16\n",
      "note_on channel=0 note=56 velocity=0 time=32\n",
      "note_on channel=0 note=74 velocity=84 time=21\n",
      "note_on channel=0 note=75 velocity=0 time=4\n",
      "note_on channel=0 note=74 velocity=0 time=85\n",
      "note_on channel=0 note=72 velocity=80 time=45\n",
      "control_change channel=0 control=64 value=76 time=86\n",
      "control_change channel=0 control=64 value=75 time=30\n",
      "control_change channel=0 control=64 value=73 time=15\n",
      "control_change channel=0 control=64 value=66 time=15\n",
      "note_on channel=0 note=72 velocity=0 time=8\n",
      "control_change channel=0 control=64 value=28 time=9\n",
      "note_on channel=0 note=55 velocity=40 time=9\n",
      "control_change channel=0 control=64 value=0 time=6\n",
      "note_on channel=0 note=62 velocity=46 time=5\n",
      "note_on channel=0 note=71 velocity=75 time=3\n",
      "control_change channel=0 control=64 value=54 time=68\n",
      "control_change channel=0 control=64 value=64 time=14\n",
      "control_change channel=0 control=64 value=67 time=16\n",
      "note_on channel=0 note=71 velocity=0 time=13\n",
      "control_change channel=0 control=64 value=71 time=2\n",
      "control_change channel=0 control=64 value=75 time=16\n",
      "control_change channel=0 control=64 value=79 time=15\n",
      "note_on channel=0 note=77 velocity=81 time=6\n",
      "control_change channel=0 control=64 value=80 time=8\n",
      "note_on channel=0 note=62 velocity=0 time=1\n",
      "control_change channel=0 control=64 value=81 time=15\n",
      "control_change channel=0 control=64 value=82 time=15\n",
      "control_change channel=0 control=64 value=82 time=14\n",
      "note_on channel=0 note=55 velocity=0 time=20\n",
      "control_change channel=0 control=64 value=83 time=11\n",
      "note_on channel=0 note=79 velocity=87 time=61\n",
      "note_on channel=0 note=77 velocity=0 time=28\n",
      "note_on channel=0 note=80 velocity=90 time=127\n",
      "note_on channel=0 note=79 velocity=0 time=15\n",
      "control_change channel=0 control=64 value=82 time=66\n",
      "note_on channel=0 note=51 velocity=45 time=29\n",
      "control_change channel=0 control=64 value=82 time=1\n",
      "note_on channel=0 note=60 velocity=49 time=9\n",
      "control_change channel=0 control=64 value=81 time=7\n",
      "note_on channel=0 note=63 velocity=54 time=8\n",
      "note_on channel=0 note=80 velocity=0 time=0\n",
      "control_change channel=0 control=64 value=81 time=7\n",
      "control_change channel=0 control=64 value=79 time=16\n",
      "note_on channel=0 note=79 velocity=85 time=8\n",
      "control_change channel=0 control=64 value=77 time=6\n",
      "control_change channel=0 control=64 value=72 time=15\n",
      "control_change channel=0 control=64 value=67 time=16\n",
      "control_change channel=0 control=64 value=58 time=15\n",
      "control_change channel=0 control=64 value=0 time=15\n",
      "note_on channel=0 note=77 velocity=79 time=79\n",
      "note_on channel=0 note=79 velocity=0 time=25\n",
      "note_on channel=0 note=75 velocity=75 time=119\n",
      "note_on channel=0 note=77 velocity=0 time=18\n",
      "note_on channel=0 note=75 velocity=0 time=73\n",
      "note_on channel=0 note=74 velocity=71 time=39\n",
      "note_on channel=0 note=74 velocity=0 time=117\n",
      "note_on channel=0 note=60 velocity=0 time=31\n",
      "note_on channel=0 note=51 velocity=0 time=3\n",
      "note_on channel=0 note=72 velocity=75 time=11\n",
      "note_on channel=0 note=56 velocity=41 time=3\n",
      "control_change channel=0 control=64 value=31 time=83\n",
      "control_change channel=0 control=64 value=44 time=16\n",
      "control_change channel=0 control=64 value=50 time=15\n",
      "control_change channel=0 control=64 value=55 time=15\n",
      "control_change channel=0 control=64 value=57 time=15\n",
      "note_on channel=0 note=71 velocity=72 time=4\n",
      "control_change channel=0 control=64 value=59 time=11\n",
      "control_change channel=0 control=64 value=61 time=16\n",
      "control_change channel=0 control=64 value=62 time=14\n",
      "control_change channel=0 control=64 value=62 time=16\n",
      "control_change channel=0 control=64 value=63 time=15\n",
      "note_on channel=0 note=72 velocity=0 time=1\n",
      "control_change channel=0 control=64 value=62 time=30\n",
      "control_change channel=0 control=64 value=62 time=14\n",
      "note_on channel=0 note=56 velocity=0 time=4\n",
      "control_change channel=0 control=64 value=60 time=11\n",
      "control_change channel=0 control=64 value=54 time=16\n",
      "note_on channel=0 note=71 velocity=0 time=4\n",
      "control_change channel=0 control=64 value=0 time=11\n",
      "note_on channel=0 note=63 velocity=0 time=4\n",
      "note_on channel=0 note=53 velocity=40 time=6\n",
      "note_on channel=0 note=68 velocity=68 time=11\n",
      "note_on channel=0 note=72 velocity=65 time=5\n",
      "control_change channel=0 control=64 value=46 time=82\n",
      "control_change channel=0 control=64 value=57 time=14\n",
      "control_change channel=0 control=64 value=61 time=16\n",
      "control_change channel=0 control=64 value=63 time=15\n",
      "control_change channel=0 control=64 value=64 time=15\n",
      "note_on channel=0 note=68 velocity=0 time=6\n",
      "control_change channel=0 control=64 value=65 time=9\n",
      "note_on channel=0 note=72 velocity=0 time=5\n",
      "note_on channel=0 note=74 velocity=66 time=9\n",
      "control_change channel=0 control=64 value=66 time=1\n",
      "control_change channel=0 control=64 value=67 time=16\n",
      "control_change channel=0 control=64 value=69 time=15\n",
      "control_change channel=0 control=64 value=70 time=15\n",
      "control_change channel=0 control=64 value=71 time=15\n",
      "note_on channel=0 note=74 velocity=0 time=21\n",
      "control_change channel=0 control=64 value=70 time=56\n",
      "control_change channel=0 control=64 value=69 time=15\n",
      "control_change channel=0 control=64 value=65 time=15\n",
      "control_change channel=0 control=64 value=57 time=22\n",
      "note_on channel=0 note=53 velocity=0 time=0\n",
      "note_on channel=0 note=67 velocity=59 time=3\n",
      "note_on channel=0 note=74 velocity=55 time=1\n",
      "note_on channel=0 note=55 velocity=42 time=5\n",
      "control_change channel=0 control=64 value=0 time=6\n",
      "control_change channel=0 control=64 value=27 time=183\n",
      "control_change channel=0 control=64 value=45 time=15\n",
      "control_change channel=0 control=64 value=51 time=16\n",
      "control_change channel=0 control=64 value=56 time=15\n",
      "control_change channel=0 control=64 value=59 time=15\n",
      "control_change channel=0 control=64 value=62 time=15\n",
      "note_on channel=0 note=67 velocity=0 time=1\n",
      "control_change channel=0 control=64 value=63 time=14\n",
      "note_on channel=0 note=55 velocity=0 time=6\n",
      "control_change channel=0 control=64 value=64 time=9\n",
      "note_on channel=0 note=59 velocity=46 time=11\n",
      "control_change channel=0 control=64 value=65 time=5\n",
      "note_on channel=0 note=65 velocity=52 time=5\n",
      "control_change channel=0 control=64 value=66 time=9\n",
      "control_change channel=0 control=64 value=68 time=16\n",
      "control_change channel=0 control=64 value=69 time=15\n",
      "control_change channel=0 control=64 value=70 time=15\n",
      "control_change channel=0 control=64 value=72 time=16\n",
      "control_change channel=0 control=64 value=73 time=14\n",
      "control_change channel=0 control=64 value=74 time=16\n",
      "note_on channel=0 note=65 velocity=0 time=1\n",
      "note_on channel=0 note=74 velocity=0 time=5\n",
      "note_on channel=0 note=72 velocity=69 time=31\n",
      "note_on channel=0 note=72 velocity=0 time=80\n",
      "control_change channel=0 control=64 value=73 time=20\n",
      "note_on channel=0 note=59 velocity=0 time=11\n",
      "control_change channel=0 control=64 value=73 time=20\n",
      "control_change channel=0 control=64 value=71 time=15\n",
      "control_change channel=0 control=64 value=69 time=15\n",
      "note_on channel=0 note=60 velocity=45 time=10\n",
      "note_on channel=0 note=72 velocity=59 time=3\n",
      "control_change channel=0 control=64 value=66 time=2\n",
      "note_on channel=0 note=63 velocity=55 time=6\n",
      "control_change channel=0 control=64 value=60 time=9\n",
      "control_change channel=0 control=64 value=51 time=16\n",
      "control_change channel=0 control=64 value=43 time=15\n",
      "control_change channel=0 control=64 value=39 time=15\n",
      "control_change channel=0 control=64 value=37 time=15\n",
      "control_change channel=0 control=64 value=34 time=15\n",
      "control_change channel=0 control=64 value=29 time=16\n",
      "control_change channel=0 control=64 value=23 time=22\n",
      "control_change channel=0 control=64 value=15 time=15\n",
      "note_on channel=0 note=60 velocity=0 time=4\n",
      "control_change channel=0 control=64 value=0 time=12\n",
      "note_on channel=0 note=48 velocity=52 time=5\n",
      "note_on channel=0 note=48 velocity=0 time=134\n",
      "note_on channel=0 note=49 velocity=57 time=27\n",
      "note_on channel=0 note=49 velocity=0 time=110\n",
      "note_on channel=0 note=51 velocity=59 time=44\n",
      "note_on channel=0 note=51 velocity=0 time=113\n",
      "note_on channel=0 note=68 velocity=74 time=37\n",
      "note_on channel=0 note=49 velocity=51 time=11\n",
      "note_on channel=0 note=63 velocity=0 time=9\n",
      "note_on channel=0 note=49 velocity=0 time=98\n",
      "note_on channel=0 note=48 velocity=49 time=56\n",
      "note_on channel=0 note=48 velocity=0 time=94\n",
      "note_on channel=0 note=46 velocity=48 time=68\n",
      "control_change channel=0 control=64 value=29 time=22\n",
      "control_change channel=0 control=64 value=44 time=15\n",
      "control_change channel=0 control=64 value=53 time=15\n",
      "control_change channel=0 control=64 value=58 time=16\n",
      "control_change channel=0 control=64 value=62 time=14\n",
      "note_on channel=0 note=46 velocity=0 time=0\n",
      "control_change channel=0 control=64 value=64 time=15\n",
      "control_change channel=0 control=64 value=66 time=16\n",
      "control_change channel=0 control=64 value=68 time=15\n",
      "control_change channel=0 control=64 value=71 time=16\n",
      "control_change channel=0 control=64 value=74 time=15\n",
      "note_on channel=0 note=44 velocity=53 time=2\n",
      "control_change channel=0 control=64 value=77 time=13\n",
      "control_change channel=0 control=64 value=78 time=16\n",
      "note_on channel=0 note=44 velocity=0 time=10\n",
      "control_change channel=0 control=64 value=77 time=110\n",
      "control_change channel=0 control=64 value=77 time=15\n",
      "control_change channel=0 control=64 value=75 time=14\n",
      "control_change channel=0 control=64 value=73 time=16\n",
      "note_on channel=0 note=51 velocity=53 time=0\n",
      "note_on channel=0 note=58 velocity=60 time=1\n",
      "control_change channel=0 control=64 value=70 time=14\n",
      "control_change channel=0 control=64 value=66 time=15\n",
      "control_change channel=0 control=64 value=63 time=16\n",
      "control_change channel=0 control=64 value=57 time=14\n",
      "control_change channel=0 control=64 value=52 time=16\n",
      "control_change channel=0 control=64 value=50 time=15\n",
      "control_change channel=0 control=64 value=50 time=15\n",
      "control_change channel=0 control=64 value=49 time=16\n",
      "control_change channel=0 control=64 value=47 time=14\n",
      "note_on channel=0 note=70 velocity=64 time=11\n",
      "control_change channel=0 control=64 value=42 time=4\n",
      "note_on channel=0 note=72 velocity=0 time=11\n",
      "control_change channel=0 control=64 value=36 time=5\n",
      "note_on channel=0 note=68 velocity=0 time=13\n",
      "control_change channel=0 control=64 value=29 time=1\n",
      "control_change channel=0 control=64 value=21 time=16\n",
      "control_change channel=0 control=64 value=13 time=17\n",
      "control_change channel=0 control=64 value=0 time=14\n",
      "note_on channel=0 note=70 velocity=0 time=82\n",
      "note_on channel=0 note=72 velocity=68 time=5\n",
      "note_on channel=0 note=72 velocity=0 time=148\n",
      "note_on channel=0 note=73 velocity=62 time=6\n",
      "note_on channel=0 note=73 velocity=0 time=140\n",
      "note_on channel=0 note=63 velocity=60 time=7\n",
      "note_on channel=0 note=67 velocity=61 time=8\n",
      "note_on channel=0 note=72 velocity=53 time=12\n",
      "note_on channel=0 note=70 velocity=60 time=162\n",
      "note_on channel=0 note=67 velocity=0 time=11\n",
      "note_on channel=0 note=72 velocity=0 time=10\n",
      "control_change channel=0 control=64 value=17 time=116\n",
      "control_change channel=0 control=64 value=37 time=15\n",
      "note_on channel=0 note=68 velocity=66 time=6\n",
      "control_change channel=0 control=64 value=47 time=10\n",
      "note_on channel=0 note=70 velocity=0 time=6\n",
      "control_change channel=0 control=64 value=54 time=8\n",
      "control_change channel=0 control=64 value=58 time=16\n",
      "control_change channel=0 control=64 value=60 time=15\n",
      "control_change channel=0 control=64 value=62 time=16\n",
      "control_change channel=0 control=64 value=63 time=15\n",
      "control_change channel=0 control=64 value=64 time=15\n",
      "control_change channel=0 control=64 value=65 time=16\n",
      "control_change channel=0 control=64 value=66 time=15\n",
      "control_change channel=0 control=64 value=66 time=22\n",
      "note_on channel=0 note=67 velocity=67 time=3\n",
      "control_change channel=0 control=64 value=67 time=13\n",
      "control_change channel=0 control=64 value=67 time=30\n",
      "note_on channel=0 note=67 velocity=0 time=52\n",
      "control_change channel=0 control=64 value=67 time=25\n",
      "control_change channel=0 control=64 value=66 time=15\n",
      "control_change channel=0 control=64 value=65 time=14\n",
      "note_on channel=0 note=68 velocity=0 time=12\n",
      "control_change channel=0 control=64 value=61 time=4\n",
      "control_change channel=0 control=64 value=48 time=15\n",
      "note_on channel=0 note=72 velocity=71 time=6\n",
      "note_on channel=0 note=65 velocity=64 time=7\n",
      "control_change channel=0 control=64 value=29 time=2\n",
      "note_on channel=0 note=51 velocity=0 time=2\n",
      "note_on channel=0 note=56 velocity=43 time=1\n",
      "control_change channel=0 control=64 value=0 time=13\n",
      "note_on channel=0 note=58 velocity=0 time=27\n",
      "control_change channel=0 control=64 value=31 time=63\n",
      "control_change channel=0 control=64 value=47 time=15\n",
      "control_change channel=0 control=64 value=56 time=16\n",
      "control_change channel=0 control=64 value=60 time=14\n",
      "control_change channel=0 control=64 value=62 time=16\n",
      "control_change channel=0 control=64 value=64 time=15\n",
      "control_change channel=0 control=64 value=64 time=15\n",
      "note_on channel=0 note=65 velocity=0 time=15\n",
      "control_change channel=0 control=64 value=65 time=1\n",
      "control_change channel=0 control=64 value=66 time=14\n",
      "control_change channel=0 control=64 value=66 time=15\n",
      "control_change channel=0 control=64 value=67 time=16\n",
      "note_on channel=0 note=67 velocity=76 time=55\n",
      "control_change channel=0 control=64 value=66 time=67\n",
      "note_on channel=0 note=63 velocity=0 time=67\n",
      "control_change channel=0 control=64 value=66 time=9\n",
      "note_on channel=0 note=68 velocity=78 time=0\n",
      "note_on channel=0 note=67 velocity=0 time=15\n",
      "control_change channel=0 control=64 value=65 time=30\n",
      "control_change channel=0 control=64 value=65 time=15\n",
      "control_change channel=0 control=64 value=64 time=17\n",
      "control_change channel=0 control=64 value=64 time=15\n",
      "note_on channel=0 note=72 velocity=0 time=22\n",
      "control_change channel=0 control=64 value=62 time=1\n",
      "control_change channel=0 control=64 value=60 time=15\n",
      "control_change channel=0 control=64 value=58 time=14\n",
      "control_change channel=0 control=64 value=56 time=16\n",
      "note_on channel=0 note=62 velocity=48 time=3\n",
      "note_on channel=0 note=70 velocity=80 time=2\n",
      "note_on channel=0 note=68 velocity=0 time=8\n",
      "control_change channel=0 control=64 value=53 time=2\n",
      "control_change channel=0 control=64 value=50 time=16\n",
      "control_change channel=0 control=64 value=47 time=15\n",
      "control_change channel=0 control=64 value=46 time=14\n",
      "control_change channel=0 control=64 value=44 time=16\n",
      "control_change channel=0 control=64 value=42 time=15\n",
      "control_change channel=0 control=64 value=40 time=15\n",
      "control_change channel=0 control=64 value=39 time=16\n",
      "control_change channel=0 control=64 value=38 time=14\n",
      "control_change channel=0 control=64 value=37 time=16\n",
      "note_on channel=0 note=68 velocity=69 time=9\n",
      "control_change channel=0 control=64 value=37 time=21\n",
      "control_change channel=0 control=64 value=36 time=31\n",
      "note_on channel=0 note=68 velocity=0 time=42\n",
      "control_change channel=0 control=64 value=36 time=19\n",
      "note_on channel=0 note=67 velocity=58 time=45\n",
      "control_change channel=0 control=64 value=35 time=15\n",
      "control_change channel=0 control=64 value=34 time=76\n",
      "note_on channel=0 note=67 velocity=0 time=27\n",
      "control_change channel=0 control=64 value=34 time=18\n",
      "note_on channel=0 note=65 velocity=57 time=11\n",
      "note_on channel=0 note=65 velocity=0 time=130\n",
      "note_on channel=0 note=62 velocity=0 time=7\n",
      "note_on channel=0 note=56 velocity=0 time=19\n",
      "note_on channel=0 note=67 velocity=54 time=10\n",
      "note_on channel=0 note=63 velocity=57 time=5\n",
      "note_on channel=0 note=55 velocity=31 time=17\n",
      "control_change channel=0 control=64 value=33 time=67\n",
      "note_on channel=0 note=62 velocity=50 time=96\n",
      "note_on channel=0 note=62 velocity=0 time=71\n",
      "control_change channel=0 control=64 value=34 time=62\n",
      "note_on channel=0 note=60 velocity=50 time=21\n",
      "note_on channel=0 note=63 velocity=0 time=19\n",
      "note_on channel=0 note=67 velocity=0 time=8\n",
      "note_on channel=0 note=60 velocity=0 time=93\n",
      "note_on channel=0 note=55 velocity=0 time=35\n",
      "note_on channel=0 note=58 velocity=49 time=4\n",
      "control_change channel=0 control=64 value=34 time=63\n",
      "control_change channel=0 control=64 value=35 time=30\n",
      "control_change channel=0 control=64 value=36 time=15\n",
      "control_change channel=0 control=64 value=38 time=15\n",
      "control_change channel=0 control=64 value=42 time=16\n",
      "control_change channel=0 control=64 value=47 time=15\n",
      "control_change channel=0 control=64 value=52 time=14\n",
      "note_on channel=0 note=75 velocity=67 time=3\n",
      "control_change channel=0 control=64 value=56 time=13\n",
      "control_change channel=0 control=64 value=59 time=15\n",
      "control_change channel=0 control=64 value=61 time=15\n",
      "control_change channel=0 control=64 value=63 time=16\n",
      "control_change channel=0 control=64 value=64 time=15\n",
      "control_change channel=0 control=64 value=65 time=16\n",
      "note_on channel=0 note=58 velocity=0 time=5\n",
      "control_change channel=0 control=64 value=66 time=10\n",
      "control_change channel=0 control=64 value=67 time=14\n",
      "control_change channel=0 control=64 value=68 time=16\n",
      "control_change channel=0 control=64 value=69 time=15\n",
      "note_on channel=0 note=75 velocity=0 time=0\n",
      "note_on channel=0 note=53 velocity=39 time=7\n",
      "control_change channel=0 control=64 value=69 time=8\n",
      "control_change channel=0 control=64 value=70 time=23\n",
      "control_change channel=0 control=64 value=69 time=61\n",
      "note_on channel=0 note=53 velocity=0 time=9\n",
      "control_change channel=0 control=64 value=68 time=7\n",
      "control_change channel=0 control=64 value=64 time=15\n",
      "control_change channel=0 control=64 value=55 time=15\n",
      "note_on channel=0 note=75 velocity=71 time=14\n",
      "control_change channel=0 control=64 value=25 time=1\n",
      "note_on channel=0 note=55 velocity=39 time=3\n",
      "control_change channel=0 control=64 value=0 time=12\n",
      "control_change channel=0 control=64 value=41 time=46\n",
      "control_change channel=0 control=64 value=55 time=16\n",
      "control_change channel=0 control=64 value=62 time=15\n",
      "control_change channel=0 control=64 value=65 time=16\n",
      "note_on channel=0 note=55 velocity=0 time=14\n",
      "control_change channel=0 control=64 value=67 time=1\n",
      "control_change channel=0 control=64 value=70 time=15\n",
      "note_on channel=0 note=56 velocity=54 time=9\n",
      "control_change channel=0 control=64 value=73 time=6\n",
      "control_change channel=0 control=64 value=75 time=15\n",
      "control_change channel=0 control=64 value=77 time=15\n",
      "note_on channel=0 note=56 velocity=0 time=3\n",
      "control_change channel=0 control=64 value=77 time=12\n",
      "note_on channel=0 note=75 velocity=0 time=49\n",
      "control_change channel=0 control=64 value=76 time=42\n",
      "control_change channel=0 control=64 value=74 time=16\n",
      "control_change channel=0 control=64 value=70 time=15\n",
      "note_on channel=0 note=75 velocity=72 time=9\n",
      "note_on channel=0 note=58 velocity=49 time=5\n",
      "control_change channel=0 control=64 value=64 time=1\n",
      "note_on channel=0 note=65 velocity=51 time=4\n",
      "control_change channel=0 control=64 value=53 time=12\n",
      "control_change channel=0 control=64 value=24 time=15\n",
      "control_change channel=0 control=64 value=0 time=15\n",
      "control_change channel=0 control=64 value=10 time=15\n",
      "control_change channel=0 control=64 value=20 time=15\n",
      "control_change channel=0 control=64 value=21 time=16\n",
      "note_on channel=0 note=58 velocity=0 time=47\n",
      "note_on channel=0 note=56 velocity=46 time=26\n",
      "note_on channel=0 note=56 velocity=0 time=153\n",
      "note_on channel=0 note=58 velocity=39 time=24\n",
      "note_on channel=0 note=65 velocity=0 time=115\n",
      "note_on channel=0 note=58 velocity=0 time=35\n",
      "note_on channel=0 note=60 velocity=40 time=23\n",
      "control_change channel=0 control=64 value=25 time=147\n",
      "note_on channel=0 note=75 velocity=0 time=2\n",
      "note_on channel=0 note=60 velocity=0 time=9\n",
      "control_change channel=0 control=64 value=29 time=4\n",
      "note_on channel=0 note=74 velocity=56 time=10\n",
      "note_on channel=0 note=58 velocity=43 time=3\n",
      "control_change channel=0 control=64 value=34 time=2\n",
      "control_change channel=0 control=64 value=39 time=15\n",
      "control_change channel=0 control=64 value=44 time=16\n",
      "control_change channel=0 control=64 value=48 time=15\n",
      "control_change channel=0 control=64 value=52 time=15\n",
      "control_change channel=0 control=64 value=55 time=15\n",
      "control_change channel=0 control=64 value=57 time=15\n",
      "control_change channel=0 control=64 value=59 time=15\n",
      "control_change channel=0 control=64 value=61 time=16\n",
      "note_on channel=0 note=58 velocity=0 time=10\n",
      "control_change channel=0 control=64 value=63 time=5\n",
      "control_change channel=0 control=64 value=64 time=16\n",
      "note_on channel=0 note=56 velocity=51 time=12\n",
      "control_change channel=0 control=64 value=64 time=3\n",
      "control_change channel=0 control=64 value=65 time=15\n",
      "control_change channel=0 control=64 value=65 time=15\n",
      "control_change channel=0 control=64 value=66 time=15\n",
      "control_change channel=0 control=64 value=66 time=61\n",
      "note_on channel=0 note=56 velocity=0 time=13\n",
      "note_on channel=0 note=74 velocity=0 time=18\n",
      "note_on channel=0 note=55 velocity=59 time=15\n",
      "control_change channel=0 control=64 value=66 time=114\n",
      "note_on channel=0 note=55 velocity=0 time=27\n",
      "control_change channel=0 control=64 value=65 time=19\n",
      "note_on channel=0 note=53 velocity=61 time=10\n",
      "control_change channel=0 control=64 value=65 time=35\n",
      "control_change channel=0 control=64 value=64 time=14\n",
      "control_change channel=0 control=64 value=64 time=47\n",
      "control_change channel=0 control=64 value=63 time=16\n",
      "control_change channel=0 control=64 value=63 time=15\n",
      "note_on channel=0 note=53 velocity=0 time=6\n",
      "control_change channel=0 control=64 value=62 time=10\n",
      "control_change channel=0 control=64 value=61 time=14\n",
      "note_on channel=0 note=79 velocity=74 time=4\n",
      "control_change channel=0 control=64 value=60 time=11\n",
      "note_on channel=0 note=52 velocity=57 time=0\n",
      "control_change channel=0 control=64 value=59 time=16\n",
      "control_change channel=0 control=64 value=58 time=15\n",
      "control_change channel=0 control=64 value=57 time=15\n",
      "control_change channel=0 control=64 value=56 time=15\n",
      "control_change channel=0 control=64 value=55 time=15\n",
      "control_change channel=0 control=64 value=54 time=16\n",
      "control_change channel=0 control=64 value=53 time=14\n",
      "control_change channel=0 control=64 value=52 time=15\n",
      "control_change channel=0 control=64 value=51 time=16\n",
      "control_change channel=0 control=64 value=51 time=15\n",
      "note_on channel=0 note=58 velocity=64 time=1\n",
      "control_change channel=0 control=64 value=50 time=14\n",
      "control_change channel=0 control=64 value=49 time=15\n",
      "control_change channel=0 control=64 value=48 time=15\n",
      "control_change channel=0 control=64 value=47 time=16\n",
      "control_change channel=0 control=64 value=47 time=15\n",
      "control_change channel=0 control=64 value=46 time=30\n",
      "control_change channel=0 control=64 value=46 time=15\n",
      "note_on channel=0 note=58 velocity=0 time=7\n",
      "note_on channel=0 note=60 velocity=63 time=21\n",
      "control_change channel=0 control=64 value=45 time=3\n",
      "control_change channel=0 control=64 value=44 time=15\n",
      "control_change channel=0 control=64 value=44 time=61\n",
      "note_on channel=0 note=60 velocity=0 time=55\n",
      "note_on channel=0 note=61 velocity=63 time=28\n",
      "note_on channel=0 note=61 velocity=0 time=153\n",
      "note_on channel=0 note=60 velocity=64 time=12\n",
      "note_on channel=0 note=60 velocity=0 time=137\n",
      "note_on channel=0 note=58 velocity=61 time=19\n",
      "note_on channel=0 note=58 velocity=0 time=140\n",
      "note_on channel=0 note=56 velocity=60 time=26\n",
      "control_change channel=0 control=64 value=44 time=91\n",
      "note_on channel=0 note=56 velocity=0 time=21\n",
      "note_on channel=0 note=55 velocity=57 time=49\n",
      "control_change channel=0 control=64 value=43 time=37\n",
      "note_on channel=0 note=52 velocity=0 time=0\n",
      "control_change channel=0 control=64 value=42 time=14\n",
      "control_change channel=0 control=64 value=39 time=16\n",
      "control_change channel=0 control=64 value=32 time=15\n",
      "control_change channel=0 control=64 value=0 time=16\n",
      "note_on channel=0 note=55 velocity=0 time=68\n",
      "note_on channel=0 note=60 velocity=70 time=5\n",
      "note_on channel=0 note=56 velocity=56 time=11\n",
      "note_on channel=0 note=79 velocity=0 time=19\n",
      "note_on channel=0 note=70 velocity=0 time=18\n",
      "note_on channel=0 note=70 velocity=67 time=100\n",
      "note_on channel=0 note=70 velocity=0 time=82\n",
      "note_on channel=0 note=72 velocity=69 time=66\n",
      "note_on channel=0 note=72 velocity=0 time=89\n",
      "note_on channel=0 note=73 velocity=70 time=62\n",
      "note_on channel=0 note=73 velocity=0 time=111\n",
      "note_on channel=0 note=77 velocity=79 time=57\n",
      "note_on channel=0 note=72 velocity=75 time=6\n",
      "control_change channel=0 control=64 value=47 time=44\n",
      "control_change channel=0 control=64 value=63 time=15\n",
      "control_change channel=0 control=64 value=68 time=16\n",
      "note_on channel=0 note=72 velocity=0 time=12\n",
      "control_change channel=0 control=64 value=72 time=2\n",
      "control_change channel=0 control=64 value=77 time=15\n",
      "control_change channel=0 control=64 value=80 time=24\n",
      "control_change channel=0 control=64 value=82 time=15\n",
      "control_change channel=0 control=64 value=84 time=16\n",
      "note_on channel=0 note=70 velocity=59 time=1\n",
      "control_change channel=0 control=64 value=85 time=13\n",
      "control_change channel=0 control=64 value=86 time=16\n",
      "control_change channel=0 control=64 value=87 time=15\n",
      "control_change channel=0 control=64 value=87 time=15\n",
      "control_change channel=0 control=64 value=88 time=15\n",
      "control_change channel=0 control=64 value=89 time=15\n",
      "note_on channel=0 note=70 velocity=0 time=4\n",
      "control_change channel=0 control=64 value=89 time=11\n",
      "note_on channel=0 note=77 velocity=0 time=36\n",
      "control_change channel=0 control=64 value=90 time=10\n",
      "note_on channel=0 note=68 velocity=57 time=14\n",
      "note_on channel=0 note=68 velocity=0 time=88\n",
      "note_on channel=0 note=67 velocity=60 time=58\n",
      "note_on channel=0 note=67 velocity=0 time=76\n",
      "control_change channel=0 control=64 value=89 time=53\n",
      "control_change channel=0 control=64 value=86 time=15\n",
      "note_on channel=0 note=60 velocity=0 time=6\n",
      "note_on channel=0 note=56 velocity=0 time=2\n",
      "control_change channel=0 control=64 value=81 time=8\n",
      "note_on channel=0 note=71 velocity=68 time=4\n",
      "note_on channel=0 note=65 velocity=69 time=5\n",
      "control_change channel=0 control=64 value=72 time=6\n",
      "note_on channel=0 note=62 velocity=53 time=1\n",
      "control_change channel=0 control=64 value=62 time=13\n",
      "control_change channel=0 control=64 value=0 time=16\n",
      "control_change channel=0 control=64 value=47 time=122\n",
      "note_on channel=0 note=62 velocity=0 time=1\n",
      "note_on channel=0 note=53 velocity=57 time=5\n",
      "control_change channel=0 control=64 value=62 time=8\n",
      "control_change channel=0 control=64 value=66 time=16\n",
      "control_change channel=0 control=64 value=68 time=15\n",
      "control_change channel=0 control=64 value=71 time=14\n",
      "control_change channel=0 control=64 value=74 time=16\n",
      "control_change channel=0 control=64 value=77 time=23\n",
      "control_change channel=0 control=64 value=78 time=16\n",
      "note_on channel=0 note=65 velocity=0 time=11\n",
      "control_change channel=0 control=64 value=79 time=4\n",
      "note_on channel=0 note=53 velocity=0 time=12\n",
      "control_change channel=0 control=64 value=80 time=33\n",
      "note_on channel=0 note=55 velocity=63 time=9\n",
      "note_on channel=0 note=71 velocity=0 time=22\n",
      "note_on channel=0 note=55 velocity=0 time=110\n",
      "note_on channel=0 note=56 velocity=71 time=18\n",
      "control_change channel=0 control=64 value=79 time=85\n",
      "control_change channel=0 control=64 value=76 time=16\n",
      "control_change channel=0 control=64 value=69 time=15\n",
      "control_change channel=0 control=64 value=48 time=16\n",
      "note_on channel=0 note=56 velocity=0 time=0\n",
      "note_on channel=0 note=67 velocity=73 time=11\n",
      "note_on channel=0 note=72 velocity=80 time=1\n",
      "control_change channel=0 control=64 value=0 time=3\n",
      "note_on channel=0 note=63 velocity=76 time=1\n",
      "note_on channel=0 note=55 velocity=67 time=2\n",
      "control_change channel=0 control=64 value=55 time=59\n",
      "control_change channel=0 control=64 value=65 time=14\n",
      "control_change channel=0 control=64 value=69 time=15\n",
      "control_change channel=0 control=64 value=74 time=16\n",
      "note_on channel=0 note=63 velocity=0 time=8\n",
      "control_change channel=0 control=64 value=79 time=7\n",
      "control_change channel=0 control=64 value=82 time=15\n",
      "note_on channel=0 note=72 velocity=0 time=12\n",
      "control_change channel=0 control=64 value=84 time=4\n",
      "note_on channel=0 note=53 velocity=78 time=2\n",
      "note_on channel=0 note=55 velocity=0 time=4\n",
      "control_change channel=0 control=64 value=86 time=9\n",
      "control_change channel=0 control=64 value=87 time=15\n",
      "control_change channel=0 control=64 value=89 time=15\n",
      "control_change channel=0 control=64 value=90 time=15\n",
      "control_change channel=0 control=64 value=87 time=45\n",
      "control_change channel=0 control=64 value=80 time=16\n",
      "control_change channel=0 control=64 value=67 time=15\n",
      "control_change channel=0 control=64 value=0 time=15\n",
      "note_on channel=0 note=71 velocity=78 time=5\n",
      "note_on channel=0 note=74 velocity=78 time=2\n",
      "note_on channel=0 note=65 velocity=85 time=1\n",
      "note_on channel=0 note=51 velocity=76 time=3\n",
      "note_on channel=0 note=53 velocity=0 time=8\n",
      "note_on channel=0 note=67 velocity=0 time=34\n",
      "control_change channel=0 control=64 value=61 time=31\n",
      "control_change channel=0 control=64 value=67 time=15\n",
      "note_on channel=0 note=74 velocity=0 time=12\n",
      "control_change channel=0 control=64 value=74 time=3\n",
      "note_on channel=0 note=51 velocity=0 time=8\n",
      "control_change channel=0 control=64 value=81 time=8\n",
      "control_change channel=0 control=64 value=87 time=14\n",
      "control_change channel=0 control=64 value=91 time=16\n",
      "note_on channel=0 note=50 velocity=75 time=3\n",
      "control_change channel=0 control=64 value=94 time=12\n",
      "control_change channel=0 control=64 value=97 time=15\n",
      "note_on channel=0 note=65 velocity=0 time=1\n",
      "control_change channel=0 control=64 value=100 time=15\n",
      "control_change channel=0 control=64 value=103 time=14\n",
      "control_change channel=0 control=64 value=107 time=15\n",
      "control_change channel=0 control=64 value=109 time=16\n",
      "control_change channel=0 control=64 value=105 time=45\n",
      "note_on channel=0 note=71 velocity=0 time=1\n",
      "control_change channel=0 control=64 value=95 time=14\n",
      "note_on channel=0 note=50 velocity=0 time=4\n",
      "control_change channel=0 control=64 value=78 time=12\n",
      "note_on channel=0 note=75 velocity=91 time=7\n",
      "note_on channel=0 note=72 velocity=81 time=4\n",
      "note_on channel=0 note=48 velocity=69 time=2\n",
      "note_on channel=0 note=67 velocity=81 time=0\n",
      "control_change channel=0 control=64 value=58 time=1\n",
      "control_change channel=0 control=64 value=0 time=15\n",
      "control_change channel=0 control=64 value=57 time=61\n",
      "control_change channel=0 control=64 value=68 time=15\n",
      "control_change channel=0 control=64 value=75 time=16\n",
      "control_change channel=0 control=64 value=83 time=15\n",
      "note_on channel=0 note=67 velocity=0 time=1\n",
      "control_change channel=0 control=64 value=89 time=15\n",
      "note_on channel=0 note=46 velocity=71 time=7\n",
      "control_change channel=0 control=64 value=93 time=8\n",
      "control_change channel=0 control=64 value=96 time=15\n",
      "note_on channel=0 note=48 velocity=0 time=0\n",
      "control_change channel=0 control=64 value=98 time=16\n",
      "note_on channel=0 note=75 velocity=0 time=13\n",
      "control_change channel=0 control=64 value=100 time=2\n",
      "control_change channel=0 control=64 value=102 time=15\n",
      "control_change channel=0 control=64 value=104 time=15\n",
      "control_change channel=0 control=64 value=105 time=15\n",
      "note_on channel=0 note=46 velocity=0 time=5\n",
      "note_on channel=0 note=72 velocity=0 time=8\n",
      "control_change channel=0 control=64 value=104 time=18\n",
      "note_on channel=0 note=76 velocity=95 time=15\n",
      "note_on channel=0 note=67 velocity=93 time=7\n",
      "note_on channel=0 note=48 velocity=75 time=3\n",
      "note_on channel=0 note=67 velocity=0 time=55\n",
      "note_on channel=0 note=76 velocity=0 time=18\n",
      "control_change channel=0 control=64 value=105 time=24\n",
      "note_on channel=0 note=48 velocity=0 time=21\n",
      "note_on channel=0 note=49 velocity=78 time=22\n",
      "control_change channel=0 control=64 value=105 time=33\n",
      "control_change channel=0 control=64 value=106 time=68\n",
      "control_change channel=0 control=64 value=105 time=30\n",
      "control_change channel=0 control=64 value=102 time=16\n",
      "note_on channel=0 note=49 velocity=0 time=0\n",
      "control_change channel=0 control=64 value=90 time=15\n",
      "note_on channel=0 note=77 velocity=96 time=13\n",
      "control_change channel=0 control=64 value=74 time=3\n",
      "note_on channel=0 note=74 velocity=87 time=1\n",
      "note_on channel=0 note=68 velocity=90 time=2\n",
      "note_on channel=0 note=48 velocity=75 time=1\n",
      "control_change channel=0 control=64 value=0 time=10\n",
      "control_change channel=0 control=64 value=47 time=46\n",
      "control_change channel=0 control=64 value=67 time=15\n",
      "control_change channel=0 control=64 value=77 time=15\n",
      "note_on channel=0 note=68 velocity=0 time=2\n",
      "note_on channel=0 note=74 velocity=0 time=4\n",
      "note_on channel=0 note=77 velocity=0 time=6\n",
      "control_change channel=0 control=64 value=88 time=3\n",
      "control_change channel=0 control=64 value=96 time=16\n",
      "control_change channel=0 control=64 value=100 time=15\n",
      "note_on channel=0 note=46 velocity=75 time=13\n",
      "control_change channel=0 control=64 value=104 time=1\n",
      "note_on channel=0 note=48 velocity=0 time=15\n",
      "control_change channel=0 control=64 value=107 time=1\n",
      "control_change channel=0 control=64 value=109 time=15\n",
      "control_change channel=0 control=64 value=110 time=15\n",
      "control_change channel=0 control=64 value=112 time=16\n",
      "control_change channel=0 control=64 value=113 time=14\n",
      "control_change channel=0 control=64 value=114 time=16\n",
      "control_change channel=0 control=64 value=113 time=30\n",
      "control_change channel=0 control=64 value=108 time=16\n",
      "control_change channel=0 control=64 value=94 time=14\n",
      "note_on channel=0 note=79 velocity=96 time=8\n",
      "note_on channel=0 note=44 velocity=72 time=1\n",
      "note_on channel=0 note=70 velocity=98 time=0\n",
      "note_on channel=0 note=46 velocity=0 time=3\n",
      "note_on channel=0 note=76 velocity=94 time=0\n",
      "control_change channel=0 control=64 value=74 time=3\n",
      "control_change channel=0 control=64 value=0 time=16\n",
      "control_change channel=0 control=64 value=23 time=46\n",
      "control_change channel=0 control=64 value=67 time=15\n",
      "control_change channel=0 control=64 value=77 time=16\n",
      "note_on channel=0 note=70 velocity=0 time=11\n",
      "control_change channel=0 control=64 value=88 time=4\n",
      "note_on channel=0 note=79 velocity=0 time=3\n",
      "note_on channel=0 note=44 velocity=0 time=10\n",
      "control_change channel=0 control=64 value=97 time=3\n",
      "note_on channel=0 note=76 velocity=0 time=1\n",
      "control_change channel=0 control=64 value=103 time=13\n",
      "control_change channel=0 control=64 value=107 time=15\n",
      "control_change channel=0 control=64 value=110 time=16\n",
      "note_on channel=0 note=43 velocity=72 time=0\n",
      "control_change channel=0 control=64 value=113 time=15\n",
      "control_change channel=0 control=64 value=117 time=15\n",
      "control_change channel=0 control=64 value=119 time=16\n",
      "control_change channel=0 control=64 value=122 time=15\n",
      "control_change channel=0 control=64 value=123 time=15\n",
      "control_change channel=0 control=64 value=125 time=15\n",
      "note_on channel=0 note=43 velocity=0 time=58\n",
      "control_change channel=0 control=64 value=121 time=3\n",
      "control_change channel=0 control=64 value=113 time=22\n",
      "control_change channel=0 control=64 value=104 time=15\n",
      "control_change channel=0 control=64 value=92 time=16\n",
      "note_on channel=0 note=80 velocity=98 time=9\n",
      "note_on channel=0 note=41 velocity=78 time=3\n",
      "note_on channel=0 note=77 velocity=89 time=1\n",
      "control_change channel=0 control=64 value=77 time=2\n",
      "note_on channel=0 note=72 velocity=86 time=0\n",
      "control_change channel=0 control=64 value=57 time=16\n",
      "control_change channel=0 control=64 value=0 time=14\n",
      "note_on channel=0 note=75 velocity=67 time=184\n",
      "note_on channel=0 note=77 velocity=0 time=19\n",
      "note_on channel=0 note=75 velocity=0 time=136\n",
      "note_on channel=0 note=77 velocity=64 time=2\n",
      "note_on channel=0 note=79 velocity=69 time=142\n",
      "note_on channel=0 note=77 velocity=0 time=22\n",
      "note_on channel=0 note=72 velocity=0 time=42\n",
      "note_on channel=0 note=46 velocity=85 time=68\n",
      "note_on channel=0 note=77 velocity=81 time=15\n",
      "note_on channel=0 note=41 velocity=0 time=23\n",
      "note_on channel=0 note=79 velocity=0 time=82\n",
      "note_on channel=0 note=80 velocity=0 time=0\n",
      "note_on channel=0 note=75 velocity=80 time=62\n",
      "note_on channel=0 note=77 velocity=0 time=16\n",
      "note_on channel=0 note=75 velocity=0 time=95\n",
      "note_on channel=0 note=74 velocity=84 time=48\n",
      "note_on channel=0 note=74 velocity=0 time=112\n",
      "note_on channel=0 note=72 velocity=82 time=35\n",
      "note_on channel=0 note=72 velocity=0 time=99\n",
      "note_on channel=0 note=74 velocity=77 time=53\n",
      "control_change channel=0 control=64 value=52 time=60\n",
      "control_change channel=0 control=64 value=61 time=14\n",
      "control_change channel=0 control=64 value=65 time=15\n",
      "control_change channel=0 control=64 value=68 time=16\n",
      "control_change channel=0 control=64 value=73 time=15\n",
      "control_change channel=0 control=64 value=77 time=16\n",
      "control_change channel=0 control=64 value=80 time=14\n",
      "note_on channel=0 note=80 velocity=86 time=6\n",
      "control_change channel=0 control=64 value=82 time=9\n",
      "control_change channel=0 control=64 value=83 time=16\n",
      "control_change channel=0 control=64 value=83 time=22\n",
      "control_change channel=0 control=64 value=84 time=16\n",
      "control_change channel=0 control=64 value=85 time=15\n",
      "control_change channel=0 control=64 value=86 time=15\n",
      "control_change channel=0 control=64 value=87 time=16\n",
      "control_change channel=0 control=64 value=88 time=14\n",
      "note_on channel=0 note=80 velocity=0 time=4\n",
      "note_on channel=0 note=82 velocity=87 time=34\n",
      "control_change channel=0 control=64 value=88 time=24\n",
      "note_on channel=0 note=84 velocity=86 time=119\n",
      "note_on channel=0 note=82 velocity=0 time=14\n",
      "control_change channel=0 control=64 value=88 time=125\n",
      "control_change channel=0 control=64 value=84 time=14\n",
      "note_on channel=0 note=43 velocity=65 time=11\n",
      "note_on channel=0 note=82 velocity=86 time=0\n",
      "control_change channel=0 control=64 value=76 time=5\n",
      "control_change channel=0 control=64 value=64 time=15\n",
      "note_on channel=0 note=84 velocity=0 time=15\n",
      "control_change channel=0 control=64 value=0 time=1\n",
      "note_on channel=0 note=46 velocity=0 time=30\n",
      "control_change channel=0 control=64 value=15 time=30\n",
      "control_change channel=0 control=64 value=58 time=16\n",
      "control_change channel=0 control=64 value=64 time=15\n",
      "control_change channel=0 control=64 value=67 time=14\n",
      "note_on channel=0 note=80 velocity=80 time=14\n",
      "control_change channel=0 control=64 value=71 time=2\n",
      "control_change channel=0 control=64 value=76 time=15\n",
      "control_change channel=0 control=64 value=81 time=14\n",
      "note_on channel=0 note=74 velocity=0 time=8\n",
      "note_on channel=0 note=82 velocity=0 time=4\n",
      "control_change channel=0 control=64 value=84 time=4\n",
      "control_change channel=0 control=64 value=85 time=16\n",
      "control_change channel=0 control=64 value=87 time=16\n",
      "control_change channel=0 control=64 value=89 time=15\n",
      "control_change channel=0 control=64 value=91 time=15\n",
      "control_change channel=0 control=64 value=94 time=16\n",
      "control_change channel=0 control=64 value=97 time=14\n",
      "control_change channel=0 control=64 value=98 time=15\n",
      "note_on channel=0 note=79 velocity=89 time=13\n",
      "control_change channel=0 control=64 value=100 time=3\n",
      "control_change channel=0 control=64 value=101 time=22\n",
      "note_on channel=0 note=80 velocity=0 time=10\n",
      "control_change channel=0 control=64 value=102 time=6\n",
      "control_change channel=0 control=64 value=103 time=15\n",
      "control_change channel=0 control=64 value=104 time=16\n",
      "control_change channel=0 control=64 value=104 time=15\n",
      "note_on channel=0 note=79 velocity=0 time=13\n",
      "control_change channel=0 control=64 value=105 time=17\n",
      "note_on channel=0 note=77 velocity=76 time=35\n",
      "control_change channel=0 control=64 value=105 time=11\n",
      "note_on channel=0 note=77 velocity=0 time=40\n",
      "control_change channel=0 control=64 value=105 time=95\n",
      "note_on channel=0 note=51 velocity=65 time=14\n",
      "control_change channel=0 control=64 value=104 time=2\n",
      "note_on channel=0 note=48 velocity=63 time=2\n",
      "note_on channel=0 note=75 velocity=79 time=11\n",
      "control_change channel=0 control=64 value=102 time=2\n",
      "control_change channel=0 control=64 value=100 time=15\n",
      "control_change channel=0 control=64 value=96 time=16\n",
      "control_change channel=0 control=64 value=92 time=14\n",
      "control_change channel=0 control=64 value=87 time=16\n",
      "control_change channel=0 control=64 value=82 time=15\n",
      "control_change channel=0 control=64 value=76 time=15\n",
      "note_on channel=0 note=43 velocity=0 time=13\n",
      "control_change channel=0 control=64 value=69 time=3\n",
      "control_change channel=0 control=64 value=57 time=15\n",
      "control_change channel=0 control=64 value=0 time=15\n",
      "note_on channel=0 note=70 velocity=66 time=7\n",
      "note_on channel=0 note=72 velocity=66 time=173\n",
      "note_on channel=0 note=75 velocity=0 time=31\n",
      "note_on channel=0 note=70 velocity=0 time=5\n",
      "note_on channel=0 note=73 velocity=74 time=125\n",
      "note_on channel=0 note=72 velocity=0 time=20\n",
      "note_on channel=0 note=73 velocity=0 time=111\n",
      "note_on channel=0 note=72 velocity=73 time=39\n",
      "note_on channel=0 note=56 velocity=70 time=4\n",
      "note_on channel=0 note=51 velocity=0 time=40\n",
      "note_on channel=0 note=70 velocity=67 time=112\n",
      "note_on channel=0 note=72 velocity=0 time=125\n",
      "note_on channel=0 note=70 velocity=0 time=12\n",
      "note_on channel=0 note=72 velocity=31 time=7\n",
      "note_on channel=0 note=68 velocity=66 time=15\n",
      "note_on channel=0 note=68 velocity=0 time=90\n",
      "note_on channel=0 note=67 velocity=60 time=55\n",
      "note_on channel=0 note=67 velocity=0 time=69\n",
      "note_on channel=0 note=72 velocity=0 time=103\n",
      "note_on channel=0 note=50 velocity=50 time=15\n",
      "note_on channel=0 note=70 velocity=58 time=3\n",
      "note_on channel=0 note=65 velocity=49 time=10\n",
      "note_on channel=0 note=48 velocity=0 time=12\n",
      "note_on channel=0 note=65 velocity=0 time=147\n",
      "note_on channel=0 note=46 velocity=39 time=123\n",
      "note_on channel=0 note=67 velocity=60 time=19\n",
      "note_on channel=0 note=67 velocity=0 time=130\n",
      "note_on channel=0 note=68 velocity=67 time=16\n",
      "note_on channel=0 note=70 velocity=0 time=36\n",
      "note_on channel=0 note=56 velocity=0 time=67\n",
      "note_on channel=0 note=46 velocity=0 time=45\n",
      "note_on channel=0 note=50 velocity=0 time=8\n",
      "note_on channel=0 note=51 velocity=22 time=50\n",
      "note_on channel=0 note=68 velocity=0 time=0\n",
      "note_on channel=0 note=70 velocity=54 time=5\n",
      "note_on channel=0 note=55 velocity=28 time=2\n",
      "note_on channel=0 note=68 velocity=49 time=205\n",
      "note_on channel=0 note=68 velocity=0 time=101\n",
      "control_change channel=0 control=64 value=36 time=15\n",
      "note_on channel=0 note=51 velocity=0 time=8\n",
      "control_change channel=0 control=64 value=51 time=8\n",
      "note_on channel=0 note=50 velocity=43 time=9\n",
      "control_change channel=0 control=64 value=59 time=6\n",
      "note_on channel=0 note=67 velocity=57 time=0\n",
      "control_change channel=0 control=64 value=63 time=15\n",
      "control_change channel=0 control=64 value=65 time=16\n",
      "control_change channel=0 control=64 value=66 time=15\n",
      "control_change channel=0 control=64 value=68 time=15\n",
      "control_change channel=0 control=64 value=70 time=15\n",
      "control_change channel=0 control=64 value=72 time=15\n",
      "control_change channel=0 control=64 value=74 time=15\n",
      "note_on channel=0 note=67 velocity=0 time=14\n",
      "control_change channel=0 control=64 value=75 time=1\n",
      "note_on channel=0 note=65 velocity=60 time=13\n",
      "control_change channel=0 control=64 value=75 time=2\n",
      "control_change channel=0 control=64 value=76 time=16\n",
      "note_on channel=0 note=55 velocity=0 time=4\n",
      "note_on channel=0 note=65 velocity=0 time=27\n",
      "control_change channel=0 control=64 value=75 time=45\n",
      "control_change channel=0 control=64 value=73 time=14\n",
      "control_change channel=0 control=64 value=70 time=15\n",
      "control_change channel=0 control=64 value=66 time=16\n",
      "control_change channel=0 control=64 value=60 time=15\n",
      "note_on channel=0 note=48 velocity=50 time=0\n",
      "note_on channel=0 note=63 velocity=68 time=15\n",
      "control_change channel=0 control=64 value=47 time=1\n",
      "control_change channel=0 control=64 value=28 time=14\n",
      "note_on channel=0 note=60 velocity=45 time=9\n",
      "control_change channel=0 control=64 value=13 time=6\n",
      "note_on channel=0 note=60 velocity=0 time=37\n",
      "note_on channel=0 note=50 velocity=0 time=7\n",
      "control_change channel=0 control=64 value=10 time=2\n",
      "control_change channel=0 control=64 value=0 time=16\n",
      "note_on channel=0 note=63 velocity=0 time=67\n",
      "note_on channel=0 note=62 velocity=65 time=3\n",
      "note_on channel=0 note=62 velocity=0 time=107\n",
      "note_on channel=0 note=60 velocity=59 time=62\n",
      "note_on channel=0 note=70 velocity=0 time=107\n",
      "note_on channel=0 note=58 velocity=58 time=43\n",
      "note_on channel=0 note=63 velocity=60 time=159\n",
      "note_on channel=0 note=60 velocity=0 time=52\n",
      "note_on channel=0 note=48 velocity=0 time=8\n",
      "note_on channel=0 note=68 velocity=62 time=84\n",
      "note_on channel=0 note=63 velocity=0 time=7\n",
      "note_on channel=0 note=68 velocity=0 time=71\n",
      "note_on channel=0 note=63 velocity=47 time=88\n",
      "note_on channel=0 note=70 velocity=54 time=1\n",
      "control_change channel=0 control=64 value=28 time=8\n",
      "note_on channel=0 note=46 velocity=41 time=3\n",
      "control_change channel=0 control=64 value=47 time=12\n",
      "control_change channel=0 control=64 value=57 time=14\n",
      "control_change channel=0 control=64 value=62 time=16\n",
      "control_change channel=0 control=64 value=64 time=15\n",
      "control_change channel=0 control=64 value=67 time=16\n",
      "control_change channel=0 control=64 value=70 time=16\n",
      "control_change channel=0 control=64 value=73 time=15\n",
      "note_on channel=0 note=70 velocity=0 time=9\n",
      "control_change channel=0 control=64 value=76 time=7\n",
      "note_on channel=0 note=72 velocity=57 time=3\n",
      "note_on channel=0 note=58 velocity=0 time=6\n",
      "control_change channel=0 control=64 value=77 time=5\n",
      "control_change channel=0 control=64 value=78 time=16\n",
      "note_on channel=0 note=63 velocity=0 time=17\n",
      "note_on channel=0 note=72 velocity=0 time=17\n",
      "note_on channel=0 note=46 velocity=0 time=28\n",
      "control_change channel=0 control=64 value=76 time=59\n",
      "control_change channel=0 control=64 value=73 time=16\n",
      "note_on channel=0 note=63 velocity=56 time=2\n",
      "control_change channel=0 control=64 value=65 time=13\n",
      "note_on channel=0 note=45 velocity=40 time=10\n",
      "note_on channel=0 note=65 velocity=50 time=0\n",
      "control_change channel=0 control=64 value=33 time=6\n",
      "control_change channel=0 control=64 value=0 time=14\n",
      "note_on channel=0 note=63 velocity=0 time=64\n",
      "control_change channel=0 control=64 value=38 time=27\n",
      "control_change channel=0 control=64 value=55 time=16\n",
      "control_change channel=0 control=64 value=61 time=14\n",
      "note_on channel=0 note=57 velocity=35 time=7\n",
      "control_change channel=0 control=64 value=64 time=8\n",
      "control_change channel=0 control=64 value=66 time=16\n",
      "control_change channel=0 control=64 value=67 time=15\n",
      "control_change channel=0 control=64 value=68 time=15\n",
      "control_change channel=0 control=64 value=68 time=16\n",
      "control_change channel=0 control=64 value=69 time=15\n",
      "control_change channel=0 control=64 value=69 time=16\n",
      "note_on channel=0 note=58 velocity=51 time=61\n",
      "note_on channel=0 note=65 velocity=0 time=6\n",
      "note_on channel=0 note=57 velocity=0 time=33\n",
      "note_on channel=0 note=58 velocity=0 time=39\n",
      "control_change channel=0 control=64 value=69 time=35\n",
      "note_on channel=0 note=60 velocity=53 time=43\n",
      "control_change channel=0 control=64 value=68 time=2\n",
      "control_change channel=0 control=64 value=68 time=31\n",
      "control_change channel=0 control=64 value=67 time=15\n",
      "control_change channel=0 control=64 value=67 time=16\n",
      "note_on channel=0 note=60 velocity=0 time=8\n",
      "control_change channel=0 control=64 value=65 time=7\n",
      "control_change channel=0 control=64 value=63 time=14\n",
      "control_change channel=0 control=64 value=61 time=16\n",
      "control_change channel=0 control=64 value=59 time=16\n",
      "control_change channel=0 control=64 value=57 time=15\n",
      "control_change channel=0 control=64 value=54 time=15\n",
      "note_on channel=0 note=62 velocity=53 time=9\n",
      "note_on channel=0 note=65 velocity=52 time=1\n",
      "control_change channel=0 control=64 value=51 time=5\n",
      "note_on channel=0 note=58 velocity=45 time=3\n",
      "note_on channel=0 note=45 velocity=0 time=12\n",
      "control_change channel=0 control=64 value=47 time=1\n",
      "note_on channel=0 note=46 velocity=39 time=8\n",
      "control_change channel=0 control=64 value=42 time=7\n",
      "control_change channel=0 control=64 value=37 time=15\n",
      "control_change channel=0 control=64 value=32 time=16\n",
      "control_change channel=0 control=64 value=29 time=15\n",
      "control_change channel=0 control=64 value=28 time=16\n",
      "control_change channel=0 control=64 value=27 time=14\n",
      "control_change channel=0 control=64 value=26 time=15\n",
      "control_change channel=0 control=64 value=25 time=16\n",
      "note_on channel=0 note=56 velocity=53 time=13\n",
      "note_on channel=0 note=58 velocity=0 time=27\n",
      "note_on channel=0 note=62 velocity=0 time=46\n",
      "control_change channel=0 control=64 value=26 time=19\n",
      "control_change channel=0 control=64 value=27 time=30\n",
      "control_change channel=0 control=64 value=29 time=16\n",
      "control_change channel=0 control=64 value=30 time=15\n",
      "note_on channel=0 note=55 velocity=44 time=1\n",
      "control_change channel=0 control=64 value=31 time=14\n",
      "control_change channel=0 control=64 value=32 time=16\n",
      "control_change channel=0 control=64 value=32 time=14\n",
      "control_change channel=0 control=64 value=33 time=15\n",
      "control_change channel=0 control=64 value=34 time=31\n",
      "control_change channel=0 control=64 value=34 time=16\n",
      "note_on channel=0 note=56 velocity=0 time=15\n",
      "note_on channel=0 note=55 velocity=0 time=1\n",
      "control_change channel=0 control=64 value=35 time=14\n",
      "note_on channel=0 note=53 velocity=48 time=21\n",
      "control_change channel=0 control=64 value=36 time=9\n",
      "control_change channel=0 control=64 value=36 time=84\n",
      "note_on channel=0 note=53 velocity=0 time=18\n",
      "note_on channel=0 note=65 velocity=0 time=27\n",
      "note_on channel=0 note=63 velocity=56 time=33\n",
      "note_on channel=0 note=54 velocity=44 time=3\n",
      "note_on channel=0 note=60 velocity=47 time=6\n",
      "note_on channel=0 note=46 velocity=0 time=28\n",
      "note_on channel=0 note=54 velocity=0 time=15\n",
      "note_on channel=0 note=54 velocity=13 time=0\n",
      "note_on channel=0 note=45 velocity=30 time=129\n",
      "note_on channel=0 note=45 velocity=0 time=115\n",
      "note_on channel=0 note=46 velocity=40 time=31\n",
      "note_on channel=0 note=60 velocity=0 time=102\n",
      "note_on channel=0 note=46 velocity=0 time=12\n",
      "note_on channel=0 note=48 velocity=40 time=51\n",
      "note_on channel=0 note=54 velocity=0 time=102\n",
      "note_on channel=0 note=48 velocity=0 time=37\n",
      "note_on channel=0 note=46 velocity=48 time=13\n",
      "note_on channel=0 note=53 velocity=44 time=15\n",
      "control_change channel=0 control=64 value=36 time=30\n",
      "note_on channel=0 note=46 velocity=0 time=105\n",
      "note_on channel=0 note=45 velocity=52 time=24\n",
      "note_on channel=0 note=45 velocity=0 time=136\n",
      "note_on channel=0 note=43 velocity=47 time=34\n",
      "note_on channel=0 note=53 velocity=0 time=51\n",
      "note_on channel=0 note=43 velocity=0 time=80\n",
      "control_change channel=0 control=64 value=35 time=11\n",
      "note_on channel=0 note=41 velocity=47 time=29\n",
      "control_change channel=0 control=64 value=34 time=47\n",
      "note_on channel=0 note=63 velocity=0 time=76\n",
      "note_on channel=0 note=53 velocity=45 time=51\n",
      "note_on channel=0 note=41 velocity=0 time=5\n",
      "note_on channel=0 note=62 velocity=55 time=8\n",
      "note_on channel=0 note=46 velocity=44 time=7\n",
      "control_change channel=0 control=64 value=34 time=51\n",
      "note_on channel=0 note=65 velocity=56 time=127\n",
      "control_change channel=0 control=64 value=33 time=32\n",
      "note_on channel=0 note=65 velocity=0 time=117\n",
      "note_on channel=0 note=67 velocity=66 time=3\n",
      "control_change channel=0 control=64 value=32 time=78\n",
      "note_on channel=0 note=68 velocity=45 time=79\n",
      "note_on channel=0 note=67 velocity=0 time=5\n",
      "note_on channel=0 note=69 velocity=62 time=14\n",
      "note_on channel=0 note=68 velocity=0 time=12\n",
      "control_change channel=0 control=64 value=32 time=43\n",
      "note_on channel=0 note=69 velocity=0 time=6\n",
      "note_on channel=0 note=53 velocity=0 time=71\n",
      "note_on channel=0 note=51 velocity=58 time=1\n",
      "note_on channel=0 note=67 velocity=71 time=15\n",
      "note_on channel=0 note=65 velocity=71 time=146\n",
      "note_on channel=0 note=62 velocity=0 time=19\n",
      "control_change channel=0 control=64 value=31 time=15\n",
      "note_on channel=0 note=63 velocity=67 time=139\n",
      "note_on channel=0 note=67 velocity=0 time=7\n",
      "note_on channel=0 note=67 velocity=7 time=0\n",
      "note_on channel=0 note=46 velocity=0 time=52\n",
      "note_on channel=0 note=63 velocity=0 time=59\n",
      "note_on channel=0 note=65 velocity=0 time=8\n",
      "note_on channel=0 note=62 velocity=64 time=25\n",
      "note_on channel=0 note=62 velocity=0 time=88\n",
      "note_on channel=0 note=67 velocity=0 time=88\n",
      "note_on channel=0 note=68 velocity=68 time=3\n",
      "note_on channel=0 note=60 velocity=56 time=20\n",
      "control_change channel=0 control=64 value=30 time=37\n",
      "control_change channel=0 control=64 value=29 time=107\n",
      "note_on channel=0 note=60 velocity=0 time=22\n",
      "control_change channel=0 control=64 value=29 time=8\n",
      "control_change channel=0 control=64 value=28 time=15\n",
      "control_change channel=0 control=64 value=27 time=46\n",
      "note_on channel=0 note=62 velocity=50 time=73\n",
      "control_change channel=0 control=64 value=26 time=10\n",
      "control_change channel=0 control=64 value=25 time=91\n",
      "note_on channel=0 note=62 velocity=0 time=43\n",
      "note_on channel=0 note=63 velocity=49 time=14\n",
      "note_on channel=0 note=63 velocity=0 time=172\n",
      "note_on channel=0 note=51 velocity=0 time=23\n",
      "note_on channel=0 note=50 velocity=37 time=9\n",
      "note_on channel=0 note=65 velocity=49 time=2\n",
      "control_change channel=0 control=64 value=24 time=9\n",
      "control_change channel=0 control=64 value=23 time=31\n",
      "control_change channel=0 control=64 value=21 time=15\n",
      "control_change channel=0 control=64 value=20 time=16\n",
      "control_change channel=0 control=64 value=18 time=15\n",
      "control_change channel=0 control=64 value=17 time=15\n",
      "control_change channel=0 control=64 value=15 time=16\n",
      "control_change channel=0 control=64 value=13 time=15\n",
      "control_change channel=0 control=64 value=10 time=15\n",
      "note_on channel=0 note=65 velocity=0 time=3\n",
      "control_change channel=0 control=64 value=0 time=12\n",
      "note_on channel=0 note=63 velocity=54 time=11\n",
      "note_on channel=0 note=63 velocity=0 time=92\n",
      "note_on channel=0 note=62 velocity=49 time=65\n",
      "note_on channel=0 note=62 velocity=0 time=141\n",
      "note_on channel=0 note=60 velocity=52 time=18\n",
      "note_on channel=0 note=50 velocity=0 time=117\n",
      "note_on channel=0 note=60 velocity=0 time=1\n",
      "note_on channel=0 note=58 velocity=61 time=47\n",
      "note_on channel=0 note=55 velocity=36 time=13\n",
      "note_on channel=0 note=55 velocity=0 time=95\n",
      "note_on channel=0 note=68 velocity=0 time=37\n",
      "note_on channel=0 note=65 velocity=61 time=5\n",
      "note_on channel=0 note=56 velocity=49 time=8\n",
      "note_on channel=0 note=56 velocity=0 time=98\n",
      "note_on channel=0 note=58 velocity=0 time=27\n",
      "note_on channel=0 note=65 velocity=0 time=3\n",
      "control_change channel=0 control=64 value=10 time=8\n",
      "note_on channel=0 note=55 velocity=51 time=17\n",
      "note_on channel=0 note=58 velocity=21 time=2\n",
      "note_on channel=0 note=67 velocity=66 time=3\n",
      "control_change channel=0 control=64 value=13 time=23\n",
      "control_change channel=0 control=64 value=15 time=46\n",
      "control_change channel=0 control=64 value=17 time=76\n",
      "note_on channel=0 note=55 velocity=0 time=3\n",
      "note_on channel=0 note=58 velocity=0 time=3\n",
      "note_on channel=0 note=58 velocity=5 time=0\n",
      "note_on channel=0 note=67 velocity=0 time=3\n",
      "note_on channel=0 note=68 velocity=64 time=7\n",
      "note_on channel=0 note=53 velocity=60 time=5\n",
      "control_change channel=0 control=64 value=18 time=10\n",
      "control_change channel=0 control=64 value=20 time=52\n",
      "note_on channel=0 note=58 velocity=0 time=12\n",
      "control_change channel=0 control=64 value=21 time=3\n",
      "control_change channel=0 control=64 value=23 time=16\n",
      "control_change channel=0 control=64 value=24 time=15\n",
      "control_change channel=0 control=64 value=25 time=16\n",
      "note_on channel=0 note=53 velocity=0 time=11\n",
      "note_on channel=0 note=68 velocity=0 time=1\n",
      "control_change channel=0 control=64 value=29 time=2\n",
      "control_change channel=0 control=64 value=33 time=15\n",
      "note_on channel=0 note=67 velocity=72 time=12\n",
      "note_on channel=0 note=55 velocity=73 time=1\n",
      "control_change channel=0 control=64 value=40 time=3\n",
      "control_change channel=0 control=64 value=47 time=15\n",
      "note_on channel=0 note=58 velocity=55 time=3\n",
      "control_change channel=0 control=64 value=54 time=12\n",
      "control_change channel=0 control=64 value=58 time=16\n",
      "control_change channel=0 control=64 value=61 time=14\n",
      "note_on channel=0 note=58 velocity=0 time=12\n",
      "control_change channel=0 control=64 value=63 time=4\n",
      "control_change channel=0 control=64 value=64 time=15\n",
      "control_change channel=0 control=64 value=65 time=15\n",
      "control_change channel=0 control=64 value=67 time=15\n",
      "note_on channel=0 note=67 velocity=0 time=3\n",
      "control_change channel=0 control=64 value=68 time=12\n",
      "note_on channel=0 note=65 velocity=69 time=6\n",
      "control_change channel=0 control=64 value=71 time=9\n",
      "control_change channel=0 control=64 value=74 time=16\n",
      "control_change channel=0 control=64 value=77 time=15\n",
      "control_change channel=0 control=64 value=78 time=15\n",
      "control_change channel=0 control=64 value=79 time=15\n",
      "control_change channel=0 control=64 value=79 time=15\n",
      "note_on channel=0 note=65 velocity=0 time=26\n",
      "note_on channel=0 note=55 velocity=0 time=15\n",
      "note_on channel=0 note=53 velocity=74 time=37\n",
      "note_on channel=0 note=63 velocity=70 time=3\n",
      "control_change channel=0 control=64 value=79 time=40\n",
      "note_on channel=0 note=63 velocity=0 time=37\n",
      "control_change channel=0 control=64 value=78 time=26\n",
      "control_change channel=0 control=64 value=78 time=14\n",
      "note_on channel=0 note=62 velocity=72 time=29\n",
      "control_change channel=0 control=64 value=77 time=2\n",
      "control_change channel=0 control=64 value=77 time=15\n",
      "control_change channel=0 control=64 value=76 time=16\n",
      "control_change channel=0 control=64 value=75 time=14\n",
      "control_change channel=0 control=64 value=74 time=16\n",
      "control_change channel=0 control=64 value=73 time=15\n",
      "note_on channel=0 note=62 velocity=0 time=3\n",
      "control_change channel=0 control=64 value=72 time=12\n",
      "control_change channel=0 control=64 value=70 time=16\n",
      "control_change channel=0 control=64 value=68 time=15\n",
      "control_change channel=0 control=64 value=66 time=15\n",
      "control_change channel=0 control=64 value=64 time=15\n",
      "control_change channel=0 control=64 value=63 time=22\n",
      "note_on channel=0 note=52 velocity=60 time=9\n",
      "note_on channel=0 note=60 velocity=71 time=0\n",
      "note_on channel=0 note=58 velocity=70 time=5\n",
      "control_change channel=0 control=64 value=62 time=2\n",
      "control_change channel=0 control=64 value=62 time=15\n",
      "note_on channel=0 note=53 velocity=0 time=2\n",
      "control_change channel=0 control=64 value=61 time=29\n",
      "control_change channel=0 control=64 value=59 time=14\n",
      "control_change channel=0 control=64 value=58 time=16\n",
      "control_change channel=0 control=64 value=56 time=15\n",
      "control_change channel=0 control=64 value=55 time=15\n",
      "control_change channel=0 control=64 value=54 time=15\n",
      "control_change channel=0 control=64 value=53 time=15\n",
      "note_on channel=0 note=58 velocity=0 time=4\n",
      "note_on channel=0 note=55 velocity=67 time=7\n",
      "control_change channel=0 control=64 value=51 time=5\n",
      "control_change channel=0 control=64 value=48 time=15\n",
      "control_change channel=0 control=64 value=44 time=15\n",
      "control_change channel=0 control=64 value=40 time=16\n",
      "control_change channel=0 control=64 value=34 time=15\n",
      "control_change channel=0 control=64 value=29 time=16\n",
      "control_change channel=0 control=64 value=21 time=15\n",
      "control_change channel=0 control=64 value=10 time=15\n",
      "control_change channel=0 control=64 value=0 time=16\n",
      "note_on channel=0 note=55 velocity=0 time=30\n",
      "note_on channel=0 note=57 velocity=65 time=9\n",
      "note_on channel=0 note=58 velocity=70 time=134\n",
      "note_on channel=0 note=60 velocity=0 time=7\n",
      "note_on channel=0 note=57 velocity=0 time=1\n",
      "note_on channel=0 note=52 velocity=0 time=114\n",
      "note_on channel=0 note=58 velocity=0 time=10\n",
      "note_on channel=0 note=53 velocity=56 time=23\n",
      "note_on channel=0 note=57 velocity=64 time=7\n",
      "note_on channel=0 note=60 velocity=72 time=147\n",
      "note_on channel=0 note=53 velocity=0 time=12\n",
      "note_on channel=0 note=62 velocity=77 time=148\n",
      "note_on channel=0 note=51 velocity=55 time=8\n",
      "note_on channel=0 note=60 velocity=0 time=31\n",
      "note_on channel=0 note=51 velocity=0 time=80\n",
      "note_on channel=0 note=63 velocity=77 time=25\n",
      "note_on channel=0 note=62 velocity=0 time=48\n",
      "note_on channel=0 note=50 velocity=43 time=120\n",
      "note_on channel=0 note=65 velocity=70 time=17\n",
      "note_on channel=0 note=57 velocity=0 time=11\n",
      "note_on channel=0 note=63 velocity=0 time=32\n",
      "note_on channel=0 note=57 velocity=40 time=107\n",
      "note_on channel=0 note=57 velocity=0 time=131\n",
      "note_on channel=0 note=59 velocity=43 time=42\n",
      "note_on channel=0 note=59 velocity=0 time=112\n",
      "note_on channel=0 note=60 velocity=46 time=39\n",
      "note_on channel=0 note=60 velocity=0 time=80\n",
      "note_on channel=0 note=65 velocity=0 time=61\n",
      "note_on channel=0 note=59 velocity=51 time=5\n",
      "note_on channel=0 note=63 velocity=62 time=150\n",
      "note_on channel=0 note=65 velocity=65 time=163\n",
      "note_on channel=0 note=67 velocity=71 time=173\n",
      "note_on channel=0 note=63 velocity=0 time=2\n",
      "note_on channel=0 note=65 velocity=0 time=36\n",
      "note_on channel=0 note=50 velocity=0 time=120\n",
      "note_on channel=0 note=68 velocity=73 time=14\n",
      "note_on channel=0 note=67 velocity=0 time=39\n",
      "note_on channel=0 note=59 velocity=0 time=87\n",
      "note_on channel=0 note=50 velocity=45 time=25\n",
      "note_on channel=0 note=50 velocity=0 time=149\n",
      "note_on channel=0 note=59 velocity=58 time=8\n",
      "note_on channel=0 note=51 velocity=59 time=6\n",
      "note_on channel=0 note=51 velocity=0 time=126\n",
      "note_on channel=0 note=53 velocity=66 time=19\n",
      "note_on channel=0 note=53 velocity=0 time=148\n",
      "note_on channel=0 note=59 velocity=0 time=10\n",
      "note_on channel=0 note=51 velocity=65 time=13\n",
      "note_on channel=0 note=60 velocity=70 time=4\n",
      "note_on channel=0 note=51 velocity=0 time=123\n",
      "note_on channel=0 note=50 velocity=63 time=22\n",
      "note_on channel=0 note=50 velocity=0 time=137\n",
      "note_on channel=0 note=48 velocity=57 time=23\n",
      "note_on channel=0 note=62 velocity=60 time=10\n",
      "note_on channel=0 note=60 velocity=0 time=15\n",
      "control_change channel=0 control=64 value=17 time=86\n",
      "control_change channel=0 control=64 value=40 time=16\n",
      "note_on channel=0 note=48 velocity=0 time=11\n",
      "control_change channel=0 control=64 value=52 time=4\n",
      "note_on channel=0 note=47 velocity=58 time=7\n",
      "control_change channel=0 control=64 value=57 time=7\n",
      "note_on channel=0 note=62 velocity=0 time=10\n",
      "control_change channel=0 control=64 value=60 time=6\n",
      "control_change channel=0 control=64 value=61 time=15\n",
      "control_change channel=0 control=64 value=62 time=15\n",
      "control_change channel=0 control=64 value=63 time=16\n",
      "control_change channel=0 control=64 value=64 time=14\n",
      "control_change channel=0 control=64 value=63 time=31\n",
      "note_on channel=0 note=68 velocity=0 time=7\n",
      "control_change channel=0 control=64 value=62 time=8\n",
      "control_change channel=0 control=64 value=52 time=16\n",
      "note_on channel=0 note=47 velocity=0 time=12\n",
      "control_change channel=0 control=64 value=0 time=3\n",
      "note_on channel=0 note=63 velocity=60 time=8\n",
      "note_on channel=0 note=48 velocity=52 time=11\n",
      "control_change channel=0 control=64 value=40 time=65\n",
      "control_change channel=0 control=64 value=58 time=16\n",
      "control_change channel=0 control=64 value=62 time=15\n",
      "control_change channel=0 control=64 value=64 time=15\n",
      "control_change channel=0 control=64 value=64 time=16\n",
      "control_change channel=0 control=64 value=64 time=27\n",
      "control_change channel=0 control=64 value=63 time=16\n",
      "note_on channel=0 note=48 velocity=0 time=0\n",
      "control_change channel=0 control=64 value=62 time=14\n",
      "note_on channel=0 note=47 velocity=64 time=3\n",
      "control_change channel=0 control=64 value=59 time=12\n",
      "control_change channel=0 control=64 value=57 time=16\n",
      "control_change channel=0 control=64 value=56 time=15\n",
      "control_change channel=0 control=64 value=56 time=31\n",
      "control_change channel=0 control=64 value=54 time=14\n",
      "control_change channel=0 control=64 value=52 time=16\n",
      "control_change channel=0 control=64 value=49 time=15\n",
      "control_change channel=0 control=64 value=47 time=15\n",
      "control_change channel=0 control=64 value=46 time=15\n",
      "note_on channel=0 note=48 velocity=72 time=4\n",
      "note_on channel=0 note=47 velocity=0 time=1\n",
      "note_on channel=0 note=67 velocity=76 time=7\n",
      "control_change channel=0 control=64 value=45 time=3\n",
      "control_change channel=0 control=64 value=43 time=16\n",
      "control_change channel=0 control=64 value=41 time=15\n",
      "control_change channel=0 control=64 value=38 time=15\n",
      "control_change channel=0 control=64 value=37 time=16\n",
      "control_change channel=0 control=64 value=36 time=15\n",
      "control_change channel=0 control=64 value=36 time=30\n",
      "note_on channel=0 note=48 velocity=0 time=32\n",
      "note_on channel=0 note=50 velocity=79 time=5\n",
      "control_change channel=0 control=64 value=36 time=9\n",
      "control_change channel=0 control=64 value=37 time=15\n",
      "control_change channel=0 control=64 value=37 time=30\n",
      "control_change channel=0 control=64 value=37 time=29\n",
      "note_on channel=0 note=50 velocity=0 time=77\n",
      "note_on channel=0 note=48 velocity=80 time=5\n",
      "note_on channel=0 note=68 velocity=84 time=1\n",
      "note_on channel=0 note=67 velocity=0 time=33\n",
      "note_on channel=0 note=46 velocity=76 time=133\n",
      "control_change channel=0 control=64 value=36 time=16\n",
      "note_on channel=0 note=48 velocity=0 time=4\n",
      "control_change channel=0 control=64 value=36 time=89\n",
      "control_change channel=0 control=64 value=35 time=15\n",
      "control_change channel=0 control=64 value=33 time=15\n",
      "note_on channel=0 note=70 velocity=85 time=8\n",
      "note_on channel=0 note=44 velocity=79 time=2\n",
      "note_on channel=0 note=46 velocity=0 time=4\n",
      "control_change channel=0 control=64 value=29 time=1\n",
      "control_change channel=0 control=64 value=24 time=15\n",
      "note_on channel=0 note=68 velocity=0 time=4\n",
      "control_change channel=0 control=64 value=21 time=12\n",
      "control_change channel=0 control=64 value=20 time=15\n",
      "control_change channel=0 control=64 value=15 time=14\n",
      "control_change channel=0 control=64 value=0 time=16\n",
      "note_on channel=0 note=43 velocity=82 time=68\n",
      "note_on channel=0 note=44 velocity=0 time=0\n",
      "note_on channel=0 note=48 velocity=78 time=185\n",
      "note_on channel=0 note=44 velocity=71 time=2\n",
      "note_on channel=0 note=72 velocity=84 time=0\n",
      "note_on channel=0 note=63 velocity=0 time=25\n",
      "note_on channel=0 note=43 velocity=0 time=6\n",
      "note_on channel=0 note=70 velocity=0 time=10\n",
      "note_on channel=0 note=63 velocity=73 time=115\n",
      "note_on channel=0 note=63 velocity=0 time=125\n",
      "note_on channel=0 note=65 velocity=73 time=49\n",
      "note_on channel=0 note=67 velocity=75 time=144\n",
      "note_on channel=0 note=65 velocity=0 time=30\n",
      "note_on channel=0 note=67 velocity=0 time=123\n",
      "note_on channel=0 note=53 velocity=88 time=9\n",
      "note_on channel=0 note=72 velocity=0 time=3\n",
      "note_on channel=0 note=65 velocity=75 time=9\n",
      "note_on channel=0 note=75 velocity=70 time=156\n",
      "note_on channel=0 note=65 velocity=0 time=40\n",
      "note_on channel=0 note=75 velocity=0 time=49\n",
      "note_on channel=0 note=48 velocity=0 time=16\n",
      "note_on channel=0 note=74 velocity=69 time=48\n",
      "note_on channel=0 note=74 velocity=0 time=116\n",
      "note_on channel=0 note=72 velocity=81 time=40\n",
      "note_on channel=0 note=44 velocity=0 time=46\n",
      "control_change channel=0 control=64 value=13 time=76\n",
      "control_change channel=0 control=64 value=38 time=15\n",
      "note_on channel=0 note=72 velocity=0 time=8\n",
      "control_change channel=0 control=64 value=48 time=8\n",
      "control_change channel=0 control=64 value=54 time=14\n",
      "note_on channel=0 note=71 velocity=78 time=6\n",
      "note_on channel=0 note=67 velocity=77 time=5\n",
      "control_change channel=0 control=64 value=58 time=4\n",
      "control_change channel=0 control=64 value=60 time=16\n",
      "control_change channel=0 control=64 value=62 time=14\n",
      "control_change channel=0 control=64 value=63 time=16\n",
      "control_change channel=0 control=64 value=64 time=15\n",
      "control_change channel=0 control=64 value=65 time=15\n",
      "control_change channel=0 control=64 value=65 time=16\n",
      "control_change channel=0 control=64 value=66 time=14\n",
      "control_change channel=0 control=64 value=66 time=15\n",
      "control_change channel=0 control=64 value=67 time=16\n",
      "note_on channel=0 note=43 velocity=73 time=10\n",
      "note_on channel=0 note=72 velocity=59 time=75\n",
      "control_change channel=0 control=64 value=66 time=21\n",
      "note_on channel=0 note=71 velocity=0 time=26\n",
      "note_on channel=0 note=72 velocity=0 time=6\n",
      "note_on channel=0 note=45 velocity=76 time=11\n",
      "note_on channel=0 note=53 velocity=0 time=15\n",
      "control_change channel=0 control=64 value=66 time=3\n",
      "note_on channel=0 note=72 velocity=69 time=13\n",
      "note_on channel=0 note=43 velocity=0 time=2\n",
      "control_change channel=0 control=64 value=65 time=61\n",
      "control_change channel=0 control=64 value=65 time=31\n",
      "note_on channel=0 note=47 velocity=76 time=20\n",
      "note_on channel=0 note=45 velocity=0 time=2\n",
      "control_change channel=0 control=64 value=64 time=7\n",
      "control_change channel=0 control=64 value=62 time=16\n",
      "note_on channel=0 note=74 velocity=85 time=6\n",
      "control_change channel=0 control=64 value=59 time=9\n",
      "note_on channel=0 note=72 velocity=0 time=20\n",
      "control_change channel=0 control=64 value=49 time=3\n",
      "control_change channel=0 control=64 value=0 time=15\n",
      "note_on channel=0 note=47 velocity=0 time=80\n",
      "note_on channel=0 note=48 velocity=70 time=16\n",
      "note_on channel=0 note=75 velocity=90 time=2\n",
      "note_on channel=0 note=51 velocity=80 time=3\n",
      "note_on channel=0 note=74 velocity=0 time=23\n",
      "control_change channel=0 control=64 value=15 time=28\n",
      "control_change channel=0 control=64 value=57 time=15\n",
      "control_change channel=0 control=64 value=64 time=17\n",
      "control_change channel=0 control=64 value=67 time=15\n",
      "note_on channel=0 note=75 velocity=0 time=10\n",
      "control_change channel=0 control=64 value=69 time=5\n",
      "control_change channel=0 control=64 value=72 time=16\n",
      "control_change channel=0 control=64 value=75 time=15\n",
      "note_on channel=0 note=74 velocity=85 time=12\n",
      "control_change channel=0 control=64 value=77 time=3\n",
      "control_change channel=0 control=64 value=78 time=15\n",
      "control_change channel=0 control=64 value=80 time=15\n",
      "control_change channel=0 control=64 value=80 time=16\n",
      "control_change channel=0 control=64 value=81 time=15\n",
      "control_change channel=0 control=64 value=82 time=16\n",
      "note_on channel=0 note=48 velocity=0 time=0\n",
      "control_change channel=0 control=64 value=83 time=15\n",
      "control_change channel=0 control=64 value=83 time=14\n",
      "note_on channel=0 note=51 velocity=0 time=0\n",
      "control_change channel=0 control=64 value=84 time=16\n",
      "control_change channel=0 control=64 value=84 time=15\n",
      "control_change channel=0 control=64 value=85 time=15\n",
      "note_on channel=0 note=72 velocity=80 time=1\n",
      "control_change channel=0 control=64 value=85 time=15\n",
      "note_on channel=0 note=74 velocity=0 time=2\n",
      "control_change channel=0 control=64 value=86 time=12\n",
      "note_on channel=0 note=67 velocity=0 time=0\n",
      "control_change channel=0 control=64 value=86 time=31\n",
      "note_on channel=0 note=72 velocity=0 time=19\n",
      "control_change channel=0 control=64 value=87 time=41\n",
      "note_on channel=0 note=70 velocity=83 time=18\n",
      "note_on channel=0 note=70 velocity=0 time=42\n",
      "note_on channel=0 note=56 velocity=92 time=105\n",
      "control_change channel=0 control=64 value=86 time=3\n",
      "note_on channel=0 note=68 velocity=86 time=7\n",
      "control_change channel=0 control=64 value=85 time=8\n",
      "control_change channel=0 control=64 value=83 time=14\n",
      "control_change channel=0 control=64 value=80 time=24\n",
      "control_change channel=0 control=64 value=75 time=15\n",
      "control_change channel=0 control=64 value=68 time=15\n",
      "control_change channel=0 control=64 value=50 time=15\n",
      "control_change channel=0 control=64 value=0 time=15\n",
      "note_on channel=0 note=68 velocity=0 time=19\n",
      "note_on channel=0 note=48 velocity=81 time=21\n",
      "note_on channel=0 note=67 velocity=82 time=6\n",
      "note_on channel=0 note=67 velocity=0 time=122\n",
      "note_on channel=0 note=48 velocity=0 time=1\n",
      "note_on channel=0 note=50 velocity=76 time=10\n",
      "note_on channel=0 note=65 velocity=85 time=10\n",
      "note_on channel=0 note=51 velocity=69 time=139\n",
      "note_on channel=0 note=50 velocity=0 time=1\n",
      "note_on channel=0 note=63 velocity=82 time=7\n",
      "note_on channel=0 note=65 velocity=0 time=1\n",
      "note_on channel=0 note=63 velocity=0 time=127\n",
      "note_on channel=0 note=51 velocity=0 time=3\n",
      "note_on channel=0 note=56 velocity=0 time=28\n",
      "note_on channel=0 note=62 velocity=88 time=4\n",
      "note_on channel=0 note=56 velocity=50 time=11\n",
      "note_on channel=0 note=53 velocity=78 time=4\n",
      "control_change channel=0 control=64 value=62 time=4\n",
      "control_change channel=0 control=64 value=70 time=15\n",
      "control_change channel=0 control=64 value=79 time=17\n",
      "control_change channel=0 control=64 value=86 time=16\n",
      "note_on channel=0 note=62 velocity=0 time=0\n",
      "control_change channel=0 control=64 value=92 time=15\n",
      "control_change channel=0 control=64 value=96 time=16\n",
      "note_on channel=0 note=53 velocity=0 time=6\n",
      "control_change channel=0 control=64 value=98 time=8\n",
      "control_change channel=0 control=64 value=100 time=15\n",
      "control_change channel=0 control=64 value=102 time=16\n",
      "control_change channel=0 control=64 value=103 time=15\n",
      "note_on channel=0 note=74 velocity=92 time=5\n",
      "control_change channel=0 control=64 value=104 time=10\n",
      "control_change channel=0 control=64 value=105 time=15\n",
      "control_change channel=0 control=64 value=106 time=23\n",
      "control_change channel=0 control=64 value=107 time=30\n",
      "note_on channel=0 note=74 velocity=0 time=70\n",
      "control_change channel=0 control=64 value=106 time=21\n",
      "control_change channel=0 control=64 value=100 time=16\n",
      "note_on channel=0 note=56 velocity=0 time=9\n",
      "note_on channel=0 note=56 velocity=28 time=0\n",
      "control_change channel=0 control=64 value=87 time=6\n",
      "note_on channel=0 note=75 velocity=95 time=5\n",
      "note_on channel=0 note=53 velocity=82 time=6\n",
      "control_change channel=0 control=64 value=68 time=5\n",
      "control_change channel=0 control=64 value=0 time=14\n",
      "control_change channel=0 control=64 value=63 time=60\n",
      "control_change channel=0 control=64 value=71 time=16\n",
      "control_change channel=0 control=64 value=80 time=15\n",
      "note_on channel=0 note=75 velocity=0 time=14\n",
      "control_change channel=0 control=64 value=87 time=2\n",
      "control_change channel=0 control=64 value=92 time=15\n",
      "note_on channel=0 note=53 velocity=0 time=1\n",
      "note_on channel=0 note=56 velocity=0 time=3\n",
      "control_change channel=0 control=64 value=95 time=11\n",
      "note_on channel=0 note=77 velocity=96 time=15\n",
      "control_change channel=0 control=64 value=98 time=1\n",
      "control_change channel=0 control=64 value=101 time=15\n",
      "control_change channel=0 control=64 value=105 time=16\n",
      "control_change channel=0 control=64 value=108 time=15\n",
      "note_on channel=0 note=77 velocity=0 time=6\n",
      "control_change channel=0 control=64 value=111 time=9\n",
      "control_change channel=0 control=64 value=114 time=15\n",
      "control_change channel=0 control=64 value=116 time=15\n",
      "control_change channel=0 control=64 value=117 time=15\n",
      "control_change channel=0 control=64 value=118 time=16\n",
      "control_change channel=0 control=64 value=117 time=106\n",
      "note_on channel=0 note=55 velocity=82 time=9\n",
      "note_on channel=0 note=53 velocity=76 time=3\n",
      "control_change channel=0 control=64 value=114 time=4\n",
      "control_change channel=0 control=64 value=107 time=15\n",
      "control_change channel=0 control=64 value=98 time=15\n",
      "note_on channel=0 note=71 velocity=90 time=5\n",
      "note_on channel=0 note=62 velocity=94 time=1\n",
      "control_change channel=0 control=64 value=87 time=9\n",
      "control_change channel=0 control=64 value=74 time=15\n",
      "control_change channel=0 control=64 value=0 time=15\n",
      "control_change channel=0 control=64 value=34 time=220\n",
      "control_change channel=0 control=64 value=58 time=16\n",
      "control_change channel=0 control=64 value=64 time=15\n",
      "note_on channel=0 note=72 velocity=87 time=13\n",
      "control_change channel=0 control=64 value=68 time=2\n",
      "control_change channel=0 control=64 value=73 time=16\n",
      "control_change channel=0 control=64 value=78 time=14\n",
      "note_on channel=0 note=71 velocity=0 time=3\n",
      "note_on channel=0 note=62 velocity=0 time=3\n",
      "control_change channel=0 control=64 value=81 time=9\n",
      "control_change channel=0 control=64 value=83 time=15\n",
      "control_change channel=0 control=64 value=84 time=15\n",
      "control_change channel=0 control=64 value=85 time=16\n",
      "note_on channel=0 note=72 velocity=0 time=8\n",
      "control_change channel=0 control=64 value=85 time=6\n",
      "control_change channel=0 control=64 value=87 time=15\n",
      "control_change channel=0 control=64 value=88 time=16\n",
      "note_on channel=0 note=74 velocity=86 time=10\n",
      "control_change channel=0 control=64 value=89 time=5\n",
      "control_change channel=0 control=64 value=90 time=16\n",
      "note_on channel=0 note=53 velocity=0 time=3\n",
      "control_change channel=0 control=64 value=90 time=12\n",
      "control_change channel=0 control=64 value=91 time=15\n",
      "control_change channel=0 control=64 value=91 time=46\n",
      "note_on channel=0 note=55 velocity=0 time=28\n",
      "control_change channel=0 control=64 value=91 time=18\n",
      "note_on channel=0 note=51 velocity=81 time=9\n",
      "control_change channel=0 control=64 value=90 time=6\n",
      "control_change channel=0 control=64 value=88 time=15\n",
      "note_on channel=0 note=72 velocity=88 time=3\n",
      "note_on channel=0 note=67 velocity=86 time=1\n",
      "control_change channel=0 control=64 value=82 time=12\n",
      "control_change channel=0 control=64 value=71 time=15\n",
      "note_on channel=0 note=74 velocity=0 time=6\n",
      "control_change channel=0 control=64 value=0 time=10\n",
      "note_on channel=0 note=67 velocity=0 time=86\n",
      "note_on channel=0 note=70 velocity=86 time=18\n",
      "control_change channel=0 control=64 value=55 time=32\n",
      "note_on channel=0 note=72 velocity=0 time=1\n",
      "control_change channel=0 control=64 value=68 time=14\n",
      "control_change channel=0 control=64 value=78 time=15\n",
      "control_change channel=0 control=64 value=88 time=15\n",
      "control_change channel=0 control=64 value=94 time=15\n",
      "control_change channel=0 control=64 value=98 time=15\n",
      "control_change channel=0 control=64 value=99 time=15\n",
      "note_on channel=0 note=51 velocity=0 time=3\n",
      "control_change channel=0 control=64 value=100 time=21\n",
      "note_on channel=0 note=68 velocity=92 time=12\n",
      "note_on channel=0 note=70 velocity=0 time=32\n",
      "note_on channel=0 note=68 velocity=0 time=53\n",
      "note_on channel=0 note=67 velocity=92 time=64\n",
      "note_on channel=0 note=56 velocity=85 time=116\n",
      "control_change channel=0 control=64 value=99 time=56\n",
      "control_change channel=0 control=64 value=99 time=31\n",
      "control_change channel=0 control=64 value=98 time=15\n",
      "control_change channel=0 control=64 value=97 time=15\n",
      "note_on channel=0 note=72 velocity=99 time=3\n",
      "control_change channel=0 control=64 value=95 time=12\n",
      "control_change channel=0 control=64 value=91 time=16\n",
      "note_on channel=0 note=67 velocity=0 time=11\n",
      "control_change channel=0 control=64 value=87 time=5\n",
      "control_change channel=0 control=64 value=82 time=15\n",
      "note_on channel=0 note=56 velocity=0 time=9\n",
      "control_change channel=0 control=64 value=75 time=7\n",
      "control_change channel=0 control=64 value=66 time=14\n",
      "control_change channel=0 control=64 value=0 time=15\n",
      "note_on channel=0 note=60 velocity=68 time=59\n",
      "note_on channel=0 note=61 velocity=79 time=152\n",
      "note_on channel=0 note=60 velocity=0 time=6\n",
      "control_change channel=0 control=64 value=41 time=49\n",
      "control_change channel=0 control=64 value=60 time=15\n",
      "control_change channel=0 control=64 value=65 time=16\n",
      "control_change channel=0 control=64 value=68 time=15\n",
      "control_change channel=0 control=64 value=71 time=16\n",
      "control_change channel=0 control=64 value=74 time=15\n",
      "control_change channel=0 control=64 value=77 time=15\n",
      "note_on channel=0 note=61 velocity=0 time=6\n",
      "note_on channel=0 note=63 velocity=80 time=0\n",
      "control_change channel=0 control=64 value=79 time=10\n",
      "control_change channel=0 control=64 value=81 time=14\n",
      "control_change channel=0 control=64 value=82 time=15\n",
      "control_change channel=0 control=64 value=82 time=16\n",
      "note_on channel=0 note=63 velocity=0 time=40\n",
      "note_on channel=0 note=61 velocity=73 time=61\n",
      "note_on channel=0 note=65 velocity=91 time=13\n",
      "note_on channel=0 note=61 velocity=0 time=109\n",
      "note_on channel=0 note=60 velocity=73 time=36\n",
      "note_on channel=0 note=65 velocity=0 time=6\n",
      "note_on channel=0 note=72 velocity=0 time=50\n",
      "note_on channel=0 note=60 velocity=0 time=76\n",
      "note_on channel=0 note=58 velocity=76 time=28\n",
      "note_on channel=0 note=56 velocity=77 time=135\n",
      "note_on channel=0 note=58 velocity=0 time=11\n",
      "control_change channel=0 control=64 value=82 time=81\n",
      "control_change channel=0 control=64 value=81 time=45\n",
      "note_on channel=0 note=56 velocity=0 time=12\n",
      "control_change channel=0 control=64 value=81 time=3\n",
      "control_change channel=0 control=64 value=80 time=16\n",
      "note_on channel=0 note=55 velocity=80 time=3\n",
      "note_on channel=0 note=70 velocity=98 time=5\n",
      "control_change channel=0 control=64 value=78 time=7\n",
      "control_change channel=0 control=64 value=74 time=16\n",
      "control_change channel=0 control=64 value=67 time=14\n",
      "control_change channel=0 control=64 value=55 time=15\n",
      "control_change channel=0 control=64 value=0 time=16\n",
      "note_on channel=0 note=55 velocity=0 time=83\n",
      "note_on channel=0 note=52 velocity=84 time=1\n",
      "note_on channel=0 note=53 velocity=84 time=170\n",
      "note_on channel=0 note=74 velocity=93 time=1\n",
      "note_on channel=0 note=52 velocity=0 time=4\n",
      "note_on channel=0 note=53 velocity=0 time=142\n",
      "note_on channel=0 note=55 velocity=81 time=7\n",
      "note_on channel=0 note=53 velocity=87 time=172\n",
      "note_on channel=0 note=55 velocity=0 time=2\n",
      "note_on channel=0 note=76 velocity=87 time=5\n",
      "note_on channel=0 note=74 velocity=0 time=27\n",
      "note_on channel=0 note=52 velocity=78 time=141\n",
      "note_on channel=0 note=53 velocity=0 time=29\n",
      "note_on channel=0 note=50 velocity=81 time=143\n",
      "note_on channel=0 note=52 velocity=0 time=6\n",
      "note_on channel=0 note=48 velocity=81 time=152\n",
      "note_on channel=0 note=50 velocity=0 time=8\n",
      "note_on channel=0 note=53 velocity=72 time=186\n",
      "note_on channel=0 note=77 velocity=83 time=17\n",
      "note_on channel=0 note=76 velocity=0 time=28\n",
      "note_on channel=0 note=48 velocity=0 time=15\n",
      "note_on channel=0 note=70 velocity=0 time=119\n",
      "note_on channel=0 note=72 velocity=79 time=38\n",
      "note_on channel=0 note=77 velocity=0 time=40\n",
      "note_on channel=0 note=73 velocity=84 time=115\n",
      "note_on channel=0 note=68 velocity=81 time=2\n",
      "note_on channel=0 note=72 velocity=0 time=8\n",
      "note_on channel=0 note=73 velocity=0 time=133\n",
      "note_on channel=0 note=75 velocity=86 time=0\n",
      "note_on channel=0 note=75 velocity=0 time=139\n",
      "note_on channel=0 note=73 velocity=80 time=14\n",
      "note_on channel=0 note=68 velocity=0 time=13\n",
      "note_on channel=0 note=53 velocity=0 time=133\n",
      "note_on channel=0 note=72 velocity=73 time=26\n",
      "note_on channel=0 note=56 velocity=55 time=13\n",
      "note_on channel=0 note=72 velocity=0 time=131\n",
      "note_on channel=0 note=56 velocity=0 time=9\n",
      "note_on channel=0 note=70 velocity=71 time=5\n",
      "note_on channel=0 note=58 velocity=67 time=13\n",
      "note_on channel=0 note=70 velocity=0 time=109\n",
      "note_on channel=0 note=58 velocity=0 time=28\n",
      "note_on channel=0 note=68 velocity=76 time=16\n",
      "note_on channel=0 note=60 velocity=62 time=3\n",
      "note_on channel=0 note=68 velocity=0 time=114\n",
      "note_on channel=0 note=60 velocity=0 time=21\n",
      "note_on channel=0 note=58 velocity=65 time=23\n",
      "note_on channel=0 note=67 velocity=71 time=0\n",
      "note_on channel=0 note=58 velocity=0 time=149\n",
      "note_on channel=0 note=56 velocity=66 time=12\n",
      "note_on channel=0 note=56 velocity=0 time=121\n",
      "note_on channel=0 note=55 velocity=63 time=46\n",
      "note_on channel=0 note=55 velocity=0 time=145\n",
      "note_on channel=0 note=53 velocity=64 time=11\n",
      "note_on channel=0 note=53 velocity=0 time=128\n",
      "note_on channel=0 note=73 velocity=0 time=22\n",
      "note_on channel=0 note=55 velocity=40 time=6\n",
      "note_on channel=0 note=51 velocity=60 time=2\n",
      "note_on channel=0 note=72 velocity=79 time=11\n",
      "control_change channel=0 control=64 value=50 time=12\n",
      "note_on channel=0 note=67 velocity=0 time=6\n",
      "control_change channel=0 control=64 value=63 time=10\n",
      "control_change channel=0 control=64 value=68 time=14\n",
      "control_change channel=0 control=64 value=72 time=16\n",
      "control_change channel=0 control=64 value=77 time=15\n",
      "control_change channel=0 control=64 value=81 time=15\n",
      "control_change channel=0 control=64 value=83 time=16\n",
      "control_change channel=0 control=64 value=85 time=14\n",
      "control_change channel=0 control=64 value=86 time=15\n",
      "note_on channel=0 note=51 velocity=0 time=0\n",
      "control_change channel=0 control=64 value=88 time=16\n",
      "note_on channel=0 note=48 velocity=72 time=5\n",
      "note_on channel=0 note=55 velocity=0 time=3\n",
      "control_change channel=0 control=64 value=89 time=7\n",
      "control_change channel=0 control=64 value=90 time=16\n",
      "control_change channel=0 control=64 value=91 time=15\n",
      "note_on channel=0 note=72 velocity=0 time=25\n",
      "note_on channel=0 note=48 velocity=0 time=65\n",
      "note_on channel=0 note=49 velocity=71 time=29\n",
      "note_on channel=0 note=51 velocity=77 time=157\n",
      "note_on channel=0 note=49 velocity=0 time=15\n",
      "control_change channel=0 control=64 value=90 time=127\n",
      "note_on channel=0 note=51 velocity=0 time=10\n",
      "control_change channel=0 control=64 value=88 time=6\n",
      "control_change channel=0 control=64 value=84 time=15\n",
      "note_on channel=0 note=49 velocity=71 time=0\n",
      "note_on channel=0 note=77 velocity=105 time=5\n",
      "control_change channel=0 control=64 value=79 time=11\n",
      "control_change channel=0 control=64 value=71 time=14\n",
      "control_change channel=0 control=64 value=57 time=15\n",
      "control_change channel=0 control=64 value=0 time=16\n",
      "note_on channel=0 note=48 velocity=71 time=115\n",
      "note_on channel=0 note=80 velocity=93 time=8\n",
      "note_on channel=0 note=48 velocity=0 time=137\n",
      "note_on channel=0 note=46 velocity=73 time=4\n",
      "note_on channel=0 note=82 velocity=90 time=6\n",
      "note_on channel=0 note=80 velocity=0 time=3\n",
      "note_on channel=0 note=49 velocity=0 time=57\n",
      "note_on channel=0 note=46 velocity=0 time=81\n",
      "note_on channel=0 note=44 velocity=73 time=4\n",
      "note_on channel=0 note=84 velocity=87 time=1\n",
      "note_on channel=0 note=82 velocity=0 time=21\n",
      "note_on channel=0 note=84 velocity=0 time=119\n",
      "note_on channel=0 note=44 velocity=0 time=13\n",
      "note_on channel=0 note=49 velocity=83 time=16\n",
      "note_on channel=0 note=82 velocity=89 time=2\n",
      "control_change channel=0 control=64 value=47 time=14\n",
      "control_change channel=0 control=64 value=66 time=14\n",
      "control_change channel=0 control=64 value=72 time=16\n",
      "control_change channel=0 control=64 value=79 time=15\n",
      "control_change channel=0 control=64 value=85 time=14\n",
      "control_change channel=0 control=64 value=89 time=16\n",
      "note_on channel=0 note=77 velocity=0 time=1\n",
      "control_change channel=0 control=64 value=91 time=14\n",
      "control_change channel=0 control=64 value=94 time=15\n",
      "control_change channel=0 control=64 value=96 time=16\n",
      "control_change channel=0 control=64 value=98 time=15\n",
      "note_on channel=0 note=80 velocity=89 time=9\n",
      "note_on channel=0 note=49 velocity=0 time=2\n",
      "control_change channel=0 control=64 value=100 time=5\n",
      "control_change channel=0 control=64 value=102 time=14\n",
      "control_change channel=0 control=64 value=103 time=15\n",
      "note_on channel=0 note=82 velocity=0 time=4\n",
      "control_change channel=0 control=64 value=104 time=12\n",
      "control_change channel=0 control=64 value=105 time=14\n",
      "control_change channel=0 control=64 value=105 time=15\n",
      "control_change channel=0 control=64 value=106 time=47\n",
      "note_on channel=0 note=49 velocity=95 time=33\n",
      "note_on channel=0 note=79 velocity=91 time=1\n",
      "note_on channel=0 note=80 velocity=0 time=33\n",
      "note_on channel=0 note=79 velocity=0 time=47\n",
      "note_on channel=0 note=77 velocity=79 time=61\n",
      "note_on channel=0 note=49 velocity=0 time=24\n",
      "note_on channel=0 note=77 velocity=0 time=119\n",
      "control_change channel=0 control=64 value=104 time=16\n",
      "note_on channel=0 note=49 velocity=92 time=18\n",
      "control_change channel=0 control=64 value=101 time=4\n",
      "note_on channel=0 note=80 velocity=91 time=4\n",
      "note_on channel=0 note=75 velocity=84 time=2\n",
      "control_change channel=0 control=64 value=94 time=9\n",
      "note_on channel=0 note=77 velocity=25 time=9\n",
      "control_change channel=0 control=64 value=84 time=6\n",
      "control_change channel=0 control=64 value=71 time=16\n",
      "note_on channel=0 note=77 velocity=0 time=13\n",
      "control_change channel=0 control=64 value=0 time=2\n",
      "note_on channel=0 note=80 velocity=0 time=61\n",
      "note_on channel=0 note=79 velocity=88 time=39\n",
      "note_on channel=0 note=75 velocity=0 time=50\n",
      "note_on channel=0 note=79 velocity=0 time=60\n",
      "note_on channel=0 note=77 velocity=88 time=43\n",
      "control_change channel=0 control=64 value=29 time=22\n",
      "control_change channel=0 control=64 value=59 time=15\n",
      "control_change channel=0 control=64 value=64 time=16\n",
      "control_change channel=0 control=64 value=67 time=14\n",
      "control_change channel=0 control=64 value=69 time=15\n",
      "control_change channel=0 control=64 value=71 time=16\n",
      "note_on channel=0 note=77 velocity=0 time=4\n",
      "control_change channel=0 control=64 value=74 time=11\n",
      "control_change channel=0 control=64 value=76 time=16\n",
      "control_change channel=0 control=64 value=79 time=15\n",
      "note_on channel=0 note=75 velocity=84 time=0\n",
      "control_change channel=0 control=64 value=80 time=15\n",
      "control_change channel=0 control=64 value=81 time=16\n",
      "control_change channel=0 control=64 value=81 time=14\n",
      "control_change channel=0 control=64 value=82 time=15\n",
      "control_change channel=0 control=64 value=83 time=16\n",
      "control_change channel=0 control=64 value=84 time=15\n",
      "control_change channel=0 control=64 value=84 time=15\n",
      "note_on channel=0 note=49 velocity=0 time=44\n",
      "note_on channel=0 note=48 velocity=73 time=21\n",
      "note_on channel=0 note=80 velocity=96 time=0\n",
      "control_change channel=0 control=64 value=81 time=11\n",
      "control_change channel=0 control=64 value=72 time=15\n",
      "control_change channel=0 control=64 value=51 time=15\n",
      "note_on channel=0 note=75 velocity=0 time=5\n",
      "control_change channel=0 control=64 value=0 time=11\n",
      "note_on channel=0 note=75 velocity=66 time=116\n",
      "note_on channel=0 note=77 velocity=71 time=149\n",
      "note_on channel=0 note=75 velocity=0 time=12\n",
      "note_on channel=0 note=78 velocity=72 time=131\n",
      "note_on channel=0 note=77 velocity=0 time=37\n",
      "note_on channel=0 note=78 velocity=0 time=66\n",
      "note_on channel=0 note=48 velocity=0 time=53\n",
      "note_on channel=0 note=49 velocity=58 time=11\n",
      "note_on channel=0 note=77 velocity=73 time=7\n",
      "control_change channel=0 control=64 value=21 time=19\n",
      "control_change channel=0 control=64 value=57 time=15\n",
      "control_change channel=0 control=64 value=64 time=15\n",
      "control_change channel=0 control=64 value=68 time=15\n",
      "control_change channel=0 control=64 value=73 time=15\n",
      "control_change channel=0 control=64 value=78 time=16\n",
      "control_change channel=0 control=64 value=82 time=15\n",
      "control_change channel=0 control=64 value=84 time=15\n",
      "control_change channel=0 control=64 value=86 time=15\n",
      "note_on channel=0 note=75 velocity=72 time=13\n",
      "control_change channel=0 control=64 value=87 time=2\n",
      "control_change channel=0 control=64 value=90 time=15\n",
      "control_change channel=0 control=64 value=92 time=16\n",
      "control_change channel=0 control=64 value=93 time=15\n",
      "control_change channel=0 control=64 value=95 time=15\n",
      "control_change channel=0 control=64 value=96 time=15\n",
      "note_on channel=0 note=49 velocity=0 time=7\n",
      "control_change channel=0 control=64 value=96 time=8\n",
      "control_change channel=0 control=64 value=97 time=23\n",
      "control_change channel=0 control=64 value=97 time=28\n",
      "note_on channel=0 note=73 velocity=71 time=13\n",
      "control_change channel=0 control=64 value=98 time=18\n",
      "note_on channel=0 note=77 velocity=0 time=11\n",
      "note_on channel=0 note=80 velocity=0 time=27\n",
      "control_change channel=0 control=64 value=98 time=38\n",
      "note_on channel=0 note=75 velocity=0 time=8\n",
      "note_on channel=0 note=73 velocity=0 time=20\n",
      "note_on channel=0 note=72 velocity=69 time=24\n",
      "control_change channel=0 control=64 value=97 time=131\n",
      "control_change channel=0 control=64 value=93 time=15\n",
      "control_change channel=0 control=64 value=84 time=15\n",
      "note_on channel=0 note=51 velocity=64 time=9\n",
      "note_on channel=0 note=79 velocity=80 time=4\n",
      "note_on channel=0 note=70 velocity=70 time=1\n",
      "control_change channel=0 control=64 value=71 time=2\n",
      "control_change channel=0 control=64 value=20 time=14\n",
      "note_on channel=0 note=72 velocity=0 time=13\n",
      "control_change channel=0 control=64 value=0 time=3\n",
      "control_change channel=0 control=64 value=28 time=46\n",
      "control_change channel=0 control=64 value=63 time=14\n",
      "control_change channel=0 control=64 value=69 time=16\n",
      "control_change channel=0 control=64 value=75 time=15\n",
      "control_change channel=0 control=64 value=81 time=15\n",
      "control_change channel=0 control=64 value=85 time=15\n",
      "note_on channel=0 note=58 velocity=78 time=0\n",
      "note_on channel=0 note=51 velocity=0 time=12\n",
      "control_change channel=0 control=64 value=88 time=3\n",
      "note_on channel=0 note=79 velocity=0 time=11\n",
      "control_change channel=0 control=64 value=90 time=4\n",
      "control_change channel=0 control=64 value=92 time=16\n",
      "note_on channel=0 note=70 velocity=0 time=4\n",
      "control_change channel=0 control=64 value=95 time=11\n",
      "control_change channel=0 control=64 value=98 time=15\n",
      "control_change channel=0 control=64 value=101 time=15\n",
      "control_change channel=0 control=64 value=104 time=15\n",
      "control_change channel=0 control=64 value=106 time=16\n",
      "control_change channel=0 control=64 value=107 time=15\n",
      "note_on channel=0 note=58 velocity=0 time=9\n",
      "control_change channel=0 control=64 value=108 time=6\n",
      "note_on channel=0 note=60 velocity=84 time=7\n",
      "control_change channel=0 control=64 value=109 time=9\n",
      "control_change channel=0 control=64 value=110 time=15\n",
      "control_change channel=0 control=64 value=111 time=15\n",
      "control_change channel=0 control=64 value=112 time=15\n",
      "control_change channel=0 control=64 value=113 time=15\n",
      "control_change channel=0 control=64 value=113 time=23\n",
      "control_change channel=0 control=64 value=114 time=15\n",
      "control_change channel=0 control=64 value=115 time=15\n",
      "note_on channel=0 note=60 velocity=0 time=4\n",
      "control_change channel=0 control=64 value=115 time=11\n",
      "note_on channel=0 note=61 velocity=84 time=14\n",
      "control_change channel=0 control=64 value=116 time=32\n",
      "control_change channel=0 control=64 value=116 time=16\n",
      "control_change channel=0 control=64 value=115 time=60\n",
      "note_on channel=0 note=61 velocity=0 time=0\n",
      "control_change channel=0 control=64 value=112 time=15\n",
      "control_change channel=0 control=64 value=105 time=16\n",
      "control_change channel=0 control=64 value=89 time=15\n",
      "note_on channel=0 note=60 velocity=79 time=3\n",
      "note_on channel=0 note=80 velocity=93 time=0\n",
      "note_on channel=0 note=56 velocity=79 time=2\n",
      "control_change channel=0 control=64 value=69 time=11\n",
      "control_change channel=0 control=64 value=0 time=15\n",
      "control_change channel=0 control=64 value=32 time=76\n",
      "control_change channel=0 control=64 value=64 time=15\n",
      "control_change channel=0 control=64 value=71 time=16\n",
      "control_change channel=0 control=64 value=81 time=15\n",
      "note_on channel=0 note=70 velocity=89 time=3\n",
      "control_change channel=0 control=64 value=91 time=11\n",
      "control_change channel=0 control=64 value=99 time=16\n",
      "note_on channel=0 note=80 velocity=0 time=5\n",
      "control_change channel=0 control=64 value=106 time=10\n",
      "control_change channel=0 control=64 value=109 time=16\n",
      "control_change channel=0 control=64 value=111 time=15\n",
      "control_change channel=0 control=64 value=114 time=14\n",
      "control_change channel=0 control=64 value=118 time=16\n",
      "control_change channel=0 control=64 value=122 time=15\n",
      "control_change channel=0 control=64 value=127 time=14\n",
      "note_on channel=0 note=72 velocity=88 time=22\n",
      "note_on channel=0 note=75 velocity=87 time=0\n",
      "note_on channel=0 note=60 velocity=0 time=10\n",
      "note_on channel=0 note=70 velocity=0 time=19\n",
      "note_on channel=0 note=56 velocity=0 time=24\n",
      "note_on channel=0 note=72 velocity=0 time=35\n",
      "note_on channel=0 note=75 velocity=0 time=10\n",
      "note_on channel=0 note=73 velocity=86 time=43\n",
      "note_on channel=0 note=73 velocity=0 time=103\n",
      "note_on channel=0 note=53 velocity=80 time=39\n",
      "control_change channel=0 control=64 value=108 time=68\n",
      "note_on channel=0 note=80 velocity=97 time=13\n",
      "control_change channel=0 control=64 value=88 time=2\n",
      "note_on channel=0 note=72 velocity=96 time=3\n",
      "control_change channel=0 control=64 value=61 time=13\n",
      "control_change channel=0 control=64 value=0 time=15\n",
      "control_change channel=0 control=64 value=49 time=60\n",
      "control_change channel=0 control=64 value=65 time=16\n",
      "note_on channel=0 note=53 velocity=0 time=3\n",
      "control_change channel=0 control=64 value=72 time=12\n",
      "control_change channel=0 control=64 value=81 time=16\n",
      "note_on channel=0 note=70 velocity=85 time=13\n",
      "control_change channel=0 control=64 value=91 time=2\n",
      "control_change channel=0 control=64 value=98 time=15\n",
      "control_change channel=0 control=64 value=103 time=16\n",
      "control_change channel=0 control=64 value=105 time=15\n",
      "control_change channel=0 control=64 value=108 time=16\n",
      "control_change channel=0 control=64 value=109 time=14\n",
      "control_change channel=0 control=64 value=111 time=15\n",
      "control_change channel=0 control=64 value=112 time=16\n",
      "control_change channel=0 control=64 value=113 time=30\n",
      "note_on channel=0 note=68 velocity=88 time=18\n",
      "note_on channel=0 note=68 velocity=0 time=57\n",
      "note_on channel=0 note=67 velocity=76 time=81\n",
      "note_on channel=0 note=67 velocity=0 time=82\n",
      "control_change channel=0 control=64 value=107 time=35\n",
      "control_change channel=0 control=64 value=93 time=16\n",
      "control_change channel=0 control=64 value=68 time=15\n",
      "control_change channel=0 control=64 value=0 time=15\n",
      "note_on channel=0 note=58 velocity=65 time=2\n",
      "note_on channel=0 note=65 velocity=79 time=4\n",
      "control_change channel=0 control=64 value=63 time=62\n",
      "control_change channel=0 control=64 value=71 time=15\n",
      "control_change channel=0 control=64 value=82 time=16\n",
      "control_change channel=0 control=64 value=91 time=15\n",
      "note_on channel=0 note=72 velocity=0 time=2\n",
      "note_on channel=0 note=70 velocity=0 time=12\n",
      "control_change channel=0 control=64 value=96 time=2\n",
      "note_on channel=0 note=80 velocity=0 time=7\n",
      "control_change channel=0 control=64 value=100 time=7\n",
      "note_on channel=0 note=62 velocity=78 time=14\n",
      "control_change channel=0 control=64 value=102 time=1\n",
      "note_on channel=0 note=58 velocity=0 time=9\n",
      "note_on channel=0 note=65 velocity=0 time=3\n",
      "control_change channel=0 control=64 value=104 time=4\n",
      "control_change channel=0 control=64 value=107 time=15\n",
      "control_change channel=0 control=64 value=109 time=16\n",
      "control_change channel=0 control=64 value=112 time=14\n",
      "control_change channel=0 control=64 value=114 time=15\n",
      "control_change channel=0 control=64 value=116 time=16\n",
      "control_change channel=0 control=64 value=116 time=14\n",
      "control_change channel=0 control=64 value=117 time=15\n",
      "note_on channel=0 note=63 velocity=80 time=21\n",
      "note_on channel=0 note=62 velocity=0 time=1\n",
      "note_on channel=0 note=67 velocity=86 time=8\n",
      "control_change channel=0 control=64 value=117 time=1\n",
      "control_change channel=0 control=64 value=118 time=16\n",
      "control_change channel=0 control=64 value=118 time=15\n",
      "note_on channel=0 note=67 velocity=0 time=46\n",
      "control_change channel=0 control=64 value=119 time=15\n",
      "note_on channel=0 note=65 velocity=84 time=39\n",
      "note_on channel=0 note=68 velocity=90 time=16\n",
      "note_on channel=0 note=63 velocity=0 time=12\n",
      "control_change channel=0 control=64 value=119 time=25\n",
      "note_on channel=0 note=68 velocity=0 time=24\n",
      "control_change channel=0 control=64 value=115 time=82\n",
      "control_change channel=0 control=64 value=101 time=16\n",
      "note_on channel=0 note=63 velocity=82 time=5\n",
      "note_on channel=0 note=79 velocity=93 time=9\n",
      "control_change channel=0 control=64 value=81 time=1\n",
      "note_on channel=0 note=70 velocity=95 time=1\n",
      "control_change channel=0 control=64 value=40 time=14\n",
      "note_on channel=0 note=65 velocity=0 time=3\n",
      "control_change channel=0 control=64 value=0 time=12\n",
      "control_change channel=0 control=64 value=51 time=45\n",
      "control_change channel=0 control=64 value=66 time=15\n",
      "control_change channel=0 control=64 value=75 time=16\n",
      "control_change channel=0 control=64 value=88 time=15\n",
      "control_change channel=0 control=64 value=101 time=15\n",
      "note_on channel=0 note=70 velocity=0 time=1\n",
      "control_change channel=0 control=64 value=111 time=14\n",
      "note_on channel=0 note=68 velocity=81 time=19\n",
      "control_change channel=0 control=64 value=115 time=5\n",
      "control_change channel=0 control=64 value=117 time=15\n",
      "control_change channel=0 control=64 value=118 time=15\n",
      "control_change channel=0 control=64 value=120 time=15\n",
      "control_change channel=0 control=64 value=122 time=15\n",
      "control_change channel=0 control=64 value=123 time=15\n",
      "control_change channel=0 control=64 value=125 time=16\n",
      "note_on channel=0 note=68 velocity=0 time=8\n",
      "note_on channel=0 note=79 velocity=0 time=0\n",
      "control_change channel=0 control=64 value=125 time=22\n",
      "note_on channel=0 note=63 velocity=0 time=16\n",
      "note_on channel=0 note=67 velocity=80 time=17\n",
      "note_on channel=0 note=67 velocity=0 time=135\n",
      "control_change channel=0 control=64 value=125 time=13\n",
      "note_on channel=0 note=65 velocity=81 time=7\n",
      "control_change channel=0 control=64 value=123 time=146\n",
      "control_change channel=0 control=64 value=115 time=15\n",
      "control_change channel=0 control=64 value=102 time=16\n",
      "note_on channel=0 note=84 velocity=107 time=1\n",
      "note_on channel=0 note=63 velocity=77 time=6\n",
      "control_change channel=0 control=64 value=87 time=8\n",
      "note_on channel=0 note=65 velocity=0 time=10\n",
      "control_change channel=0 control=64 value=71 time=5\n",
      "control_change channel=0 control=64 value=0 time=16\n",
      "control_change channel=0 control=64 value=43 time=76\n",
      "control_change channel=0 control=64 value=58 time=15\n",
      "note_on channel=0 note=63 velocity=0 time=11\n",
      "control_change channel=0 control=64 value=62 time=5\n",
      "note_on channel=0 note=60 velocity=73 time=5\n",
      "control_change channel=0 control=64 value=65 time=9\n",
      "control_change channel=0 control=64 value=68 time=15\n",
      "control_change channel=0 control=64 value=71 time=16\n",
      "control_change channel=0 control=64 value=74 time=15\n",
      "control_change channel=0 control=64 value=76 time=15\n",
      "control_change channel=0 control=64 value=77 time=15\n",
      "note_on channel=0 note=60 velocity=0 time=67\n",
      "control_change channel=0 control=64 value=78 time=1\n",
      "note_on channel=0 note=65 velocity=75 time=5\n",
      "note_on channel=0 note=61 velocity=69 time=6\n",
      "note_on channel=0 note=65 velocity=0 time=79\n",
      "control_change channel=0 control=64 value=78 time=2\n",
      "control_change channel=0 control=64 value=79 time=46\n",
      "note_on channel=0 note=63 velocity=76 time=8\n",
      "note_on channel=0 note=67 velocity=66 time=1\n",
      "control_change channel=0 control=64 value=80 time=5\n",
      "control_change channel=0 control=64 value=81 time=16\n",
      "note_on channel=0 note=67 velocity=0 time=10\n",
      "control_change channel=0 control=64 value=81 time=5\n",
      "control_change channel=0 control=64 value=82 time=15\n",
      "note_on channel=0 note=61 velocity=0 time=7\n",
      "note_on channel=0 note=63 velocity=0 time=4\n",
      "control_change channel=0 control=64 value=82 time=19\n",
      "control_change channel=0 control=64 value=82 time=45\n",
      "control_change channel=0 control=64 value=76 time=16\n",
      "control_change channel=0 control=64 value=63 time=15\n",
      "note_on channel=0 note=61 velocity=76 time=4\n",
      "note_on channel=0 note=68 velocity=84 time=1\n",
      "control_change channel=0 control=64 value=0 time=10\n",
      "control_change channel=0 control=64 value=60 time=76\n",
      "control_change channel=0 control=64 value=67 time=17\n",
      "control_change channel=0 control=64 value=71 time=15\n",
      "control_change channel=0 control=64 value=77 time=16\n",
      "control_change channel=0 control=64 value=82 time=14\n",
      "note_on channel=0 note=60 velocity=71 time=6\n",
      "note_on channel=0 note=61 velocity=0 time=1\n",
      "note_on channel=0 note=68 velocity=0 time=6\n",
      "control_change channel=0 control=64 value=83 time=2\n",
      "control_change channel=0 control=64 value=84 time=30\n",
      "control_change channel=0 control=64 value=84 time=15\n",
      "control_change channel=0 control=64 value=85 time=16\n",
      "control_change channel=0 control=64 value=86 time=15\n",
      "control_change channel=0 control=64 value=86 time=16\n",
      "control_change channel=0 control=64 value=87 time=14\n",
      "note_on channel=0 note=60 velocity=0 time=21\n",
      "note_on channel=0 note=68 velocity=76 time=9\n",
      "control_change channel=0 control=64 value=87 time=1\n",
      "note_on channel=0 note=58 velocity=71 time=4\n",
      "note_on channel=0 note=56 velocity=55 time=163\n",
      "note_on channel=0 note=56 velocity=0 time=24\n",
      "note_on channel=0 note=58 velocity=0 time=5\n",
      "note_on channel=0 note=68 velocity=0 time=39\n",
      "note_on channel=0 note=63 velocity=67 time=102\n",
      "note_on channel=0 note=84 velocity=0 time=11\n",
      "note_on channel=0 note=68 velocity=66 time=2\n",
      "note_on channel=0 note=82 velocity=92 time=41\n",
      "control_change channel=0 control=64 value=86 time=25\n",
      "control_change channel=0 control=64 value=84 time=15\n",
      "control_change channel=0 control=64 value=79 time=16\n",
      "control_change channel=0 control=64 value=73 time=14\n",
      "control_change channel=0 control=64 value=64 time=16\n",
      "control_change channel=0 control=64 value=0 time=15\n",
      "note_on channel=0 note=68 velocity=0 time=43\n",
      "note_on channel=0 note=67 velocity=66 time=6\n",
      "note_on channel=0 note=67 velocity=0 time=168\n",
      "note_on channel=0 note=68 velocity=70 time=7\n",
      "note_on channel=0 note=68 velocity=0 time=131\n",
      "note_on channel=0 note=70 velocity=68 time=16\n",
      "note_on channel=0 note=70 velocity=0 time=106\n",
      "note_on channel=0 note=72 velocity=62 time=96\n",
      "note_on channel=0 note=82 velocity=0 time=97\n",
      "note_on channel=0 note=82 velocity=63 time=66\n",
      "note_on channel=0 note=80 velocity=73 time=160\n",
      "note_on channel=0 note=82 velocity=0 time=35\n",
      "note_on channel=0 note=79 velocity=78 time=123\n",
      "note_on channel=0 note=80 velocity=0 time=74\n",
      "note_on channel=0 note=63 velocity=0 time=55\n",
      "note_on channel=0 note=62 velocity=49 time=58\n",
      "note_on channel=0 note=77 velocity=70 time=4\n",
      "note_on channel=0 note=79 velocity=0 time=81\n",
      "note_on channel=0 note=72 velocity=0 time=36\n",
      "note_on channel=0 note=79 velocity=66 time=215\n",
      "note_on channel=0 note=77 velocity=0 time=25\n",
      "note_on channel=0 note=80 velocity=72 time=126\n",
      "note_on channel=0 note=79 velocity=0 time=7\n",
      "note_on channel=0 note=70 velocity=58 time=163\n",
      "note_on channel=0 note=79 velocity=67 time=0\n",
      "note_on channel=0 note=80 velocity=0 time=11\n",
      "note_on channel=0 note=79 velocity=0 time=106\n",
      "note_on channel=0 note=77 velocity=66 time=49\n",
      "note_on channel=0 note=77 velocity=0 time=109\n",
      "note_on channel=0 note=75 velocity=63 time=40\n",
      "note_on channel=0 note=62 velocity=0 time=88\n",
      "note_on channel=0 note=75 velocity=0 time=13\n",
      "note_on channel=0 note=74 velocity=62 time=45\n",
      "note_on channel=0 note=74 velocity=0 time=169\n",
      "note_on channel=0 note=75 velocity=64 time=1\n",
      "note_on channel=0 note=70 velocity=0 time=75\n",
      "note_on channel=0 note=60 velocity=52 time=81\n",
      "note_on channel=0 note=60 velocity=0 time=112\n",
      "note_on channel=0 note=77 velocity=61 time=39\n",
      "note_on channel=0 note=61 velocity=51 time=10\n",
      "note_on channel=0 note=61 velocity=0 time=117\n",
      "note_on channel=0 note=63 velocity=60 time=21\n",
      "note_on channel=0 note=79 velocity=66 time=12\n",
      "note_on channel=0 note=77 velocity=0 time=7\n",
      "note_on channel=0 note=63 velocity=0 time=138\n",
      "note_on channel=0 note=61 velocity=58 time=17\n",
      "note_on channel=0 note=80 velocity=71 time=6\n",
      "note_on channel=0 note=79 velocity=0 time=4\n",
      "note_on channel=0 note=61 velocity=0 time=111\n",
      "note_on channel=0 note=60 velocity=59 time=33\n",
      "note_on channel=0 note=80 velocity=0 time=5\n",
      "note_on channel=0 note=60 velocity=0 time=140\n",
      "note_on channel=0 note=58 velocity=59 time=28\n",
      "note_on channel=0 note=80 velocity=52 time=2\n",
      "note_on channel=0 note=58 velocity=0 time=139\n",
      "note_on channel=0 note=56 velocity=59 time=15\n",
      "note_on channel=0 note=56 velocity=0 time=73\n",
      "note_on channel=0 note=80 velocity=0 time=5\n",
      "note_on channel=0 note=74 velocity=48 time=91\n",
      "note_on channel=0 note=58 velocity=38 time=5\n",
      "note_on channel=0 note=75 velocity=0 time=6\n",
      "note_on channel=0 note=46 velocity=40 time=24\n",
      "note_on channel=0 note=79 velocity=58 time=132\n",
      "note_on channel=0 note=80 velocity=62 time=158\n",
      "note_on channel=0 note=79 velocity=0 time=7\n",
      "note_on channel=0 note=74 velocity=0 time=135\n",
      "note_on channel=0 note=82 velocity=52 time=19\n",
      "note_on channel=0 note=80 velocity=0 time=17\n",
      "note_on channel=0 note=80 velocity=56 time=136\n",
      "note_on channel=0 note=51 velocity=29 time=12\n",
      "note_on channel=0 note=75 velocity=45 time=12\n",
      "note_on channel=0 note=82 velocity=0 time=9\n",
      "note_on channel=0 note=46 velocity=0 time=37\n",
      "note_on channel=0 note=75 velocity=0 time=88\n",
      "note_on channel=0 note=79 velocity=59 time=6\n",
      "note_on channel=0 note=58 velocity=0 time=9\n",
      "note_on channel=0 note=80 velocity=0 time=77\n",
      "control_change channel=0 control=64 value=21 time=2\n",
      "control_change channel=0 control=64 value=41 time=15\n",
      "control_change channel=0 control=64 value=52 time=14\n",
      "control_change channel=0 control=64 value=61 time=16\n",
      "control_change channel=0 control=64 value=64 time=15\n",
      "control_change channel=0 control=64 value=65 time=15\n",
      "note_on channel=0 note=77 velocity=61 time=12\n",
      "note_on channel=0 note=79 velocity=0 time=0\n",
      "control_change channel=0 control=64 value=67 time=4\n",
      "control_change channel=0 control=64 value=68 time=14\n",
      "control_change channel=0 control=64 value=70 time=16\n",
      "control_change channel=0 control=64 value=72 time=15\n",
      "control_change channel=0 control=64 value=73 time=15\n",
      "control_change channel=0 control=64 value=74 time=16\n",
      "control_change channel=0 control=64 value=75 time=15\n",
      "control_change channel=0 control=64 value=75 time=15\n",
      "note_on channel=0 note=77 velocity=0 time=7\n",
      "control_change channel=0 control=64 value=76 time=8\n",
      "control_change channel=0 control=64 value=76 time=15\n",
      "control_change channel=0 control=64 value=77 time=16\n",
      "note_on channel=0 note=75 velocity=60 time=1\n",
      "control_change channel=0 control=64 value=77 time=29\n",
      "note_on channel=0 note=75 velocity=0 time=79\n",
      "control_change channel=0 control=64 value=77 time=81\n",
      "note_on channel=0 note=56 velocity=29 time=12\n",
      "control_change channel=0 control=64 value=76 time=18\n",
      "control_change channel=0 control=64 value=75 time=15\n",
      "control_change channel=0 control=64 value=74 time=16\n",
      "control_change channel=0 control=64 value=73 time=15\n",
      "note_on channel=0 note=72 velocity=42 time=2\n",
      "note_on channel=0 note=77 velocity=43 time=2\n",
      "control_change channel=0 control=64 value=70 time=12\n",
      "control_change channel=0 control=64 value=66 time=14\n",
      "control_change channel=0 control=64 value=61 time=15\n",
      "control_change channel=0 control=64 value=46 time=16\n",
      "control_change channel=0 control=64 value=0 time=15\n",
      "note_on channel=0 note=79 velocity=51 time=261\n",
      "note_on channel=0 note=77 velocity=0 time=23\n",
      "control_change channel=0 control=67 value=20 time=51\n",
      "control_change channel=0 control=67 value=36 time=15\n",
      "control_change channel=0 control=67 value=58 time=14\n",
      "control_change channel=0 control=67 value=77 time=16\n",
      "control_change channel=0 control=67 value=95 time=15\n",
      "control_change channel=0 control=67 value=112 time=15\n",
      "note_on channel=0 note=80 velocity=64 time=8\n",
      "control_change channel=0 control=67 value=126 time=7\n",
      "note_on channel=0 note=79 velocity=0 time=1\n",
      "control_change channel=0 control=67 value=127 time=14\n",
      "note_on channel=0 note=51 velocity=0 time=105\n",
      "note_on channel=0 note=82 velocity=67 time=56\n",
      "note_on channel=0 note=72 velocity=0 time=10\n",
      "note_on channel=0 note=50 velocity=17 time=4\n",
      "note_on channel=0 note=80 velocity=0 time=7\n",
      "note_on channel=0 note=56 velocity=0 time=97\n",
      "note_on channel=0 note=53 velocity=48 time=47\n",
      "note_on channel=0 note=80 velocity=70 time=2\n",
      "note_on channel=0 note=82 velocity=0 time=49\n",
      "note_on channel=0 note=53 velocity=0 time=76\n",
      "note_on channel=0 note=55 velocity=55 time=26\n",
      "note_on channel=0 note=79 velocity=72 time=5\n",
      "note_on channel=0 note=80 velocity=0 time=5\n",
      "control_change channel=0 control=64 value=34 time=53\n",
      "control_change channel=0 control=64 value=50 time=15\n",
      "control_change channel=0 control=64 value=58 time=14\n",
      "control_change channel=0 control=64 value=63 time=16\n",
      "note_on channel=0 note=79 velocity=0 time=4\n",
      "note_on channel=0 note=50 velocity=0 time=7\n",
      "control_change channel=0 control=64 value=65 time=4\n",
      "note_on channel=0 note=55 velocity=0 time=0\n",
      "control_change channel=0 control=64 value=68 time=15\n",
      "note_on channel=0 note=77 velocity=67 time=9\n",
      "control_change channel=0 control=64 value=71 time=6\n",
      "note_on channel=0 note=56 velocity=53 time=8\n",
      "control_change channel=0 control=64 value=74 time=7\n",
      "note_on channel=0 note=77 velocity=0 time=11\n",
      "control_change channel=0 control=64 value=76 time=5\n",
      "control_change channel=0 control=64 value=77 time=15\n",
      "control_change channel=0 control=64 value=76 time=45\n",
      "note_on channel=0 note=56 velocity=0 time=10\n",
      "control_change channel=0 control=64 value=75 time=6\n",
      "control_change channel=0 control=64 value=74 time=15\n",
      "control_change channel=0 control=64 value=70 time=14\n",
      "control_change channel=0 control=64 value=65 time=16\n",
      "control_change channel=0 control=64 value=58 time=15\n",
      "note_on channel=0 note=58 velocity=46 time=0\n",
      "note_on channel=0 note=75 velocity=62 time=6\n",
      "control_change channel=0 control=64 value=42 time=17\n",
      "note_on channel=0 note=55 velocity=28 time=7\n",
      "control_change channel=0 control=64 value=18 time=8\n",
      "control_change channel=0 control=64 value=0 time=15\n",
      "note_on channel=0 note=75 velocity=0 time=124\n",
      "note_on channel=0 note=74 velocity=61 time=2\n",
      "note_on channel=0 note=74 velocity=0 time=148\n",
      "note_on channel=0 note=72 velocity=60 time=18\n",
      "note_on channel=0 note=72 velocity=0 time=139\n",
      "note_on channel=0 note=70 velocity=57 time=21\n",
      "note_on channel=0 note=70 velocity=0 time=145\n",
      "note_on channel=0 note=58 velocity=0 time=16\n",
      "note_on channel=0 note=75 velocity=54 time=2\n",
      "control_change channel=0 control=64 value=37 time=56\n",
      "control_change channel=0 control=64 value=46 time=15\n",
      "control_change channel=0 control=64 value=51 time=15\n",
      "control_change channel=0 control=64 value=54 time=15\n",
      "control_change channel=0 control=64 value=56 time=22\n",
      "control_change channel=0 control=64 value=57 time=15\n",
      "note_on channel=0 note=75 velocity=0 time=6\n",
      "note_on channel=0 note=67 velocity=46 time=7\n",
      "control_change channel=0 control=64 value=58 time=3\n",
      "note_on channel=0 note=58 velocity=43 time=2\n",
      "control_change channel=0 control=64 value=57 time=44\n",
      "control_change channel=0 control=64 value=57 time=61\n",
      "control_change channel=0 control=64 value=56 time=15\n",
      "control_change channel=0 control=64 value=54 time=15\n",
      "note_on channel=0 note=58 velocity=0 time=5\n",
      "control_change channel=0 control=64 value=52 time=10\n",
      "note_on channel=0 note=67 velocity=0 time=12\n",
      "control_change channel=0 control=64 value=48 time=4\n",
      "note_on channel=0 note=60 velocity=47 time=9\n",
      "note_on channel=0 note=75 velocity=48 time=0\n",
      "note_on channel=0 note=68 velocity=56 time=2\n",
      "control_change channel=0 control=64 value=43 time=4\n",
      "control_change channel=0 control=64 value=36 time=16\n",
      "control_change channel=0 control=64 value=20 time=15\n",
      "control_change channel=0 control=64 value=0 time=14\n",
      "note_on channel=0 note=60 velocity=0 time=71\n",
      "note_on channel=0 note=61 velocity=52 time=34\n",
      "note_on channel=0 note=68 velocity=0 time=0\n",
      "note_on channel=0 note=70 velocity=65 time=0\n",
      "note_on channel=0 note=75 velocity=0 time=39\n",
      "note_on channel=0 note=61 velocity=0 time=91\n",
      "note_on channel=0 note=68 velocity=66 time=30\n",
      "note_on channel=0 note=60 velocity=32 time=7\n",
      "note_on channel=0 note=70 velocity=0 time=0\n",
      "note_on channel=0 note=75 velocity=63 time=2\n",
      "note_on channel=0 note=60 velocity=0 time=114\n",
      "note_on channel=0 note=68 velocity=0 time=5\n",
      "note_on channel=0 note=67 velocity=66 time=28\n",
      "note_on channel=0 note=58 velocity=40 time=8\n",
      "note_on channel=0 note=55 velocity=0 time=108\n",
      "note_on channel=0 note=58 velocity=0 time=3\n",
      "control_change channel=0 control=64 value=25 time=14\n",
      "control_change channel=0 control=64 value=41 time=16\n",
      "note_on channel=0 note=67 velocity=0 time=12\n",
      "control_change channel=0 control=64 value=52 time=3\n",
      "note_on channel=0 note=56 velocity=45 time=5\n",
      "note_on channel=0 note=65 velocity=61 time=4\n",
      "control_change channel=0 control=64 value=59 time=6\n",
      "control_change channel=0 control=64 value=62 time=16\n",
      "control_change channel=0 control=64 value=64 time=15\n",
      "control_change channel=0 control=64 value=66 time=16\n",
      "control_change channel=0 control=64 value=69 time=14\n",
      "control_change channel=0 control=64 value=72 time=15\n",
      "note_on channel=0 note=65 velocity=0 time=14\n",
      "control_change channel=0 control=64 value=74 time=2\n",
      "control_change channel=0 control=64 value=75 time=15\n",
      "note_on channel=0 note=56 velocity=0 time=4\n",
      "note_on channel=0 note=55 velocity=45 time=36\n",
      "note_on channel=0 note=63 velocity=65 time=4\n",
      "note_on channel=0 note=55 velocity=0 time=23\n",
      "note_on channel=0 note=63 velocity=0 time=54\n",
      "control_change channel=0 control=64 value=75 time=16\n",
      "control_change channel=0 control=64 value=74 time=16\n",
      "control_change channel=0 control=64 value=73 time=15\n",
      "note_on channel=0 note=75 velocity=0 time=8\n",
      "control_change channel=0 control=64 value=72 time=7\n",
      "control_change channel=0 control=64 value=69 time=15\n",
      "note_on channel=0 note=65 velocity=69 time=10\n",
      "control_change channel=0 control=64 value=65 time=5\n",
      "note_on channel=0 note=56 velocity=53 time=6\n",
      "control_change channel=0 control=64 value=62 time=10\n",
      "control_change channel=0 control=64 value=59 time=15\n",
      "control_change channel=0 control=64 value=57 time=15\n",
      "control_change channel=0 control=64 value=56 time=30\n",
      "control_change channel=0 control=64 value=55 time=15\n",
      "control_change channel=0 control=64 value=53 time=15\n",
      "control_change channel=0 control=64 value=50 time=15\n",
      "control_change channel=0 control=64 value=48 time=16\n",
      "control_change channel=0 control=64 value=46 time=15\n",
      "note_on channel=0 note=74 velocity=68 time=12\n",
      "control_change channel=0 control=64 value=44 time=4\n",
      "note_on channel=0 note=55 velocity=40 time=7\n",
      "control_change channel=0 control=64 value=43 time=7\n",
      "control_change channel=0 control=64 value=41 time=15\n",
      "control_change channel=0 control=64 value=40 time=16\n",
      "control_change channel=0 control=64 value=38 time=15\n",
      "control_change channel=0 control=64 value=38 time=15\n",
      "control_change channel=0 control=64 value=36 time=15\n",
      "control_change channel=0 control=64 value=34 time=15\n",
      "note_on channel=0 note=55 velocity=0 time=13\n",
      "control_change channel=0 control=64 value=32 time=3\n",
      "note_on channel=0 note=56 velocity=0 time=5\n",
      "control_change channel=0 control=64 value=29 time=10\n",
      "control_change channel=0 control=64 value=26 time=15\n",
      "note_on channel=0 note=75 velocity=74 time=0\n",
      "note_on channel=0 note=53 velocity=43 time=3\n",
      "note_on channel=0 note=74 velocity=0 time=7\n",
      "control_change channel=0 control=64 value=23 time=6\n",
      "control_change channel=0 control=64 value=17 time=22\n",
      "control_change channel=0 control=64 value=15 time=16\n",
      "control_change channel=0 control=64 value=13 time=14\n",
      "note_on channel=0 note=53 velocity=0 time=64\n",
      "note_on channel=0 note=77 velocity=72 time=28\n",
      "control_change channel=0 control=64 value=10 time=15\n",
      "note_on channel=0 note=75 velocity=0 time=3\n",
      "note_on channel=0 note=51 velocity=42 time=1\n",
      "note_on channel=0 note=51 velocity=0 time=129\n",
      "note_on channel=0 note=77 velocity=0 time=20\n",
      "note_on channel=0 note=70 velocity=72 time=3\n",
      "note_on channel=0 note=50 velocity=41 time=10\n",
      "note_on channel=0 note=65 velocity=0 time=57\n",
      "note_on channel=0 note=65 velocity=58 time=110\n",
      "note_on channel=0 note=65 velocity=0 time=92\n",
      "note_on channel=0 note=50 velocity=0 time=29\n",
      "note_on channel=0 note=55 velocity=30 time=32\n",
      "control_change channel=0 control=64 value=0 time=1\n",
      "note_on channel=0 note=67 velocity=49 time=4\n",
      "note_on channel=0 note=51 velocity=34 time=3\n",
      "note_on channel=0 note=51 velocity=0 time=112\n",
      "note_on channel=0 note=55 velocity=0 time=23\n",
      "note_on channel=0 note=67 velocity=0 time=1\n",
      "note_on channel=0 note=53 velocity=47 time=10\n",
      "note_on channel=0 note=68 velocity=55 time=12\n",
      "note_on channel=0 note=53 velocity=0 time=117\n",
      "note_on channel=0 note=68 velocity=0 time=16\n",
      "note_on channel=0 note=51 velocity=45 time=12\n",
      "note_on channel=0 note=67 velocity=55 time=9\n",
      "note_on channel=0 note=55 velocity=18 time=30\n",
      "note_on channel=0 note=67 velocity=0 time=78\n",
      "note_on channel=0 note=51 velocity=0 time=9\n",
      "note_on channel=0 note=65 velocity=53 time=45\n",
      "note_on channel=0 note=50 velocity=42 time=4\n",
      "note_on channel=0 note=50 velocity=0 time=124\n",
      "note_on channel=0 note=65 velocity=0 time=3\n",
      "note_on channel=0 note=63 velocity=51 time=26\n",
      "note_on channel=0 note=48 velocity=41 time=3\n",
      "note_on channel=0 note=48 velocity=0 time=56\n",
      "note_on channel=0 note=63 velocity=0 time=66\n",
      "note_on channel=0 note=61 velocity=51 time=37\n",
      "note_on channel=0 note=46 velocity=28 time=26\n",
      "note_on channel=0 note=46 velocity=0 time=74\n",
      "note_on channel=0 note=61 velocity=0 time=49\n",
      "note_on channel=0 note=60 velocity=45 time=41\n",
      "note_on channel=0 note=44 velocity=27 time=2\n",
      "note_on channel=0 note=55 velocity=0 time=160\n",
      "note_on channel=0 note=51 velocity=39 time=10\n",
      "note_on channel=0 note=51 velocity=0 time=115\n",
      "note_on channel=0 note=53 velocity=46 time=50\n",
      "note_on channel=0 note=53 velocity=0 time=114\n",
      "note_on channel=0 note=55 velocity=41 time=55\n",
      "note_on channel=0 note=55 velocity=0 time=155\n",
      "note_on channel=0 note=65 velocity=56 time=29\n",
      "note_on channel=0 note=68 velocity=61 time=0\n",
      "note_on channel=0 note=53 velocity=39 time=3\n",
      "note_on channel=0 note=60 velocity=0 time=39\n",
      "note_on channel=0 note=70 velocity=0 time=9\n",
      "note_on channel=0 note=53 velocity=0 time=51\n",
      "note_on channel=0 note=51 velocity=42 time=63\n",
      "note_on channel=0 note=44 velocity=0 time=91\n",
      "note_on channel=0 note=51 velocity=0 time=7\n",
      "note_on channel=0 note=50 velocity=37 time=62\n",
      "note_on channel=0 note=50 velocity=0 time=106\n",
      "note_on channel=0 note=48 velocity=45 time=52\n",
      "note_on channel=0 note=48 velocity=0 time=49\n",
      "control_change channel=0 control=64 value=13 time=32\n",
      "control_change channel=0 control=64 value=43 time=15\n",
      "control_change channel=0 control=64 value=54 time=16\n",
      "control_change channel=0 control=64 value=61 time=14\n",
      "control_change channel=0 control=64 value=65 time=16\n",
      "control_change channel=0 control=64 value=69 time=15\n",
      "control_change channel=0 control=64 value=74 time=15\n",
      "note_on channel=0 note=38 velocity=40 time=4\n",
      "note_on channel=0 note=46 velocity=42 time=3\n",
      "control_change channel=0 control=64 value=78 time=9\n",
      "control_change channel=0 control=64 value=80 time=14\n",
      "control_change channel=0 control=64 value=82 time=15\n",
      "note_on channel=0 note=38 velocity=0 time=2\n",
      "control_change channel=0 control=64 value=82 time=14\n",
      "control_change channel=0 control=64 value=83 time=15\n",
      "note_on channel=0 note=65 velocity=0 time=1\n",
      "note_on channel=0 note=46 velocity=0 time=16\n",
      "note_on channel=0 note=56 velocity=54 time=123\n",
      "control_change channel=0 control=64 value=82 time=4\n",
      "control_change channel=0 control=64 value=82 time=31\n",
      "control_change channel=0 control=64 value=81 time=15\n",
      "control_change channel=0 control=64 value=81 time=15\n",
      "control_change channel=0 control=64 value=80 time=16\n",
      "note_on channel=0 note=56 velocity=0 time=20\n",
      "control_change channel=0 control=64 value=79 time=9\n",
      "control_change channel=0 control=64 value=79 time=16\n",
      "control_change channel=0 control=64 value=78 time=15\n",
      "note_on channel=0 note=58 velocity=60 time=10\n",
      "control_change channel=0 control=64 value=77 time=5\n",
      "control_change channel=0 control=64 value=76 time=15\n",
      "control_change channel=0 control=64 value=75 time=15\n",
      "control_change channel=0 control=64 value=74 time=15\n",
      "note_on channel=0 note=58 velocity=0 time=2\n",
      "control_change channel=0 control=64 value=73 time=13\n",
      "control_change channel=0 control=64 value=73 time=15\n",
      "control_change channel=0 control=64 value=72 time=16\n",
      "control_change channel=0 control=64 value=71 time=15\n",
      "control_change channel=0 control=64 value=71 time=15\n",
      "control_change channel=0 control=64 value=70 time=15\n",
      "note_on channel=0 note=60 velocity=57 time=2\n",
      "control_change channel=0 control=64 value=70 time=13\n",
      "control_change channel=0 control=64 value=69 time=16\n",
      "control_change channel=0 control=64 value=69 time=29\n",
      "control_change channel=0 control=64 value=68 time=16\n",
      "control_change channel=0 control=64 value=68 time=16\n",
      "control_change channel=0 control=64 value=67 time=16\n",
      "note_on channel=0 note=60 velocity=0 time=2\n",
      "control_change channel=0 control=64 value=66 time=13\n",
      "control_change channel=0 control=64 value=64 time=14\n",
      "control_change channel=0 control=64 value=60 time=16\n",
      "control_change channel=0 control=64 value=42 time=15\n",
      "note_on channel=0 note=58 velocity=51 time=10\n",
      "control_change channel=0 control=64 value=0 time=6\n",
      "note_on channel=0 note=63 velocity=70 time=1\n",
      "note_on channel=0 note=67 velocity=73 time=1\n",
      "note_on channel=0 note=68 velocity=0 time=12\n",
      "note_on channel=0 note=51 velocity=31 time=19\n",
      "note_on channel=0 note=58 velocity=0 time=125\n",
      "note_on channel=0 note=56 velocity=59 time=12\n",
      "control_change channel=0 control=64 value=41 time=35\n",
      "control_change channel=0 control=64 value=53 time=15\n",
      "control_change channel=0 control=64 value=57 time=15\n",
      "control_change channel=0 control=64 value=60 time=15\n",
      "control_change channel=0 control=64 value=62 time=15\n",
      "control_change channel=0 control=64 value=64 time=16\n",
      "control_change channel=0 control=64 value=66 time=15\n",
      "control_change channel=0 control=67 value=121 time=0\n",
      "note_on channel=0 note=56 velocity=0 time=5\n",
      "control_change channel=0 control=64 value=67 time=10\n",
      "control_change channel=0 control=67 value=112 time=0\n",
      "note_on channel=0 note=51 velocity=0 time=7\n",
      "control_change channel=0 control=64 value=68 time=8\n",
      "control_change channel=0 control=67 value=103 time=0\n",
      "control_change channel=0 control=64 value=69 time=15\n",
      "control_change channel=0 control=67 value=95 time=0\n",
      "note_on channel=0 note=55 velocity=62 time=0\n",
      "control_change channel=0 control=64 value=70 time=15\n",
      "control_change channel=0 control=67 value=85 time=0\n",
      "control_change channel=0 control=64 value=70 time=16\n",
      "control_change channel=0 control=67 value=72 time=0\n",
      "control_change channel=0 control=64 value=71 time=14\n",
      "control_change channel=0 control=67 value=57 time=0\n",
      "control_change channel=0 control=67 value=36 time=16\n",
      "control_change channel=0 control=67 value=19 time=15\n",
      "control_change channel=0 control=67 value=0 time=15\n",
      "note_on channel=0 note=55 velocity=0 time=33\n",
      "note_on channel=0 note=53 velocity=64 time=25\n",
      "note_on channel=0 note=53 velocity=0 time=45\n",
      "control_change channel=0 control=64 value=70 time=3\n",
      "control_change channel=0 control=64 value=70 time=45\n",
      "control_change channel=0 control=64 value=69 time=16\n",
      "control_change channel=0 control=64 value=68 time=15\n",
      "control_change channel=0 control=64 value=67 time=15\n",
      "note_on channel=0 note=51 velocity=58 time=14\n",
      "control_change channel=0 control=64 value=66 time=1\n",
      "control_change channel=0 control=64 value=65 time=15\n",
      "control_change channel=0 control=64 value=64 time=15\n",
      "note_on channel=0 note=68 velocity=70 time=9\n",
      "note_on channel=0 note=72 velocity=77 time=2\n",
      "control_change channel=0 control=64 value=62 time=5\n",
      "control_change channel=0 control=64 value=61 time=15\n",
      "control_change channel=0 control=64 value=60 time=17\n",
      "control_change channel=0 control=64 value=59 time=15\n",
      "note_on channel=0 note=63 velocity=0 time=5\n",
      "note_on channel=0 note=67 velocity=0 time=3\n",
      "control_change channel=0 control=64 value=59 time=6\n",
      "control_change channel=0 control=64 value=58 time=16\n",
      "control_change channel=0 control=64 value=57 time=15\n",
      "control_change channel=0 control=64 value=56 time=14\n",
      "control_change channel=0 control=64 value=54 time=16\n",
      "note_on channel=0 note=51 velocity=0 time=5\n",
      "control_change channel=0 control=64 value=53 time=10\n",
      "note_on channel=0 note=48 velocity=55 time=3\n",
      "control_change channel=0 control=64 value=52 time=13\n",
      "control_change channel=0 control=64 value=51 time=15\n",
      "control_change channel=0 control=64 value=50 time=15\n",
      "control_change channel=0 control=64 value=50 time=16\n",
      "control_change channel=0 control=64 value=49 time=14\n",
      "control_change channel=0 control=64 value=48 time=16\n",
      "control_change channel=0 control=64 value=47 time=15\n",
      "control_change channel=0 control=64 value=46 time=22\n",
      "note_on channel=0 note=48 velocity=0 time=3\n",
      "control_change channel=0 control=64 value=45 time=13\n",
      "control_change channel=0 control=64 value=44 time=15\n",
      "note_on channel=0 note=49 velocity=54 time=12\n",
      "control_change channel=0 control=64 value=44 time=4\n",
      "control_change channel=0 control=64 value=43 time=14\n",
      "control_change channel=0 control=64 value=43 time=15\n",
      "control_change channel=0 control=64 value=42 time=16\n",
      "control_change channel=0 control=64 value=41 time=15\n",
      "control_change channel=0 control=64 value=40 time=16\n",
      "control_change channel=0 control=64 value=39 time=14\n",
      "note_on channel=0 note=49 velocity=0 time=14\n",
      "control_change channel=0 control=64 value=39 time=1\n",
      "control_change channel=0 control=64 value=38 time=16\n",
      "control_change channel=0 control=64 value=38 time=15\n",
      "control_change channel=0 control=64 value=37 time=16\n",
      "note_on channel=0 note=51 velocity=58 time=1\n",
      "control_change channel=0 control=64 value=36 time=14\n",
      "control_change channel=0 control=64 value=36 time=15\n",
      "control_change channel=0 control=64 value=35 time=16\n",
      "control_change channel=0 control=64 value=34 time=14\n",
      "control_change channel=0 control=64 value=33 time=15\n",
      "control_change channel=0 control=64 value=32 time=31\n",
      "note_on channel=0 note=51 velocity=0 time=38\n",
      "note_on channel=0 note=49 velocity=63 time=20\n",
      "note_on channel=0 note=68 velocity=0 time=4\n",
      "control_change channel=0 control=64 value=32 time=45\n",
      "note_on channel=0 note=49 velocity=0 time=96\n",
      "note_on channel=0 note=48 velocity=62 time=17\n",
      "note_on channel=0 note=48 velocity=0 time=150\n",
      "note_on channel=0 note=46 velocity=67 time=10\n",
      "control_change channel=0 control=64 value=31 time=82\n",
      "note_on channel=0 note=46 velocity=0 time=53\n",
      "note_on channel=0 note=44 velocity=62 time=40\n",
      "control_change channel=0 control=64 value=30 time=59\n",
      "control_change channel=0 control=64 value=29 time=60\n",
      "note_on channel=0 note=44 velocity=0 time=15\n",
      "control_change channel=0 control=64 value=29 time=16\n",
      "control_change channel=0 control=64 value=28 time=15\n",
      "note_on channel=0 note=51 velocity=60 time=3\n",
      "control_change channel=0 control=64 value=27 time=12\n",
      "note_on channel=0 note=70 velocity=80 time=2\n",
      "control_change channel=0 control=64 value=25 time=13\n",
      "control_change channel=0 control=64 value=23 time=15\n",
      "note_on channel=0 note=72 velocity=0 time=3\n",
      "control_change channel=0 control=64 value=18 time=12\n",
      "control_change channel=0 control=64 value=10 time=16\n",
      "control_change channel=0 control=64 value=0 time=15\n",
      "note_on channel=0 note=51 velocity=0 time=95\n",
      "note_on channel=0 note=50 velocity=60 time=9\n",
      "note_on channel=0 note=50 velocity=0 time=147\n",
      "note_on channel=0 note=48 velocity=58 time=27\n",
      "note_on channel=0 note=48 velocity=0 time=150\n",
      "note_on channel=0 note=46 velocity=58 time=26\n",
      "note_on channel=0 note=46 velocity=0 time=145\n",
      "note_on channel=0 note=75 velocity=61 time=38\n",
      "note_on channel=0 note=56 velocity=52 time=3\n",
      "note_on channel=0 note=67 velocity=55 time=2\n",
      "note_on channel=0 note=56 velocity=0 time=168\n",
      "note_on channel=0 note=55 velocity=49 time=31\n",
      "note_on channel=0 note=55 velocity=0 time=143\n",
      "note_on channel=0 note=53 velocity=45 time=50\n",
      "control_change channel=0 control=64 value=18 time=7\n",
      "control_change channel=0 control=64 value=29 time=16\n",
      "control_change channel=0 control=64 value=40 time=15\n",
      "control_change channel=0 control=64 value=48 time=14\n",
      "control_change channel=0 control=64 value=54 time=18\n",
      "control_change channel=0 control=64 value=59 time=15\n",
      "control_change channel=0 control=64 value=62 time=15\n",
      "control_change channel=0 control=64 value=64 time=15\n",
      "control_change channel=0 control=64 value=67 time=15\n",
      "control_change channel=0 control=64 value=71 time=23\n",
      "control_change channel=0 control=64 value=75 time=15\n",
      "control_change channel=0 control=64 value=78 time=15\n",
      "control_change channel=0 control=64 value=80 time=15\n",
      "control_change channel=0 control=64 value=81 time=15\n",
      "note_on channel=0 note=67 velocity=0 time=4\n",
      "note_on channel=0 note=51 velocity=52 time=4\n",
      "note_on channel=0 note=53 velocity=0 time=1\n",
      "control_change channel=0 control=64 value=82 time=7\n",
      "control_change channel=0 control=64 value=82 time=15\n",
      "control_change channel=0 control=64 value=83 time=16\n",
      "note_on channel=0 note=51 velocity=0 time=3\n",
      "note_on channel=0 note=70 velocity=0 time=125\n",
      "control_change channel=0 control=64 value=82 time=98\n",
      "control_change channel=0 control=64 value=82 time=16\n",
      "control_change channel=0 control=64 value=81 time=15\n",
      "control_change channel=0 control=64 value=81 time=15\n",
      "control_change channel=0 control=64 value=80 time=16\n",
      "control_change channel=0 control=64 value=78 time=14\n",
      "note_on channel=0 note=58 velocity=54 time=5\n",
      "control_change channel=0 control=64 value=76 time=10\n",
      "note_on channel=0 note=65 velocity=58 time=10\n",
      "control_change channel=0 control=64 value=74 time=6\n",
      "control_change channel=0 control=64 value=69 time=15\n",
      "control_change channel=0 control=64 value=64 time=16\n",
      "control_change channel=0 control=64 value=55 time=15\n",
      "control_change channel=0 control=64 value=34 time=15\n",
      "control_change channel=0 control=64 value=0 time=15\n",
      "note_on channel=0 note=60 velocity=44 time=96\n",
      "note_on channel=0 note=60 velocity=0 time=120\n",
      "control_change channel=0 control=64 value=10 time=66\n",
      "note_on channel=0 note=62 velocity=43 time=0\n",
      "control_change channel=0 control=64 value=13 time=15\n",
      "control_change channel=0 control=64 value=15 time=16\n",
      "control_change channel=0 control=64 value=21 time=14\n",
      "control_change channel=0 control=64 value=34 time=15\n",
      "control_change channel=0 control=64 value=47 time=16\n",
      "control_change channel=0 control=64 value=55 time=15\n",
      "control_change channel=0 control=64 value=59 time=15\n",
      "control_change channel=0 control=64 value=62 time=16\n",
      "control_change channel=0 control=64 value=64 time=15\n",
      "note_on channel=0 note=62 velocity=0 time=4\n",
      "control_change channel=0 control=64 value=65 time=12\n",
      "control_change channel=0 control=64 value=67 time=15\n",
      "note_on channel=0 note=63 velocity=45 time=0\n",
      "control_change channel=0 control=64 value=68 time=14\n",
      "control_change channel=0 control=64 value=69 time=16\n",
      "control_change channel=0 control=64 value=70 time=15\n",
      "note_on channel=0 note=63 velocity=0 time=11\n",
      "control_change channel=0 control=64 value=70 time=5\n",
      "note_on channel=0 note=65 velocity=0 time=21\n",
      "control_change channel=0 control=64 value=70 time=24\n",
      "control_change channel=0 control=64 value=69 time=15\n",
      "control_change channel=0 control=64 value=67 time=15\n",
      "note_on channel=0 note=65 velocity=35 time=14\n",
      "control_change channel=0 control=64 value=64 time=2\n",
      "control_change channel=0 control=64 value=60 time=14\n",
      "note_on channel=0 note=70 velocity=61 time=0\n",
      "note_on channel=0 note=74 velocity=55 time=5\n",
      "control_change channel=0 control=64 value=54 time=11\n",
      "control_change channel=0 control=64 value=50 time=15\n",
      "note_on channel=0 note=75 velocity=0 time=6\n",
      "control_change channel=0 control=64 value=49 time=8\n",
      "control_change channel=0 control=64 value=48 time=46\n",
      "control_change channel=0 control=64 value=47 time=16\n",
      "control_change channel=0 control=64 value=47 time=14\n",
      "control_change channel=0 control=64 value=46 time=16\n",
      "control_change channel=0 control=64 value=45 time=30\n",
      "note_on channel=0 note=65 velocity=0 time=0\n",
      "note_on channel=0 note=68 velocity=57 time=0\n",
      "control_change channel=0 control=64 value=45 time=16\n",
      "control_change channel=0 control=64 value=44 time=14\n",
      "control_change channel=0 control=64 value=44 time=31\n",
      "control_change channel=0 control=64 value=43 time=15\n",
      "control_change channel=0 control=64 value=43 time=16\n",
      "control_change channel=0 control=64 value=42 time=15\n",
      "control_change channel=0 control=64 value=42 time=31\n",
      "control_change channel=0 control=64 value=41 time=14\n",
      "control_change channel=0 control=64 value=41 time=16\n",
      "note_on channel=0 note=67 velocity=52 time=15\n",
      "note_on channel=0 note=68 velocity=0 time=9\n",
      "control_change channel=0 control=64 value=40 time=22\n",
      "control_change channel=0 control=64 value=40 time=21\n",
      "control_change channel=0 control=64 value=38 time=16\n",
      "control_change channel=0 control=64 value=38 time=16\n",
      "control_change channel=0 control=64 value=37 time=15\n",
      "control_change channel=0 control=64 value=36 time=16\n",
      "control_change channel=0 control=64 value=36 time=14\n",
      "control_change channel=0 control=64 value=35 time=16\n",
      "note_on channel=0 note=67 velocity=0 time=5\n",
      "note_on channel=0 note=65 velocity=50 time=19\n",
      "control_change channel=0 control=64 value=34 time=6\n",
      "control_change channel=0 control=64 value=34 time=30\n",
      "control_change channel=0 control=64 value=33 time=15\n",
      "control_change channel=0 control=64 value=32 time=32\n",
      "control_change channel=0 control=64 value=32 time=16\n",
      "control_change channel=0 control=64 value=31 time=45\n",
      "note_on channel=0 note=65 velocity=0 time=1\n",
      "note_on channel=0 note=63 velocity=45 time=25\n",
      "note_on channel=0 note=78 velocity=66 time=5\n",
      "control_change channel=0 control=64 value=30 time=14\n",
      "control_change channel=0 control=64 value=29 time=15\n",
      "control_change channel=0 control=64 value=29 time=16\n",
      "control_change channel=0 control=64 value=28 time=15\n",
      "control_change channel=0 control=64 value=27 time=62\n",
      "control_change channel=0 control=64 value=26 time=14\n",
      "note_on channel=0 note=63 velocity=0 time=21\n",
      "control_change channel=0 control=64 value=25 time=10\n",
      "control_change channel=0 control=64 value=24 time=15\n",
      "note_on channel=0 note=65 velocity=38 time=4\n",
      "control_change channel=0 control=64 value=23 time=41\n",
      "control_change channel=0 control=64 value=21 time=31\n",
      "note_on channel=0 note=65 velocity=0 time=97\n",
      "note_on channel=0 note=63 velocity=40 time=14\n",
      "control_change channel=0 control=64 value=20 time=10\n",
      "control_change channel=0 control=64 value=18 time=129\n",
      "note_on channel=0 note=63 velocity=0 time=2\n",
      "note_on channel=0 note=62 velocity=44 time=35\n",
      "note_on channel=0 note=62 velocity=0 time=133\n",
      "note_on channel=0 note=70 velocity=0 time=14\n",
      "note_on channel=0 note=69 velocity=55 time=7\n",
      "note_on channel=0 note=74 velocity=0 time=1\n",
      "control_change channel=0 control=64 value=20 time=21\n",
      "note_on channel=0 note=60 velocity=38 time=5\n",
      "control_change channel=0 control=64 value=23 time=10\n",
      "control_change channel=0 control=64 value=25 time=15\n",
      "control_change channel=0 control=64 value=27 time=16\n",
      "control_change channel=0 control=64 value=30 time=14\n",
      "control_change channel=0 control=64 value=35 time=15\n",
      "control_change channel=0 control=64 value=41 time=16\n",
      "control_change channel=0 control=64 value=47 time=15\n",
      "control_change channel=0 control=64 value=51 time=16\n",
      "control_change channel=0 control=64 value=56 time=15\n",
      "note_on channel=0 note=60 velocity=0 time=1\n",
      "control_change channel=0 control=64 value=60 time=14\n",
      "note_on channel=0 note=63 velocity=39 time=9\n",
      "control_change channel=0 control=64 value=63 time=7\n",
      "control_change channel=0 control=64 value=64 time=15\n",
      "control_change channel=0 control=64 value=65 time=14\n",
      "control_change channel=0 control=64 value=68 time=16\n",
      "control_change channel=0 control=64 value=71 time=15\n",
      "control_change channel=0 control=64 value=74 time=15\n",
      "control_change channel=0 control=64 value=76 time=15\n",
      "note_on channel=0 note=63 velocity=0 time=2\n",
      "control_change channel=0 control=64 value=77 time=13\n",
      "control_change channel=0 control=64 value=78 time=16\n",
      "note_on channel=0 note=58 velocity=0 time=10\n",
      "control_change channel=0 control=64 value=78 time=5\n",
      "note_on channel=0 note=62 velocity=37 time=16\n",
      "control_change channel=0 control=64 value=79 time=14\n",
      "control_change channel=0 control=64 value=79 time=15\n",
      "note_on channel=0 note=78 velocity=0 time=1\n",
      "control_change channel=0 control=67 value=10 time=15\n",
      "control_change channel=0 control=67 value=16 time=15\n",
      "control_change channel=0 control=67 value=27 time=14\n",
      "control_change channel=0 control=67 value=41 time=16\n",
      "control_change channel=0 control=67 value=54 time=15\n",
      "control_change channel=0 control=67 value=67 time=15\n",
      "control_change channel=0 control=67 value=78 time=15\n",
      "control_change channel=0 control=67 value=88 time=15\n",
      "note_on channel=0 note=62 velocity=0 time=6\n",
      "control_change channel=0 control=67 value=96 time=10\n",
      "control_change channel=0 control=67 value=105 time=15\n",
      "note_on channel=0 note=60 velocity=34 time=9\n",
      "control_change channel=0 control=67 value=111 time=14\n",
      "control_change channel=0 control=67 value=116 time=15\n",
      "control_change channel=0 control=67 value=120 time=15\n",
      "control_change channel=0 control=67 value=123 time=16\n",
      "control_change channel=0 control=64 value=79 time=15\n",
      "control_change channel=0 control=67 value=125 time=0\n",
      "control_change channel=0 control=67 value=126 time=15\n",
      "control_change channel=0 control=64 value=78 time=15\n",
      "control_change channel=0 control=67 value=126 time=0\n",
      "control_change channel=0 control=64 value=78 time=15\n",
      "control_change channel=0 control=67 value=127 time=0\n",
      "note_on channel=0 note=60 velocity=0 time=9\n",
      "note_on channel=0 note=69 velocity=0 time=5\n",
      "control_change channel=0 control=64 value=77 time=3\n",
      "control_change channel=0 control=64 value=77 time=15\n",
      "note_on channel=0 note=77 velocity=56 time=7\n",
      "note_on channel=0 note=74 velocity=46 time=3\n",
      "control_change channel=0 control=64 value=76 time=4\n",
      "note_on channel=0 note=68 velocity=42 time=4\n",
      "control_change channel=0 control=64 value=76 time=27\n",
      "control_change channel=0 control=64 value=75 time=16\n",
      "control_change channel=0 control=64 value=74 time=15\n",
      "control_change channel=0 control=64 value=72 time=14\n",
      "control_change channel=0 control=64 value=72 time=16\n",
      "control_change channel=0 control=64 value=70 time=15\n",
      "control_change channel=0 control=64 value=69 time=15\n",
      "control_change channel=0 control=67 value=126 time=0\n",
      "control_change channel=0 control=64 value=67 time=16\n",
      "control_change channel=0 control=64 value=65 time=14\n",
      "control_change channel=0 control=67 value=126 time=0\n",
      "control_change channel=0 control=64 value=63 time=16\n",
      "note_on channel=0 note=53 velocity=48 time=8\n",
      "control_change channel=0 control=64 value=62 time=7\n",
      "control_change channel=0 control=67 value=125 time=0\n",
      "control_change channel=0 control=64 value=61 time=14\n",
      "control_change channel=0 control=64 value=61 time=31\n",
      "control_change channel=0 control=67 value=125 time=0\n",
      "control_change channel=0 control=64 value=60 time=16\n",
      "control_change channel=0 control=64 value=59 time=15\n",
      "control_change channel=0 control=67 value=124 time=0\n",
      "control_change channel=0 control=64 value=58 time=15\n",
      "note_on channel=0 note=74 velocity=0 time=3\n",
      "control_change channel=0 control=64 value=57 time=13\n",
      "control_change channel=0 control=64 value=56 time=15\n",
      "control_change channel=0 control=67 value=124 time=0\n",
      "control_change channel=0 control=64 value=56 time=15\n",
      "control_change channel=0 control=67 value=123 time=0\n",
      "note_on channel=0 note=53 velocity=0 time=11\n",
      "control_change channel=0 control=64 value=55 time=4\n",
      "note_on channel=0 note=51 velocity=50 time=12\n",
      "control_change channel=0 control=64 value=55 time=3\n",
      "control_change channel=0 control=64 value=54 time=16\n",
      "control_change channel=0 control=67 value=123 time=0\n",
      "control_change channel=0 control=64 value=54 time=15\n",
      "note_on channel=0 note=68 velocity=0 time=3\n",
      "control_change channel=0 control=64 value=53 time=12\n",
      "control_change channel=0 control=64 value=53 time=15\n",
      "control_change channel=0 control=67 value=122 time=0\n",
      "control_change channel=0 control=64 value=52 time=15\n",
      "control_change channel=0 control=67 value=122 time=0\n",
      "control_change channel=0 control=64 value=52 time=31\n",
      "control_change channel=0 control=67 value=121 time=0\n",
      "control_change channel=0 control=64 value=51 time=15\n",
      "control_change channel=0 control=64 value=51 time=15\n",
      "control_change channel=0 control=67 value=121 time=0\n",
      "note_on channel=0 note=51 velocity=0 time=4\n",
      "control_change channel=0 control=64 value=50 time=11\n",
      "control_change channel=0 control=67 value=120 time=0\n",
      "note_on channel=0 note=50 velocity=49 time=1\n",
      "control_change channel=0 control=64 value=50 time=14\n",
      "control_change channel=0 control=67 value=120 time=16\n",
      "control_change channel=0 control=64 value=49 time=15\n",
      "control_change channel=0 control=67 value=119 time=14\n",
      "control_change channel=0 control=64 value=48 time=16\n",
      "control_change channel=0 control=67 value=119 time=0\n",
      "control_change channel=0 control=64 value=47 time=38\n",
      "control_change channel=0 control=67 value=118 time=0\n",
      "control_change channel=0 control=64 value=47 time=31\n",
      "control_change channel=0 control=67 value=117 time=0\n",
      "control_change channel=0 control=64 value=46 time=15\n",
      "note_on channel=0 note=50 velocity=0 time=10\n",
      "control_change channel=0 control=64 value=45 time=5\n",
      "control_change channel=0 control=67 value=116 time=0\n",
      "control_change channel=0 control=64 value=44 time=15\n",
      "note_on channel=0 note=77 velocity=0 time=5\n",
      "control_change channel=0 control=67 value=115 time=10\n",
      "note_on channel=0 note=51 velocity=45 time=1\n",
      "note_on channel=0 note=70 velocity=47 time=10\n",
      "note_on channel=0 note=75 velocity=45 time=3\n",
      "control_change channel=0 control=67 value=114 time=1\n",
      "note_on channel=0 note=67 velocity=41 time=5\n",
      "control_change channel=0 control=64 value=44 time=11\n",
      "control_change channel=0 control=67 value=114 time=0\n",
      "control_change channel=0 control=64 value=43 time=14\n",
      "control_change channel=0 control=67 value=113 time=0\n",
      "control_change channel=0 control=67 value=110 time=16\n",
      "control_change channel=0 control=64 value=43 time=15\n",
      "control_change channel=0 control=67 value=108 time=0\n",
      "control_change channel=0 control=64 value=42 time=16\n",
      "control_change channel=0 control=67 value=105 time=0\n",
      "control_change channel=0 control=64 value=42 time=16\n",
      "control_change channel=0 control=67 value=102 time=0\n",
      "control_change channel=0 control=67 value=98 time=15\n",
      "control_change channel=0 control=64 value=41 time=15\n",
      "control_change channel=0 control=67 value=95 time=0\n",
      "control_change channel=0 control=64 value=41 time=15\n",
      "control_change channel=0 control=67 value=91 time=0\n",
      "note_on channel=0 note=51 velocity=0 time=13\n",
      "control_change channel=0 control=64 value=40 time=2\n",
      "control_change channel=0 control=67 value=86 time=0\n",
      "control_change channel=0 control=64 value=40 time=16\n",
      "control_change channel=0 control=67 value=82 time=0\n",
      "control_change channel=0 control=64 value=39 time=15\n",
      "control_change channel=0 control=67 value=78 time=0\n",
      "note_on channel=0 note=53 velocity=45 time=4\n",
      "control_change channel=0 control=67 value=73 time=10\n",
      "control_change channel=0 control=64 value=39 time=16\n",
      "control_change channel=0 control=67 value=69 time=0\n",
      "control_change channel=0 control=67 value=64 time=15\n",
      "control_change channel=0 control=64 value=38 time=16\n",
      "control_change channel=0 control=67 value=58 time=0\n",
      "control_change channel=0 control=67 value=53 time=15\n",
      "control_change channel=0 control=67 value=48 time=14\n",
      "control_change channel=0 control=67 value=44 time=16\n",
      "control_change channel=0 control=64 value=38 time=15\n",
      "control_change channel=0 control=67 value=40 time=0\n",
      "note_on channel=0 note=53 velocity=0 time=1\n",
      "control_change channel=0 control=67 value=36 time=13\n",
      "control_change channel=0 control=67 value=32 time=16\n",
      "control_change channel=0 control=67 value=27 time=15\n",
      "control_change channel=0 control=67 value=23 time=16\n",
      "note_on channel=0 note=55 velocity=39 time=0\n",
      "control_change channel=0 control=67 value=19 time=15\n",
      "control_change channel=0 control=67 value=16 time=15\n",
      "control_change channel=0 control=67 value=12 time=15\n",
      "control_change channel=0 control=67 value=9 time=15\n",
      "control_change channel=0 control=67 value=0 time=16\n",
      "note_on channel=0 note=70 velocity=0 time=23\n",
      "note_on channel=0 note=67 velocity=0 time=10\n",
      "control_change channel=0 control=64 value=37 time=13\n",
      "note_on channel=0 note=55 velocity=0 time=57\n",
      "note_on channel=0 note=56 velocity=40 time=5\n",
      "control_change channel=0 control=64 value=37 time=44\n",
      "control_change channel=0 control=64 value=36 time=45\n",
      "control_change channel=0 control=64 value=36 time=69\n",
      "note_on channel=0 note=46 velocity=25 time=63\n",
      "note_on channel=0 note=70 velocity=37 time=11\n",
      "note_on channel=0 note=65 velocity=33 time=1\n",
      "control_change channel=0 control=64 value=35 time=1\n",
      "note_on channel=0 note=56 velocity=0 time=25\n",
      "control_change channel=0 control=64 value=34 time=5\n",
      "control_change channel=0 control=64 value=34 time=15\n",
      "control_change channel=0 control=64 value=33 time=32\n",
      "control_change channel=0 control=64 value=32 time=61\n",
      "note_on channel=0 note=75 velocity=0 time=588\n",
      "note_on channel=0 note=65 velocity=0 time=44\n",
      "note_on channel=0 note=74 velocity=36 time=3\n",
      "note_on channel=0 note=70 velocity=0 time=289\n",
      "note_on channel=0 note=68 velocity=19 time=66\n",
      "note_on channel=0 note=51 velocity=17 time=318\n",
      "note_on channel=0 note=68 velocity=0 time=36\n",
      "note_on channel=0 note=46 velocity=0 time=13\n",
      "note_on channel=0 note=74 velocity=0 time=25\n",
      "note_on channel=0 note=75 velocity=41 time=42\n",
      "control_change channel=0 control=64 value=32 time=4\n",
      "note_on channel=0 note=67 velocity=36 time=16\n",
      "note_on channel=0 note=67 velocity=0 time=170\n",
      "note_on channel=0 note=70 velocity=39 time=12\n",
      "control_change channel=0 control=64 value=31 time=107\n",
      "note_on channel=0 note=70 velocity=0 time=29\n",
      "note_on channel=0 note=72 velocity=48 time=28\n",
      "note_on channel=0 note=72 velocity=0 time=137\n",
      "control_change channel=0 control=64 value=30 time=5\n",
      "control_change channel=0 control=64 value=29 time=14\n",
      "note_on channel=0 note=73 velocity=50 time=5\n",
      "note_on channel=0 note=75 velocity=0 time=10\n",
      "control_change channel=0 control=64 value=29 time=46\n",
      "note_on channel=0 note=73 velocity=0 time=40\n",
      "control_change channel=0 control=64 value=28 time=28\n",
      "note_on channel=0 note=72 velocity=53 time=61\n",
      "control_change channel=0 control=64 value=27 time=1\n",
      "note_on channel=0 note=56 velocity=34 time=3\n",
      "note_on channel=0 note=72 velocity=0 time=146\n",
      "note_on channel=0 note=70 velocity=49 time=14\n",
      "control_change channel=0 control=64 value=26 time=48\n",
      "note_on channel=0 note=70 velocity=0 time=102\n",
      "note_on channel=0 note=68 velocity=43 time=43\n",
      "control_change channel=0 control=64 value=28 time=53\n",
      "control_change channel=0 control=64 value=29 time=16\n",
      "control_change channel=0 control=64 value=30 time=15\n",
      "note_on channel=0 note=68 velocity=0 time=0\n",
      "control_change channel=0 control=64 value=32 time=15\n",
      "control_change channel=0 control=64 value=36 time=16\n",
      "control_change channel=0 control=64 value=42 time=15\n",
      "control_change channel=0 control=64 value=47 time=15\n",
      "control_change channel=0 control=64 value=54 time=15\n",
      "note_on channel=0 note=67 velocity=44 time=0\n",
      "control_change channel=0 control=64 value=58 time=15\n",
      "control_change channel=0 control=64 value=60 time=16\n",
      "control_change channel=0 control=64 value=61 time=15\n",
      "control_change channel=0 control=64 value=62 time=14\n",
      "note_on channel=0 note=67 velocity=0 time=38\n",
      "control_change channel=0 control=64 value=62 time=9\n",
      "control_change channel=0 control=64 value=61 time=15\n",
      "control_change channel=0 control=64 value=60 time=14\n",
      "control_change channel=0 control=64 value=57 time=24\n",
      "control_change channel=0 control=64 value=53 time=15\n",
      "control_change channel=0 control=64 value=44 time=15\n",
      "control_change channel=0 control=64 value=20 time=15\n",
      "note_on channel=0 note=74 velocity=44 time=8\n",
      "control_change channel=0 control=64 value=0 time=7\n",
      "note_on channel=0 note=65 velocity=34 time=19\n",
      "note_on channel=0 note=65 velocity=0 time=195\n",
      "note_on channel=0 note=67 velocity=40 time=134\n",
      "note_on channel=0 note=67 velocity=0 time=162\n",
      "note_on channel=0 note=68 velocity=45 time=24\n",
      "note_on channel=0 note=74 velocity=0 time=141\n",
      "note_on channel=0 note=68 velocity=0 time=32\n",
      "note_on channel=0 note=55 velocity=41 time=3\n",
      "note_on channel=0 note=70 velocity=36 time=15\n",
      "note_on channel=0 note=73 velocity=42 time=0\n",
      "note_on channel=0 note=56 velocity=0 time=74\n",
      "note_on channel=0 note=68 velocity=45 time=101\n",
      "note_on channel=0 note=70 velocity=0 time=7\n",
      "note_on channel=0 note=68 velocity=0 time=101\n",
      "note_on channel=0 note=67 velocity=51 time=67\n",
      "note_on channel=0 note=67 velocity=0 time=139\n",
      "note_on channel=0 note=65 velocity=57 time=25\n",
      "note_on channel=0 note=65 velocity=0 time=152\n",
      "note_on channel=0 note=63 velocity=60 time=34\n",
      "note_on channel=0 note=60 velocity=52 time=3\n",
      "note_on channel=0 note=55 velocity=0 time=175\n",
      "note_on channel=0 note=70 velocity=64 time=11\n",
      "note_on channel=0 note=73 velocity=0 time=28\n",
      "note_on channel=0 note=70 velocity=0 time=147\n",
      "note_on channel=0 note=72 velocity=65 time=3\n",
      "note_on channel=0 note=72 velocity=0 time=168\n",
      "note_on channel=0 note=73 velocity=53 time=13\n",
      "note_on channel=0 note=73 velocity=0 time=143\n",
      "note_on channel=0 note=72 velocity=44 time=49\n",
      "note_on channel=0 note=68 velocity=42 time=10\n",
      "note_on channel=0 note=72 velocity=0 time=163\n",
      "note_on channel=0 note=68 velocity=0 time=18\n",
      "note_on channel=0 note=70 velocity=51 time=19\n",
      "note_on channel=0 note=70 velocity=0 time=201\n",
      "note_on channel=0 note=72 velocity=53 time=17\n",
      "note_on channel=0 note=68 velocity=40 time=221\n",
      "note_on channel=0 note=60 velocity=0 time=226\n",
      "note_on channel=0 note=68 velocity=0 time=15\n",
      "note_on channel=0 note=74 velocity=55 time=12\n",
      "note_on channel=0 note=72 velocity=0 time=5\n",
      "note_on channel=0 note=59 velocity=17 time=7\n",
      "note_on channel=0 note=68 velocity=37 time=218\n",
      "note_on channel=0 note=68 velocity=0 time=207\n",
      "note_on channel=0 note=70 velocity=37 time=5\n",
      "note_on channel=0 note=70 velocity=0 time=166\n",
      "note_on channel=0 note=71 velocity=27 time=71\n",
      "note_on channel=0 note=71 velocity=0 time=211\n",
      "note_on channel=0 note=70 velocity=40 time=48\n",
      "note_on channel=0 note=63 velocity=0 time=28\n",
      "note_on channel=0 note=70 velocity=0 time=251\n",
      "note_on channel=0 note=68 velocity=42 time=18\n",
      "note_on channel=0 note=68 velocity=0 time=323\n",
      "note_on channel=0 note=67 velocity=35 time=85\n",
      "control_change channel=0 control=64 value=17 time=202\n",
      "control_change channel=0 control=64 value=25 time=16\n",
      "control_change channel=0 control=64 value=31 time=15\n",
      "control_change channel=0 control=64 value=36 time=14\n",
      "control_change channel=0 control=64 value=40 time=16\n",
      "control_change channel=0 control=64 value=44 time=15\n",
      "control_change channel=0 control=64 value=49 time=15\n",
      "control_change channel=0 control=64 value=53 time=16\n",
      "control_change channel=0 control=64 value=55 time=14\n",
      "control_change channel=0 control=64 value=56 time=16\n",
      "control_change channel=0 control=64 value=57 time=15\n",
      "control_change channel=0 control=64 value=59 time=15\n",
      "control_change channel=0 control=64 value=59 time=16\n",
      "control_change channel=0 control=64 value=60 time=14\n",
      "control_change channel=0 control=64 value=60 time=15\n",
      "control_change channel=0 control=64 value=61 time=16\n",
      "control_change channel=0 control=64 value=60 time=206\n",
      "note_on channel=0 note=67 velocity=0 time=13\n",
      "note_on channel=0 note=68 velocity=34 time=72\n",
      "control_change channel=0 control=64 value=61 time=36\n",
      "control_change channel=0 control=64 value=61 time=76\n",
      "control_change channel=0 control=64 value=62 time=15\n",
      "control_change channel=0 control=64 value=62 time=16\n",
      "control_change channel=0 control=64 value=63 time=15\n",
      "control_change channel=0 control=64 value=64 time=14\n",
      "control_change channel=0 control=64 value=65 time=16\n",
      "note_on channel=0 note=74 velocity=0 time=0\n",
      "note_on channel=0 note=68 velocity=0 time=4\n",
      "control_change channel=0 control=64 value=67 time=11\n",
      "control_change channel=0 control=64 value=70 time=16\n",
      "note_on channel=0 note=65 velocity=29 time=13\n",
      "control_change channel=0 control=64 value=73 time=2\n",
      "control_change channel=0 control=64 value=76 time=14\n",
      "control_change channel=0 control=64 value=77 time=16\n",
      "control_change channel=0 control=64 value=78 time=15\n",
      "control_change channel=0 control=64 value=78 time=14\n",
      "control_change channel=0 control=64 value=79 time=16\n",
      "control_change channel=0 control=64 value=79 time=15\n",
      "control_change channel=0 control=64 value=80 time=31\n",
      "note_on channel=0 note=59 velocity=0 time=96\n",
      "note_on channel=0 note=65 velocity=0 time=43\n",
      "control_change channel=0 control=64 value=79 time=28\n",
      "note_on channel=0 note=58 velocity=23 time=24\n",
      "control_change channel=0 control=64 value=79 time=7\n",
      "control_change channel=0 control=64 value=78 time=14\n",
      "control_change channel=0 control=64 value=78 time=16\n",
      "control_change channel=0 control=64 value=77 time=15\n",
      "control_change channel=0 control=64 value=75 time=14\n",
      "note_on channel=0 note=75 velocity=47 time=15\n",
      "control_change channel=0 control=64 value=72 time=1\n",
      "note_on channel=0 note=67 velocity=47 time=5\n",
      "control_change channel=0 control=64 value=68 time=17\n",
      "control_change channel=0 control=64 value=64 time=16\n",
      "control_change channel=0 control=64 value=54 time=16\n",
      "control_change channel=0 control=64 value=37 time=16\n",
      "control_change channel=0 control=64 value=24 time=15\n",
      "control_change channel=0 control=64 value=21 time=60\n",
      "control_change channel=0 control=64 value=17 time=16\n",
      "control_change channel=0 control=64 value=13 time=14\n",
      "control_change channel=0 control=64 value=0 time=16\n",
      "control_change channel=0 control=64 value=10 time=1208\n",
      "control_change channel=0 control=64 value=13 time=29\n",
      "control_change channel=0 control=64 value=15 time=31\n",
      "control_change channel=0 control=64 value=17 time=14\n",
      "control_change channel=0 control=64 value=20 time=16\n",
      "control_change channel=0 control=64 value=21 time=15\n",
      "control_change channel=0 control=64 value=24 time=16\n",
      "control_change channel=0 control=64 value=25 time=15\n",
      "control_change channel=0 control=64 value=26 time=23\n",
      "control_change channel=0 control=64 value=27 time=15\n",
      "control_change channel=0 control=64 value=28 time=15\n",
      "control_change channel=0 control=64 value=29 time=16\n",
      "control_change channel=0 control=64 value=30 time=15\n",
      "control_change channel=0 control=64 value=31 time=14\n",
      "control_change channel=0 control=64 value=32 time=16\n",
      "control_change channel=0 control=64 value=32 time=15\n",
      "control_change channel=0 control=64 value=33 time=17\n",
      "control_change channel=0 control=64 value=34 time=15\n",
      "control_change channel=0 control=64 value=34 time=14\n",
      "control_change channel=0 control=64 value=35 time=16\n",
      "control_change channel=0 control=64 value=36 time=15\n",
      "control_change channel=0 control=64 value=36 time=16\n",
      "control_change channel=0 control=64 value=37 time=15\n",
      "control_change channel=0 control=64 value=37 time=60\n",
      "control_change channel=0 control=64 value=38 time=46\n",
      "control_change channel=0 control=64 value=38 time=45\n",
      "control_change channel=0 control=64 value=39 time=30\n",
      "control_change channel=0 control=64 value=39 time=31\n",
      "control_change channel=0 control=64 value=40 time=45\n",
      "control_change channel=0 control=64 value=40 time=47\n",
      "control_change channel=0 control=64 value=41 time=29\n",
      "control_change channel=0 control=64 value=41 time=31\n",
      "control_change channel=0 control=64 value=42 time=31\n",
      "control_change channel=0 control=64 value=42 time=15\n",
      "control_change channel=0 control=64 value=43 time=30\n",
      "control_change channel=0 control=64 value=43 time=15\n",
      "control_change channel=0 control=64 value=44 time=16\n",
      "control_change channel=0 control=64 value=45 time=15\n",
      "control_change channel=0 control=64 value=46 time=14\n",
      "control_change channel=0 control=64 value=47 time=16\n",
      "control_change channel=0 control=64 value=48 time=15\n",
      "control_change channel=0 control=64 value=49 time=23\n",
      "control_change channel=0 control=64 value=50 time=15\n",
      "control_change channel=0 control=64 value=51 time=16\n",
      "control_change channel=0 control=64 value=52 time=15\n",
      "control_change channel=0 control=64 value=53 time=15\n",
      "control_change channel=0 control=64 value=54 time=15\n",
      "control_change channel=0 control=64 value=55 time=15\n",
      "control_change channel=0 control=64 value=55 time=15\n",
      "control_change channel=0 control=64 value=56 time=16\n",
      "control_change channel=0 control=64 value=57 time=14\n",
      "control_change channel=0 control=64 value=57 time=16\n",
      "control_change channel=0 control=64 value=58 time=15\n",
      "control_change channel=0 control=64 value=58 time=16\n",
      "control_change channel=0 control=64 value=59 time=16\n",
      "control_change channel=0 control=64 value=59 time=15\n",
      "control_change channel=0 control=64 value=60 time=15\n",
      "control_change channel=0 control=64 value=60 time=15\n",
      "control_change channel=0 control=64 value=61 time=15\n",
      "control_change channel=0 control=64 value=61 time=31\n",
      "control_change channel=0 control=64 value=62 time=14\n",
      "control_change channel=0 control=64 value=62 time=16\n",
      "control_change channel=0 control=64 value=63 time=15\n",
      "control_change channel=0 control=64 value=63 time=31\n",
      "control_change channel=0 control=64 value=64 time=14\n",
      "control_change channel=0 control=64 value=64 time=31\n",
      "control_change channel=0 control=64 value=65 time=15\n",
      "control_change channel=0 control=64 value=65 time=30\n",
      "control_change channel=0 control=64 value=66 time=16\n",
      "control_change channel=0 control=64 value=66 time=29\n",
      "control_change channel=0 control=64 value=67 time=31\n",
      "control_change channel=0 control=64 value=67 time=61\n",
      "note_on channel=0 note=51 velocity=0 time=151\n",
      "control_change channel=0 control=64 value=67 time=130\n",
      "note_on channel=0 note=67 velocity=0 time=29\n",
      "note_on channel=0 note=58 velocity=0 time=26\n",
      "note_on channel=0 note=75 velocity=0 time=3\n",
      "control_change channel=0 control=64 value=66 time=48\n",
      "control_change channel=0 control=64 value=66 time=62\n",
      "control_change channel=0 control=64 value=65 time=46\n",
      "control_change channel=0 control=64 value=65 time=46\n",
      "control_change channel=0 control=64 value=64 time=30\n",
      "control_change channel=0 control=64 value=64 time=15\n",
      "control_change channel=0 control=64 value=63 time=76\n",
      "control_change channel=0 control=64 value=63 time=45\n",
      "control_change channel=0 control=64 value=62 time=45\n",
      "control_change channel=0 control=64 value=62 time=76\n",
      "control_change channel=0 control=64 value=61 time=31\n",
      "control_change channel=0 control=64 value=61 time=31\n",
      "control_change channel=0 control=64 value=60 time=69\n",
      "control_change channel=0 control=64 value=60 time=29\n",
      "control_change channel=0 control=64 value=59 time=30\n",
      "control_change channel=0 control=64 value=59 time=15\n",
      "control_change channel=0 control=64 value=58 time=31\n",
      "control_change channel=0 control=64 value=58 time=16\n",
      "control_change channel=0 control=64 value=57 time=14\n",
      "control_change channel=0 control=64 value=57 time=31\n",
      "control_change channel=0 control=64 value=56 time=15\n",
      "control_change channel=0 control=64 value=56 time=31\n",
      "control_change channel=0 control=64 value=55 time=31\n",
      "control_change channel=0 control=64 value=55 time=30\n",
      "control_change channel=0 control=64 value=54 time=61\n",
      "control_change channel=0 control=64 value=54 time=167\n",
      "control_change channel=0 control=64 value=53 time=138\n",
      "control_change channel=0 control=64 value=53 time=113\n",
      "control_change channel=0 control=64 value=52 time=242\n",
      "control_change channel=0 control=64 value=52 time=124\n",
      "control_change channel=0 control=64 value=51 time=29\n",
      "control_change channel=0 control=64 value=51 time=31\n",
      "control_change channel=0 control=64 value=50 time=62\n",
      "control_change channel=0 control=64 value=50 time=60\n",
      "control_change channel=0 control=64 value=49 time=15\n",
      "control_change channel=0 control=64 value=48 time=16\n",
      "control_change channel=0 control=64 value=47 time=14\n",
      "control_change channel=0 control=64 value=47 time=31\n",
      "control_change channel=0 control=64 value=46 time=31\n",
      "control_change channel=0 control=64 value=45 time=14\n",
      "control_change channel=0 control=64 value=44 time=16\n",
      "control_change channel=0 control=64 value=43 time=15\n",
      "control_change channel=0 control=64 value=42 time=14\n",
      "control_change channel=0 control=64 value=42 time=16\n",
      "control_change channel=0 control=64 value=40 time=15\n",
      "control_change channel=0 control=64 value=39 time=24\n",
      "control_change channel=0 control=64 value=38 time=15\n",
      "control_change channel=0 control=64 value=36 time=14\n",
      "control_change channel=0 control=64 value=34 time=16\n",
      "control_change channel=0 control=64 value=32 time=15\n",
      "control_change channel=0 control=64 value=30 time=16\n",
      "control_change channel=0 control=64 value=29 time=15\n",
      "control_change channel=0 control=64 value=25 time=14\n",
      "control_change channel=0 control=64 value=21 time=16\n",
      "control_change channel=0 control=64 value=18 time=15\n",
      "control_change channel=0 control=64 value=17 time=14\n",
      "control_change channel=0 control=64 value=15 time=16\n",
      "control_change channel=0 control=64 value=13 time=15\n",
      "control_change channel=0 control=64 value=10 time=16\n",
      "control_change channel=0 control=64 value=0 time=45\n",
      "control_change channel=0 control=64 value=10 time=335\n",
      "control_change channel=0 control=64 value=13 time=153\n",
      "control_change channel=0 control=64 value=15 time=250\n",
      "control_change channel=0 control=64 value=17 time=365\n",
      "control_change channel=0 control=64 value=18 time=30\n",
      "note_on channel=0 note=70 velocity=80 time=46\n",
      "control_change channel=0 control=64 value=17 time=61\n",
      "control_change channel=0 control=64 value=15 time=15\n",
      "control_change channel=0 control=64 value=13 time=38\n",
      "note_on channel=0 note=67 velocity=66 time=0\n",
      "note_on channel=0 note=70 velocity=0 time=9\n",
      "control_change channel=0 control=64 value=10 time=82\n",
      "note_on channel=0 note=65 velocity=68 time=14\n",
      "note_on channel=0 note=67 velocity=0 time=2\n",
      "note_on channel=0 note=65 velocity=0 time=82\n",
      "control_change channel=0 control=64 value=0 time=9\n",
      "note_on channel=0 note=67 velocity=72 time=1\n",
      "note_on channel=0 note=67 velocity=0 time=73\n",
      "note_on channel=0 note=63 velocity=78 time=29\n",
      "note_on channel=0 note=63 velocity=0 time=69\n",
      "note_on channel=0 note=68 velocity=72 time=33\n",
      "note_on channel=0 note=68 velocity=0 time=63\n",
      "note_on channel=0 note=67 velocity=82 time=38\n",
      "note_on channel=0 note=67 velocity=0 time=57\n",
      "note_on channel=0 note=68 velocity=88 time=43\n",
      "note_on channel=0 note=68 velocity=0 time=72\n",
      "note_on channel=0 note=72 velocity=91 time=51\n",
      "note_on channel=0 note=72 velocity=0 time=183\n",
      "note_on channel=0 note=70 velocity=68 time=52\n",
      "note_on channel=0 note=70 velocity=0 time=299\n",
      "note_on channel=0 note=69 velocity=77 time=120\n",
      "note_on channel=0 note=69 velocity=0 time=61\n",
      "note_on channel=0 note=65 velocity=78 time=24\n",
      "note_on channel=0 note=65 velocity=0 time=55\n",
      "note_on channel=0 note=75 velocity=91 time=52\n",
      "note_on channel=0 note=75 velocity=0 time=172\n",
      "note_on channel=0 note=74 velocity=91 time=49\n",
      "note_on channel=0 note=72 velocity=91 time=200\n",
      "note_on channel=0 note=74 velocity=0 time=0\n",
      "note_on channel=0 note=72 velocity=0 time=157\n",
      "note_on channel=0 note=74 velocity=52 time=52\n",
      "note_on channel=0 note=74 velocity=0 time=31\n",
      "note_on channel=0 note=72 velocity=60 time=25\n",
      "note_on channel=0 note=72 velocity=0 time=21\n",
      "note_on channel=0 note=74 velocity=67 time=29\n",
      "note_on channel=0 note=72 velocity=78 time=50\n",
      "note_on channel=0 note=74 velocity=0 time=0\n",
      "note_on channel=0 note=70 velocity=88 time=50\n",
      "note_on channel=0 note=72 velocity=0 time=20\n",
      "note_on channel=0 note=77 velocity=76 time=100\n",
      "note_on channel=0 note=70 velocity=0 time=63\n",
      "note_on channel=0 note=77 velocity=0 time=16\n",
      "note_on channel=0 note=74 velocity=73 time=21\n",
      "note_on channel=0 note=70 velocity=74 time=102\n",
      "note_on channel=0 note=74 velocity=0 time=7\n",
      "note_on channel=0 note=70 velocity=0 time=61\n",
      "note_on channel=0 note=68 velocity=75 time=31\n",
      "note_on channel=0 note=68 velocity=0 time=109\n",
      "note_on channel=0 note=77 velocity=70 time=2\n",
      "note_on channel=0 note=77 velocity=0 time=93\n",
      "note_on channel=0 note=74 velocity=69 time=10\n",
      "note_on channel=0 note=74 velocity=0 time=74\n",
      "note_on channel=0 note=68 velocity=72 time=29\n",
      "note_on channel=0 note=68 velocity=0 time=49\n",
      "note_on channel=0 note=63 velocity=78 time=65\n",
      "note_on channel=0 note=67 velocity=74 time=1\n",
      "note_on channel=0 note=62 velocity=75 time=111\n",
      "note_on channel=0 note=63 velocity=0 time=0\n",
      "note_on channel=0 note=67 velocity=0 time=99\n",
      "note_on channel=0 note=62 velocity=0 time=15\n",
      "note_on channel=0 note=80 velocity=79 time=7\n",
      "note_on channel=0 note=60 velocity=58 time=2\n",
      "note_on channel=0 note=59 velocity=53 time=17\n",
      "note_on channel=0 note=59 velocity=0 time=30\n",
      "note_on channel=0 note=60 velocity=0 time=18\n",
      "note_on channel=0 note=62 velocity=78 time=41\n",
      "note_on channel=0 note=80 velocity=0 time=38\n",
      "note_on channel=0 note=62 velocity=0 time=36\n",
      "note_on channel=0 note=58 velocity=77 time=32\n",
      "note_on channel=0 note=79 velocity=73 time=10\n",
      "note_on channel=0 note=58 velocity=0 time=97\n",
      "note_on channel=0 note=63 velocity=83 time=2\n",
      "note_on channel=0 note=79 velocity=0 time=42\n",
      "note_on channel=0 note=63 velocity=0 time=66\n",
      "note_on channel=0 note=77 velocity=77 time=0\n",
      "note_on channel=0 note=62 velocity=80 time=10\n",
      "note_on channel=0 note=63 velocity=86 time=109\n",
      "note_on channel=0 note=62 velocity=0 time=18\n",
      "note_on channel=0 note=63 velocity=0 time=61\n",
      "note_on channel=0 note=77 velocity=0 time=25\n",
      "note_on channel=0 note=67 velocity=92 time=12\n",
      "note_on channel=0 note=75 velocity=76 time=18\n",
      "note_on channel=0 note=75 velocity=0 time=73\n",
      "note_on channel=0 note=72 velocity=75 time=37\n",
      "note_on channel=0 note=67 velocity=0 time=56\n",
      "note_on channel=0 note=72 velocity=0 time=6\n",
      "note_on channel=0 note=74 velocity=73 time=58\n",
      "note_on channel=0 note=65 velocity=76 time=6\n",
      "note_on channel=0 note=74 velocity=0 time=37\n",
      "note_on channel=0 note=75 velocity=79 time=62\n",
      "note_on channel=0 note=75 velocity=0 time=48\n",
      "note_on channel=0 note=65 velocity=0 time=48\n",
      "note_on channel=0 note=77 velocity=92 time=29\n",
      "note_on channel=0 note=62 velocity=66 time=214\n",
      "note_on channel=0 note=62 velocity=0 time=58\n",
      "note_on channel=0 note=58 velocity=68 time=45\n",
      "note_on channel=0 note=58 velocity=0 time=57\n",
      "note_on channel=0 note=68 velocity=91 time=64\n",
      "note_on channel=0 note=77 velocity=0 time=59\n",
      "note_on channel=0 note=75 velocity=74 time=62\n",
      "note_on channel=0 note=68 velocity=0 time=17\n",
      "note_on channel=0 note=75 velocity=0 time=55\n",
      "note_on channel=0 note=67 velocity=89 time=50\n",
      "note_on channel=0 note=77 velocity=65 time=10\n",
      "note_on channel=0 note=79 velocity=68 time=101\n",
      "note_on channel=0 note=77 velocity=0 time=52\n",
      "note_on channel=0 note=67 velocity=0 time=49\n",
      "note_on channel=0 note=65 velocity=88 time=15\n",
      "note_on channel=0 note=80 velocity=75 time=4\n",
      "note_on channel=0 note=79 velocity=0 time=10\n",
      "note_on channel=0 note=77 velocity=64 time=90\n",
      "note_on channel=0 note=80 velocity=0 time=5\n",
      "note_on channel=0 note=65 velocity=0 time=44\n",
      "note_on channel=0 note=65 velocity=3 time=0\n",
      "note_on channel=0 note=65 velocity=0 time=24\n",
      "note_on channel=0 note=77 velocity=0 time=27\n",
      "note_on channel=0 note=67 velocity=64 time=2\n",
      "note_on channel=0 note=70 velocity=61 time=23\n",
      "note_on channel=0 note=67 velocity=0 time=6\n",
      "note_on channel=0 note=65 velocity=65 time=35\n",
      "note_on channel=0 note=65 velocity=0 time=23\n",
      "note_on channel=0 note=67 velocity=64 time=19\n",
      "note_on channel=0 note=67 velocity=0 time=28\n",
      "note_on channel=0 note=80 velocity=56 time=1\n",
      "note_on channel=0 note=70 velocity=0 time=19\n",
      "note_on channel=0 note=65 velocity=71 time=4\n",
      "note_on channel=0 note=63 velocity=78 time=54\n",
      "note_on channel=0 note=80 velocity=0 time=2\n",
      "note_on channel=0 note=65 velocity=0 time=2\n",
      "note_on channel=0 note=79 velocity=72 time=9\n",
      "note_on channel=0 note=63 velocity=0 time=103\n",
      "note_on channel=0 note=70 velocity=65 time=15\n",
      "note_on channel=0 note=70 velocity=0 time=50\n",
      "note_on channel=0 note=79 velocity=0 time=29\n",
      "note_on channel=0 note=67 velocity=51 time=27\n",
      "note_on channel=0 note=75 velocity=74 time=2\n",
      "note_on channel=0 note=67 velocity=0 time=54\n",
      "note_on channel=0 note=75 velocity=0 time=7\n",
      "note_on channel=0 note=79 velocity=80 time=41\n",
      "note_on channel=0 note=65 velocity=52 time=6\n",
      "note_on channel=0 note=79 velocity=0 time=61\n",
      "note_on channel=0 note=65 velocity=0 time=18\n",
      "note_on channel=0 note=84 velocity=84 time=34\n",
      "note_on channel=0 note=63 velocity=43 time=14\n",
      "note_on channel=0 note=72 velocity=59 time=117\n",
      "note_on channel=0 note=72 velocity=0 time=44\n",
      "note_on channel=0 note=63 velocity=0 time=25\n",
      "note_on channel=0 note=69 velocity=58 time=41\n",
      "note_on channel=0 note=69 velocity=0 time=51\n",
      "note_on channel=0 note=65 velocity=46 time=69\n",
      "note_on channel=0 note=65 velocity=0 time=51\n",
      "note_on channel=0 note=62 velocity=49 time=51\n",
      "note_on channel=0 note=62 velocity=0 time=78\n",
      "note_on channel=0 note=69 velocity=48 time=43\n",
      "note_on channel=0 note=69 velocity=0 time=48\n",
      "note_on channel=0 note=74 velocity=62 time=49\n",
      "note_on channel=0 note=65 velocity=37 time=18\n",
      "note_on channel=0 note=84 velocity=0 time=9\n",
      "note_on channel=0 note=74 velocity=0 time=17\n",
      "note_on channel=0 note=65 velocity=0 time=5\n",
      "note_on channel=0 note=77 velocity=74 time=55\n",
      "note_on channel=0 note=63 velocity=46 time=10\n",
      "note_on channel=0 note=63 velocity=0 time=36\n",
      "note_on channel=0 note=77 velocity=0 time=1\n",
      "note_on channel=0 note=82 velocity=77 time=69\n",
      "note_on channel=0 note=61 velocity=47 time=15\n",
      "note_on channel=0 note=61 velocity=0 time=28\n",
      "note_on channel=0 note=70 velocity=57 time=70\n",
      "note_on channel=0 note=70 velocity=0 time=55\n",
      "note_on channel=0 note=67 velocity=58 time=47\n",
      "note_on channel=0 note=67 velocity=0 time=41\n",
      "note_on channel=0 note=63 velocity=61 time=69\n",
      "note_on channel=0 note=63 velocity=0 time=70\n",
      "note_on channel=0 note=60 velocity=50 time=68\n",
      "note_on channel=0 note=67 velocity=44 time=112\n",
      "note_on channel=0 note=60 velocity=0 time=25\n",
      "note_on channel=0 note=67 velocity=0 time=20\n",
      "note_on channel=0 note=72 velocity=57 time=55\n",
      "note_on channel=0 note=82 velocity=0 time=7\n",
      "note_on channel=0 note=63 velocity=38 time=3\n",
      "note_on channel=0 note=72 velocity=0 time=22\n",
      "note_on channel=0 note=63 velocity=0 time=30\n",
      "note_on channel=0 note=60 velocity=45 time=36\n",
      "note_on channel=0 note=75 velocity=67 time=4\n",
      "note_on channel=0 note=60 velocity=0 time=36\n",
      "note_on channel=0 note=75 velocity=0 time=6\n",
      "note_on channel=0 note=62 velocity=59 time=69\n",
      "note_on channel=0 note=80 velocity=84 time=0\n",
      "control_change channel=0 control=64 value=53 time=42\n",
      "control_change channel=0 control=64 value=56 time=16\n",
      "control_change channel=0 control=64 value=58 time=15\n",
      "note_on channel=0 note=62 velocity=0 time=10\n",
      "control_change channel=0 control=64 value=61 time=5\n",
      "control_change channel=0 control=64 value=64 time=15\n",
      "note_on channel=0 note=70 velocity=68 time=6\n",
      "control_change channel=0 control=64 value=66 time=9\n",
      "control_change channel=0 control=64 value=67 time=15\n",
      "control_change channel=0 control=64 value=68 time=16\n",
      "note_on channel=0 note=80 velocity=0 time=1\n",
      "control_change channel=0 control=64 value=70 time=14\n",
      "control_change channel=0 control=64 value=71 time=16\n",
      "control_change channel=0 control=64 value=73 time=15\n",
      "note_on channel=0 note=70 velocity=0 time=9\n",
      "control_change channel=0 control=64 value=76 time=6\n",
      "control_change channel=0 control=64 value=77 time=22\n",
      "note_on channel=0 note=63 velocity=68 time=9\n",
      "note_on channel=0 note=79 velocity=79 time=2\n",
      "control_change channel=0 control=64 value=79 time=4\n",
      "control_change channel=0 control=64 value=80 time=16\n",
      "note_on channel=0 note=63 velocity=0 time=5\n",
      "note_on channel=0 note=72 velocity=72 time=78\n",
      "control_change channel=0 control=64 value=79 time=69\n",
      "note_on channel=0 note=79 velocity=0 time=0\n",
      "control_change channel=0 control=64 value=78 time=15\n",
      "note_on channel=0 note=72 velocity=0 time=0\n",
      "control_change channel=0 control=64 value=75 time=15\n",
      "control_change channel=0 control=64 value=67 time=16\n",
      "note_on channel=0 note=74 velocity=74 time=9\n",
      "note_on channel=0 note=77 velocity=73 time=0\n",
      "control_change channel=0 control=64 value=49 time=6\n",
      "note_on channel=0 note=58 velocity=91 time=7\n",
      "control_change channel=0 control=64 value=0 time=8\n",
      "note_on channel=0 note=58 velocity=0 time=61\n",
      "note_on channel=0 note=74 velocity=0 time=18\n",
      "note_on channel=0 note=55 velocity=77 time=17\n",
      "note_on channel=0 note=55 velocity=0 time=118\n",
      "note_on channel=0 note=53 velocity=74 time=3\n",
      "note_on channel=0 note=73 velocity=79 time=3\n",
      "note_on channel=0 note=53 velocity=0 time=86\n",
      "note_on channel=0 note=55 velocity=76 time=22\n",
      "note_on channel=0 note=55 velocity=0 time=82\n",
      "note_on channel=0 note=77 velocity=0 time=7\n",
      "note_on channel=0 note=51 velocity=76 time=27\n",
      "note_on channel=0 note=72 velocity=80 time=12\n",
      "note_on channel=0 note=79 velocity=74 time=3\n",
      "note_on channel=0 note=73 velocity=0 time=2\n",
      "note_on channel=0 note=51 velocity=0 time=59\n",
      "note_on channel=0 note=56 velocity=80 time=45\n",
      "note_on channel=0 note=79 velocity=0 time=34\n",
      "note_on channel=0 note=56 velocity=0 time=22\n",
      "note_on channel=0 note=55 velocity=80 time=59\n",
      "note_on channel=0 note=70 velocity=74 time=13\n",
      "note_on channel=0 note=72 velocity=0 time=4\n",
      "note_on channel=0 note=74 velocity=66 time=4\n",
      "note_on channel=0 note=55 velocity=0 time=79\n",
      "note_on channel=0 note=56 velocity=86 time=11\n",
      "note_on channel=0 note=70 velocity=0 time=35\n",
      "note_on channel=0 note=56 velocity=0 time=9\n",
      "note_on channel=0 note=74 velocity=0 time=6\n",
      "note_on channel=0 note=60 velocity=92 time=79\n",
      "note_on channel=0 note=68 velocity=79 time=11\n",
      "note_on channel=0 note=75 velocity=68 time=5\n",
      "note_on channel=0 note=75 velocity=0 time=51\n",
      "note_on channel=0 note=68 velocity=0 time=7\n",
      "note_on channel=0 note=67 velocity=72 time=50\n",
      "note_on channel=0 note=60 velocity=0 time=54\n",
      "note_on channel=0 note=67 velocity=0 time=10\n",
      "note_on channel=0 note=58 velocity=74 time=59\n",
      "note_on channel=0 note=68 velocity=72 time=3\n",
      "note_on channel=0 note=68 velocity=0 time=58\n",
      "note_on channel=0 note=70 velocity=75 time=54\n",
      "note_on channel=0 note=70 velocity=0 time=46\n",
      "note_on channel=0 note=58 velocity=0 time=28\n",
      "note_on channel=0 note=72 velocity=80 time=52\n",
      "note_on channel=0 note=57 velocity=78 time=216\n",
      "note_on channel=0 note=77 velocity=78 time=5\n",
      "note_on channel=0 note=72 velocity=0 time=17\n",
      "note_on channel=0 note=57 velocity=0 time=41\n",
      "note_on channel=0 note=53 velocity=77 time=41\n",
      "note_on channel=0 note=53 velocity=0 time=91\n",
      "note_on channel=0 note=63 velocity=90 time=29\n",
      "note_on channel=0 note=79 velocity=77 time=11\n",
      "note_on channel=0 note=77 velocity=0 time=6\n",
      "note_on channel=0 note=70 velocity=73 time=106\n",
      "note_on channel=0 note=63 velocity=0 time=10\n",
      "note_on channel=0 note=70 velocity=0 time=61\n",
      "note_on channel=0 note=79 velocity=0 time=38\n",
      "note_on channel=0 note=62 velocity=84 time=15\n",
      "note_on channel=0 note=72 velocity=73 time=4\n",
      "note_on channel=0 note=72 velocity=0 time=103\n",
      "note_on channel=0 note=74 velocity=72 time=5\n",
      "note_on channel=0 note=74 velocity=0 time=58\n",
      "note_on channel=0 note=62 velocity=0 time=28\n",
      "note_on channel=0 note=60 velocity=78 time=33\n",
      "note_on channel=0 note=75 velocity=72 time=6\n",
      "control_change channel=0 control=64 value=44 time=18\n",
      "control_change channel=0 control=64 value=61 time=16\n",
      "control_change channel=0 control=64 value=65 time=15\n",
      "control_change channel=0 control=64 value=69 time=15\n",
      "note_on channel=0 note=75 velocity=0 time=2\n",
      "control_change channel=0 control=64 value=73 time=13\n",
      "control_change channel=0 control=64 value=78 time=16\n",
      "control_change channel=0 control=64 value=80 time=15\n",
      "note_on channel=0 note=72 velocity=66 time=7\n",
      "control_change channel=0 control=64 value=81 time=9\n",
      "control_change channel=0 control=64 value=82 time=15\n",
      "note_on channel=0 note=72 velocity=0 time=8\n",
      "note_on channel=0 note=81 velocity=65 time=73\n",
      "note_on channel=0 note=81 velocity=0 time=52\n",
      "control_change channel=0 control=64 value=82 time=4\n",
      "note_on channel=0 note=75 velocity=67 time=45\n",
      "note_on channel=0 note=75 velocity=0 time=45\n",
      "control_change channel=0 control=64 value=82 time=46\n",
      "note_on channel=0 note=60 velocity=0 time=6\n",
      "control_change channel=0 control=64 value=80 time=9\n",
      "control_change channel=0 control=64 value=77 time=16\n",
      "note_on channel=0 note=82 velocity=72 time=13\n",
      "control_change channel=0 control=64 value=70 time=1\n",
      "note_on channel=0 note=74 velocity=53 time=22\n",
      "control_change channel=0 control=64 value=56 time=2\n",
      "note_on channel=0 note=58 velocity=48 time=1\n",
      "control_change channel=0 control=64 value=0 time=14\n",
      "note_on channel=0 note=58 velocity=0 time=60\n",
      "note_on channel=0 note=74 velocity=0 time=15\n",
      "note_on channel=0 note=65 velocity=54 time=15\n",
      "note_on channel=0 note=65 velocity=0 time=46\n",
      "note_on channel=0 note=62 velocity=54 time=80\n",
      "note_on channel=0 note=77 velocity=63 time=7\n",
      "note_on channel=0 note=62 velocity=0 time=32\n",
      "note_on channel=0 note=58 velocity=57 time=72\n",
      "note_on channel=0 note=58 velocity=0 time=39\n",
      "note_on channel=0 note=74 velocity=66 time=75\n",
      "note_on channel=0 note=56 velocity=52 time=6\n",
      "note_on channel=0 note=77 velocity=0 time=65\n",
      "note_on channel=0 note=56 velocity=0 time=3\n",
      "note_on channel=0 note=65 velocity=57 time=45\n",
      "note_on channel=0 note=65 velocity=0 time=45\n",
      "note_on channel=0 note=74 velocity=0 time=54\n",
      "note_on channel=0 note=62 velocity=62 time=17\n",
      "note_on channel=0 note=70 velocity=66 time=7\n",
      "note_on channel=0 note=62 velocity=0 time=34\n",
      "note_on channel=0 note=56 velocity=60 time=76\n",
      "note_on channel=0 note=56 velocity=0 time=35\n",
      "note_on channel=0 note=82 velocity=0 time=3\n",
      "note_on channel=0 note=70 velocity=0 time=36\n",
      "note_on channel=0 note=55 velocity=51 time=50\n",
      "note_on channel=0 note=75 velocity=69 time=6\n",
      "note_on channel=0 note=55 velocity=0 time=106\n",
      "note_on channel=0 note=82 velocity=70 time=3\n",
      "note_on channel=0 note=75 velocity=0 time=30\n",
      "note_on channel=0 note=82 velocity=0 time=26\n",
      "note_on channel=0 note=63 velocity=46 time=60\n",
      "note_on channel=0 note=79 velocity=71 time=1\n",
      "note_on channel=0 note=79 velocity=0 time=64\n",
      "note_on channel=0 note=75 velocity=76 time=45\n",
      "note_on channel=0 note=75 velocity=0 time=55\n",
      "note_on channel=0 note=73 velocity=70 time=64\n",
      "note_on channel=0 note=73 velocity=0 time=76\n",
      "note_on channel=0 note=82 velocity=65 time=34\n",
      "note_on channel=0 note=82 velocity=0 time=44\n",
      "note_on channel=0 note=63 velocity=0 time=48\n",
      "note_on channel=0 note=51 velocity=53 time=22\n",
      "note_on channel=0 note=79 velocity=61 time=8\n",
      "note_on channel=0 note=51 velocity=0 time=42\n",
      "note_on channel=0 note=79 velocity=0 time=5\n",
      "note_on channel=0 note=73 velocity=67 time=57\n",
      "note_on channel=0 note=73 velocity=0 time=40\n",
      "note_on channel=0 note=56 velocity=62 time=80\n",
      "note_on channel=0 note=72 velocity=76 time=1\n",
      "note_on channel=0 note=56 velocity=0 time=99\n",
      "note_on channel=0 note=63 velocity=60 time=21\n",
      "note_on channel=0 note=63 velocity=0 time=56\n",
      "note_on channel=0 note=72 velocity=0 time=26\n",
      "note_on channel=0 note=60 velocity=54 time=41\n",
      "note_on channel=0 note=75 velocity=81 time=0\n",
      "note_on channel=0 note=60 velocity=0 time=40\n",
      "note_on channel=0 note=56 velocity=61 time=66\n",
      "note_on channel=0 note=56 velocity=0 time=46\n",
      "note_on channel=0 note=75 velocity=0 time=41\n",
      "note_on channel=0 note=55 velocity=47 time=46\n",
      "note_on channel=0 note=80 velocity=79 time=1\n",
      "note_on channel=0 note=72 velocity=68 time=12\n",
      "note_on channel=0 note=55 velocity=0 time=81\n",
      "note_on channel=0 note=63 velocity=52 time=28\n",
      "note_on channel=0 note=63 velocity=0 time=38\n",
      "note_on channel=0 note=72 velocity=0 time=11\n",
      "note_on channel=0 note=60 velocity=53 time=70\n",
      "note_on channel=0 note=68 velocity=57 time=3\n",
      "note_on channel=0 note=60 velocity=0 time=33\n",
      "note_on channel=0 note=55 velocity=41 time=83\n",
      "note_on channel=0 note=55 velocity=0 time=44\n",
      "note_on channel=0 note=68 velocity=0 time=18\n",
      "note_on channel=0 note=80 velocity=0 time=15\n",
      "note_on channel=0 note=53 velocity=66 time=38\n",
      "note_on channel=0 note=74 velocity=52 time=17\n",
      "note_on channel=0 note=80 velocity=60 time=107\n",
      "note_on channel=0 note=74 velocity=0 time=36\n",
      "note_on channel=0 note=80 velocity=0 time=10\n",
      "note_on channel=0 note=53 velocity=0 time=74\n",
      "note_on channel=0 note=62 velocity=61 time=5\n",
      "note_on channel=0 note=77 velocity=60 time=0\n",
      "note_on channel=0 note=77 velocity=0 time=61\n",
      "note_on channel=0 note=62 velocity=0 time=46\n",
      "note_on channel=0 note=74 velocity=68 time=0\n",
      "note_on channel=0 note=74 velocity=0 time=53\n",
      "note_on channel=0 note=72 velocity=72 time=61\n",
      "note_on channel=0 note=72 velocity=0 time=82\n",
      "note_on channel=0 note=80 velocity=72 time=25\n",
      "note_on channel=0 note=80 velocity=0 time=64\n",
      "note_on channel=0 note=50 velocity=61 time=48\n",
      "note_on channel=0 note=77 velocity=68 time=7\n",
      "note_on channel=0 note=77 velocity=0 time=67\n",
      "note_on channel=0 note=72 velocity=71 time=40\n",
      "note_on channel=0 note=50 velocity=0 time=30\n",
      "note_on channel=0 note=72 velocity=0 time=23\n",
      "note_on channel=0 note=55 velocity=54 time=63\n",
      "note_on channel=0 note=70 velocity=74 time=6\n",
      "note_on channel=0 note=55 velocity=0 time=67\n",
      "note_on channel=0 note=62 velocity=67 time=44\n",
      "note_on channel=0 note=62 velocity=0 time=68\n",
      "note_on channel=0 note=70 velocity=0 time=7\n",
      "note_on channel=0 note=58 velocity=69 time=50\n",
      "note_on channel=0 note=74 velocity=75 time=3\n",
      "note_on channel=0 note=58 velocity=0 time=50\n",
      "note_on channel=0 note=55 velocity=63 time=55\n",
      "note_on channel=0 note=55 velocity=0 time=41\n",
      "note_on channel=0 note=74 velocity=0 time=37\n",
      "note_on channel=0 note=79 velocity=74 time=33\n",
      "note_on channel=0 note=53 velocity=67 time=4\n",
      "note_on channel=0 note=70 velocity=65 time=11\n",
      "note_on channel=0 note=53 velocity=0 time=81\n",
      "note_on channel=0 note=61 velocity=70 time=19\n",
      "note_on channel=0 note=61 velocity=0 time=47\n",
      "note_on channel=0 note=70 velocity=0 time=42\n",
      "note_on channel=0 note=79 velocity=0 time=8\n",
      "note_on channel=0 note=67 velocity=70 time=19\n",
      "note_on channel=0 note=58 velocity=69 time=5\n",
      "note_on channel=0 note=58 velocity=0 time=42\n",
      "note_on channel=0 note=53 velocity=65 time=62\n",
      "note_on channel=0 note=53 velocity=0 time=52\n",
      "note_on channel=0 note=67 velocity=0 time=58\n",
      "note_on channel=0 note=72 velocity=71 time=20\n",
      "note_on channel=0 note=52 velocity=68 time=4\n",
      "note_on channel=0 note=52 velocity=0 time=103\n",
      "note_on channel=0 note=60 velocity=59 time=7\n",
      "note_on channel=0 note=60 velocity=0 time=67\n",
      "note_on channel=0 note=72 velocity=0 time=38\n",
      "note_on channel=0 note=55 velocity=54 time=15\n",
      "note_on channel=0 note=70 velocity=71 time=4\n",
      "note_on channel=0 note=55 velocity=0 time=40\n",
      "note_on channel=0 note=52 velocity=54 time=73\n",
      "note_on channel=0 note=52 velocity=0 time=45\n",
      "note_on channel=0 note=70 velocity=0 time=53\n",
      "note_on channel=0 note=53 velocity=57 time=20\n",
      "note_on channel=0 note=68 velocity=76 time=0\n",
      "note_on channel=0 note=53 velocity=0 time=48\n",
      "note_on channel=0 note=68 velocity=0 time=23\n",
      "note_on channel=0 note=72 velocity=71 time=36\n",
      "note_on channel=0 note=60 velocity=62 time=5\n",
      "note_on channel=0 note=60 velocity=0 time=59\n",
      "note_on channel=0 note=72 velocity=0 time=9\n",
      "note_on channel=0 note=74 velocity=72 time=40\n",
      "note_on channel=0 note=56 velocity=60 time=8\n",
      "note_on channel=0 note=56 velocity=0 time=45\n",
      "note_on channel=0 note=74 velocity=0 time=0\n",
      "note_on channel=0 note=75 velocity=79 time=56\n",
      "note_on channel=0 note=53 velocity=59 time=10\n",
      "note_on channel=0 note=53 velocity=0 time=40\n",
      "note_on channel=0 note=75 velocity=0 time=1\n",
      "note_on channel=0 note=77 velocity=92 time=59\n",
      "note_on channel=0 note=50 velocity=56 time=17\n",
      "note_on channel=0 note=50 velocity=0 time=80\n",
      "note_on channel=0 note=72 velocity=68 time=18\n",
      "note_on channel=0 note=58 velocity=56 time=11\n",
      "note_on channel=0 note=58 velocity=0 time=29\n",
      "note_on channel=0 note=72 velocity=0 time=31\n",
      "note_on channel=0 note=70 velocity=65 time=48\n",
      "note_on channel=0 note=53 velocity=51 time=5\n",
      "note_on channel=0 note=70 velocity=0 time=29\n",
      "note_on channel=0 note=53 velocity=0 time=9\n",
      "note_on channel=0 note=77 velocity=0 time=35\n",
      "note_on channel=0 note=68 velocity=64 time=25\n",
      "note_on channel=0 note=50 velocity=34 time=18\n",
      "note_on channel=0 note=68 velocity=0 time=27\n",
      "note_on channel=0 note=50 velocity=0 time=13\n",
      "note_on channel=0 note=51 velocity=46 time=66\n",
      "note_on channel=0 note=67 velocity=66 time=2\n",
      "note_on channel=0 note=51 velocity=0 time=46\n",
      "note_on channel=0 note=58 velocity=52 time=77\n",
      "note_on channel=0 note=58 velocity=0 time=55\n",
      "note_on channel=0 note=67 velocity=0 time=46\n",
      "note_on channel=0 note=75 velocity=79 time=23\n",
      "note_on channel=0 note=55 velocity=39 time=10\n",
      "note_on channel=0 note=55 velocity=0 time=48\n",
      "note_on channel=0 note=51 velocity=52 time=35\n",
      "note_on channel=0 note=51 velocity=0 time=28\n",
      "note_on channel=0 note=46 velocity=66 time=92\n",
      "note_on channel=0 note=65 velocity=63 time=17\n",
      "note_on channel=0 note=65 velocity=0 time=82\n",
      "note_on channel=0 note=75 velocity=0 time=0\n",
      "note_on channel=0 note=74 velocity=72 time=25\n",
      "note_on channel=0 note=46 velocity=0 time=111\n",
      "note_on channel=0 note=56 velocity=77 time=4\n",
      "note_on channel=0 note=72 velocity=77 time=4\n",
      "note_on channel=0 note=74 velocity=0 time=5\n",
      "note_on channel=0 note=46 velocity=27 time=7\n",
      "note_on channel=0 note=72 velocity=0 time=66\n",
      "note_on channel=0 note=74 velocity=78 time=36\n",
      "note_on channel=0 note=56 velocity=0 time=3\n",
      "note_on channel=0 note=46 velocity=0 time=100\n",
      "note_on channel=0 note=74 velocity=0 time=0\n",
      "note_on channel=0 note=70 velocity=88 time=43\n",
      "note_on channel=0 note=55 velocity=71 time=1\n",
      "note_on channel=0 note=70 velocity=0 time=54\n",
      "note_on channel=0 note=75 velocity=89 time=53\n",
      "note_on channel=0 note=75 velocity=0 time=65\n",
      "note_on channel=0 note=55 velocity=0 time=44\n",
      "note_on channel=0 note=74 velocity=85 time=19\n",
      "note_on channel=0 note=53 velocity=80 time=9\n",
      "note_on channel=0 note=74 velocity=0 time=49\n",
      "note_on channel=0 note=75 velocity=81 time=52\n",
      "note_on channel=0 note=53 velocity=0 time=9\n",
      "note_on channel=0 note=75 velocity=0 time=49\n",
      "note_on channel=0 note=51 velocity=72 time=70\n",
      "note_on channel=0 note=79 velocity=81 time=2\n",
      "note_on channel=0 note=51 velocity=0 time=79\n",
      "note_on channel=0 note=48 velocity=71 time=30\n",
      "note_on channel=0 note=48 velocity=0 time=53\n",
      "note_on channel=0 note=79 velocity=0 time=8\n",
      "note_on channel=0 note=77 velocity=69 time=59\n",
      "note_on channel=0 note=50 velocity=62 time=2\n",
      "note_on channel=0 note=68 velocity=67 time=2\n",
      "note_on channel=0 note=68 velocity=0 time=31\n",
      "note_on channel=0 note=50 velocity=0 time=11\n",
      "note_on channel=0 note=51 velocity=64 time=62\n",
      "note_on channel=0 note=67 velocity=72 time=6\n",
      "note_on channel=0 note=67 velocity=0 time=52\n",
      "note_on channel=0 note=51 velocity=0 time=6\n",
      "note_on channel=0 note=77 velocity=0 time=14\n",
      "note_on channel=0 note=53 velocity=73 time=50\n",
      "note_on channel=0 note=68 velocity=89 time=10\n",
      "note_on channel=0 note=53 velocity=0 time=18\n",
      "note_on channel=0 note=68 velocity=0 time=175\n",
      "note_on channel=0 note=65 velocity=77 time=30\n",
      "note_on channel=0 note=74 velocity=78 time=2\n",
      "note_on channel=0 note=65 velocity=0 time=26\n",
      "note_on channel=0 note=74 velocity=0 time=33\n",
      "note_on channel=0 note=70 velocity=80 time=39\n",
      "note_on channel=0 note=70 velocity=0 time=67\n",
      "note_on channel=0 note=80 velocity=88 time=55\n",
      "note_on channel=0 note=62 velocity=74 time=9\n",
      "note_on channel=0 note=62 velocity=0 time=82\n",
      "note_on channel=0 note=51 velocity=55 time=47\n",
      "note_on channel=0 note=80 velocity=0 time=38\n",
      "note_on channel=0 note=51 velocity=0 time=48\n",
      "note_on channel=0 note=75 velocity=75 time=27\n",
      "note_on channel=0 note=79 velocity=79 time=0\n",
      "note_on channel=0 note=53 velocity=55 time=8\n",
      "note_on channel=0 note=53 velocity=0 time=44\n",
      "note_on channel=0 note=55 velocity=65 time=68\n",
      "note_on channel=0 note=55 velocity=0 time=35\n",
      "note_on channel=0 note=79 velocity=0 time=11\n",
      "note_on channel=0 note=75 velocity=0 time=22\n",
      "note_on channel=0 note=77 velocity=78 time=51\n",
      "note_on channel=0 note=56 velocity=51 time=2\n",
      "note_on channel=0 note=56 velocity=0 time=72\n",
      "note_on channel=0 note=53 velocity=58 time=43\n",
      "note_on channel=0 note=53 velocity=0 time=55\n",
      "note_on channel=0 note=77 velocity=0 time=58\n",
      "note_on channel=0 note=74 velocity=62 time=7\n",
      "note_on channel=0 note=46 velocity=46 time=9\n",
      "note_on channel=0 note=46 velocity=0 time=41\n",
      "note_on channel=0 note=56 velocity=63 time=69\n",
      "note_on channel=0 note=56 velocity=0 time=45\n",
      "note_on channel=0 note=74 velocity=0 time=49\n",
      "note_on channel=0 note=55 velocity=77 time=33\n",
      "note_on channel=0 note=75 velocity=71 time=8\n",
      "note_on channel=0 note=82 velocity=60 time=117\n",
      "note_on channel=0 note=75 velocity=0 time=18\n",
      "note_on channel=0 note=82 velocity=0 time=97\n",
      "note_on channel=0 note=58 velocity=78 time=5\n",
      "note_on channel=0 note=55 velocity=0 time=4\n",
      "note_on channel=0 note=79 velocity=63 time=4\n",
      "note_on channel=0 note=79 velocity=0 time=100\n",
      "note_on channel=0 note=75 velocity=59 time=11\n",
      "note_on channel=0 note=75 velocity=0 time=89\n",
      "note_on channel=0 note=58 velocity=0 time=9\n",
      "note_on channel=0 note=63 velocity=87 time=19\n",
      "note_on channel=0 note=73 velocity=68 time=12\n",
      "note_on channel=0 note=82 velocity=60 time=116\n",
      "note_on channel=0 note=73 velocity=0 time=2\n",
      "note_on channel=0 note=82 velocity=0 time=105\n",
      "note_on channel=0 note=51 velocity=37 time=6\n",
      "note_on channel=0 note=79 velocity=56 time=19\n",
      "note_on channel=0 note=51 velocity=0 time=13\n",
      "note_on channel=0 note=79 velocity=0 time=31\n",
      "note_on channel=0 note=73 velocity=60 time=51\n",
      "note_on channel=0 note=73 velocity=0 time=38\n",
      "note_on channel=0 note=63 velocity=0 time=74\n",
      "note_on channel=0 note=72 velocity=79 time=3\n",
      "note_on channel=0 note=56 velocity=49 time=17\n",
      "note_on channel=0 note=56 velocity=0 time=70\n",
      "note_on channel=0 note=63 velocity=54 time=42\n",
      "note_on channel=0 note=63 velocity=0 time=76\n",
      "note_on channel=0 note=60 velocity=41 time=53\n",
      "note_on channel=0 note=72 velocity=0 time=2\n",
      "note_on channel=0 note=80 velocity=69 time=0\n",
      "note_on channel=0 note=60 velocity=0 time=33\n",
      "note_on channel=0 note=56 velocity=53 time=73\n",
      "note_on channel=0 note=56 velocity=0 time=44\n",
      "note_on channel=0 note=55 velocity=56 time=71\n",
      "note_on channel=0 note=55 velocity=0 time=58\n",
      "note_on channel=0 note=80 velocity=0 time=4\n",
      "note_on channel=0 note=63 velocity=58 time=44\n",
      "note_on channel=0 note=63 velocity=0 time=42\n",
      "note_on channel=0 note=68 velocity=65 time=67\n",
      "note_on channel=0 note=60 velocity=58 time=5\n",
      "note_on channel=0 note=60 velocity=0 time=40\n",
      "note_on channel=0 note=55 velocity=62 time=56\n",
      "note_on channel=0 note=55 velocity=0 time=50\n",
      "note_on channel=0 note=68 velocity=0 time=13\n",
      "note_on channel=0 note=53 velocity=78 time=61\n",
      "note_on channel=0 note=74 velocity=64 time=6\n",
      "note_on channel=0 note=80 velocity=69 time=116\n",
      "note_on channel=0 note=74 velocity=0 time=47\n",
      "note_on channel=0 note=80 velocity=0 time=20\n",
      "note_on channel=0 note=53 velocity=0 time=17\n",
      "note_on channel=0 note=56 velocity=79 time=39\n",
      "note_on channel=0 note=77 velocity=72 time=8\n",
      "note_on channel=0 note=77 velocity=0 time=98\n",
      "note_on channel=0 note=74 velocity=66 time=11\n",
      "note_on channel=0 note=56 velocity=0 time=39\n",
      "note_on channel=0 note=56 velocity=7 time=0\n",
      "note_on channel=0 note=56 velocity=0 time=70\n",
      "note_on channel=0 note=74 velocity=0 time=0\n",
      "note_on channel=0 note=62 velocity=86 time=19\n",
      "note_on channel=0 note=72 velocity=77 time=5\n",
      "note_on channel=0 note=72 velocity=0 time=101\n",
      "note_on channel=0 note=80 velocity=63 time=15\n",
      "note_on channel=0 note=80 velocity=0 time=90\n",
      "note_on channel=0 note=50 velocity=60 time=33\n",
      "note_on channel=0 note=77 velocity=58 time=3\n",
      "note_on channel=0 note=50 velocity=0 time=31\n",
      "note_on channel=0 note=77 velocity=0 time=18\n",
      "note_on channel=0 note=72 velocity=63 time=49\n",
      "note_on channel=0 note=72 velocity=0 time=55\n",
      "note_on channel=0 note=62 velocity=0 time=67\n",
      "note_on channel=0 note=71 velocity=73 time=9\n",
      "note_on channel=0 note=55 velocity=56 time=9\n",
      "note_on channel=0 note=55 velocity=0 time=84\n",
      "note_on channel=0 note=62 velocity=56 time=37\n",
      "note_on channel=0 note=62 velocity=0 time=60\n",
      "note_on channel=0 note=71 velocity=0 time=42\n",
      "note_on channel=0 note=59 velocity=59 time=19\n",
      "note_on channel=0 note=79 velocity=62 time=10\n",
      "note_on channel=0 note=59 velocity=0 time=31\n",
      "note_on channel=0 note=55 velocity=61 time=69\n",
      "note_on channel=0 note=55 velocity=0 time=40\n",
      "note_on channel=0 note=79 velocity=0 time=55\n",
      "note_on channel=0 note=53 velocity=66 time=18\n",
      "note_on channel=0 note=53 velocity=0 time=56\n",
      "note_on channel=0 note=62 velocity=63 time=61\n",
      "note_on channel=0 note=62 velocity=0 time=64\n",
      "note_on channel=0 note=59 velocity=58 time=51\n",
      "note_on channel=0 note=67 velocity=72 time=1\n",
      "note_on channel=0 note=59 velocity=0 time=39\n",
      "note_on channel=0 note=53 velocity=64 time=66\n",
      "note_on channel=0 note=53 velocity=0 time=53\n",
      "note_on channel=0 note=67 velocity=0 time=19\n",
      "note_on channel=0 note=52 velocity=72 time=57\n",
      "note_on channel=0 note=72 velocity=67 time=2\n",
      "note_on channel=0 note=52 velocity=0 time=53\n",
      "note_on channel=0 note=72 velocity=0 time=17\n",
      "note_on channel=0 note=79 velocity=63 time=36\n",
      "note_on channel=0 note=79 velocity=0 time=98\n",
      "note_on channel=0 note=55 velocity=75 time=34\n",
      "note_on channel=0 note=76 velocity=65 time=6\n",
      "note_on channel=0 note=55 velocity=0 time=43\n",
      "note_on channel=0 note=76 velocity=0 time=12\n",
      "note_on channel=0 note=72 velocity=67 time=54\n",
      "note_on channel=0 note=72 velocity=0 time=62\n",
      "note_on channel=0 note=60 velocity=83 time=60\n",
      "note_on channel=0 note=70 velocity=65 time=16\n",
      "note_on channel=0 note=70 velocity=0 time=97\n",
      "note_on channel=0 note=79 velocity=56 time=16\n",
      "note_on channel=0 note=79 velocity=0 time=110\n",
      "note_on channel=0 note=48 velocity=66 time=7\n",
      "note_on channel=0 note=76 velocity=53 time=9\n",
      "note_on channel=0 note=48 velocity=0 time=30\n",
      "note_on channel=0 note=76 velocity=0 time=34\n",
      "note_on channel=0 note=70 velocity=62 time=45\n",
      "note_on channel=0 note=70 velocity=0 time=45\n",
      "note_on channel=0 note=53 velocity=65 time=69\n",
      "note_on channel=0 note=69 velocity=59 time=13\n",
      "control_change channel=0 control=64 value=47 time=79\n",
      "control_change channel=0 control=64 value=59 time=16\n",
      "control_change channel=0 control=64 value=64 time=14\n",
      "note_on channel=0 note=69 velocity=0 time=3\n",
      "note_on channel=0 note=79 velocity=62 time=0\n",
      "control_change channel=0 control=64 value=66 time=12\n",
      "control_change channel=0 control=64 value=69 time=16\n",
      "control_change channel=0 control=64 value=72 time=15\n",
      "control_change channel=0 control=64 value=75 time=16\n",
      "note_on channel=0 note=53 velocity=0 time=3\n",
      "control_change channel=0 control=64 value=78 time=12\n",
      "note_on channel=0 note=79 velocity=0 time=11\n",
      "control_change channel=0 control=64 value=80 time=4\n",
      "note_on channel=0 note=51 velocity=67 time=6\n",
      "control_change channel=0 control=64 value=82 time=10\n",
      "note_on channel=0 note=72 velocity=73 time=4\n",
      "control_change channel=0 control=64 value=83 time=10\n",
      "control_change channel=0 control=64 value=85 time=16\n",
      "control_change channel=0 control=64 value=86 time=15\n",
      "note_on channel=0 note=72 velocity=0 time=14\n",
      "control_change channel=0 control=64 value=88 time=1\n",
      "control_change channel=0 control=64 value=90 time=16\n",
      "control_change channel=0 control=64 value=91 time=15\n",
      "note_on channel=0 note=60 velocity=0 time=9\n",
      "control_change channel=0 control=64 value=91 time=6\n",
      "note_on channel=0 note=67 velocity=78 time=5\n",
      "control_change channel=0 control=64 value=91 time=26\n",
      "control_change channel=0 control=64 value=89 time=15\n",
      "control_change channel=0 control=64 value=81 time=15\n",
      "note_on channel=0 note=51 velocity=0 time=11\n",
      "note_on channel=0 note=67 velocity=0 time=2\n",
      "control_change channel=0 control=64 value=63 time=2\n",
      "control_change channel=0 control=64 value=0 time=16\n",
      "note_on channel=0 note=59 velocity=70 time=28\n",
      "note_on channel=0 note=68 velocity=82 time=6\n",
      "note_on channel=0 note=50 velocity=58 time=12\n",
      "control_change channel=0 control=64 value=64 time=52\n",
      "control_change channel=0 control=64 value=73 time=15\n",
      "note_on channel=0 note=68 velocity=0 time=1\n",
      "control_change channel=0 control=64 value=86 time=15\n",
      "note_on channel=0 note=59 velocity=0 time=13\n",
      "control_change channel=0 control=64 value=98 time=2\n",
      "note_on channel=0 note=50 velocity=0 time=0\n",
      "control_change channel=0 control=64 value=108 time=15\n",
      "note_on channel=0 note=77 velocity=79 time=1\n",
      "note_on channel=0 note=68 velocity=35 time=5\n",
      "control_change channel=0 control=64 value=112 time=9\n",
      "note_on channel=0 note=68 velocity=0 time=15\n",
      "control_change channel=0 control=64 value=112 time=16\n",
      "control_change channel=0 control=64 value=103 time=15\n",
      "note_on channel=0 note=77 velocity=0 time=1\n",
      "control_change channel=0 control=64 value=85 time=15\n",
      "control_change channel=0 control=64 value=63 time=14\n",
      "control_change channel=0 control=64 value=0 time=15\n",
      "note_on channel=0 note=60 velocity=73 time=11\n",
      "note_on channel=0 note=74 velocity=77 time=3\n",
      "note_on channel=0 note=48 velocity=65 time=6\n",
      "control_change channel=0 control=64 value=64 time=26\n",
      "control_change channel=0 control=64 value=76 time=15\n",
      "note_on channel=0 note=60 velocity=0 time=3\n",
      "control_change channel=0 control=64 value=91 time=12\n",
      "control_change channel=0 control=64 value=105 time=16\n",
      "control_change channel=0 control=64 value=114 time=14\n",
      "note_on channel=0 note=68 velocity=89 time=11\n",
      "note_on channel=0 note=74 velocity=0 time=1\n",
      "control_change channel=0 control=64 value=121 time=3\n",
      "note_on channel=0 note=48 velocity=0 time=5\n",
      "control_change channel=0 control=64 value=123 time=11\n",
      "control_change channel=0 control=64 value=125 time=15\n",
      "control_change channel=0 control=64 value=124 time=15\n",
      "note_on channel=0 note=68 velocity=0 time=9\n",
      "control_change channel=0 control=64 value=118 time=6\n",
      "control_change channel=0 control=64 value=101 time=15\n",
      "control_change channel=0 control=64 value=81 time=16\n",
      "control_change channel=0 control=64 value=0 time=15\n",
      "note_on channel=0 note=67 velocity=78 time=14\n",
      "note_on channel=0 note=62 velocity=77 time=1\n",
      "note_on channel=0 note=47 velocity=65 time=13\n",
      "control_change channel=0 control=64 value=47 time=17\n",
      "control_change channel=0 control=64 value=70 time=15\n",
      "note_on channel=0 note=62 velocity=0 time=4\n",
      "control_change channel=0 control=64 value=84 time=12\n",
      "control_change channel=0 control=64 value=102 time=15\n",
      "control_change channel=0 control=64 value=111 time=16\n",
      "note_on channel=0 note=67 velocity=0 time=12\n",
      "control_change channel=0 control=64 value=113 time=3\n",
      "note_on channel=0 note=77 velocity=73 time=21\n",
      "note_on channel=0 note=77 velocity=0 time=42\n",
      "control_change channel=0 control=64 value=113 time=44\n",
      "note_on channel=0 note=47 velocity=0 time=2\n",
      "control_change channel=0 control=64 value=111 time=13\n",
      "note_on channel=0 note=74 velocity=77 time=8\n",
      "control_change channel=0 control=64 value=108 time=7\n",
      "note_on channel=0 note=43 velocity=54 time=1\n",
      "control_change channel=0 control=64 value=104 time=15\n",
      "control_change channel=0 control=64 value=101 time=15\n",
      "note_on channel=0 note=74 velocity=0 time=13\n",
      "control_change channel=0 control=64 value=100 time=3\n",
      "control_change channel=0 control=64 value=99 time=14\n",
      "control_change channel=0 control=64 value=99 time=38\n",
      "note_on channel=0 note=71 velocity=87 time=4\n",
      "note_on channel=0 note=43 velocity=0 time=50\n",
      "note_on channel=0 note=43 velocity=3 time=0\n",
      "note_on channel=0 note=71 velocity=0 time=1\n",
      "control_change channel=0 control=64 value=98 time=21\n",
      "control_change channel=0 control=64 value=95 time=15\n",
      "control_change channel=0 control=64 value=86 time=16\n",
      "note_on channel=0 note=48 velocity=81 time=11\n",
      "control_change channel=0 control=64 value=73 time=3\n",
      "note_on channel=0 note=43 velocity=0 time=3\n",
      "note_on channel=0 note=67 velocity=83 time=0\n",
      "control_change channel=0 control=64 value=0 time=12\n",
      "note_on channel=0 note=67 velocity=0 time=86\n",
      "note_on channel=0 note=75 velocity=73 time=9\n",
      "note_on channel=0 note=75 velocity=0 time=61\n",
      "note_on channel=0 note=48 velocity=0 time=22\n",
      "note_on channel=0 note=46 velocity=69 time=34\n",
      "note_on channel=0 note=72 velocity=73 time=2\n",
      "note_on channel=0 note=72 velocity=0 time=66\n",
      "note_on channel=0 note=67 velocity=67 time=36\n",
      "note_on channel=0 note=67 velocity=0 time=36\n",
      "note_on channel=0 note=46 velocity=0 time=48\n",
      "note_on channel=0 note=45 velocity=61 time=30\n",
      "note_on channel=0 note=66 velocity=70 time=14\n",
      "note_on channel=0 note=45 velocity=0 time=55\n",
      "note_on channel=0 note=66 velocity=0 time=19\n",
      "note_on channel=0 note=75 velocity=60 time=33\n",
      "note_on channel=0 note=75 velocity=0 time=109\n",
      "note_on channel=0 note=72 velocity=70 time=6\n",
      "note_on channel=0 note=57 velocity=71 time=1\n",
      "note_on channel=0 note=72 velocity=0 time=55\n",
      "note_on channel=0 note=69 velocity=77 time=49\n",
      "note_on channel=0 note=69 velocity=0 time=64\n",
      "note_on channel=0 note=57 velocity=0 time=34\n",
      "note_on channel=0 note=59 velocity=76 time=34\n",
      "note_on channel=0 note=65 velocity=86 time=0\n",
      "note_on channel=0 note=74 velocity=82 time=112\n",
      "note_on channel=0 note=65 velocity=0 time=20\n",
      "note_on channel=0 note=59 velocity=0 time=55\n",
      "note_on channel=0 note=71 velocity=81 time=41\n",
      "note_on channel=0 note=74 velocity=0 time=2\n",
      "note_on channel=0 note=55 velocity=71 time=3\n",
      "note_on channel=0 note=65 velocity=81 time=108\n",
      "note_on channel=0 note=71 velocity=0 time=6\n",
      "note_on channel=0 note=65 velocity=0 time=49\n",
      "note_on channel=0 note=55 velocity=0 time=43\n",
      "note_on channel=0 note=60 velocity=82 time=18\n",
      "note_on channel=0 note=64 velocity=90 time=11\n",
      "note_on channel=0 note=74 velocity=67 time=116\n",
      "note_on channel=0 note=64 velocity=0 time=5\n",
      "note_on channel=0 note=74 velocity=0 time=95\n",
      "note_on channel=0 note=60 velocity=0 time=11\n",
      "note_on channel=0 note=55 velocity=68 time=10\n",
      "note_on channel=0 note=71 velocity=67 time=6\n",
      "note_on channel=0 note=71 velocity=0 time=86\n",
      "note_on channel=0 note=67 velocity=69 time=25\n",
      "note_on channel=0 note=67 velocity=0 time=65\n",
      "note_on channel=0 note=55 velocity=0 time=20\n",
      "note_on channel=0 note=56 velocity=69 time=26\n",
      "note_on channel=0 note=63 velocity=81 time=7\n",
      "note_on channel=0 note=63 velocity=0 time=89\n",
      "note_on channel=0 note=72 velocity=48 time=34\n",
      "note_on channel=0 note=71 velocity=49 time=9\n",
      "note_on channel=0 note=71 velocity=0 time=23\n",
      "note_on channel=0 note=72 velocity=0 time=13\n",
      "note_on channel=0 note=56 velocity=0 time=32\n",
      "note_on channel=0 note=67 velocity=74 time=25\n",
      "note_on channel=0 note=51 velocity=77 time=2\n",
      "note_on channel=0 note=67 velocity=0 time=68\n",
      "note_on channel=0 note=63 velocity=75 time=42\n",
      "note_on channel=0 note=51 velocity=0 time=70\n",
      "note_on channel=0 note=63 velocity=0 time=0\n",
      "note_on channel=0 note=53 velocity=86 time=55\n",
      "note_on channel=0 note=62 velocity=84 time=0\n",
      "note_on channel=0 note=53 velocity=0 time=59\n",
      "note_on channel=0 note=72 velocity=69 time=52\n",
      "note_on channel=0 note=62 velocity=0 time=57\n",
      "note_on channel=0 note=72 velocity=0 time=34\n",
      "note_on channel=0 note=68 velocity=72 time=28\n",
      "note_on channel=0 note=51 velocity=61 time=13\n",
      "note_on channel=0 note=51 velocity=0 time=40\n",
      "note_on channel=0 note=68 velocity=0 time=19\n",
      "note_on channel=0 note=53 velocity=74 time=31\n",
      "note_on channel=0 note=65 velocity=71 time=5\n",
      "note_on channel=0 note=53 velocity=0 time=36\n",
      "note_on channel=0 note=65 velocity=0 time=12\n",
      "note_on channel=0 note=55 velocity=81 time=62\n",
      "note_on channel=0 note=62 velocity=80 time=4\n",
      "note_on channel=0 note=62 velocity=0 time=65\n",
      "note_on channel=0 note=71 velocity=78 time=42\n",
      "note_on channel=0 note=71 velocity=0 time=73\n",
      "note_on channel=0 note=55 velocity=0 time=47\n",
      "note_on channel=0 note=69 velocity=79 time=11\n",
      "note_on channel=0 note=69 velocity=0 time=53\n",
      "note_on channel=0 note=71 velocity=68 time=60\n",
      "note_on channel=0 note=60 velocity=91 time=114\n",
      "note_on channel=0 note=72 velocity=81 time=1\n",
      "note_on channel=0 note=71 velocity=0 time=11\n",
      "note_on channel=0 note=48 velocity=22 time=34\n",
      "note_on channel=0 note=48 velocity=0 time=1\n",
      "note_on channel=0 note=72 velocity=0 time=8\n",
      "note_on channel=0 note=60 velocity=0 time=56\n",
      "note_on channel=0 note=58 velocity=72 time=8\n",
      "note_on channel=0 note=58 velocity=0 time=104\n",
      "note_on channel=0 note=56 velocity=65 time=20\n",
      "note_on channel=0 note=77 velocity=74 time=2\n",
      "note_on channel=0 note=56 velocity=0 time=58\n",
      "note_on channel=0 note=58 velocity=71 time=54\n",
      "note_on channel=0 note=58 velocity=0 time=61\n",
      "note_on channel=0 note=77 velocity=0 time=7\n",
      "note_on channel=0 note=55 velocity=73 time=51\n",
      "note_on channel=0 note=75 velocity=79 time=17\n",
      "note_on channel=0 note=55 velocity=0 time=59\n",
      "note_on channel=0 note=60 velocity=82 time=40\n",
      "note_on channel=0 note=60 velocity=0 time=67\n",
      "note_on channel=0 note=75 velocity=0 time=5\n",
      "note_on channel=0 note=59 velocity=85 time=53\n",
      "note_on channel=0 note=74 velocity=78 time=1\n",
      "note_on channel=0 note=59 velocity=0 time=71\n",
      "note_on channel=0 note=60 velocity=86 time=35\n",
      "note_on channel=0 note=60 velocity=0 time=68\n",
      "note_on channel=0 note=63 velocity=95 time=55\n",
      "note_on channel=0 note=72 velocity=80 time=14\n",
      "note_on channel=0 note=74 velocity=0 time=13\n",
      "note_on channel=0 note=72 velocity=0 time=63\n",
      "note_on channel=0 note=69 velocity=73 time=36\n",
      "note_on channel=0 note=63 velocity=0 time=46\n",
      "note_on channel=0 note=69 velocity=0 time=10\n",
      "note_on channel=0 note=62 velocity=75 time=55\n",
      "note_on channel=0 note=71 velocity=70 time=7\n",
      "note_on channel=0 note=71 velocity=0 time=54\n",
      "note_on channel=0 note=72 velocity=77 time=54\n",
      "note_on channel=0 note=72 velocity=0 time=40\n",
      "note_on channel=0 note=62 velocity=0 time=34\n",
      "note_on channel=0 note=74 velocity=84 time=50\n",
      "note_on channel=0 note=59 velocity=72 time=219\n",
      "note_on channel=0 note=59 velocity=0 time=40\n",
      "note_on channel=0 note=55 velocity=70 time=67\n",
      "note_on channel=0 note=55 velocity=0 time=43\n",
      "note_on channel=0 note=65 velocity=94 time=77\n",
      "note_on channel=0 note=74 velocity=0 time=50\n",
      "note_on channel=0 note=72 velocity=68 time=82\n",
      "note_on channel=0 note=65 velocity=0 time=55\n",
      "note_on channel=0 note=72 velocity=0 time=15\n",
      "note_on channel=0 note=63 velocity=79 time=39\n",
      "note_on channel=0 note=74 velocity=71 time=11\n",
      "note_on channel=0 note=63 velocity=0 time=23\n",
      "note_on channel=0 note=74 velocity=0 time=40\n",
      "note_on channel=0 note=75 velocity=69 time=41\n",
      "note_on channel=0 note=75 velocity=0 time=53\n",
      "note_on channel=0 note=62 velocity=92 time=51\n",
      "note_on channel=0 note=77 velocity=82 time=7\n",
      "note_on channel=0 note=74 velocity=63 time=110\n",
      "note_on channel=0 note=77 velocity=0 time=4\n",
      "note_on channel=0 note=62 velocity=0 time=69\n",
      "note_on channel=0 note=74 velocity=0 time=23\n",
      "note_on channel=0 note=63 velocity=56 time=21\n",
      "note_on channel=0 note=67 velocity=61 time=6\n",
      "note_on channel=0 note=63 velocity=0 time=17\n",
      "note_on channel=0 note=62 velocity=60 time=34\n",
      "note_on channel=0 note=62 velocity=0 time=31\n",
      "note_on channel=0 note=63 velocity=65 time=7\n",
      "note_on channel=0 note=77 velocity=53 time=12\n",
      "note_on channel=0 note=63 velocity=0 time=23\n",
      "note_on channel=0 note=62 velocity=68 time=31\n",
      "note_on channel=0 note=77 velocity=0 time=61\n",
      "note_on channel=0 note=75 velocity=65 time=7\n",
      "note_on channel=0 note=60 velocity=73 time=3\n",
      "note_on channel=0 note=62 velocity=0 time=15\n",
      "note_on channel=0 note=67 velocity=0 time=30\n",
      "note_on channel=0 note=60 velocity=0 time=37\n",
      "note_on channel=0 note=59 velocity=72 time=20\n",
      "note_on channel=0 note=75 velocity=0 time=14\n",
      "note_on channel=0 note=79 velocity=69 time=0\n",
      "note_on channel=0 note=59 velocity=0 time=30\n",
      "note_on channel=0 note=79 velocity=0 time=28\n",
      "note_on channel=0 note=60 velocity=76 time=46\n",
      "note_on channel=0 note=75 velocity=85 time=3\n",
      "note_on channel=0 note=60 velocity=0 time=55\n",
      "note_on channel=0 note=75 velocity=0 time=5\n",
      "note_on channel=0 note=63 velocity=74 time=44\n",
      "note_on channel=0 note=74 velocity=85 time=2\n",
      "note_on channel=0 note=63 velocity=0 time=57\n",
      "note_on channel=0 note=74 velocity=0 time=11\n",
      "note_on channel=0 note=68 velocity=74 time=61\n",
      "note_on channel=0 note=72 velocity=79 time=0\n",
      "note_on channel=0 note=84 velocity=79 time=119\n",
      "note_on channel=0 note=72 velocity=0 time=86\n",
      "note_on channel=0 note=80 velocity=77 time=24\n",
      "note_on channel=0 note=84 velocity=0 time=5\n",
      "note_on channel=0 note=80 velocity=0 time=75\n",
      "note_on channel=0 note=77 velocity=78 time=46\n",
      "note_on channel=0 note=77 velocity=0 time=59\n",
      "note_on channel=0 note=74 velocity=71 time=54\n",
      "note_on channel=0 note=74 velocity=0 time=64\n",
      "note_on channel=0 note=77 velocity=73 time=41\n",
      "note_on channel=0 note=77 velocity=0 time=68\n",
      "note_on channel=0 note=74 velocity=69 time=41\n",
      "note_on channel=0 note=58 velocity=63 time=2\n",
      "note_on channel=0 note=74 velocity=0 time=43\n",
      "note_on channel=0 note=68 velocity=0 time=13\n",
      "note_on channel=0 note=58 velocity=0 time=28\n",
      "note_on channel=0 note=72 velocity=68 time=11\n",
      "note_on channel=0 note=62 velocity=68 time=6\n",
      "note_on channel=0 note=72 velocity=0 time=25\n",
      "note_on channel=0 note=62 velocity=0 time=80\n",
      "note_on channel=0 note=67 velocity=72 time=15\n",
      "note_on channel=0 note=70 velocity=80 time=3\n",
      "note_on channel=0 note=82 velocity=77 time=115\n",
      "note_on channel=0 note=70 velocity=0 time=40\n",
      "note_on channel=0 note=82 velocity=0 time=78\n",
      "note_on channel=0 note=79 velocity=73 time=9\n",
      "note_on channel=0 note=79 velocity=0 time=54\n",
      "note_on channel=0 note=75 velocity=82 time=52\n",
      "note_on channel=0 note=75 velocity=0 time=57\n",
      "note_on channel=0 note=72 velocity=77 time=61\n",
      "note_on channel=0 note=72 velocity=0 time=65\n",
      "note_on channel=0 note=75 velocity=75 time=36\n",
      "note_on channel=0 note=75 velocity=0 time=41\n",
      "note_on channel=0 note=72 velocity=71 time=79\n",
      "note_on channel=0 note=56 velocity=61 time=2\n",
      "note_on channel=0 note=67 velocity=0 time=30\n",
      "note_on channel=0 note=72 velocity=0 time=12\n",
      "note_on channel=0 note=56 velocity=0 time=14\n",
      "note_on channel=0 note=70 velocity=69 time=41\n",
      "note_on channel=0 note=60 velocity=48 time=12\n",
      "note_on channel=0 note=70 velocity=0 time=29\n",
      "note_on channel=0 note=60 velocity=0 time=38\n",
      "note_on channel=0 note=68 velocity=74 time=59\n",
      "control_change channel=0 control=64 value=43 time=6\n",
      "note_on channel=0 note=65 velocity=64 time=2\n",
      "control_change channel=0 control=64 value=64 time=13\n",
      "control_change channel=0 control=64 value=69 time=15\n",
      "note_on channel=0 note=65 velocity=0 time=0\n",
      "control_change channel=0 control=64 value=73 time=15\n",
      "control_change channel=0 control=64 value=77 time=16\n",
      "control_change channel=0 control=64 value=81 time=15\n",
      "note_on channel=0 note=68 velocity=0 time=11\n",
      "control_change channel=0 control=64 value=83 time=5\n",
      "control_change channel=0 control=64 value=85 time=15\n",
      "note_on channel=0 note=80 velocity=70 time=3\n",
      "control_change channel=0 control=64 value=85 time=27\n",
      "note_on channel=0 note=80 velocity=0 time=52\n",
      "note_on channel=0 note=77 velocity=66 time=43\n",
      "note_on channel=0 note=74 velocity=59 time=100\n",
      "note_on channel=0 note=77 velocity=0 time=6\n",
      "note_on channel=0 note=74 velocity=0 time=24\n",
      "control_change channel=0 control=64 value=85 time=50\n",
      "control_change channel=0 control=64 value=84 time=15\n",
      "control_change channel=0 control=64 value=80 time=14\n",
      "control_change channel=0 control=64 value=75 time=16\n",
      "control_change channel=0 control=64 value=66 time=15\n",
      "note_on channel=0 note=71 velocity=73 time=1\n",
      "note_on channel=0 note=55 velocity=78 time=3\n",
      "control_change channel=0 control=64 value=25 time=11\n",
      "control_change channel=0 control=64 value=0 time=15\n",
      "note_on channel=0 note=55 velocity=0 time=78\n",
      "note_on channel=0 note=51 velocity=73 time=1\n",
      "note_on channel=0 note=67 velocity=66 time=2\n",
      "note_on channel=0 note=51 velocity=0 time=73\n",
      "note_on channel=0 note=50 velocity=79 time=53\n",
      "note_on channel=0 note=68 velocity=80 time=0\n",
      "note_on channel=0 note=67 velocity=0 time=20\n",
      "note_on channel=0 note=51 velocity=82 time=105\n",
      "note_on channel=0 note=50 velocity=0 time=9\n",
      "note_on channel=0 note=51 velocity=0 time=58\n",
      "note_on channel=0 note=71 velocity=0 time=19\n",
      "note_on channel=0 note=48 velocity=88 time=33\n",
      "note_on channel=0 note=72 velocity=81 time=7\n",
      "note_on channel=0 note=68 velocity=0 time=18\n",
      "note_on channel=0 note=48 velocity=0 time=44\n",
      "note_on channel=0 note=53 velocity=80 time=53\n",
      "note_on channel=0 note=53 velocity=0 time=77\n",
      "note_on channel=0 note=51 velocity=83 time=40\n",
      "note_on channel=0 note=67 velocity=70 time=9\n",
      "note_on channel=0 note=67 velocity=0 time=74\n",
      "note_on channel=0 note=51 velocity=0 time=8\n",
      "note_on channel=0 note=53 velocity=85 time=18\n",
      "note_on channel=0 note=53 velocity=0 time=68\n",
      "note_on channel=0 note=56 velocity=91 time=59\n",
      "note_on channel=0 note=65 velocity=80 time=16\n",
      "note_on channel=0 note=72 velocity=0 time=9\n",
      "note_on channel=0 note=63 velocity=68 time=107\n",
      "note_on channel=0 note=65 velocity=0 time=4\n",
      "note_on channel=0 note=63 velocity=0 time=26\n",
      "note_on channel=0 note=56 velocity=0 time=30\n",
      "note_on channel=0 note=55 velocity=73 time=60\n",
      "note_on channel=0 note=65 velocity=66 time=0\n",
      "note_on channel=0 note=71 velocity=55 time=4\n",
      "note_on channel=0 note=65 velocity=0 time=26\n",
      "note_on channel=0 note=71 velocity=0 time=32\n",
      "note_on channel=0 note=67 velocity=77 time=39\n",
      "note_on channel=0 note=67 velocity=0 time=44\n",
      "note_on channel=0 note=55 velocity=0 time=37\n",
      "note_on channel=0 note=72 velocity=73 time=40\n",
      "note_on channel=0 note=69 velocity=76 time=4\n",
      "note_on channel=0 note=72 velocity=0 time=66\n",
      "note_on channel=0 note=69 velocity=0 time=6\n",
      "note_on channel=0 note=71 velocity=75 time=39\n",
      "note_on channel=0 note=71 velocity=0 time=84\n",
      "note_on channel=0 note=54 velocity=79 time=30\n",
      "note_on channel=0 note=72 velocity=77 time=6\n",
      "note_on channel=0 note=54 velocity=0 time=76\n",
      "note_on channel=0 note=50 velocity=75 time=28\n",
      "note_on channel=0 note=74 velocity=70 time=6\n",
      "note_on channel=0 note=72 velocity=0 time=4\n",
      "note_on channel=0 note=50 velocity=0 time=60\n",
      "note_on channel=0 note=60 velocity=91 time=63\n",
      "note_on channel=0 note=75 velocity=75 time=5\n",
      "note_on channel=0 note=74 velocity=0 time=3\n",
      "note_on channel=0 note=75 velocity=0 time=64\n",
      "note_on channel=0 note=67 velocity=77 time=49\n",
      "note_on channel=0 note=60 velocity=0 time=67\n",
      "note_on channel=0 note=67 velocity=0 time=3\n",
      "note_on channel=0 note=58 velocity=79 time=46\n",
      "note_on channel=0 note=69 velocity=63 time=18\n",
      "note_on channel=0 note=74 velocity=58 time=1\n",
      "note_on channel=0 note=69 velocity=0 time=31\n",
      "note_on channel=0 note=74 velocity=0 time=13\n",
      "note_on channel=0 note=70 velocity=68 time=57\n",
      "note_on channel=0 note=70 velocity=0 time=31\n",
      "note_on channel=0 note=58 velocity=0 time=26\n",
      "note_on channel=0 note=57 velocity=66 time=62\n",
      "note_on channel=0 note=76 velocity=66 time=11\n",
      "note_on channel=0 note=72 velocity=65 time=1\n",
      "note_on channel=0 note=76 velocity=0 time=33\n",
      "control_change channel=0 control=64 value=39 time=3\n",
      "control_change channel=0 control=64 value=58 time=15\n",
      "control_change channel=0 control=64 value=63 time=15\n",
      "control_change channel=0 control=64 value=65 time=16\n",
      "control_change channel=0 control=64 value=67 time=14\n",
      "note_on channel=0 note=72 velocity=0 time=6\n",
      "note_on channel=0 note=69 velocity=62 time=8\n",
      "control_change channel=0 control=64 value=69 time=2\n",
      "control_change channel=0 control=64 value=72 time=15\n",
      "control_change channel=0 control=64 value=75 time=15\n",
      "control_change channel=0 control=64 value=77 time=16\n",
      "control_change channel=0 control=64 value=79 time=14\n",
      "note_on channel=0 note=69 velocity=0 time=20\n",
      "control_change channel=0 control=64 value=80 time=3\n",
      "control_change channel=0 control=64 value=81 time=15\n",
      "control_change channel=0 control=64 value=82 time=15\n",
      "note_on channel=0 note=62 velocity=62 time=13\n",
      "control_change channel=0 control=64 value=83 time=3\n",
      "note_on channel=0 note=78 velocity=65 time=9\n",
      "control_change channel=0 control=64 value=84 time=6\n",
      "note_on channel=0 note=57 velocity=0 time=0\n",
      "note_on channel=0 note=62 velocity=0 time=6\n",
      "control_change channel=0 control=64 value=84 time=10\n",
      "note_on channel=0 note=78 velocity=0 time=12\n",
      "control_change channel=0 control=64 value=84 time=138\n",
      "control_change channel=0 control=64 value=83 time=16\n",
      "control_change channel=0 control=64 value=80 time=15\n",
      "control_change channel=0 control=64 value=76 time=16\n",
      "control_change channel=0 control=64 value=68 time=15\n",
      "note_on channel=0 note=55 velocity=58 time=0\n",
      "note_on channel=0 note=79 velocity=63 time=0\n",
      "control_change channel=0 control=64 value=48 time=14\n",
      "note_on channel=0 note=70 velocity=52 time=6\n",
      "control_change channel=0 control=64 value=0 time=10\n",
      "note_on channel=0 note=55 velocity=0 time=10\n",
      "note_on channel=0 note=70 velocity=0 time=22\n",
      "note_on channel=0 note=74 velocity=59 time=61\n",
      "note_on channel=0 note=58 velocity=56 time=12\n",
      "note_on channel=0 note=58 velocity=0 time=43\n",
      "note_on channel=0 note=74 velocity=0 time=22\n",
      "note_on channel=0 note=72 velocity=70 time=47\n",
      "note_on channel=0 note=56 velocity=54 time=5\n",
      "note_on channel=0 note=56 velocity=0 time=47\n",
      "note_on channel=0 note=72 velocity=0 time=48\n",
      "note_on channel=0 note=58 velocity=59 time=9\n",
      "note_on channel=0 note=74 velocity=60 time=0\n",
      "note_on channel=0 note=58 velocity=0 time=42\n",
      "note_on channel=0 note=55 velocity=55 time=71\n",
      "note_on channel=0 note=70 velocity=72 time=15\n",
      "note_on channel=0 note=74 velocity=0 time=7\n",
      "note_on channel=0 note=55 velocity=0 time=30\n",
      "note_on channel=0 note=79 velocity=0 time=16\n",
      "note_on channel=0 note=70 velocity=0 time=7\n",
      "note_on channel=0 note=56 velocity=62 time=48\n",
      "note_on channel=0 note=76 velocity=63 time=6\n",
      "note_on channel=0 note=56 velocity=0 time=42\n",
      "note_on channel=0 note=76 velocity=0 time=13\n",
      "note_on channel=0 note=74 velocity=68 time=48\n",
      "note_on channel=0 note=53 velocity=60 time=15\n",
      "note_on channel=0 note=53 velocity=0 time=41\n",
      "note_on channel=0 note=74 velocity=0 time=6\n",
      "note_on channel=0 note=76 velocity=77 time=61\n",
      "note_on channel=0 note=55 velocity=47 time=11\n",
      "note_on channel=0 note=55 velocity=0 time=37\n",
      "note_on channel=0 note=76 velocity=0 time=7\n",
      "note_on channel=0 note=79 velocity=88 time=62\n",
      "note_on channel=0 note=52 velocity=56 time=6\n",
      "control_change channel=0 control=64 value=50 time=18\n",
      "control_change channel=0 control=64 value=59 time=15\n",
      "control_change channel=0 control=64 value=61 time=15\n",
      "control_change channel=0 control=64 value=61 time=15\n",
      "note_on channel=0 note=52 velocity=0 time=5\n",
      "control_change channel=0 control=64 value=63 time=11\n",
      "control_change channel=0 control=64 value=64 time=15\n",
      "control_change channel=0 control=64 value=65 time=15\n",
      "note_on channel=0 note=60 velocity=41 time=3\n",
      "note_on channel=0 note=73 velocity=70 time=0\n",
      "note_on channel=0 note=79 velocity=0 time=3\n",
      "control_change channel=0 control=64 value=66 time=10\n",
      "control_change channel=0 control=64 value=67 time=15\n",
      "note_on channel=0 note=60 velocity=0 time=12\n",
      "note_on channel=0 note=73 velocity=0 time=7\n",
      "control_change channel=0 control=64 value=65 time=12\n",
      "control_change channel=0 control=64 value=56 time=15\n",
      "control_change channel=0 control=64 value=0 time=16\n",
      "note_on channel=0 note=77 velocity=80 time=30\n",
      "note_on channel=0 note=56 velocity=50 time=9\n",
      "note_on channel=0 note=72 velocity=66 time=3\n",
      "note_on channel=0 note=56 velocity=0 time=48\n",
      "note_on channel=0 note=72 velocity=0 time=11\n",
      "control_change channel=0 control=64 value=55 time=12\n",
      "control_change channel=0 control=64 value=62 time=16\n",
      "control_change channel=0 control=64 value=65 time=15\n",
      "note_on channel=0 note=70 velocity=62 time=11\n",
      "note_on channel=0 note=77 velocity=0 time=0\n",
      "control_change channel=0 control=64 value=66 time=4\n",
      "note_on channel=0 note=53 velocity=42 time=10\n",
      "control_change channel=0 control=64 value=68 time=5\n",
      "control_change channel=0 control=64 value=69 time=15\n",
      "note_on channel=0 note=53 velocity=0 time=11\n",
      "note_on channel=0 note=70 velocity=0 time=1\n",
      "control_change channel=0 control=64 value=68 time=19\n",
      "control_change channel=0 control=64 value=64 time=15\n",
      "control_change channel=0 control=64 value=44 time=15\n",
      "control_change channel=0 control=64 value=0 time=15\n",
      "note_on channel=0 note=68 velocity=69 time=13\n",
      "note_on channel=0 note=48 velocity=59 time=12\n",
      "note_on channel=0 note=48 velocity=0 time=47\n",
      "control_change channel=0 control=64 value=37 time=3\n",
      "control_change channel=0 control=64 value=53 time=15\n",
      "note_on channel=0 note=68 velocity=0 time=2\n",
      "control_change channel=0 control=64 value=57 time=13\n",
      "note_on channel=0 note=67 velocity=73 time=30\n",
      "control_change channel=0 control=64 value=56 time=1\n",
      "note_on channel=0 note=53 velocity=56 time=5\n",
      "control_change channel=0 control=64 value=53 time=10\n",
      "control_change channel=0 control=64 value=46 time=14\n",
      "control_change channel=0 control=64 value=39 time=16\n",
      "note_on channel=0 note=53 velocity=0 time=7\n",
      "note_on channel=0 note=67 velocity=0 time=6\n",
      "control_change channel=0 control=64 value=38 time=2\n",
      "note_on channel=0 note=65 velocity=69 time=55\n",
      "control_change channel=0 control=64 value=36 time=6\n",
      "note_on channel=0 note=48 velocity=43 time=14\n",
      "control_change channel=0 control=64 value=33 time=1\n",
      "control_change channel=0 control=64 value=30 time=15\n",
      "control_change channel=0 control=64 value=27 time=16\n",
      "note_on channel=0 note=48 velocity=0 time=6\n",
      "note_on channel=0 note=65 velocity=0 time=6\n",
      "control_change channel=0 control=64 value=23 time=3\n",
      "control_change channel=0 control=64 value=15 time=16\n",
      "control_change channel=0 control=64 value=0 time=15\n",
      "note_on channel=0 note=67 velocity=66 time=11\n",
      "note_on channel=0 note=44 velocity=43 time=12\n",
      "note_on channel=0 note=67 velocity=0 time=19\n",
      "note_on channel=0 note=44 velocity=0 time=9\n",
      "note_on channel=0 note=77 velocity=68 time=91\n",
      "note_on channel=0 note=41 velocity=43 time=9\n",
      "note_on channel=0 note=68 velocity=59 time=2\n",
      "note_on channel=0 note=41 velocity=0 time=34\n",
      "note_on channel=0 note=68 velocity=0 time=20\n",
      "note_on channel=0 note=72 velocity=63 time=65\n",
      "note_on channel=0 note=56 velocity=60 time=3\n",
      "note_on channel=0 note=56 velocity=0 time=48\n",
      "note_on channel=0 note=72 velocity=0 time=25\n",
      "note_on channel=0 note=55 velocity=56 time=43\n",
      "note_on channel=0 note=70 velocity=70 time=4\n",
      "note_on channel=0 note=55 velocity=0 time=54\n",
      "note_on channel=0 note=56 velocity=59 time=55\n",
      "note_on channel=0 note=72 velocity=67 time=9\n",
      "note_on channel=0 note=70 velocity=0 time=18\n",
      "note_on channel=0 note=56 velocity=0 time=17\n",
      "note_on channel=0 note=77 velocity=0 time=20\n",
      "note_on channel=0 note=53 velocity=65 time=55\n",
      "note_on channel=0 note=72 velocity=0 time=5\n",
      "note_on channel=0 note=68 velocity=70 time=7\n",
      "note_on channel=0 note=53 velocity=0 time=33\n",
      "note_on channel=0 note=68 velocity=0 time=34\n",
      "note_on channel=0 note=74 velocity=68 time=44\n",
      "note_on channel=0 note=55 velocity=64 time=3\n",
      "note_on channel=0 note=55 velocity=0 time=52\n",
      "note_on channel=0 note=74 velocity=0 time=8\n",
      "note_on channel=0 note=72 velocity=70 time=49\n",
      "note_on channel=0 note=51 velocity=66 time=9\n",
      "note_on channel=0 note=51 velocity=0 time=47\n",
      "note_on channel=0 note=72 velocity=0 time=3\n",
      "note_on channel=0 note=53 velocity=64 time=54\n",
      "note_on channel=0 note=74 velocity=72 time=3\n",
      "note_on channel=0 note=53 velocity=0 time=60\n",
      "note_on channel=0 note=74 velocity=0 time=9\n",
      "note_on channel=0 note=77 velocity=87 time=54\n",
      "note_on channel=0 note=50 velocity=56 time=11\n",
      "control_change channel=0 control=64 value=21 time=34\n",
      "control_change channel=0 control=64 value=29 time=14\n",
      "control_change channel=0 control=64 value=34 time=15\n",
      "note_on channel=0 note=50 velocity=0 time=12\n",
      "control_change channel=0 control=64 value=40 time=4\n",
      "control_change channel=0 control=64 value=43 time=15\n",
      "note_on channel=0 note=77 velocity=0 time=5\n",
      "note_on channel=0 note=72 velocity=74 time=5\n",
      "control_change channel=0 control=64 value=46 time=5\n",
      "note_on channel=0 note=58 velocity=43 time=9\n",
      "control_change channel=0 control=64 value=48 time=6\n",
      "control_change channel=0 control=64 value=48 time=15\n",
      "note_on channel=0 note=58 velocity=0 time=24\n",
      "control_change channel=0 control=64 value=47 time=7\n",
      "note_on channel=0 note=72 velocity=0 time=2\n",
      "control_change channel=0 control=64 value=44 time=12\n",
      "control_change channel=0 control=64 value=41 time=16\n",
      "control_change channel=0 control=64 value=37 time=15\n",
      "control_change channel=0 control=64 value=32 time=15\n",
      "note_on channel=0 note=70 velocity=65 time=0\n",
      "note_on channel=0 note=75 velocity=66 time=6\n",
      "note_on channel=0 note=55 velocity=41 time=1\n",
      "control_change channel=0 control=64 value=29 time=9\n",
      "control_change channel=0 control=64 value=26 time=15\n",
      "control_change channel=0 control=64 value=21 time=16\n",
      "note_on channel=0 note=55 velocity=0 time=6\n",
      "control_change channel=0 control=64 value=13 time=9\n",
      "note_on channel=0 note=70 velocity=0 time=3\n",
      "note_on channel=0 note=75 velocity=0 time=9\n",
      "control_change channel=0 control=64 value=0 time=3\n",
      "note_on channel=0 note=68 velocity=72 time=28\n",
      "note_on channel=0 note=51 velocity=45 time=5\n",
      "note_on channel=0 note=51 velocity=0 time=26\n",
      "note_on channel=0 note=68 velocity=0 time=7\n",
      "note_on channel=0 note=67 velocity=72 time=75\n",
      "note_on channel=0 note=46 velocity=69 time=12\n",
      "note_on channel=0 note=46 velocity=0 time=48\n",
      "note_on channel=0 note=67 velocity=0 time=19\n",
      "note_on channel=0 note=65 velocity=70 time=43\n",
      "note_on channel=0 note=51 velocity=53 time=11\n",
      "note_on channel=0 note=65 velocity=0 time=46\n",
      "note_on channel=0 note=51 velocity=0 time=6\n",
      "note_on channel=0 note=63 velocity=73 time=64\n",
      "note_on channel=0 note=46 velocity=48 time=2\n",
      "note_on channel=0 note=46 velocity=0 time=46\n",
      "note_on channel=0 note=63 velocity=0 time=11\n",
      "note_on channel=0 note=43 velocity=46 time=46\n",
      "note_on channel=0 note=65 velocity=71 time=1\n",
      "note_on channel=0 note=43 velocity=0 time=30\n",
      "note_on channel=0 note=65 velocity=0 time=15\n",
      "note_on channel=0 note=67 velocity=68 time=79\n",
      "note_on channel=0 note=39 velocity=61 time=1\n",
      "note_on channel=0 note=67 velocity=0 time=55\n",
      "note_on channel=0 note=39 velocity=0 time=2\n",
      "note_on channel=0 note=70 velocity=51 time=51\n",
      "note_on channel=0 note=70 velocity=0 time=27\n",
      "note_on channel=0 note=51 velocity=64 time=91\n",
      "note_on channel=0 note=75 velocity=60 time=9\n",
      "note_on channel=0 note=75 velocity=0 time=90\n",
      "note_on channel=0 note=72 velocity=68 time=5\n",
      "note_on channel=0 note=72 velocity=0 time=57\n",
      "note_on channel=0 note=51 velocity=0 time=11\n",
      "note_on channel=0 note=53 velocity=64 time=54\n",
      "note_on channel=0 note=73 velocity=82 time=4\n",
      "note_on channel=0 note=70 velocity=69 time=111\n",
      "note_on channel=0 note=53 velocity=0 time=91\n",
      "note_on channel=0 note=67 velocity=70 time=34\n",
      "note_on channel=0 note=55 velocity=66 time=5\n",
      "note_on channel=0 note=70 velocity=0 time=13\n",
      "note_on channel=0 note=55 velocity=0 time=15\n",
      "note_on channel=0 note=67 velocity=0 time=39\n",
      "note_on channel=0 note=63 velocity=79 time=29\n",
      "note_on channel=0 note=63 velocity=0 time=72\n",
      "note_on channel=0 note=56 velocity=84 time=53\n",
      "note_on channel=0 note=73 velocity=0 time=14\n",
      "note_on channel=0 note=72 velocity=74 time=103\n",
      "note_on channel=0 note=72 velocity=0 time=54\n",
      "note_on channel=0 note=53 velocity=60 time=56\n",
      "note_on channel=0 note=56 velocity=0 time=9\n",
      "note_on channel=0 note=77 velocity=85 time=0\n",
      "note_on channel=0 note=77 velocity=0 time=52\n",
      "note_on channel=0 note=74 velocity=75 time=49\n",
      "note_on channel=0 note=74 velocity=0 time=58\n",
      "note_on channel=0 note=55 velocity=71 time=72\n",
      "note_on channel=0 note=53 velocity=0 time=3\n",
      "note_on channel=0 note=75 velocity=86 time=0\n",
      "note_on channel=0 note=55 velocity=0 time=35\n",
      "note_on channel=0 note=72 velocity=74 time=63\n",
      "note_on channel=0 note=72 velocity=0 time=109\n",
      "note_on channel=0 note=69 velocity=72 time=16\n",
      "note_on channel=0 note=57 velocity=79 time=4\n",
      "note_on channel=0 note=57 velocity=0 time=23\n",
      "note_on channel=0 note=69 velocity=0 time=19\n",
      "note_on channel=0 note=65 velocity=70 time=51\n",
      "note_on channel=0 note=65 velocity=0 time=79\n",
      "note_on channel=0 note=58 velocity=91 time=41\n",
      "note_on channel=0 note=75 velocity=0 time=8\n",
      "note_on channel=0 note=74 velocity=67 time=99\n",
      "note_on channel=0 note=74 velocity=0 time=59\n",
      "note_on channel=0 note=58 velocity=0 time=45\n",
      "note_on channel=0 note=55 velocity=66 time=25\n",
      "note_on channel=0 note=79 velocity=81 time=2\n",
      "note_on channel=0 note=75 velocity=79 time=102\n",
      "note_on channel=0 note=79 velocity=0 time=31\n",
      "note_on channel=0 note=75 velocity=0 time=38\n",
      "note_on channel=0 note=55 velocity=0 time=15\n",
      "note_on channel=0 note=57 velocity=79 time=43\n",
      "note_on channel=0 note=77 velocity=96 time=10\n",
      "note_on channel=0 note=74 velocity=76 time=105\n",
      "note_on channel=0 note=57 velocity=0 time=77\n",
      "note_on channel=0 note=74 velocity=0 time=13\n",
      "note_on channel=0 note=59 velocity=87 time=32\n",
      "note_on channel=0 note=71 velocity=77 time=4\n",
      "note_on channel=0 note=71 velocity=0 time=69\n",
      "note_on channel=0 note=67 velocity=81 time=34\n",
      "note_on channel=0 note=67 velocity=0 time=63\n",
      "note_on channel=0 note=59 velocity=0 time=7\n",
      "note_on channel=0 note=77 velocity=0 time=44\n",
      "note_on channel=0 note=60 velocity=94 time=9\n",
      "note_on channel=0 note=75 velocity=68 time=114\n",
      "note_on channel=0 note=75 velocity=0 time=80\n",
      "note_on channel=0 note=48 velocity=79 time=53\n",
      "note_on channel=0 note=79 velocity=65 time=6\n",
      "note_on channel=0 note=60 velocity=0 time=2\n",
      "note_on channel=0 note=79 velocity=0 time=114\n",
      "note_on channel=0 note=82 velocity=64 time=4\n",
      "note_on channel=0 note=48 velocity=0 time=51\n",
      "note_on channel=0 note=82 velocity=0 time=25\n",
      "note_on channel=0 note=50 velocity=70 time=46\n",
      "note_on channel=0 note=80 velocity=79 time=6\n",
      "note_on channel=0 note=80 velocity=0 time=101\n",
      "note_on channel=0 note=77 velocity=71 time=13\n",
      "note_on channel=0 note=76 velocity=56 time=19\n",
      "note_on channel=0 note=76 velocity=0 time=25\n",
      "note_on channel=0 note=50 velocity=0 time=24\n",
      "note_on channel=0 note=77 velocity=0 time=8\n",
      "note_on channel=0 note=70 velocity=86 time=37\n",
      "note_on channel=0 note=51 velocity=71 time=4\n",
      "note_on channel=0 note=70 velocity=0 time=99\n",
      "note_on channel=0 note=79 velocity=85 time=11\n",
      "note_on channel=0 note=78 velocity=42 time=41\n",
      "note_on channel=0 note=78 velocity=0 time=23\n",
      "note_on channel=0 note=79 velocity=0 time=9\n",
      "note_on channel=0 note=51 velocity=0 time=12\n",
      "note_on channel=0 note=77 velocity=99 time=40\n",
      "note_on channel=0 note=50 velocity=65 time=120\n",
      "note_on channel=0 note=77 velocity=0 time=53\n",
      "note_on channel=0 note=50 velocity=0 time=2\n",
      "note_on channel=0 note=48 velocity=74 time=62\n",
      "note_on channel=0 note=77 velocity=78 time=8\n",
      "note_on channel=0 note=80 velocity=81 time=0\n",
      "note_on channel=0 note=48 velocity=0 time=59\n",
      "note_on channel=0 note=50 velocity=77 time=52\n",
      "note_on channel=0 note=77 velocity=0 time=52\n",
      "note_on channel=0 note=80 velocity=0 time=10\n",
      "note_on channel=0 note=50 velocity=0 time=9\n",
      "note_on channel=0 note=46 velocity=78 time=47\n",
      "note_on channel=0 note=79 velocity=68 time=12\n",
      "note_on channel=0 note=75 velocity=68 time=1\n",
      "note_on channel=0 note=46 velocity=0 time=73\n",
      "note_on channel=0 note=79 velocity=0 time=21\n",
      "note_on channel=0 note=51 velocity=79 time=7\n",
      "note_on channel=0 note=51 velocity=0 time=68\n",
      "note_on channel=0 note=75 velocity=0 time=28\n",
      "note_on channel=0 note=50 velocity=86 time=24\n",
      "note_on channel=0 note=77 velocity=75 time=6\n",
      "note_on channel=0 note=68 velocity=76 time=3\n",
      "note_on channel=0 note=50 velocity=0 time=71\n",
      "note_on channel=0 note=68 velocity=0 time=19\n",
      "note_on channel=0 note=51 velocity=86 time=11\n",
      "note_on channel=0 note=77 velocity=0 time=70\n",
      "note_on channel=0 note=51 velocity=0 time=11\n",
      "note_on channel=0 note=55 velocity=90 time=44\n",
      "note_on channel=0 note=70 velocity=71 time=10\n",
      "note_on channel=0 note=75 velocity=67 time=0\n",
      "note_on channel=0 note=70 velocity=0 time=63\n",
      "note_on channel=0 note=75 velocity=0 time=0\n",
      "note_on channel=0 note=72 velocity=67 time=49\n",
      "note_on channel=0 note=55 velocity=0 time=55\n",
      "note_on channel=0 note=72 velocity=0 time=12\n",
      "note_on channel=0 note=53 velocity=74 time=48\n",
      "note_on channel=0 note=68 velocity=68 time=17\n",
      "note_on channel=0 note=74 velocity=63 time=0\n",
      "note_on channel=0 note=74 velocity=0 time=33\n",
      "note_on channel=0 note=68 velocity=0 time=6\n",
      "note_on channel=0 note=75 velocity=71 time=69\n",
      "note_on channel=0 note=75 velocity=0 time=57\n",
      "note_on channel=0 note=53 velocity=0 time=9\n",
      "note_on channel=0 note=77 velocity=73 time=62\n",
      "note_on channel=0 note=68 velocity=76 time=2\n",
      "note_on channel=0 note=68 velocity=0 time=48\n",
      "note_on channel=0 note=74 velocity=63 time=64\n",
      "note_on channel=0 note=74 velocity=0 time=96\n",
      "note_on channel=0 note=50 velocity=66 time=14\n",
      "note_on channel=0 note=70 velocity=63 time=4\n",
      "note_on channel=0 note=50 velocity=0 time=58\n",
      "note_on channel=0 note=70 velocity=0 time=4\n",
      "note_on channel=0 note=46 velocity=65 time=46\n",
      "note_on channel=0 note=77 velocity=0 time=0\n",
      "note_on channel=0 note=65 velocity=68 time=2\n",
      "note_on channel=0 note=46 velocity=0 time=27\n",
      "note_on channel=0 note=65 velocity=0 time=11\n",
      "note_on channel=0 note=62 velocity=74 time=89\n",
      "note_on channel=0 note=56 velocity=74 time=6\n",
      "note_on channel=0 note=62 velocity=0 time=29\n",
      "note_on channel=0 note=56 velocity=0 time=13\n",
      "note_on channel=0 note=75 velocity=59 time=73\n",
      "note_on channel=0 note=55 velocity=73 time=107\n",
      "note_on channel=0 note=63 velocity=81 time=0\n",
      "note_on channel=0 note=77 velocity=68 time=28\n",
      "note_on channel=0 note=75 velocity=0 time=33\n",
      "note_on channel=0 note=79 velocity=67 time=96\n",
      "note_on channel=0 note=77 velocity=0 time=33\n",
      "note_on channel=0 note=53 velocity=73 time=77\n",
      "note_on channel=0 note=80 velocity=71 time=11\n",
      "note_on channel=0 note=55 velocity=0 time=12\n",
      "note_on channel=0 note=79 velocity=0 time=0\n",
      "note_on channel=0 note=63 velocity=0 time=53\n",
      "note_on channel=0 note=77 velocity=68 time=34\n",
      "note_on channel=0 note=80 velocity=0 time=15\n",
      "note_on channel=0 note=77 velocity=0 time=68\n",
      "note_on channel=0 note=62 velocity=67 time=39\n",
      "note_on channel=0 note=74 velocity=74 time=6\n",
      "note_on channel=0 note=62 velocity=0 time=32\n",
      "note_on channel=0 note=53 velocity=0 time=23\n",
      "note_on channel=0 note=80 velocity=78 time=49\n",
      "note_on channel=0 note=74 velocity=0 time=14\n",
      "note_on channel=0 note=80 velocity=0 time=56\n",
      "note_on channel=0 note=79 velocity=76 time=59\n",
      "note_on channel=0 note=51 velocity=65 time=7\n",
      "note_on channel=0 note=63 velocity=41 time=9\n",
      "control_change channel=0 control=64 value=18 time=13\n",
      "note_on channel=0 note=51 velocity=0 time=12\n",
      "control_change channel=0 control=64 value=57 time=4\n",
      "note_on channel=0 note=63 velocity=0 time=0\n",
      "control_change channel=0 control=64 value=62 time=23\n",
      "control_change channel=0 control=64 value=64 time=16\n",
      "control_change channel=0 control=64 value=65 time=14\n",
      "control_change channel=0 control=64 value=68 time=15\n",
      "note_on channel=0 note=82 velocity=80 time=4\n",
      "note_on channel=0 note=79 velocity=0 time=7\n",
      "control_change channel=0 control=64 value=70 time=5\n",
      "control_change channel=0 control=64 value=73 time=15\n",
      "control_change channel=0 control=64 value=74 time=16\n",
      "control_change channel=0 control=64 value=74 time=14\n",
      "note_on channel=0 note=82 velocity=0 time=45\n",
      "note_on channel=0 note=80 velocity=75 time=4\n",
      "note_on channel=0 note=39 velocity=70 time=16\n",
      "control_change channel=0 control=64 value=74 time=11\n",
      "control_change channel=0 control=64 value=73 time=46\n",
      "note_on channel=0 note=80 velocity=0 time=4\n",
      "control_change channel=0 control=64 value=73 time=27\n",
      "note_on channel=0 note=75 velocity=64 time=22\n",
      "note_on channel=0 note=75 velocity=0 time=31\n",
      "control_change channel=0 control=64 value=72 time=7\n",
      "control_change channel=0 control=64 value=72 time=16\n",
      "note_on channel=0 note=39 velocity=0 time=11\n",
      "control_change channel=0 control=64 value=70 time=4\n",
      "control_change channel=0 control=64 value=68 time=14\n",
      "control_change channel=0 control=64 value=64 time=16\n",
      "note_on channel=0 note=41 velocity=69 time=13\n",
      "control_change channel=0 control=64 value=51 time=2\n",
      "note_on channel=0 note=73 velocity=83 time=1\n",
      "control_change channel=0 control=64 value=0 time=15\n",
      "note_on channel=0 note=41 velocity=0 time=37\n",
      "note_on channel=0 note=70 velocity=60 time=57\n",
      "note_on channel=0 note=43 velocity=64 time=108\n",
      "note_on channel=0 note=67 velocity=57 time=12\n",
      "note_on channel=0 note=43 velocity=0 time=18\n",
      "note_on channel=0 note=70 velocity=0 time=21\n",
      "note_on channel=0 note=67 velocity=0 time=50\n",
      "note_on channel=0 note=63 velocity=58 time=18\n",
      "note_on channel=0 note=63 velocity=0 time=23\n",
      "note_on channel=0 note=73 velocity=0 time=61\n",
      "note_on channel=0 note=56 velocity=80 time=42\n",
      "note_on channel=0 note=44 velocity=72 time=4\n",
      "control_change channel=0 control=64 value=55 time=12\n",
      "control_change channel=0 control=64 value=63 time=15\n",
      "control_change channel=0 control=64 value=66 time=16\n",
      "control_change channel=0 control=64 value=68 time=14\n",
      "note_on channel=0 note=56 velocity=0 time=0\n",
      "control_change channel=0 control=64 value=72 time=16\n",
      "control_change channel=0 control=64 value=76 time=15\n",
      "note_on channel=0 note=44 velocity=0 time=2\n",
      "control_change channel=0 control=64 value=78 time=13\n",
      "note_on channel=0 note=84 velocity=89 time=6\n",
      "control_change channel=0 control=64 value=79 time=10\n",
      "control_change channel=0 control=64 value=80 time=30\n",
      "note_on channel=0 note=84 velocity=0 time=33\n",
      "note_on channel=0 note=80 velocity=93 time=40\n",
      "note_on channel=0 note=41 velocity=73 time=3\n",
      "note_on channel=0 note=80 velocity=0 time=62\n",
      "note_on channel=0 note=77 velocity=86 time=44\n",
      "note_on channel=0 note=77 velocity=0 time=47\n",
      "note_on channel=0 note=41 velocity=0 time=37\n",
      "control_change channel=0 control=64 value=79 time=22\n",
      "control_change channel=0 control=64 value=76 time=15\n",
      "note_on channel=0 note=75 velocity=90 time=2\n",
      "note_on channel=0 note=43 velocity=79 time=6\n",
      "control_change channel=0 control=64 value=70 time=7\n",
      "control_change channel=0 control=64 value=62 time=16\n",
      "control_change channel=0 control=64 value=0 time=14\n",
      "note_on channel=0 note=72 velocity=71 time=57\n",
      "note_on channel=0 note=43 velocity=0 time=35\n",
      "note_on channel=0 note=69 velocity=81 time=98\n",
      "note_on channel=0 note=45 velocity=72 time=7\n",
      "note_on channel=0 note=45 velocity=0 time=26\n",
      "note_on channel=0 note=72 velocity=0 time=1\n",
      "note_on channel=0 note=69 velocity=0 time=43\n",
      "note_on channel=0 note=65 velocity=82 time=24\n",
      "note_on channel=0 note=75 velocity=0 time=19\n",
      "note_on channel=0 note=65 velocity=0 time=60\n",
      "note_on channel=0 note=58 velocity=93 time=43\n",
      "note_on channel=0 note=74 velocity=88 time=7\n",
      "note_on channel=0 note=46 velocity=58 time=22\n",
      "note_on channel=0 note=46 velocity=0 time=25\n",
      "note_on channel=0 note=74 velocity=0 time=34\n",
      "note_on channel=0 note=77 velocity=87 time=34\n",
      "note_on channel=0 note=46 velocity=93 time=118\n",
      "note_on channel=0 note=74 velocity=77 time=1\n",
      "note_on channel=0 note=77 velocity=0 time=12\n",
      "control_change channel=0 control=64 value=39 time=56\n",
      "control_change channel=0 control=64 value=52 time=15\n",
      "note_on channel=0 note=74 velocity=0 time=6\n",
      "control_change channel=0 control=64 value=56 time=11\n",
      "note_on channel=0 note=70 velocity=71 time=5\n",
      "control_change channel=0 control=64 value=58 time=10\n",
      "control_change channel=0 control=64 value=59 time=15\n",
      "note_on channel=0 note=70 velocity=0 time=2\n",
      "control_change channel=0 control=64 value=60 time=13\n",
      "control_change channel=0 control=64 value=60 time=31\n",
      "control_change channel=0 control=64 value=58 time=14\n",
      "note_on channel=0 note=58 velocity=0 time=11\n",
      "control_change channel=0 control=64 value=52 time=5\n",
      "control_change channel=0 control=64 value=37 time=15\n",
      "note_on channel=0 note=48 velocity=81 time=3\n",
      "note_on channel=0 note=68 velocity=80 time=7\n",
      "control_change channel=0 control=64 value=0 time=5\n",
      "note_on channel=0 note=46 velocity=0 time=19\n",
      "note_on channel=0 note=65 velocity=56 time=94\n",
      "note_on channel=0 note=65 velocity=0 time=114\n",
      "note_on channel=0 note=50 velocity=71 time=7\n",
      "note_on channel=0 note=62 velocity=62 time=2\n",
      "note_on channel=0 note=48 velocity=0 time=3\n",
      "note_on channel=0 note=50 velocity=0 time=23\n",
      "note_on channel=0 note=62 velocity=0 time=32\n",
      "note_on channel=0 note=58 velocity=60 time=53\n",
      "note_on channel=0 note=58 velocity=0 time=57\n",
      "note_on channel=0 note=51 velocity=60 time=68\n",
      "note_on channel=0 note=68 velocity=0 time=87\n",
      "note_on channel=0 note=67 velocity=68 time=12\n",
      "note_on channel=0 note=65 velocity=78 time=122\n",
      "note_on channel=0 note=61 velocity=65 time=6\n",
      "note_on channel=0 note=67 velocity=0 time=14\n",
      "note_on channel=0 note=61 velocity=0 time=57\n",
      "note_on channel=0 note=65 velocity=0 time=21\n",
      "note_on channel=0 note=67 velocity=84 time=15\n",
      "note_on channel=0 note=67 velocity=0 time=81\n",
      "note_on channel=0 note=60 velocity=68 time=40\n",
      "note_on channel=0 note=63 velocity=92 time=2\n",
      "note_on channel=0 note=63 velocity=0 time=60\n",
      "note_on channel=0 note=68 velocity=90 time=48\n",
      "note_on channel=0 note=51 velocity=0 time=12\n",
      "note_on channel=0 note=68 velocity=0 time=52\n",
      "note_on channel=0 note=60 velocity=0 time=40\n",
      "note_on channel=0 note=67 velocity=91 time=18\n",
      "note_on channel=0 note=58 velocity=65 time=6\n",
      "note_on channel=0 note=67 velocity=0 time=44\n",
      "note_on channel=0 note=68 velocity=95 time=57\n",
      "note_on channel=0 note=58 velocity=0 time=52\n",
      "note_on channel=0 note=68 velocity=0 time=2\n",
      "note_on channel=0 note=56 velocity=66 time=59\n",
      "note_on channel=0 note=72 velocity=100 time=10\n",
      "note_on channel=0 note=56 velocity=0 time=55\n",
      "note_on channel=0 note=55 velocity=74 time=45\n",
      "note_on channel=0 note=55 velocity=0 time=55\n",
      "note_on channel=0 note=72 velocity=0 time=27\n",
      "note_on channel=0 note=56 velocity=68 time=44\n",
      "note_on channel=0 note=70 velocity=79 time=22\n",
      "note_on channel=0 note=56 velocity=0 time=69\n",
      "note_on channel=0 note=58 velocity=75 time=26\n",
      "note_on channel=0 note=58 velocity=0 time=81\n",
      "note_on channel=0 note=60 velocity=79 time=49\n",
      "note_on channel=0 note=70 velocity=0 time=113\n",
      "note_on channel=0 note=60 velocity=0 time=3\n",
      "note_on channel=0 note=50 velocity=58 time=6\n",
      "note_on channel=0 note=50 velocity=0 time=53\n",
      "note_on channel=0 note=69 velocity=84 time=35\n",
      "note_on channel=0 note=51 velocity=55 time=23\n",
      "note_on channel=0 note=69 velocity=0 time=29\n",
      "note_on channel=0 note=65 velocity=85 time=61\n",
      "note_on channel=0 note=51 velocity=0 time=1\n",
      "note_on channel=0 note=60 velocity=31 time=14\n",
      "note_on channel=0 note=65 velocity=0 time=66\n",
      "note_on channel=0 note=60 velocity=0 time=10\n",
      "note_on channel=0 note=75 velocity=94 time=27\n",
      "note_on channel=0 note=55 velocity=65 time=13\n",
      "note_on channel=0 note=58 velocity=64 time=105\n",
      "note_on channel=0 note=75 velocity=0 time=49\n",
      "note_on channel=0 note=58 velocity=0 time=13\n",
      "note_on channel=0 note=55 velocity=0 time=21\n",
      "note_on channel=0 note=55 velocity=34 time=18\n",
      "note_on channel=0 note=74 velocity=93 time=7\n",
      "note_on channel=0 note=60 velocity=73 time=7\n",
      "note_on channel=0 note=60 velocity=0 time=70\n",
      "note_on channel=0 note=55 velocity=0 time=34\n",
      "note_on channel=0 note=62 velocity=68 time=23\n",
      "note_on channel=0 note=62 velocity=0 time=34\n",
      "note_on channel=0 note=74 velocity=0 time=6\n",
      "note_on channel=0 note=72 velocity=92 time=57\n",
      "note_on channel=0 note=63 velocity=70 time=28\n",
      "note_on channel=0 note=51 velocity=57 time=3\n",
      "control_change channel=0 control=64 value=44 time=23\n",
      "control_change channel=0 control=64 value=58 time=15\n",
      "control_change channel=0 control=64 value=63 time=16\n",
      "note_on channel=0 note=63 velocity=0 time=9\n",
      "control_change channel=0 control=64 value=66 time=6\n",
      "control_change channel=0 control=64 value=70 time=15\n",
      "control_change channel=0 control=64 value=75 time=15\n",
      "note_on channel=0 note=72 velocity=0 time=5\n",
      "note_on channel=0 note=60 velocity=64 time=5\n",
      "control_change channel=0 control=64 value=79 time=5\n",
      "control_change channel=0 control=64 value=81 time=15\n",
      "control_change channel=0 control=64 value=82 time=16\n",
      "control_change channel=0 control=64 value=83 time=14\n",
      "note_on channel=0 note=74 velocity=57 time=25\n",
      "control_change channel=0 control=64 value=83 time=6\n",
      "note_on channel=0 note=60 velocity=0 time=11\n",
      "control_change channel=0 control=64 value=84 time=4\n",
      "note_on channel=0 note=74 velocity=0 time=17\n",
      "note_on channel=0 note=51 velocity=0 time=2\n",
      "control_change channel=0 control=64 value=84 time=11\n",
      "note_on channel=0 note=72 velocity=72 time=2\n",
      "note_on channel=0 note=53 velocity=50 time=3\n",
      "control_change channel=0 control=64 value=85 time=11\n",
      "note_on channel=0 note=72 velocity=0 time=22\n",
      "control_change channel=0 control=64 value=85 time=8\n",
      "note_on channel=0 note=53 velocity=0 time=2\n",
      "note_on channel=0 note=74 velocity=68 time=21\n",
      "control_change channel=0 control=64 value=86 time=8\n",
      "note_on channel=0 note=74 velocity=0 time=15\n",
      "note_on channel=0 note=72 velocity=71 time=11\n",
      "control_change channel=0 control=64 value=86 time=12\n",
      "note_on channel=0 note=72 velocity=0 time=16\n",
      "note_on channel=0 note=74 velocity=63 time=7\n",
      "note_on channel=0 note=72 velocity=78 time=56\n",
      "control_change channel=0 control=64 value=84 time=13\n",
      "note_on channel=0 note=74 velocity=0 time=0\n",
      "control_change channel=0 control=64 value=79 time=16\n",
      "note_on channel=0 note=70 velocity=91 time=1\n",
      "note_on channel=0 note=46 velocity=65 time=11\n",
      "control_change channel=0 control=64 value=70 time=2\n",
      "control_change channel=0 control=64 value=37 time=15\n",
      "note_on channel=0 note=72 velocity=0 time=2\n",
      "control_change channel=0 control=64 value=0 time=14\n",
      "note_on channel=0 note=46 velocity=0 time=8\n",
      "note_on channel=0 note=53 velocity=58 time=68\n",
      "note_on channel=0 note=53 velocity=0 time=62\n",
      "note_on channel=0 note=70 velocity=0 time=32\n",
      "note_on channel=0 note=50 velocity=54 time=22\n",
      "note_on channel=0 note=77 velocity=82 time=14\n",
      "note_on channel=0 note=50 velocity=0 time=27\n",
      "note_on channel=0 note=46 velocity=71 time=61\n",
      "note_on channel=0 note=46 velocity=0 time=41\n",
      "note_on channel=0 note=77 velocity=0 time=47\n",
      "note_on channel=0 note=44 velocity=70 time=35\n",
      "note_on channel=0 note=74 velocity=81 time=9\n",
      "note_on channel=0 note=44 velocity=0 time=66\n",
      "note_on channel=0 note=53 velocity=62 time=47\n",
      "note_on channel=0 note=53 velocity=0 time=52\n",
      "note_on channel=0 note=74 velocity=0 time=16\n",
      "note_on channel=0 note=70 velocity=84 time=42\n",
      "note_on channel=0 note=50 velocity=70 time=6\n",
      "control_change channel=0 control=64 value=48 time=21\n",
      "control_change channel=0 control=64 value=63 time=16\n",
      "note_on channel=0 note=70 velocity=0 time=9\n",
      "control_change channel=0 control=64 value=65 time=7\n",
      "note_on channel=0 note=50 velocity=0 time=0\n",
      "control_change channel=0 control=64 value=66 time=15\n",
      "control_change channel=0 control=64 value=66 time=14\n",
      "control_change channel=0 control=64 value=67 time=16\n",
      "note_on channel=0 note=44 velocity=74 time=13\n",
      "control_change channel=0 control=64 value=67 time=17\n",
      "control_change channel=0 control=64 value=68 time=16\n",
      "note_on channel=0 note=44 velocity=0 time=7\n",
      "control_change channel=0 control=64 value=67 time=53\n",
      "control_change channel=0 control=64 value=65 time=16\n",
      "control_change channel=0 control=64 value=57 time=14\n",
      "note_on channel=0 note=82 velocity=90 time=11\n",
      "note_on channel=0 note=43 velocity=80 time=1\n",
      "control_change channel=0 control=64 value=0 time=3\n",
      "note_on channel=0 note=70 velocity=73 time=117\n",
      "note_on channel=0 note=70 velocity=0 time=32\n",
      "note_on channel=0 note=55 velocity=72 time=85\n",
      "note_on channel=0 note=75 velocity=71 time=10\n",
      "note_on channel=0 note=55 velocity=0 time=64\n",
      "note_on channel=0 note=75 velocity=0 time=14\n",
      "note_on channel=0 note=43 velocity=0 time=2\n",
      "note_on channel=0 note=79 velocity=63 time=25\n",
      "note_on channel=0 note=79 velocity=0 time=88\n",
      "note_on channel=0 note=73 velocity=75 time=27\n",
      "note_on channel=0 note=73 velocity=0 time=51\n",
      "note_on channel=0 note=70 velocity=70 time=56\n",
      "note_on channel=0 note=70 velocity=0 time=34\n",
      "note_on channel=0 note=39 velocity=53 time=84\n",
      "note_on channel=0 note=73 velocity=67 time=1\n",
      "note_on channel=0 note=82 velocity=0 time=24\n",
      "note_on channel=0 note=73 velocity=0 time=47\n",
      "note_on channel=0 note=39 velocity=0 time=9\n",
      "note_on channel=0 note=79 velocity=58 time=22\n",
      "note_on channel=0 note=79 velocity=0 time=36\n",
      "note_on channel=0 note=44 velocity=64 time=73\n",
      "note_on channel=0 note=72 velocity=76 time=9\n",
      "note_on channel=0 note=44 velocity=0 time=63\n",
      "note_on channel=0 note=51 velocity=65 time=44\n",
      "note_on channel=0 note=72 velocity=0 time=25\n",
      "note_on channel=0 note=51 velocity=0 time=28\n",
      "note_on channel=0 note=48 velocity=72 time=76\n",
      "note_on channel=0 note=75 velocity=90 time=0\n",
      "note_on channel=0 note=48 velocity=0 time=62\n",
      "note_on channel=0 note=44 velocity=66 time=58\n",
      "note_on channel=0 note=75 velocity=0 time=42\n",
      "note_on channel=0 note=44 velocity=0 time=16\n",
      "note_on channel=0 note=43 velocity=76 time=46\n",
      "note_on channel=0 note=72 velocity=90 time=7\n",
      "note_on channel=0 note=43 velocity=0 time=105\n",
      "note_on channel=0 note=51 velocity=72 time=0\n",
      "note_on channel=0 note=51 velocity=0 time=61\n",
      "note_on channel=0 note=72 velocity=0 time=22\n",
      "note_on channel=0 note=48 velocity=71 time=36\n",
      "note_on channel=0 note=68 velocity=92 time=4\n",
      "note_on channel=0 note=48 velocity=0 time=58\n",
      "note_on channel=0 note=43 velocity=74 time=43\n",
      "note_on channel=0 note=43 velocity=0 time=70\n",
      "note_on channel=0 note=41 velocity=81 time=59\n",
      "note_on channel=0 note=80 velocity=100 time=4\n",
      "note_on channel=0 note=68 velocity=0 time=33\n",
      "note_on channel=0 note=68 velocity=77 time=93\n",
      "note_on channel=0 note=68 velocity=0 time=73\n",
      "note_on channel=0 note=41 velocity=0 time=2\n",
      "note_on channel=0 note=74 velocity=71 time=52\n",
      "note_on channel=0 note=53 velocity=71 time=3\n",
      "note_on channel=0 note=74 velocity=0 time=75\n",
      "note_on channel=0 note=77 velocity=66 time=27\n",
      "note_on channel=0 note=53 velocity=0 time=7\n",
      "note_on channel=0 note=77 velocity=0 time=87\n",
      "note_on channel=0 note=72 velocity=71 time=19\n",
      "note_on channel=0 note=72 velocity=0 time=65\n",
      "note_on channel=0 note=68 velocity=67 time=46\n",
      "note_on channel=0 note=68 velocity=0 time=33\n",
      "note_on channel=0 note=72 velocity=65 time=66\n",
      "note_on channel=0 note=38 velocity=56 time=9\n",
      "note_on channel=0 note=72 velocity=0 time=84\n",
      "note_on channel=0 note=77 velocity=59 time=19\n",
      "note_on channel=0 note=38 velocity=0 time=15\n",
      "note_on channel=0 note=77 velocity=0 time=75\n",
      "note_on channel=0 note=43 velocity=62 time=21\n",
      "note_on channel=0 note=70 velocity=71 time=11\n",
      "note_on channel=0 note=80 velocity=0 time=51\n",
      "note_on channel=0 note=43 velocity=0 time=34\n",
      "note_on channel=0 note=50 velocity=61 time=16\n",
      "note_on channel=0 note=50 velocity=0 time=73\n",
      "note_on channel=0 note=70 velocity=0 time=0\n",
      "note_on channel=0 note=74 velocity=79 time=60\n",
      "note_on channel=0 note=46 velocity=73 time=1\n",
      "note_on channel=0 note=46 velocity=0 time=69\n",
      "note_on channel=0 note=43 velocity=65 time=45\n",
      "note_on channel=0 note=43 velocity=0 time=54\n",
      "note_on channel=0 note=74 velocity=0 time=0\n",
      "note_on channel=0 note=41 velocity=71 time=60\n",
      "note_on channel=0 note=70 velocity=86 time=5\n",
      "note_on channel=0 note=41 velocity=0 time=88\n",
      "note_on channel=0 note=49 velocity=75 time=24\n",
      "note_on channel=0 note=70 velocity=0 time=59\n",
      "note_on channel=0 note=49 velocity=0 time=6\n",
      "note_on channel=0 note=67 velocity=88 time=46\n",
      "note_on channel=0 note=46 velocity=76 time=12\n",
      "note_on channel=0 note=46 velocity=0 time=82\n",
      "note_on channel=0 note=41 velocity=68 time=29\n",
      "note_on channel=0 note=41 velocity=0 time=59\n",
      "note_on channel=0 note=67 velocity=0 time=17\n",
      "note_on channel=0 note=79 velocity=95 time=33\n",
      "note_on channel=0 note=40 velocity=76 time=7\n",
      "note_on channel=0 note=40 velocity=0 time=106\n",
      "note_on channel=0 note=48 velocity=61 time=6\n",
      "note_on channel=0 note=48 velocity=0 time=55\n",
      "note_on channel=0 note=70 velocity=77 time=60\n",
      "note_on channel=0 note=43 velocity=51 time=4\n",
      "note_on channel=0 note=43 velocity=0 time=56\n",
      "note_on channel=0 note=40 velocity=67 time=40\n",
      "note_on channel=0 note=40 velocity=0 time=46\n",
      "note_on channel=0 note=41 velocity=69 time=69\n",
      "note_on channel=0 note=70 velocity=0 time=0\n",
      "note_on channel=0 note=68 velocity=78 time=12\n",
      "note_on channel=0 note=41 velocity=0 time=48\n",
      "note_on channel=0 note=79 velocity=0 time=18\n",
      "note_on channel=0 note=48 velocity=66 time=40\n",
      "note_on channel=0 note=72 velocity=72 time=4\n",
      "note_on channel=0 note=48 velocity=0 time=67\n",
      "note_on channel=0 note=44 velocity=69 time=53\n",
      "note_on channel=0 note=74 velocity=72 time=4\n",
      "note_on channel=0 note=72 velocity=0 time=1\n",
      "note_on channel=0 note=44 velocity=0 time=49\n",
      "note_on channel=0 note=74 velocity=0 time=24\n",
      "note_on channel=0 note=41 velocity=73 time=29\n",
      "note_on channel=0 note=75 velocity=75 time=13\n",
      "note_on channel=0 note=41 velocity=0 time=51\n",
      "note_on channel=0 note=68 velocity=0 time=29\n",
      "note_on channel=0 note=75 velocity=0 time=11\n",
      "note_on channel=0 note=38 velocity=80 time=12\n",
      "note_on channel=0 note=77 velocity=91 time=3\n",
      "note_on channel=0 note=75 velocity=29 time=5\n",
      "note_on channel=0 note=75 velocity=0 time=26\n",
      "note_on channel=0 note=38 velocity=0 time=59\n",
      "note_on channel=0 note=75 velocity=71 time=27\n",
      "note_on channel=0 note=46 velocity=64 time=5\n",
      "note_on channel=0 note=77 velocity=0 time=16\n",
      "note_on channel=0 note=75 velocity=0 time=40\n",
      "note_on channel=0 note=46 velocity=0 time=6\n",
      "note_on channel=0 note=41 velocity=69 time=31\n",
      "note_on channel=0 note=74 velocity=67 time=18\n",
      "note_on channel=0 note=74 velocity=0 time=46\n",
      "note_on channel=0 note=41 velocity=0 time=11\n",
      "note_on channel=0 note=38 velocity=62 time=37\n",
      "note_on channel=0 note=72 velocity=73 time=10\n",
      "note_on channel=0 note=72 velocity=0 time=22\n",
      "note_on channel=0 note=38 velocity=0 time=41\n",
      "note_on channel=0 note=39 velocity=54 time=44\n",
      "note_on channel=0 note=67 velocity=81 time=0\n",
      "note_on channel=0 note=70 velocity=73 time=7\n",
      "note_on channel=0 note=70 velocity=0 time=43\n",
      "note_on channel=0 note=67 velocity=0 time=7\n",
      "note_on channel=0 note=39 velocity=0 time=14\n",
      "note_on channel=0 note=46 velocity=69 time=34\n",
      "note_on channel=0 note=68 velocity=81 time=6\n",
      "note_on channel=0 note=46 velocity=0 time=57\n",
      "note_on channel=0 note=68 velocity=0 time=3\n",
      "note_on channel=0 note=70 velocity=78 time=59\n",
      "note_on channel=0 note=63 velocity=81 time=9\n",
      "note_on channel=0 note=43 velocity=75 time=1\n",
      "control_change channel=0 control=64 value=34 time=21\n",
      "control_change channel=0 control=64 value=64 time=15\n",
      "control_change channel=0 control=64 value=67 time=15\n",
      "note_on channel=0 note=43 velocity=0 time=12\n",
      "control_change channel=0 control=64 value=70 time=4\n",
      "control_change channel=0 control=64 value=71 time=14\n",
      "control_change channel=0 control=64 value=72 time=16\n",
      "note_on channel=0 note=72 velocity=61 time=24\n",
      "note_on channel=0 note=70 velocity=0 time=3\n",
      "note_on channel=0 note=39 velocity=64 time=12\n",
      "note_on channel=0 note=72 velocity=0 time=4\n",
      "note_on channel=0 note=39 velocity=0 time=24\n",
      "note_on channel=0 note=63 velocity=0 time=19\n",
      "control_change channel=0 control=64 value=72 time=20\n",
      "control_change channel=0 control=64 value=69 time=16\n",
      "control_change channel=0 control=64 value=63 time=16\n",
      "control_change channel=0 control=64 value=10 time=14\n",
      "note_on channel=0 note=65 velocity=77 time=9\n",
      "control_change channel=0 control=64 value=0 time=7\n",
      "note_on channel=0 note=46 velocity=62 time=12\n",
      "note_on channel=0 note=62 velocity=69 time=88\n",
      "note_on channel=0 note=65 velocity=0 time=21\n",
      "note_on channel=0 note=62 velocity=0 time=85\n",
      "note_on channel=0 note=46 velocity=0 time=7\n",
      "note_on channel=0 note=60 velocity=72 time=23\n",
      "note_on channel=0 note=53 velocity=74 time=3\n",
      "note_on channel=0 note=60 velocity=0 time=70\n",
      "note_on channel=0 note=62 velocity=78 time=46\n",
      "note_on channel=0 note=62 velocity=0 time=66\n",
      "note_on channel=0 note=53 velocity=0 time=4\n",
      "note_on channel=0 note=58 velocity=89 time=59\n",
      "note_on channel=0 note=50 velocity=77 time=4\n",
      "note_on channel=0 note=58 velocity=0 time=54\n",
      "note_on channel=0 note=63 velocity=88 time=44\n",
      "note_on channel=0 note=63 velocity=0 time=65\n",
      "note_on channel=0 note=50 velocity=0 time=19\n",
      "note_on channel=0 note=46 velocity=85 time=33\n",
      "note_on channel=0 note=62 velocity=84 time=9\n",
      "note_on channel=0 note=65 velocity=82 time=1\n",
      "control_change channel=0 control=64 value=51 time=54\n",
      "note_on channel=0 note=65 velocity=0 time=2\n",
      "note_on channel=0 note=62 velocity=0 time=10\n",
      "control_change channel=0 control=64 value=60 time=4\n",
      "control_change channel=0 control=64 value=63 time=16\n",
      "control_change channel=0 control=64 value=65 time=14\n",
      "note_on channel=0 note=63 velocity=90 time=10\n",
      "control_change channel=0 control=64 value=67 time=6\n",
      "control_change channel=0 control=64 value=70 time=15\n",
      "note_on channel=0 note=63 velocity=0 time=14\n",
      "control_change channel=0 control=64 value=73 time=1\n",
      "control_change channel=0 control=64 value=75 time=16\n",
      "control_change channel=0 control=64 value=76 time=15\n",
      "control_change channel=0 control=64 value=76 time=15\n",
      "control_change channel=0 control=64 value=76 time=30\n",
      "control_change channel=0 control=64 value=74 time=16\n",
      "note_on channel=0 note=46 velocity=0 time=1\n",
      "control_change channel=0 control=64 value=68 time=14\n",
      "note_on channel=0 note=57 velocity=87 time=9\n",
      "note_on channel=0 note=66 velocity=99 time=0\n",
      "note_on channel=0 note=75 velocity=100 time=0\n",
      "control_change channel=0 control=64 value=0 time=6\n",
      "control_change channel=0 control=64 value=44 time=113\n",
      "control_change channel=0 control=64 value=57 time=16\n",
      "control_change channel=0 control=64 value=60 time=15\n",
      "control_change channel=0 control=64 value=61 time=15\n",
      "control_change channel=0 control=64 value=60 time=16\n",
      "control_change channel=0 control=64 value=60 time=30\n",
      "control_change channel=0 control=64 value=59 time=16\n",
      "note_on channel=0 note=75 velocity=0 time=11\n",
      "control_change channel=0 control=64 value=58 time=3\n",
      "note_on channel=0 note=66 velocity=0 time=0\n",
      "note_on channel=0 note=57 velocity=0 time=2\n",
      "control_change channel=0 control=64 value=56 time=14\n",
      "control_change channel=0 control=64 value=35 time=15\n",
      "control_change channel=0 control=64 value=0 time=15\n",
      "note_on channel=0 note=56 velocity=86 time=13\n",
      "note_on channel=0 note=65 velocity=97 time=6\n",
      "note_on channel=0 note=74 velocity=92 time=3\n",
      "control_change channel=0 control=64 value=25 time=191\n",
      "control_change channel=0 control=64 value=49 time=15\n",
      "control_change channel=0 control=64 value=55 time=14\n",
      "note_on channel=0 note=56 velocity=0 time=0\n",
      "note_on channel=0 note=74 velocity=0 time=104\n",
      "note_on channel=0 note=65 velocity=0 time=15\n",
      "control_change channel=0 control=64 value=54 time=5\n",
      "control_change channel=0 control=64 value=53 time=15\n",
      "control_change channel=0 control=64 value=51 time=14\n",
      "control_change channel=0 control=64 value=49 time=16\n",
      "control_change channel=0 control=64 value=44 time=15\n",
      "control_change channel=0 control=64 value=29 time=15\n",
      "control_change channel=0 control=64 value=0 time=16\n",
      "note_on channel=0 note=56 velocity=56 time=0\n",
      "note_on channel=0 note=56 velocity=0 time=118\n",
      "note_on channel=0 note=53 velocity=57 time=29\n",
      "note_on channel=0 note=62 velocity=66 time=15\n",
      "note_on channel=0 note=62 velocity=0 time=54\n",
      "note_on channel=0 note=53 velocity=0 time=13\n",
      "note_on channel=0 note=58 velocity=57 time=30\n",
      "note_on channel=0 note=50 velocity=45 time=23\n",
      "note_on channel=0 note=58 velocity=0 time=63\n",
      "note_on channel=0 note=50 velocity=0 time=27\n",
      "note_on channel=0 note=46 velocity=54 time=28\n",
      "note_on channel=0 note=77 velocity=69 time=2\n",
      "note_on channel=0 note=68 velocity=56 time=11\n",
      "note_on channel=0 note=68 velocity=0 time=81\n",
      "note_on channel=0 note=68 velocity=18 time=0\n",
      "note_on channel=0 note=68 velocity=0 time=136\n",
      "note_on channel=0 note=46 velocity=0 time=3\n",
      "note_on channel=0 note=77 velocity=0 time=17\n",
      "note_on channel=0 note=51 velocity=41 time=16\n",
      "note_on channel=0 note=75 velocity=62 time=1\n",
      "note_on channel=0 note=67 velocity=52 time=13\n",
      "note_on channel=0 note=67 velocity=0 time=136\n",
      "note_on channel=0 note=58 velocity=49 time=108\n",
      "note_on channel=0 note=65 velocity=62 time=8\n",
      "note_on channel=0 note=58 velocity=0 time=129\n",
      "note_on channel=0 note=51 velocity=0 time=90\n",
      "note_on channel=0 note=75 velocity=0 time=5\n",
      "note_on channel=0 note=74 velocity=74 time=11\n",
      "note_on channel=0 note=59 velocity=50 time=3\n",
      "note_on channel=0 note=65 velocity=0 time=4\n",
      "note_on channel=0 note=59 velocity=0 time=30\n",
      "note_on channel=0 note=67 velocity=77 time=187\n",
      "note_on channel=0 note=75 velocity=81 time=0\n",
      "note_on channel=0 note=60 velocity=58 time=3\n",
      "note_on channel=0 note=74 velocity=0 time=18\n",
      "note_on channel=0 note=79 velocity=81 time=98\n",
      "note_on channel=0 note=75 velocity=0 time=15\n",
      "note_on channel=0 note=79 velocity=0 time=46\n",
      "note_on channel=0 note=75 velocity=77 time=64\n",
      "note_on channel=0 note=75 velocity=0 time=63\n",
      "note_on channel=0 note=67 velocity=0 time=17\n",
      "note_on channel=0 note=72 velocity=78 time=35\n",
      "note_on channel=0 note=72 velocity=0 time=70\n",
      "note_on channel=0 note=60 velocity=0 time=4\n",
      "note_on channel=0 note=68 velocity=73 time=48\n",
      "note_on channel=0 note=60 velocity=60 time=114\n",
      "note_on channel=0 note=60 velocity=0 time=58\n",
      "note_on channel=0 note=68 velocity=0 time=13\n",
      "note_on channel=0 note=56 velocity=63 time=50\n",
      "note_on channel=0 note=65 velocity=71 time=0\n",
      "note_on channel=0 note=56 velocity=0 time=40\n",
      "note_on channel=0 note=53 velocity=63 time=78\n",
      "note_on channel=0 note=53 velocity=0 time=41\n",
      "note_on channel=0 note=58 velocity=73 time=85\n",
      "note_on channel=0 note=50 velocity=44 time=46\n",
      "control_change channel=0 control=64 value=18 time=36\n",
      "control_change channel=0 control=64 value=42 time=15\n",
      "note_on channel=0 note=65 velocity=0 time=9\n",
      "control_change channel=0 control=64 value=53 time=6\n",
      "note_on channel=0 note=77 velocity=71 time=15\n",
      "control_change channel=0 control=64 value=58 time=1\n",
      "control_change channel=0 control=64 value=60 time=15\n",
      "control_change channel=0 control=64 value=61 time=16\n",
      "control_change channel=0 control=64 value=62 time=15\n",
      "note_on channel=0 note=50 velocity=0 time=6\n",
      "note_on channel=0 note=77 velocity=0 time=0\n",
      "control_change channel=0 control=64 value=63 time=9\n",
      "note_on channel=0 note=58 velocity=0 time=7\n",
      "control_change channel=0 control=64 value=62 time=23\n",
      "control_change channel=0 control=64 value=61 time=15\n",
      "note_on channel=0 note=74 velocity=61 time=14\n",
      "control_change channel=0 control=64 value=58 time=1\n",
      "note_on channel=0 note=46 velocity=57 time=1\n",
      "control_change channel=0 control=64 value=55 time=12\n",
      "control_change channel=0 control=64 value=56 time=16\n",
      "control_change channel=0 control=64 value=57 time=15\n",
      "control_change channel=0 control=64 value=58 time=15\n",
      "note_on channel=0 note=74 velocity=0 time=0\n",
      "control_change channel=0 control=64 value=59 time=16\n",
      "control_change channel=0 control=64 value=59 time=15\n",
      "note_on channel=0 note=70 velocity=73 time=7\n",
      "control_change channel=0 control=64 value=60 time=8\n",
      "control_change channel=0 control=64 value=61 time=16\n",
      "control_change channel=0 control=64 value=62 time=14\n",
      "note_on channel=0 note=70 velocity=0 time=8\n",
      "control_change channel=0 control=64 value=61 time=23\n",
      "control_change channel=0 control=64 value=58 time=15\n",
      "control_change channel=0 control=64 value=21 time=15\n",
      "control_change channel=0 control=64 value=0 time=15\n",
      "note_on channel=0 note=67 velocity=79 time=16\n",
      "control_change channel=0 control=64 value=28 time=46\n",
      "control_change channel=0 control=64 value=58 time=14\n",
      "note_on channel=0 note=46 velocity=0 time=8\n",
      "control_change channel=0 control=64 value=63 time=7\n",
      "control_change channel=0 control=64 value=64 time=16\n",
      "control_change channel=0 control=64 value=65 time=14\n",
      "note_on channel=0 note=67 velocity=0 time=1\n",
      "note_on channel=0 note=51 velocity=74 time=11\n",
      "control_change channel=0 control=64 value=66 time=3\n",
      "control_change channel=0 control=64 value=66 time=61\n",
      "control_change channel=0 control=64 value=65 time=15\n",
      "control_change channel=0 control=64 value=59 time=16\n",
      "control_change channel=0 control=64 value=0 time=15\n",
      "note_on channel=0 note=51 velocity=0 time=15\n",
      "note_on channel=0 note=48 velocity=73 time=3\n",
      "note_on channel=0 note=65 velocity=79 time=2\n",
      "note_on channel=0 note=75 velocity=77 time=2\n",
      "control_change channel=0 control=64 value=56 time=69\n",
      "note_on channel=0 note=75 velocity=0 time=9\n",
      "control_change channel=0 control=64 value=62 time=8\n",
      "control_change channel=0 control=64 value=64 time=22\n",
      "control_change channel=0 control=64 value=65 time=16\n",
      "note_on channel=0 note=44 velocity=77 time=1\n",
      "note_on channel=0 note=48 velocity=0 time=3\n",
      "control_change channel=0 control=64 value=66 time=11\n",
      "control_change channel=0 control=64 value=65 time=91\n",
      "note_on channel=0 note=65 velocity=0 time=5\n",
      "control_change channel=0 control=64 value=63 time=10\n",
      "control_change channel=0 control=64 value=55 time=15\n",
      "control_change channel=0 control=64 value=0 time=16\n",
      "note_on channel=0 note=67 velocity=90 time=2\n",
      "note_on channel=0 note=46 velocity=85 time=2\n",
      "note_on channel=0 note=44 velocity=0 time=21\n",
      "note_on channel=0 note=62 velocity=70 time=101\n",
      "control_change channel=0 control=64 value=25 time=25\n",
      "control_change channel=0 control=64 value=48 time=16\n",
      "control_change channel=0 control=64 value=55 time=14\n",
      "control_change channel=0 control=64 value=59 time=15\n",
      "control_change channel=0 control=64 value=61 time=16\n",
      "note_on channel=0 note=62 velocity=0 time=6\n",
      "control_change channel=0 control=64 value=62 time=9\n",
      "control_change channel=0 control=64 value=63 time=16\n",
      "note_on channel=0 note=63 velocity=70 time=12\n",
      "note_on channel=0 note=67 velocity=0 time=0\n",
      "control_change channel=0 control=64 value=64 time=3\n",
      "control_change channel=0 control=64 value=65 time=15\n",
      "control_change channel=0 control=64 value=65 time=15\n",
      "control_change channel=0 control=64 value=66 time=15\n",
      "control_change channel=0 control=64 value=66 time=61\n",
      "note_on channel=0 note=58 velocity=76 time=12\n",
      "note_on channel=0 note=63 velocity=0 time=7\n",
      "control_change channel=0 control=64 value=66 time=57\n",
      "control_change channel=0 control=64 value=64 time=15\n",
      "note_on channel=0 note=58 velocity=0 time=8\n",
      "control_change channel=0 control=64 value=58 time=7\n",
      "control_change channel=0 control=64 value=0 time=16\n",
      "note_on channel=0 note=65 velocity=82 time=33\n",
      "control_change channel=0 control=64 value=21 time=72\n",
      "control_change channel=0 control=64 value=52 time=24\n",
      "control_change channel=0 control=64 value=60 time=16\n",
      "control_change channel=0 control=64 value=63 time=16\n",
      "note_on channel=0 note=60 velocity=71 time=10\n",
      "control_change channel=0 control=64 value=64 time=4\n",
      "control_change channel=0 control=64 value=65 time=15\n",
      "control_change channel=0 control=64 value=66 time=16\n",
      "control_change channel=0 control=64 value=67 time=15\n",
      "control_change channel=0 control=64 value=67 time=16\n",
      "control_change channel=0 control=64 value=68 time=14\n",
      "note_on channel=0 note=60 velocity=0 time=11\n",
      "control_change channel=0 control=64 value=69 time=4\n",
      "control_change channel=0 control=64 value=70 time=16\n",
      "control_change channel=0 control=64 value=70 time=15\n",
      "note_on channel=0 note=62 velocity=72 time=4\n",
      "control_change channel=0 control=64 value=71 time=57\n",
      "note_on channel=0 note=62 velocity=0 time=51\n",
      "note_on channel=0 note=56 velocity=77 time=7\n",
      "control_change channel=0 control=64 value=70 time=65\n",
      "note_on channel=0 note=65 velocity=0 time=35\n",
      "control_change channel=0 control=64 value=69 time=25\n",
      "note_on channel=0 note=56 velocity=0 time=4\n",
      "control_change channel=0 control=64 value=65 time=12\n",
      "note_on channel=0 note=46 velocity=0 time=5\n",
      "note_on channel=0 note=63 velocity=86 time=0\n",
      "note_on channel=0 note=39 velocity=56 time=4\n",
      "control_change channel=0 control=64 value=55 time=6\n",
      "control_change channel=0 control=64 value=0 time=16\n",
      "note_on channel=0 note=61 velocity=67 time=119\n",
      "note_on channel=0 note=61 velocity=0 time=139\n",
      "note_on channel=0 note=58 velocity=59 time=11\n",
      "note_on channel=0 note=58 velocity=0 time=92\n",
      "note_on channel=0 note=55 velocity=64 time=50\n",
      "note_on channel=0 note=55 velocity=0 time=100\n",
      "note_on channel=0 note=60 velocity=72 time=51\n",
      "note_on channel=0 note=60 velocity=0 time=136\n",
      "note_on channel=0 note=56 velocity=68 time=15\n",
      "note_on channel=0 note=56 velocity=0 time=115\n",
      "note_on channel=0 note=53 velocity=71 time=52\n",
      "note_on channel=0 note=53 velocity=0 time=119\n",
      "note_on channel=0 note=59 velocity=63 time=74\n",
      "note_on channel=0 note=59 velocity=0 time=232\n",
      "note_on channel=0 note=55 velocity=58 time=73\n",
      "note_on channel=0 note=58 velocity=62 time=0\n",
      "control_change channel=0 control=64 value=13 time=1283\n",
      "control_change channel=0 control=64 value=23 time=16\n",
      "control_change channel=0 control=64 value=29 time=15\n",
      "control_change channel=0 control=64 value=35 time=15\n",
      "control_change channel=0 control=64 value=40 time=16\n",
      "control_change channel=0 control=64 value=44 time=14\n",
      "control_change channel=0 control=64 value=47 time=15\n",
      "control_change channel=0 control=64 value=50 time=16\n",
      "control_change channel=0 control=64 value=53 time=14\n",
      "control_change channel=0 control=64 value=55 time=15\n",
      "control_change channel=0 control=64 value=57 time=15\n",
      "control_change channel=0 control=64 value=59 time=16\n",
      "control_change channel=0 control=64 value=60 time=16\n",
      "control_change channel=0 control=64 value=62 time=15\n",
      "control_change channel=0 control=64 value=62 time=15\n",
      "control_change channel=0 control=64 value=63 time=15\n",
      "control_change channel=0 control=64 value=64 time=15\n",
      "control_change channel=0 control=64 value=65 time=16\n",
      "control_change channel=0 control=64 value=65 time=15\n",
      "control_change channel=0 control=64 value=66 time=15\n",
      "control_change channel=0 control=64 value=67 time=15\n",
      "control_change channel=0 control=64 value=68 time=15\n",
      "control_change channel=0 control=64 value=69 time=15\n",
      "control_change channel=0 control=64 value=70 time=16\n",
      "control_change channel=0 control=64 value=71 time=15\n",
      "control_change channel=0 control=64 value=72 time=16\n",
      "control_change channel=0 control=64 value=73 time=15\n",
      "control_change channel=0 control=64 value=74 time=15\n",
      "control_change channel=0 control=64 value=74 time=15\n",
      "control_change channel=0 control=64 value=75 time=15\n",
      "control_change channel=0 control=64 value=75 time=16\n",
      "note_on channel=0 note=39 velocity=0 time=19\n",
      "note_on channel=0 note=63 velocity=0 time=64\n",
      "note_on channel=0 note=55 velocity=0 time=37\n",
      "control_change channel=0 control=64 value=75 time=16\n",
      "note_on channel=0 note=58 velocity=0 time=7\n",
      "control_change channel=0 control=64 value=74 time=38\n",
      "control_change channel=0 control=64 value=74 time=15\n",
      "control_change channel=0 control=64 value=73 time=16\n",
      "control_change channel=0 control=64 value=73 time=15\n",
      "control_change channel=0 control=64 value=72 time=16\n",
      "control_change channel=0 control=64 value=72 time=22\n",
      "control_change channel=0 control=64 value=71 time=16\n",
      "control_change channel=0 control=64 value=70 time=15\n",
      "control_change channel=0 control=64 value=69 time=14\n",
      "control_change channel=0 control=64 value=69 time=16\n",
      "control_change channel=0 control=64 value=68 time=30\n",
      "control_change channel=0 control=64 value=68 time=30\n",
      "control_change channel=0 control=64 value=67 time=31\n",
      "control_change channel=0 control=64 value=67 time=31\n",
      "control_change channel=0 control=64 value=66 time=14\n",
      "control_change channel=0 control=64 value=66 time=15\n",
      "control_change channel=0 control=64 value=65 time=30\n",
      "control_change channel=0 control=64 value=65 time=33\n",
      "control_change channel=0 control=64 value=64 time=14\n",
      "control_change channel=0 control=64 value=64 time=47\n",
      "control_change channel=0 control=64 value=63 time=60\n",
      "control_change channel=0 control=64 value=63 time=30\n",
      "control_change channel=0 control=64 value=62 time=77\n",
      "control_change channel=0 control=64 value=62 time=91\n",
      "control_change channel=0 control=64 value=61 time=75\n",
      "control_change channel=0 control=64 value=61 time=15\n",
      "control_change channel=0 control=64 value=60 time=46\n",
      "control_change channel=0 control=64 value=60 time=38\n",
      "control_change channel=0 control=64 value=59 time=16\n",
      "control_change channel=0 control=64 value=59 time=15\n",
      "control_change channel=0 control=64 value=58 time=16\n",
      "control_change channel=0 control=64 value=58 time=29\n",
      "control_change channel=0 control=64 value=57 time=16\n",
      "control_change channel=0 control=64 value=57 time=29\n",
      "control_change channel=0 control=64 value=56 time=47\n",
      "control_change channel=0 control=64 value=56 time=137\n",
      "MetaMessage('end_of_track', time=1)\n"
     ]
    }
   ],
   "source": [
    "import mido\n",
    "\n",
    "# Load the MIDI file\n",
    "midi_file = mido.MidiFile(midi_path)\n",
    "\n",
    "# Iterate through the messages in the file\n",
    "for i, track in enumerate(midi_file.tracks):\n",
    "    print(f\"Track {i}: {track.name}\")\n",
    "    for msg in track:\n",
    "        print(msg)"
   ]
  },
  {
   "cell_type": "code",
   "execution_count": 78,
   "id": "f4ecbd9d",
   "metadata": {},
   "outputs": [],
   "source": [
    "import librosa\n",
    "import numpy as np\n",
    "import matplotlib.pyplot as plt\n",
    "\n",
    "sample_rate = 44.1e3\n",
    "n_fft = 2048\n",
    "hop_length = 128\n",
    "n_mels = 256\n",
    "y, sr = librosa.load(wav_path, sr = None, mono=True)\n",
    "# sr = 16000 # Hz\n",
    "target_sr = 16e3\n",
    "y = librosa.resample(y, orig_sr=sample_rate, target_sr=target_sr)\n",
    "\n",
    "# Compute mel spectrogram\n",
    "S = librosa.feature.melspectrogram(y=y, sr=sr, n_fft = n_fft, hop_length=hop_length, n_mels=n_mels, fmax=8000)\n",
    "\n",
    "# Convert to decibels (log scale)\n",
    "S_dB = librosa.power_to_db(S, ref=np.max)"
   ]
  },
  {
   "cell_type": "code",
   "execution_count": 51,
   "id": "f37326f6",
   "metadata": {},
   "outputs": [
    {
     "data": {
      "text/plain": [
       "343.97748299319727"
      ]
     },
     "execution_count": 51,
     "metadata": {},
     "output_type": "execute_result"
    }
   ],
   "source": [
    "# y, sr = librosa.load(wav_path, sr = sample_rate)\n",
    "duration = librosa.get_duration(y=y, sr=sr)\n",
    "duration"
   ]
  },
  {
   "cell_type": "code",
   "execution_count": 54,
   "id": "0f8da18b",
   "metadata": {},
   "outputs": [
    {
     "name": "stdout",
     "output_type": "stream",
     "text": [
      "/root/musica/data/2008/MIDI-Unprocessed_01_R1_2008_01-04_ORIG_MID--AUDIO_01_R1_2008_wav--1.wav\n",
      "samplerate: 44100 Hz\n",
      "channels: 2\n",
      "duration: 05:43.977 min\n",
      "format: WAV (Microsoft) [WAV]\n",
      "subtype: Signed 16 bit PCM [PCM_16]\n"
     ]
    }
   ],
   "source": [
    "import soundfile as sf\n",
    "\n",
    "info = sf.info(wav_path)\n",
    "print(info)"
   ]
  },
  {
   "cell_type": "code",
   "execution_count": 47,
   "id": "290c9864",
   "metadata": {},
   "outputs": [
    {
     "ename": "KeyboardInterrupt",
     "evalue": "",
     "output_type": "error",
     "traceback": [
      "\u001b[0;31m---------------------------------------------------------------------------\u001b[0m",
      "\u001b[0;31mKeyboardInterrupt\u001b[0m                         Traceback (most recent call last)",
      "Cell \u001b[0;32mIn[47], line 7\u001b[0m\n\u001b[1;32m      5\u001b[0m plt\u001b[38;5;241m.\u001b[39mtitle(\u001b[38;5;124m'\u001b[39m\u001b[38;5;124mMel-frequency spectrogram\u001b[39m\u001b[38;5;124m'\u001b[39m)\n\u001b[1;32m      6\u001b[0m plt\u001b[38;5;241m.\u001b[39mtight_layout()\n\u001b[0;32m----> 7\u001b[0m \u001b[43mplt\u001b[49m\u001b[38;5;241;43m.\u001b[39;49m\u001b[43mshow\u001b[49m\u001b[43m(\u001b[49m\u001b[43m)\u001b[49m\n",
      "File \u001b[0;32m~/miniconda3/envs/musica-env/lib/python3.10/site-packages/matplotlib/pyplot.py:614\u001b[0m, in \u001b[0;36mshow\u001b[0;34m(*args, **kwargs)\u001b[0m\n\u001b[1;32m    570\u001b[0m \u001b[38;5;250m\u001b[39m\u001b[38;5;124;03m\"\"\"\u001b[39;00m\n\u001b[1;32m    571\u001b[0m \u001b[38;5;124;03mDisplay all open figures.\u001b[39;00m\n\u001b[1;32m    572\u001b[0m \n\u001b[0;32m   (...)\u001b[0m\n\u001b[1;32m    611\u001b[0m \u001b[38;5;124;03mexplicitly there.\u001b[39;00m\n\u001b[1;32m    612\u001b[0m \u001b[38;5;124;03m\"\"\"\u001b[39;00m\n\u001b[1;32m    613\u001b[0m _warn_if_gui_out_of_main_thread()\n\u001b[0;32m--> 614\u001b[0m \u001b[38;5;28;01mreturn\u001b[39;00m \u001b[43m_get_backend_mod\u001b[49m\u001b[43m(\u001b[49m\u001b[43m)\u001b[49m\u001b[38;5;241;43m.\u001b[39;49m\u001b[43mshow\u001b[49m\u001b[43m(\u001b[49m\u001b[38;5;241;43m*\u001b[39;49m\u001b[43margs\u001b[49m\u001b[43m,\u001b[49m\u001b[43m \u001b[49m\u001b[38;5;241;43m*\u001b[39;49m\u001b[38;5;241;43m*\u001b[39;49m\u001b[43mkwargs\u001b[49m\u001b[43m)\u001b[49m\n",
      "File \u001b[0;32m~/miniconda3/envs/musica-env/lib/python3.10/site-packages/matplotlib_inline/backend_inline.py:90\u001b[0m, in \u001b[0;36mshow\u001b[0;34m(close, block)\u001b[0m\n\u001b[1;32m     88\u001b[0m \u001b[38;5;28;01mtry\u001b[39;00m:\n\u001b[1;32m     89\u001b[0m     \u001b[38;5;28;01mfor\u001b[39;00m figure_manager \u001b[38;5;129;01min\u001b[39;00m Gcf\u001b[38;5;241m.\u001b[39mget_all_fig_managers():\n\u001b[0;32m---> 90\u001b[0m         \u001b[43mdisplay\u001b[49m\u001b[43m(\u001b[49m\n\u001b[1;32m     91\u001b[0m \u001b[43m            \u001b[49m\u001b[43mfigure_manager\u001b[49m\u001b[38;5;241;43m.\u001b[39;49m\u001b[43mcanvas\u001b[49m\u001b[38;5;241;43m.\u001b[39;49m\u001b[43mfigure\u001b[49m\u001b[43m,\u001b[49m\n\u001b[1;32m     92\u001b[0m \u001b[43m            \u001b[49m\u001b[43mmetadata\u001b[49m\u001b[38;5;241;43m=\u001b[39;49m\u001b[43m_fetch_figure_metadata\u001b[49m\u001b[43m(\u001b[49m\u001b[43mfigure_manager\u001b[49m\u001b[38;5;241;43m.\u001b[39;49m\u001b[43mcanvas\u001b[49m\u001b[38;5;241;43m.\u001b[39;49m\u001b[43mfigure\u001b[49m\u001b[43m)\u001b[49m\n\u001b[1;32m     93\u001b[0m \u001b[43m        \u001b[49m\u001b[43m)\u001b[49m\n\u001b[1;32m     94\u001b[0m \u001b[38;5;28;01mfinally\u001b[39;00m:\n\u001b[1;32m     95\u001b[0m     show\u001b[38;5;241m.\u001b[39m_to_draw \u001b[38;5;241m=\u001b[39m []\n",
      "File \u001b[0;32m~/miniconda3/envs/musica-env/lib/python3.10/site-packages/IPython/core/display_functions.py:298\u001b[0m, in \u001b[0;36mdisplay\u001b[0;34m(include, exclude, metadata, transient, display_id, raw, clear, *objs, **kwargs)\u001b[0m\n\u001b[1;32m    296\u001b[0m     publish_display_data(data\u001b[38;5;241m=\u001b[39mobj, metadata\u001b[38;5;241m=\u001b[39mmetadata, \u001b[38;5;241m*\u001b[39m\u001b[38;5;241m*\u001b[39mkwargs)\n\u001b[1;32m    297\u001b[0m \u001b[38;5;28;01melse\u001b[39;00m:\n\u001b[0;32m--> 298\u001b[0m     format_dict, md_dict \u001b[38;5;241m=\u001b[39m \u001b[38;5;28;43mformat\u001b[39;49m\u001b[43m(\u001b[49m\u001b[43mobj\u001b[49m\u001b[43m,\u001b[49m\u001b[43m \u001b[49m\u001b[43minclude\u001b[49m\u001b[38;5;241;43m=\u001b[39;49m\u001b[43minclude\u001b[49m\u001b[43m,\u001b[49m\u001b[43m \u001b[49m\u001b[43mexclude\u001b[49m\u001b[38;5;241;43m=\u001b[39;49m\u001b[43mexclude\u001b[49m\u001b[43m)\u001b[49m\n\u001b[1;32m    299\u001b[0m     \u001b[38;5;28;01mif\u001b[39;00m \u001b[38;5;129;01mnot\u001b[39;00m format_dict:\n\u001b[1;32m    300\u001b[0m         \u001b[38;5;66;03m# nothing to display (e.g. _ipython_display_ took over)\u001b[39;00m\n\u001b[1;32m    301\u001b[0m         \u001b[38;5;28;01mcontinue\u001b[39;00m\n",
      "File \u001b[0;32m~/miniconda3/envs/musica-env/lib/python3.10/site-packages/IPython/core/formatters.py:238\u001b[0m, in \u001b[0;36mDisplayFormatter.format\u001b[0;34m(self, obj, include, exclude)\u001b[0m\n\u001b[1;32m    236\u001b[0m md \u001b[38;5;241m=\u001b[39m \u001b[38;5;28;01mNone\u001b[39;00m\n\u001b[1;32m    237\u001b[0m \u001b[38;5;28;01mtry\u001b[39;00m:\n\u001b[0;32m--> 238\u001b[0m     data \u001b[38;5;241m=\u001b[39m \u001b[43mformatter\u001b[49m\u001b[43m(\u001b[49m\u001b[43mobj\u001b[49m\u001b[43m)\u001b[49m\n\u001b[1;32m    239\u001b[0m \u001b[38;5;28;01mexcept\u001b[39;00m:\n\u001b[1;32m    240\u001b[0m     \u001b[38;5;66;03m# FIXME: log the exception\u001b[39;00m\n\u001b[1;32m    241\u001b[0m     \u001b[38;5;28;01mraise\u001b[39;00m\n",
      "File \u001b[0;32m~/miniconda3/envs/musica-env/lib/python3.10/site-packages/decorator.py:232\u001b[0m, in \u001b[0;36mdecorate.<locals>.fun\u001b[0;34m(*args, **kw)\u001b[0m\n\u001b[1;32m    230\u001b[0m \u001b[38;5;28;01mif\u001b[39;00m \u001b[38;5;129;01mnot\u001b[39;00m kwsyntax:\n\u001b[1;32m    231\u001b[0m     args, kw \u001b[38;5;241m=\u001b[39m fix(args, kw, sig)\n\u001b[0;32m--> 232\u001b[0m \u001b[38;5;28;01mreturn\u001b[39;00m \u001b[43mcaller\u001b[49m\u001b[43m(\u001b[49m\u001b[43mfunc\u001b[49m\u001b[43m,\u001b[49m\u001b[43m \u001b[49m\u001b[38;5;241;43m*\u001b[39;49m\u001b[43m(\u001b[49m\u001b[43mextras\u001b[49m\u001b[43m \u001b[49m\u001b[38;5;241;43m+\u001b[39;49m\u001b[43m \u001b[49m\u001b[43margs\u001b[49m\u001b[43m)\u001b[49m\u001b[43m,\u001b[49m\u001b[43m \u001b[49m\u001b[38;5;241;43m*\u001b[39;49m\u001b[38;5;241;43m*\u001b[39;49m\u001b[43mkw\u001b[49m\u001b[43m)\u001b[49m\n",
      "File \u001b[0;32m~/miniconda3/envs/musica-env/lib/python3.10/site-packages/IPython/core/formatters.py:282\u001b[0m, in \u001b[0;36mcatch_format_error\u001b[0;34m(method, self, *args, **kwargs)\u001b[0m\n\u001b[1;32m    280\u001b[0m \u001b[38;5;250m\u001b[39m\u001b[38;5;124;03m\"\"\"show traceback on failed format call\"\"\"\u001b[39;00m\n\u001b[1;32m    281\u001b[0m \u001b[38;5;28;01mtry\u001b[39;00m:\n\u001b[0;32m--> 282\u001b[0m     r \u001b[38;5;241m=\u001b[39m \u001b[43mmethod\u001b[49m\u001b[43m(\u001b[49m\u001b[38;5;28;43mself\u001b[39;49m\u001b[43m,\u001b[49m\u001b[43m \u001b[49m\u001b[38;5;241;43m*\u001b[39;49m\u001b[43margs\u001b[49m\u001b[43m,\u001b[49m\u001b[43m \u001b[49m\u001b[38;5;241;43m*\u001b[39;49m\u001b[38;5;241;43m*\u001b[39;49m\u001b[43mkwargs\u001b[49m\u001b[43m)\u001b[49m\n\u001b[1;32m    283\u001b[0m \u001b[38;5;28;01mexcept\u001b[39;00m \u001b[38;5;167;01mNotImplementedError\u001b[39;00m:\n\u001b[1;32m    284\u001b[0m     \u001b[38;5;66;03m# don't warn on NotImplementedErrors\u001b[39;00m\n\u001b[1;32m    285\u001b[0m     \u001b[38;5;28;01mreturn\u001b[39;00m \u001b[38;5;28mself\u001b[39m\u001b[38;5;241m.\u001b[39m_check_return(\u001b[38;5;28;01mNone\u001b[39;00m, args[\u001b[38;5;241m0\u001b[39m])\n",
      "File \u001b[0;32m~/miniconda3/envs/musica-env/lib/python3.10/site-packages/IPython/core/formatters.py:402\u001b[0m, in \u001b[0;36mBaseFormatter.__call__\u001b[0;34m(self, obj)\u001b[0m\n\u001b[1;32m    400\u001b[0m     \u001b[38;5;28;01mpass\u001b[39;00m\n\u001b[1;32m    401\u001b[0m \u001b[38;5;28;01melse\u001b[39;00m:\n\u001b[0;32m--> 402\u001b[0m     \u001b[38;5;28;01mreturn\u001b[39;00m \u001b[43mprinter\u001b[49m\u001b[43m(\u001b[49m\u001b[43mobj\u001b[49m\u001b[43m)\u001b[49m\n\u001b[1;32m    403\u001b[0m \u001b[38;5;66;03m# Finally look for special method names\u001b[39;00m\n\u001b[1;32m    404\u001b[0m method \u001b[38;5;241m=\u001b[39m get_real_method(obj, \u001b[38;5;28mself\u001b[39m\u001b[38;5;241m.\u001b[39mprint_method)\n",
      "File \u001b[0;32m~/miniconda3/envs/musica-env/lib/python3.10/site-packages/IPython/core/pylabtools.py:170\u001b[0m, in \u001b[0;36mprint_figure\u001b[0;34m(fig, fmt, bbox_inches, base64, **kwargs)\u001b[0m\n\u001b[1;32m    167\u001b[0m     \u001b[38;5;28;01mfrom\u001b[39;00m\u001b[38;5;250m \u001b[39m\u001b[38;5;21;01mmatplotlib\u001b[39;00m\u001b[38;5;21;01m.\u001b[39;00m\u001b[38;5;21;01mbackend_bases\u001b[39;00m\u001b[38;5;250m \u001b[39m\u001b[38;5;28;01mimport\u001b[39;00m FigureCanvasBase\n\u001b[1;32m    168\u001b[0m     FigureCanvasBase(fig)\n\u001b[0;32m--> 170\u001b[0m \u001b[43mfig\u001b[49m\u001b[38;5;241;43m.\u001b[39;49m\u001b[43mcanvas\u001b[49m\u001b[38;5;241;43m.\u001b[39;49m\u001b[43mprint_figure\u001b[49m\u001b[43m(\u001b[49m\u001b[43mbytes_io\u001b[49m\u001b[43m,\u001b[49m\u001b[43m \u001b[49m\u001b[38;5;241;43m*\u001b[39;49m\u001b[38;5;241;43m*\u001b[39;49m\u001b[43mkw\u001b[49m\u001b[43m)\u001b[49m\n\u001b[1;32m    171\u001b[0m data \u001b[38;5;241m=\u001b[39m bytes_io\u001b[38;5;241m.\u001b[39mgetvalue()\n\u001b[1;32m    172\u001b[0m \u001b[38;5;28;01mif\u001b[39;00m fmt \u001b[38;5;241m==\u001b[39m \u001b[38;5;124m'\u001b[39m\u001b[38;5;124msvg\u001b[39m\u001b[38;5;124m'\u001b[39m:\n",
      "File \u001b[0;32m~/miniconda3/envs/musica-env/lib/python3.10/site-packages/matplotlib/backend_bases.py:2155\u001b[0m, in \u001b[0;36mFigureCanvasBase.print_figure\u001b[0;34m(self, filename, dpi, facecolor, edgecolor, orientation, format, bbox_inches, pad_inches, bbox_extra_artists, backend, **kwargs)\u001b[0m\n\u001b[1;32m   2152\u001b[0m     \u001b[38;5;66;03m# we do this instead of `self.figure.draw_without_rendering`\u001b[39;00m\n\u001b[1;32m   2153\u001b[0m     \u001b[38;5;66;03m# so that we can inject the orientation\u001b[39;00m\n\u001b[1;32m   2154\u001b[0m     \u001b[38;5;28;01mwith\u001b[39;00m \u001b[38;5;28mgetattr\u001b[39m(renderer, \u001b[38;5;124m\"\u001b[39m\u001b[38;5;124m_draw_disabled\u001b[39m\u001b[38;5;124m\"\u001b[39m, nullcontext)():\n\u001b[0;32m-> 2155\u001b[0m         \u001b[38;5;28;43mself\u001b[39;49m\u001b[38;5;241;43m.\u001b[39;49m\u001b[43mfigure\u001b[49m\u001b[38;5;241;43m.\u001b[39;49m\u001b[43mdraw\u001b[49m\u001b[43m(\u001b[49m\u001b[43mrenderer\u001b[49m\u001b[43m)\u001b[49m\n\u001b[1;32m   2156\u001b[0m \u001b[38;5;28;01mif\u001b[39;00m bbox_inches:\n\u001b[1;32m   2157\u001b[0m     \u001b[38;5;28;01mif\u001b[39;00m bbox_inches \u001b[38;5;241m==\u001b[39m \u001b[38;5;124m\"\u001b[39m\u001b[38;5;124mtight\u001b[39m\u001b[38;5;124m\"\u001b[39m:\n",
      "File \u001b[0;32m~/miniconda3/envs/musica-env/lib/python3.10/site-packages/matplotlib/artist.py:94\u001b[0m, in \u001b[0;36m_finalize_rasterization.<locals>.draw_wrapper\u001b[0;34m(artist, renderer, *args, **kwargs)\u001b[0m\n\u001b[1;32m     92\u001b[0m \u001b[38;5;129m@wraps\u001b[39m(draw)\n\u001b[1;32m     93\u001b[0m \u001b[38;5;28;01mdef\u001b[39;00m\u001b[38;5;250m \u001b[39m\u001b[38;5;21mdraw_wrapper\u001b[39m(artist, renderer, \u001b[38;5;241m*\u001b[39margs, \u001b[38;5;241m*\u001b[39m\u001b[38;5;241m*\u001b[39mkwargs):\n\u001b[0;32m---> 94\u001b[0m     result \u001b[38;5;241m=\u001b[39m \u001b[43mdraw\u001b[49m\u001b[43m(\u001b[49m\u001b[43martist\u001b[49m\u001b[43m,\u001b[49m\u001b[43m \u001b[49m\u001b[43mrenderer\u001b[49m\u001b[43m,\u001b[49m\u001b[43m \u001b[49m\u001b[38;5;241;43m*\u001b[39;49m\u001b[43margs\u001b[49m\u001b[43m,\u001b[49m\u001b[43m \u001b[49m\u001b[38;5;241;43m*\u001b[39;49m\u001b[38;5;241;43m*\u001b[39;49m\u001b[43mkwargs\u001b[49m\u001b[43m)\u001b[49m\n\u001b[1;32m     95\u001b[0m     \u001b[38;5;28;01mif\u001b[39;00m renderer\u001b[38;5;241m.\u001b[39m_rasterizing:\n\u001b[1;32m     96\u001b[0m         renderer\u001b[38;5;241m.\u001b[39mstop_rasterizing()\n",
      "File \u001b[0;32m~/miniconda3/envs/musica-env/lib/python3.10/site-packages/matplotlib/artist.py:71\u001b[0m, in \u001b[0;36mallow_rasterization.<locals>.draw_wrapper\u001b[0;34m(artist, renderer)\u001b[0m\n\u001b[1;32m     68\u001b[0m     \u001b[38;5;28;01mif\u001b[39;00m artist\u001b[38;5;241m.\u001b[39mget_agg_filter() \u001b[38;5;129;01mis\u001b[39;00m \u001b[38;5;129;01mnot\u001b[39;00m \u001b[38;5;28;01mNone\u001b[39;00m:\n\u001b[1;32m     69\u001b[0m         renderer\u001b[38;5;241m.\u001b[39mstart_filter()\n\u001b[0;32m---> 71\u001b[0m     \u001b[38;5;28;01mreturn\u001b[39;00m \u001b[43mdraw\u001b[49m\u001b[43m(\u001b[49m\u001b[43martist\u001b[49m\u001b[43m,\u001b[49m\u001b[43m \u001b[49m\u001b[43mrenderer\u001b[49m\u001b[43m)\u001b[49m\n\u001b[1;32m     72\u001b[0m \u001b[38;5;28;01mfinally\u001b[39;00m:\n\u001b[1;32m     73\u001b[0m     \u001b[38;5;28;01mif\u001b[39;00m artist\u001b[38;5;241m.\u001b[39mget_agg_filter() \u001b[38;5;129;01mis\u001b[39;00m \u001b[38;5;129;01mnot\u001b[39;00m \u001b[38;5;28;01mNone\u001b[39;00m:\n",
      "File \u001b[0;32m~/miniconda3/envs/musica-env/lib/python3.10/site-packages/matplotlib/figure.py:3257\u001b[0m, in \u001b[0;36mFigure.draw\u001b[0;34m(self, renderer)\u001b[0m\n\u001b[1;32m   3254\u001b[0m             \u001b[38;5;66;03m# ValueError can occur when resizing a window.\u001b[39;00m\n\u001b[1;32m   3256\u001b[0m     \u001b[38;5;28mself\u001b[39m\u001b[38;5;241m.\u001b[39mpatch\u001b[38;5;241m.\u001b[39mdraw(renderer)\n\u001b[0;32m-> 3257\u001b[0m     \u001b[43mmimage\u001b[49m\u001b[38;5;241;43m.\u001b[39;49m\u001b[43m_draw_list_compositing_images\u001b[49m\u001b[43m(\u001b[49m\n\u001b[1;32m   3258\u001b[0m \u001b[43m        \u001b[49m\u001b[43mrenderer\u001b[49m\u001b[43m,\u001b[49m\u001b[43m \u001b[49m\u001b[38;5;28;43mself\u001b[39;49m\u001b[43m,\u001b[49m\u001b[43m \u001b[49m\u001b[43martists\u001b[49m\u001b[43m,\u001b[49m\u001b[43m \u001b[49m\u001b[38;5;28;43mself\u001b[39;49m\u001b[38;5;241;43m.\u001b[39;49m\u001b[43msuppressComposite\u001b[49m\u001b[43m)\u001b[49m\n\u001b[1;32m   3260\u001b[0m     renderer\u001b[38;5;241m.\u001b[39mclose_group(\u001b[38;5;124m'\u001b[39m\u001b[38;5;124mfigure\u001b[39m\u001b[38;5;124m'\u001b[39m)\n\u001b[1;32m   3261\u001b[0m \u001b[38;5;28;01mfinally\u001b[39;00m:\n",
      "File \u001b[0;32m~/miniconda3/envs/musica-env/lib/python3.10/site-packages/matplotlib/image.py:134\u001b[0m, in \u001b[0;36m_draw_list_compositing_images\u001b[0;34m(renderer, parent, artists, suppress_composite)\u001b[0m\n\u001b[1;32m    132\u001b[0m \u001b[38;5;28;01mif\u001b[39;00m not_composite \u001b[38;5;129;01mor\u001b[39;00m \u001b[38;5;129;01mnot\u001b[39;00m has_images:\n\u001b[1;32m    133\u001b[0m     \u001b[38;5;28;01mfor\u001b[39;00m a \u001b[38;5;129;01min\u001b[39;00m artists:\n\u001b[0;32m--> 134\u001b[0m         \u001b[43ma\u001b[49m\u001b[38;5;241;43m.\u001b[39;49m\u001b[43mdraw\u001b[49m\u001b[43m(\u001b[49m\u001b[43mrenderer\u001b[49m\u001b[43m)\u001b[49m\n\u001b[1;32m    135\u001b[0m \u001b[38;5;28;01melse\u001b[39;00m:\n\u001b[1;32m    136\u001b[0m     \u001b[38;5;66;03m# Composite any adjacent images together\u001b[39;00m\n\u001b[1;32m    137\u001b[0m     image_group \u001b[38;5;241m=\u001b[39m []\n",
      "File \u001b[0;32m~/miniconda3/envs/musica-env/lib/python3.10/site-packages/matplotlib/artist.py:71\u001b[0m, in \u001b[0;36mallow_rasterization.<locals>.draw_wrapper\u001b[0;34m(artist, renderer)\u001b[0m\n\u001b[1;32m     68\u001b[0m     \u001b[38;5;28;01mif\u001b[39;00m artist\u001b[38;5;241m.\u001b[39mget_agg_filter() \u001b[38;5;129;01mis\u001b[39;00m \u001b[38;5;129;01mnot\u001b[39;00m \u001b[38;5;28;01mNone\u001b[39;00m:\n\u001b[1;32m     69\u001b[0m         renderer\u001b[38;5;241m.\u001b[39mstart_filter()\n\u001b[0;32m---> 71\u001b[0m     \u001b[38;5;28;01mreturn\u001b[39;00m \u001b[43mdraw\u001b[49m\u001b[43m(\u001b[49m\u001b[43martist\u001b[49m\u001b[43m,\u001b[49m\u001b[43m \u001b[49m\u001b[43mrenderer\u001b[49m\u001b[43m)\u001b[49m\n\u001b[1;32m     72\u001b[0m \u001b[38;5;28;01mfinally\u001b[39;00m:\n\u001b[1;32m     73\u001b[0m     \u001b[38;5;28;01mif\u001b[39;00m artist\u001b[38;5;241m.\u001b[39mget_agg_filter() \u001b[38;5;129;01mis\u001b[39;00m \u001b[38;5;129;01mnot\u001b[39;00m \u001b[38;5;28;01mNone\u001b[39;00m:\n",
      "File \u001b[0;32m~/miniconda3/envs/musica-env/lib/python3.10/site-packages/matplotlib/axes/_base.py:3181\u001b[0m, in \u001b[0;36m_AxesBase.draw\u001b[0;34m(self, renderer)\u001b[0m\n\u001b[1;32m   3178\u001b[0m \u001b[38;5;28;01mif\u001b[39;00m artists_rasterized:\n\u001b[1;32m   3179\u001b[0m     _draw_rasterized(\u001b[38;5;28mself\u001b[39m\u001b[38;5;241m.\u001b[39mget_figure(root\u001b[38;5;241m=\u001b[39m\u001b[38;5;28;01mTrue\u001b[39;00m), artists_rasterized, renderer)\n\u001b[0;32m-> 3181\u001b[0m \u001b[43mmimage\u001b[49m\u001b[38;5;241;43m.\u001b[39;49m\u001b[43m_draw_list_compositing_images\u001b[49m\u001b[43m(\u001b[49m\n\u001b[1;32m   3182\u001b[0m \u001b[43m    \u001b[49m\u001b[43mrenderer\u001b[49m\u001b[43m,\u001b[49m\u001b[43m \u001b[49m\u001b[38;5;28;43mself\u001b[39;49m\u001b[43m,\u001b[49m\u001b[43m \u001b[49m\u001b[43martists\u001b[49m\u001b[43m,\u001b[49m\u001b[43m \u001b[49m\u001b[38;5;28;43mself\u001b[39;49m\u001b[38;5;241;43m.\u001b[39;49m\u001b[43mget_figure\u001b[49m\u001b[43m(\u001b[49m\u001b[43mroot\u001b[49m\u001b[38;5;241;43m=\u001b[39;49m\u001b[38;5;28;43;01mTrue\u001b[39;49;00m\u001b[43m)\u001b[49m\u001b[38;5;241;43m.\u001b[39;49m\u001b[43msuppressComposite\u001b[49m\u001b[43m)\u001b[49m\n\u001b[1;32m   3184\u001b[0m renderer\u001b[38;5;241m.\u001b[39mclose_group(\u001b[38;5;124m'\u001b[39m\u001b[38;5;124maxes\u001b[39m\u001b[38;5;124m'\u001b[39m)\n\u001b[1;32m   3185\u001b[0m \u001b[38;5;28mself\u001b[39m\u001b[38;5;241m.\u001b[39mstale \u001b[38;5;241m=\u001b[39m \u001b[38;5;28;01mFalse\u001b[39;00m\n",
      "File \u001b[0;32m~/miniconda3/envs/musica-env/lib/python3.10/site-packages/matplotlib/image.py:134\u001b[0m, in \u001b[0;36m_draw_list_compositing_images\u001b[0;34m(renderer, parent, artists, suppress_composite)\u001b[0m\n\u001b[1;32m    132\u001b[0m \u001b[38;5;28;01mif\u001b[39;00m not_composite \u001b[38;5;129;01mor\u001b[39;00m \u001b[38;5;129;01mnot\u001b[39;00m has_images:\n\u001b[1;32m    133\u001b[0m     \u001b[38;5;28;01mfor\u001b[39;00m a \u001b[38;5;129;01min\u001b[39;00m artists:\n\u001b[0;32m--> 134\u001b[0m         \u001b[43ma\u001b[49m\u001b[38;5;241;43m.\u001b[39;49m\u001b[43mdraw\u001b[49m\u001b[43m(\u001b[49m\u001b[43mrenderer\u001b[49m\u001b[43m)\u001b[49m\n\u001b[1;32m    135\u001b[0m \u001b[38;5;28;01melse\u001b[39;00m:\n\u001b[1;32m    136\u001b[0m     \u001b[38;5;66;03m# Composite any adjacent images together\u001b[39;00m\n\u001b[1;32m    137\u001b[0m     image_group \u001b[38;5;241m=\u001b[39m []\n",
      "File \u001b[0;32m~/miniconda3/envs/musica-env/lib/python3.10/site-packages/matplotlib/artist.py:71\u001b[0m, in \u001b[0;36mallow_rasterization.<locals>.draw_wrapper\u001b[0;34m(artist, renderer)\u001b[0m\n\u001b[1;32m     68\u001b[0m     \u001b[38;5;28;01mif\u001b[39;00m artist\u001b[38;5;241m.\u001b[39mget_agg_filter() \u001b[38;5;129;01mis\u001b[39;00m \u001b[38;5;129;01mnot\u001b[39;00m \u001b[38;5;28;01mNone\u001b[39;00m:\n\u001b[1;32m     69\u001b[0m         renderer\u001b[38;5;241m.\u001b[39mstart_filter()\n\u001b[0;32m---> 71\u001b[0m     \u001b[38;5;28;01mreturn\u001b[39;00m \u001b[43mdraw\u001b[49m\u001b[43m(\u001b[49m\u001b[43martist\u001b[49m\u001b[43m,\u001b[49m\u001b[43m \u001b[49m\u001b[43mrenderer\u001b[49m\u001b[43m)\u001b[49m\n\u001b[1;32m     72\u001b[0m \u001b[38;5;28;01mfinally\u001b[39;00m:\n\u001b[1;32m     73\u001b[0m     \u001b[38;5;28;01mif\u001b[39;00m artist\u001b[38;5;241m.\u001b[39mget_agg_filter() \u001b[38;5;129;01mis\u001b[39;00m \u001b[38;5;129;01mnot\u001b[39;00m \u001b[38;5;28;01mNone\u001b[39;00m:\n",
      "File \u001b[0;32m~/miniconda3/envs/musica-env/lib/python3.10/site-packages/matplotlib/collections.py:2436\u001b[0m, in \u001b[0;36mQuadMesh.draw\u001b[0;34m(self, renderer)\u001b[0m\n\u001b[1;32m   2434\u001b[0m \u001b[38;5;28;01mif\u001b[39;00m \u001b[38;5;129;01mnot\u001b[39;00m transform\u001b[38;5;241m.\u001b[39mis_affine:\n\u001b[1;32m   2435\u001b[0m     coordinates \u001b[38;5;241m=\u001b[39m \u001b[38;5;28mself\u001b[39m\u001b[38;5;241m.\u001b[39m_coordinates\u001b[38;5;241m.\u001b[39mreshape((\u001b[38;5;241m-\u001b[39m\u001b[38;5;241m1\u001b[39m, \u001b[38;5;241m2\u001b[39m))\n\u001b[0;32m-> 2436\u001b[0m     coordinates \u001b[38;5;241m=\u001b[39m \u001b[43mtransform\u001b[49m\u001b[38;5;241;43m.\u001b[39;49m\u001b[43mtransform\u001b[49m\u001b[43m(\u001b[49m\u001b[43mcoordinates\u001b[49m\u001b[43m)\u001b[49m\n\u001b[1;32m   2437\u001b[0m     coordinates \u001b[38;5;241m=\u001b[39m coordinates\u001b[38;5;241m.\u001b[39mreshape(\u001b[38;5;28mself\u001b[39m\u001b[38;5;241m.\u001b[39m_coordinates\u001b[38;5;241m.\u001b[39mshape)\n\u001b[1;32m   2438\u001b[0m     transform \u001b[38;5;241m=\u001b[39m transforms\u001b[38;5;241m.\u001b[39mIdentityTransform()\n",
      "File \u001b[0;32m~/miniconda3/envs/musica-env/lib/python3.10/site-packages/matplotlib/transforms.py:1495\u001b[0m, in \u001b[0;36mTransform.transform\u001b[0;34m(self, values)\u001b[0m\n\u001b[1;32m   1492\u001b[0m values \u001b[38;5;241m=\u001b[39m values\u001b[38;5;241m.\u001b[39mreshape((\u001b[38;5;241m-\u001b[39m\u001b[38;5;241m1\u001b[39m, \u001b[38;5;28mself\u001b[39m\u001b[38;5;241m.\u001b[39minput_dims))\n\u001b[1;32m   1494\u001b[0m \u001b[38;5;66;03m# Transform the values\u001b[39;00m\n\u001b[0;32m-> 1495\u001b[0m res \u001b[38;5;241m=\u001b[39m \u001b[38;5;28mself\u001b[39m\u001b[38;5;241m.\u001b[39mtransform_affine(\u001b[38;5;28;43mself\u001b[39;49m\u001b[38;5;241;43m.\u001b[39;49m\u001b[43mtransform_non_affine\u001b[49m\u001b[43m(\u001b[49m\u001b[43mvalues\u001b[49m\u001b[43m)\u001b[49m)\n\u001b[1;32m   1497\u001b[0m \u001b[38;5;66;03m# Convert the result back to the shape of the input values.\u001b[39;00m\n\u001b[1;32m   1498\u001b[0m \u001b[38;5;28;01mif\u001b[39;00m ndim \u001b[38;5;241m==\u001b[39m \u001b[38;5;241m0\u001b[39m:\n",
      "File \u001b[0;32m~/miniconda3/envs/musica-env/lib/python3.10/site-packages/matplotlib/transforms.py:2417\u001b[0m, in \u001b[0;36mCompositeGenericTransform.transform_non_affine\u001b[0;34m(self, values)\u001b[0m\n\u001b[1;32m   2415\u001b[0m     \u001b[38;5;28;01mreturn\u001b[39;00m values\n\u001b[1;32m   2416\u001b[0m \u001b[38;5;28;01melif\u001b[39;00m \u001b[38;5;129;01mnot\u001b[39;00m \u001b[38;5;28mself\u001b[39m\u001b[38;5;241m.\u001b[39m_a\u001b[38;5;241m.\u001b[39mis_affine \u001b[38;5;129;01mand\u001b[39;00m \u001b[38;5;28mself\u001b[39m\u001b[38;5;241m.\u001b[39m_b\u001b[38;5;241m.\u001b[39mis_affine:\n\u001b[0;32m-> 2417\u001b[0m     \u001b[38;5;28;01mreturn\u001b[39;00m \u001b[38;5;28;43mself\u001b[39;49m\u001b[38;5;241;43m.\u001b[39;49m\u001b[43m_a\u001b[49m\u001b[38;5;241;43m.\u001b[39;49m\u001b[43mtransform_non_affine\u001b[49m\u001b[43m(\u001b[49m\u001b[43mvalues\u001b[49m\u001b[43m)\u001b[49m\n\u001b[1;32m   2418\u001b[0m \u001b[38;5;28;01melse\u001b[39;00m:\n\u001b[1;32m   2419\u001b[0m     \u001b[38;5;28;01mreturn\u001b[39;00m \u001b[38;5;28mself\u001b[39m\u001b[38;5;241m.\u001b[39m_b\u001b[38;5;241m.\u001b[39mtransform_non_affine(\u001b[38;5;28mself\u001b[39m\u001b[38;5;241m.\u001b[39m_a\u001b[38;5;241m.\u001b[39mtransform(values))\n",
      "File \u001b[0;32m~/miniconda3/envs/musica-env/lib/python3.10/site-packages/matplotlib/transforms.py:2235\u001b[0m, in \u001b[0;36mBlendedGenericTransform.transform_non_affine\u001b[0;34m(self, values)\u001b[0m\n\u001b[1;32m   2233\u001b[0m     y_points \u001b[38;5;241m=\u001b[39m y\u001b[38;5;241m.\u001b[39mtransform_non_affine(values)[:, \u001b[38;5;241m1\u001b[39m:]\n\u001b[1;32m   2234\u001b[0m \u001b[38;5;28;01melse\u001b[39;00m:\n\u001b[0;32m-> 2235\u001b[0m     y_points \u001b[38;5;241m=\u001b[39m \u001b[43my\u001b[49m\u001b[38;5;241;43m.\u001b[39;49m\u001b[43mtransform_non_affine\u001b[49m\u001b[43m(\u001b[49m\u001b[43mvalues\u001b[49m\u001b[43m[\u001b[49m\u001b[43m:\u001b[49m\u001b[43m,\u001b[49m\u001b[43m \u001b[49m\u001b[38;5;241;43m1\u001b[39;49m\u001b[43m]\u001b[49m\u001b[43m)\u001b[49m\n\u001b[1;32m   2236\u001b[0m     y_points \u001b[38;5;241m=\u001b[39m y_points\u001b[38;5;241m.\u001b[39mreshape((\u001b[38;5;28mlen\u001b[39m(y_points), \u001b[38;5;241m1\u001b[39m))\n\u001b[1;32m   2238\u001b[0m \u001b[38;5;28;01mif\u001b[39;00m (\u001b[38;5;28misinstance\u001b[39m(x_points, np\u001b[38;5;241m.\u001b[39mma\u001b[38;5;241m.\u001b[39mMaskedArray) \u001b[38;5;129;01mor\u001b[39;00m\n\u001b[1;32m   2239\u001b[0m         \u001b[38;5;28misinstance\u001b[39m(y_points, np\u001b[38;5;241m.\u001b[39mma\u001b[38;5;241m.\u001b[39mMaskedArray)):\n",
      "File \u001b[0;32m~/miniconda3/envs/musica-env/lib/python3.10/site-packages/matplotlib/scale.py:368\u001b[0m, in \u001b[0;36mSymmetricalLogTransform.transform_non_affine\u001b[0;34m(self, values)\u001b[0m\n\u001b[1;32m    364\u001b[0m abs_a \u001b[38;5;241m=\u001b[39m np\u001b[38;5;241m.\u001b[39mabs(values)\n\u001b[1;32m    365\u001b[0m \u001b[38;5;28;01mwith\u001b[39;00m np\u001b[38;5;241m.\u001b[39merrstate(divide\u001b[38;5;241m=\u001b[39m\u001b[38;5;124m\"\u001b[39m\u001b[38;5;124mignore\u001b[39m\u001b[38;5;124m\"\u001b[39m, invalid\u001b[38;5;241m=\u001b[39m\u001b[38;5;124m\"\u001b[39m\u001b[38;5;124mignore\u001b[39m\u001b[38;5;124m\"\u001b[39m):\n\u001b[1;32m    366\u001b[0m     out \u001b[38;5;241m=\u001b[39m np\u001b[38;5;241m.\u001b[39msign(values) \u001b[38;5;241m*\u001b[39m \u001b[38;5;28mself\u001b[39m\u001b[38;5;241m.\u001b[39mlinthresh \u001b[38;5;241m*\u001b[39m (\n\u001b[1;32m    367\u001b[0m         \u001b[38;5;28mself\u001b[39m\u001b[38;5;241m.\u001b[39m_linscale_adj \u001b[38;5;241m+\u001b[39m\n\u001b[0;32m--> 368\u001b[0m         \u001b[43mnp\u001b[49m\u001b[38;5;241;43m.\u001b[39;49m\u001b[43mlog\u001b[49m\u001b[43m(\u001b[49m\u001b[43mabs_a\u001b[49m\u001b[43m \u001b[49m\u001b[38;5;241;43m/\u001b[39;49m\u001b[43m \u001b[49m\u001b[38;5;28;43mself\u001b[39;49m\u001b[38;5;241;43m.\u001b[39;49m\u001b[43mlinthresh\u001b[49m\u001b[43m)\u001b[49m\u001b[43m \u001b[49m\u001b[38;5;241;43m/\u001b[39;49m\u001b[43m \u001b[49m\u001b[38;5;28;43mself\u001b[39;49m\u001b[38;5;241;43m.\u001b[39;49m\u001b[43m_log_base\u001b[49m)\n\u001b[1;32m    369\u001b[0m     inside \u001b[38;5;241m=\u001b[39m abs_a \u001b[38;5;241m<\u001b[39m\u001b[38;5;241m=\u001b[39m \u001b[38;5;28mself\u001b[39m\u001b[38;5;241m.\u001b[39mlinthresh\n\u001b[1;32m    370\u001b[0m out[inside] \u001b[38;5;241m=\u001b[39m values[inside] \u001b[38;5;241m*\u001b[39m \u001b[38;5;28mself\u001b[39m\u001b[38;5;241m.\u001b[39m_linscale_adj\n",
      "File \u001b[0;32m~/miniconda3/envs/musica-env/lib/python3.10/site-packages/numpy/ma/core.py:4275\u001b[0m, in \u001b[0;36mMaskedArray.__truediv__\u001b[0;34m(self, other)\u001b[0m\n\u001b[1;32m   4273\u001b[0m \u001b[38;5;28;01mif\u001b[39;00m \u001b[38;5;28mself\u001b[39m\u001b[38;5;241m.\u001b[39m_delegate_binop(other):\n\u001b[1;32m   4274\u001b[0m     \u001b[38;5;28;01mreturn\u001b[39;00m \u001b[38;5;28mNotImplemented\u001b[39m\n\u001b[0;32m-> 4275\u001b[0m \u001b[38;5;28;01mreturn\u001b[39;00m \u001b[43mtrue_divide\u001b[49m\u001b[43m(\u001b[49m\u001b[38;5;28;43mself\u001b[39;49m\u001b[43m,\u001b[49m\u001b[43m \u001b[49m\u001b[43mother\u001b[49m\u001b[43m)\u001b[49m\n",
      "File \u001b[0;32m~/miniconda3/envs/musica-env/lib/python3.10/site-packages/numpy/ma/core.py:1171\u001b[0m, in \u001b[0;36m_DomainedBinaryOperation.__call__\u001b[0;34m(self, a, b, *args, **kwargs)\u001b[0m\n\u001b[1;32m   1169\u001b[0m domain \u001b[38;5;241m=\u001b[39m ufunc_domain\u001b[38;5;241m.\u001b[39mget(\u001b[38;5;28mself\u001b[39m\u001b[38;5;241m.\u001b[39mf, \u001b[38;5;28;01mNone\u001b[39;00m)\n\u001b[1;32m   1170\u001b[0m \u001b[38;5;28;01mif\u001b[39;00m domain \u001b[38;5;129;01mis\u001b[39;00m \u001b[38;5;129;01mnot\u001b[39;00m \u001b[38;5;28;01mNone\u001b[39;00m:\n\u001b[0;32m-> 1171\u001b[0m     m \u001b[38;5;241m|\u001b[39m\u001b[38;5;241m=\u001b[39m \u001b[43mdomain\u001b[49m\u001b[43m(\u001b[49m\u001b[43mda\u001b[49m\u001b[43m,\u001b[49m\u001b[43m \u001b[49m\u001b[43mdb\u001b[49m\u001b[43m)\u001b[49m\n\u001b[1;32m   1172\u001b[0m \u001b[38;5;66;03m# Take care of the scalar case first\u001b[39;00m\n\u001b[1;32m   1173\u001b[0m \u001b[38;5;28;01mif\u001b[39;00m \u001b[38;5;129;01mnot\u001b[39;00m m\u001b[38;5;241m.\u001b[39mndim:\n",
      "File \u001b[0;32m~/miniconda3/envs/musica-env/lib/python3.10/site-packages/numpy/ma/core.py:858\u001b[0m, in \u001b[0;36m_DomainSafeDivide.__call__\u001b[0;34m(self, a, b)\u001b[0m\n\u001b[1;32m    856\u001b[0m a, b \u001b[38;5;241m=\u001b[39m np\u001b[38;5;241m.\u001b[39masarray(a), np\u001b[38;5;241m.\u001b[39masarray(b)\n\u001b[1;32m    857\u001b[0m \u001b[38;5;28;01mwith\u001b[39;00m np\u001b[38;5;241m.\u001b[39merrstate(invalid\u001b[38;5;241m=\u001b[39m\u001b[38;5;124m'\u001b[39m\u001b[38;5;124mignore\u001b[39m\u001b[38;5;124m'\u001b[39m):\n\u001b[0;32m--> 858\u001b[0m     \u001b[38;5;28;01mreturn\u001b[39;00m \u001b[43mumath\u001b[49m\u001b[38;5;241;43m.\u001b[39;49m\u001b[43mabsolute\u001b[49m\u001b[43m(\u001b[49m\u001b[43ma\u001b[49m\u001b[43m)\u001b[49m \u001b[38;5;241m*\u001b[39m \u001b[38;5;28mself\u001b[39m\u001b[38;5;241m.\u001b[39mtolerance \u001b[38;5;241m>\u001b[39m\u001b[38;5;241m=\u001b[39m umath\u001b[38;5;241m.\u001b[39mabsolute(b)\n",
      "\u001b[0;31mKeyboardInterrupt\u001b[0m: "
     ]
    }
   ],
   "source": [
    "# Plot it\n",
    "plt.figure(figsize=(10, 4))\n",
    "librosa.display.specshow(S_dB, sr=sr, x_axis='time', y_axis='mel', fmax=8000)\n",
    "plt.colorbar(format='%+2.0f dB')\n",
    "plt.title('Mel-frequency spectrogram')\n",
    "plt.tight_layout()\n",
    "plt.show()"
   ]
  },
  {
   "cell_type": "code",
   "execution_count": 26,
   "id": "0fb1a793",
   "metadata": {},
   "outputs": [
    {
     "data": {
      "text/plain": [
       "(256, 42998)"
      ]
     },
     "execution_count": 26,
     "metadata": {},
     "output_type": "execute_result"
    }
   ],
   "source": [
    "S_dB.shape"
   ]
  },
  {
   "cell_type": "code",
   "execution_count": 27,
   "id": "787455a3",
   "metadata": {},
   "outputs": [
    {
     "data": {
      "text/plain": [
       "2.687375"
      ]
     },
     "execution_count": 27,
     "metadata": {},
     "output_type": "execute_result"
    }
   ],
   "source": [
    "42998/sr"
   ]
  },
  {
   "cell_type": "code",
   "execution_count": 19,
   "id": "f64e595a",
   "metadata": {},
   "outputs": [
    {
     "data": {
      "text/plain": [
       "44100.0"
      ]
     },
     "execution_count": 19,
     "metadata": {},
     "output_type": "execute_result"
    }
   ],
   "source": [
    "sr"
   ]
  },
  {
   "cell_type": "code",
   "execution_count": 83,
   "id": "f8e8d852",
   "metadata": {},
   "outputs": [
    {
     "name": "stdout",
     "output_type": "stream",
     "text": [
      "Track 0: \n",
      "MetaMessage('set_tempo', tempo=500000, time=0)\n",
      "MetaMessage('time_signature', numerator=4, denominator=4, clocks_per_click=24, notated_32nd_notes_per_beat=8, time=0)\n",
      "MetaMessage('end_of_track', time=1)\n",
      "Track 1: Cui05-08.mid\n",
      "MetaMessage('track_name', name='Cui05-08.mid', time=0)\n",
      "program_change channel=0 program=0 time=0\n",
      "control_change channel=0 control=67 value=11 time=370\n",
      "control_change channel=0 control=67 value=22 time=15\n",
      "control_change channel=0 control=67 value=36 time=15\n",
      "control_change channel=0 control=67 value=51 time=16\n",
      "control_change channel=0 control=67 value=64 time=14\n",
      "control_change channel=0 control=67 value=79 time=15\n",
      "control_change channel=0 control=67 value=90 time=16\n",
      "control_change channel=0 control=67 value=101 time=14\n",
      "control_change channel=0 control=67 value=110 time=16\n",
      "control_change channel=0 control=67 value=118 time=15\n",
      "control_change channel=0 control=67 value=126 time=15\n",
      "control_change channel=0 control=67 value=127 time=16\n",
      "note_on channel=0 note=51 velocity=44 time=236\n",
      "note_on channel=0 note=67 velocity=42 time=407\n",
      "note_on channel=0 note=68 velocity=53 time=205\n",
      "note_on channel=0 note=67 velocity=0 time=3\n",
      "note_on channel=0 note=68 velocity=0 time=186\n",
      "note_on channel=0 note=70 velocity=60 time=5\n",
      "note_on channel=0 note=68 velocity=64 time=185\n",
      "note_on channel=0 note=70 velocity=0 time=4\n",
      "control_change channel=0 control=67 value=122 time=122\n",
      "control_change channel=0 control=67 value=103 time=15\n",
      "control_change channel=0 control=67 value=89 time=15\n",
      "control_change channel=0 control=67 value=78 time=15\n",
      "control_change channel=0 control=67 value=66 time=15\n",
      "note_on channel=0 note=67 velocity=66 time=4\n",
      "control_change channel=0 control=67 value=54 time=13\n",
      "control_change channel=0 control=67 value=40 time=15\n",
      "note_on channel=0 note=68 velocity=0 time=0\n",
      "control_change channel=0 control=67 value=25 time=15\n",
      "control_change channel=0 control=67 value=10 time=16\n",
      "control_change channel=0 control=67 value=0 time=15\n",
      "note_on channel=0 note=65 velocity=64 time=115\n",
      "note_on channel=0 note=67 velocity=0 time=9\n",
      "note_on channel=0 note=63 velocity=65 time=177\n",
      "note_on channel=0 note=65 velocity=0 time=17\n",
      "note_on channel=0 note=73 velocity=63 time=246\n",
      "note_on channel=0 note=55 velocity=40 time=316\n",
      "note_on channel=0 note=56 velocity=50 time=214\n",
      "note_on channel=0 note=55 velocity=0 time=5\n",
      "note_on channel=0 note=56 velocity=0 time=160\n",
      "note_on channel=0 note=58 velocity=52 time=21\n",
      "note_on channel=0 note=56 velocity=52 time=206\n",
      "note_on channel=0 note=58 velocity=0 time=10\n",
      "note_on channel=0 note=55 velocity=55 time=177\n",
      "note_on channel=0 note=56 velocity=0 time=20\n",
      "note_on channel=0 note=51 velocity=0 time=73\n",
      "note_on channel=0 note=53 velocity=51 time=95\n",
      "note_on channel=0 note=55 velocity=0 time=19\n",
      "note_on channel=0 note=51 velocity=55 time=175\n",
      "note_on channel=0 note=53 velocity=0 time=54\n",
      "note_on channel=0 note=63 velocity=0 time=32\n",
      "note_on channel=0 note=56 velocity=55 time=164\n",
      "note_on channel=0 note=73 velocity=0 time=21\n",
      "note_on channel=0 note=72 velocity=61 time=180\n",
      "note_on channel=0 note=73 velocity=63 time=180\n",
      "note_on channel=0 note=72 velocity=0 time=10\n",
      "note_on channel=0 note=73 velocity=0 time=168\n",
      "note_on channel=0 note=75 velocity=71 time=3\n",
      "note_on channel=0 note=73 velocity=71 time=196\n",
      "note_on channel=0 note=75 velocity=0 time=19\n",
      "note_on channel=0 note=72 velocity=72 time=179\n",
      "note_on channel=0 note=73 velocity=0 time=1\n",
      "note_on channel=0 note=72 velocity=0 time=177\n",
      "note_on channel=0 note=70 velocity=71 time=5\n",
      "note_on channel=0 note=70 velocity=0 time=176\n",
      "note_on channel=0 note=68 velocity=67 time=11\n",
      "note_on channel=0 note=77 velocity=67 time=223\n",
      "note_on channel=0 note=56 velocity=0 time=74\n",
      "note_on channel=0 note=56 velocity=60 time=132\n",
      "note_on channel=0 note=58 velocity=62 time=192\n",
      "note_on channel=0 note=56 velocity=0 time=11\n",
      "note_on channel=0 note=60 velocity=56 time=175\n",
      "note_on channel=0 note=58 velocity=0 time=7\n",
      "note_on channel=0 note=60 velocity=0 time=188\n",
      "note_on channel=0 note=58 velocity=50 time=4\n",
      "note_on channel=0 note=56 velocity=48 time=180\n",
      "note_on channel=0 note=58 velocity=0 time=3\n",
      "note_on channel=0 note=56 velocity=0 time=191\n",
      "note_on channel=0 note=55 velocity=50 time=9\n",
      "note_on channel=0 note=55 velocity=0 time=159\n",
      "note_on channel=0 note=53 velocity=63 time=46\n",
      "note_on channel=0 note=62 velocity=72 time=246\n",
      "note_on channel=0 note=53 velocity=0 time=142\n",
      "note_on channel=0 note=74 velocity=66 time=43\n",
      "note_on channel=0 note=68 velocity=0 time=9\n",
      "note_on channel=0 note=77 velocity=0 time=47\n",
      "note_on channel=0 note=75 velocity=72 time=141\n",
      "note_on channel=0 note=74 velocity=0 time=21\n",
      "note_on channel=0 note=77 velocity=74 time=152\n",
      "note_on channel=0 note=75 velocity=0 time=11\n",
      "note_on channel=0 note=75 velocity=72 time=184\n",
      "note_on channel=0 note=77 velocity=0 time=2\n",
      "note_on channel=0 note=74 velocity=70 time=189\n",
      "note_on channel=0 note=75 velocity=0 time=2\n",
      "note_on channel=0 note=74 velocity=0 time=179\n",
      "note_on channel=0 note=72 velocity=70 time=4\n",
      "control_change channel=0 control=64 value=35 time=124\n",
      "control_change channel=0 control=64 value=44 time=14\n",
      "control_change channel=0 control=64 value=50 time=16\n",
      "control_change channel=0 control=64 value=55 time=23\n",
      "note_on channel=0 note=72 velocity=0 time=13\n",
      "control_change channel=0 control=64 value=59 time=2\n",
      "note_on channel=0 note=70 velocity=69 time=10\n",
      "control_change channel=0 control=64 value=62 time=5\n",
      "control_change channel=0 control=64 value=64 time=16\n",
      "control_change channel=0 control=64 value=66 time=15\n",
      "control_change channel=0 control=64 value=68 time=15\n",
      "control_change channel=0 control=64 value=71 time=15\n",
      "control_change channel=0 control=64 value=75 time=15\n",
      "control_change channel=0 control=64 value=77 time=15\n",
      "control_change channel=0 control=64 value=78 time=16\n",
      "note_on channel=0 note=62 velocity=0 time=104\n",
      "note_on channel=0 note=80 velocity=76 time=57\n",
      "control_change channel=0 control=64 value=77 time=20\n",
      "control_change channel=0 control=64 value=77 time=30\n",
      "control_change channel=0 control=64 value=76 time=31\n",
      "control_change channel=0 control=64 value=76 time=15\n",
      "control_change channel=0 control=64 value=75 time=16\n",
      "control_change channel=0 control=64 value=75 time=14\n",
      "control_change channel=0 control=64 value=74 time=15\n",
      "control_change channel=0 control=64 value=73 time=16\n",
      "control_change channel=0 control=64 value=73 time=15\n",
      "control_change channel=0 control=64 value=72 time=16\n",
      "control_change channel=0 control=64 value=71 time=14\n",
      "control_change channel=0 control=64 value=70 time=15\n",
      "note_on channel=0 note=62 velocity=60 time=10\n",
      "note_on channel=0 note=51 velocity=0 time=4\n",
      "control_change channel=0 control=64 value=70 time=3\n",
      "control_change channel=0 control=64 value=69 time=15\n",
      "control_change channel=0 control=64 value=69 time=15\n",
      "control_change channel=0 control=64 value=68 time=16\n",
      "control_change channel=0 control=64 value=68 time=15\n",
      "control_change channel=0 control=64 value=67 time=30\n",
      "control_change channel=0 control=64 value=67 time=30\n",
      "control_change channel=0 control=64 value=66 time=30\n",
      "control_change channel=0 control=64 value=66 time=16\n",
      "control_change channel=0 control=64 value=65 time=15\n",
      "note_on channel=0 note=62 velocity=0 time=9\n",
      "note_on channel=0 note=63 velocity=65 time=1\n",
      "control_change channel=0 control=64 value=64 time=5\n",
      "control_change channel=0 control=64 value=63 time=15\n",
      "control_change channel=0 control=64 value=62 time=24\n",
      "control_change channel=0 control=64 value=62 time=15\n",
      "control_change channel=0 control=64 value=61 time=15\n",
      "control_change channel=0 control=64 value=61 time=30\n",
      "control_change channel=0 control=64 value=60 time=15\n",
      "control_change channel=0 control=64 value=60 time=15\n",
      "control_change channel=0 control=64 value=59 time=15\n",
      "control_change channel=0 control=64 value=58 time=16\n",
      "control_change channel=0 control=64 value=56 time=15\n",
      "control_change channel=0 control=64 value=55 time=15\n",
      "note_on channel=0 note=63 velocity=0 time=2\n",
      "note_on channel=0 note=65 velocity=60 time=6\n",
      "control_change channel=0 control=64 value=54 time=7\n",
      "control_change channel=0 control=64 value=53 time=15\n",
      "control_change channel=0 control=64 value=52 time=15\n",
      "control_change channel=0 control=64 value=50 time=16\n",
      "control_change channel=0 control=64 value=49 time=14\n",
      "control_change channel=0 control=64 value=48 time=16\n",
      "control_change channel=0 control=64 value=47 time=15\n",
      "control_change channel=0 control=64 value=46 time=15\n",
      "control_change channel=0 control=64 value=44 time=16\n",
      "control_change channel=0 control=64 value=42 time=14\n",
      "control_change channel=0 control=64 value=41 time=16\n",
      "control_change channel=0 control=64 value=39 time=15\n",
      "note_on channel=0 note=65 velocity=0 time=3\n",
      "note_on channel=0 note=63 velocity=60 time=11\n",
      "control_change channel=0 control=64 value=37 time=1\n",
      "control_change channel=0 control=64 value=35 time=16\n",
      "control_change channel=0 control=64 value=33 time=14\n",
      "control_change channel=0 control=64 value=31 time=15\n",
      "control_change channel=0 control=64 value=28 time=16\n",
      "control_change channel=0 control=64 value=25 time=15\n",
      "control_change channel=0 control=64 value=21 time=16\n",
      "control_change channel=0 control=64 value=18 time=15\n",
      "control_change channel=0 control=64 value=13 time=15\n",
      "control_change channel=0 control=64 value=0 time=16\n",
      "note_on channel=0 note=63 velocity=0 time=37\n",
      "note_on channel=0 note=62 velocity=53 time=29\n",
      "note_on channel=0 note=62 velocity=0 time=210\n",
      "note_on channel=0 note=60 velocity=51 time=5\n",
      "note_on channel=0 note=58 velocity=52 time=193\n",
      "note_on channel=0 note=60 velocity=0 time=38\n",
      "note_on channel=0 note=63 velocity=56 time=229\n",
      "note_on channel=0 note=58 velocity=0 time=152\n",
      "note_on channel=0 note=77 velocity=48 time=160\n",
      "note_on channel=0 note=80 velocity=0 time=1\n",
      "note_on channel=0 note=77 velocity=0 time=187\n",
      "note_on channel=0 note=79 velocity=50 time=18\n",
      "note_on channel=0 note=79 velocity=0 time=178\n",
      "note_on channel=0 note=80 velocity=57 time=7\n",
      "note_on channel=0 note=79 velocity=60 time=185\n",
      "note_on channel=0 note=80 velocity=0 time=21\n",
      "note_on channel=0 note=70 velocity=0 time=160\n",
      "note_on channel=0 note=77 velocity=58 time=17\n",
      "note_on channel=0 note=79 velocity=0 time=136\n",
      "note_on channel=0 note=75 velocity=54 time=60\n",
      "note_on channel=0 note=77 velocity=0 time=99\n",
      "note_on channel=0 note=74 velocity=48 time=123\n",
      "note_on channel=0 note=75 velocity=0 time=33\n",
      "control_change channel=0 control=64 value=26 time=239\n",
      "control_change channel=0 control=64 value=34 time=15\n",
      "note_on channel=0 note=79 velocity=43 time=11\n",
      "note_on channel=0 note=75 velocity=45 time=2\n",
      "control_change channel=0 control=64 value=41 time=3\n",
      "control_change channel=0 control=64 value=47 time=16\n",
      "control_change channel=0 control=64 value=52 time=22\n",
      "note_on channel=0 note=74 velocity=0 time=12\n",
      "control_change channel=0 control=64 value=56 time=4\n",
      "control_change channel=0 control=64 value=59 time=14\n",
      "control_change channel=0 control=64 value=61 time=16\n",
      "control_change channel=0 control=64 value=62 time=15\n",
      "control_change channel=0 control=64 value=63 time=15\n",
      "control_change channel=0 control=64 value=64 time=16\n",
      "control_change channel=0 control=64 value=66 time=15\n",
      "note_on channel=0 note=63 velocity=0 time=13\n",
      "control_change channel=0 control=64 value=67 time=1\n",
      "control_change channel=0 control=64 value=68 time=16\n",
      "control_change channel=0 control=64 value=68 time=15\n",
      "control_change channel=0 control=64 value=68 time=76\n",
      "control_change channel=0 control=64 value=67 time=15\n",
      "control_change channel=0 control=64 value=66 time=15\n",
      "note_on channel=0 note=63 velocity=42 time=8\n",
      "control_change channel=0 control=64 value=65 time=7\n",
      "control_change channel=0 control=64 value=64 time=16\n",
      "control_change channel=0 control=64 value=63 time=15\n",
      "control_change channel=0 control=64 value=62 time=14\n",
      "control_change channel=0 control=64 value=62 time=16\n",
      "control_change channel=0 control=64 value=61 time=15\n",
      "control_change channel=0 control=64 value=60 time=15\n",
      "control_change channel=0 control=64 value=59 time=16\n",
      "control_change channel=0 control=64 value=57 time=15\n",
      "control_change channel=0 control=64 value=56 time=15\n",
      "control_change channel=0 control=64 value=53 time=15\n",
      "control_change channel=0 control=64 value=52 time=15\n",
      "control_change channel=0 control=64 value=50 time=16\n",
      "note_on channel=0 note=63 velocity=0 time=9\n",
      "control_change channel=0 control=64 value=49 time=6\n",
      "note_on channel=0 note=65 velocity=46 time=6\n",
      "control_change channel=0 control=64 value=48 time=10\n",
      "control_change channel=0 control=64 value=47 time=14\n",
      "control_change channel=0 control=64 value=45 time=15\n",
      "control_change channel=0 control=64 value=42 time=16\n",
      "control_change channel=0 control=64 value=39 time=15\n",
      "control_change channel=0 control=64 value=35 time=15\n",
      "control_change channel=0 control=64 value=31 time=16\n",
      "control_change channel=0 control=64 value=28 time=15\n",
      "control_change channel=0 control=64 value=25 time=15\n",
      "control_change channel=0 control=64 value=23 time=15\n",
      "control_change channel=0 control=64 value=20 time=15\n",
      "note_on channel=0 note=65 velocity=0 time=14\n",
      "control_change channel=0 control=64 value=17 time=1\n",
      "control_change channel=0 control=64 value=0 time=15\n",
      "note_on channel=0 note=67 velocity=52 time=11\n",
      "note_on channel=0 note=67 velocity=0 time=183\n",
      "note_on channel=0 note=65 velocity=50 time=18\n",
      "note_on channel=0 note=65 velocity=0 time=175\n",
      "note_on channel=0 note=63 velocity=51 time=12\n",
      "note_on channel=0 note=63 velocity=0 time=164\n",
      "note_on channel=0 note=62 velocity=47 time=31\n",
      "note_on channel=0 note=62 velocity=0 time=181\n",
      "note_on channel=0 note=60 velocity=36 time=33\n",
      "note_on channel=0 note=60 velocity=0 time=228\n",
      "note_on channel=0 note=58 velocity=36 time=40\n",
      "note_on channel=0 note=75 velocity=0 time=178\n",
      "note_on channel=0 note=58 velocity=0 time=121\n",
      "note_on channel=0 note=60 velocity=41 time=25\n",
      "note_on channel=0 note=75 velocity=47 time=6\n",
      "note_on channel=0 note=79 velocity=0 time=52\n",
      "note_on channel=0 note=60 velocity=0 time=118\n",
      "note_on channel=0 note=62 velocity=50 time=37\n",
      "note_on channel=0 note=77 velocity=62 time=11\n",
      "note_on channel=0 note=75 velocity=0 time=10\n",
      "note_on channel=0 note=62 velocity=0 time=156\n",
      "note_on channel=0 note=63 velocity=51 time=23\n",
      "note_on channel=0 note=79 velocity=67 time=5\n",
      "note_on channel=0 note=77 velocity=0 time=33\n",
      "note_on channel=0 note=63 velocity=0 time=130\n",
      "note_on channel=0 note=77 velocity=68 time=23\n",
      "note_on channel=0 note=62 velocity=53 time=3\n",
      "note_on channel=0 note=79 velocity=0 time=37\n",
      "note_on channel=0 note=62 velocity=0 time=146\n",
      "note_on channel=0 note=60 velocity=53 time=8\n",
      "note_on channel=0 note=75 velocity=73 time=0\n",
      "note_on channel=0 note=77 velocity=0 time=27\n",
      "note_on channel=0 note=60 velocity=0 time=156\n",
      "note_on channel=0 note=58 velocity=57 time=14\n",
      "note_on channel=0 note=74 velocity=67 time=3\n",
      "note_on channel=0 note=75 velocity=0 time=13\n",
      "note_on channel=0 note=74 velocity=0 time=175\n",
      "note_on channel=0 note=58 velocity=0 time=9\n",
      "note_on channel=0 note=72 velocity=69 time=1\n",
      "note_on channel=0 note=56 velocity=51 time=7\n",
      "note_on channel=0 note=56 velocity=0 time=181\n",
      "note_on channel=0 note=55 velocity=53 time=26\n",
      "note_on channel=0 note=84 velocity=78 time=74\n",
      "note_on channel=0 note=51 velocity=54 time=194\n",
      "note_on channel=0 note=55 velocity=0 time=1\n",
      "note_on channel=0 note=53 velocity=57 time=204\n",
      "note_on channel=0 note=51 velocity=0 time=3\n",
      "note_on channel=0 note=53 velocity=0 time=180\n",
      "note_on channel=0 note=55 velocity=57 time=13\n",
      "note_on channel=0 note=53 velocity=55 time=195\n",
      "note_on channel=0 note=55 velocity=0 time=36\n",
      "note_on channel=0 note=51 velocity=50 time=163\n",
      "note_on channel=0 note=53 velocity=0 time=23\n",
      "note_on channel=0 note=72 velocity=0 time=84\n",
      "note_on channel=0 note=51 velocity=0 time=89\n",
      "note_on channel=0 note=50 velocity=48 time=5\n",
      "note_on channel=0 note=50 velocity=0 time=196\n",
      "note_on channel=0 note=48 velocity=44 time=13\n",
      "note_on channel=0 note=74 velocity=45 time=226\n",
      "note_on channel=0 note=48 velocity=0 time=5\n",
      "note_on channel=0 note=53 velocity=36 time=3\n",
      "note_on channel=0 note=84 velocity=0 time=155\n",
      "note_on channel=0 note=48 velocity=44 time=95\n",
      "note_on channel=0 note=81 velocity=59 time=5\n",
      "note_on channel=0 note=53 velocity=0 time=192\n",
      "note_on channel=0 note=48 velocity=0 time=11\n",
      "note_on channel=0 note=50 velocity=48 time=0\n",
      "note_on channel=0 note=82 velocity=72 time=1\n",
      "note_on channel=0 note=81 velocity=0 time=24\n",
      "note_on channel=0 note=50 velocity=0 time=151\n",
      "note_on channel=0 note=51 velocity=54 time=20\n",
      "note_on channel=0 note=84 velocity=75 time=3\n",
      "note_on channel=0 note=82 velocity=0 time=28\n",
      "note_on channel=0 note=51 velocity=0 time=141\n",
      "note_on channel=0 note=50 velocity=51 time=21\n",
      "note_on channel=0 note=82 velocity=74 time=10\n",
      "note_on channel=0 note=84 velocity=0 time=52\n",
      "note_on channel=0 note=74 velocity=0 time=122\n",
      "note_on channel=0 note=50 velocity=0 time=12\n",
      "note_on channel=0 note=81 velocity=73 time=6\n",
      "note_on channel=0 note=48 velocity=46 time=6\n",
      "note_on channel=0 note=82 velocity=0 time=54\n",
      "note_on channel=0 note=79 velocity=68 time=132\n",
      "note_on channel=0 note=46 velocity=51 time=1\n",
      "note_on channel=0 note=48 velocity=0 time=30\n",
      "note_on channel=0 note=81 velocity=0 time=42\n",
      "note_on channel=0 note=77 velocity=60 time=134\n",
      "note_on channel=0 note=45 velocity=42 time=13\n",
      "note_on channel=0 note=46 velocity=0 time=1\n",
      "note_on channel=0 note=79 velocity=0 time=40\n",
      "note_on channel=0 note=82 velocity=51 time=196\n",
      "note_on channel=0 note=50 velocity=36 time=1\n",
      "note_on channel=0 note=45 velocity=0 time=37\n",
      "note_on channel=0 note=77 velocity=0 time=13\n",
      "note_on channel=0 note=82 velocity=0 time=240\n",
      "note_on channel=0 note=50 velocity=0 time=8\n",
      "note_on channel=0 note=46 velocity=44 time=7\n",
      "note_on channel=0 note=81 velocity=55 time=5\n",
      "note_on channel=0 note=81 velocity=0 time=207\n",
      "note_on channel=0 note=48 velocity=52 time=1\n",
      "note_on channel=0 note=79 velocity=60 time=0\n",
      "note_on channel=0 note=46 velocity=0 time=9\n",
      "note_on channel=0 note=79 velocity=0 time=163\n",
      "note_on channel=0 note=48 velocity=0 time=14\n",
      "note_on channel=0 note=77 velocity=66 time=6\n",
      "note_on channel=0 note=50 velocity=56 time=3\n",
      "note_on channel=0 note=75 velocity=69 time=191\n",
      "note_on channel=0 note=48 velocity=54 time=10\n",
      "note_on channel=0 note=50 velocity=0 time=22\n",
      "note_on channel=0 note=77 velocity=0 time=0\n",
      "note_on channel=0 note=74 velocity=76 time=157\n",
      "note_on channel=0 note=46 velocity=56 time=11\n",
      "note_on channel=0 note=75 velocity=0 time=7\n",
      "note_on channel=0 note=48 velocity=0 time=8\n",
      "note_on channel=0 note=46 velocity=0 time=170\n",
      "note_on channel=0 note=72 velocity=72 time=3\n",
      "note_on channel=0 note=45 velocity=54 time=11\n",
      "note_on channel=0 note=74 velocity=0 time=11\n",
      "note_on channel=0 note=72 velocity=0 time=166\n",
      "note_on channel=0 note=70 velocity=68 time=6\n",
      "note_on channel=0 note=45 velocity=0 time=8\n",
      "note_on channel=0 note=43 velocity=47 time=7\n",
      "note_on channel=0 note=48 velocity=44 time=233\n",
      "note_on channel=0 note=75 velocity=72 time=18\n",
      "note_on channel=0 note=43 velocity=0 time=14\n",
      "note_on channel=0 note=70 velocity=0 time=144\n",
      "note_on channel=0 note=51 velocity=52 time=191\n",
      "note_on channel=0 note=53 velocity=60 time=230\n",
      "note_on channel=0 note=51 velocity=0 time=3\n",
      "note_on channel=0 note=53 velocity=0 time=200\n",
      "note_on channel=0 note=55 velocity=62 time=0\n",
      "note_on channel=0 note=53 velocity=61 time=207\n",
      "note_on channel=0 note=55 velocity=0 time=6\n",
      "note_on channel=0 note=53 velocity=0 time=179\n",
      "note_on channel=0 note=51 velocity=52 time=4\n",
      "note_on channel=0 note=51 velocity=0 time=218\n",
      "note_on channel=0 note=48 velocity=0 time=4\n",
      "note_on channel=0 note=50 velocity=52 time=10\n",
      "note_on channel=0 note=48 velocity=54 time=230\n",
      "note_on channel=0 note=50 velocity=0 time=24\n",
      "note_on channel=0 note=57 velocity=59 time=263\n",
      "note_on channel=0 note=75 velocity=0 time=99\n",
      "note_on channel=0 note=75 velocity=57 time=205\n",
      "note_on channel=0 note=77 velocity=66 time=201\n",
      "note_on channel=0 note=75 velocity=0 time=6\n",
      "note_on channel=0 note=79 velocity=69 time=187\n",
      "note_on channel=0 note=77 velocity=0 time=24\n",
      "note_on channel=0 note=77 velocity=68 time=182\n",
      "note_on channel=0 note=79 velocity=0 time=32\n",
      "note_on channel=0 note=75 velocity=65 time=184\n",
      "note_on channel=0 note=77 velocity=0 time=16\n",
      "control_change channel=0 control=64 value=20 time=29\n",
      "control_change channel=0 control=64 value=44 time=16\n",
      "control_change channel=0 control=64 value=55 time=15\n",
      "control_change channel=0 control=64 value=60 time=16\n",
      "control_change channel=0 control=64 value=63 time=15\n",
      "control_change channel=0 control=64 value=64 time=15\n",
      "control_change channel=0 control=64 value=66 time=16\n",
      "control_change channel=0 control=64 value=69 time=15\n",
      "control_change channel=0 control=64 value=74 time=14\n",
      "control_change channel=0 control=64 value=77 time=16\n",
      "control_change channel=0 control=64 value=79 time=15\n",
      "note_on channel=0 note=74 velocity=62 time=9\n",
      "note_on channel=0 note=75 velocity=0 time=5\n",
      "control_change channel=0 control=64 value=80 time=1\n",
      "control_change channel=0 control=64 value=81 time=15\n",
      "control_change channel=0 control=64 value=82 time=15\n",
      "note_on channel=0 note=57 velocity=0 time=0\n",
      "control_change channel=0 control=64 value=83 time=16\n",
      "control_change channel=0 control=64 value=84 time=15\n",
      "control_change channel=0 control=64 value=85 time=14\n",
      "control_change channel=0 control=64 value=85 time=16\n",
      "control_change channel=0 control=64 value=86 time=15\n",
      "control_change channel=0 control=64 value=86 time=16\n",
      "note_on channel=0 note=74 velocity=0 time=73\n",
      "note_on channel=0 note=72 velocity=62 time=9\n",
      "note_on channel=0 note=48 velocity=0 time=286\n",
      "control_change channel=0 control=64 value=86 time=5\n",
      "note_on channel=0 note=58 velocity=59 time=8\n",
      "note_on channel=0 note=72 velocity=0 time=0\n",
      "note_on channel=0 note=46 velocity=53 time=4\n",
      "control_change channel=0 control=64 value=85 time=2\n",
      "note_on channel=0 note=74 velocity=59 time=5\n",
      "control_change channel=0 control=64 value=85 time=11\n",
      "control_change channel=0 control=64 value=84 time=15\n",
      "control_change channel=0 control=64 value=83 time=15\n",
      "control_change channel=0 control=64 value=81 time=17\n",
      "control_change channel=0 control=64 value=80 time=14\n",
      "control_change channel=0 control=64 value=78 time=16\n",
      "control_change channel=0 control=64 value=76 time=15\n",
      "control_change channel=0 control=64 value=74 time=14\n",
      "control_change channel=0 control=64 value=71 time=16\n",
      "control_change channel=0 control=64 value=68 time=15\n",
      "control_change channel=0 control=64 value=64 time=16\n",
      "control_change channel=0 control=64 value=56 time=15\n",
      "control_change channel=0 control=64 value=37 time=14\n",
      "control_change channel=0 control=64 value=0 time=16\n",
      "note_on channel=0 note=74 velocity=0 time=45\n",
      "note_on channel=0 note=72 velocity=54 time=23\n",
      "note_on channel=0 note=72 velocity=0 time=93\n",
      "note_on channel=0 note=74 velocity=60 time=12\n",
      "note_on channel=0 note=74 velocity=0 time=77\n",
      "note_on channel=0 note=75 velocity=63 time=16\n",
      "note_on channel=0 note=75 velocity=0 time=91\n",
      "note_on channel=0 note=74 velocity=64 time=1\n",
      "note_on channel=0 note=74 velocity=0 time=51\n",
      "note_on channel=0 note=72 velocity=68 time=25\n",
      "note_on channel=0 note=70 velocity=64 time=68\n",
      "note_on channel=0 note=72 velocity=0 time=5\n",
      "note_on channel=0 note=70 velocity=0 time=63\n",
      "note_on channel=0 note=69 velocity=67 time=8\n",
      "note_on channel=0 note=69 velocity=0 time=62\n",
      "note_on channel=0 note=70 velocity=67 time=21\n",
      "note_on channel=0 note=70 velocity=0 time=57\n",
      "note_on channel=0 note=69 velocity=68 time=18\n",
      "note_on channel=0 note=69 velocity=0 time=70\n",
      "note_on channel=0 note=70 velocity=64 time=4\n",
      "note_on channel=0 note=70 velocity=0 time=49\n",
      "note_on channel=0 note=72 velocity=60 time=21\n",
      "note_on channel=0 note=70 velocity=64 time=71\n",
      "note_on channel=0 note=72 velocity=0 time=7\n",
      "note_on channel=0 note=68 velocity=68 time=62\n",
      "note_on channel=0 note=70 velocity=0 time=8\n",
      "note_on channel=0 note=68 velocity=0 time=53\n",
      "note_on channel=0 note=67 velocity=64 time=7\n",
      "note_on channel=0 note=67 velocity=0 time=74\n",
      "note_on channel=0 note=65 velocity=66 time=3\n",
      "note_on channel=0 note=65 velocity=0 time=51\n",
      "note_on channel=0 note=67 velocity=55 time=22\n",
      "note_on channel=0 note=67 velocity=0 time=67\n",
      "note_on channel=0 note=65 velocity=67 time=6\n",
      "note_on channel=0 note=65 velocity=0 time=72\n",
      "note_on channel=0 note=67 velocity=66 time=1\n",
      "note_on channel=0 note=67 velocity=0 time=62\n",
      "note_on channel=0 note=68 velocity=65 time=9\n",
      "note_on channel=0 note=67 velocity=66 time=77\n",
      "note_on channel=0 note=68 velocity=0 time=12\n",
      "note_on channel=0 note=67 velocity=0 time=35\n",
      "note_on channel=0 note=65 velocity=67 time=27\n",
      "note_on channel=0 note=63 velocity=70 time=74\n",
      "note_on channel=0 note=65 velocity=0 time=0\n",
      "note_on channel=0 note=63 velocity=0 time=62\n",
      "note_on channel=0 note=62 velocity=63 time=16\n",
      "note_on channel=0 note=62 velocity=0 time=53\n",
      "note_on channel=0 note=63 velocity=64 time=19\n",
      "note_on channel=0 note=63 velocity=0 time=63\n",
      "note_on channel=0 note=62 velocity=72 time=15\n",
      "note_on channel=0 note=63 velocity=62 time=83\n",
      "note_on channel=0 note=62 velocity=0 time=5\n",
      "note_on channel=0 note=63 velocity=0 time=64\n",
      "note_on channel=0 note=65 velocity=65 time=10\n",
      "note_on channel=0 note=58 velocity=0 time=39\n",
      "note_on channel=0 note=63 velocity=63 time=49\n",
      "note_on channel=0 note=65 velocity=0 time=15\n",
      "note_on channel=0 note=62 velocity=64 time=76\n",
      "note_on channel=0 note=63 velocity=0 time=21\n",
      "note_on channel=0 note=62 velocity=0 time=59\n",
      "note_on channel=0 note=60 velocity=65 time=21\n",
      "note_on channel=0 note=58 velocity=64 time=102\n",
      "note_on channel=0 note=60 velocity=0 time=10\n",
      "note_on channel=0 note=57 velocity=72 time=166\n",
      "note_on channel=0 note=58 velocity=0 time=309\n",
      "note_on channel=0 note=60 velocity=58 time=45\n",
      "note_on channel=0 note=60 velocity=0 time=116\n",
      "note_on channel=0 note=62 velocity=60 time=0\n",
      "note_on channel=0 note=63 velocity=68 time=101\n",
      "note_on channel=0 note=62 velocity=0 time=11\n",
      "note_on channel=0 note=63 velocity=0 time=61\n",
      "note_on channel=0 note=65 velocity=72 time=15\n",
      "note_on channel=0 note=65 velocity=0 time=77\n",
      "note_on channel=0 note=67 velocity=70 time=9\n",
      "note_on channel=0 note=69 velocity=70 time=75\n",
      "note_on channel=0 note=67 velocity=0 time=33\n",
      "note_on channel=0 note=70 velocity=72 time=46\n",
      "note_on channel=0 note=69 velocity=0 time=21\n",
      "note_on channel=0 note=72 velocity=74 time=71\n",
      "note_on channel=0 note=70 velocity=0 time=29\n",
      "note_on channel=0 note=69 velocity=70 time=54\n",
      "note_on channel=0 note=72 velocity=0 time=9\n",
      "control_change channel=0 control=64 value=26 time=54\n",
      "control_change channel=0 control=64 value=61 time=14\n",
      "note_on channel=0 note=65 velocity=71 time=0\n",
      "note_on channel=0 note=69 velocity=0 time=0\n",
      "control_change channel=0 control=64 value=65 time=16\n",
      "control_change channel=0 control=64 value=67 time=15\n",
      "control_change channel=0 control=64 value=68 time=15\n",
      "control_change channel=0 control=64 value=69 time=16\n",
      "control_change channel=0 control=64 value=71 time=15\n",
      "note_on channel=0 note=67 velocity=73 time=11\n",
      "control_change channel=0 control=64 value=72 time=4\n",
      "note_on channel=0 note=65 velocity=0 time=9\n",
      "control_change channel=0 control=64 value=73 time=7\n",
      "control_change channel=0 control=64 value=74 time=14\n",
      "note_on channel=0 note=69 velocity=69 time=40\n",
      "control_change channel=0 control=64 value=73 time=37\n",
      "note_on channel=0 note=67 velocity=0 time=9\n",
      "control_change channel=0 control=64 value=73 time=21\n",
      "note_on channel=0 note=70 velocity=75 time=3\n",
      "note_on channel=0 note=69 velocity=0 time=10\n",
      "control_change channel=0 control=64 value=72 time=2\n",
      "control_change channel=0 control=64 value=71 time=16\n",
      "control_change channel=0 control=64 value=70 time=15\n",
      "note_on channel=0 note=70 velocity=0 time=1\n",
      "control_change channel=0 control=64 value=68 time=13\n",
      "control_change channel=0 control=64 value=66 time=16\n",
      "note_on channel=0 note=72 velocity=76 time=8\n",
      "control_change channel=0 control=64 value=63 time=7\n",
      "control_change channel=0 control=64 value=55 time=16\n",
      "control_change channel=0 control=64 value=32 time=15\n",
      "control_change channel=0 control=64 value=0 time=14\n",
      "note_on channel=0 note=74 velocity=73 time=33\n",
      "note_on channel=0 note=75 velocity=71 time=70\n",
      "note_on channel=0 note=74 velocity=0 time=63\n",
      "control_change channel=0 control=64 value=33 time=10\n",
      "control_change channel=0 control=64 value=61 time=15\n",
      "control_change channel=0 control=64 value=65 time=14\n",
      "control_change channel=0 control=64 value=67 time=16\n",
      "control_change channel=0 control=64 value=69 time=15\n",
      "control_change channel=0 control=64 value=70 time=15\n",
      "control_change channel=0 control=64 value=72 time=15\n",
      "control_change channel=0 control=64 value=73 time=15\n",
      "note_on channel=0 note=75 velocity=0 time=2\n",
      "control_change channel=0 control=64 value=73 time=14\n",
      "control_change channel=0 control=64 value=73 time=15\n",
      "note_on channel=0 note=77 velocity=67 time=5\n",
      "control_change channel=0 control=64 value=72 time=9\n",
      "control_change channel=0 control=64 value=70 time=16\n",
      "control_change channel=0 control=64 value=65 time=15\n",
      "control_change channel=0 control=64 value=47 time=16\n",
      "note_on channel=0 note=75 velocity=75 time=10\n",
      "control_change channel=0 control=64 value=0 time=4\n",
      "note_on channel=0 note=77 velocity=0 time=21\n",
      "note_on channel=0 note=74 velocity=76 time=41\n",
      "note_on channel=0 note=75 velocity=0 time=28\n",
      "control_change channel=0 control=64 value=43 time=48\n",
      "control_change channel=0 control=64 value=60 time=16\n",
      "control_change channel=0 control=64 value=64 time=14\n",
      "control_change channel=0 control=64 value=67 time=16\n",
      "control_change channel=0 control=64 value=69 time=15\n",
      "control_change channel=0 control=64 value=72 time=15\n",
      "note_on channel=0 note=75 velocity=86 time=12\n",
      "control_change channel=0 control=64 value=76 time=4\n",
      "control_change channel=0 control=64 value=78 time=15\n",
      "control_change channel=0 control=64 value=80 time=15\n",
      "control_change channel=0 control=64 value=80 time=16\n",
      "note_on channel=0 note=74 velocity=0 time=3\n",
      "control_change channel=0 control=64 value=81 time=12\n",
      "control_change channel=0 control=64 value=81 time=15\n",
      "note_on channel=0 note=75 velocity=0 time=109\n",
      "note_on channel=0 note=75 velocity=87 time=99\n",
      "control_change channel=0 control=64 value=81 time=27\n",
      "control_change channel=0 control=64 value=80 time=16\n",
      "control_change channel=0 control=64 value=79 time=15\n",
      "control_change channel=0 control=64 value=76 time=15\n",
      "control_change channel=0 control=64 value=73 time=15\n",
      "control_change channel=0 control=64 value=69 time=15\n",
      "control_change channel=0 control=64 value=63 time=15\n",
      "control_change channel=0 control=64 value=38 time=15\n",
      "control_change channel=0 control=64 value=0 time=15\n",
      "control_change channel=0 control=64 value=39 time=274\n",
      "control_change channel=0 control=64 value=50 time=16\n",
      "control_change channel=0 control=64 value=56 time=14\n",
      "control_change channel=0 control=64 value=59 time=15\n",
      "control_change channel=0 control=64 value=62 time=16\n",
      "control_change channel=0 control=64 value=63 time=15\n",
      "control_change channel=0 control=64 value=64 time=16\n",
      "control_change channel=0 control=64 value=65 time=15\n",
      "control_change channel=0 control=64 value=67 time=14\n",
      "control_change channel=0 control=64 value=70 time=16\n",
      "control_change channel=0 control=64 value=73 time=15\n",
      "control_change channel=0 control=64 value=75 time=16\n",
      "control_change channel=0 control=64 value=77 time=15\n",
      "control_change channel=0 control=64 value=78 time=14\n",
      "control_change channel=0 control=64 value=78 time=16\n",
      "control_change channel=0 control=64 value=79 time=15\n",
      "control_change channel=0 control=64 value=80 time=15\n",
      "control_change channel=0 control=64 value=81 time=16\n",
      "control_change channel=0 control=64 value=82 time=14\n",
      "control_change channel=0 control=64 value=82 time=16\n",
      "control_change channel=0 control=64 value=83 time=15\n",
      "control_change channel=0 control=64 value=83 time=15\n",
      "control_change channel=0 control=64 value=84 time=54\n",
      "note_on channel=0 note=57 velocity=0 time=106\n",
      "note_on channel=0 note=72 velocity=0 time=31\n",
      "note_on channel=0 note=74 velocity=50 time=141\n",
      "note_on channel=0 note=75 velocity=0 time=46\n",
      "note_on channel=0 note=74 velocity=0 time=41\n",
      "control_change channel=0 control=64 value=83 time=213\n",
      "control_change channel=0 control=64 value=83 time=45\n",
      "control_change channel=0 control=64 value=82 time=31\n",
      "control_change channel=0 control=64 value=82 time=14\n",
      "control_change channel=0 control=64 value=81 time=16\n",
      "control_change channel=0 control=64 value=80 time=15\n",
      "note_on channel=0 note=58 velocity=58 time=10\n",
      "control_change channel=0 control=64 value=77 time=6\n",
      "note_on channel=0 note=74 velocity=54 time=0\n",
      "note_on channel=0 note=65 velocity=53 time=15\n",
      "control_change channel=0 control=64 value=73 time=7\n",
      "control_change channel=0 control=64 value=65 time=15\n",
      "control_change channel=0 control=64 value=31 time=16\n",
      "control_change channel=0 control=64 value=0 time=14\n",
      "control_change channel=0 control=64 value=41 time=139\n",
      "control_change channel=0 control=64 value=59 time=14\n",
      "control_change channel=0 control=64 value=64 time=15\n",
      "control_change channel=0 control=64 value=66 time=16\n",
      "control_change channel=0 control=64 value=69 time=15\n",
      "note_on channel=0 note=74 velocity=0 time=3\n",
      "control_change channel=0 control=64 value=72 time=13\n",
      "control_change channel=0 control=64 value=76 time=14\n",
      "control_change channel=0 control=64 value=79 time=15\n",
      "control_change channel=0 control=64 value=81 time=16\n",
      "control_change channel=0 control=64 value=82 time=15\n",
      "control_change channel=0 control=64 value=82 time=15\n",
      "control_change channel=0 control=64 value=83 time=15\n",
      "control_change channel=0 control=64 value=83 time=15\n",
      "control_change channel=0 control=64 value=84 time=16\n",
      "note_on channel=0 note=46 velocity=0 time=208\n",
      "control_change channel=0 control=64 value=83 time=35\n",
      "control_change channel=0 control=64 value=83 time=46\n",
      "control_change channel=0 control=64 value=82 time=30\n",
      "note_on channel=0 note=63 velocity=68 time=6\n",
      "control_change channel=0 control=64 value=82 time=9\n",
      "note_on channel=0 note=58 velocity=0 time=5\n",
      "control_change channel=0 control=64 value=81 time=10\n",
      "control_change channel=0 control=64 value=81 time=39\n",
      "note_on channel=0 note=65 velocity=0 time=4\n",
      "control_change channel=0 control=64 value=80 time=11\n",
      "control_change channel=0 control=64 value=79 time=15\n",
      "control_change channel=0 control=64 value=79 time=15\n",
      "control_change channel=0 control=64 value=78 time=16\n",
      "control_change channel=0 control=64 value=77 time=14\n",
      "control_change channel=0 control=64 value=76 time=16\n",
      "control_change channel=0 control=64 value=75 time=15\n",
      "control_change channel=0 control=64 value=74 time=15\n",
      "control_change channel=0 control=64 value=73 time=16\n",
      "control_change channel=0 control=64 value=73 time=14\n",
      "control_change channel=0 control=64 value=72 time=15\n",
      "control_change channel=0 control=64 value=71 time=16\n",
      "control_change channel=0 control=64 value=70 time=15\n",
      "control_change channel=0 control=64 value=69 time=16\n",
      "control_change channel=0 control=64 value=67 time=14\n",
      "control_change channel=0 control=64 value=65 time=15\n",
      "control_change channel=0 control=64 value=62 time=16\n",
      "control_change channel=0 control=64 value=59 time=15\n",
      "control_change channel=0 control=64 value=57 time=16\n",
      "control_change channel=0 control=64 value=56 time=60\n",
      "control_change channel=0 control=64 value=56 time=31\n",
      "control_change channel=0 control=64 value=55 time=31\n",
      "control_change channel=0 control=64 value=54 time=14\n",
      "control_change channel=0 control=64 value=53 time=15\n",
      "control_change channel=0 control=64 value=52 time=16\n",
      "control_change channel=0 control=64 value=50 time=15\n",
      "control_change channel=0 control=64 value=48 time=16\n",
      "control_change channel=0 control=64 value=45 time=15\n",
      "control_change channel=0 control=64 value=42 time=15\n",
      "control_change channel=0 control=64 value=37 time=16\n",
      "control_change channel=0 control=64 value=32 time=15\n",
      "control_change channel=0 control=64 value=21 time=15\n",
      "note_on channel=0 note=53 velocity=59 time=8\n",
      "control_change channel=0 control=64 value=0 time=5\n",
      "note_on channel=0 note=62 velocity=56 time=612\n",
      "note_on channel=0 note=58 velocity=55 time=3\n",
      "note_on channel=0 note=63 velocity=0 time=88\n",
      "note_on channel=0 note=53 velocity=0 time=254\n",
      "note_on channel=0 note=62 velocity=0 time=246\n",
      "note_on channel=0 note=60 velocity=61 time=10\n",
      "note_on channel=0 note=56 velocity=49 time=606\n",
      "note_on channel=0 note=58 velocity=0 time=77\n",
      "note_on channel=0 note=63 velocity=64 time=536\n",
      "note_on channel=0 note=58 velocity=42 time=16\n",
      "note_on channel=0 note=55 velocity=40 time=12\n",
      "note_on channel=0 note=56 velocity=0 time=43\n",
      "note_on channel=0 note=60 velocity=0 time=4\n",
      "note_on channel=0 note=68 velocity=64 time=525\n",
      "note_on channel=0 note=60 velocity=47 time=21\n",
      "note_on channel=0 note=58 velocity=0 time=14\n",
      "note_on channel=0 note=63 velocity=0 time=89\n",
      "note_on channel=0 note=60 velocity=0 time=444\n",
      "note_on channel=0 note=62 velocity=49 time=12\n",
      "note_on channel=0 note=55 velocity=0 time=4\n",
      "note_on channel=0 note=53 velocity=38 time=5\n",
      "control_change channel=0 control=64 value=56 time=127\n",
      "control_change channel=0 control=64 value=65 time=15\n",
      "control_change channel=0 control=64 value=69 time=15\n",
      "control_change channel=0 control=64 value=73 time=15\n",
      "control_change channel=0 control=64 value=78 time=16\n",
      "note_on channel=0 note=62 velocity=0 time=9\n",
      "note_on channel=0 note=53 velocity=0 time=4\n",
      "control_change channel=0 control=64 value=81 time=2\n",
      "control_change channel=0 control=64 value=83 time=14\n",
      "control_change channel=0 control=64 value=84 time=16\n",
      "control_change channel=0 control=64 value=86 time=15\n",
      "note_on channel=0 note=68 velocity=0 time=0\n",
      "control_change channel=0 control=64 value=87 time=16\n",
      "control_change channel=0 control=64 value=88 time=15\n",
      "control_change channel=0 control=64 value=90 time=14\n",
      "control_change channel=0 control=64 value=90 time=16\n",
      "control_change channel=0 control=64 value=90 time=145\n",
      "control_change channel=0 control=64 value=89 time=31\n",
      "control_change channel=0 control=64 value=89 time=31\n",
      "control_change channel=0 control=64 value=88 time=14\n",
      "control_change channel=0 control=64 value=87 time=16\n",
      "control_change channel=0 control=64 value=85 time=15\n",
      "control_change channel=0 control=64 value=84 time=14\n",
      "note_on channel=0 note=70 velocity=68 time=2\n",
      "note_on channel=0 note=67 velocity=61 time=3\n",
      "note_on channel=0 note=63 velocity=58 time=2\n",
      "note_on channel=0 note=51 velocity=53 time=6\n",
      "control_change channel=0 control=64 value=81 time=3\n",
      "control_change channel=0 control=64 value=79 time=15\n",
      "control_change channel=0 control=64 value=76 time=16\n",
      "control_change channel=0 control=64 value=72 time=15\n",
      "control_change channel=0 control=64 value=67 time=14\n",
      "control_change channel=0 control=64 value=59 time=16\n",
      "control_change channel=0 control=64 value=0 time=15\n",
      "note_on channel=0 note=61 velocity=54 time=491\n",
      "note_on channel=0 note=75 velocity=64 time=3\n",
      "note_on channel=0 note=67 velocity=0 time=41\n",
      "note_on channel=0 note=63 velocity=0 time=27\n",
      "note_on channel=0 note=70 velocity=0 time=505\n",
      "note_on channel=0 note=65 velocity=55 time=21\n",
      "note_on channel=0 note=56 velocity=37 time=5\n",
      "note_on channel=0 note=60 velocity=51 time=1\n",
      "note_on channel=0 note=51 velocity=0 time=32\n",
      "note_on channel=0 note=61 velocity=0 time=38\n",
      "note_on channel=0 note=58 velocity=49 time=458\n",
      "note_on channel=0 note=74 velocity=65 time=28\n",
      "control_change channel=0 control=64 value=41 time=38\n",
      "note_on channel=0 note=60 velocity=0 time=14\n",
      "control_change channel=0 control=64 value=60 time=2\n",
      "control_change channel=0 control=64 value=65 time=14\n",
      "control_change channel=0 control=64 value=69 time=15\n",
      "control_change channel=0 control=64 value=74 time=16\n",
      "note_on channel=0 note=75 velocity=0 time=0\n",
      "control_change channel=0 control=64 value=80 time=15\n",
      "control_change channel=0 control=64 value=83 time=16\n",
      "control_change channel=0 control=64 value=85 time=14\n",
      "control_change channel=0 control=64 value=87 time=15\n",
      "control_change channel=0 control=64 value=88 time=16\n",
      "control_change channel=0 control=64 value=90 time=15\n",
      "note_on channel=0 note=65 velocity=0 time=0\n",
      "control_change channel=0 control=64 value=93 time=15\n",
      "control_change channel=0 control=64 value=95 time=16\n",
      "note_on channel=0 note=58 velocity=0 time=2\n",
      "control_change channel=0 control=64 value=97 time=13\n",
      "control_change channel=0 control=64 value=98 time=16\n",
      "note_on channel=0 note=56 velocity=0 time=0\n",
      "control_change channel=0 control=64 value=100 time=14\n",
      "note_on channel=0 note=74 velocity=0 time=10\n",
      "control_change channel=0 control=64 value=101 time=5\n",
      "control_change channel=0 control=64 value=101 time=16\n",
      "control_change channel=0 control=64 value=102 time=15\n",
      "control_change channel=0 control=64 value=102 time=45\n",
      "control_change channel=0 control=64 value=102 time=160\n",
      "control_change channel=0 control=64 value=101 time=31\n",
      "control_change channel=0 control=64 value=100 time=15\n",
      "note_on channel=0 note=55 velocity=49 time=15\n",
      "control_change channel=0 control=64 value=100 time=1\n",
      "control_change channel=0 control=64 value=99 time=14\n",
      "note_on channel=0 note=67 velocity=68 time=15\n",
      "control_change channel=0 control=64 value=98 time=1\n",
      "note_on channel=0 note=75 velocity=73 time=0\n",
      "control_change channel=0 control=64 value=96 time=15\n",
      "control_change channel=0 control=64 value=95 time=15\n",
      "control_change channel=0 control=64 value=93 time=16\n",
      "control_change channel=0 control=64 value=90 time=15\n",
      "control_change channel=0 control=64 value=87 time=15\n",
      "control_change channel=0 control=64 value=84 time=16\n",
      "control_change channel=0 control=64 value=81 time=14\n",
      "control_change channel=0 control=64 value=78 time=16\n",
      "control_change channel=0 control=64 value=74 time=15\n",
      "control_change channel=0 control=64 value=67 time=15\n",
      "control_change channel=0 control=64 value=54 time=16\n",
      "control_change channel=0 control=64 value=0 time=14\n",
      "note_on channel=0 note=63 velocity=65 time=404\n",
      "note_on channel=0 note=60 velocity=58 time=10\n",
      "note_on channel=0 note=55 velocity=0 time=224\n",
      "note_on channel=0 note=80 velocity=63 time=359\n",
      "note_on channel=0 note=72 velocity=61 time=7\n",
      "note_on channel=0 note=75 velocity=0 time=26\n",
      "note_on channel=0 note=67 velocity=0 time=4\n",
      "note_on channel=0 note=72 velocity=0 time=509\n",
      "note_on channel=0 note=60 velocity=0 time=6\n",
      "note_on channel=0 note=70 velocity=53 time=25\n",
      "note_on channel=0 note=65 velocity=37 time=15\n",
      "note_on channel=0 note=62 velocity=40 time=3\n",
      "note_on channel=0 note=63 velocity=0 time=30\n",
      "note_on channel=0 note=63 velocity=32 time=578\n",
      "note_on channel=0 note=79 velocity=46 time=5\n",
      "note_on channel=0 note=62 velocity=0 time=65\n",
      "note_on channel=0 note=80 velocity=0 time=1\n",
      "note_on channel=0 note=65 velocity=0 time=39\n",
      "control_change channel=0 control=64 value=39 time=54\n",
      "control_change channel=0 control=64 value=56 time=16\n",
      "control_change channel=0 control=64 value=61 time=15\n",
      "control_change channel=0 control=64 value=63 time=15\n",
      "control_change channel=0 control=64 value=65 time=16\n",
      "control_change channel=0 control=64 value=67 time=14\n",
      "note_on channel=0 note=70 velocity=0 time=3\n",
      "control_change channel=0 control=64 value=70 time=12\n",
      "control_change channel=0 control=64 value=73 time=16\n",
      "control_change channel=0 control=64 value=75 time=15\n",
      "control_change channel=0 control=64 value=76 time=16\n",
      "control_change channel=0 control=64 value=77 time=15\n",
      "control_change channel=0 control=64 value=77 time=14\n",
      "control_change channel=0 control=64 value=78 time=31\n",
      "control_change channel=0 control=64 value=77 time=99\n",
      "control_change channel=0 control=64 value=77 time=46\n",
      "control_change channel=0 control=64 value=76 time=30\n",
      "control_change channel=0 control=64 value=75 time=15\n",
      "control_change channel=0 control=64 value=74 time=15\n",
      "control_change channel=0 control=64 value=71 time=15\n",
      "control_change channel=0 control=64 value=67 time=15\n",
      "control_change channel=0 control=64 value=56 time=15\n",
      "note_on channel=0 note=72 velocity=44 time=13\n",
      "control_change channel=0 control=64 value=0 time=3\n",
      "note_on channel=0 note=56 velocity=28 time=0\n",
      "control_change channel=0 control=64 value=29 time=153\n",
      "control_change channel=0 control=64 value=52 time=15\n",
      "control_change channel=0 control=64 value=60 time=14\n",
      "control_change channel=0 control=64 value=64 time=16\n",
      "control_change channel=0 control=64 value=66 time=15\n",
      "control_change channel=0 control=64 value=69 time=16\n",
      "control_change channel=0 control=64 value=72 time=15\n",
      "note_on channel=0 note=79 velocity=0 time=7\n",
      "control_change channel=0 control=64 value=74 time=7\n",
      "control_change channel=0 control=64 value=76 time=16\n",
      "control_change channel=0 control=64 value=77 time=15\n",
      "control_change channel=0 control=64 value=77 time=31\n",
      "control_change channel=0 control=64 value=77 time=76\n",
      "control_change channel=0 control=64 value=76 time=46\n",
      "control_change channel=0 control=64 value=75 time=30\n",
      "control_change channel=0 control=64 value=75 time=15\n",
      "control_change channel=0 control=64 value=73 time=15\n",
      "control_change channel=0 control=64 value=71 time=16\n",
      "control_change channel=0 control=64 value=69 time=14\n",
      "control_change channel=0 control=64 value=66 time=15\n",
      "note_on channel=0 note=77 velocity=57 time=12\n",
      "control_change channel=0 control=64 value=62 time=4\n",
      "note_on channel=0 note=68 velocity=30 time=4\n",
      "control_change channel=0 control=64 value=56 time=11\n",
      "control_change channel=0 control=64 value=51 time=23\n",
      "control_change channel=0 control=64 value=49 time=15\n",
      "control_change channel=0 control=64 value=47 time=16\n",
      "control_change channel=0 control=64 value=45 time=14\n",
      "control_change channel=0 control=64 value=42 time=15\n",
      "control_change channel=0 control=64 value=37 time=16\n",
      "control_change channel=0 control=64 value=31 time=15\n",
      "control_change channel=0 control=64 value=24 time=15\n",
      "control_change channel=0 control=64 value=15 time=15\n",
      "control_change channel=0 control=64 value=0 time=15\n",
      "note_on channel=0 note=75 velocity=62 time=103\n",
      "note_on channel=0 note=77 velocity=0 time=55\n",
      "note_on channel=0 note=74 velocity=50 time=247\n",
      "note_on channel=0 note=58 velocity=28 time=2\n",
      "note_on channel=0 note=70 velocity=49 time=5\n",
      "note_on channel=0 note=56 velocity=0 time=43\n",
      "note_on channel=0 note=72 velocity=0 time=5\n",
      "note_on channel=0 note=75 velocity=0 time=12\n",
      "note_on channel=0 note=75 velocity=43 time=552\n",
      "note_on channel=0 note=74 velocity=0 time=55\n",
      "note_on channel=0 note=67 velocity=31 time=1\n",
      "note_on channel=0 note=68 velocity=0 time=15\n",
      "note_on channel=0 note=63 velocity=0 time=58\n",
      "note_on channel=0 note=65 velocity=28 time=515\n",
      "note_on channel=0 note=67 velocity=0 time=83\n",
      "note_on channel=0 note=74 velocity=45 time=508\n",
      "control_change channel=0 control=64 value=37 time=1\n",
      "note_on channel=0 note=75 velocity=0 time=9\n",
      "control_change channel=0 control=64 value=52 time=6\n",
      "control_change channel=0 control=64 value=60 time=15\n",
      "control_change channel=0 control=64 value=63 time=16\n",
      "control_change channel=0 control=64 value=65 time=14\n",
      "control_change channel=0 control=64 value=67 time=16\n",
      "control_change channel=0 control=64 value=70 time=14\n",
      "control_change channel=0 control=64 value=73 time=15\n",
      "control_change channel=0 control=64 value=77 time=16\n",
      "control_change channel=0 control=64 value=80 time=14\n",
      "control_change channel=0 control=64 value=81 time=15\n",
      "control_change channel=0 control=64 value=81 time=16\n",
      "control_change channel=0 control=64 value=82 time=15\n",
      "control_change channel=0 control=64 value=83 time=16\n",
      "control_change channel=0 control=64 value=84 time=14\n",
      "control_change channel=0 control=64 value=86 time=15\n",
      "control_change channel=0 control=64 value=87 time=16\n",
      "control_change channel=0 control=64 value=87 time=15\n",
      "control_change channel=0 control=64 value=88 time=16\n",
      "note_on channel=0 note=68 velocity=58 time=6\n",
      "control_change channel=0 control=64 value=88 time=9\n",
      "note_on channel=0 note=68 velocity=0 time=233\n",
      "control_change channel=0 control=64 value=88 time=26\n",
      "control_change channel=0 control=64 value=87 time=15\n",
      "control_change channel=0 control=64 value=86 time=15\n",
      "control_change channel=0 control=64 value=84 time=16\n",
      "note_on channel=0 note=67 velocity=65 time=8\n",
      "note_on channel=0 note=60 velocity=39 time=4\n",
      "control_change channel=0 control=64 value=82 time=3\n",
      "note_on channel=0 note=76 velocity=61 time=0\n",
      "control_change channel=0 control=64 value=79 time=14\n",
      "control_change channel=0 control=64 value=76 time=16\n",
      "control_change channel=0 control=64 value=73 time=15\n",
      "control_change channel=0 control=64 value=69 time=24\n",
      "control_change channel=0 control=64 value=63 time=14\n",
      "note_on channel=0 note=70 velocity=0 time=2\n",
      "note_on channel=0 note=74 velocity=0 time=0\n",
      "control_change channel=0 control=64 value=47 time=13\n",
      "control_change channel=0 control=64 value=0 time=16\n",
      "note_on channel=0 note=65 velocity=0 time=0\n",
      "note_on channel=0 note=77 velocity=61 time=492\n",
      "note_on channel=0 note=58 velocity=0 time=5\n",
      "note_on channel=0 note=72 velocity=59 time=2\n",
      "note_on channel=0 note=56 velocity=35 time=2\n",
      "note_on channel=0 note=76 velocity=0 time=31\n",
      "note_on channel=0 note=67 velocity=0 time=52\n",
      "note_on channel=0 note=56 velocity=0 time=420\n",
      "note_on channel=0 note=62 velocity=52 time=53\n",
      "note_on channel=0 note=71 velocity=58 time=2\n",
      "note_on channel=0 note=55 velocity=45 time=2\n",
      "note_on channel=0 note=72 velocity=0 time=42\n",
      "note_on channel=0 note=60 velocity=0 time=40\n",
      "note_on channel=0 note=62 velocity=0 time=424\n",
      "note_on channel=0 note=60 velocity=52 time=26\n",
      "note_on channel=0 note=63 velocity=49 time=6\n",
      "note_on channel=0 note=75 velocity=69 time=29\n",
      "note_on channel=0 note=72 velocity=57 time=4\n",
      "note_on channel=0 note=55 velocity=0 time=1\n",
      "note_on channel=0 note=77 velocity=0 time=48\n",
      "note_on channel=0 note=71 velocity=0 time=52\n",
      "note_on channel=0 note=72 velocity=0 time=143\n",
      "note_on channel=0 note=70 velocity=70 time=11\n",
      "note_on channel=0 note=65 velocity=56 time=263\n",
      "note_on channel=0 note=74 velocity=73 time=6\n",
      "note_on channel=0 note=63 velocity=0 time=3\n",
      "note_on channel=0 note=68 velocity=70 time=0\n",
      "note_on channel=0 note=70 velocity=0 time=21\n",
      "note_on channel=0 note=75 velocity=0 time=31\n",
      "note_on channel=0 note=65 velocity=0 time=223\n",
      "note_on channel=0 note=63 velocity=65 time=6\n",
      "note_on channel=0 note=70 velocity=63 time=296\n",
      "note_on channel=0 note=79 velocity=72 time=1\n",
      "note_on channel=0 note=58 velocity=45 time=9\n",
      "note_on channel=0 note=62 velocity=47 time=2\n",
      "note_on channel=0 note=74 velocity=0 time=8\n",
      "note_on channel=0 note=68 velocity=0 time=29\n",
      "note_on channel=0 note=60 velocity=0 time=12\n",
      "note_on channel=0 note=63 velocity=0 time=6\n",
      "note_on channel=0 note=58 velocity=0 time=510\n",
      "note_on channel=0 note=68 velocity=54 time=14\n",
      "note_on channel=0 note=60 velocity=43 time=9\n",
      "note_on channel=0 note=63 velocity=36 time=5\n",
      "note_on channel=0 note=70 velocity=0 time=10\n",
      "note_on channel=0 note=62 velocity=0 time=30\n",
      "note_on channel=0 note=79 velocity=0 time=516\n",
      "note_on channel=0 note=60 velocity=0 time=7\n",
      "note_on channel=0 note=62 velocity=42 time=11\n",
      "note_on channel=0 note=65 velocity=33 time=0\n",
      "note_on channel=0 note=77 velocity=49 time=4\n",
      "note_on channel=0 note=63 velocity=0 time=2\n",
      "note_on channel=0 note=62 velocity=0 time=558\n",
      "note_on channel=0 note=58 velocity=50 time=19\n",
      "note_on channel=0 note=65 velocity=0 time=7\n",
      "note_on channel=0 note=55 velocity=49 time=1\n",
      "control_change channel=0 control=64 value=44 time=285\n",
      "control_change channel=0 control=64 value=57 time=15\n",
      "control_change channel=0 control=64 value=62 time=14\n",
      "control_change channel=0 control=64 value=64 time=16\n",
      "control_change channel=0 control=64 value=66 time=15\n",
      "control_change channel=0 control=64 value=68 time=15\n",
      "control_change channel=0 control=64 value=72 time=16\n",
      "control_change channel=0 control=64 value=77 time=14\n",
      "control_change channel=0 control=64 value=79 time=16\n",
      "control_change channel=0 control=64 value=81 time=15\n",
      "note_on channel=0 note=68 velocity=0 time=7\n",
      "control_change channel=0 control=64 value=82 time=8\n",
      "control_change channel=0 control=64 value=82 time=16\n",
      "control_change channel=0 control=64 value=83 time=14\n",
      "control_change channel=0 control=64 value=85 time=15\n",
      "control_change channel=0 control=64 value=86 time=16\n",
      "control_change channel=0 control=64 value=87 time=14\n",
      "note_on channel=0 note=58 velocity=0 time=3\n",
      "control_change channel=0 control=64 value=87 time=13\n",
      "control_change channel=0 control=64 value=88 time=15\n",
      "note_on channel=0 note=75 velocity=65 time=9\n",
      "note_on channel=0 note=67 velocity=61 time=3\n",
      "control_change channel=0 control=64 value=88 time=3\n",
      "note_on channel=0 note=77 velocity=0 time=19\n",
      "control_change channel=0 control=64 value=89 time=26\n",
      "note_on channel=0 note=55 velocity=0 time=202\n",
      "note_on channel=0 note=56 velocity=66 time=16\n",
      "note_on channel=0 note=67 velocity=0 time=15\n",
      "control_change channel=0 control=64 value=88 time=3\n",
      "control_change channel=0 control=64 value=88 time=76\n",
      "control_change channel=0 control=64 value=87 time=46\n",
      "control_change channel=0 control=64 value=87 time=31\n",
      "control_change channel=0 control=64 value=86 time=17\n",
      "control_change channel=0 control=64 value=86 time=14\n",
      "control_change channel=0 control=64 value=85 time=31\n",
      "control_change channel=0 control=64 value=85 time=15\n",
      "control_change channel=0 control=64 value=84 time=16\n",
      "control_change channel=0 control=64 value=83 time=14\n",
      "control_change channel=0 control=64 value=81 time=15\n",
      "note_on channel=0 note=56 velocity=0 time=9\n",
      "control_change channel=0 control=64 value=76 time=7\n",
      "note_on channel=0 note=58 velocity=67 time=3\n",
      "note_on channel=0 note=65 velocity=64 time=0\n",
      "control_change channel=0 control=64 value=69 time=12\n",
      "control_change channel=0 control=64 value=56 time=15\n",
      "control_change channel=0 control=64 value=0 time=16\n",
      "control_change channel=0 control=64 value=47 time=106\n",
      "control_change channel=0 control=64 value=62 time=16\n",
      "control_change channel=0 control=64 value=67 time=14\n",
      "control_change channel=0 control=64 value=72 time=16\n",
      "control_change channel=0 control=64 value=77 time=15\n",
      "control_change channel=0 control=64 value=80 time=14\n",
      "control_change channel=0 control=64 value=82 time=16\n",
      "control_change channel=0 control=64 value=83 time=15\n",
      "control_change channel=0 control=64 value=84 time=15\n",
      "control_change channel=0 control=64 value=85 time=16\n",
      "note_on channel=0 note=65 velocity=0 time=0\n",
      "control_change channel=0 control=64 value=86 time=14\n",
      "note_on channel=0 note=75 velocity=0 time=6\n",
      "control_change channel=0 control=64 value=86 time=10\n",
      "control_change channel=0 control=64 value=87 time=15\n",
      "control_change channel=0 control=64 value=87 time=174\n",
      "control_change channel=0 control=64 value=86 time=16\n",
      "control_change channel=0 control=64 value=85 time=15\n",
      "control_change channel=0 control=64 value=84 time=14\n",
      "note_on channel=0 note=46 velocity=57 time=13\n",
      "control_change channel=0 control=64 value=82 time=3\n",
      "note_on channel=0 note=74 velocity=63 time=3\n",
      "note_on channel=0 note=67 velocity=62 time=1\n",
      "control_change channel=0 control=64 value=79 time=11\n",
      "control_change channel=0 control=64 value=76 time=16\n",
      "control_change channel=0 control=64 value=72 time=15\n",
      "control_change channel=0 control=64 value=66 time=16\n",
      "control_change channel=0 control=64 value=53 time=16\n",
      "control_change channel=0 control=64 value=0 time=14\n",
      "note_on channel=0 note=68 velocity=67 time=201\n",
      "note_on channel=0 note=67 velocity=0 time=17\n",
      "note_on channel=0 note=51 velocity=42 time=292\n",
      "note_on channel=0 note=67 velocity=57 time=3\n",
      "note_on channel=0 note=68 velocity=0 time=26\n",
      "note_on channel=0 note=46 velocity=0 time=8\n",
      "control_change channel=0 control=64 value=50 time=144\n",
      "control_change channel=0 control=64 value=60 time=16\n",
      "control_change channel=0 control=64 value=63 time=15\n",
      "note_on channel=0 note=74 velocity=0 time=2\n",
      "note_on channel=0 note=58 velocity=0 time=5\n",
      "control_change channel=0 control=64 value=65 time=8\n",
      "control_change channel=0 control=64 value=67 time=14\n",
      "control_change channel=0 control=64 value=69 time=15\n",
      "control_change channel=0 control=64 value=72 time=16\n",
      "control_change channel=0 control=64 value=75 time=15\n",
      "control_change channel=0 control=64 value=78 time=15\n",
      "control_change channel=0 control=64 value=79 time=16\n",
      "control_change channel=0 control=64 value=79 time=15\n",
      "control_change channel=0 control=64 value=80 time=45\n",
      "control_change channel=0 control=64 value=79 time=92\n",
      "control_change channel=0 control=64 value=78 time=30\n",
      "control_change channel=0 control=64 value=76 time=16\n",
      "control_change channel=0 control=64 value=72 time=14\n",
      "control_change channel=0 control=64 value=64 time=16\n",
      "note_on channel=0 note=72 velocity=60 time=14\n",
      "control_change channel=0 control=64 value=40 time=1\n",
      "note_on channel=0 note=63 velocity=46 time=4\n",
      "control_change channel=0 control=64 value=0 time=11\n",
      "control_change channel=0 control=64 value=34 time=45\n",
      "control_change channel=0 control=64 value=51 time=16\n",
      "control_change channel=0 control=64 value=60 time=15\n",
      "control_change channel=0 control=64 value=63 time=15\n",
      "control_change channel=0 control=64 value=65 time=15\n",
      "control_change channel=0 control=64 value=67 time=15\n",
      "control_change channel=0 control=64 value=70 time=16\n",
      "control_change channel=0 control=64 value=72 time=15\n",
      "control_change channel=0 control=64 value=75 time=14\n",
      "control_change channel=0 control=64 value=77 time=16\n",
      "control_change channel=0 control=64 value=78 time=15\n",
      "note_on channel=0 note=63 velocity=0 time=53\n",
      "note_on channel=0 note=72 velocity=0 time=5\n",
      "control_change channel=0 control=64 value=77 time=11\n",
      "note_on channel=0 note=70 velocity=60 time=6\n",
      "control_change channel=0 control=64 value=76 time=9\n",
      "note_on channel=0 note=62 velocity=51 time=2\n",
      "control_change channel=0 control=64 value=72 time=13\n",
      "control_change channel=0 control=64 value=65 time=15\n",
      "control_change channel=0 control=64 value=49 time=15\n",
      "control_change channel=0 control=64 value=0 time=16\n",
      "control_change channel=0 control=64 value=21 time=15\n",
      "note_on channel=0 note=67 velocity=0 time=4\n",
      "control_change channel=0 control=64 value=49 time=11\n",
      "control_change channel=0 control=64 value=57 time=15\n",
      "control_change channel=0 control=64 value=60 time=15\n",
      "control_change channel=0 control=64 value=62 time=16\n",
      "control_change channel=0 control=64 value=64 time=14\n",
      "control_change channel=0 control=64 value=65 time=16\n",
      "control_change channel=0 control=64 value=67 time=15\n",
      "control_change channel=0 control=64 value=69 time=15\n",
      "control_change channel=0 control=64 value=71 time=16\n",
      "control_change channel=0 control=64 value=72 time=15\n",
      "control_change channel=0 control=64 value=73 time=15\n",
      "control_change channel=0 control=64 value=72 time=31\n",
      "control_change channel=0 control=64 value=70 time=16\n",
      "note_on channel=0 note=69 velocity=61 time=3\n",
      "note_on channel=0 note=60 velocity=40 time=2\n",
      "note_on channel=0 note=65 velocity=51 time=7\n",
      "note_on channel=0 note=70 velocity=0 time=2\n",
      "control_change channel=0 control=64 value=64 time=1\n",
      "control_change channel=0 control=64 value=47 time=14\n",
      "note_on channel=0 note=62 velocity=0 time=6\n",
      "control_change channel=0 control=64 value=0 time=10\n",
      "control_change channel=0 control=64 value=39 time=61\n",
      "control_change channel=0 control=64 value=59 time=16\n",
      "control_change channel=0 control=64 value=65 time=15\n",
      "control_change channel=0 control=64 value=69 time=14\n",
      "control_change channel=0 control=64 value=73 time=16\n",
      "control_change channel=0 control=64 value=78 time=15\n",
      "control_change channel=0 control=64 value=81 time=16\n",
      "control_change channel=0 control=64 value=82 time=15\n",
      "note_on channel=0 note=51 velocity=0 time=13\n",
      "note_on channel=0 note=60 velocity=0 time=4\n",
      "control_change channel=0 control=64 value=82 time=13\n",
      "note_on channel=0 note=69 velocity=0 time=7\n",
      "control_change channel=0 control=64 value=82 time=229\n",
      "control_change channel=0 control=64 value=81 time=14\n",
      "control_change channel=0 control=64 value=81 time=15\n",
      "control_change channel=0 control=64 value=80 time=16\n",
      "control_change channel=0 control=64 value=79 time=15\n",
      "control_change channel=0 control=64 value=78 time=15\n",
      "note_on channel=0 note=50 velocity=42 time=1\n",
      "control_change channel=0 control=64 value=77 time=14\n",
      "note_on channel=0 note=62 velocity=42 time=0\n",
      "note_on channel=0 note=70 velocity=76 time=2\n",
      "control_change channel=0 control=64 value=76 time=13\n",
      "control_change channel=0 control=64 value=74 time=16\n",
      "control_change channel=0 control=64 value=72 time=15\n",
      "control_change channel=0 control=64 value=69 time=16\n",
      "control_change channel=0 control=64 value=66 time=15\n",
      "control_change channel=0 control=64 value=63 time=15\n",
      "control_change channel=0 control=64 value=57 time=16\n",
      "control_change channel=0 control=64 value=53 time=15\n",
      "control_change channel=0 control=64 value=52 time=14\n",
      "control_change channel=0 control=64 value=51 time=16\n",
      "control_change channel=0 control=64 value=50 time=15\n",
      "control_change channel=0 control=64 value=46 time=15\n",
      "control_change channel=0 control=64 value=42 time=16\n",
      "control_change channel=0 control=64 value=35 time=16\n",
      "control_change channel=0 control=64 value=28 time=15\n",
      "control_change channel=0 control=64 value=15 time=15\n",
      "control_change channel=0 control=64 value=0 time=15\n",
      "note_on channel=0 note=62 velocity=0 time=22\n",
      "note_on channel=0 note=60 velocity=62 time=4\n",
      "note_on channel=0 note=50 velocity=0 time=269\n",
      "note_on channel=0 note=55 velocity=53 time=0\n",
      "note_on channel=0 note=60 velocity=0 time=4\n",
      "note_on channel=0 note=58 velocity=60 time=13\n",
      "note_on channel=0 note=65 velocity=0 time=1\n",
      "control_change channel=0 control=64 value=26 time=105\n",
      "control_change channel=0 control=64 value=49 time=15\n",
      "control_change channel=0 control=64 value=58 time=16\n",
      "control_change channel=0 control=64 value=62 time=15\n",
      "control_change channel=0 control=64 value=64 time=14\n",
      "control_change channel=0 control=64 value=66 time=16\n",
      "control_change channel=0 control=64 value=69 time=15\n",
      "control_change channel=0 control=64 value=71 time=15\n",
      "control_change channel=0 control=64 value=74 time=16\n",
      "control_change channel=0 control=64 value=76 time=15\n",
      "note_on channel=0 note=70 velocity=0 time=1\n",
      "note_on channel=0 note=58 velocity=0 time=13\n",
      "control_change channel=0 control=64 value=77 time=2\n",
      "note_on channel=0 note=57 velocity=68 time=6\n",
      "control_change channel=0 control=64 value=76 time=115\n",
      "control_change channel=0 control=64 value=76 time=29\n",
      "control_change channel=0 control=64 value=75 time=16\n",
      "control_change channel=0 control=64 value=75 time=15\n",
      "control_change channel=0 control=64 value=74 time=17\n",
      "control_change channel=0 control=64 value=72 time=15\n",
      "control_change channel=0 control=64 value=70 time=15\n",
      "control_change channel=0 control=64 value=68 time=15\n",
      "control_change channel=0 control=64 value=65 time=15\n",
      "control_change channel=0 control=64 value=64 time=15\n",
      "note_on channel=0 note=58 velocity=58 time=1\n",
      "control_change channel=0 control=64 value=63 time=15\n",
      "note_on channel=0 note=57 velocity=0 time=13\n",
      "control_change channel=0 control=64 value=62 time=2\n",
      "control_change channel=0 control=64 value=61 time=15\n",
      "note_on channel=0 note=75 velocity=72 time=9\n",
      "note_on channel=0 note=63 velocity=72 time=5\n",
      "control_change channel=0 control=64 value=59 time=1\n",
      "control_change channel=0 control=64 value=56 time=15\n",
      "control_change channel=0 control=64 value=52 time=16\n",
      "control_change channel=0 control=64 value=47 time=14\n",
      "control_change channel=0 control=64 value=41 time=15\n",
      "control_change channel=0 control=64 value=36 time=16\n",
      "control_change channel=0 control=64 value=29 time=15\n",
      "control_change channel=0 control=64 value=18 time=16\n",
      "control_change channel=0 control=64 value=0 time=14\n",
      "note_on channel=0 note=74 velocity=63 time=11\n",
      "note_on channel=0 note=75 velocity=0 time=71\n",
      "note_on channel=0 note=72 velocity=58 time=58\n",
      "note_on channel=0 note=74 velocity=0 time=0\n",
      "note_on channel=0 note=55 velocity=0 time=19\n",
      "note_on channel=0 note=72 velocity=0 time=58\n",
      "note_on channel=0 note=75 velocity=24 time=12\n",
      "note_on channel=0 note=70 velocity=59 time=40\n",
      "note_on channel=0 note=70 velocity=0 time=103\n",
      "note_on channel=0 note=69 velocity=55 time=71\n",
      "note_on channel=0 note=60 velocity=42 time=9\n",
      "note_on channel=0 note=53 velocity=35 time=14\n",
      "note_on channel=0 note=58 velocity=0 time=8\n",
      "note_on channel=0 note=63 velocity=0 time=370\n",
      "note_on channel=0 note=75 velocity=0 time=162\n",
      "note_on channel=0 note=74 velocity=53 time=18\n",
      "note_on channel=0 note=70 velocity=58 time=5\n",
      "note_on channel=0 note=60 velocity=0 time=5\n",
      "note_on channel=0 note=62 velocity=56 time=9\n",
      "note_on channel=0 note=63 velocity=66 time=278\n",
      "note_on channel=0 note=62 velocity=0 time=34\n",
      "note_on channel=0 note=74 velocity=0 time=259\n",
      "note_on channel=0 note=72 velocity=62 time=16\n",
      "note_on channel=0 note=65 velocity=67 time=7\n",
      "note_on channel=0 note=69 velocity=0 time=41\n",
      "note_on channel=0 note=63 velocity=0 time=7\n",
      "note_on channel=0 note=70 velocity=0 time=12\n",
      "note_on channel=0 note=68 velocity=53 time=507\n",
      "note_on channel=0 note=65 velocity=0 time=245\n",
      "note_on channel=0 note=63 velocity=52 time=16\n",
      "note_on channel=0 note=72 velocity=0 time=171\n",
      "note_on channel=0 note=53 velocity=0 time=71\n",
      "note_on channel=0 note=70 velocity=58 time=21\n",
      "note_on channel=0 note=63 velocity=0 time=2\n",
      "note_on channel=0 note=55 velocity=39 time=1\n",
      "note_on channel=0 note=62 velocity=44 time=24\n",
      "note_on channel=0 note=68 velocity=0 time=31\n",
      "note_on channel=0 note=62 velocity=0 time=202\n",
      "control_change channel=0 control=64 value=27 time=8\n",
      "control_change channel=0 control=64 value=47 time=15\n",
      "note_on channel=0 note=58 velocity=42 time=4\n",
      "control_change channel=0 control=64 value=56 time=12\n",
      "control_change channel=0 control=64 value=61 time=15\n",
      "control_change channel=0 control=64 value=64 time=15\n",
      "control_change channel=0 control=64 value=65 time=16\n",
      "control_change channel=0 control=64 value=67 time=15\n",
      "control_change channel=0 control=64 value=68 time=16\n",
      "control_change channel=0 control=64 value=70 time=15\n",
      "control_change channel=0 control=64 value=73 time=14\n",
      "note_on channel=0 note=58 velocity=0 time=6\n",
      "control_change channel=0 control=64 value=74 time=10\n",
      "control_change channel=0 control=64 value=75 time=15\n",
      "note_on channel=0 note=55 velocity=0 time=55\n",
      "note_on channel=0 note=67 velocity=52 time=62\n",
      "note_on channel=0 note=63 velocity=48 time=1\n",
      "control_change channel=0 control=64 value=75 time=26\n",
      "control_change channel=0 control=64 value=74 time=30\n",
      "control_change channel=0 control=64 value=73 time=16\n",
      "control_change channel=0 control=64 value=72 time=15\n",
      "control_change channel=0 control=64 value=71 time=16\n",
      "control_change channel=0 control=64 value=67 time=15\n",
      "control_change channel=0 control=64 value=64 time=15\n",
      "note_on channel=0 note=53 velocity=52 time=3\n",
      "control_change channel=0 control=64 value=58 time=12\n",
      "control_change channel=0 control=64 value=49 time=15\n",
      "control_change channel=0 control=64 value=44 time=15\n",
      "control_change channel=0 control=64 value=43 time=16\n",
      "control_change channel=0 control=64 value=43 time=15\n",
      "control_change channel=0 control=64 value=42 time=15\n",
      "note_on channel=0 note=53 velocity=0 time=2\n",
      "control_change channel=0 control=64 value=40 time=13\n",
      "control_change channel=0 control=64 value=37 time=15\n",
      "control_change channel=0 control=64 value=34 time=15\n",
      "note_on channel=0 note=51 velocity=47 time=9\n",
      "control_change channel=0 control=64 value=31 time=6\n",
      "control_change channel=0 control=64 value=29 time=16\n",
      "control_change channel=0 control=64 value=29 time=30\n",
      "control_change channel=0 control=64 value=27 time=30\n",
      "control_change channel=0 control=64 value=24 time=15\n",
      "note_on channel=0 note=51 velocity=0 time=15\n",
      "control_change channel=0 control=64 value=18 time=1\n",
      "control_change channel=0 control=64 value=0 time=15\n",
      "note_on channel=0 note=50 velocity=45 time=36\n",
      "note_on channel=0 note=67 velocity=0 time=114\n",
      "note_on channel=0 note=68 velocity=55 time=50\n",
      "note_on channel=0 note=50 velocity=0 time=3\n",
      "note_on channel=0 note=48 velocity=46 time=6\n",
      "note_on channel=0 note=70 velocity=0 time=26\n",
      "note_on channel=0 note=50 velocity=46 time=510\n",
      "note_on channel=0 note=65 velocity=54 time=9\n",
      "note_on channel=0 note=58 velocity=50 time=11\n",
      "note_on channel=0 note=68 velocity=0 time=14\n",
      "note_on channel=0 note=48 velocity=0 time=19\n",
      "note_on channel=0 note=50 velocity=0 time=525\n",
      "note_on channel=0 note=51 velocity=46 time=7\n",
      "note_on channel=0 note=67 velocity=57 time=4\n",
      "note_on channel=0 note=65 velocity=0 time=43\n",
      "note_on channel=0 note=63 velocity=0 time=439\n",
      "note_on channel=0 note=63 velocity=53 time=131\n",
      "note_on channel=0 note=51 velocity=0 time=139\n",
      "note_on channel=0 note=49 velocity=45 time=12\n",
      "note_on channel=0 note=49 velocity=0 time=113\n",
      "note_on channel=0 note=61 velocity=55 time=31\n",
      "note_on channel=0 note=48 velocity=41 time=6\n",
      "note_on channel=0 note=67 velocity=0 time=16\n",
      "control_change channel=0 control=64 value=46 time=25\n",
      "control_change channel=0 control=64 value=56 time=16\n",
      "control_change channel=0 control=64 value=60 time=14\n",
      "control_change channel=0 control=64 value=62 time=16\n",
      "control_change channel=0 control=64 value=64 time=15\n",
      "control_change channel=0 control=64 value=65 time=15\n",
      "control_change channel=0 control=64 value=66 time=16\n",
      "note_on channel=0 note=46 velocity=54 time=5\n",
      "control_change channel=0 control=64 value=67 time=9\n",
      "note_on channel=0 note=48 velocity=0 time=7\n",
      "control_change channel=0 control=64 value=68 time=8\n",
      "control_change channel=0 control=64 value=68 time=16\n",
      "note_on channel=0 note=46 velocity=0 time=4\n",
      "note_on channel=0 note=61 velocity=0 time=48\n",
      "control_change channel=0 control=64 value=68 time=8\n",
      "control_change channel=0 control=64 value=67 time=16\n",
      "control_change channel=0 control=64 value=66 time=15\n",
      "control_change channel=0 control=64 value=64 time=14\n",
      "control_change channel=0 control=64 value=61 time=16\n",
      "note_on channel=0 note=63 velocity=0 time=12\n",
      "control_change channel=0 control=64 value=55 time=3\n",
      "note_on channel=0 note=44 velocity=47 time=2\n",
      "note_on channel=0 note=60 velocity=59 time=0\n",
      "control_change channel=0 control=64 value=48 time=22\n",
      "control_change channel=0 control=64 value=40 time=15\n",
      "control_change channel=0 control=64 value=33 time=16\n",
      "control_change channel=0 control=64 value=23 time=15\n",
      "control_change channel=0 control=64 value=0 time=14\n",
      "note_on channel=0 note=56 velocity=45 time=476\n",
      "note_on channel=0 note=65 velocity=55 time=12\n",
      "note_on channel=0 note=56 velocity=0 time=274\n",
      "note_on channel=0 note=65 velocity=0 time=16\n",
      "note_on channel=0 note=63 velocity=56 time=6\n",
      "note_on channel=0 note=55 velocity=46 time=20\n",
      "note_on channel=0 note=63 velocity=0 time=236\n",
      "note_on channel=0 note=53 velocity=31 time=69\n",
      "note_on channel=0 note=62 velocity=48 time=4\n",
      "note_on channel=0 note=46 velocity=44 time=10\n",
      "note_on channel=0 note=55 velocity=0 time=61\n",
      "note_on channel=0 note=44 velocity=0 time=45\n",
      "note_on channel=0 note=58 velocity=0 time=123\n",
      "note_on channel=0 note=58 velocity=61 time=349\n",
      "note_on channel=0 note=60 velocity=0 time=3\n",
      "note_on channel=0 note=55 velocity=41 time=15\n",
      "note_on channel=0 note=53 velocity=0 time=30\n",
      "note_on channel=0 note=53 velocity=44 time=230\n",
      "note_on channel=0 note=55 velocity=0 time=43\n",
      "note_on channel=0 note=46 velocity=0 time=255\n",
      "note_on channel=0 note=51 velocity=39 time=6\n",
      "note_on channel=0 note=63 velocity=51 time=18\n",
      "note_on channel=0 note=48 velocity=38 time=8\n",
      "note_on channel=0 note=62 velocity=0 time=32\n",
      "note_on channel=0 note=53 velocity=0 time=5\n",
      "note_on channel=0 note=58 velocity=0 time=547\n",
      "note_on channel=0 note=57 velocity=58 time=26\n",
      "note_on channel=0 note=51 velocity=0 time=259\n",
      "note_on channel=0 note=53 velocity=48 time=17\n",
      "note_on channel=0 note=53 velocity=0 time=284\n",
      "note_on channel=0 note=58 velocity=52 time=35\n",
      "note_on channel=0 note=55 velocity=42 time=2\n",
      "note_on channel=0 note=46 velocity=38 time=14\n",
      "note_on channel=0 note=48 velocity=0 time=19\n",
      "note_on channel=0 note=57 velocity=0 time=55\n",
      "note_on channel=0 note=62 velocity=53 time=496\n",
      "note_on channel=0 note=53 velocity=45 time=7\n",
      "note_on channel=0 note=55 velocity=0 time=14\n",
      "note_on channel=0 note=58 velocity=0 time=36\n",
      "note_on channel=0 note=63 velocity=0 time=23\n",
      "note_on channel=0 note=60 velocity=49 time=206\n",
      "note_on channel=0 note=53 velocity=0 time=11\n",
      "note_on channel=0 note=62 velocity=0 time=0\n",
      "note_on channel=0 note=51 velocity=45 time=3\n",
      "note_on channel=0 note=60 velocity=0 time=261\n",
      "note_on channel=0 note=51 velocity=0 time=54\n",
      "note_on channel=0 note=62 velocity=47 time=2\n",
      "note_on channel=0 note=53 velocity=35 time=14\n",
      "note_on channel=0 note=70 velocity=50 time=203\n",
      "note_on channel=0 note=70 velocity=0 time=118\n",
      "note_on channel=0 note=72 velocity=58 time=21\n",
      "note_on channel=0 note=72 velocity=0 time=120\n",
      "note_on channel=0 note=74 velocity=57 time=10\n",
      "note_on channel=0 note=51 velocity=61 time=139\n",
      "note_on channel=0 note=72 velocity=59 time=4\n",
      "note_on channel=0 note=74 velocity=0 time=8\n",
      "note_on channel=0 note=62 velocity=0 time=12\n",
      "note_on channel=0 note=53 velocity=0 time=59\n",
      "note_on channel=0 note=72 velocity=0 time=60\n",
      "note_on channel=0 note=70 velocity=61 time=12\n",
      "note_on channel=0 note=46 velocity=0 time=36\n",
      "note_on channel=0 note=70 velocity=0 time=88\n",
      "note_on channel=0 note=69 velocity=62 time=15\n",
      "note_on channel=0 note=69 velocity=0 time=91\n",
      "note_on channel=0 note=67 velocity=64 time=46\n",
      "note_on channel=0 note=67 velocity=0 time=108\n",
      "note_on channel=0 note=65 velocity=67 time=53\n",
      "note_on channel=0 note=65 velocity=0 time=242\n",
      "note_on channel=0 note=67 velocity=64 time=45\n",
      "note_on channel=0 note=67 velocity=0 time=121\n",
      "note_on channel=0 note=69 velocity=65 time=3\n",
      "note_on channel=0 note=69 velocity=0 time=106\n",
      "note_on channel=0 note=70 velocity=63 time=41\n",
      "note_on channel=0 note=50 velocity=63 time=9\n",
      "note_on channel=0 note=51 velocity=0 time=9\n",
      "note_on channel=0 note=69 velocity=60 time=119\n",
      "note_on channel=0 note=70 velocity=0 time=0\n",
      "note_on channel=0 note=69 velocity=0 time=90\n",
      "note_on channel=0 note=67 velocity=62 time=55\n",
      "note_on channel=0 note=65 velocity=64 time=139\n",
      "note_on channel=0 note=67 velocity=0 time=9\n",
      "note_on channel=0 note=63 velocity=66 time=132\n",
      "note_on channel=0 note=65 velocity=0 time=2\n",
      "note_on channel=0 note=55 velocity=64 time=7\n",
      "note_on channel=0 note=50 velocity=0 time=40\n",
      "note_on channel=0 note=62 velocity=55 time=93\n",
      "note_on channel=0 note=63 velocity=0 time=0\n",
      "note_on channel=0 note=62 velocity=0 time=95\n",
      "note_on channel=0 note=60 velocity=61 time=62\n",
      "note_on channel=0 note=60 velocity=0 time=89\n",
      "note_on channel=0 note=58 velocity=63 time=48\n",
      "note_on channel=0 note=58 velocity=0 time=165\n",
      "note_on channel=0 note=63 velocity=73 time=11\n",
      "control_change channel=0 control=64 value=50 time=59\n",
      "control_change channel=0 control=64 value=60 time=16\n",
      "control_change channel=0 control=64 value=64 time=15\n",
      "control_change channel=0 control=64 value=65 time=15\n",
      "control_change channel=0 control=64 value=68 time=15\n",
      "control_change channel=0 control=64 value=73 time=15\n",
      "control_change channel=0 control=64 value=77 time=15\n",
      "control_change channel=0 control=64 value=80 time=15\n",
      "note_on channel=0 note=63 velocity=0 time=11\n",
      "control_change channel=0 control=64 value=82 time=4\n",
      "control_change channel=0 control=64 value=83 time=16\n",
      "control_change channel=0 control=64 value=84 time=15\n",
      "control_change channel=0 control=64 value=85 time=15\n",
      "control_change channel=0 control=64 value=86 time=15\n",
      "control_change channel=0 control=64 value=88 time=15\n",
      "control_change channel=0 control=64 value=88 time=16\n",
      "control_change channel=0 control=64 value=89 time=15\n",
      "note_on channel=0 note=63 velocity=74 time=4\n",
      "control_change channel=0 control=64 value=89 time=12\n",
      "control_change channel=0 control=64 value=90 time=29\n",
      "note_on channel=0 note=63 velocity=0 time=48\n",
      "control_change channel=0 control=64 value=90 time=29\n",
      "control_change channel=0 control=64 value=90 time=107\n",
      "control_change channel=0 control=64 value=89 time=31\n",
      "control_change channel=0 control=64 value=88 time=15\n",
      "control_change channel=0 control=64 value=87 time=14\n",
      "control_change channel=0 control=64 value=84 time=16\n",
      "note_on channel=0 note=63 velocity=76 time=4\n",
      "note_on channel=0 note=53 velocity=58 time=5\n",
      "control_change channel=0 control=64 value=81 time=6\n",
      "control_change channel=0 control=64 value=75 time=16\n",
      "control_change channel=0 control=64 value=70 time=15\n",
      "control_change channel=0 control=64 value=63 time=14\n",
      "control_change channel=0 control=64 value=34 time=16\n",
      "note_on channel=0 note=55 velocity=0 time=9\n",
      "control_change channel=0 control=64 value=0 time=6\n",
      "note_on channel=0 note=68 velocity=59 time=66\n",
      "note_on channel=0 note=68 velocity=0 time=137\n",
      "note_on channel=0 note=70 velocity=61 time=15\n",
      "note_on channel=0 note=72 velocity=62 time=150\n",
      "note_on channel=0 note=70 velocity=0 time=10\n",
      "note_on channel=0 note=70 velocity=64 time=130\n",
      "note_on channel=0 note=72 velocity=0 time=0\n",
      "note_on channel=0 note=62 velocity=71 time=5\n",
      "control_change channel=0 control=64 value=29 time=102\n",
      "note_on channel=0 note=63 velocity=0 time=0\n",
      "control_change channel=0 control=64 value=55 time=16\n",
      "control_change channel=0 control=64 value=62 time=15\n",
      "control_change channel=0 control=64 value=65 time=16\n",
      "note_on channel=0 note=68 velocity=70 time=0\n",
      "control_change channel=0 control=64 value=68 time=15\n",
      "note_on channel=0 note=70 velocity=0 time=13\n",
      "control_change channel=0 control=64 value=71 time=1\n",
      "control_change channel=0 control=64 value=75 time=16\n",
      "control_change channel=0 control=64 value=79 time=15\n",
      "control_change channel=0 control=64 value=81 time=14\n",
      "control_change channel=0 control=64 value=82 time=16\n",
      "note_on channel=0 note=62 velocity=0 time=28\n",
      "control_change channel=0 control=64 value=82 time=3\n",
      "control_change channel=0 control=64 value=83 time=22\n",
      "note_on channel=0 note=68 velocity=0 time=6\n",
      "note_on channel=0 note=67 velocity=78 time=2\n",
      "control_change channel=0 control=64 value=84 time=8\n",
      "note_on channel=0 note=53 velocity=0 time=11\n",
      "control_change channel=0 control=64 value=84 time=4\n",
      "control_change channel=0 control=64 value=85 time=15\n",
      "note_on channel=0 note=67 velocity=0 time=31\n",
      "note_on channel=0 note=65 velocity=58 time=79\n",
      "note_on channel=0 note=67 velocity=72 time=9\n",
      "note_on channel=0 note=65 velocity=0 time=46\n",
      "note_on channel=0 note=67 velocity=0 time=2\n",
      "control_change channel=0 control=64 value=84 time=2\n",
      "control_change channel=0 control=64 value=84 time=45\n",
      "control_change channel=0 control=64 value=83 time=15\n",
      "control_change channel=0 control=64 value=82 time=15\n",
      "note_on channel=0 note=51 velocity=70 time=13\n",
      "control_change channel=0 control=64 value=80 time=2\n",
      "note_on channel=0 note=67 velocity=82 time=0\n",
      "note_on channel=0 note=63 velocity=69 time=3\n",
      "control_change channel=0 control=64 value=76 time=12\n",
      "control_change channel=0 control=64 value=72 time=16\n",
      "control_change channel=0 control=64 value=65 time=14\n",
      "control_change channel=0 control=64 value=50 time=15\n",
      "control_change channel=0 control=64 value=0 time=16\n",
      "note_on channel=0 note=75 velocity=81 time=72\n",
      "note_on channel=0 note=75 velocity=0 time=127\n",
      "note_on channel=0 note=77 velocity=82 time=11\n",
      "note_on channel=0 note=79 velocity=85 time=127\n",
      "note_on channel=0 note=77 velocity=0 time=25\n",
      "note_on channel=0 note=56 velocity=77 time=135\n",
      "note_on channel=0 note=63 velocity=0 time=0\n",
      "note_on channel=0 note=77 velocity=78 time=10\n",
      "note_on channel=0 note=51 velocity=0 time=22\n",
      "note_on channel=0 note=79 velocity=0 time=0\n",
      "note_on channel=0 note=67 velocity=0 time=111\n",
      "note_on channel=0 note=75 velocity=75 time=10\n",
      "note_on channel=0 note=77 velocity=0 time=50\n",
      "note_on channel=0 note=53 velocity=69 time=76\n",
      "note_on channel=0 note=75 velocity=0 time=8\n",
      "note_on channel=0 note=74 velocity=77 time=6\n",
      "note_on channel=0 note=53 velocity=0 time=65\n",
      "note_on channel=0 note=74 velocity=0 time=11\n",
      "note_on channel=0 note=72 velocity=83 time=53\n",
      "note_on channel=0 note=55 velocity=71 time=156\n",
      "note_on channel=0 note=70 velocity=80 time=0\n",
      "note_on channel=0 note=72 velocity=0 time=0\n",
      "note_on channel=0 note=55 velocity=0 time=267\n",
      "note_on channel=0 note=70 velocity=0 time=2\n",
      "note_on channel=0 note=53 velocity=65 time=9\n",
      "note_on channel=0 note=72 velocity=74 time=20\n",
      "note_on channel=0 note=72 velocity=0 time=122\n",
      "note_on channel=0 note=74 velocity=70 time=4\n",
      "note_on channel=0 note=53 velocity=0 time=124\n",
      "note_on channel=0 note=56 velocity=0 time=3\n",
      "note_on channel=0 note=55 velocity=65 time=6\n",
      "note_on channel=0 note=74 velocity=0 time=1\n",
      "note_on channel=0 note=51 velocity=59 time=6\n",
      "note_on channel=0 note=75 velocity=72 time=10\n",
      "note_on channel=0 note=75 velocity=0 time=83\n",
      "note_on channel=0 note=74 velocity=64 time=35\n",
      "note_on channel=0 note=74 velocity=0 time=72\n",
      "note_on channel=0 note=72 velocity=61 time=60\n",
      "note_on channel=0 note=51 velocity=0 time=2\n",
      "note_on channel=0 note=50 velocity=56 time=2\n",
      "control_change channel=0 control=64 value=58 time=33\n",
      "control_change channel=0 control=64 value=65 time=15\n",
      "control_change channel=0 control=64 value=69 time=15\n",
      "note_on channel=0 note=72 velocity=0 time=8\n",
      "control_change channel=0 control=64 value=73 time=7\n",
      "control_change channel=0 control=64 value=78 time=15\n",
      "control_change channel=0 control=64 value=80 time=16\n",
      "control_change channel=0 control=64 value=81 time=15\n",
      "note_on channel=0 note=70 velocity=71 time=9\n",
      "note_on channel=0 note=50 velocity=0 time=1\n",
      "control_change channel=0 control=64 value=82 time=21\n",
      "note_on channel=0 note=70 velocity=0 time=21\n",
      "control_change channel=0 control=64 value=81 time=85\n",
      "control_change channel=0 control=64 value=79 time=15\n",
      "note_on channel=0 note=55 velocity=0 time=6\n",
      "control_change channel=0 control=64 value=76 time=9\n",
      "note_on channel=0 note=60 velocity=71 time=4\n",
      "note_on channel=0 note=68 velocity=77 time=0\n",
      "note_on channel=0 note=48 velocity=62 time=3\n",
      "control_change channel=0 control=64 value=72 time=9\n",
      "control_change channel=0 control=64 value=66 time=14\n",
      "control_change channel=0 control=64 value=56 time=15\n",
      "control_change channel=0 control=64 value=0 time=16\n",
      "note_on channel=0 note=67 velocity=66 time=92\n",
      "note_on channel=0 note=51 velocity=59 time=4\n",
      "note_on channel=0 note=48 velocity=0 time=7\n",
      "note_on channel=0 note=68 velocity=0 time=37\n",
      "note_on channel=0 note=67 velocity=0 time=30\n",
      "note_on channel=0 note=51 velocity=0 time=39\n",
      "note_on channel=0 note=65 velocity=69 time=18\n",
      "note_on channel=0 note=53 velocity=66 time=3\n",
      "note_on channel=0 note=53 velocity=0 time=93\n",
      "note_on channel=0 note=65 velocity=0 time=2\n",
      "note_on channel=0 note=60 velocity=0 time=26\n",
      "note_on channel=0 note=63 velocity=71 time=12\n",
      "note_on channel=0 note=55 velocity=64 time=3\n",
      "note_on channel=0 note=63 velocity=0 time=93\n",
      "note_on channel=0 note=55 velocity=0 time=27\n",
      "note_on channel=0 note=68 velocity=83 time=33\n",
      "note_on channel=0 note=53 velocity=62 time=8\n",
      "note_on channel=0 note=53 velocity=0 time=121\n",
      "control_change channel=0 control=64 value=35 time=14\n",
      "note_on channel=0 note=51 velocity=63 time=0\n",
      "control_change channel=0 control=64 value=47 time=16\n",
      "control_change channel=0 control=64 value=53 time=14\n",
      "control_change channel=0 control=64 value=56 time=15\n",
      "control_change channel=0 control=64 value=58 time=16\n",
      "note_on channel=0 note=68 velocity=0 time=2\n",
      "control_change channel=0 control=64 value=60 time=12\n",
      "control_change channel=0 control=64 value=62 time=16\n",
      "note_on channel=0 note=51 velocity=0 time=13\n",
      "control_change channel=0 control=64 value=64 time=2\n",
      "control_change channel=0 control=64 value=65 time=15\n",
      "control_change channel=0 control=64 value=65 time=16\n",
      "note_on channel=0 note=68 velocity=82 time=6\n",
      "note_on channel=0 note=50 velocity=62 time=2\n",
      "control_change channel=0 control=64 value=66 time=82\n",
      "note_on channel=0 note=50 velocity=0 time=35\n",
      "note_on channel=0 note=48 velocity=58 time=22\n",
      "control_change channel=0 control=64 value=65 time=50\n",
      "control_change channel=0 control=64 value=65 time=29\n",
      "note_on channel=0 note=68 velocity=0 time=8\n",
      "control_change channel=0 control=64 value=64 time=8\n",
      "control_change channel=0 control=64 value=62 time=15\n",
      "control_change channel=0 control=64 value=59 time=15\n",
      "note_on channel=0 note=48 velocity=0 time=7\n",
      "note_on channel=0 note=58 velocity=54 time=4\n",
      "control_change channel=0 control=64 value=53 time=5\n",
      "note_on channel=0 note=68 velocity=81 time=8\n",
      "control_change channel=0 control=64 value=40 time=7\n",
      "note_on channel=0 note=51 velocity=50 time=7\n",
      "control_change channel=0 control=64 value=24 time=9\n",
      "control_change channel=0 control=64 value=0 time=15\n",
      "note_on channel=0 note=51 velocity=0 time=89\n",
      "note_on channel=0 note=50 velocity=52 time=26\n",
      "note_on channel=0 note=50 velocity=0 time=123\n",
      "note_on channel=0 note=48 velocity=52 time=32\n",
      "note_on channel=0 note=48 velocity=0 time=115\n",
      "note_on channel=0 note=46 velocity=50 time=26\n",
      "note_on channel=0 note=68 velocity=0 time=133\n",
      "note_on channel=0 note=58 velocity=0 time=31\n",
      "note_on channel=0 note=67 velocity=64 time=3\n",
      "note_on channel=0 note=46 velocity=0 time=6\n",
      "note_on channel=0 note=51 velocity=49 time=2\n",
      "note_on channel=0 note=62 velocity=62 time=126\n",
      "note_on channel=0 note=62 velocity=0 time=122\n",
      "note_on channel=0 note=51 velocity=0 time=1\n",
      "note_on channel=0 note=50 velocity=50 time=38\n",
      "note_on channel=0 note=63 velocity=66 time=2\n",
      "note_on channel=0 note=63 velocity=0 time=122\n",
      "note_on channel=0 note=65 velocity=68 time=27\n",
      "note_on channel=0 note=50 velocity=0 time=83\n",
      "note_on channel=0 note=65 velocity=0 time=57\n",
      "note_on channel=0 note=48 velocity=67 time=6\n",
      "note_on channel=0 note=63 velocity=72 time=0\n",
      "note_on channel=0 note=63 velocity=0 time=105\n",
      "note_on channel=0 note=62 velocity=67 time=46\n",
      "note_on channel=0 note=62 velocity=0 time=114\n",
      "note_on channel=0 note=60 velocity=65 time=40\n",
      "note_on channel=0 note=67 velocity=0 time=28\n",
      "note_on channel=0 note=60 velocity=0 time=82\n",
      "note_on channel=0 note=58 velocity=69 time=38\n",
      "note_on channel=0 note=58 velocity=0 time=64\n",
      "note_on channel=0 note=69 velocity=73 time=61\n",
      "note_on channel=0 note=63 velocity=70 time=1\n",
      "note_on channel=0 note=48 velocity=0 time=9\n",
      "note_on channel=0 note=48 velocity=65 time=128\n",
      "note_on channel=0 note=63 velocity=0 time=94\n",
      "note_on channel=0 note=48 velocity=0 time=27\n",
      "note_on channel=0 note=60 velocity=71 time=16\n",
      "note_on channel=0 note=50 velocity=67 time=11\n",
      "note_on channel=0 note=69 velocity=0 time=99\n",
      "note_on channel=0 note=50 velocity=0 time=17\n",
      "note_on channel=0 note=51 velocity=68 time=9\n",
      "note_on channel=0 note=60 velocity=0 time=115\n",
      "note_on channel=0 note=51 velocity=0 time=9\n",
      "note_on channel=0 note=50 velocity=63 time=29\n",
      "note_on channel=0 note=70 velocity=76 time=2\n",
      "note_on channel=0 note=65 velocity=76 time=3\n",
      "note_on channel=0 note=50 velocity=0 time=140\n",
      "note_on channel=0 note=48 velocity=64 time=14\n",
      "note_on channel=0 note=48 velocity=0 time=121\n",
      "note_on channel=0 note=72 velocity=77 time=21\n",
      "note_on channel=0 note=46 velocity=71 time=3\n",
      "note_on channel=0 note=70 velocity=0 time=86\n",
      "note_on channel=0 note=46 velocity=0 time=14\n",
      "note_on channel=0 note=45 velocity=71 time=36\n",
      "note_on channel=0 note=46 velocity=71 time=157\n",
      "note_on channel=0 note=45 velocity=0 time=13\n",
      "note_on channel=0 note=65 velocity=0 time=3\n",
      "note_on channel=0 note=74 velocity=78 time=0\n",
      "note_on channel=0 note=72 velocity=0 time=29\n",
      "note_on channel=0 note=65 velocity=77 time=110\n",
      "note_on channel=0 note=46 velocity=0 time=108\n",
      "note_on channel=0 note=58 velocity=80 time=41\n",
      "note_on channel=0 note=67 velocity=81 time=10\n",
      "note_on channel=0 note=65 velocity=0 time=34\n",
      "note_on channel=0 note=68 velocity=86 time=98\n",
      "note_on channel=0 note=67 velocity=0 time=25\n",
      "note_on channel=0 note=58 velocity=0 time=64\n",
      "note_on channel=0 note=58 velocity=73 time=53\n",
      "note_on channel=0 note=51 velocity=65 time=10\n",
      "note_on channel=0 note=67 velocity=79 time=6\n",
      "note_on channel=0 note=68 velocity=0 time=34\n",
      "note_on channel=0 note=67 velocity=0 time=86\n",
      "note_on channel=0 note=65 velocity=76 time=24\n",
      "note_on channel=0 note=63 velocity=72 time=142\n",
      "note_on channel=0 note=65 velocity=0 time=7\n",
      "note_on channel=0 note=74 velocity=0 time=24\n",
      "note_on channel=0 note=63 velocity=0 time=107\n",
      "note_on channel=0 note=62 velocity=74 time=7\n",
      "note_on channel=0 note=63 velocity=68 time=174\n",
      "note_on channel=0 note=67 velocity=65 time=6\n",
      "note_on channel=0 note=62 velocity=0 time=3\n",
      "note_on channel=0 note=67 velocity=0 time=156\n",
      "note_on channel=0 note=74 velocity=61 time=0\n",
      "note_on channel=0 note=74 velocity=0 time=114\n",
      "note_on channel=0 note=72 velocity=67 time=15\n",
      "note_on channel=0 note=51 velocity=0 time=121\n",
      "note_on channel=0 note=70 velocity=76 time=19\n",
      "note_on channel=0 note=72 velocity=0 time=17\n",
      "note_on channel=0 note=58 velocity=0 time=15\n",
      "note_on channel=0 note=70 velocity=0 time=110\n",
      "note_on channel=0 note=65 velocity=73 time=24\n",
      "note_on channel=0 note=69 velocity=74 time=0\n",
      "note_on channel=0 note=53 velocity=65 time=160\n",
      "note_on channel=0 note=63 velocity=0 time=68\n",
      "note_on channel=0 note=53 velocity=0 time=50\n",
      "note_on channel=0 note=55 velocity=64 time=13\n",
      "note_on channel=0 note=70 velocity=76 time=2\n",
      "note_on channel=0 note=69 velocity=0 time=32\n",
      "note_on channel=0 note=57 velocity=71 time=104\n",
      "note_on channel=0 note=55 velocity=0 time=4\n",
      "note_on channel=0 note=72 velocity=80 time=12\n",
      "note_on channel=0 note=70 velocity=0 time=3\n",
      "note_on channel=0 note=74 velocity=85 time=147\n",
      "note_on channel=0 note=58 velocity=63 time=6\n",
      "note_on channel=0 note=62 velocity=60 time=0\n",
      "note_on channel=0 note=57 velocity=0 time=5\n",
      "note_on channel=0 note=72 velocity=0 time=7\n",
      "control_change channel=0 control=64 value=20 time=31\n",
      "control_change channel=0 control=64 value=44 time=16\n",
      "control_change channel=0 control=64 value=53 time=15\n",
      "control_change channel=0 control=64 value=57 time=15\n",
      "control_change channel=0 control=64 value=61 time=16\n",
      "control_change channel=0 control=64 value=63 time=22\n",
      "control_change channel=0 control=64 value=65 time=16\n",
      "note_on channel=0 note=62 velocity=0 time=1\n",
      "control_change channel=0 control=64 value=67 time=14\n",
      "note_on channel=0 note=57 velocity=67 time=1\n",
      "control_change channel=0 control=64 value=71 time=15\n",
      "note_on channel=0 note=58 velocity=0 time=10\n",
      "control_change channel=0 control=64 value=74 time=5\n",
      "control_change channel=0 control=64 value=77 time=14\n",
      "control_change channel=0 control=64 value=79 time=16\n",
      "control_change channel=0 control=64 value=80 time=15\n",
      "control_change channel=0 control=64 value=80 time=14\n",
      "note_on channel=0 note=57 velocity=0 time=40\n",
      "note_on channel=0 note=55 velocity=69 time=14\n",
      "note_on channel=0 note=55 velocity=0 time=82\n",
      "note_on channel=0 note=53 velocity=71 time=57\n",
      "control_change channel=0 control=64 value=80 time=81\n",
      "control_change channel=0 control=64 value=79 time=16\n",
      "control_change channel=0 control=64 value=79 time=15\n",
      "control_change channel=0 control=64 value=78 time=15\n",
      "control_change channel=0 control=64 value=75 time=16\n",
      "note_on channel=0 note=67 velocity=84 time=12\n",
      "control_change channel=0 control=64 value=69 time=3\n",
      "note_on channel=0 note=53 velocity=0 time=3\n",
      "note_on channel=0 note=65 velocity=0 time=3\n",
      "note_on channel=0 note=51 velocity=69 time=2\n",
      "control_change channel=0 control=64 value=58 time=8\n",
      "control_change channel=0 control=64 value=0 time=15\n",
      "note_on channel=0 note=50 velocity=69 time=137\n",
      "note_on channel=0 note=51 velocity=0 time=1\n",
      "note_on channel=0 note=50 velocity=0 time=133\n",
      "note_on channel=0 note=48 velocity=67 time=23\n",
      "note_on channel=0 note=48 velocity=0 time=135\n",
      "note_on channel=0 note=46 velocity=69 time=9\n",
      "control_change channel=0 control=64 value=23 time=55\n",
      "control_change channel=0 control=64 value=43 time=16\n",
      "note_on channel=0 note=67 velocity=0 time=4\n",
      "control_change channel=0 control=64 value=52 time=11\n",
      "control_change channel=0 control=64 value=58 time=14\n",
      "note_on channel=0 note=74 velocity=0 time=3\n",
      "control_change channel=0 control=64 value=62 time=13\n",
      "control_change channel=0 control=64 value=64 time=15\n",
      "control_change channel=0 control=64 value=66 time=16\n",
      "note_on channel=0 note=51 velocity=64 time=0\n",
      "note_on channel=0 note=63 velocity=69 time=7\n",
      "control_change channel=0 control=64 value=69 time=7\n",
      "control_change channel=0 control=64 value=71 time=15\n",
      "note_on channel=0 note=46 velocity=0 time=5\n",
      "control_change channel=0 control=64 value=73 time=11\n",
      "control_change channel=0 control=64 value=76 time=15\n",
      "note_on channel=0 note=51 velocity=0 time=14\n",
      "control_change channel=0 control=64 value=77 time=1\n",
      "note_on channel=0 note=63 velocity=0 time=4\n",
      "control_change channel=0 control=64 value=77 time=11\n",
      "note_on channel=0 note=72 velocity=77 time=50\n",
      "control_change channel=0 control=64 value=76 time=87\n",
      "control_change channel=0 control=64 value=73 time=16\n",
      "control_change channel=0 control=64 value=67 time=15\n",
      "control_change channel=0 control=64 value=48 time=15\n",
      "control_change channel=0 control=64 value=0 time=16\n",
      "note_on channel=0 note=62 velocity=83 time=6\n",
      "note_on channel=0 note=51 velocity=74 time=3\n",
      "note_on channel=0 note=74 velocity=81 time=0\n",
      "note_on channel=0 note=72 velocity=0 time=37\n",
      "control_change channel=0 control=64 value=56 time=46\n",
      "control_change channel=0 control=64 value=64 time=14\n",
      "control_change channel=0 control=64 value=67 time=16\n",
      "control_change channel=0 control=64 value=70 time=15\n",
      "note_on channel=0 note=75 velocity=84 time=19\n",
      "control_change channel=0 control=64 value=74 time=3\n",
      "note_on channel=0 note=51 velocity=0 time=0\n",
      "note_on channel=0 note=62 velocity=0 time=2\n",
      "control_change channel=0 control=64 value=77 time=13\n",
      "note_on channel=0 note=74 velocity=0 time=4\n",
      "control_change channel=0 control=64 value=79 time=12\n",
      "control_change channel=0 control=64 value=80 time=15\n",
      "control_change channel=0 control=64 value=81 time=15\n",
      "control_change channel=0 control=64 value=80 time=61\n",
      "control_change channel=0 control=64 value=79 time=15\n",
      "note_on channel=0 note=77 velocity=92 time=14\n",
      "control_change channel=0 control=64 value=77 time=2\n",
      "note_on channel=0 note=60 velocity=80 time=6\n",
      "note_on channel=0 note=51 velocity=72 time=2\n",
      "control_change channel=0 control=64 value=72 time=7\n",
      "control_change channel=0 control=64 value=65 time=15\n",
      "note_on channel=0 note=75 velocity=0 time=9\n",
      "control_change channel=0 control=64 value=38 time=6\n",
      "control_change channel=0 control=64 value=0 time=15\n",
      "note_on channel=0 note=69 velocity=76 time=98\n",
      "note_on channel=0 note=70 velocity=79 time=152\n",
      "note_on channel=0 note=69 velocity=0 time=26\n",
      "note_on channel=0 note=72 velocity=78 time=136\n",
      "note_on channel=0 note=70 velocity=0 time=22\n",
      "note_on channel=0 note=60 velocity=0 time=54\n",
      "note_on channel=0 note=51 velocity=0 time=23\n",
      "note_on channel=0 note=70 velocity=81 time=51\n",
      "note_on channel=0 note=50 velocity=61 time=8\n",
      "note_on channel=0 note=62 velocity=65 time=5\n",
      "note_on channel=0 note=72 velocity=0 time=17\n",
      "control_change channel=0 control=64 value=20 time=9\n",
      "control_change channel=0 control=64 value=61 time=15\n",
      "control_change channel=0 control=64 value=67 time=15\n",
      "control_change channel=0 control=64 value=72 time=15\n",
      "note_on channel=0 note=77 velocity=0 time=0\n",
      "control_change channel=0 control=64 value=78 time=16\n",
      "control_change channel=0 control=64 value=81 time=15\n",
      "control_change channel=0 control=64 value=84 time=15\n",
      "control_change channel=0 control=64 value=85 time=15\n",
      "note_on channel=0 note=70 velocity=0 time=2\n",
      "note_on channel=0 note=69 velocity=82 time=4\n",
      "control_change channel=0 control=64 value=87 time=9\n",
      "control_change channel=0 control=64 value=89 time=16\n",
      "control_change channel=0 control=64 value=91 time=15\n",
      "control_change channel=0 control=64 value=93 time=15\n",
      "note_on channel=0 note=50 velocity=0 time=2\n",
      "control_change channel=0 control=64 value=95 time=14\n",
      "control_change channel=0 control=64 value=96 time=15\n",
      "note_on channel=0 note=69 velocity=0 time=8\n",
      "control_change channel=0 control=64 value=98 time=7\n",
      "control_change channel=0 control=64 value=99 time=15\n",
      "control_change channel=0 control=64 value=101 time=15\n",
      "note_on channel=0 note=67 velocity=84 time=9\n",
      "control_change channel=0 control=64 value=102 time=7\n",
      "control_change channel=0 control=64 value=103 time=15\n",
      "control_change channel=0 control=64 value=105 time=15\n",
      "control_change channel=0 control=64 value=106 time=15\n",
      "control_change channel=0 control=64 value=106 time=15\n",
      "control_change channel=0 control=64 value=107 time=15\n",
      "note_on channel=0 note=67 velocity=0 time=11\n",
      "control_change channel=0 control=64 value=107 time=19\n",
      "note_on channel=0 note=65 velocity=86 time=33\n",
      "note_on channel=0 note=65 velocity=0 time=51\n",
      "note_on channel=0 note=55 velocity=73 time=94\n",
      "note_on channel=0 note=62 velocity=0 time=44\n",
      "control_change channel=0 control=64 value=106 time=8\n",
      "note_on channel=0 note=70 velocity=95 time=10\n",
      "control_change channel=0 control=64 value=104 time=4\n",
      "control_change channel=0 control=64 value=102 time=16\n",
      "control_change channel=0 control=64 value=98 time=15\n",
      "control_change channel=0 control=64 value=94 time=15\n",
      "control_change channel=0 control=64 value=89 time=15\n",
      "control_change channel=0 control=64 value=84 time=15\n",
      "control_change channel=0 control=64 value=78 time=16\n",
      "control_change channel=0 control=64 value=71 time=23\n",
      "control_change channel=0 control=64 value=63 time=16\n",
      "control_change channel=0 control=64 value=0 time=14\n",
      "note_on channel=0 note=77 velocity=75 time=24\n",
      "note_on channel=0 note=62 velocity=61 time=4\n",
      "note_on channel=0 note=62 velocity=0 time=145\n",
      "note_on channel=0 note=79 velocity=74 time=1\n",
      "note_on channel=0 note=63 velocity=71 time=2\n",
      "note_on channel=0 note=77 velocity=0 time=13\n",
      "note_on channel=0 note=63 velocity=0 time=113\n",
      "note_on channel=0 note=65 velocity=73 time=16\n",
      "note_on channel=0 note=80 velocity=83 time=7\n",
      "note_on channel=0 note=79 velocity=0 time=12\n",
      "note_on channel=0 note=65 velocity=0 time=117\n",
      "note_on channel=0 note=63 velocity=74 time=16\n",
      "note_on channel=0 note=79 velocity=78 time=1\n",
      "note_on channel=0 note=80 velocity=0 time=13\n",
      "control_change channel=0 control=64 value=51 time=33\n",
      "control_change channel=0 control=64 value=60 time=14\n",
      "note_on channel=0 note=70 velocity=0 time=11\n",
      "control_change channel=0 control=64 value=63 time=5\n",
      "control_change channel=0 control=64 value=65 time=15\n",
      "control_change channel=0 control=64 value=68 time=15\n",
      "control_change channel=0 control=64 value=71 time=16\n",
      "note_on channel=0 note=63 velocity=0 time=5\n",
      "control_change channel=0 control=64 value=75 time=11\n",
      "note_on channel=0 note=62 velocity=76 time=4\n",
      "note_on channel=0 note=77 velocity=83 time=2\n",
      "control_change channel=0 control=64 value=78 time=9\n",
      "control_change channel=0 control=64 value=80 time=15\n",
      "note_on channel=0 note=79 velocity=0 time=5\n",
      "control_change channel=0 control=64 value=81 time=10\n",
      "control_change channel=0 control=64 value=81 time=16\n",
      "note_on channel=0 note=75 velocity=84 time=97\n",
      "note_on channel=0 note=62 velocity=0 time=2\n",
      "note_on channel=0 note=60 velocity=75 time=2\n",
      "note_on channel=0 note=77 velocity=0 time=6\n",
      "note_on channel=0 note=75 velocity=0 time=69\n",
      "note_on channel=0 note=58 velocity=76 time=51\n",
      "note_on channel=0 note=74 velocity=80 time=0\n",
      "note_on channel=0 note=60 velocity=0 time=22\n",
      "note_on channel=0 note=55 velocity=0 time=87\n",
      "control_change channel=0 control=64 value=81 time=5\n",
      "note_on channel=0 note=74 velocity=0 time=20\n",
      "control_change channel=0 control=64 value=80 time=10\n",
      "control_change channel=0 control=64 value=78 time=15\n",
      "note_on channel=0 note=75 velocity=93 time=5\n",
      "note_on channel=0 note=60 velocity=78 time=3\n",
      "note_on channel=0 note=58 velocity=0 time=1\n",
      "control_change channel=0 control=64 value=75 time=7\n",
      "control_change channel=0 control=64 value=69 time=15\n",
      "control_change channel=0 control=64 value=61 time=14\n",
      "control_change channel=0 control=64 value=0 time=16\n",
      "note_on channel=0 note=70 velocity=66 time=94\n",
      "note_on channel=0 note=55 velocity=52 time=26\n",
      "note_on channel=0 note=70 velocity=0 time=119\n",
      "note_on channel=0 note=55 velocity=0 time=8\n",
      "note_on channel=0 note=72 velocity=67 time=3\n",
      "note_on channel=0 note=57 velocity=61 time=2\n",
      "note_on channel=0 note=57 velocity=0 time=153\n",
      "note_on channel=0 note=74 velocity=68 time=2\n",
      "note_on channel=0 note=58 velocity=66 time=2\n",
      "note_on channel=0 note=72 velocity=0 time=14\n",
      "note_on channel=0 note=58 velocity=0 time=127\n",
      "note_on channel=0 note=72 velocity=71 time=6\n",
      "note_on channel=0 note=57 velocity=56 time=2\n",
      "note_on channel=0 note=74 velocity=0 time=26\n",
      "note_on channel=0 note=57 velocity=0 time=101\n",
      "note_on channel=0 note=70 velocity=70 time=23\n",
      "note_on channel=0 note=55 velocity=55 time=1\n",
      "note_on channel=0 note=72 velocity=0 time=11\n",
      "note_on channel=0 note=75 velocity=0 time=23\n",
      "note_on channel=0 note=70 velocity=0 time=88\n",
      "note_on channel=0 note=55 velocity=0 time=10\n",
      "note_on channel=0 note=69 velocity=66 time=12\n",
      "note_on channel=0 note=53 velocity=54 time=4\n",
      "note_on channel=0 note=53 velocity=0 time=61\n",
      "note_on channel=0 note=67 velocity=66 time=77\n",
      "note_on channel=0 note=69 velocity=0 time=8\n",
      "note_on channel=0 note=51 velocity=51 time=9\n",
      "note_on channel=0 note=67 velocity=0 time=122\n",
      "note_on channel=0 note=51 velocity=0 time=41\n",
      "note_on channel=0 note=69 velocity=62 time=0\n",
      "note_on channel=0 note=53 velocity=46 time=8\n",
      "note_on channel=0 note=75 velocity=52 time=147\n",
      "note_on channel=0 note=75 velocity=0 time=98\n",
      "control_change channel=0 control=64 value=31 time=18\n",
      "control_change channel=0 control=64 value=51 time=14\n",
      "note_on channel=0 note=77 velocity=54 time=14\n",
      "control_change channel=0 control=64 value=58 time=2\n",
      "control_change channel=0 control=64 value=62 time=15\n",
      "control_change channel=0 control=64 value=63 time=16\n",
      "control_change channel=0 control=64 value=65 time=15\n",
      "control_change channel=0 control=64 value=67 time=14\n",
      "control_change channel=0 control=64 value=70 time=16\n",
      "note_on channel=0 note=77 velocity=0 time=0\n",
      "control_change channel=0 control=64 value=73 time=15\n",
      "control_change channel=0 control=64 value=75 time=14\n",
      "control_change channel=0 control=64 value=76 time=16\n",
      "control_change channel=0 control=64 value=77 time=15\n",
      "note_on channel=0 note=79 velocity=64 time=0\n",
      "control_change channel=0 control=64 value=77 time=16\n",
      "note_on channel=0 note=79 velocity=0 time=42\n",
      "control_change channel=0 control=64 value=77 time=33\n",
      "control_change channel=0 control=64 value=76 time=16\n",
      "control_change channel=0 control=64 value=73 time=15\n",
      "control_change channel=0 control=64 value=69 time=15\n",
      "control_change channel=0 control=64 value=63 time=15\n",
      "note_on channel=0 note=77 velocity=74 time=3\n",
      "control_change channel=0 control=64 value=36 time=12\n",
      "control_change channel=0 control=64 value=0 time=16\n",
      "control_change channel=0 control=64 value=13 time=91\n",
      "control_change channel=0 control=64 value=24 time=15\n",
      "note_on channel=0 note=75 velocity=74 time=19\n",
      "control_change channel=0 control=64 value=28 time=4\n",
      "note_on channel=0 note=77 velocity=0 time=9\n",
      "control_change channel=0 control=64 value=29 time=7\n",
      "note_on channel=0 note=74 velocity=72 time=133\n",
      "note_on channel=0 note=75 velocity=0 time=2\n",
      "control_change channel=0 control=64 value=28 time=2\n",
      "note_on channel=0 note=69 velocity=0 time=57\n",
      "control_change channel=0 control=64 value=27 time=3\n",
      "control_change channel=0 control=64 value=26 time=62\n",
      "note_on channel=0 note=74 velocity=0 time=15\n",
      "note_on channel=0 note=72 velocity=68 time=6\n",
      "control_change channel=0 control=64 value=25 time=9\n",
      "control_change channel=0 control=64 value=24 time=46\n",
      "control_change channel=0 control=64 value=23 time=60\n",
      "note_on channel=0 note=72 velocity=0 time=18\n",
      "control_change channel=0 control=64 value=21 time=27\n",
      "note_on channel=0 note=74 velocity=60 time=4\n",
      "control_change channel=0 control=64 value=20 time=57\n",
      "control_change channel=0 control=64 value=18 time=15\n",
      "control_change channel=0 control=64 value=17 time=16\n",
      "control_change channel=0 control=64 value=15 time=15\n",
      "note_on channel=0 note=60 velocity=0 time=7\n",
      "note_on channel=0 note=53 velocity=0 time=15\n",
      "control_change channel=0 control=64 value=13 time=8\n",
      "note_on channel=0 note=54 velocity=47 time=1\n",
      "control_change channel=0 control=64 value=10 time=59\n",
      "control_change channel=0 control=64 value=0 time=31\n",
      "note_on channel=0 note=54 velocity=0 time=55\n",
      "note_on channel=0 note=62 velocity=54 time=21\n",
      "note_on channel=0 note=55 velocity=52 time=3\n",
      "note_on channel=0 note=55 velocity=0 time=96\n",
      "note_on channel=0 note=57 velocity=57 time=52\n",
      "note_on channel=0 note=57 velocity=0 time=106\n",
      "note_on channel=0 note=62 velocity=0 time=26\n",
      "note_on channel=0 note=58 velocity=50 time=16\n",
      "note_on channel=0 note=67 velocity=58 time=1\n",
      "note_on channel=0 note=53 velocity=48 time=157\n",
      "note_on channel=0 note=58 velocity=0 time=84\n",
      "note_on channel=0 note=53 velocity=0 time=22\n",
      "note_on channel=0 note=67 velocity=0 time=7\n",
      "note_on channel=0 note=65 velocity=49 time=29\n",
      "note_on channel=0 note=51 velocity=36 time=1\n",
      "control_change channel=0 control=64 value=24 time=47\n",
      "control_change channel=0 control=64 value=40 time=14\n",
      "control_change channel=0 control=64 value=54 time=16\n",
      "control_change channel=0 control=64 value=61 time=15\n",
      "control_change channel=0 control=64 value=63 time=16\n",
      "control_change channel=0 control=64 value=65 time=14\n",
      "control_change channel=0 control=64 value=67 time=15\n",
      "note_on channel=0 note=50 velocity=38 time=15\n",
      "control_change channel=0 control=64 value=69 time=1\n",
      "note_on channel=0 note=65 velocity=0 time=3\n",
      "note_on channel=0 note=51 velocity=0 time=6\n",
      "control_change channel=0 control=64 value=73 time=14\n",
      "control_change channel=0 control=64 value=76 time=16\n",
      "note_on channel=0 note=50 velocity=0 time=9\n",
      "control_change channel=0 control=64 value=77 time=5\n",
      "control_change channel=0 control=64 value=77 time=92\n",
      "control_change channel=0 control=64 value=76 time=16\n",
      "control_change channel=0 control=64 value=74 time=15\n",
      "note_on channel=0 note=63 velocity=56 time=0\n",
      "note_on channel=0 note=48 velocity=44 time=5\n",
      "control_change channel=0 control=64 value=72 time=10\n",
      "control_change channel=0 control=64 value=68 time=16\n",
      "control_change channel=0 control=64 value=61 time=15\n",
      "control_change channel=0 control=64 value=42 time=16\n",
      "control_change channel=0 control=64 value=0 time=15\n",
      "note_on channel=0 note=55 velocity=46 time=68\n",
      "note_on channel=0 note=55 velocity=0 time=128\n",
      "note_on channel=0 note=57 velocity=57 time=28\n",
      "note_on channel=0 note=57 velocity=0 time=125\n",
      "note_on channel=0 note=58 velocity=55 time=26\n",
      "note_on channel=0 note=58 velocity=0 time=111\n",
      "note_on channel=0 note=74 velocity=0 time=32\n",
      "note_on channel=0 note=57 velocity=45 time=27\n",
      "note_on channel=0 note=72 velocity=58 time=0\n",
      "note_on channel=0 note=57 velocity=0 time=126\n",
      "note_on channel=0 note=55 velocity=50 time=40\n",
      "note_on channel=0 note=55 velocity=0 time=110\n",
      "note_on channel=0 note=54 velocity=48 time=38\n",
      "note_on channel=0 note=54 velocity=0 time=110\n",
      "note_on channel=0 note=55 velocity=44 time=51\n",
      "note_on channel=0 note=63 velocity=0 time=88\n",
      "note_on channel=0 note=55 velocity=0 time=44\n",
      "note_on channel=0 note=48 velocity=0 time=25\n",
      "note_on channel=0 note=62 velocity=46 time=18\n",
      "note_on channel=0 note=50 velocity=25 time=3\n",
      "note_on channel=0 note=54 velocity=32 time=4\n",
      "control_change channel=0 control=64 value=49 time=257\n",
      "control_change channel=0 control=64 value=57 time=15\n",
      "control_change channel=0 control=64 value=60 time=14\n",
      "control_change channel=0 control=64 value=62 time=16\n",
      "note_on channel=0 note=70 velocity=56 time=10\n",
      "note_on channel=0 note=72 velocity=0 time=4\n",
      "control_change channel=0 control=64 value=64 time=1\n",
      "note_on channel=0 note=55 velocity=35 time=2\n",
      "control_change channel=0 control=64 value=67 time=14\n",
      "note_on channel=0 note=54 velocity=0 time=2\n",
      "control_change channel=0 control=64 value=70 time=14\n",
      "control_change channel=0 control=64 value=74 time=15\n",
      "note_on channel=0 note=62 velocity=0 time=6\n",
      "control_change channel=0 control=64 value=76 time=9\n",
      "control_change channel=0 control=64 value=78 time=15\n",
      "control_change channel=0 control=64 value=78 time=15\n",
      "control_change channel=0 control=64 value=79 time=16\n",
      "control_change channel=0 control=64 value=80 time=14\n",
      "control_change channel=0 control=64 value=80 time=16\n",
      "control_change channel=0 control=64 value=80 time=122\n",
      "control_change channel=0 control=64 value=79 time=29\n",
      "note_on channel=0 note=70 velocity=0 time=7\n",
      "control_change channel=0 control=64 value=76 time=9\n",
      "control_change channel=0 control=64 value=73 time=14\n",
      "note_on channel=0 note=69 velocity=49 time=0\n",
      "control_change channel=0 control=64 value=67 time=15\n",
      "note_on channel=0 note=60 velocity=38 time=4\n",
      "control_change channel=0 control=64 value=56 time=12\n",
      "control_change channel=0 control=64 value=0 time=15\n",
      "control_change channel=0 control=64 value=38 time=205\n",
      "control_change channel=0 control=64 value=57 time=16\n",
      "control_change channel=0 control=64 value=64 time=14\n",
      "control_change channel=0 control=64 value=67 time=15\n",
      "control_change channel=0 control=64 value=70 time=16\n",
      "note_on channel=0 note=55 velocity=0 time=3\n",
      "note_on channel=0 note=50 velocity=0 time=8\n",
      "control_change channel=0 control=64 value=73 time=4\n",
      "note_on channel=0 note=60 velocity=0 time=10\n",
      "control_change channel=0 control=64 value=75 time=6\n",
      "note_on channel=0 note=54 velocity=34 time=0\n",
      "control_change channel=0 control=64 value=77 time=15\n",
      "control_change channel=0 control=64 value=78 time=14\n",
      "control_change channel=0 control=64 value=78 time=31\n",
      "note_on channel=0 note=69 velocity=0 time=10\n",
      "note_on channel=0 note=54 velocity=0 time=89\n",
      "control_change channel=0 control=64 value=78 time=54\n",
      "control_change channel=0 control=64 value=77 time=31\n",
      "control_change channel=0 control=64 value=76 time=15\n",
      "control_change channel=0 control=64 value=73 time=15\n",
      "control_change channel=0 control=64 value=67 time=16\n",
      "note_on channel=0 note=43 velocity=35 time=13\n",
      "control_change channel=0 control=64 value=55 time=1\n",
      "control_change channel=0 control=64 value=0 time=16\n",
      "note_on channel=0 note=58 velocity=55 time=3\n",
      "note_on channel=0 note=67 velocity=59 time=0\n",
      "control_change channel=0 control=64 value=49 time=118\n",
      "control_change channel=0 control=64 value=61 time=15\n",
      "note_on channel=0 note=43 velocity=0 time=3\n",
      "control_change channel=0 control=64 value=64 time=12\n",
      "note_on channel=0 note=55 velocity=59 time=11\n",
      "control_change channel=0 control=64 value=65 time=5\n",
      "control_change channel=0 control=64 value=66 time=14\n",
      "control_change channel=0 control=64 value=67 time=16\n",
      "control_change channel=0 control=64 value=68 time=15\n",
      "control_change channel=0 control=64 value=69 time=15\n",
      "control_change channel=0 control=64 value=69 time=45\n",
      "note_on channel=0 note=58 velocity=0 time=10\n",
      "note_on channel=0 note=55 velocity=0 time=16\n",
      "note_on channel=0 note=56 velocity=70 time=0\n",
      "control_change channel=0 control=64 value=68 time=5\n",
      "control_change channel=0 control=64 value=67 time=38\n",
      "control_change channel=0 control=64 value=67 time=16\n",
      "control_change channel=0 control=64 value=66 time=15\n",
      "control_change channel=0 control=64 value=65 time=14\n",
      "control_change channel=0 control=64 value=65 time=16\n",
      "control_change channel=0 control=64 value=64 time=15\n",
      "control_change channel=0 control=64 value=64 time=15\n",
      "note_on channel=0 note=58 velocity=78 time=18\n",
      "note_on channel=0 note=56 velocity=0 time=10\n",
      "control_change channel=0 control=64 value=63 time=2\n",
      "control_change channel=0 control=64 value=63 time=16\n",
      "control_change channel=0 control=64 value=62 time=15\n",
      "control_change channel=0 control=64 value=61 time=15\n",
      "control_change channel=0 control=64 value=61 time=15\n",
      "control_change channel=0 control=64 value=60 time=15\n",
      "control_change channel=0 control=64 value=59 time=15\n",
      "control_change channel=0 control=64 value=57 time=16\n",
      "control_change channel=0 control=64 value=55 time=14\n",
      "control_change channel=0 control=64 value=50 time=16\n",
      "note_on channel=0 note=56 velocity=66 time=14\n",
      "note_on channel=0 note=63 velocity=86 time=0\n",
      "control_change channel=0 control=64 value=43 time=1\n",
      "note_on channel=0 note=58 velocity=0 time=13\n",
      "control_change channel=0 control=64 value=33 time=2\n",
      "note_on channel=0 note=67 velocity=0 time=11\n",
      "control_change channel=0 control=64 value=17 time=5\n",
      "control_change channel=0 control=64 value=0 time=15\n",
      "note_on channel=0 note=56 velocity=0 time=89\n",
      "note_on channel=0 note=55 velocity=63 time=21\n",
      "note_on channel=0 note=55 velocity=0 time=155\n",
      "note_on channel=0 note=53 velocity=60 time=14\n",
      "note_on channel=0 note=53 velocity=0 time=131\n",
      "note_on channel=0 note=51 velocity=61 time=28\n",
      "note_on channel=0 note=51 velocity=0 time=137\n",
      "note_on channel=0 note=65 velocity=70 time=11\n",
      "note_on channel=0 note=58 velocity=58 time=13\n",
      "note_on channel=0 note=58 velocity=0 time=126\n",
      "note_on channel=0 note=50 velocity=63 time=18\n",
      "note_on channel=0 note=50 velocity=0 time=114\n",
      "note_on channel=0 note=51 velocity=67 time=41\n",
      "note_on channel=0 note=53 velocity=64 time=159\n",
      "note_on channel=0 note=51 velocity=0 time=2\n",
      "note_on channel=0 note=63 velocity=0 time=122\n",
      "note_on channel=0 note=62 velocity=67 time=6\n",
      "note_on channel=0 note=65 velocity=0 time=3\n",
      "note_on channel=0 note=70 velocity=62 time=3\n",
      "note_on channel=0 note=51 velocity=55 time=18\n",
      "note_on channel=0 note=53 velocity=0 time=0\n",
      "note_on channel=0 note=51 velocity=0 time=122\n",
      "note_on channel=0 note=50 velocity=62 time=33\n",
      "note_on channel=0 note=50 velocity=0 time=145\n",
      "note_on channel=0 note=48 velocity=68 time=11\n",
      "note_on channel=0 note=48 velocity=0 time=136\n",
      "note_on channel=0 note=46 velocity=69 time=5\n",
      "control_change channel=0 control=64 value=41 time=132\n",
      "note_on channel=0 note=70 velocity=0 time=0\n",
      "note_on channel=0 note=46 velocity=0 time=11\n",
      "control_change channel=0 control=64 value=56 time=4\n",
      "control_change channel=0 control=64 value=62 time=16\n",
      "note_on channel=0 note=52 velocity=64 time=5\n",
      "note_on channel=0 note=67 velocity=80 time=4\n",
      "control_change channel=0 control=64 value=65 time=5\n",
      "control_change channel=0 control=64 value=68 time=15\n",
      "note_on channel=0 note=62 velocity=0 time=12\n",
      "control_change channel=0 control=64 value=71 time=4\n",
      "control_change channel=0 control=64 value=74 time=15\n",
      "control_change channel=0 control=64 value=76 time=15\n",
      "note_on channel=0 note=52 velocity=0 time=5\n",
      "control_change channel=0 control=64 value=77 time=10\n",
      "control_change channel=0 control=64 value=78 time=15\n",
      "note_on channel=0 note=58 velocity=79 time=55\n",
      "control_change channel=0 control=64 value=77 time=45\n",
      "control_change channel=0 control=64 value=77 time=30\n",
      "control_change channel=0 control=64 value=76 time=15\n",
      "control_change channel=0 control=64 value=75 time=15\n",
      "control_change channel=0 control=64 value=75 time=15\n",
      "control_change channel=0 control=64 value=74 time=15\n",
      "note_on channel=0 note=58 velocity=0 time=5\n",
      "control_change channel=0 control=64 value=73 time=11\n",
      "note_on channel=0 note=60 velocity=81 time=1\n",
      "control_change channel=0 control=64 value=72 time=14\n",
      "control_change channel=0 control=64 value=70 time=15\n",
      "control_change channel=0 control=64 value=67 time=15\n",
      "control_change channel=0 control=64 value=64 time=15\n",
      "control_change channel=0 control=64 value=60 time=15\n",
      "control_change channel=0 control=64 value=55 time=16\n",
      "control_change channel=0 control=64 value=53 time=15\n",
      "note_on channel=0 note=60 velocity=0 time=22\n",
      "control_change channel=0 control=64 value=52 time=8\n",
      "control_change channel=0 control=64 value=51 time=15\n",
      "note_on channel=0 note=61 velocity=82 time=0\n",
      "control_change channel=0 control=64 value=50 time=16\n",
      "control_change channel=0 control=64 value=48 time=14\n",
      "control_change channel=0 control=64 value=47 time=15\n",
      "control_change channel=0 control=64 value=45 time=16\n",
      "control_change channel=0 control=64 value=42 time=15\n",
      "control_change channel=0 control=64 value=39 time=16\n",
      "control_change channel=0 control=64 value=35 time=15\n",
      "note_on channel=0 note=61 velocity=0 time=7\n",
      "control_change channel=0 control=64 value=30 time=8\n",
      "control_change channel=0 control=64 value=24 time=15\n",
      "control_change channel=0 control=64 value=13 time=15\n",
      "note_on channel=0 note=60 velocity=69 time=4\n",
      "note_on channel=0 note=68 velocity=90 time=8\n",
      "control_change channel=0 control=64 value=0 time=3\n",
      "note_on channel=0 note=53 velocity=54 time=0\n",
      "note_on channel=0 note=65 velocity=73 time=4\n",
      "note_on channel=0 note=67 velocity=0 time=35\n",
      "note_on channel=0 note=58 velocity=72 time=109\n",
      "note_on channel=0 note=60 velocity=0 time=2\n",
      "note_on channel=0 note=53 velocity=0 time=128\n",
      "note_on channel=0 note=58 velocity=0 time=22\n",
      "note_on channel=0 note=56 velocity=67 time=15\n",
      "note_on channel=0 note=56 velocity=0 time=133\n",
      "note_on channel=0 note=53 velocity=3 time=12\n",
      "note_on channel=0 note=55 velocity=66 time=2\n",
      "note_on channel=0 note=55 velocity=0 time=158\n",
      "note_on channel=0 note=56 velocity=58 time=10\n",
      "note_on channel=0 note=73 velocity=84 time=9\n",
      "note_on channel=0 note=53 velocity=0 time=17\n",
      "note_on channel=0 note=65 velocity=0 time=9\n",
      "note_on channel=0 note=68 velocity=0 time=14\n",
      "control_change channel=0 control=64 value=31 time=14\n",
      "control_change channel=0 control=64 value=42 time=14\n",
      "control_change channel=0 control=64 value=51 time=16\n",
      "control_change channel=0 control=64 value=55 time=15\n",
      "control_change channel=0 control=64 value=59 time=15\n",
      "control_change channel=0 control=64 value=61 time=16\n",
      "control_change channel=0 control=64 value=63 time=14\n",
      "note_on channel=0 note=65 velocity=74 time=3\n",
      "control_change channel=0 control=64 value=65 time=12\n",
      "control_change channel=0 control=64 value=68 time=16\n",
      "control_change channel=0 control=64 value=71 time=16\n",
      "control_change channel=0 control=64 value=73 time=16\n",
      "control_change channel=0 control=64 value=74 time=15\n",
      "control_change channel=0 control=64 value=75 time=14\n",
      "control_change channel=0 control=64 value=75 time=16\n",
      "note_on channel=0 note=56 velocity=0 time=28\n",
      "control_change channel=0 control=64 value=76 time=3\n",
      "note_on channel=0 note=58 velocity=72 time=12\n",
      "note_on channel=0 note=67 velocity=79 time=7\n",
      "control_change channel=0 control=64 value=76 time=10\n",
      "note_on channel=0 note=65 velocity=0 time=14\n",
      "control_change channel=0 control=64 value=77 time=32\n",
      "note_on channel=0 note=58 velocity=0 time=25\n",
      "note_on channel=0 note=68 velocity=86 time=62\n",
      "note_on channel=0 note=60 velocity=66 time=1\n",
      "note_on channel=0 note=67 velocity=0 time=21\n",
      "note_on channel=0 note=60 velocity=0 time=9\n",
      "control_change channel=0 control=64 value=76 time=72\n",
      "control_change channel=0 control=64 value=72 time=16\n",
      "control_change channel=0 control=64 value=64 time=15\n",
      "control_change channel=0 control=64 value=0 time=15\n",
      "note_on channel=0 note=67 velocity=85 time=0\n",
      "note_on channel=0 note=58 velocity=68 time=5\n",
      "note_on channel=0 note=46 velocity=60 time=9\n",
      "note_on channel=0 note=68 velocity=0 time=26\n",
      "control_change channel=0 control=64 value=51 time=52\n",
      "control_change channel=0 control=64 value=61 time=15\n",
      "control_change channel=0 control=64 value=64 time=15\n",
      "note_on channel=0 note=67 velocity=0 time=12\n",
      "control_change channel=0 control=64 value=67 time=2\n",
      "note_on channel=0 note=65 velocity=80 time=12\n",
      "control_change channel=0 control=64 value=70 time=3\n",
      "control_change channel=0 control=64 value=73 time=14\n",
      "control_change channel=0 control=64 value=76 time=16\n",
      "note_on channel=0 note=58 velocity=0 time=11\n",
      "control_change channel=0 control=64 value=77 time=4\n",
      "control_change channel=0 control=64 value=78 time=15\n",
      "control_change channel=0 control=64 value=78 time=16\n",
      "control_change channel=0 control=64 value=78 time=45\n",
      "control_change channel=0 control=64 value=77 time=15\n",
      "control_change channel=0 control=64 value=74 time=16\n",
      "note_on channel=0 note=56 velocity=71 time=2\n",
      "note_on channel=0 note=64 velocity=79 time=0\n",
      "note_on channel=0 note=65 velocity=0 time=8\n",
      "control_change channel=0 control=64 value=69 time=4\n",
      "control_change channel=0 control=64 value=58 time=15\n",
      "control_change channel=0 control=64 value=0 time=16\n",
      "control_change channel=0 control=64 value=28 time=31\n",
      "control_change channel=0 control=64 value=54 time=14\n",
      "control_change channel=0 control=64 value=61 time=16\n",
      "note_on channel=0 note=64 velocity=0 time=4\n",
      "control_change channel=0 control=64 value=64 time=12\n",
      "control_change channel=0 control=64 value=66 time=15\n",
      "note_on channel=0 note=65 velocity=81 time=14\n",
      "control_change channel=0 control=64 value=68 time=2\n",
      "control_change channel=0 control=64 value=72 time=14\n",
      "control_change channel=0 control=64 value=76 time=15\n",
      "control_change channel=0 control=64 value=78 time=16\n",
      "control_change channel=0 control=64 value=78 time=15\n",
      "note_on channel=0 note=56 velocity=0 time=11\n",
      "note_on channel=0 note=65 velocity=0 time=28\n",
      "control_change channel=0 control=64 value=79 time=6\n",
      "note_on channel=0 note=46 velocity=0 time=5\n",
      "control_change channel=0 control=64 value=78 time=64\n",
      "note_on channel=0 note=55 velocity=75 time=1\n",
      "note_on channel=0 note=48 velocity=66 time=4\n",
      "control_change channel=0 control=64 value=78 time=26\n",
      "control_change channel=0 control=64 value=76 time=14\n",
      "note_on channel=0 note=64 velocity=79 time=10\n",
      "control_change channel=0 control=64 value=74 time=5\n",
      "control_change channel=0 control=64 value=71 time=16\n",
      "control_change channel=0 control=64 value=66 time=15\n",
      "control_change channel=0 control=64 value=59 time=16\n",
      "control_change channel=0 control=64 value=41 time=14\n",
      "control_change channel=0 control=64 value=0 time=15\n",
      "note_on channel=0 note=73 velocity=0 time=7\n",
      "note_on channel=0 note=70 velocity=79 time=60\n",
      "note_on channel=0 note=72 velocity=80 time=146\n",
      "note_on channel=0 note=70 velocity=0 time=25\n",
      "note_on channel=0 note=73 velocity=78 time=121\n",
      "note_on channel=0 note=72 velocity=0 time=15\n",
      "note_on channel=0 note=73 velocity=0 time=114\n",
      "note_on channel=0 note=56 velocity=81 time=25\n",
      "note_on channel=0 note=72 velocity=72 time=12\n",
      "note_on channel=0 note=55 velocity=0 time=35\n",
      "note_on channel=0 note=70 velocity=78 time=125\n",
      "note_on channel=0 note=64 velocity=0 time=11\n",
      "note_on channel=0 note=72 velocity=0 time=12\n",
      "control_change channel=0 control=64 value=42 time=31\n",
      "control_change channel=0 control=64 value=54 time=14\n",
      "control_change channel=0 control=64 value=61 time=15\n",
      "control_change channel=0 control=64 value=65 time=16\n",
      "control_change channel=0 control=64 value=67 time=14\n",
      "control_change channel=0 control=64 value=70 time=16\n",
      "control_change channel=0 control=64 value=72 time=14\n",
      "note_on channel=0 note=68 velocity=85 time=9\n",
      "control_change channel=0 control=64 value=75 time=6\n",
      "note_on channel=0 note=70 velocity=0 time=11\n",
      "control_change channel=0 control=64 value=77 time=5\n",
      "control_change channel=0 control=64 value=78 time=15\n",
      "control_change channel=0 control=64 value=79 time=16\n",
      "note_on channel=0 note=68 velocity=0 time=57\n",
      "note_on channel=0 note=67 velocity=85 time=25\n",
      "note_on channel=0 note=67 velocity=0 time=78\n",
      "note_on channel=0 note=49 velocity=68 time=45\n",
      "note_on channel=0 note=56 velocity=0 time=12\n",
      "control_change channel=0 control=64 value=78 time=10\n",
      "control_change channel=0 control=64 value=77 time=16\n",
      "note_on channel=0 note=65 velocity=96 time=3\n",
      "control_change channel=0 control=64 value=75 time=12\n",
      "note_on channel=0 note=48 velocity=0 time=12\n",
      "control_change channel=0 control=64 value=71 time=2\n",
      "control_change channel=0 control=64 value=65 time=16\n",
      "control_change channel=0 control=64 value=53 time=15\n",
      "control_change channel=0 control=64 value=0 time=15\n",
      "note_on channel=0 note=63 velocity=66 time=91\n",
      "note_on channel=0 note=61 velocity=62 time=156\n",
      "note_on channel=0 note=63 velocity=0 time=50\n",
      "note_on channel=0 note=61 velocity=0 time=63\n",
      "note_on channel=0 note=60 velocity=59 time=34\n",
      "note_on channel=0 note=60 velocity=0 time=124\n",
      "note_on channel=0 note=58 velocity=59 time=31\n",
      "note_on channel=0 note=56 velocity=50 time=163\n",
      "note_on channel=0 note=56 velocity=0 time=132\n",
      "note_on channel=0 note=55 velocity=54 time=24\n",
      "note_on channel=0 note=55 velocity=0 time=138\n",
      "note_on channel=0 note=53 velocity=57 time=20\n",
      "note_on channel=0 note=49 velocity=0 time=45\n",
      "note_on channel=0 note=53 velocity=0 time=99\n",
      "note_on channel=0 note=55 velocity=52 time=22\n",
      "note_on channel=0 note=48 velocity=42 time=17\n",
      "note_on channel=0 note=58 velocity=0 time=24\n",
      "note_on channel=0 note=58 velocity=52 time=123\n",
      "note_on channel=0 note=58 velocity=0 time=55\n",
      "note_on channel=0 note=60 velocity=50 time=86\n",
      "note_on channel=0 note=65 velocity=0 time=108\n",
      "note_on channel=0 note=60 velocity=0 time=9\n",
      "note_on channel=0 note=61 velocity=56 time=32\n",
      "note_on channel=0 note=61 velocity=0 time=105\n",
      "note_on channel=0 note=60 velocity=57 time=63\n",
      "note_on channel=0 note=64 velocity=59 time=1\n",
      "control_change channel=0 control=67 value=11 time=50\n",
      "control_change channel=0 control=67 value=18 time=14\n",
      "control_change channel=0 control=67 value=27 time=16\n",
      "note_on channel=0 note=60 velocity=0 time=8\n",
      "control_change channel=0 control=67 value=37 time=7\n",
      "control_change channel=0 control=67 value=47 time=16\n",
      "control_change channel=0 control=67 value=57 time=15\n",
      "control_change channel=0 control=67 value=67 time=14\n",
      "note_on channel=0 note=58 velocity=50 time=15\n",
      "control_change channel=0 control=67 value=79 time=1\n",
      "control_change channel=0 control=64 value=34 time=15\n",
      "control_change channel=0 control=67 value=89 time=0\n",
      "control_change channel=0 control=64 value=44 time=16\n",
      "control_change channel=0 control=67 value=99 time=0\n",
      "control_change channel=0 control=64 value=51 time=15\n",
      "control_change channel=0 control=67 value=108 time=0\n",
      "control_change channel=0 control=64 value=57 time=14\n",
      "control_change channel=0 control=67 value=116 time=0\n",
      "control_change channel=0 control=64 value=61 time=16\n",
      "control_change channel=0 control=67 value=123 time=0\n",
      "control_change channel=0 control=64 value=63 time=15\n",
      "control_change channel=0 control=67 value=127 time=0\n",
      "note_on channel=0 note=58 velocity=0 time=1\n",
      "note_on channel=0 note=55 velocity=0 time=1\n",
      "control_change channel=0 control=64 value=64 time=13\n",
      "control_change channel=0 control=64 value=65 time=16\n",
      "control_change channel=0 control=64 value=66 time=15\n",
      "note_on channel=0 note=64 velocity=0 time=2\n",
      "control_change channel=0 control=64 value=68 time=13\n",
      "note_on channel=0 note=56 velocity=51 time=1\n",
      "control_change channel=0 control=64 value=69 time=14\n",
      "control_change channel=0 control=64 value=71 time=15\n",
      "control_change channel=0 control=64 value=71 time=16\n",
      "control_change channel=0 control=64 value=72 time=15\n",
      "control_change channel=0 control=64 value=73 time=14\n",
      "note_on channel=0 note=56 velocity=0 time=23\n",
      "note_on channel=0 note=55 velocity=42 time=52\n",
      "note_on channel=0 note=48 velocity=0 time=92\n",
      "control_change channel=0 control=64 value=72 time=16\n",
      "control_change channel=0 control=64 value=71 time=15\n",
      "control_change channel=0 control=64 value=68 time=15\n",
      "control_change channel=0 control=64 value=61 time=15\n",
      "note_on channel=0 note=55 velocity=0 time=0\n",
      "control_change channel=0 control=64 value=24 time=16\n",
      "note_on channel=0 note=53 velocity=40 time=10\n",
      "note_on channel=0 note=65 velocity=63 time=11\n",
      "control_change channel=0 control=64 value=0 time=2\n",
      "note_on channel=0 note=56 velocity=54 time=1\n",
      "control_change channel=0 control=67 value=124 time=76\n",
      "control_change channel=0 control=67 value=116 time=15\n",
      "control_change channel=0 control=64 value=39 time=16\n",
      "control_change channel=0 control=67 value=103 time=0\n",
      "control_change channel=0 control=64 value=58 time=14\n",
      "control_change channel=0 control=67 value=83 time=0\n",
      "note_on channel=0 note=53 velocity=0 time=10\n",
      "control_change channel=0 control=64 value=63 time=6\n",
      "control_change channel=0 control=67 value=63 time=0\n",
      "note_on channel=0 note=41 velocity=58 time=5\n",
      "control_change channel=0 control=64 value=66 time=10\n",
      "control_change channel=0 control=67 value=39 time=0\n",
      "control_change channel=0 control=64 value=67 time=15\n",
      "control_change channel=0 control=67 value=8 time=0\n",
      "note_on channel=0 note=56 velocity=0 time=7\n",
      "control_change channel=0 control=64 value=69 time=8\n",
      "control_change channel=0 control=67 value=0 time=0\n",
      "control_change channel=0 control=64 value=72 time=15\n",
      "control_change channel=0 control=64 value=74 time=15\n",
      "note_on channel=0 note=65 velocity=0 time=8\n",
      "control_change channel=0 control=64 value=75 time=8\n",
      "control_change channel=0 control=64 value=76 time=15\n",
      "note_on channel=0 note=41 velocity=0 time=41\n",
      "note_on channel=0 note=43 velocity=66 time=18\n",
      "control_change channel=0 control=64 value=75 time=62\n",
      "control_change channel=0 control=64 value=75 time=30\n",
      "note_on channel=0 note=43 velocity=0 time=15\n",
      "control_change channel=0 control=64 value=74 time=16\n",
      "note_on channel=0 note=44 velocity=74 time=19\n",
      "control_change channel=0 control=64 value=74 time=12\n",
      "control_change channel=0 control=64 value=73 time=45\n",
      "control_change channel=0 control=64 value=73 time=15\n",
      "control_change channel=0 control=64 value=72 time=15\n",
      "control_change channel=0 control=64 value=71 time=16\n",
      "control_change channel=0 control=64 value=70 time=15\n",
      "note_on channel=0 note=44 velocity=0 time=11\n",
      "control_change channel=0 control=64 value=67 time=4\n",
      "control_change channel=0 control=64 value=65 time=15\n",
      "control_change channel=0 control=64 value=62 time=15\n",
      "note_on channel=0 note=43 velocity=65 time=3\n",
      "note_on channel=0 note=72 velocity=84 time=2\n",
      "control_change channel=0 control=64 value=60 time=11\n",
      "control_change channel=0 control=64 value=57 time=15\n",
      "control_change channel=0 control=64 value=56 time=14\n",
      "control_change channel=0 control=64 value=55 time=16\n",
      "control_change channel=0 control=64 value=53 time=15\n",
      "control_change channel=0 control=64 value=51 time=16\n",
      "control_change channel=0 control=64 value=49 time=14\n",
      "control_change channel=0 control=64 value=48 time=15\n",
      "control_change channel=0 control=64 value=47 time=16\n",
      "note_on channel=0 note=43 velocity=0 time=4\n",
      "control_change channel=0 control=64 value=47 time=19\n",
      "note_on channel=0 note=41 velocity=65 time=3\n",
      "control_change channel=0 control=64 value=46 time=13\n",
      "control_change channel=0 control=64 value=44 time=14\n",
      "control_change channel=0 control=64 value=44 time=15\n",
      "control_change channel=0 control=64 value=43 time=16\n",
      "control_change channel=0 control=64 value=42 time=15\n",
      "control_change channel=0 control=64 value=40 time=16\n",
      "control_change channel=0 control=64 value=38 time=14\n",
      "control_change channel=0 control=64 value=35 time=16\n",
      "note_on channel=0 note=41 velocity=0 time=1\n",
      "control_change channel=0 control=64 value=32 time=15\n",
      "control_change channel=0 control=64 value=27 time=15\n",
      "note_on channel=0 note=39 velocity=58 time=9\n",
      "control_change channel=0 control=64 value=18 time=7\n",
      "control_change channel=0 control=64 value=0 time=14\n",
      "note_on channel=0 note=39 velocity=0 time=83\n",
      "note_on channel=0 note=38 velocity=60 time=46\n",
      "note_on channel=0 note=38 velocity=0 time=99\n",
      "note_on channel=0 note=43 velocity=60 time=66\n",
      "note_on channel=0 note=50 velocity=62 time=0\n",
      "note_on channel=0 note=65 velocity=65 time=161\n",
      "note_on channel=0 note=67 velocity=72 time=162\n",
      "note_on channel=0 note=50 velocity=0 time=3\n",
      "note_on channel=0 note=65 velocity=0 time=21\n",
      "note_on channel=0 note=67 velocity=0 time=96\n",
      "note_on channel=0 note=68 velocity=67 time=38\n",
      "note_on channel=0 note=72 velocity=0 time=2\n",
      "note_on channel=0 note=72 velocity=23 time=0\n",
      "note_on channel=0 note=72 velocity=0 time=81\n",
      "note_on channel=0 note=68 velocity=0 time=29\n",
      "note_on channel=0 note=67 velocity=79 time=49\n",
      "note_on channel=0 note=55 velocity=65 time=2\n",
      "note_on channel=0 note=71 velocity=73 time=4\n",
      "note_on channel=0 note=67 velocity=0 time=125\n",
      "control_change channel=0 control=64 value=50 time=4\n",
      "control_change channel=0 control=64 value=60 time=15\n",
      "note_on channel=0 note=71 velocity=0 time=10\n",
      "control_change channel=0 control=64 value=64 time=5\n",
      "note_on channel=0 note=65 velocity=80 time=0\n",
      "control_change channel=0 control=64 value=66 time=16\n",
      "control_change channel=0 control=64 value=70 time=15\n",
      "control_change channel=0 control=64 value=74 time=16\n",
      "control_change channel=0 control=64 value=79 time=14\n",
      "control_change channel=0 control=64 value=82 time=15\n",
      "control_change channel=0 control=64 value=83 time=16\n",
      "control_change channel=0 control=64 value=84 time=15\n",
      "note_on channel=0 note=65 velocity=0 time=0\n",
      "control_change channel=0 control=64 value=85 time=15\n",
      "control_change channel=0 control=64 value=86 time=15\n",
      "control_change channel=0 control=64 value=88 time=15\n",
      "note_on channel=0 note=63 velocity=82 time=0\n",
      "control_change channel=0 control=64 value=89 time=16\n",
      "control_change channel=0 control=64 value=90 time=15\n",
      "control_change channel=0 control=64 value=91 time=15\n",
      "control_change channel=0 control=64 value=91 time=15\n",
      "control_change channel=0 control=64 value=92 time=15\n",
      "note_on channel=0 note=63 velocity=0 time=6\n",
      "control_change channel=0 control=64 value=92 time=17\n",
      "control_change channel=0 control=64 value=93 time=15\n",
      "control_change channel=0 control=64 value=93 time=15\n",
      "note_on channel=0 note=62 velocity=80 time=16\n",
      "note_on channel=0 note=62 velocity=0 time=46\n",
      "note_on channel=0 note=48 velocity=73 time=84\n",
      "control_change channel=0 control=64 value=93 time=53\n",
      "note_on channel=0 note=75 velocity=84 time=13\n",
      "control_change channel=0 control=64 value=92 time=3\n",
      "note_on channel=0 note=43 velocity=0 time=9\n",
      "control_change channel=0 control=64 value=90 time=6\n",
      "control_change channel=0 control=64 value=87 time=16\n",
      "control_change channel=0 control=64 value=84 time=15\n",
      "control_change channel=0 control=64 value=78 time=14\n",
      "control_change channel=0 control=64 value=72 time=16\n",
      "control_change channel=0 control=64 value=65 time=15\n",
      "control_change channel=0 control=64 value=34 time=15\n",
      "control_change channel=0 control=64 value=0 time=16\n",
      "note_on channel=0 note=67 velocity=67 time=25\n",
      "note_on channel=0 note=68 velocity=71 time=156\n",
      "note_on channel=0 note=67 velocity=0 time=24\n",
      "note_on channel=0 note=70 velocity=74 time=127\n",
      "note_on channel=0 note=68 velocity=0 time=13\n",
      "note_on channel=0 note=55 velocity=0 time=129\n",
      "note_on channel=0 note=51 velocity=70 time=16\n",
      "note_on channel=0 note=68 velocity=80 time=4\n",
      "note_on channel=0 note=48 velocity=0 time=5\n",
      "note_on channel=0 note=70 velocity=0 time=21\n",
      "control_change channel=0 control=64 value=52 time=18\n",
      "control_change channel=0 control=64 value=63 time=16\n",
      "control_change channel=0 control=64 value=66 time=15\n",
      "note_on channel=0 note=75 velocity=0 time=11\n",
      "control_change channel=0 control=64 value=69 time=3\n",
      "control_change channel=0 control=64 value=74 time=16\n",
      "note_on channel=0 note=68 velocity=0 time=3\n",
      "control_change channel=0 control=64 value=78 time=12\n",
      "control_change channel=0 control=64 value=81 time=16\n",
      "control_change channel=0 control=64 value=83 time=15\n",
      "note_on channel=0 note=67 velocity=82 time=0\n",
      "note_on channel=0 note=51 velocity=0 time=3\n",
      "control_change channel=0 control=64 value=84 time=12\n",
      "control_change channel=0 control=64 value=85 time=16\n",
      "control_change channel=0 control=64 value=85 time=15\n",
      "control_change channel=0 control=64 value=86 time=31\n",
      "note_on channel=0 note=67 velocity=0 time=9\n",
      "note_on channel=0 note=65 velocity=84 time=67\n",
      "note_on channel=0 note=65 velocity=0 time=61\n",
      "note_on channel=0 note=63 velocity=86 time=80\n",
      "note_on channel=0 note=63 velocity=0 time=63\n",
      "control_change channel=0 control=64 value=85 time=70\n",
      "control_change channel=0 control=64 value=85 time=29\n",
      "note_on channel=0 note=65 velocity=90 time=9\n",
      "control_change channel=0 control=64 value=84 time=7\n",
      "note_on channel=0 note=53 velocity=70 time=4\n",
      "control_change channel=0 control=64 value=83 time=10\n",
      "note_on channel=0 note=56 velocity=55 time=7\n",
      "control_change channel=0 control=64 value=82 time=9\n",
      "control_change channel=0 control=64 value=81 time=23\n",
      "control_change channel=0 control=64 value=78 time=15\n",
      "control_change channel=0 control=64 value=76 time=16\n",
      "control_change channel=0 control=64 value=72 time=14\n",
      "control_change channel=0 control=64 value=67 time=16\n",
      "control_change channel=0 control=64 value=57 time=15\n",
      "control_change channel=0 control=64 value=0 time=15\n",
      "note_on channel=0 note=75 velocity=76 time=13\n",
      "note_on channel=0 note=75 velocity=0 time=132\n",
      "note_on channel=0 note=77 velocity=83 time=15\n",
      "note_on channel=0 note=77 velocity=0 time=87\n",
      "note_on channel=0 note=79 velocity=84 time=57\n",
      "note_on channel=0 note=79 velocity=0 time=102\n",
      "note_on channel=0 note=77 velocity=89 time=48\n",
      "control_change channel=0 control=64 value=39 time=77\n",
      "control_change channel=0 control=64 value=56 time=15\n",
      "control_change channel=0 control=64 value=61 time=15\n",
      "control_change channel=0 control=64 value=63 time=16\n",
      "control_change channel=0 control=64 value=65 time=15\n",
      "note_on channel=0 note=75 velocity=84 time=11\n",
      "note_on channel=0 note=65 velocity=0 time=1\n",
      "control_change channel=0 control=64 value=67 time=3\n",
      "note_on channel=0 note=77 velocity=0 time=12\n",
      "control_change channel=0 control=64 value=69 time=3\n",
      "control_change channel=0 control=64 value=73 time=15\n",
      "control_change channel=0 control=64 value=75 time=16\n",
      "control_change channel=0 control=64 value=76 time=22\n",
      "control_change channel=0 control=64 value=77 time=16\n",
      "note_on channel=0 note=53 velocity=0 time=16\n",
      "note_on channel=0 note=56 velocity=0 time=32\n",
      "note_on channel=0 note=74 velocity=84 time=21\n",
      "note_on channel=0 note=75 velocity=0 time=4\n",
      "note_on channel=0 note=74 velocity=0 time=85\n",
      "note_on channel=0 note=72 velocity=80 time=45\n",
      "control_change channel=0 control=64 value=76 time=86\n",
      "control_change channel=0 control=64 value=75 time=30\n",
      "control_change channel=0 control=64 value=73 time=15\n",
      "control_change channel=0 control=64 value=66 time=15\n",
      "note_on channel=0 note=72 velocity=0 time=8\n",
      "control_change channel=0 control=64 value=28 time=9\n",
      "note_on channel=0 note=55 velocity=40 time=9\n",
      "control_change channel=0 control=64 value=0 time=6\n",
      "note_on channel=0 note=62 velocity=46 time=5\n",
      "note_on channel=0 note=71 velocity=75 time=3\n",
      "control_change channel=0 control=64 value=54 time=68\n",
      "control_change channel=0 control=64 value=64 time=14\n",
      "control_change channel=0 control=64 value=67 time=16\n",
      "note_on channel=0 note=71 velocity=0 time=13\n",
      "control_change channel=0 control=64 value=71 time=2\n",
      "control_change channel=0 control=64 value=75 time=16\n",
      "control_change channel=0 control=64 value=79 time=15\n",
      "note_on channel=0 note=77 velocity=81 time=6\n",
      "control_change channel=0 control=64 value=80 time=8\n",
      "note_on channel=0 note=62 velocity=0 time=1\n",
      "control_change channel=0 control=64 value=81 time=15\n",
      "control_change channel=0 control=64 value=82 time=15\n",
      "control_change channel=0 control=64 value=82 time=14\n",
      "note_on channel=0 note=55 velocity=0 time=20\n",
      "control_change channel=0 control=64 value=83 time=11\n",
      "note_on channel=0 note=79 velocity=87 time=61\n",
      "note_on channel=0 note=77 velocity=0 time=28\n",
      "note_on channel=0 note=80 velocity=90 time=127\n",
      "note_on channel=0 note=79 velocity=0 time=15\n",
      "control_change channel=0 control=64 value=82 time=66\n",
      "note_on channel=0 note=51 velocity=45 time=29\n",
      "control_change channel=0 control=64 value=82 time=1\n",
      "note_on channel=0 note=60 velocity=49 time=9\n",
      "control_change channel=0 control=64 value=81 time=7\n",
      "note_on channel=0 note=63 velocity=54 time=8\n",
      "note_on channel=0 note=80 velocity=0 time=0\n",
      "control_change channel=0 control=64 value=81 time=7\n",
      "control_change channel=0 control=64 value=79 time=16\n",
      "note_on channel=0 note=79 velocity=85 time=8\n",
      "control_change channel=0 control=64 value=77 time=6\n",
      "control_change channel=0 control=64 value=72 time=15\n",
      "control_change channel=0 control=64 value=67 time=16\n",
      "control_change channel=0 control=64 value=58 time=15\n",
      "control_change channel=0 control=64 value=0 time=15\n",
      "note_on channel=0 note=77 velocity=79 time=79\n",
      "note_on channel=0 note=79 velocity=0 time=25\n",
      "note_on channel=0 note=75 velocity=75 time=119\n",
      "note_on channel=0 note=77 velocity=0 time=18\n",
      "note_on channel=0 note=75 velocity=0 time=73\n",
      "note_on channel=0 note=74 velocity=71 time=39\n",
      "note_on channel=0 note=74 velocity=0 time=117\n",
      "note_on channel=0 note=60 velocity=0 time=31\n",
      "note_on channel=0 note=51 velocity=0 time=3\n",
      "note_on channel=0 note=72 velocity=75 time=11\n",
      "note_on channel=0 note=56 velocity=41 time=3\n",
      "control_change channel=0 control=64 value=31 time=83\n",
      "control_change channel=0 control=64 value=44 time=16\n",
      "control_change channel=0 control=64 value=50 time=15\n",
      "control_change channel=0 control=64 value=55 time=15\n",
      "control_change channel=0 control=64 value=57 time=15\n",
      "note_on channel=0 note=71 velocity=72 time=4\n",
      "control_change channel=0 control=64 value=59 time=11\n",
      "control_change channel=0 control=64 value=61 time=16\n",
      "control_change channel=0 control=64 value=62 time=14\n",
      "control_change channel=0 control=64 value=62 time=16\n",
      "control_change channel=0 control=64 value=63 time=15\n",
      "note_on channel=0 note=72 velocity=0 time=1\n",
      "control_change channel=0 control=64 value=62 time=30\n",
      "control_change channel=0 control=64 value=62 time=14\n",
      "note_on channel=0 note=56 velocity=0 time=4\n",
      "control_change channel=0 control=64 value=60 time=11\n",
      "control_change channel=0 control=64 value=54 time=16\n",
      "note_on channel=0 note=71 velocity=0 time=4\n",
      "control_change channel=0 control=64 value=0 time=11\n",
      "note_on channel=0 note=63 velocity=0 time=4\n",
      "note_on channel=0 note=53 velocity=40 time=6\n",
      "note_on channel=0 note=68 velocity=68 time=11\n",
      "note_on channel=0 note=72 velocity=65 time=5\n",
      "control_change channel=0 control=64 value=46 time=82\n",
      "control_change channel=0 control=64 value=57 time=14\n",
      "control_change channel=0 control=64 value=61 time=16\n",
      "control_change channel=0 control=64 value=63 time=15\n",
      "control_change channel=0 control=64 value=64 time=15\n",
      "note_on channel=0 note=68 velocity=0 time=6\n",
      "control_change channel=0 control=64 value=65 time=9\n",
      "note_on channel=0 note=72 velocity=0 time=5\n",
      "note_on channel=0 note=74 velocity=66 time=9\n",
      "control_change channel=0 control=64 value=66 time=1\n",
      "control_change channel=0 control=64 value=67 time=16\n",
      "control_change channel=0 control=64 value=69 time=15\n",
      "control_change channel=0 control=64 value=70 time=15\n",
      "control_change channel=0 control=64 value=71 time=15\n",
      "note_on channel=0 note=74 velocity=0 time=21\n",
      "control_change channel=0 control=64 value=70 time=56\n",
      "control_change channel=0 control=64 value=69 time=15\n",
      "control_change channel=0 control=64 value=65 time=15\n",
      "control_change channel=0 control=64 value=57 time=22\n",
      "note_on channel=0 note=53 velocity=0 time=0\n",
      "note_on channel=0 note=67 velocity=59 time=3\n",
      "note_on channel=0 note=74 velocity=55 time=1\n",
      "note_on channel=0 note=55 velocity=42 time=5\n",
      "control_change channel=0 control=64 value=0 time=6\n",
      "control_change channel=0 control=64 value=27 time=183\n",
      "control_change channel=0 control=64 value=45 time=15\n",
      "control_change channel=0 control=64 value=51 time=16\n",
      "control_change channel=0 control=64 value=56 time=15\n",
      "control_change channel=0 control=64 value=59 time=15\n",
      "control_change channel=0 control=64 value=62 time=15\n",
      "note_on channel=0 note=67 velocity=0 time=1\n",
      "control_change channel=0 control=64 value=63 time=14\n",
      "note_on channel=0 note=55 velocity=0 time=6\n",
      "control_change channel=0 control=64 value=64 time=9\n",
      "note_on channel=0 note=59 velocity=46 time=11\n",
      "control_change channel=0 control=64 value=65 time=5\n",
      "note_on channel=0 note=65 velocity=52 time=5\n",
      "control_change channel=0 control=64 value=66 time=9\n",
      "control_change channel=0 control=64 value=68 time=16\n",
      "control_change channel=0 control=64 value=69 time=15\n",
      "control_change channel=0 control=64 value=70 time=15\n",
      "control_change channel=0 control=64 value=72 time=16\n",
      "control_change channel=0 control=64 value=73 time=14\n",
      "control_change channel=0 control=64 value=74 time=16\n",
      "note_on channel=0 note=65 velocity=0 time=1\n",
      "note_on channel=0 note=74 velocity=0 time=5\n",
      "note_on channel=0 note=72 velocity=69 time=31\n",
      "note_on channel=0 note=72 velocity=0 time=80\n",
      "control_change channel=0 control=64 value=73 time=20\n",
      "note_on channel=0 note=59 velocity=0 time=11\n",
      "control_change channel=0 control=64 value=73 time=20\n",
      "control_change channel=0 control=64 value=71 time=15\n",
      "control_change channel=0 control=64 value=69 time=15\n",
      "note_on channel=0 note=60 velocity=45 time=10\n",
      "note_on channel=0 note=72 velocity=59 time=3\n",
      "control_change channel=0 control=64 value=66 time=2\n",
      "note_on channel=0 note=63 velocity=55 time=6\n",
      "control_change channel=0 control=64 value=60 time=9\n",
      "control_change channel=0 control=64 value=51 time=16\n",
      "control_change channel=0 control=64 value=43 time=15\n",
      "control_change channel=0 control=64 value=39 time=15\n",
      "control_change channel=0 control=64 value=37 time=15\n",
      "control_change channel=0 control=64 value=34 time=15\n",
      "control_change channel=0 control=64 value=29 time=16\n",
      "control_change channel=0 control=64 value=23 time=22\n",
      "control_change channel=0 control=64 value=15 time=15\n",
      "note_on channel=0 note=60 velocity=0 time=4\n",
      "control_change channel=0 control=64 value=0 time=12\n",
      "note_on channel=0 note=48 velocity=52 time=5\n",
      "note_on channel=0 note=48 velocity=0 time=134\n",
      "note_on channel=0 note=49 velocity=57 time=27\n",
      "note_on channel=0 note=49 velocity=0 time=110\n",
      "note_on channel=0 note=51 velocity=59 time=44\n",
      "note_on channel=0 note=51 velocity=0 time=113\n",
      "note_on channel=0 note=68 velocity=74 time=37\n",
      "note_on channel=0 note=49 velocity=51 time=11\n",
      "note_on channel=0 note=63 velocity=0 time=9\n",
      "note_on channel=0 note=49 velocity=0 time=98\n",
      "note_on channel=0 note=48 velocity=49 time=56\n",
      "note_on channel=0 note=48 velocity=0 time=94\n",
      "note_on channel=0 note=46 velocity=48 time=68\n",
      "control_change channel=0 control=64 value=29 time=22\n",
      "control_change channel=0 control=64 value=44 time=15\n",
      "control_change channel=0 control=64 value=53 time=15\n",
      "control_change channel=0 control=64 value=58 time=16\n",
      "control_change channel=0 control=64 value=62 time=14\n",
      "note_on channel=0 note=46 velocity=0 time=0\n",
      "control_change channel=0 control=64 value=64 time=15\n",
      "control_change channel=0 control=64 value=66 time=16\n",
      "control_change channel=0 control=64 value=68 time=15\n",
      "control_change channel=0 control=64 value=71 time=16\n",
      "control_change channel=0 control=64 value=74 time=15\n",
      "note_on channel=0 note=44 velocity=53 time=2\n",
      "control_change channel=0 control=64 value=77 time=13\n",
      "control_change channel=0 control=64 value=78 time=16\n",
      "note_on channel=0 note=44 velocity=0 time=10\n",
      "control_change channel=0 control=64 value=77 time=110\n",
      "control_change channel=0 control=64 value=77 time=15\n",
      "control_change channel=0 control=64 value=75 time=14\n",
      "control_change channel=0 control=64 value=73 time=16\n",
      "note_on channel=0 note=51 velocity=53 time=0\n",
      "note_on channel=0 note=58 velocity=60 time=1\n",
      "control_change channel=0 control=64 value=70 time=14\n",
      "control_change channel=0 control=64 value=66 time=15\n",
      "control_change channel=0 control=64 value=63 time=16\n",
      "control_change channel=0 control=64 value=57 time=14\n",
      "control_change channel=0 control=64 value=52 time=16\n",
      "control_change channel=0 control=64 value=50 time=15\n",
      "control_change channel=0 control=64 value=50 time=15\n",
      "control_change channel=0 control=64 value=49 time=16\n",
      "control_change channel=0 control=64 value=47 time=14\n",
      "note_on channel=0 note=70 velocity=64 time=11\n",
      "control_change channel=0 control=64 value=42 time=4\n",
      "note_on channel=0 note=72 velocity=0 time=11\n",
      "control_change channel=0 control=64 value=36 time=5\n",
      "note_on channel=0 note=68 velocity=0 time=13\n",
      "control_change channel=0 control=64 value=29 time=1\n",
      "control_change channel=0 control=64 value=21 time=16\n",
      "control_change channel=0 control=64 value=13 time=17\n",
      "control_change channel=0 control=64 value=0 time=14\n",
      "note_on channel=0 note=70 velocity=0 time=82\n",
      "note_on channel=0 note=72 velocity=68 time=5\n",
      "note_on channel=0 note=72 velocity=0 time=148\n",
      "note_on channel=0 note=73 velocity=62 time=6\n",
      "note_on channel=0 note=73 velocity=0 time=140\n",
      "note_on channel=0 note=63 velocity=60 time=7\n",
      "note_on channel=0 note=67 velocity=61 time=8\n",
      "note_on channel=0 note=72 velocity=53 time=12\n",
      "note_on channel=0 note=70 velocity=60 time=162\n",
      "note_on channel=0 note=67 velocity=0 time=11\n",
      "note_on channel=0 note=72 velocity=0 time=10\n",
      "control_change channel=0 control=64 value=17 time=116\n",
      "control_change channel=0 control=64 value=37 time=15\n",
      "note_on channel=0 note=68 velocity=66 time=6\n",
      "control_change channel=0 control=64 value=47 time=10\n",
      "note_on channel=0 note=70 velocity=0 time=6\n",
      "control_change channel=0 control=64 value=54 time=8\n",
      "control_change channel=0 control=64 value=58 time=16\n",
      "control_change channel=0 control=64 value=60 time=15\n",
      "control_change channel=0 control=64 value=62 time=16\n",
      "control_change channel=0 control=64 value=63 time=15\n",
      "control_change channel=0 control=64 value=64 time=15\n",
      "control_change channel=0 control=64 value=65 time=16\n",
      "control_change channel=0 control=64 value=66 time=15\n",
      "control_change channel=0 control=64 value=66 time=22\n",
      "note_on channel=0 note=67 velocity=67 time=3\n",
      "control_change channel=0 control=64 value=67 time=13\n",
      "control_change channel=0 control=64 value=67 time=30\n",
      "note_on channel=0 note=67 velocity=0 time=52\n",
      "control_change channel=0 control=64 value=67 time=25\n",
      "control_change channel=0 control=64 value=66 time=15\n",
      "control_change channel=0 control=64 value=65 time=14\n",
      "note_on channel=0 note=68 velocity=0 time=12\n",
      "control_change channel=0 control=64 value=61 time=4\n",
      "control_change channel=0 control=64 value=48 time=15\n",
      "note_on channel=0 note=72 velocity=71 time=6\n",
      "note_on channel=0 note=65 velocity=64 time=7\n",
      "control_change channel=0 control=64 value=29 time=2\n",
      "note_on channel=0 note=51 velocity=0 time=2\n",
      "note_on channel=0 note=56 velocity=43 time=1\n",
      "control_change channel=0 control=64 value=0 time=13\n",
      "note_on channel=0 note=58 velocity=0 time=27\n",
      "control_change channel=0 control=64 value=31 time=63\n",
      "control_change channel=0 control=64 value=47 time=15\n",
      "control_change channel=0 control=64 value=56 time=16\n",
      "control_change channel=0 control=64 value=60 time=14\n",
      "control_change channel=0 control=64 value=62 time=16\n",
      "control_change channel=0 control=64 value=64 time=15\n",
      "control_change channel=0 control=64 value=64 time=15\n",
      "note_on channel=0 note=65 velocity=0 time=15\n",
      "control_change channel=0 control=64 value=65 time=1\n",
      "control_change channel=0 control=64 value=66 time=14\n",
      "control_change channel=0 control=64 value=66 time=15\n",
      "control_change channel=0 control=64 value=67 time=16\n",
      "note_on channel=0 note=67 velocity=76 time=55\n",
      "control_change channel=0 control=64 value=66 time=67\n",
      "note_on channel=0 note=63 velocity=0 time=67\n",
      "control_change channel=0 control=64 value=66 time=9\n",
      "note_on channel=0 note=68 velocity=78 time=0\n",
      "note_on channel=0 note=67 velocity=0 time=15\n",
      "control_change channel=0 control=64 value=65 time=30\n",
      "control_change channel=0 control=64 value=65 time=15\n",
      "control_change channel=0 control=64 value=64 time=17\n",
      "control_change channel=0 control=64 value=64 time=15\n",
      "note_on channel=0 note=72 velocity=0 time=22\n",
      "control_change channel=0 control=64 value=62 time=1\n",
      "control_change channel=0 control=64 value=60 time=15\n",
      "control_change channel=0 control=64 value=58 time=14\n",
      "control_change channel=0 control=64 value=56 time=16\n",
      "note_on channel=0 note=62 velocity=48 time=3\n",
      "note_on channel=0 note=70 velocity=80 time=2\n",
      "note_on channel=0 note=68 velocity=0 time=8\n",
      "control_change channel=0 control=64 value=53 time=2\n",
      "control_change channel=0 control=64 value=50 time=16\n",
      "control_change channel=0 control=64 value=47 time=15\n",
      "control_change channel=0 control=64 value=46 time=14\n",
      "control_change channel=0 control=64 value=44 time=16\n",
      "control_change channel=0 control=64 value=42 time=15\n",
      "control_change channel=0 control=64 value=40 time=15\n",
      "control_change channel=0 control=64 value=39 time=16\n",
      "control_change channel=0 control=64 value=38 time=14\n",
      "control_change channel=0 control=64 value=37 time=16\n",
      "note_on channel=0 note=68 velocity=69 time=9\n",
      "control_change channel=0 control=64 value=37 time=21\n",
      "control_change channel=0 control=64 value=36 time=31\n",
      "note_on channel=0 note=68 velocity=0 time=42\n",
      "control_change channel=0 control=64 value=36 time=19\n",
      "note_on channel=0 note=67 velocity=58 time=45\n",
      "control_change channel=0 control=64 value=35 time=15\n",
      "control_change channel=0 control=64 value=34 time=76\n",
      "note_on channel=0 note=67 velocity=0 time=27\n",
      "control_change channel=0 control=64 value=34 time=18\n",
      "note_on channel=0 note=65 velocity=57 time=11\n",
      "note_on channel=0 note=65 velocity=0 time=130\n",
      "note_on channel=0 note=62 velocity=0 time=7\n",
      "note_on channel=0 note=56 velocity=0 time=19\n",
      "note_on channel=0 note=67 velocity=54 time=10\n",
      "note_on channel=0 note=63 velocity=57 time=5\n",
      "note_on channel=0 note=55 velocity=31 time=17\n",
      "control_change channel=0 control=64 value=33 time=67\n",
      "note_on channel=0 note=62 velocity=50 time=96\n",
      "note_on channel=0 note=62 velocity=0 time=71\n",
      "control_change channel=0 control=64 value=34 time=62\n",
      "note_on channel=0 note=60 velocity=50 time=21\n",
      "note_on channel=0 note=63 velocity=0 time=19\n",
      "note_on channel=0 note=67 velocity=0 time=8\n",
      "note_on channel=0 note=60 velocity=0 time=93\n",
      "note_on channel=0 note=55 velocity=0 time=35\n",
      "note_on channel=0 note=58 velocity=49 time=4\n",
      "control_change channel=0 control=64 value=34 time=63\n",
      "control_change channel=0 control=64 value=35 time=30\n",
      "control_change channel=0 control=64 value=36 time=15\n",
      "control_change channel=0 control=64 value=38 time=15\n",
      "control_change channel=0 control=64 value=42 time=16\n",
      "control_change channel=0 control=64 value=47 time=15\n",
      "control_change channel=0 control=64 value=52 time=14\n",
      "note_on channel=0 note=75 velocity=67 time=3\n",
      "control_change channel=0 control=64 value=56 time=13\n",
      "control_change channel=0 control=64 value=59 time=15\n",
      "control_change channel=0 control=64 value=61 time=15\n",
      "control_change channel=0 control=64 value=63 time=16\n",
      "control_change channel=0 control=64 value=64 time=15\n",
      "control_change channel=0 control=64 value=65 time=16\n",
      "note_on channel=0 note=58 velocity=0 time=5\n",
      "control_change channel=0 control=64 value=66 time=10\n",
      "control_change channel=0 control=64 value=67 time=14\n",
      "control_change channel=0 control=64 value=68 time=16\n",
      "control_change channel=0 control=64 value=69 time=15\n",
      "note_on channel=0 note=75 velocity=0 time=0\n",
      "note_on channel=0 note=53 velocity=39 time=7\n",
      "control_change channel=0 control=64 value=69 time=8\n",
      "control_change channel=0 control=64 value=70 time=23\n",
      "control_change channel=0 control=64 value=69 time=61\n",
      "note_on channel=0 note=53 velocity=0 time=9\n",
      "control_change channel=0 control=64 value=68 time=7\n",
      "control_change channel=0 control=64 value=64 time=15\n",
      "control_change channel=0 control=64 value=55 time=15\n",
      "note_on channel=0 note=75 velocity=71 time=14\n",
      "control_change channel=0 control=64 value=25 time=1\n",
      "note_on channel=0 note=55 velocity=39 time=3\n",
      "control_change channel=0 control=64 value=0 time=12\n",
      "control_change channel=0 control=64 value=41 time=46\n",
      "control_change channel=0 control=64 value=55 time=16\n",
      "control_change channel=0 control=64 value=62 time=15\n",
      "control_change channel=0 control=64 value=65 time=16\n",
      "note_on channel=0 note=55 velocity=0 time=14\n",
      "control_change channel=0 control=64 value=67 time=1\n",
      "control_change channel=0 control=64 value=70 time=15\n",
      "note_on channel=0 note=56 velocity=54 time=9\n",
      "control_change channel=0 control=64 value=73 time=6\n",
      "control_change channel=0 control=64 value=75 time=15\n",
      "control_change channel=0 control=64 value=77 time=15\n",
      "note_on channel=0 note=56 velocity=0 time=3\n",
      "control_change channel=0 control=64 value=77 time=12\n",
      "note_on channel=0 note=75 velocity=0 time=49\n",
      "control_change channel=0 control=64 value=76 time=42\n",
      "control_change channel=0 control=64 value=74 time=16\n",
      "control_change channel=0 control=64 value=70 time=15\n",
      "note_on channel=0 note=75 velocity=72 time=9\n",
      "note_on channel=0 note=58 velocity=49 time=5\n",
      "control_change channel=0 control=64 value=64 time=1\n",
      "note_on channel=0 note=65 velocity=51 time=4\n",
      "control_change channel=0 control=64 value=53 time=12\n",
      "control_change channel=0 control=64 value=24 time=15\n",
      "control_change channel=0 control=64 value=0 time=15\n",
      "control_change channel=0 control=64 value=10 time=15\n",
      "control_change channel=0 control=64 value=20 time=15\n",
      "control_change channel=0 control=64 value=21 time=16\n",
      "note_on channel=0 note=58 velocity=0 time=47\n",
      "note_on channel=0 note=56 velocity=46 time=26\n",
      "note_on channel=0 note=56 velocity=0 time=153\n",
      "note_on channel=0 note=58 velocity=39 time=24\n",
      "note_on channel=0 note=65 velocity=0 time=115\n",
      "note_on channel=0 note=58 velocity=0 time=35\n",
      "note_on channel=0 note=60 velocity=40 time=23\n",
      "control_change channel=0 control=64 value=25 time=147\n",
      "note_on channel=0 note=75 velocity=0 time=2\n",
      "note_on channel=0 note=60 velocity=0 time=9\n",
      "control_change channel=0 control=64 value=29 time=4\n",
      "note_on channel=0 note=74 velocity=56 time=10\n",
      "note_on channel=0 note=58 velocity=43 time=3\n",
      "control_change channel=0 control=64 value=34 time=2\n",
      "control_change channel=0 control=64 value=39 time=15\n",
      "control_change channel=0 control=64 value=44 time=16\n",
      "control_change channel=0 control=64 value=48 time=15\n",
      "control_change channel=0 control=64 value=52 time=15\n",
      "control_change channel=0 control=64 value=55 time=15\n",
      "control_change channel=0 control=64 value=57 time=15\n",
      "control_change channel=0 control=64 value=59 time=15\n",
      "control_change channel=0 control=64 value=61 time=16\n",
      "note_on channel=0 note=58 velocity=0 time=10\n",
      "control_change channel=0 control=64 value=63 time=5\n",
      "control_change channel=0 control=64 value=64 time=16\n",
      "note_on channel=0 note=56 velocity=51 time=12\n",
      "control_change channel=0 control=64 value=64 time=3\n",
      "control_change channel=0 control=64 value=65 time=15\n",
      "control_change channel=0 control=64 value=65 time=15\n",
      "control_change channel=0 control=64 value=66 time=15\n",
      "control_change channel=0 control=64 value=66 time=61\n",
      "note_on channel=0 note=56 velocity=0 time=13\n",
      "note_on channel=0 note=74 velocity=0 time=18\n",
      "note_on channel=0 note=55 velocity=59 time=15\n",
      "control_change channel=0 control=64 value=66 time=114\n",
      "note_on channel=0 note=55 velocity=0 time=27\n",
      "control_change channel=0 control=64 value=65 time=19\n",
      "note_on channel=0 note=53 velocity=61 time=10\n",
      "control_change channel=0 control=64 value=65 time=35\n",
      "control_change channel=0 control=64 value=64 time=14\n",
      "control_change channel=0 control=64 value=64 time=47\n",
      "control_change channel=0 control=64 value=63 time=16\n",
      "control_change channel=0 control=64 value=63 time=15\n",
      "note_on channel=0 note=53 velocity=0 time=6\n",
      "control_change channel=0 control=64 value=62 time=10\n",
      "control_change channel=0 control=64 value=61 time=14\n",
      "note_on channel=0 note=79 velocity=74 time=4\n",
      "control_change channel=0 control=64 value=60 time=11\n",
      "note_on channel=0 note=52 velocity=57 time=0\n",
      "control_change channel=0 control=64 value=59 time=16\n",
      "control_change channel=0 control=64 value=58 time=15\n",
      "control_change channel=0 control=64 value=57 time=15\n",
      "control_change channel=0 control=64 value=56 time=15\n",
      "control_change channel=0 control=64 value=55 time=15\n",
      "control_change channel=0 control=64 value=54 time=16\n",
      "control_change channel=0 control=64 value=53 time=14\n",
      "control_change channel=0 control=64 value=52 time=15\n",
      "control_change channel=0 control=64 value=51 time=16\n",
      "control_change channel=0 control=64 value=51 time=15\n",
      "note_on channel=0 note=58 velocity=64 time=1\n",
      "control_change channel=0 control=64 value=50 time=14\n",
      "control_change channel=0 control=64 value=49 time=15\n",
      "control_change channel=0 control=64 value=48 time=15\n",
      "control_change channel=0 control=64 value=47 time=16\n",
      "control_change channel=0 control=64 value=47 time=15\n",
      "control_change channel=0 control=64 value=46 time=30\n",
      "control_change channel=0 control=64 value=46 time=15\n",
      "note_on channel=0 note=58 velocity=0 time=7\n",
      "note_on channel=0 note=60 velocity=63 time=21\n",
      "control_change channel=0 control=64 value=45 time=3\n",
      "control_change channel=0 control=64 value=44 time=15\n",
      "control_change channel=0 control=64 value=44 time=61\n",
      "note_on channel=0 note=60 velocity=0 time=55\n",
      "note_on channel=0 note=61 velocity=63 time=28\n",
      "note_on channel=0 note=61 velocity=0 time=153\n",
      "note_on channel=0 note=60 velocity=64 time=12\n",
      "note_on channel=0 note=60 velocity=0 time=137\n",
      "note_on channel=0 note=58 velocity=61 time=19\n",
      "note_on channel=0 note=58 velocity=0 time=140\n",
      "note_on channel=0 note=56 velocity=60 time=26\n",
      "control_change channel=0 control=64 value=44 time=91\n",
      "note_on channel=0 note=56 velocity=0 time=21\n",
      "note_on channel=0 note=55 velocity=57 time=49\n",
      "control_change channel=0 control=64 value=43 time=37\n",
      "note_on channel=0 note=52 velocity=0 time=0\n",
      "control_change channel=0 control=64 value=42 time=14\n",
      "control_change channel=0 control=64 value=39 time=16\n",
      "control_change channel=0 control=64 value=32 time=15\n",
      "control_change channel=0 control=64 value=0 time=16\n",
      "note_on channel=0 note=55 velocity=0 time=68\n",
      "note_on channel=0 note=60 velocity=70 time=5\n",
      "note_on channel=0 note=56 velocity=56 time=11\n",
      "note_on channel=0 note=79 velocity=0 time=19\n",
      "note_on channel=0 note=70 velocity=0 time=18\n",
      "note_on channel=0 note=70 velocity=67 time=100\n",
      "note_on channel=0 note=70 velocity=0 time=82\n",
      "note_on channel=0 note=72 velocity=69 time=66\n",
      "note_on channel=0 note=72 velocity=0 time=89\n",
      "note_on channel=0 note=73 velocity=70 time=62\n",
      "note_on channel=0 note=73 velocity=0 time=111\n",
      "note_on channel=0 note=77 velocity=79 time=57\n",
      "note_on channel=0 note=72 velocity=75 time=6\n",
      "control_change channel=0 control=64 value=47 time=44\n",
      "control_change channel=0 control=64 value=63 time=15\n",
      "control_change channel=0 control=64 value=68 time=16\n",
      "note_on channel=0 note=72 velocity=0 time=12\n",
      "control_change channel=0 control=64 value=72 time=2\n",
      "control_change channel=0 control=64 value=77 time=15\n",
      "control_change channel=0 control=64 value=80 time=24\n",
      "control_change channel=0 control=64 value=82 time=15\n",
      "control_change channel=0 control=64 value=84 time=16\n",
      "note_on channel=0 note=70 velocity=59 time=1\n",
      "control_change channel=0 control=64 value=85 time=13\n",
      "control_change channel=0 control=64 value=86 time=16\n",
      "control_change channel=0 control=64 value=87 time=15\n",
      "control_change channel=0 control=64 value=87 time=15\n",
      "control_change channel=0 control=64 value=88 time=15\n",
      "control_change channel=0 control=64 value=89 time=15\n",
      "note_on channel=0 note=70 velocity=0 time=4\n",
      "control_change channel=0 control=64 value=89 time=11\n",
      "note_on channel=0 note=77 velocity=0 time=36\n",
      "control_change channel=0 control=64 value=90 time=10\n",
      "note_on channel=0 note=68 velocity=57 time=14\n",
      "note_on channel=0 note=68 velocity=0 time=88\n",
      "note_on channel=0 note=67 velocity=60 time=58\n",
      "note_on channel=0 note=67 velocity=0 time=76\n",
      "control_change channel=0 control=64 value=89 time=53\n",
      "control_change channel=0 control=64 value=86 time=15\n",
      "note_on channel=0 note=60 velocity=0 time=6\n",
      "note_on channel=0 note=56 velocity=0 time=2\n",
      "control_change channel=0 control=64 value=81 time=8\n",
      "note_on channel=0 note=71 velocity=68 time=4\n",
      "note_on channel=0 note=65 velocity=69 time=5\n",
      "control_change channel=0 control=64 value=72 time=6\n",
      "note_on channel=0 note=62 velocity=53 time=1\n",
      "control_change channel=0 control=64 value=62 time=13\n",
      "control_change channel=0 control=64 value=0 time=16\n",
      "control_change channel=0 control=64 value=47 time=122\n",
      "note_on channel=0 note=62 velocity=0 time=1\n",
      "note_on channel=0 note=53 velocity=57 time=5\n",
      "control_change channel=0 control=64 value=62 time=8\n",
      "control_change channel=0 control=64 value=66 time=16\n",
      "control_change channel=0 control=64 value=68 time=15\n",
      "control_change channel=0 control=64 value=71 time=14\n",
      "control_change channel=0 control=64 value=74 time=16\n",
      "control_change channel=0 control=64 value=77 time=23\n",
      "control_change channel=0 control=64 value=78 time=16\n",
      "note_on channel=0 note=65 velocity=0 time=11\n",
      "control_change channel=0 control=64 value=79 time=4\n",
      "note_on channel=0 note=53 velocity=0 time=12\n",
      "control_change channel=0 control=64 value=80 time=33\n",
      "note_on channel=0 note=55 velocity=63 time=9\n",
      "note_on channel=0 note=71 velocity=0 time=22\n",
      "note_on channel=0 note=55 velocity=0 time=110\n",
      "note_on channel=0 note=56 velocity=71 time=18\n",
      "control_change channel=0 control=64 value=79 time=85\n",
      "control_change channel=0 control=64 value=76 time=16\n",
      "control_change channel=0 control=64 value=69 time=15\n",
      "control_change channel=0 control=64 value=48 time=16\n",
      "note_on channel=0 note=56 velocity=0 time=0\n",
      "note_on channel=0 note=67 velocity=73 time=11\n",
      "note_on channel=0 note=72 velocity=80 time=1\n",
      "control_change channel=0 control=64 value=0 time=3\n",
      "note_on channel=0 note=63 velocity=76 time=1\n",
      "note_on channel=0 note=55 velocity=67 time=2\n",
      "control_change channel=0 control=64 value=55 time=59\n",
      "control_change channel=0 control=64 value=65 time=14\n",
      "control_change channel=0 control=64 value=69 time=15\n",
      "control_change channel=0 control=64 value=74 time=16\n",
      "note_on channel=0 note=63 velocity=0 time=8\n",
      "control_change channel=0 control=64 value=79 time=7\n",
      "control_change channel=0 control=64 value=82 time=15\n",
      "note_on channel=0 note=72 velocity=0 time=12\n",
      "control_change channel=0 control=64 value=84 time=4\n",
      "note_on channel=0 note=53 velocity=78 time=2\n",
      "note_on channel=0 note=55 velocity=0 time=4\n",
      "control_change channel=0 control=64 value=86 time=9\n",
      "control_change channel=0 control=64 value=87 time=15\n",
      "control_change channel=0 control=64 value=89 time=15\n",
      "control_change channel=0 control=64 value=90 time=15\n",
      "control_change channel=0 control=64 value=87 time=45\n",
      "control_change channel=0 control=64 value=80 time=16\n",
      "control_change channel=0 control=64 value=67 time=15\n",
      "control_change channel=0 control=64 value=0 time=15\n",
      "note_on channel=0 note=71 velocity=78 time=5\n",
      "note_on channel=0 note=74 velocity=78 time=2\n",
      "note_on channel=0 note=65 velocity=85 time=1\n",
      "note_on channel=0 note=51 velocity=76 time=3\n",
      "note_on channel=0 note=53 velocity=0 time=8\n",
      "note_on channel=0 note=67 velocity=0 time=34\n",
      "control_change channel=0 control=64 value=61 time=31\n",
      "control_change channel=0 control=64 value=67 time=15\n",
      "note_on channel=0 note=74 velocity=0 time=12\n",
      "control_change channel=0 control=64 value=74 time=3\n",
      "note_on channel=0 note=51 velocity=0 time=8\n",
      "control_change channel=0 control=64 value=81 time=8\n",
      "control_change channel=0 control=64 value=87 time=14\n",
      "control_change channel=0 control=64 value=91 time=16\n",
      "note_on channel=0 note=50 velocity=75 time=3\n",
      "control_change channel=0 control=64 value=94 time=12\n",
      "control_change channel=0 control=64 value=97 time=15\n",
      "note_on channel=0 note=65 velocity=0 time=1\n",
      "control_change channel=0 control=64 value=100 time=15\n",
      "control_change channel=0 control=64 value=103 time=14\n",
      "control_change channel=0 control=64 value=107 time=15\n",
      "control_change channel=0 control=64 value=109 time=16\n",
      "control_change channel=0 control=64 value=105 time=45\n",
      "note_on channel=0 note=71 velocity=0 time=1\n",
      "control_change channel=0 control=64 value=95 time=14\n",
      "note_on channel=0 note=50 velocity=0 time=4\n",
      "control_change channel=0 control=64 value=78 time=12\n",
      "note_on channel=0 note=75 velocity=91 time=7\n",
      "note_on channel=0 note=72 velocity=81 time=4\n",
      "note_on channel=0 note=48 velocity=69 time=2\n",
      "note_on channel=0 note=67 velocity=81 time=0\n",
      "control_change channel=0 control=64 value=58 time=1\n",
      "control_change channel=0 control=64 value=0 time=15\n",
      "control_change channel=0 control=64 value=57 time=61\n",
      "control_change channel=0 control=64 value=68 time=15\n",
      "control_change channel=0 control=64 value=75 time=16\n",
      "control_change channel=0 control=64 value=83 time=15\n",
      "note_on channel=0 note=67 velocity=0 time=1\n",
      "control_change channel=0 control=64 value=89 time=15\n",
      "note_on channel=0 note=46 velocity=71 time=7\n",
      "control_change channel=0 control=64 value=93 time=8\n",
      "control_change channel=0 control=64 value=96 time=15\n",
      "note_on channel=0 note=48 velocity=0 time=0\n",
      "control_change channel=0 control=64 value=98 time=16\n",
      "note_on channel=0 note=75 velocity=0 time=13\n",
      "control_change channel=0 control=64 value=100 time=2\n",
      "control_change channel=0 control=64 value=102 time=15\n",
      "control_change channel=0 control=64 value=104 time=15\n",
      "control_change channel=0 control=64 value=105 time=15\n",
      "note_on channel=0 note=46 velocity=0 time=5\n",
      "note_on channel=0 note=72 velocity=0 time=8\n",
      "control_change channel=0 control=64 value=104 time=18\n",
      "note_on channel=0 note=76 velocity=95 time=15\n",
      "note_on channel=0 note=67 velocity=93 time=7\n",
      "note_on channel=0 note=48 velocity=75 time=3\n",
      "note_on channel=0 note=67 velocity=0 time=55\n",
      "note_on channel=0 note=76 velocity=0 time=18\n",
      "control_change channel=0 control=64 value=105 time=24\n",
      "note_on channel=0 note=48 velocity=0 time=21\n",
      "note_on channel=0 note=49 velocity=78 time=22\n",
      "control_change channel=0 control=64 value=105 time=33\n",
      "control_change channel=0 control=64 value=106 time=68\n",
      "control_change channel=0 control=64 value=105 time=30\n",
      "control_change channel=0 control=64 value=102 time=16\n",
      "note_on channel=0 note=49 velocity=0 time=0\n",
      "control_change channel=0 control=64 value=90 time=15\n",
      "note_on channel=0 note=77 velocity=96 time=13\n",
      "control_change channel=0 control=64 value=74 time=3\n",
      "note_on channel=0 note=74 velocity=87 time=1\n",
      "note_on channel=0 note=68 velocity=90 time=2\n",
      "note_on channel=0 note=48 velocity=75 time=1\n",
      "control_change channel=0 control=64 value=0 time=10\n",
      "control_change channel=0 control=64 value=47 time=46\n",
      "control_change channel=0 control=64 value=67 time=15\n",
      "control_change channel=0 control=64 value=77 time=15\n",
      "note_on channel=0 note=68 velocity=0 time=2\n",
      "note_on channel=0 note=74 velocity=0 time=4\n",
      "note_on channel=0 note=77 velocity=0 time=6\n",
      "control_change channel=0 control=64 value=88 time=3\n",
      "control_change channel=0 control=64 value=96 time=16\n",
      "control_change channel=0 control=64 value=100 time=15\n",
      "note_on channel=0 note=46 velocity=75 time=13\n",
      "control_change channel=0 control=64 value=104 time=1\n",
      "note_on channel=0 note=48 velocity=0 time=15\n",
      "control_change channel=0 control=64 value=107 time=1\n",
      "control_change channel=0 control=64 value=109 time=15\n",
      "control_change channel=0 control=64 value=110 time=15\n",
      "control_change channel=0 control=64 value=112 time=16\n",
      "control_change channel=0 control=64 value=113 time=14\n",
      "control_change channel=0 control=64 value=114 time=16\n",
      "control_change channel=0 control=64 value=113 time=30\n",
      "control_change channel=0 control=64 value=108 time=16\n",
      "control_change channel=0 control=64 value=94 time=14\n",
      "note_on channel=0 note=79 velocity=96 time=8\n",
      "note_on channel=0 note=44 velocity=72 time=1\n",
      "note_on channel=0 note=70 velocity=98 time=0\n",
      "note_on channel=0 note=46 velocity=0 time=3\n",
      "note_on channel=0 note=76 velocity=94 time=0\n",
      "control_change channel=0 control=64 value=74 time=3\n",
      "control_change channel=0 control=64 value=0 time=16\n",
      "control_change channel=0 control=64 value=23 time=46\n",
      "control_change channel=0 control=64 value=67 time=15\n",
      "control_change channel=0 control=64 value=77 time=16\n",
      "note_on channel=0 note=70 velocity=0 time=11\n",
      "control_change channel=0 control=64 value=88 time=4\n",
      "note_on channel=0 note=79 velocity=0 time=3\n",
      "note_on channel=0 note=44 velocity=0 time=10\n",
      "control_change channel=0 control=64 value=97 time=3\n",
      "note_on channel=0 note=76 velocity=0 time=1\n",
      "control_change channel=0 control=64 value=103 time=13\n",
      "control_change channel=0 control=64 value=107 time=15\n",
      "control_change channel=0 control=64 value=110 time=16\n",
      "note_on channel=0 note=43 velocity=72 time=0\n",
      "control_change channel=0 control=64 value=113 time=15\n",
      "control_change channel=0 control=64 value=117 time=15\n",
      "control_change channel=0 control=64 value=119 time=16\n",
      "control_change channel=0 control=64 value=122 time=15\n",
      "control_change channel=0 control=64 value=123 time=15\n",
      "control_change channel=0 control=64 value=125 time=15\n",
      "note_on channel=0 note=43 velocity=0 time=58\n",
      "control_change channel=0 control=64 value=121 time=3\n",
      "control_change channel=0 control=64 value=113 time=22\n",
      "control_change channel=0 control=64 value=104 time=15\n",
      "control_change channel=0 control=64 value=92 time=16\n",
      "note_on channel=0 note=80 velocity=98 time=9\n",
      "note_on channel=0 note=41 velocity=78 time=3\n",
      "note_on channel=0 note=77 velocity=89 time=1\n",
      "control_change channel=0 control=64 value=77 time=2\n",
      "note_on channel=0 note=72 velocity=86 time=0\n",
      "control_change channel=0 control=64 value=57 time=16\n",
      "control_change channel=0 control=64 value=0 time=14\n",
      "note_on channel=0 note=75 velocity=67 time=184\n",
      "note_on channel=0 note=77 velocity=0 time=19\n",
      "note_on channel=0 note=75 velocity=0 time=136\n",
      "note_on channel=0 note=77 velocity=64 time=2\n",
      "note_on channel=0 note=79 velocity=69 time=142\n",
      "note_on channel=0 note=77 velocity=0 time=22\n",
      "note_on channel=0 note=72 velocity=0 time=42\n",
      "note_on channel=0 note=46 velocity=85 time=68\n",
      "note_on channel=0 note=77 velocity=81 time=15\n",
      "note_on channel=0 note=41 velocity=0 time=23\n",
      "note_on channel=0 note=79 velocity=0 time=82\n",
      "note_on channel=0 note=80 velocity=0 time=0\n",
      "note_on channel=0 note=75 velocity=80 time=62\n",
      "note_on channel=0 note=77 velocity=0 time=16\n",
      "note_on channel=0 note=75 velocity=0 time=95\n",
      "note_on channel=0 note=74 velocity=84 time=48\n",
      "note_on channel=0 note=74 velocity=0 time=112\n",
      "note_on channel=0 note=72 velocity=82 time=35\n",
      "note_on channel=0 note=72 velocity=0 time=99\n",
      "note_on channel=0 note=74 velocity=77 time=53\n",
      "control_change channel=0 control=64 value=52 time=60\n",
      "control_change channel=0 control=64 value=61 time=14\n",
      "control_change channel=0 control=64 value=65 time=15\n",
      "control_change channel=0 control=64 value=68 time=16\n",
      "control_change channel=0 control=64 value=73 time=15\n",
      "control_change channel=0 control=64 value=77 time=16\n",
      "control_change channel=0 control=64 value=80 time=14\n",
      "note_on channel=0 note=80 velocity=86 time=6\n",
      "control_change channel=0 control=64 value=82 time=9\n",
      "control_change channel=0 control=64 value=83 time=16\n",
      "control_change channel=0 control=64 value=83 time=22\n",
      "control_change channel=0 control=64 value=84 time=16\n",
      "control_change channel=0 control=64 value=85 time=15\n",
      "control_change channel=0 control=64 value=86 time=15\n",
      "control_change channel=0 control=64 value=87 time=16\n",
      "control_change channel=0 control=64 value=88 time=14\n",
      "note_on channel=0 note=80 velocity=0 time=4\n",
      "note_on channel=0 note=82 velocity=87 time=34\n",
      "control_change channel=0 control=64 value=88 time=24\n",
      "note_on channel=0 note=84 velocity=86 time=119\n",
      "note_on channel=0 note=82 velocity=0 time=14\n",
      "control_change channel=0 control=64 value=88 time=125\n",
      "control_change channel=0 control=64 value=84 time=14\n",
      "note_on channel=0 note=43 velocity=65 time=11\n",
      "note_on channel=0 note=82 velocity=86 time=0\n",
      "control_change channel=0 control=64 value=76 time=5\n",
      "control_change channel=0 control=64 value=64 time=15\n",
      "note_on channel=0 note=84 velocity=0 time=15\n",
      "control_change channel=0 control=64 value=0 time=1\n",
      "note_on channel=0 note=46 velocity=0 time=30\n",
      "control_change channel=0 control=64 value=15 time=30\n",
      "control_change channel=0 control=64 value=58 time=16\n",
      "control_change channel=0 control=64 value=64 time=15\n",
      "control_change channel=0 control=64 value=67 time=14\n",
      "note_on channel=0 note=80 velocity=80 time=14\n",
      "control_change channel=0 control=64 value=71 time=2\n",
      "control_change channel=0 control=64 value=76 time=15\n",
      "control_change channel=0 control=64 value=81 time=14\n",
      "note_on channel=0 note=74 velocity=0 time=8\n",
      "note_on channel=0 note=82 velocity=0 time=4\n",
      "control_change channel=0 control=64 value=84 time=4\n",
      "control_change channel=0 control=64 value=85 time=16\n",
      "control_change channel=0 control=64 value=87 time=16\n",
      "control_change channel=0 control=64 value=89 time=15\n",
      "control_change channel=0 control=64 value=91 time=15\n",
      "control_change channel=0 control=64 value=94 time=16\n",
      "control_change channel=0 control=64 value=97 time=14\n",
      "control_change channel=0 control=64 value=98 time=15\n",
      "note_on channel=0 note=79 velocity=89 time=13\n",
      "control_change channel=0 control=64 value=100 time=3\n",
      "control_change channel=0 control=64 value=101 time=22\n",
      "note_on channel=0 note=80 velocity=0 time=10\n",
      "control_change channel=0 control=64 value=102 time=6\n",
      "control_change channel=0 control=64 value=103 time=15\n",
      "control_change channel=0 control=64 value=104 time=16\n",
      "control_change channel=0 control=64 value=104 time=15\n",
      "note_on channel=0 note=79 velocity=0 time=13\n",
      "control_change channel=0 control=64 value=105 time=17\n",
      "note_on channel=0 note=77 velocity=76 time=35\n",
      "control_change channel=0 control=64 value=105 time=11\n",
      "note_on channel=0 note=77 velocity=0 time=40\n",
      "control_change channel=0 control=64 value=105 time=95\n",
      "note_on channel=0 note=51 velocity=65 time=14\n",
      "control_change channel=0 control=64 value=104 time=2\n",
      "note_on channel=0 note=48 velocity=63 time=2\n",
      "note_on channel=0 note=75 velocity=79 time=11\n",
      "control_change channel=0 control=64 value=102 time=2\n",
      "control_change channel=0 control=64 value=100 time=15\n",
      "control_change channel=0 control=64 value=96 time=16\n",
      "control_change channel=0 control=64 value=92 time=14\n",
      "control_change channel=0 control=64 value=87 time=16\n",
      "control_change channel=0 control=64 value=82 time=15\n",
      "control_change channel=0 control=64 value=76 time=15\n",
      "note_on channel=0 note=43 velocity=0 time=13\n",
      "control_change channel=0 control=64 value=69 time=3\n",
      "control_change channel=0 control=64 value=57 time=15\n",
      "control_change channel=0 control=64 value=0 time=15\n",
      "note_on channel=0 note=70 velocity=66 time=7\n",
      "note_on channel=0 note=72 velocity=66 time=173\n",
      "note_on channel=0 note=75 velocity=0 time=31\n",
      "note_on channel=0 note=70 velocity=0 time=5\n",
      "note_on channel=0 note=73 velocity=74 time=125\n",
      "note_on channel=0 note=72 velocity=0 time=20\n",
      "note_on channel=0 note=73 velocity=0 time=111\n",
      "note_on channel=0 note=72 velocity=73 time=39\n",
      "note_on channel=0 note=56 velocity=70 time=4\n",
      "note_on channel=0 note=51 velocity=0 time=40\n",
      "note_on channel=0 note=70 velocity=67 time=112\n",
      "note_on channel=0 note=72 velocity=0 time=125\n",
      "note_on channel=0 note=70 velocity=0 time=12\n",
      "note_on channel=0 note=72 velocity=31 time=7\n",
      "note_on channel=0 note=68 velocity=66 time=15\n",
      "note_on channel=0 note=68 velocity=0 time=90\n",
      "note_on channel=0 note=67 velocity=60 time=55\n",
      "note_on channel=0 note=67 velocity=0 time=69\n",
      "note_on channel=0 note=72 velocity=0 time=103\n",
      "note_on channel=0 note=50 velocity=50 time=15\n",
      "note_on channel=0 note=70 velocity=58 time=3\n",
      "note_on channel=0 note=65 velocity=49 time=10\n",
      "note_on channel=0 note=48 velocity=0 time=12\n",
      "note_on channel=0 note=65 velocity=0 time=147\n",
      "note_on channel=0 note=46 velocity=39 time=123\n",
      "note_on channel=0 note=67 velocity=60 time=19\n",
      "note_on channel=0 note=67 velocity=0 time=130\n",
      "note_on channel=0 note=68 velocity=67 time=16\n",
      "note_on channel=0 note=70 velocity=0 time=36\n",
      "note_on channel=0 note=56 velocity=0 time=67\n",
      "note_on channel=0 note=46 velocity=0 time=45\n",
      "note_on channel=0 note=50 velocity=0 time=8\n",
      "note_on channel=0 note=51 velocity=22 time=50\n",
      "note_on channel=0 note=68 velocity=0 time=0\n",
      "note_on channel=0 note=70 velocity=54 time=5\n",
      "note_on channel=0 note=55 velocity=28 time=2\n",
      "note_on channel=0 note=68 velocity=49 time=205\n",
      "note_on channel=0 note=68 velocity=0 time=101\n",
      "control_change channel=0 control=64 value=36 time=15\n",
      "note_on channel=0 note=51 velocity=0 time=8\n",
      "control_change channel=0 control=64 value=51 time=8\n",
      "note_on channel=0 note=50 velocity=43 time=9\n",
      "control_change channel=0 control=64 value=59 time=6\n",
      "note_on channel=0 note=67 velocity=57 time=0\n",
      "control_change channel=0 control=64 value=63 time=15\n",
      "control_change channel=0 control=64 value=65 time=16\n",
      "control_change channel=0 control=64 value=66 time=15\n",
      "control_change channel=0 control=64 value=68 time=15\n",
      "control_change channel=0 control=64 value=70 time=15\n",
      "control_change channel=0 control=64 value=72 time=15\n",
      "control_change channel=0 control=64 value=74 time=15\n",
      "note_on channel=0 note=67 velocity=0 time=14\n",
      "control_change channel=0 control=64 value=75 time=1\n",
      "note_on channel=0 note=65 velocity=60 time=13\n",
      "control_change channel=0 control=64 value=75 time=2\n",
      "control_change channel=0 control=64 value=76 time=16\n",
      "note_on channel=0 note=55 velocity=0 time=4\n",
      "note_on channel=0 note=65 velocity=0 time=27\n",
      "control_change channel=0 control=64 value=75 time=45\n",
      "control_change channel=0 control=64 value=73 time=14\n",
      "control_change channel=0 control=64 value=70 time=15\n",
      "control_change channel=0 control=64 value=66 time=16\n",
      "control_change channel=0 control=64 value=60 time=15\n",
      "note_on channel=0 note=48 velocity=50 time=0\n",
      "note_on channel=0 note=63 velocity=68 time=15\n",
      "control_change channel=0 control=64 value=47 time=1\n",
      "control_change channel=0 control=64 value=28 time=14\n",
      "note_on channel=0 note=60 velocity=45 time=9\n",
      "control_change channel=0 control=64 value=13 time=6\n",
      "note_on channel=0 note=60 velocity=0 time=37\n",
      "note_on channel=0 note=50 velocity=0 time=7\n",
      "control_change channel=0 control=64 value=10 time=2\n",
      "control_change channel=0 control=64 value=0 time=16\n",
      "note_on channel=0 note=63 velocity=0 time=67\n",
      "note_on channel=0 note=62 velocity=65 time=3\n",
      "note_on channel=0 note=62 velocity=0 time=107\n",
      "note_on channel=0 note=60 velocity=59 time=62\n",
      "note_on channel=0 note=70 velocity=0 time=107\n",
      "note_on channel=0 note=58 velocity=58 time=43\n",
      "note_on channel=0 note=63 velocity=60 time=159\n",
      "note_on channel=0 note=60 velocity=0 time=52\n",
      "note_on channel=0 note=48 velocity=0 time=8\n",
      "note_on channel=0 note=68 velocity=62 time=84\n",
      "note_on channel=0 note=63 velocity=0 time=7\n",
      "note_on channel=0 note=68 velocity=0 time=71\n",
      "note_on channel=0 note=63 velocity=47 time=88\n",
      "note_on channel=0 note=70 velocity=54 time=1\n",
      "control_change channel=0 control=64 value=28 time=8\n",
      "note_on channel=0 note=46 velocity=41 time=3\n",
      "control_change channel=0 control=64 value=47 time=12\n",
      "control_change channel=0 control=64 value=57 time=14\n",
      "control_change channel=0 control=64 value=62 time=16\n",
      "control_change channel=0 control=64 value=64 time=15\n",
      "control_change channel=0 control=64 value=67 time=16\n",
      "control_change channel=0 control=64 value=70 time=16\n",
      "control_change channel=0 control=64 value=73 time=15\n",
      "note_on channel=0 note=70 velocity=0 time=9\n",
      "control_change channel=0 control=64 value=76 time=7\n",
      "note_on channel=0 note=72 velocity=57 time=3\n",
      "note_on channel=0 note=58 velocity=0 time=6\n",
      "control_change channel=0 control=64 value=77 time=5\n",
      "control_change channel=0 control=64 value=78 time=16\n",
      "note_on channel=0 note=63 velocity=0 time=17\n",
      "note_on channel=0 note=72 velocity=0 time=17\n",
      "note_on channel=0 note=46 velocity=0 time=28\n",
      "control_change channel=0 control=64 value=76 time=59\n",
      "control_change channel=0 control=64 value=73 time=16\n",
      "note_on channel=0 note=63 velocity=56 time=2\n",
      "control_change channel=0 control=64 value=65 time=13\n",
      "note_on channel=0 note=45 velocity=40 time=10\n",
      "note_on channel=0 note=65 velocity=50 time=0\n",
      "control_change channel=0 control=64 value=33 time=6\n",
      "control_change channel=0 control=64 value=0 time=14\n",
      "note_on channel=0 note=63 velocity=0 time=64\n",
      "control_change channel=0 control=64 value=38 time=27\n",
      "control_change channel=0 control=64 value=55 time=16\n",
      "control_change channel=0 control=64 value=61 time=14\n",
      "note_on channel=0 note=57 velocity=35 time=7\n",
      "control_change channel=0 control=64 value=64 time=8\n",
      "control_change channel=0 control=64 value=66 time=16\n",
      "control_change channel=0 control=64 value=67 time=15\n",
      "control_change channel=0 control=64 value=68 time=15\n",
      "control_change channel=0 control=64 value=68 time=16\n",
      "control_change channel=0 control=64 value=69 time=15\n",
      "control_change channel=0 control=64 value=69 time=16\n",
      "note_on channel=0 note=58 velocity=51 time=61\n",
      "note_on channel=0 note=65 velocity=0 time=6\n",
      "note_on channel=0 note=57 velocity=0 time=33\n",
      "note_on channel=0 note=58 velocity=0 time=39\n",
      "control_change channel=0 control=64 value=69 time=35\n",
      "note_on channel=0 note=60 velocity=53 time=43\n",
      "control_change channel=0 control=64 value=68 time=2\n",
      "control_change channel=0 control=64 value=68 time=31\n",
      "control_change channel=0 control=64 value=67 time=15\n",
      "control_change channel=0 control=64 value=67 time=16\n",
      "note_on channel=0 note=60 velocity=0 time=8\n",
      "control_change channel=0 control=64 value=65 time=7\n",
      "control_change channel=0 control=64 value=63 time=14\n",
      "control_change channel=0 control=64 value=61 time=16\n",
      "control_change channel=0 control=64 value=59 time=16\n",
      "control_change channel=0 control=64 value=57 time=15\n",
      "control_change channel=0 control=64 value=54 time=15\n",
      "note_on channel=0 note=62 velocity=53 time=9\n",
      "note_on channel=0 note=65 velocity=52 time=1\n",
      "control_change channel=0 control=64 value=51 time=5\n",
      "note_on channel=0 note=58 velocity=45 time=3\n",
      "note_on channel=0 note=45 velocity=0 time=12\n",
      "control_change channel=0 control=64 value=47 time=1\n",
      "note_on channel=0 note=46 velocity=39 time=8\n",
      "control_change channel=0 control=64 value=42 time=7\n",
      "control_change channel=0 control=64 value=37 time=15\n",
      "control_change channel=0 control=64 value=32 time=16\n",
      "control_change channel=0 control=64 value=29 time=15\n",
      "control_change channel=0 control=64 value=28 time=16\n",
      "control_change channel=0 control=64 value=27 time=14\n",
      "control_change channel=0 control=64 value=26 time=15\n",
      "control_change channel=0 control=64 value=25 time=16\n",
      "note_on channel=0 note=56 velocity=53 time=13\n",
      "note_on channel=0 note=58 velocity=0 time=27\n",
      "note_on channel=0 note=62 velocity=0 time=46\n",
      "control_change channel=0 control=64 value=26 time=19\n",
      "control_change channel=0 control=64 value=27 time=30\n",
      "control_change channel=0 control=64 value=29 time=16\n",
      "control_change channel=0 control=64 value=30 time=15\n",
      "note_on channel=0 note=55 velocity=44 time=1\n",
      "control_change channel=0 control=64 value=31 time=14\n",
      "control_change channel=0 control=64 value=32 time=16\n",
      "control_change channel=0 control=64 value=32 time=14\n",
      "control_change channel=0 control=64 value=33 time=15\n",
      "control_change channel=0 control=64 value=34 time=31\n",
      "control_change channel=0 control=64 value=34 time=16\n",
      "note_on channel=0 note=56 velocity=0 time=15\n",
      "note_on channel=0 note=55 velocity=0 time=1\n",
      "control_change channel=0 control=64 value=35 time=14\n",
      "note_on channel=0 note=53 velocity=48 time=21\n",
      "control_change channel=0 control=64 value=36 time=9\n",
      "control_change channel=0 control=64 value=36 time=84\n",
      "note_on channel=0 note=53 velocity=0 time=18\n",
      "note_on channel=0 note=65 velocity=0 time=27\n",
      "note_on channel=0 note=63 velocity=56 time=33\n",
      "note_on channel=0 note=54 velocity=44 time=3\n",
      "note_on channel=0 note=60 velocity=47 time=6\n",
      "note_on channel=0 note=46 velocity=0 time=28\n",
      "note_on channel=0 note=54 velocity=0 time=15\n",
      "note_on channel=0 note=54 velocity=13 time=0\n",
      "note_on channel=0 note=45 velocity=30 time=129\n",
      "note_on channel=0 note=45 velocity=0 time=115\n",
      "note_on channel=0 note=46 velocity=40 time=31\n",
      "note_on channel=0 note=60 velocity=0 time=102\n",
      "note_on channel=0 note=46 velocity=0 time=12\n",
      "note_on channel=0 note=48 velocity=40 time=51\n",
      "note_on channel=0 note=54 velocity=0 time=102\n",
      "note_on channel=0 note=48 velocity=0 time=37\n",
      "note_on channel=0 note=46 velocity=48 time=13\n",
      "note_on channel=0 note=53 velocity=44 time=15\n",
      "control_change channel=0 control=64 value=36 time=30\n",
      "note_on channel=0 note=46 velocity=0 time=105\n",
      "note_on channel=0 note=45 velocity=52 time=24\n",
      "note_on channel=0 note=45 velocity=0 time=136\n",
      "note_on channel=0 note=43 velocity=47 time=34\n",
      "note_on channel=0 note=53 velocity=0 time=51\n",
      "note_on channel=0 note=43 velocity=0 time=80\n",
      "control_change channel=0 control=64 value=35 time=11\n",
      "note_on channel=0 note=41 velocity=47 time=29\n",
      "control_change channel=0 control=64 value=34 time=47\n",
      "note_on channel=0 note=63 velocity=0 time=76\n",
      "note_on channel=0 note=53 velocity=45 time=51\n",
      "note_on channel=0 note=41 velocity=0 time=5\n",
      "note_on channel=0 note=62 velocity=55 time=8\n",
      "note_on channel=0 note=46 velocity=44 time=7\n",
      "control_change channel=0 control=64 value=34 time=51\n",
      "note_on channel=0 note=65 velocity=56 time=127\n",
      "control_change channel=0 control=64 value=33 time=32\n",
      "note_on channel=0 note=65 velocity=0 time=117\n",
      "note_on channel=0 note=67 velocity=66 time=3\n",
      "control_change channel=0 control=64 value=32 time=78\n",
      "note_on channel=0 note=68 velocity=45 time=79\n",
      "note_on channel=0 note=67 velocity=0 time=5\n",
      "note_on channel=0 note=69 velocity=62 time=14\n",
      "note_on channel=0 note=68 velocity=0 time=12\n",
      "control_change channel=0 control=64 value=32 time=43\n",
      "note_on channel=0 note=69 velocity=0 time=6\n",
      "note_on channel=0 note=53 velocity=0 time=71\n",
      "note_on channel=0 note=51 velocity=58 time=1\n",
      "note_on channel=0 note=67 velocity=71 time=15\n",
      "note_on channel=0 note=65 velocity=71 time=146\n",
      "note_on channel=0 note=62 velocity=0 time=19\n",
      "control_change channel=0 control=64 value=31 time=15\n",
      "note_on channel=0 note=63 velocity=67 time=139\n",
      "note_on channel=0 note=67 velocity=0 time=7\n",
      "note_on channel=0 note=67 velocity=7 time=0\n",
      "note_on channel=0 note=46 velocity=0 time=52\n",
      "note_on channel=0 note=63 velocity=0 time=59\n",
      "note_on channel=0 note=65 velocity=0 time=8\n",
      "note_on channel=0 note=62 velocity=64 time=25\n",
      "note_on channel=0 note=62 velocity=0 time=88\n",
      "note_on channel=0 note=67 velocity=0 time=88\n",
      "note_on channel=0 note=68 velocity=68 time=3\n",
      "note_on channel=0 note=60 velocity=56 time=20\n",
      "control_change channel=0 control=64 value=30 time=37\n",
      "control_change channel=0 control=64 value=29 time=107\n",
      "note_on channel=0 note=60 velocity=0 time=22\n",
      "control_change channel=0 control=64 value=29 time=8\n",
      "control_change channel=0 control=64 value=28 time=15\n",
      "control_change channel=0 control=64 value=27 time=46\n",
      "note_on channel=0 note=62 velocity=50 time=73\n",
      "control_change channel=0 control=64 value=26 time=10\n",
      "control_change channel=0 control=64 value=25 time=91\n",
      "note_on channel=0 note=62 velocity=0 time=43\n",
      "note_on channel=0 note=63 velocity=49 time=14\n",
      "note_on channel=0 note=63 velocity=0 time=172\n",
      "note_on channel=0 note=51 velocity=0 time=23\n",
      "note_on channel=0 note=50 velocity=37 time=9\n",
      "note_on channel=0 note=65 velocity=49 time=2\n",
      "control_change channel=0 control=64 value=24 time=9\n",
      "control_change channel=0 control=64 value=23 time=31\n",
      "control_change channel=0 control=64 value=21 time=15\n",
      "control_change channel=0 control=64 value=20 time=16\n",
      "control_change channel=0 control=64 value=18 time=15\n",
      "control_change channel=0 control=64 value=17 time=15\n",
      "control_change channel=0 control=64 value=15 time=16\n",
      "control_change channel=0 control=64 value=13 time=15\n",
      "control_change channel=0 control=64 value=10 time=15\n",
      "note_on channel=0 note=65 velocity=0 time=3\n",
      "control_change channel=0 control=64 value=0 time=12\n",
      "note_on channel=0 note=63 velocity=54 time=11\n",
      "note_on channel=0 note=63 velocity=0 time=92\n",
      "note_on channel=0 note=62 velocity=49 time=65\n",
      "note_on channel=0 note=62 velocity=0 time=141\n",
      "note_on channel=0 note=60 velocity=52 time=18\n",
      "note_on channel=0 note=50 velocity=0 time=117\n",
      "note_on channel=0 note=60 velocity=0 time=1\n",
      "note_on channel=0 note=58 velocity=61 time=47\n",
      "note_on channel=0 note=55 velocity=36 time=13\n",
      "note_on channel=0 note=55 velocity=0 time=95\n",
      "note_on channel=0 note=68 velocity=0 time=37\n",
      "note_on channel=0 note=65 velocity=61 time=5\n",
      "note_on channel=0 note=56 velocity=49 time=8\n",
      "note_on channel=0 note=56 velocity=0 time=98\n",
      "note_on channel=0 note=58 velocity=0 time=27\n",
      "note_on channel=0 note=65 velocity=0 time=3\n",
      "control_change channel=0 control=64 value=10 time=8\n",
      "note_on channel=0 note=55 velocity=51 time=17\n",
      "note_on channel=0 note=58 velocity=21 time=2\n",
      "note_on channel=0 note=67 velocity=66 time=3\n",
      "control_change channel=0 control=64 value=13 time=23\n",
      "control_change channel=0 control=64 value=15 time=46\n",
      "control_change channel=0 control=64 value=17 time=76\n",
      "note_on channel=0 note=55 velocity=0 time=3\n",
      "note_on channel=0 note=58 velocity=0 time=3\n",
      "note_on channel=0 note=58 velocity=5 time=0\n",
      "note_on channel=0 note=67 velocity=0 time=3\n",
      "note_on channel=0 note=68 velocity=64 time=7\n",
      "note_on channel=0 note=53 velocity=60 time=5\n",
      "control_change channel=0 control=64 value=18 time=10\n",
      "control_change channel=0 control=64 value=20 time=52\n",
      "note_on channel=0 note=58 velocity=0 time=12\n",
      "control_change channel=0 control=64 value=21 time=3\n",
      "control_change channel=0 control=64 value=23 time=16\n",
      "control_change channel=0 control=64 value=24 time=15\n",
      "control_change channel=0 control=64 value=25 time=16\n",
      "note_on channel=0 note=53 velocity=0 time=11\n",
      "note_on channel=0 note=68 velocity=0 time=1\n",
      "control_change channel=0 control=64 value=29 time=2\n",
      "control_change channel=0 control=64 value=33 time=15\n",
      "note_on channel=0 note=67 velocity=72 time=12\n",
      "note_on channel=0 note=55 velocity=73 time=1\n",
      "control_change channel=0 control=64 value=40 time=3\n",
      "control_change channel=0 control=64 value=47 time=15\n",
      "note_on channel=0 note=58 velocity=55 time=3\n",
      "control_change channel=0 control=64 value=54 time=12\n",
      "control_change channel=0 control=64 value=58 time=16\n",
      "control_change channel=0 control=64 value=61 time=14\n",
      "note_on channel=0 note=58 velocity=0 time=12\n",
      "control_change channel=0 control=64 value=63 time=4\n",
      "control_change channel=0 control=64 value=64 time=15\n",
      "control_change channel=0 control=64 value=65 time=15\n",
      "control_change channel=0 control=64 value=67 time=15\n",
      "note_on channel=0 note=67 velocity=0 time=3\n",
      "control_change channel=0 control=64 value=68 time=12\n",
      "note_on channel=0 note=65 velocity=69 time=6\n",
      "control_change channel=0 control=64 value=71 time=9\n",
      "control_change channel=0 control=64 value=74 time=16\n",
      "control_change channel=0 control=64 value=77 time=15\n",
      "control_change channel=0 control=64 value=78 time=15\n",
      "control_change channel=0 control=64 value=79 time=15\n",
      "control_change channel=0 control=64 value=79 time=15\n",
      "note_on channel=0 note=65 velocity=0 time=26\n",
      "note_on channel=0 note=55 velocity=0 time=15\n",
      "note_on channel=0 note=53 velocity=74 time=37\n",
      "note_on channel=0 note=63 velocity=70 time=3\n",
      "control_change channel=0 control=64 value=79 time=40\n",
      "note_on channel=0 note=63 velocity=0 time=37\n",
      "control_change channel=0 control=64 value=78 time=26\n",
      "control_change channel=0 control=64 value=78 time=14\n",
      "note_on channel=0 note=62 velocity=72 time=29\n",
      "control_change channel=0 control=64 value=77 time=2\n",
      "control_change channel=0 control=64 value=77 time=15\n",
      "control_change channel=0 control=64 value=76 time=16\n",
      "control_change channel=0 control=64 value=75 time=14\n",
      "control_change channel=0 control=64 value=74 time=16\n",
      "control_change channel=0 control=64 value=73 time=15\n",
      "note_on channel=0 note=62 velocity=0 time=3\n",
      "control_change channel=0 control=64 value=72 time=12\n",
      "control_change channel=0 control=64 value=70 time=16\n",
      "control_change channel=0 control=64 value=68 time=15\n",
      "control_change channel=0 control=64 value=66 time=15\n",
      "control_change channel=0 control=64 value=64 time=15\n",
      "control_change channel=0 control=64 value=63 time=22\n",
      "note_on channel=0 note=52 velocity=60 time=9\n",
      "note_on channel=0 note=60 velocity=71 time=0\n",
      "note_on channel=0 note=58 velocity=70 time=5\n",
      "control_change channel=0 control=64 value=62 time=2\n",
      "control_change channel=0 control=64 value=62 time=15\n",
      "note_on channel=0 note=53 velocity=0 time=2\n",
      "control_change channel=0 control=64 value=61 time=29\n",
      "control_change channel=0 control=64 value=59 time=14\n",
      "control_change channel=0 control=64 value=58 time=16\n",
      "control_change channel=0 control=64 value=56 time=15\n",
      "control_change channel=0 control=64 value=55 time=15\n",
      "control_change channel=0 control=64 value=54 time=15\n",
      "control_change channel=0 control=64 value=53 time=15\n",
      "note_on channel=0 note=58 velocity=0 time=4\n",
      "note_on channel=0 note=55 velocity=67 time=7\n",
      "control_change channel=0 control=64 value=51 time=5\n",
      "control_change channel=0 control=64 value=48 time=15\n",
      "control_change channel=0 control=64 value=44 time=15\n",
      "control_change channel=0 control=64 value=40 time=16\n",
      "control_change channel=0 control=64 value=34 time=15\n",
      "control_change channel=0 control=64 value=29 time=16\n",
      "control_change channel=0 control=64 value=21 time=15\n",
      "control_change channel=0 control=64 value=10 time=15\n",
      "control_change channel=0 control=64 value=0 time=16\n",
      "note_on channel=0 note=55 velocity=0 time=30\n",
      "note_on channel=0 note=57 velocity=65 time=9\n",
      "note_on channel=0 note=58 velocity=70 time=134\n",
      "note_on channel=0 note=60 velocity=0 time=7\n",
      "note_on channel=0 note=57 velocity=0 time=1\n",
      "note_on channel=0 note=52 velocity=0 time=114\n",
      "note_on channel=0 note=58 velocity=0 time=10\n",
      "note_on channel=0 note=53 velocity=56 time=23\n",
      "note_on channel=0 note=57 velocity=64 time=7\n",
      "note_on channel=0 note=60 velocity=72 time=147\n",
      "note_on channel=0 note=53 velocity=0 time=12\n",
      "note_on channel=0 note=62 velocity=77 time=148\n",
      "note_on channel=0 note=51 velocity=55 time=8\n",
      "note_on channel=0 note=60 velocity=0 time=31\n",
      "note_on channel=0 note=51 velocity=0 time=80\n",
      "note_on channel=0 note=63 velocity=77 time=25\n",
      "note_on channel=0 note=62 velocity=0 time=48\n",
      "note_on channel=0 note=50 velocity=43 time=120\n",
      "note_on channel=0 note=65 velocity=70 time=17\n",
      "note_on channel=0 note=57 velocity=0 time=11\n",
      "note_on channel=0 note=63 velocity=0 time=32\n",
      "note_on channel=0 note=57 velocity=40 time=107\n",
      "note_on channel=0 note=57 velocity=0 time=131\n",
      "note_on channel=0 note=59 velocity=43 time=42\n",
      "note_on channel=0 note=59 velocity=0 time=112\n",
      "note_on channel=0 note=60 velocity=46 time=39\n",
      "note_on channel=0 note=60 velocity=0 time=80\n",
      "note_on channel=0 note=65 velocity=0 time=61\n",
      "note_on channel=0 note=59 velocity=51 time=5\n",
      "note_on channel=0 note=63 velocity=62 time=150\n",
      "note_on channel=0 note=65 velocity=65 time=163\n",
      "note_on channel=0 note=67 velocity=71 time=173\n",
      "note_on channel=0 note=63 velocity=0 time=2\n",
      "note_on channel=0 note=65 velocity=0 time=36\n",
      "note_on channel=0 note=50 velocity=0 time=120\n",
      "note_on channel=0 note=68 velocity=73 time=14\n",
      "note_on channel=0 note=67 velocity=0 time=39\n",
      "note_on channel=0 note=59 velocity=0 time=87\n",
      "note_on channel=0 note=50 velocity=45 time=25\n",
      "note_on channel=0 note=50 velocity=0 time=149\n",
      "note_on channel=0 note=59 velocity=58 time=8\n",
      "note_on channel=0 note=51 velocity=59 time=6\n",
      "note_on channel=0 note=51 velocity=0 time=126\n",
      "note_on channel=0 note=53 velocity=66 time=19\n",
      "note_on channel=0 note=53 velocity=0 time=148\n",
      "note_on channel=0 note=59 velocity=0 time=10\n",
      "note_on channel=0 note=51 velocity=65 time=13\n",
      "note_on channel=0 note=60 velocity=70 time=4\n",
      "note_on channel=0 note=51 velocity=0 time=123\n",
      "note_on channel=0 note=50 velocity=63 time=22\n",
      "note_on channel=0 note=50 velocity=0 time=137\n",
      "note_on channel=0 note=48 velocity=57 time=23\n",
      "note_on channel=0 note=62 velocity=60 time=10\n",
      "note_on channel=0 note=60 velocity=0 time=15\n",
      "control_change channel=0 control=64 value=17 time=86\n",
      "control_change channel=0 control=64 value=40 time=16\n",
      "note_on channel=0 note=48 velocity=0 time=11\n",
      "control_change channel=0 control=64 value=52 time=4\n",
      "note_on channel=0 note=47 velocity=58 time=7\n",
      "control_change channel=0 control=64 value=57 time=7\n",
      "note_on channel=0 note=62 velocity=0 time=10\n",
      "control_change channel=0 control=64 value=60 time=6\n",
      "control_change channel=0 control=64 value=61 time=15\n",
      "control_change channel=0 control=64 value=62 time=15\n",
      "control_change channel=0 control=64 value=63 time=16\n",
      "control_change channel=0 control=64 value=64 time=14\n",
      "control_change channel=0 control=64 value=63 time=31\n",
      "note_on channel=0 note=68 velocity=0 time=7\n",
      "control_change channel=0 control=64 value=62 time=8\n",
      "control_change channel=0 control=64 value=52 time=16\n",
      "note_on channel=0 note=47 velocity=0 time=12\n",
      "control_change channel=0 control=64 value=0 time=3\n",
      "note_on channel=0 note=63 velocity=60 time=8\n",
      "note_on channel=0 note=48 velocity=52 time=11\n",
      "control_change channel=0 control=64 value=40 time=65\n",
      "control_change channel=0 control=64 value=58 time=16\n",
      "control_change channel=0 control=64 value=62 time=15\n",
      "control_change channel=0 control=64 value=64 time=15\n",
      "control_change channel=0 control=64 value=64 time=16\n",
      "control_change channel=0 control=64 value=64 time=27\n",
      "control_change channel=0 control=64 value=63 time=16\n",
      "note_on channel=0 note=48 velocity=0 time=0\n",
      "control_change channel=0 control=64 value=62 time=14\n",
      "note_on channel=0 note=47 velocity=64 time=3\n",
      "control_change channel=0 control=64 value=59 time=12\n",
      "control_change channel=0 control=64 value=57 time=16\n",
      "control_change channel=0 control=64 value=56 time=15\n",
      "control_change channel=0 control=64 value=56 time=31\n",
      "control_change channel=0 control=64 value=54 time=14\n",
      "control_change channel=0 control=64 value=52 time=16\n",
      "control_change channel=0 control=64 value=49 time=15\n",
      "control_change channel=0 control=64 value=47 time=15\n",
      "control_change channel=0 control=64 value=46 time=15\n",
      "note_on channel=0 note=48 velocity=72 time=4\n",
      "note_on channel=0 note=47 velocity=0 time=1\n",
      "note_on channel=0 note=67 velocity=76 time=7\n",
      "control_change channel=0 control=64 value=45 time=3\n",
      "control_change channel=0 control=64 value=43 time=16\n",
      "control_change channel=0 control=64 value=41 time=15\n",
      "control_change channel=0 control=64 value=38 time=15\n",
      "control_change channel=0 control=64 value=37 time=16\n",
      "control_change channel=0 control=64 value=36 time=15\n",
      "control_change channel=0 control=64 value=36 time=30\n",
      "note_on channel=0 note=48 velocity=0 time=32\n",
      "note_on channel=0 note=50 velocity=79 time=5\n",
      "control_change channel=0 control=64 value=36 time=9\n",
      "control_change channel=0 control=64 value=37 time=15\n",
      "control_change channel=0 control=64 value=37 time=30\n",
      "control_change channel=0 control=64 value=37 time=29\n",
      "note_on channel=0 note=50 velocity=0 time=77\n",
      "note_on channel=0 note=48 velocity=80 time=5\n",
      "note_on channel=0 note=68 velocity=84 time=1\n",
      "note_on channel=0 note=67 velocity=0 time=33\n",
      "note_on channel=0 note=46 velocity=76 time=133\n",
      "control_change channel=0 control=64 value=36 time=16\n",
      "note_on channel=0 note=48 velocity=0 time=4\n",
      "control_change channel=0 control=64 value=36 time=89\n",
      "control_change channel=0 control=64 value=35 time=15\n",
      "control_change channel=0 control=64 value=33 time=15\n",
      "note_on channel=0 note=70 velocity=85 time=8\n",
      "note_on channel=0 note=44 velocity=79 time=2\n",
      "note_on channel=0 note=46 velocity=0 time=4\n",
      "control_change channel=0 control=64 value=29 time=1\n",
      "control_change channel=0 control=64 value=24 time=15\n",
      "note_on channel=0 note=68 velocity=0 time=4\n",
      "control_change channel=0 control=64 value=21 time=12\n",
      "control_change channel=0 control=64 value=20 time=15\n",
      "control_change channel=0 control=64 value=15 time=14\n",
      "control_change channel=0 control=64 value=0 time=16\n",
      "note_on channel=0 note=43 velocity=82 time=68\n",
      "note_on channel=0 note=44 velocity=0 time=0\n",
      "note_on channel=0 note=48 velocity=78 time=185\n",
      "note_on channel=0 note=44 velocity=71 time=2\n",
      "note_on channel=0 note=72 velocity=84 time=0\n",
      "note_on channel=0 note=63 velocity=0 time=25\n",
      "note_on channel=0 note=43 velocity=0 time=6\n",
      "note_on channel=0 note=70 velocity=0 time=10\n",
      "note_on channel=0 note=63 velocity=73 time=115\n",
      "note_on channel=0 note=63 velocity=0 time=125\n",
      "note_on channel=0 note=65 velocity=73 time=49\n",
      "note_on channel=0 note=67 velocity=75 time=144\n",
      "note_on channel=0 note=65 velocity=0 time=30\n",
      "note_on channel=0 note=67 velocity=0 time=123\n",
      "note_on channel=0 note=53 velocity=88 time=9\n",
      "note_on channel=0 note=72 velocity=0 time=3\n",
      "note_on channel=0 note=65 velocity=75 time=9\n",
      "note_on channel=0 note=75 velocity=70 time=156\n",
      "note_on channel=0 note=65 velocity=0 time=40\n",
      "note_on channel=0 note=75 velocity=0 time=49\n",
      "note_on channel=0 note=48 velocity=0 time=16\n",
      "note_on channel=0 note=74 velocity=69 time=48\n",
      "note_on channel=0 note=74 velocity=0 time=116\n",
      "note_on channel=0 note=72 velocity=81 time=40\n",
      "note_on channel=0 note=44 velocity=0 time=46\n",
      "control_change channel=0 control=64 value=13 time=76\n",
      "control_change channel=0 control=64 value=38 time=15\n",
      "note_on channel=0 note=72 velocity=0 time=8\n",
      "control_change channel=0 control=64 value=48 time=8\n",
      "control_change channel=0 control=64 value=54 time=14\n",
      "note_on channel=0 note=71 velocity=78 time=6\n",
      "note_on channel=0 note=67 velocity=77 time=5\n",
      "control_change channel=0 control=64 value=58 time=4\n",
      "control_change channel=0 control=64 value=60 time=16\n",
      "control_change channel=0 control=64 value=62 time=14\n",
      "control_change channel=0 control=64 value=63 time=16\n",
      "control_change channel=0 control=64 value=64 time=15\n",
      "control_change channel=0 control=64 value=65 time=15\n",
      "control_change channel=0 control=64 value=65 time=16\n",
      "control_change channel=0 control=64 value=66 time=14\n",
      "control_change channel=0 control=64 value=66 time=15\n",
      "control_change channel=0 control=64 value=67 time=16\n",
      "note_on channel=0 note=43 velocity=73 time=10\n",
      "note_on channel=0 note=72 velocity=59 time=75\n",
      "control_change channel=0 control=64 value=66 time=21\n",
      "note_on channel=0 note=71 velocity=0 time=26\n",
      "note_on channel=0 note=72 velocity=0 time=6\n",
      "note_on channel=0 note=45 velocity=76 time=11\n",
      "note_on channel=0 note=53 velocity=0 time=15\n",
      "control_change channel=0 control=64 value=66 time=3\n",
      "note_on channel=0 note=72 velocity=69 time=13\n",
      "note_on channel=0 note=43 velocity=0 time=2\n",
      "control_change channel=0 control=64 value=65 time=61\n",
      "control_change channel=0 control=64 value=65 time=31\n",
      "note_on channel=0 note=47 velocity=76 time=20\n",
      "note_on channel=0 note=45 velocity=0 time=2\n",
      "control_change channel=0 control=64 value=64 time=7\n",
      "control_change channel=0 control=64 value=62 time=16\n",
      "note_on channel=0 note=74 velocity=85 time=6\n",
      "control_change channel=0 control=64 value=59 time=9\n",
      "note_on channel=0 note=72 velocity=0 time=20\n",
      "control_change channel=0 control=64 value=49 time=3\n",
      "control_change channel=0 control=64 value=0 time=15\n",
      "note_on channel=0 note=47 velocity=0 time=80\n",
      "note_on channel=0 note=48 velocity=70 time=16\n",
      "note_on channel=0 note=75 velocity=90 time=2\n",
      "note_on channel=0 note=51 velocity=80 time=3\n",
      "note_on channel=0 note=74 velocity=0 time=23\n",
      "control_change channel=0 control=64 value=15 time=28\n",
      "control_change channel=0 control=64 value=57 time=15\n",
      "control_change channel=0 control=64 value=64 time=17\n",
      "control_change channel=0 control=64 value=67 time=15\n",
      "note_on channel=0 note=75 velocity=0 time=10\n",
      "control_change channel=0 control=64 value=69 time=5\n",
      "control_change channel=0 control=64 value=72 time=16\n",
      "control_change channel=0 control=64 value=75 time=15\n",
      "note_on channel=0 note=74 velocity=85 time=12\n",
      "control_change channel=0 control=64 value=77 time=3\n",
      "control_change channel=0 control=64 value=78 time=15\n",
      "control_change channel=0 control=64 value=80 time=15\n",
      "control_change channel=0 control=64 value=80 time=16\n",
      "control_change channel=0 control=64 value=81 time=15\n",
      "control_change channel=0 control=64 value=82 time=16\n",
      "note_on channel=0 note=48 velocity=0 time=0\n",
      "control_change channel=0 control=64 value=83 time=15\n",
      "control_change channel=0 control=64 value=83 time=14\n",
      "note_on channel=0 note=51 velocity=0 time=0\n",
      "control_change channel=0 control=64 value=84 time=16\n",
      "control_change channel=0 control=64 value=84 time=15\n",
      "control_change channel=0 control=64 value=85 time=15\n",
      "note_on channel=0 note=72 velocity=80 time=1\n",
      "control_change channel=0 control=64 value=85 time=15\n",
      "note_on channel=0 note=74 velocity=0 time=2\n",
      "control_change channel=0 control=64 value=86 time=12\n",
      "note_on channel=0 note=67 velocity=0 time=0\n",
      "control_change channel=0 control=64 value=86 time=31\n",
      "note_on channel=0 note=72 velocity=0 time=19\n",
      "control_change channel=0 control=64 value=87 time=41\n",
      "note_on channel=0 note=70 velocity=83 time=18\n",
      "note_on channel=0 note=70 velocity=0 time=42\n",
      "note_on channel=0 note=56 velocity=92 time=105\n",
      "control_change channel=0 control=64 value=86 time=3\n",
      "note_on channel=0 note=68 velocity=86 time=7\n",
      "control_change channel=0 control=64 value=85 time=8\n",
      "control_change channel=0 control=64 value=83 time=14\n",
      "control_change channel=0 control=64 value=80 time=24\n",
      "control_change channel=0 control=64 value=75 time=15\n",
      "control_change channel=0 control=64 value=68 time=15\n",
      "control_change channel=0 control=64 value=50 time=15\n",
      "control_change channel=0 control=64 value=0 time=15\n",
      "note_on channel=0 note=68 velocity=0 time=19\n",
      "note_on channel=0 note=48 velocity=81 time=21\n",
      "note_on channel=0 note=67 velocity=82 time=6\n",
      "note_on channel=0 note=67 velocity=0 time=122\n",
      "note_on channel=0 note=48 velocity=0 time=1\n",
      "note_on channel=0 note=50 velocity=76 time=10\n",
      "note_on channel=0 note=65 velocity=85 time=10\n",
      "note_on channel=0 note=51 velocity=69 time=139\n",
      "note_on channel=0 note=50 velocity=0 time=1\n",
      "note_on channel=0 note=63 velocity=82 time=7\n",
      "note_on channel=0 note=65 velocity=0 time=1\n",
      "note_on channel=0 note=63 velocity=0 time=127\n",
      "note_on channel=0 note=51 velocity=0 time=3\n",
      "note_on channel=0 note=56 velocity=0 time=28\n",
      "note_on channel=0 note=62 velocity=88 time=4\n",
      "note_on channel=0 note=56 velocity=50 time=11\n",
      "note_on channel=0 note=53 velocity=78 time=4\n",
      "control_change channel=0 control=64 value=62 time=4\n",
      "control_change channel=0 control=64 value=70 time=15\n",
      "control_change channel=0 control=64 value=79 time=17\n",
      "control_change channel=0 control=64 value=86 time=16\n",
      "note_on channel=0 note=62 velocity=0 time=0\n",
      "control_change channel=0 control=64 value=92 time=15\n",
      "control_change channel=0 control=64 value=96 time=16\n",
      "note_on channel=0 note=53 velocity=0 time=6\n",
      "control_change channel=0 control=64 value=98 time=8\n",
      "control_change channel=0 control=64 value=100 time=15\n",
      "control_change channel=0 control=64 value=102 time=16\n",
      "control_change channel=0 control=64 value=103 time=15\n",
      "note_on channel=0 note=74 velocity=92 time=5\n",
      "control_change channel=0 control=64 value=104 time=10\n",
      "control_change channel=0 control=64 value=105 time=15\n",
      "control_change channel=0 control=64 value=106 time=23\n",
      "control_change channel=0 control=64 value=107 time=30\n",
      "note_on channel=0 note=74 velocity=0 time=70\n",
      "control_change channel=0 control=64 value=106 time=21\n",
      "control_change channel=0 control=64 value=100 time=16\n",
      "note_on channel=0 note=56 velocity=0 time=9\n",
      "note_on channel=0 note=56 velocity=28 time=0\n",
      "control_change channel=0 control=64 value=87 time=6\n",
      "note_on channel=0 note=75 velocity=95 time=5\n",
      "note_on channel=0 note=53 velocity=82 time=6\n",
      "control_change channel=0 control=64 value=68 time=5\n",
      "control_change channel=0 control=64 value=0 time=14\n",
      "control_change channel=0 control=64 value=63 time=60\n",
      "control_change channel=0 control=64 value=71 time=16\n",
      "control_change channel=0 control=64 value=80 time=15\n",
      "note_on channel=0 note=75 velocity=0 time=14\n",
      "control_change channel=0 control=64 value=87 time=2\n",
      "control_change channel=0 control=64 value=92 time=15\n",
      "note_on channel=0 note=53 velocity=0 time=1\n",
      "note_on channel=0 note=56 velocity=0 time=3\n",
      "control_change channel=0 control=64 value=95 time=11\n",
      "note_on channel=0 note=77 velocity=96 time=15\n",
      "control_change channel=0 control=64 value=98 time=1\n",
      "control_change channel=0 control=64 value=101 time=15\n",
      "control_change channel=0 control=64 value=105 time=16\n",
      "control_change channel=0 control=64 value=108 time=15\n",
      "note_on channel=0 note=77 velocity=0 time=6\n",
      "control_change channel=0 control=64 value=111 time=9\n",
      "control_change channel=0 control=64 value=114 time=15\n",
      "control_change channel=0 control=64 value=116 time=15\n",
      "control_change channel=0 control=64 value=117 time=15\n",
      "control_change channel=0 control=64 value=118 time=16\n",
      "control_change channel=0 control=64 value=117 time=106\n",
      "note_on channel=0 note=55 velocity=82 time=9\n",
      "note_on channel=0 note=53 velocity=76 time=3\n",
      "control_change channel=0 control=64 value=114 time=4\n",
      "control_change channel=0 control=64 value=107 time=15\n",
      "control_change channel=0 control=64 value=98 time=15\n",
      "note_on channel=0 note=71 velocity=90 time=5\n",
      "note_on channel=0 note=62 velocity=94 time=1\n",
      "control_change channel=0 control=64 value=87 time=9\n",
      "control_change channel=0 control=64 value=74 time=15\n",
      "control_change channel=0 control=64 value=0 time=15\n",
      "control_change channel=0 control=64 value=34 time=220\n",
      "control_change channel=0 control=64 value=58 time=16\n",
      "control_change channel=0 control=64 value=64 time=15\n",
      "note_on channel=0 note=72 velocity=87 time=13\n",
      "control_change channel=0 control=64 value=68 time=2\n",
      "control_change channel=0 control=64 value=73 time=16\n",
      "control_change channel=0 control=64 value=78 time=14\n",
      "note_on channel=0 note=71 velocity=0 time=3\n",
      "note_on channel=0 note=62 velocity=0 time=3\n",
      "control_change channel=0 control=64 value=81 time=9\n",
      "control_change channel=0 control=64 value=83 time=15\n",
      "control_change channel=0 control=64 value=84 time=15\n",
      "control_change channel=0 control=64 value=85 time=16\n",
      "note_on channel=0 note=72 velocity=0 time=8\n",
      "control_change channel=0 control=64 value=85 time=6\n",
      "control_change channel=0 control=64 value=87 time=15\n",
      "control_change channel=0 control=64 value=88 time=16\n",
      "note_on channel=0 note=74 velocity=86 time=10\n",
      "control_change channel=0 control=64 value=89 time=5\n",
      "control_change channel=0 control=64 value=90 time=16\n",
      "note_on channel=0 note=53 velocity=0 time=3\n",
      "control_change channel=0 control=64 value=90 time=12\n",
      "control_change channel=0 control=64 value=91 time=15\n",
      "control_change channel=0 control=64 value=91 time=46\n",
      "note_on channel=0 note=55 velocity=0 time=28\n",
      "control_change channel=0 control=64 value=91 time=18\n",
      "note_on channel=0 note=51 velocity=81 time=9\n",
      "control_change channel=0 control=64 value=90 time=6\n",
      "control_change channel=0 control=64 value=88 time=15\n",
      "note_on channel=0 note=72 velocity=88 time=3\n",
      "note_on channel=0 note=67 velocity=86 time=1\n",
      "control_change channel=0 control=64 value=82 time=12\n",
      "control_change channel=0 control=64 value=71 time=15\n",
      "note_on channel=0 note=74 velocity=0 time=6\n",
      "control_change channel=0 control=64 value=0 time=10\n",
      "note_on channel=0 note=67 velocity=0 time=86\n",
      "note_on channel=0 note=70 velocity=86 time=18\n",
      "control_change channel=0 control=64 value=55 time=32\n",
      "note_on channel=0 note=72 velocity=0 time=1\n",
      "control_change channel=0 control=64 value=68 time=14\n",
      "control_change channel=0 control=64 value=78 time=15\n",
      "control_change channel=0 control=64 value=88 time=15\n",
      "control_change channel=0 control=64 value=94 time=15\n",
      "control_change channel=0 control=64 value=98 time=15\n",
      "control_change channel=0 control=64 value=99 time=15\n",
      "note_on channel=0 note=51 velocity=0 time=3\n",
      "control_change channel=0 control=64 value=100 time=21\n",
      "note_on channel=0 note=68 velocity=92 time=12\n",
      "note_on channel=0 note=70 velocity=0 time=32\n",
      "note_on channel=0 note=68 velocity=0 time=53\n",
      "note_on channel=0 note=67 velocity=92 time=64\n",
      "note_on channel=0 note=56 velocity=85 time=116\n",
      "control_change channel=0 control=64 value=99 time=56\n",
      "control_change channel=0 control=64 value=99 time=31\n",
      "control_change channel=0 control=64 value=98 time=15\n",
      "control_change channel=0 control=64 value=97 time=15\n",
      "note_on channel=0 note=72 velocity=99 time=3\n",
      "control_change channel=0 control=64 value=95 time=12\n",
      "control_change channel=0 control=64 value=91 time=16\n",
      "note_on channel=0 note=67 velocity=0 time=11\n",
      "control_change channel=0 control=64 value=87 time=5\n",
      "control_change channel=0 control=64 value=82 time=15\n",
      "note_on channel=0 note=56 velocity=0 time=9\n",
      "control_change channel=0 control=64 value=75 time=7\n",
      "control_change channel=0 control=64 value=66 time=14\n",
      "control_change channel=0 control=64 value=0 time=15\n",
      "note_on channel=0 note=60 velocity=68 time=59\n",
      "note_on channel=0 note=61 velocity=79 time=152\n",
      "note_on channel=0 note=60 velocity=0 time=6\n",
      "control_change channel=0 control=64 value=41 time=49\n",
      "control_change channel=0 control=64 value=60 time=15\n",
      "control_change channel=0 control=64 value=65 time=16\n",
      "control_change channel=0 control=64 value=68 time=15\n",
      "control_change channel=0 control=64 value=71 time=16\n",
      "control_change channel=0 control=64 value=74 time=15\n",
      "control_change channel=0 control=64 value=77 time=15\n",
      "note_on channel=0 note=61 velocity=0 time=6\n",
      "note_on channel=0 note=63 velocity=80 time=0\n",
      "control_change channel=0 control=64 value=79 time=10\n",
      "control_change channel=0 control=64 value=81 time=14\n",
      "control_change channel=0 control=64 value=82 time=15\n",
      "control_change channel=0 control=64 value=82 time=16\n",
      "note_on channel=0 note=63 velocity=0 time=40\n",
      "note_on channel=0 note=61 velocity=73 time=61\n",
      "note_on channel=0 note=65 velocity=91 time=13\n",
      "note_on channel=0 note=61 velocity=0 time=109\n",
      "note_on channel=0 note=60 velocity=73 time=36\n",
      "note_on channel=0 note=65 velocity=0 time=6\n",
      "note_on channel=0 note=72 velocity=0 time=50\n",
      "note_on channel=0 note=60 velocity=0 time=76\n",
      "note_on channel=0 note=58 velocity=76 time=28\n",
      "note_on channel=0 note=56 velocity=77 time=135\n",
      "note_on channel=0 note=58 velocity=0 time=11\n",
      "control_change channel=0 control=64 value=82 time=81\n",
      "control_change channel=0 control=64 value=81 time=45\n",
      "note_on channel=0 note=56 velocity=0 time=12\n",
      "control_change channel=0 control=64 value=81 time=3\n",
      "control_change channel=0 control=64 value=80 time=16\n",
      "note_on channel=0 note=55 velocity=80 time=3\n",
      "note_on channel=0 note=70 velocity=98 time=5\n",
      "control_change channel=0 control=64 value=78 time=7\n",
      "control_change channel=0 control=64 value=74 time=16\n",
      "control_change channel=0 control=64 value=67 time=14\n",
      "control_change channel=0 control=64 value=55 time=15\n",
      "control_change channel=0 control=64 value=0 time=16\n",
      "note_on channel=0 note=55 velocity=0 time=83\n",
      "note_on channel=0 note=52 velocity=84 time=1\n",
      "note_on channel=0 note=53 velocity=84 time=170\n",
      "note_on channel=0 note=74 velocity=93 time=1\n",
      "note_on channel=0 note=52 velocity=0 time=4\n",
      "note_on channel=0 note=53 velocity=0 time=142\n",
      "note_on channel=0 note=55 velocity=81 time=7\n",
      "note_on channel=0 note=53 velocity=87 time=172\n",
      "note_on channel=0 note=55 velocity=0 time=2\n",
      "note_on channel=0 note=76 velocity=87 time=5\n",
      "note_on channel=0 note=74 velocity=0 time=27\n",
      "note_on channel=0 note=52 velocity=78 time=141\n",
      "note_on channel=0 note=53 velocity=0 time=29\n",
      "note_on channel=0 note=50 velocity=81 time=143\n",
      "note_on channel=0 note=52 velocity=0 time=6\n",
      "note_on channel=0 note=48 velocity=81 time=152\n",
      "note_on channel=0 note=50 velocity=0 time=8\n",
      "note_on channel=0 note=53 velocity=72 time=186\n",
      "note_on channel=0 note=77 velocity=83 time=17\n",
      "note_on channel=0 note=76 velocity=0 time=28\n",
      "note_on channel=0 note=48 velocity=0 time=15\n",
      "note_on channel=0 note=70 velocity=0 time=119\n",
      "note_on channel=0 note=72 velocity=79 time=38\n",
      "note_on channel=0 note=77 velocity=0 time=40\n",
      "note_on channel=0 note=73 velocity=84 time=115\n",
      "note_on channel=0 note=68 velocity=81 time=2\n",
      "note_on channel=0 note=72 velocity=0 time=8\n",
      "note_on channel=0 note=73 velocity=0 time=133\n",
      "note_on channel=0 note=75 velocity=86 time=0\n",
      "note_on channel=0 note=75 velocity=0 time=139\n",
      "note_on channel=0 note=73 velocity=80 time=14\n",
      "note_on channel=0 note=68 velocity=0 time=13\n",
      "note_on channel=0 note=53 velocity=0 time=133\n",
      "note_on channel=0 note=72 velocity=73 time=26\n",
      "note_on channel=0 note=56 velocity=55 time=13\n",
      "note_on channel=0 note=72 velocity=0 time=131\n",
      "note_on channel=0 note=56 velocity=0 time=9\n",
      "note_on channel=0 note=70 velocity=71 time=5\n",
      "note_on channel=0 note=58 velocity=67 time=13\n",
      "note_on channel=0 note=70 velocity=0 time=109\n",
      "note_on channel=0 note=58 velocity=0 time=28\n",
      "note_on channel=0 note=68 velocity=76 time=16\n",
      "note_on channel=0 note=60 velocity=62 time=3\n",
      "note_on channel=0 note=68 velocity=0 time=114\n",
      "note_on channel=0 note=60 velocity=0 time=21\n",
      "note_on channel=0 note=58 velocity=65 time=23\n",
      "note_on channel=0 note=67 velocity=71 time=0\n",
      "note_on channel=0 note=58 velocity=0 time=149\n",
      "note_on channel=0 note=56 velocity=66 time=12\n",
      "note_on channel=0 note=56 velocity=0 time=121\n",
      "note_on channel=0 note=55 velocity=63 time=46\n",
      "note_on channel=0 note=55 velocity=0 time=145\n",
      "note_on channel=0 note=53 velocity=64 time=11\n",
      "note_on channel=0 note=53 velocity=0 time=128\n",
      "note_on channel=0 note=73 velocity=0 time=22\n",
      "note_on channel=0 note=55 velocity=40 time=6\n",
      "note_on channel=0 note=51 velocity=60 time=2\n",
      "note_on channel=0 note=72 velocity=79 time=11\n",
      "control_change channel=0 control=64 value=50 time=12\n",
      "note_on channel=0 note=67 velocity=0 time=6\n",
      "control_change channel=0 control=64 value=63 time=10\n",
      "control_change channel=0 control=64 value=68 time=14\n",
      "control_change channel=0 control=64 value=72 time=16\n",
      "control_change channel=0 control=64 value=77 time=15\n",
      "control_change channel=0 control=64 value=81 time=15\n",
      "control_change channel=0 control=64 value=83 time=16\n",
      "control_change channel=0 control=64 value=85 time=14\n",
      "control_change channel=0 control=64 value=86 time=15\n",
      "note_on channel=0 note=51 velocity=0 time=0\n",
      "control_change channel=0 control=64 value=88 time=16\n",
      "note_on channel=0 note=48 velocity=72 time=5\n",
      "note_on channel=0 note=55 velocity=0 time=3\n",
      "control_change channel=0 control=64 value=89 time=7\n",
      "control_change channel=0 control=64 value=90 time=16\n",
      "control_change channel=0 control=64 value=91 time=15\n",
      "note_on channel=0 note=72 velocity=0 time=25\n",
      "note_on channel=0 note=48 velocity=0 time=65\n",
      "note_on channel=0 note=49 velocity=71 time=29\n",
      "note_on channel=0 note=51 velocity=77 time=157\n",
      "note_on channel=0 note=49 velocity=0 time=15\n",
      "control_change channel=0 control=64 value=90 time=127\n",
      "note_on channel=0 note=51 velocity=0 time=10\n",
      "control_change channel=0 control=64 value=88 time=6\n",
      "control_change channel=0 control=64 value=84 time=15\n",
      "note_on channel=0 note=49 velocity=71 time=0\n",
      "note_on channel=0 note=77 velocity=105 time=5\n",
      "control_change channel=0 control=64 value=79 time=11\n",
      "control_change channel=0 control=64 value=71 time=14\n",
      "control_change channel=0 control=64 value=57 time=15\n",
      "control_change channel=0 control=64 value=0 time=16\n",
      "note_on channel=0 note=48 velocity=71 time=115\n",
      "note_on channel=0 note=80 velocity=93 time=8\n",
      "note_on channel=0 note=48 velocity=0 time=137\n",
      "note_on channel=0 note=46 velocity=73 time=4\n",
      "note_on channel=0 note=82 velocity=90 time=6\n",
      "note_on channel=0 note=80 velocity=0 time=3\n",
      "note_on channel=0 note=49 velocity=0 time=57\n",
      "note_on channel=0 note=46 velocity=0 time=81\n",
      "note_on channel=0 note=44 velocity=73 time=4\n",
      "note_on channel=0 note=84 velocity=87 time=1\n",
      "note_on channel=0 note=82 velocity=0 time=21\n",
      "note_on channel=0 note=84 velocity=0 time=119\n",
      "note_on channel=0 note=44 velocity=0 time=13\n",
      "note_on channel=0 note=49 velocity=83 time=16\n",
      "note_on channel=0 note=82 velocity=89 time=2\n",
      "control_change channel=0 control=64 value=47 time=14\n",
      "control_change channel=0 control=64 value=66 time=14\n",
      "control_change channel=0 control=64 value=72 time=16\n",
      "control_change channel=0 control=64 value=79 time=15\n",
      "control_change channel=0 control=64 value=85 time=14\n",
      "control_change channel=0 control=64 value=89 time=16\n",
      "note_on channel=0 note=77 velocity=0 time=1\n",
      "control_change channel=0 control=64 value=91 time=14\n",
      "control_change channel=0 control=64 value=94 time=15\n",
      "control_change channel=0 control=64 value=96 time=16\n",
      "control_change channel=0 control=64 value=98 time=15\n",
      "note_on channel=0 note=80 velocity=89 time=9\n",
      "note_on channel=0 note=49 velocity=0 time=2\n",
      "control_change channel=0 control=64 value=100 time=5\n",
      "control_change channel=0 control=64 value=102 time=14\n",
      "control_change channel=0 control=64 value=103 time=15\n",
      "note_on channel=0 note=82 velocity=0 time=4\n",
      "control_change channel=0 control=64 value=104 time=12\n",
      "control_change channel=0 control=64 value=105 time=14\n",
      "control_change channel=0 control=64 value=105 time=15\n",
      "control_change channel=0 control=64 value=106 time=47\n",
      "note_on channel=0 note=49 velocity=95 time=33\n",
      "note_on channel=0 note=79 velocity=91 time=1\n",
      "note_on channel=0 note=80 velocity=0 time=33\n",
      "note_on channel=0 note=79 velocity=0 time=47\n",
      "note_on channel=0 note=77 velocity=79 time=61\n",
      "note_on channel=0 note=49 velocity=0 time=24\n",
      "note_on channel=0 note=77 velocity=0 time=119\n",
      "control_change channel=0 control=64 value=104 time=16\n",
      "note_on channel=0 note=49 velocity=92 time=18\n",
      "control_change channel=0 control=64 value=101 time=4\n",
      "note_on channel=0 note=80 velocity=91 time=4\n",
      "note_on channel=0 note=75 velocity=84 time=2\n",
      "control_change channel=0 control=64 value=94 time=9\n",
      "note_on channel=0 note=77 velocity=25 time=9\n",
      "control_change channel=0 control=64 value=84 time=6\n",
      "control_change channel=0 control=64 value=71 time=16\n",
      "note_on channel=0 note=77 velocity=0 time=13\n",
      "control_change channel=0 control=64 value=0 time=2\n",
      "note_on channel=0 note=80 velocity=0 time=61\n",
      "note_on channel=0 note=79 velocity=88 time=39\n",
      "note_on channel=0 note=75 velocity=0 time=50\n",
      "note_on channel=0 note=79 velocity=0 time=60\n",
      "note_on channel=0 note=77 velocity=88 time=43\n",
      "control_change channel=0 control=64 value=29 time=22\n",
      "control_change channel=0 control=64 value=59 time=15\n",
      "control_change channel=0 control=64 value=64 time=16\n",
      "control_change channel=0 control=64 value=67 time=14\n",
      "control_change channel=0 control=64 value=69 time=15\n",
      "control_change channel=0 control=64 value=71 time=16\n",
      "note_on channel=0 note=77 velocity=0 time=4\n",
      "control_change channel=0 control=64 value=74 time=11\n",
      "control_change channel=0 control=64 value=76 time=16\n",
      "control_change channel=0 control=64 value=79 time=15\n",
      "note_on channel=0 note=75 velocity=84 time=0\n",
      "control_change channel=0 control=64 value=80 time=15\n",
      "control_change channel=0 control=64 value=81 time=16\n",
      "control_change channel=0 control=64 value=81 time=14\n",
      "control_change channel=0 control=64 value=82 time=15\n",
      "control_change channel=0 control=64 value=83 time=16\n",
      "control_change channel=0 control=64 value=84 time=15\n",
      "control_change channel=0 control=64 value=84 time=15\n",
      "note_on channel=0 note=49 velocity=0 time=44\n",
      "note_on channel=0 note=48 velocity=73 time=21\n",
      "note_on channel=0 note=80 velocity=96 time=0\n",
      "control_change channel=0 control=64 value=81 time=11\n",
      "control_change channel=0 control=64 value=72 time=15\n",
      "control_change channel=0 control=64 value=51 time=15\n",
      "note_on channel=0 note=75 velocity=0 time=5\n",
      "control_change channel=0 control=64 value=0 time=11\n",
      "note_on channel=0 note=75 velocity=66 time=116\n",
      "note_on channel=0 note=77 velocity=71 time=149\n",
      "note_on channel=0 note=75 velocity=0 time=12\n",
      "note_on channel=0 note=78 velocity=72 time=131\n",
      "note_on channel=0 note=77 velocity=0 time=37\n",
      "note_on channel=0 note=78 velocity=0 time=66\n",
      "note_on channel=0 note=48 velocity=0 time=53\n",
      "note_on channel=0 note=49 velocity=58 time=11\n",
      "note_on channel=0 note=77 velocity=73 time=7\n",
      "control_change channel=0 control=64 value=21 time=19\n",
      "control_change channel=0 control=64 value=57 time=15\n",
      "control_change channel=0 control=64 value=64 time=15\n",
      "control_change channel=0 control=64 value=68 time=15\n",
      "control_change channel=0 control=64 value=73 time=15\n",
      "control_change channel=0 control=64 value=78 time=16\n",
      "control_change channel=0 control=64 value=82 time=15\n",
      "control_change channel=0 control=64 value=84 time=15\n",
      "control_change channel=0 control=64 value=86 time=15\n",
      "note_on channel=0 note=75 velocity=72 time=13\n",
      "control_change channel=0 control=64 value=87 time=2\n",
      "control_change channel=0 control=64 value=90 time=15\n",
      "control_change channel=0 control=64 value=92 time=16\n",
      "control_change channel=0 control=64 value=93 time=15\n",
      "control_change channel=0 control=64 value=95 time=15\n",
      "control_change channel=0 control=64 value=96 time=15\n",
      "note_on channel=0 note=49 velocity=0 time=7\n",
      "control_change channel=0 control=64 value=96 time=8\n",
      "control_change channel=0 control=64 value=97 time=23\n",
      "control_change channel=0 control=64 value=97 time=28\n",
      "note_on channel=0 note=73 velocity=71 time=13\n",
      "control_change channel=0 control=64 value=98 time=18\n",
      "note_on channel=0 note=77 velocity=0 time=11\n",
      "note_on channel=0 note=80 velocity=0 time=27\n",
      "control_change channel=0 control=64 value=98 time=38\n",
      "note_on channel=0 note=75 velocity=0 time=8\n",
      "note_on channel=0 note=73 velocity=0 time=20\n",
      "note_on channel=0 note=72 velocity=69 time=24\n",
      "control_change channel=0 control=64 value=97 time=131\n",
      "control_change channel=0 control=64 value=93 time=15\n",
      "control_change channel=0 control=64 value=84 time=15\n",
      "note_on channel=0 note=51 velocity=64 time=9\n",
      "note_on channel=0 note=79 velocity=80 time=4\n",
      "note_on channel=0 note=70 velocity=70 time=1\n",
      "control_change channel=0 control=64 value=71 time=2\n",
      "control_change channel=0 control=64 value=20 time=14\n",
      "note_on channel=0 note=72 velocity=0 time=13\n",
      "control_change channel=0 control=64 value=0 time=3\n",
      "control_change channel=0 control=64 value=28 time=46\n",
      "control_change channel=0 control=64 value=63 time=14\n",
      "control_change channel=0 control=64 value=69 time=16\n",
      "control_change channel=0 control=64 value=75 time=15\n",
      "control_change channel=0 control=64 value=81 time=15\n",
      "control_change channel=0 control=64 value=85 time=15\n",
      "note_on channel=0 note=58 velocity=78 time=0\n",
      "note_on channel=0 note=51 velocity=0 time=12\n",
      "control_change channel=0 control=64 value=88 time=3\n",
      "note_on channel=0 note=79 velocity=0 time=11\n",
      "control_change channel=0 control=64 value=90 time=4\n",
      "control_change channel=0 control=64 value=92 time=16\n",
      "note_on channel=0 note=70 velocity=0 time=4\n",
      "control_change channel=0 control=64 value=95 time=11\n",
      "control_change channel=0 control=64 value=98 time=15\n",
      "control_change channel=0 control=64 value=101 time=15\n",
      "control_change channel=0 control=64 value=104 time=15\n",
      "control_change channel=0 control=64 value=106 time=16\n",
      "control_change channel=0 control=64 value=107 time=15\n",
      "note_on channel=0 note=58 velocity=0 time=9\n",
      "control_change channel=0 control=64 value=108 time=6\n",
      "note_on channel=0 note=60 velocity=84 time=7\n",
      "control_change channel=0 control=64 value=109 time=9\n",
      "control_change channel=0 control=64 value=110 time=15\n",
      "control_change channel=0 control=64 value=111 time=15\n",
      "control_change channel=0 control=64 value=112 time=15\n",
      "control_change channel=0 control=64 value=113 time=15\n",
      "control_change channel=0 control=64 value=113 time=23\n",
      "control_change channel=0 control=64 value=114 time=15\n",
      "control_change channel=0 control=64 value=115 time=15\n",
      "note_on channel=0 note=60 velocity=0 time=4\n",
      "control_change channel=0 control=64 value=115 time=11\n",
      "note_on channel=0 note=61 velocity=84 time=14\n",
      "control_change channel=0 control=64 value=116 time=32\n",
      "control_change channel=0 control=64 value=116 time=16\n",
      "control_change channel=0 control=64 value=115 time=60\n",
      "note_on channel=0 note=61 velocity=0 time=0\n",
      "control_change channel=0 control=64 value=112 time=15\n",
      "control_change channel=0 control=64 value=105 time=16\n",
      "control_change channel=0 control=64 value=89 time=15\n",
      "note_on channel=0 note=60 velocity=79 time=3\n",
      "note_on channel=0 note=80 velocity=93 time=0\n",
      "note_on channel=0 note=56 velocity=79 time=2\n",
      "control_change channel=0 control=64 value=69 time=11\n",
      "control_change channel=0 control=64 value=0 time=15\n",
      "control_change channel=0 control=64 value=32 time=76\n",
      "control_change channel=0 control=64 value=64 time=15\n",
      "control_change channel=0 control=64 value=71 time=16\n",
      "control_change channel=0 control=64 value=81 time=15\n",
      "note_on channel=0 note=70 velocity=89 time=3\n",
      "control_change channel=0 control=64 value=91 time=11\n",
      "control_change channel=0 control=64 value=99 time=16\n",
      "note_on channel=0 note=80 velocity=0 time=5\n",
      "control_change channel=0 control=64 value=106 time=10\n",
      "control_change channel=0 control=64 value=109 time=16\n",
      "control_change channel=0 control=64 value=111 time=15\n",
      "control_change channel=0 control=64 value=114 time=14\n",
      "control_change channel=0 control=64 value=118 time=16\n",
      "control_change channel=0 control=64 value=122 time=15\n",
      "control_change channel=0 control=64 value=127 time=14\n",
      "note_on channel=0 note=72 velocity=88 time=22\n",
      "note_on channel=0 note=75 velocity=87 time=0\n",
      "note_on channel=0 note=60 velocity=0 time=10\n",
      "note_on channel=0 note=70 velocity=0 time=19\n",
      "note_on channel=0 note=56 velocity=0 time=24\n",
      "note_on channel=0 note=72 velocity=0 time=35\n",
      "note_on channel=0 note=75 velocity=0 time=10\n",
      "note_on channel=0 note=73 velocity=86 time=43\n",
      "note_on channel=0 note=73 velocity=0 time=103\n",
      "note_on channel=0 note=53 velocity=80 time=39\n",
      "control_change channel=0 control=64 value=108 time=68\n",
      "note_on channel=0 note=80 velocity=97 time=13\n",
      "control_change channel=0 control=64 value=88 time=2\n",
      "note_on channel=0 note=72 velocity=96 time=3\n",
      "control_change channel=0 control=64 value=61 time=13\n",
      "control_change channel=0 control=64 value=0 time=15\n",
      "control_change channel=0 control=64 value=49 time=60\n",
      "control_change channel=0 control=64 value=65 time=16\n",
      "note_on channel=0 note=53 velocity=0 time=3\n",
      "control_change channel=0 control=64 value=72 time=12\n",
      "control_change channel=0 control=64 value=81 time=16\n",
      "note_on channel=0 note=70 velocity=85 time=13\n",
      "control_change channel=0 control=64 value=91 time=2\n",
      "control_change channel=0 control=64 value=98 time=15\n",
      "control_change channel=0 control=64 value=103 time=16\n",
      "control_change channel=0 control=64 value=105 time=15\n",
      "control_change channel=0 control=64 value=108 time=16\n",
      "control_change channel=0 control=64 value=109 time=14\n",
      "control_change channel=0 control=64 value=111 time=15\n",
      "control_change channel=0 control=64 value=112 time=16\n",
      "control_change channel=0 control=64 value=113 time=30\n",
      "note_on channel=0 note=68 velocity=88 time=18\n",
      "note_on channel=0 note=68 velocity=0 time=57\n",
      "note_on channel=0 note=67 velocity=76 time=81\n",
      "note_on channel=0 note=67 velocity=0 time=82\n",
      "control_change channel=0 control=64 value=107 time=35\n",
      "control_change channel=0 control=64 value=93 time=16\n",
      "control_change channel=0 control=64 value=68 time=15\n",
      "control_change channel=0 control=64 value=0 time=15\n",
      "note_on channel=0 note=58 velocity=65 time=2\n",
      "note_on channel=0 note=65 velocity=79 time=4\n",
      "control_change channel=0 control=64 value=63 time=62\n",
      "control_change channel=0 control=64 value=71 time=15\n",
      "control_change channel=0 control=64 value=82 time=16\n",
      "control_change channel=0 control=64 value=91 time=15\n",
      "note_on channel=0 note=72 velocity=0 time=2\n",
      "note_on channel=0 note=70 velocity=0 time=12\n",
      "control_change channel=0 control=64 value=96 time=2\n",
      "note_on channel=0 note=80 velocity=0 time=7\n",
      "control_change channel=0 control=64 value=100 time=7\n",
      "note_on channel=0 note=62 velocity=78 time=14\n",
      "control_change channel=0 control=64 value=102 time=1\n",
      "note_on channel=0 note=58 velocity=0 time=9\n",
      "note_on channel=0 note=65 velocity=0 time=3\n",
      "control_change channel=0 control=64 value=104 time=4\n",
      "control_change channel=0 control=64 value=107 time=15\n",
      "control_change channel=0 control=64 value=109 time=16\n",
      "control_change channel=0 control=64 value=112 time=14\n",
      "control_change channel=0 control=64 value=114 time=15\n",
      "control_change channel=0 control=64 value=116 time=16\n",
      "control_change channel=0 control=64 value=116 time=14\n",
      "control_change channel=0 control=64 value=117 time=15\n",
      "note_on channel=0 note=63 velocity=80 time=21\n",
      "note_on channel=0 note=62 velocity=0 time=1\n",
      "note_on channel=0 note=67 velocity=86 time=8\n",
      "control_change channel=0 control=64 value=117 time=1\n",
      "control_change channel=0 control=64 value=118 time=16\n",
      "control_change channel=0 control=64 value=118 time=15\n",
      "note_on channel=0 note=67 velocity=0 time=46\n",
      "control_change channel=0 control=64 value=119 time=15\n",
      "note_on channel=0 note=65 velocity=84 time=39\n",
      "note_on channel=0 note=68 velocity=90 time=16\n",
      "note_on channel=0 note=63 velocity=0 time=12\n",
      "control_change channel=0 control=64 value=119 time=25\n",
      "note_on channel=0 note=68 velocity=0 time=24\n",
      "control_change channel=0 control=64 value=115 time=82\n",
      "control_change channel=0 control=64 value=101 time=16\n",
      "note_on channel=0 note=63 velocity=82 time=5\n",
      "note_on channel=0 note=79 velocity=93 time=9\n",
      "control_change channel=0 control=64 value=81 time=1\n",
      "note_on channel=0 note=70 velocity=95 time=1\n",
      "control_change channel=0 control=64 value=40 time=14\n",
      "note_on channel=0 note=65 velocity=0 time=3\n",
      "control_change channel=0 control=64 value=0 time=12\n",
      "control_change channel=0 control=64 value=51 time=45\n",
      "control_change channel=0 control=64 value=66 time=15\n",
      "control_change channel=0 control=64 value=75 time=16\n",
      "control_change channel=0 control=64 value=88 time=15\n",
      "control_change channel=0 control=64 value=101 time=15\n",
      "note_on channel=0 note=70 velocity=0 time=1\n",
      "control_change channel=0 control=64 value=111 time=14\n",
      "note_on channel=0 note=68 velocity=81 time=19\n",
      "control_change channel=0 control=64 value=115 time=5\n",
      "control_change channel=0 control=64 value=117 time=15\n",
      "control_change channel=0 control=64 value=118 time=15\n",
      "control_change channel=0 control=64 value=120 time=15\n",
      "control_change channel=0 control=64 value=122 time=15\n",
      "control_change channel=0 control=64 value=123 time=15\n",
      "control_change channel=0 control=64 value=125 time=16\n",
      "note_on channel=0 note=68 velocity=0 time=8\n",
      "note_on channel=0 note=79 velocity=0 time=0\n",
      "control_change channel=0 control=64 value=125 time=22\n",
      "note_on channel=0 note=63 velocity=0 time=16\n",
      "note_on channel=0 note=67 velocity=80 time=17\n",
      "note_on channel=0 note=67 velocity=0 time=135\n",
      "control_change channel=0 control=64 value=125 time=13\n",
      "note_on channel=0 note=65 velocity=81 time=7\n",
      "control_change channel=0 control=64 value=123 time=146\n",
      "control_change channel=0 control=64 value=115 time=15\n",
      "control_change channel=0 control=64 value=102 time=16\n",
      "note_on channel=0 note=84 velocity=107 time=1\n",
      "note_on channel=0 note=63 velocity=77 time=6\n",
      "control_change channel=0 control=64 value=87 time=8\n",
      "note_on channel=0 note=65 velocity=0 time=10\n",
      "control_change channel=0 control=64 value=71 time=5\n",
      "control_change channel=0 control=64 value=0 time=16\n",
      "control_change channel=0 control=64 value=43 time=76\n",
      "control_change channel=0 control=64 value=58 time=15\n",
      "note_on channel=0 note=63 velocity=0 time=11\n",
      "control_change channel=0 control=64 value=62 time=5\n",
      "note_on channel=0 note=60 velocity=73 time=5\n",
      "control_change channel=0 control=64 value=65 time=9\n",
      "control_change channel=0 control=64 value=68 time=15\n",
      "control_change channel=0 control=64 value=71 time=16\n",
      "control_change channel=0 control=64 value=74 time=15\n",
      "control_change channel=0 control=64 value=76 time=15\n",
      "control_change channel=0 control=64 value=77 time=15\n",
      "note_on channel=0 note=60 velocity=0 time=67\n",
      "control_change channel=0 control=64 value=78 time=1\n",
      "note_on channel=0 note=65 velocity=75 time=5\n",
      "note_on channel=0 note=61 velocity=69 time=6\n",
      "note_on channel=0 note=65 velocity=0 time=79\n",
      "control_change channel=0 control=64 value=78 time=2\n",
      "control_change channel=0 control=64 value=79 time=46\n",
      "note_on channel=0 note=63 velocity=76 time=8\n",
      "note_on channel=0 note=67 velocity=66 time=1\n",
      "control_change channel=0 control=64 value=80 time=5\n",
      "control_change channel=0 control=64 value=81 time=16\n",
      "note_on channel=0 note=67 velocity=0 time=10\n",
      "control_change channel=0 control=64 value=81 time=5\n",
      "control_change channel=0 control=64 value=82 time=15\n",
      "note_on channel=0 note=61 velocity=0 time=7\n",
      "note_on channel=0 note=63 velocity=0 time=4\n",
      "control_change channel=0 control=64 value=82 time=19\n",
      "control_change channel=0 control=64 value=82 time=45\n",
      "control_change channel=0 control=64 value=76 time=16\n",
      "control_change channel=0 control=64 value=63 time=15\n",
      "note_on channel=0 note=61 velocity=76 time=4\n",
      "note_on channel=0 note=68 velocity=84 time=1\n",
      "control_change channel=0 control=64 value=0 time=10\n",
      "control_change channel=0 control=64 value=60 time=76\n",
      "control_change channel=0 control=64 value=67 time=17\n",
      "control_change channel=0 control=64 value=71 time=15\n",
      "control_change channel=0 control=64 value=77 time=16\n",
      "control_change channel=0 control=64 value=82 time=14\n",
      "note_on channel=0 note=60 velocity=71 time=6\n",
      "note_on channel=0 note=61 velocity=0 time=1\n",
      "note_on channel=0 note=68 velocity=0 time=6\n",
      "control_change channel=0 control=64 value=83 time=2\n",
      "control_change channel=0 control=64 value=84 time=30\n",
      "control_change channel=0 control=64 value=84 time=15\n",
      "control_change channel=0 control=64 value=85 time=16\n",
      "control_change channel=0 control=64 value=86 time=15\n",
      "control_change channel=0 control=64 value=86 time=16\n",
      "control_change channel=0 control=64 value=87 time=14\n",
      "note_on channel=0 note=60 velocity=0 time=21\n",
      "note_on channel=0 note=68 velocity=76 time=9\n",
      "control_change channel=0 control=64 value=87 time=1\n",
      "note_on channel=0 note=58 velocity=71 time=4\n",
      "note_on channel=0 note=56 velocity=55 time=163\n",
      "note_on channel=0 note=56 velocity=0 time=24\n",
      "note_on channel=0 note=58 velocity=0 time=5\n",
      "note_on channel=0 note=68 velocity=0 time=39\n",
      "note_on channel=0 note=63 velocity=67 time=102\n",
      "note_on channel=0 note=84 velocity=0 time=11\n",
      "note_on channel=0 note=68 velocity=66 time=2\n",
      "note_on channel=0 note=82 velocity=92 time=41\n",
      "control_change channel=0 control=64 value=86 time=25\n",
      "control_change channel=0 control=64 value=84 time=15\n",
      "control_change channel=0 control=64 value=79 time=16\n",
      "control_change channel=0 control=64 value=73 time=14\n",
      "control_change channel=0 control=64 value=64 time=16\n",
      "control_change channel=0 control=64 value=0 time=15\n",
      "note_on channel=0 note=68 velocity=0 time=43\n",
      "note_on channel=0 note=67 velocity=66 time=6\n",
      "note_on channel=0 note=67 velocity=0 time=168\n",
      "note_on channel=0 note=68 velocity=70 time=7\n",
      "note_on channel=0 note=68 velocity=0 time=131\n",
      "note_on channel=0 note=70 velocity=68 time=16\n",
      "note_on channel=0 note=70 velocity=0 time=106\n",
      "note_on channel=0 note=72 velocity=62 time=96\n",
      "note_on channel=0 note=82 velocity=0 time=97\n",
      "note_on channel=0 note=82 velocity=63 time=66\n",
      "note_on channel=0 note=80 velocity=73 time=160\n",
      "note_on channel=0 note=82 velocity=0 time=35\n",
      "note_on channel=0 note=79 velocity=78 time=123\n",
      "note_on channel=0 note=80 velocity=0 time=74\n",
      "note_on channel=0 note=63 velocity=0 time=55\n",
      "note_on channel=0 note=62 velocity=49 time=58\n",
      "note_on channel=0 note=77 velocity=70 time=4\n",
      "note_on channel=0 note=79 velocity=0 time=81\n",
      "note_on channel=0 note=72 velocity=0 time=36\n",
      "note_on channel=0 note=79 velocity=66 time=215\n",
      "note_on channel=0 note=77 velocity=0 time=25\n",
      "note_on channel=0 note=80 velocity=72 time=126\n",
      "note_on channel=0 note=79 velocity=0 time=7\n",
      "note_on channel=0 note=70 velocity=58 time=163\n",
      "note_on channel=0 note=79 velocity=67 time=0\n",
      "note_on channel=0 note=80 velocity=0 time=11\n",
      "note_on channel=0 note=79 velocity=0 time=106\n",
      "note_on channel=0 note=77 velocity=66 time=49\n",
      "note_on channel=0 note=77 velocity=0 time=109\n",
      "note_on channel=0 note=75 velocity=63 time=40\n",
      "note_on channel=0 note=62 velocity=0 time=88\n",
      "note_on channel=0 note=75 velocity=0 time=13\n",
      "note_on channel=0 note=74 velocity=62 time=45\n",
      "note_on channel=0 note=74 velocity=0 time=169\n",
      "note_on channel=0 note=75 velocity=64 time=1\n",
      "note_on channel=0 note=70 velocity=0 time=75\n",
      "note_on channel=0 note=60 velocity=52 time=81\n",
      "note_on channel=0 note=60 velocity=0 time=112\n",
      "note_on channel=0 note=77 velocity=61 time=39\n",
      "note_on channel=0 note=61 velocity=51 time=10\n",
      "note_on channel=0 note=61 velocity=0 time=117\n",
      "note_on channel=0 note=63 velocity=60 time=21\n",
      "note_on channel=0 note=79 velocity=66 time=12\n",
      "note_on channel=0 note=77 velocity=0 time=7\n",
      "note_on channel=0 note=63 velocity=0 time=138\n",
      "note_on channel=0 note=61 velocity=58 time=17\n",
      "note_on channel=0 note=80 velocity=71 time=6\n",
      "note_on channel=0 note=79 velocity=0 time=4\n",
      "note_on channel=0 note=61 velocity=0 time=111\n",
      "note_on channel=0 note=60 velocity=59 time=33\n",
      "note_on channel=0 note=80 velocity=0 time=5\n",
      "note_on channel=0 note=60 velocity=0 time=140\n",
      "note_on channel=0 note=58 velocity=59 time=28\n",
      "note_on channel=0 note=80 velocity=52 time=2\n",
      "note_on channel=0 note=58 velocity=0 time=139\n",
      "note_on channel=0 note=56 velocity=59 time=15\n",
      "note_on channel=0 note=56 velocity=0 time=73\n",
      "note_on channel=0 note=80 velocity=0 time=5\n",
      "note_on channel=0 note=74 velocity=48 time=91\n",
      "note_on channel=0 note=58 velocity=38 time=5\n",
      "note_on channel=0 note=75 velocity=0 time=6\n",
      "note_on channel=0 note=46 velocity=40 time=24\n",
      "note_on channel=0 note=79 velocity=58 time=132\n",
      "note_on channel=0 note=80 velocity=62 time=158\n",
      "note_on channel=0 note=79 velocity=0 time=7\n",
      "note_on channel=0 note=74 velocity=0 time=135\n",
      "note_on channel=0 note=82 velocity=52 time=19\n",
      "note_on channel=0 note=80 velocity=0 time=17\n",
      "note_on channel=0 note=80 velocity=56 time=136\n",
      "note_on channel=0 note=51 velocity=29 time=12\n",
      "note_on channel=0 note=75 velocity=45 time=12\n",
      "note_on channel=0 note=82 velocity=0 time=9\n",
      "note_on channel=0 note=46 velocity=0 time=37\n",
      "note_on channel=0 note=75 velocity=0 time=88\n",
      "note_on channel=0 note=79 velocity=59 time=6\n",
      "note_on channel=0 note=58 velocity=0 time=9\n",
      "note_on channel=0 note=80 velocity=0 time=77\n",
      "control_change channel=0 control=64 value=21 time=2\n",
      "control_change channel=0 control=64 value=41 time=15\n",
      "control_change channel=0 control=64 value=52 time=14\n",
      "control_change channel=0 control=64 value=61 time=16\n",
      "control_change channel=0 control=64 value=64 time=15\n",
      "control_change channel=0 control=64 value=65 time=15\n",
      "note_on channel=0 note=77 velocity=61 time=12\n",
      "note_on channel=0 note=79 velocity=0 time=0\n",
      "control_change channel=0 control=64 value=67 time=4\n",
      "control_change channel=0 control=64 value=68 time=14\n",
      "control_change channel=0 control=64 value=70 time=16\n",
      "control_change channel=0 control=64 value=72 time=15\n",
      "control_change channel=0 control=64 value=73 time=15\n",
      "control_change channel=0 control=64 value=74 time=16\n",
      "control_change channel=0 control=64 value=75 time=15\n",
      "control_change channel=0 control=64 value=75 time=15\n",
      "note_on channel=0 note=77 velocity=0 time=7\n",
      "control_change channel=0 control=64 value=76 time=8\n",
      "control_change channel=0 control=64 value=76 time=15\n",
      "control_change channel=0 control=64 value=77 time=16\n",
      "note_on channel=0 note=75 velocity=60 time=1\n",
      "control_change channel=0 control=64 value=77 time=29\n",
      "note_on channel=0 note=75 velocity=0 time=79\n",
      "control_change channel=0 control=64 value=77 time=81\n",
      "note_on channel=0 note=56 velocity=29 time=12\n",
      "control_change channel=0 control=64 value=76 time=18\n",
      "control_change channel=0 control=64 value=75 time=15\n",
      "control_change channel=0 control=64 value=74 time=16\n",
      "control_change channel=0 control=64 value=73 time=15\n",
      "note_on channel=0 note=72 velocity=42 time=2\n",
      "note_on channel=0 note=77 velocity=43 time=2\n",
      "control_change channel=0 control=64 value=70 time=12\n",
      "control_change channel=0 control=64 value=66 time=14\n",
      "control_change channel=0 control=64 value=61 time=15\n",
      "control_change channel=0 control=64 value=46 time=16\n",
      "control_change channel=0 control=64 value=0 time=15\n",
      "note_on channel=0 note=79 velocity=51 time=261\n",
      "note_on channel=0 note=77 velocity=0 time=23\n",
      "control_change channel=0 control=67 value=20 time=51\n",
      "control_change channel=0 control=67 value=36 time=15\n",
      "control_change channel=0 control=67 value=58 time=14\n",
      "control_change channel=0 control=67 value=77 time=16\n",
      "control_change channel=0 control=67 value=95 time=15\n",
      "control_change channel=0 control=67 value=112 time=15\n",
      "note_on channel=0 note=80 velocity=64 time=8\n",
      "control_change channel=0 control=67 value=126 time=7\n",
      "note_on channel=0 note=79 velocity=0 time=1\n",
      "control_change channel=0 control=67 value=127 time=14\n",
      "note_on channel=0 note=51 velocity=0 time=105\n",
      "note_on channel=0 note=82 velocity=67 time=56\n",
      "note_on channel=0 note=72 velocity=0 time=10\n",
      "note_on channel=0 note=50 velocity=17 time=4\n",
      "note_on channel=0 note=80 velocity=0 time=7\n",
      "note_on channel=0 note=56 velocity=0 time=97\n",
      "note_on channel=0 note=53 velocity=48 time=47\n",
      "note_on channel=0 note=80 velocity=70 time=2\n",
      "note_on channel=0 note=82 velocity=0 time=49\n",
      "note_on channel=0 note=53 velocity=0 time=76\n",
      "note_on channel=0 note=55 velocity=55 time=26\n",
      "note_on channel=0 note=79 velocity=72 time=5\n",
      "note_on channel=0 note=80 velocity=0 time=5\n",
      "control_change channel=0 control=64 value=34 time=53\n",
      "control_change channel=0 control=64 value=50 time=15\n",
      "control_change channel=0 control=64 value=58 time=14\n",
      "control_change channel=0 control=64 value=63 time=16\n",
      "note_on channel=0 note=79 velocity=0 time=4\n",
      "note_on channel=0 note=50 velocity=0 time=7\n",
      "control_change channel=0 control=64 value=65 time=4\n",
      "note_on channel=0 note=55 velocity=0 time=0\n",
      "control_change channel=0 control=64 value=68 time=15\n",
      "note_on channel=0 note=77 velocity=67 time=9\n",
      "control_change channel=0 control=64 value=71 time=6\n",
      "note_on channel=0 note=56 velocity=53 time=8\n",
      "control_change channel=0 control=64 value=74 time=7\n",
      "note_on channel=0 note=77 velocity=0 time=11\n",
      "control_change channel=0 control=64 value=76 time=5\n",
      "control_change channel=0 control=64 value=77 time=15\n",
      "control_change channel=0 control=64 value=76 time=45\n",
      "note_on channel=0 note=56 velocity=0 time=10\n",
      "control_change channel=0 control=64 value=75 time=6\n",
      "control_change channel=0 control=64 value=74 time=15\n",
      "control_change channel=0 control=64 value=70 time=14\n",
      "control_change channel=0 control=64 value=65 time=16\n",
      "control_change channel=0 control=64 value=58 time=15\n",
      "note_on channel=0 note=58 velocity=46 time=0\n",
      "note_on channel=0 note=75 velocity=62 time=6\n",
      "control_change channel=0 control=64 value=42 time=17\n",
      "note_on channel=0 note=55 velocity=28 time=7\n",
      "control_change channel=0 control=64 value=18 time=8\n",
      "control_change channel=0 control=64 value=0 time=15\n",
      "note_on channel=0 note=75 velocity=0 time=124\n",
      "note_on channel=0 note=74 velocity=61 time=2\n",
      "note_on channel=0 note=74 velocity=0 time=148\n",
      "note_on channel=0 note=72 velocity=60 time=18\n",
      "note_on channel=0 note=72 velocity=0 time=139\n",
      "note_on channel=0 note=70 velocity=57 time=21\n",
      "note_on channel=0 note=70 velocity=0 time=145\n",
      "note_on channel=0 note=58 velocity=0 time=16\n",
      "note_on channel=0 note=75 velocity=54 time=2\n",
      "control_change channel=0 control=64 value=37 time=56\n",
      "control_change channel=0 control=64 value=46 time=15\n",
      "control_change channel=0 control=64 value=51 time=15\n",
      "control_change channel=0 control=64 value=54 time=15\n",
      "control_change channel=0 control=64 value=56 time=22\n",
      "control_change channel=0 control=64 value=57 time=15\n",
      "note_on channel=0 note=75 velocity=0 time=6\n",
      "note_on channel=0 note=67 velocity=46 time=7\n",
      "control_change channel=0 control=64 value=58 time=3\n",
      "note_on channel=0 note=58 velocity=43 time=2\n",
      "control_change channel=0 control=64 value=57 time=44\n",
      "control_change channel=0 control=64 value=57 time=61\n",
      "control_change channel=0 control=64 value=56 time=15\n",
      "control_change channel=0 control=64 value=54 time=15\n",
      "note_on channel=0 note=58 velocity=0 time=5\n",
      "control_change channel=0 control=64 value=52 time=10\n",
      "note_on channel=0 note=67 velocity=0 time=12\n",
      "control_change channel=0 control=64 value=48 time=4\n",
      "note_on channel=0 note=60 velocity=47 time=9\n",
      "note_on channel=0 note=75 velocity=48 time=0\n",
      "note_on channel=0 note=68 velocity=56 time=2\n",
      "control_change channel=0 control=64 value=43 time=4\n",
      "control_change channel=0 control=64 value=36 time=16\n",
      "control_change channel=0 control=64 value=20 time=15\n",
      "control_change channel=0 control=64 value=0 time=14\n",
      "note_on channel=0 note=60 velocity=0 time=71\n",
      "note_on channel=0 note=61 velocity=52 time=34\n",
      "note_on channel=0 note=68 velocity=0 time=0\n",
      "note_on channel=0 note=70 velocity=65 time=0\n",
      "note_on channel=0 note=75 velocity=0 time=39\n",
      "note_on channel=0 note=61 velocity=0 time=91\n",
      "note_on channel=0 note=68 velocity=66 time=30\n",
      "note_on channel=0 note=60 velocity=32 time=7\n",
      "note_on channel=0 note=70 velocity=0 time=0\n",
      "note_on channel=0 note=75 velocity=63 time=2\n",
      "note_on channel=0 note=60 velocity=0 time=114\n",
      "note_on channel=0 note=68 velocity=0 time=5\n",
      "note_on channel=0 note=67 velocity=66 time=28\n",
      "note_on channel=0 note=58 velocity=40 time=8\n",
      "note_on channel=0 note=55 velocity=0 time=108\n",
      "note_on channel=0 note=58 velocity=0 time=3\n",
      "control_change channel=0 control=64 value=25 time=14\n",
      "control_change channel=0 control=64 value=41 time=16\n",
      "note_on channel=0 note=67 velocity=0 time=12\n",
      "control_change channel=0 control=64 value=52 time=3\n",
      "note_on channel=0 note=56 velocity=45 time=5\n",
      "note_on channel=0 note=65 velocity=61 time=4\n",
      "control_change channel=0 control=64 value=59 time=6\n",
      "control_change channel=0 control=64 value=62 time=16\n",
      "control_change channel=0 control=64 value=64 time=15\n",
      "control_change channel=0 control=64 value=66 time=16\n",
      "control_change channel=0 control=64 value=69 time=14\n",
      "control_change channel=0 control=64 value=72 time=15\n",
      "note_on channel=0 note=65 velocity=0 time=14\n",
      "control_change channel=0 control=64 value=74 time=2\n",
      "control_change channel=0 control=64 value=75 time=15\n",
      "note_on channel=0 note=56 velocity=0 time=4\n",
      "note_on channel=0 note=55 velocity=45 time=36\n",
      "note_on channel=0 note=63 velocity=65 time=4\n",
      "note_on channel=0 note=55 velocity=0 time=23\n",
      "note_on channel=0 note=63 velocity=0 time=54\n",
      "control_change channel=0 control=64 value=75 time=16\n",
      "control_change channel=0 control=64 value=74 time=16\n",
      "control_change channel=0 control=64 value=73 time=15\n",
      "note_on channel=0 note=75 velocity=0 time=8\n",
      "control_change channel=0 control=64 value=72 time=7\n",
      "control_change channel=0 control=64 value=69 time=15\n",
      "note_on channel=0 note=65 velocity=69 time=10\n",
      "control_change channel=0 control=64 value=65 time=5\n",
      "note_on channel=0 note=56 velocity=53 time=6\n",
      "control_change channel=0 control=64 value=62 time=10\n",
      "control_change channel=0 control=64 value=59 time=15\n",
      "control_change channel=0 control=64 value=57 time=15\n",
      "control_change channel=0 control=64 value=56 time=30\n",
      "control_change channel=0 control=64 value=55 time=15\n",
      "control_change channel=0 control=64 value=53 time=15\n",
      "control_change channel=0 control=64 value=50 time=15\n",
      "control_change channel=0 control=64 value=48 time=16\n",
      "control_change channel=0 control=64 value=46 time=15\n",
      "note_on channel=0 note=74 velocity=68 time=12\n",
      "control_change channel=0 control=64 value=44 time=4\n",
      "note_on channel=0 note=55 velocity=40 time=7\n",
      "control_change channel=0 control=64 value=43 time=7\n",
      "control_change channel=0 control=64 value=41 time=15\n",
      "control_change channel=0 control=64 value=40 time=16\n",
      "control_change channel=0 control=64 value=38 time=15\n",
      "control_change channel=0 control=64 value=38 time=15\n",
      "control_change channel=0 control=64 value=36 time=15\n",
      "control_change channel=0 control=64 value=34 time=15\n",
      "note_on channel=0 note=55 velocity=0 time=13\n",
      "control_change channel=0 control=64 value=32 time=3\n",
      "note_on channel=0 note=56 velocity=0 time=5\n",
      "control_change channel=0 control=64 value=29 time=10\n",
      "control_change channel=0 control=64 value=26 time=15\n",
      "note_on channel=0 note=75 velocity=74 time=0\n",
      "note_on channel=0 note=53 velocity=43 time=3\n",
      "note_on channel=0 note=74 velocity=0 time=7\n",
      "control_change channel=0 control=64 value=23 time=6\n",
      "control_change channel=0 control=64 value=17 time=22\n",
      "control_change channel=0 control=64 value=15 time=16\n",
      "control_change channel=0 control=64 value=13 time=14\n",
      "note_on channel=0 note=53 velocity=0 time=64\n",
      "note_on channel=0 note=77 velocity=72 time=28\n",
      "control_change channel=0 control=64 value=10 time=15\n",
      "note_on channel=0 note=75 velocity=0 time=3\n",
      "note_on channel=0 note=51 velocity=42 time=1\n",
      "note_on channel=0 note=51 velocity=0 time=129\n",
      "note_on channel=0 note=77 velocity=0 time=20\n",
      "note_on channel=0 note=70 velocity=72 time=3\n",
      "note_on channel=0 note=50 velocity=41 time=10\n",
      "note_on channel=0 note=65 velocity=0 time=57\n",
      "note_on channel=0 note=65 velocity=58 time=110\n",
      "note_on channel=0 note=65 velocity=0 time=92\n",
      "note_on channel=0 note=50 velocity=0 time=29\n",
      "note_on channel=0 note=55 velocity=30 time=32\n",
      "control_change channel=0 control=64 value=0 time=1\n",
      "note_on channel=0 note=67 velocity=49 time=4\n",
      "note_on channel=0 note=51 velocity=34 time=3\n",
      "note_on channel=0 note=51 velocity=0 time=112\n",
      "note_on channel=0 note=55 velocity=0 time=23\n",
      "note_on channel=0 note=67 velocity=0 time=1\n",
      "note_on channel=0 note=53 velocity=47 time=10\n",
      "note_on channel=0 note=68 velocity=55 time=12\n",
      "note_on channel=0 note=53 velocity=0 time=117\n",
      "note_on channel=0 note=68 velocity=0 time=16\n",
      "note_on channel=0 note=51 velocity=45 time=12\n",
      "note_on channel=0 note=67 velocity=55 time=9\n",
      "note_on channel=0 note=55 velocity=18 time=30\n",
      "note_on channel=0 note=67 velocity=0 time=78\n",
      "note_on channel=0 note=51 velocity=0 time=9\n",
      "note_on channel=0 note=65 velocity=53 time=45\n",
      "note_on channel=0 note=50 velocity=42 time=4\n",
      "note_on channel=0 note=50 velocity=0 time=124\n",
      "note_on channel=0 note=65 velocity=0 time=3\n",
      "note_on channel=0 note=63 velocity=51 time=26\n",
      "note_on channel=0 note=48 velocity=41 time=3\n",
      "note_on channel=0 note=48 velocity=0 time=56\n",
      "note_on channel=0 note=63 velocity=0 time=66\n",
      "note_on channel=0 note=61 velocity=51 time=37\n",
      "note_on channel=0 note=46 velocity=28 time=26\n",
      "note_on channel=0 note=46 velocity=0 time=74\n",
      "note_on channel=0 note=61 velocity=0 time=49\n",
      "note_on channel=0 note=60 velocity=45 time=41\n",
      "note_on channel=0 note=44 velocity=27 time=2\n",
      "note_on channel=0 note=55 velocity=0 time=160\n",
      "note_on channel=0 note=51 velocity=39 time=10\n",
      "note_on channel=0 note=51 velocity=0 time=115\n",
      "note_on channel=0 note=53 velocity=46 time=50\n",
      "note_on channel=0 note=53 velocity=0 time=114\n",
      "note_on channel=0 note=55 velocity=41 time=55\n",
      "note_on channel=0 note=55 velocity=0 time=155\n",
      "note_on channel=0 note=65 velocity=56 time=29\n",
      "note_on channel=0 note=68 velocity=61 time=0\n",
      "note_on channel=0 note=53 velocity=39 time=3\n",
      "note_on channel=0 note=60 velocity=0 time=39\n",
      "note_on channel=0 note=70 velocity=0 time=9\n",
      "note_on channel=0 note=53 velocity=0 time=51\n",
      "note_on channel=0 note=51 velocity=42 time=63\n",
      "note_on channel=0 note=44 velocity=0 time=91\n",
      "note_on channel=0 note=51 velocity=0 time=7\n",
      "note_on channel=0 note=50 velocity=37 time=62\n",
      "note_on channel=0 note=50 velocity=0 time=106\n",
      "note_on channel=0 note=48 velocity=45 time=52\n",
      "note_on channel=0 note=48 velocity=0 time=49\n",
      "control_change channel=0 control=64 value=13 time=32\n",
      "control_change channel=0 control=64 value=43 time=15\n",
      "control_change channel=0 control=64 value=54 time=16\n",
      "control_change channel=0 control=64 value=61 time=14\n",
      "control_change channel=0 control=64 value=65 time=16\n",
      "control_change channel=0 control=64 value=69 time=15\n",
      "control_change channel=0 control=64 value=74 time=15\n",
      "note_on channel=0 note=38 velocity=40 time=4\n",
      "note_on channel=0 note=46 velocity=42 time=3\n",
      "control_change channel=0 control=64 value=78 time=9\n",
      "control_change channel=0 control=64 value=80 time=14\n",
      "control_change channel=0 control=64 value=82 time=15\n",
      "note_on channel=0 note=38 velocity=0 time=2\n",
      "control_change channel=0 control=64 value=82 time=14\n",
      "control_change channel=0 control=64 value=83 time=15\n",
      "note_on channel=0 note=65 velocity=0 time=1\n",
      "note_on channel=0 note=46 velocity=0 time=16\n",
      "note_on channel=0 note=56 velocity=54 time=123\n",
      "control_change channel=0 control=64 value=82 time=4\n",
      "control_change channel=0 control=64 value=82 time=31\n",
      "control_change channel=0 control=64 value=81 time=15\n",
      "control_change channel=0 control=64 value=81 time=15\n",
      "control_change channel=0 control=64 value=80 time=16\n",
      "note_on channel=0 note=56 velocity=0 time=20\n",
      "control_change channel=0 control=64 value=79 time=9\n",
      "control_change channel=0 control=64 value=79 time=16\n",
      "control_change channel=0 control=64 value=78 time=15\n",
      "note_on channel=0 note=58 velocity=60 time=10\n",
      "control_change channel=0 control=64 value=77 time=5\n",
      "control_change channel=0 control=64 value=76 time=15\n",
      "control_change channel=0 control=64 value=75 time=15\n",
      "control_change channel=0 control=64 value=74 time=15\n",
      "note_on channel=0 note=58 velocity=0 time=2\n",
      "control_change channel=0 control=64 value=73 time=13\n",
      "control_change channel=0 control=64 value=73 time=15\n",
      "control_change channel=0 control=64 value=72 time=16\n",
      "control_change channel=0 control=64 value=71 time=15\n",
      "control_change channel=0 control=64 value=71 time=15\n",
      "control_change channel=0 control=64 value=70 time=15\n",
      "note_on channel=0 note=60 velocity=57 time=2\n",
      "control_change channel=0 control=64 value=70 time=13\n",
      "control_change channel=0 control=64 value=69 time=16\n",
      "control_change channel=0 control=64 value=69 time=29\n",
      "control_change channel=0 control=64 value=68 time=16\n",
      "control_change channel=0 control=64 value=68 time=16\n",
      "control_change channel=0 control=64 value=67 time=16\n",
      "note_on channel=0 note=60 velocity=0 time=2\n",
      "control_change channel=0 control=64 value=66 time=13\n",
      "control_change channel=0 control=64 value=64 time=14\n",
      "control_change channel=0 control=64 value=60 time=16\n",
      "control_change channel=0 control=64 value=42 time=15\n",
      "note_on channel=0 note=58 velocity=51 time=10\n",
      "control_change channel=0 control=64 value=0 time=6\n",
      "note_on channel=0 note=63 velocity=70 time=1\n",
      "note_on channel=0 note=67 velocity=73 time=1\n",
      "note_on channel=0 note=68 velocity=0 time=12\n",
      "note_on channel=0 note=51 velocity=31 time=19\n",
      "note_on channel=0 note=58 velocity=0 time=125\n",
      "note_on channel=0 note=56 velocity=59 time=12\n",
      "control_change channel=0 control=64 value=41 time=35\n",
      "control_change channel=0 control=64 value=53 time=15\n",
      "control_change channel=0 control=64 value=57 time=15\n",
      "control_change channel=0 control=64 value=60 time=15\n",
      "control_change channel=0 control=64 value=62 time=15\n",
      "control_change channel=0 control=64 value=64 time=16\n",
      "control_change channel=0 control=64 value=66 time=15\n",
      "control_change channel=0 control=67 value=121 time=0\n",
      "note_on channel=0 note=56 velocity=0 time=5\n",
      "control_change channel=0 control=64 value=67 time=10\n",
      "control_change channel=0 control=67 value=112 time=0\n",
      "note_on channel=0 note=51 velocity=0 time=7\n",
      "control_change channel=0 control=64 value=68 time=8\n",
      "control_change channel=0 control=67 value=103 time=0\n",
      "control_change channel=0 control=64 value=69 time=15\n",
      "control_change channel=0 control=67 value=95 time=0\n",
      "note_on channel=0 note=55 velocity=62 time=0\n",
      "control_change channel=0 control=64 value=70 time=15\n",
      "control_change channel=0 control=67 value=85 time=0\n",
      "control_change channel=0 control=64 value=70 time=16\n",
      "control_change channel=0 control=67 value=72 time=0\n",
      "control_change channel=0 control=64 value=71 time=14\n",
      "control_change channel=0 control=67 value=57 time=0\n",
      "control_change channel=0 control=67 value=36 time=16\n",
      "control_change channel=0 control=67 value=19 time=15\n",
      "control_change channel=0 control=67 value=0 time=15\n",
      "note_on channel=0 note=55 velocity=0 time=33\n",
      "note_on channel=0 note=53 velocity=64 time=25\n",
      "note_on channel=0 note=53 velocity=0 time=45\n",
      "control_change channel=0 control=64 value=70 time=3\n",
      "control_change channel=0 control=64 value=70 time=45\n",
      "control_change channel=0 control=64 value=69 time=16\n",
      "control_change channel=0 control=64 value=68 time=15\n",
      "control_change channel=0 control=64 value=67 time=15\n",
      "note_on channel=0 note=51 velocity=58 time=14\n",
      "control_change channel=0 control=64 value=66 time=1\n",
      "control_change channel=0 control=64 value=65 time=15\n",
      "control_change channel=0 control=64 value=64 time=15\n",
      "note_on channel=0 note=68 velocity=70 time=9\n",
      "note_on channel=0 note=72 velocity=77 time=2\n",
      "control_change channel=0 control=64 value=62 time=5\n",
      "control_change channel=0 control=64 value=61 time=15\n",
      "control_change channel=0 control=64 value=60 time=17\n",
      "control_change channel=0 control=64 value=59 time=15\n",
      "note_on channel=0 note=63 velocity=0 time=5\n",
      "note_on channel=0 note=67 velocity=0 time=3\n",
      "control_change channel=0 control=64 value=59 time=6\n",
      "control_change channel=0 control=64 value=58 time=16\n",
      "control_change channel=0 control=64 value=57 time=15\n",
      "control_change channel=0 control=64 value=56 time=14\n",
      "control_change channel=0 control=64 value=54 time=16\n",
      "note_on channel=0 note=51 velocity=0 time=5\n",
      "control_change channel=0 control=64 value=53 time=10\n",
      "note_on channel=0 note=48 velocity=55 time=3\n",
      "control_change channel=0 control=64 value=52 time=13\n",
      "control_change channel=0 control=64 value=51 time=15\n",
      "control_change channel=0 control=64 value=50 time=15\n",
      "control_change channel=0 control=64 value=50 time=16\n",
      "control_change channel=0 control=64 value=49 time=14\n",
      "control_change channel=0 control=64 value=48 time=16\n",
      "control_change channel=0 control=64 value=47 time=15\n",
      "control_change channel=0 control=64 value=46 time=22\n",
      "note_on channel=0 note=48 velocity=0 time=3\n",
      "control_change channel=0 control=64 value=45 time=13\n",
      "control_change channel=0 control=64 value=44 time=15\n",
      "note_on channel=0 note=49 velocity=54 time=12\n",
      "control_change channel=0 control=64 value=44 time=4\n",
      "control_change channel=0 control=64 value=43 time=14\n",
      "control_change channel=0 control=64 value=43 time=15\n",
      "control_change channel=0 control=64 value=42 time=16\n",
      "control_change channel=0 control=64 value=41 time=15\n",
      "control_change channel=0 control=64 value=40 time=16\n",
      "control_change channel=0 control=64 value=39 time=14\n",
      "note_on channel=0 note=49 velocity=0 time=14\n",
      "control_change channel=0 control=64 value=39 time=1\n",
      "control_change channel=0 control=64 value=38 time=16\n",
      "control_change channel=0 control=64 value=38 time=15\n",
      "control_change channel=0 control=64 value=37 time=16\n",
      "note_on channel=0 note=51 velocity=58 time=1\n",
      "control_change channel=0 control=64 value=36 time=14\n",
      "control_change channel=0 control=64 value=36 time=15\n",
      "control_change channel=0 control=64 value=35 time=16\n",
      "control_change channel=0 control=64 value=34 time=14\n",
      "control_change channel=0 control=64 value=33 time=15\n",
      "control_change channel=0 control=64 value=32 time=31\n",
      "note_on channel=0 note=51 velocity=0 time=38\n",
      "note_on channel=0 note=49 velocity=63 time=20\n",
      "note_on channel=0 note=68 velocity=0 time=4\n",
      "control_change channel=0 control=64 value=32 time=45\n",
      "note_on channel=0 note=49 velocity=0 time=96\n",
      "note_on channel=0 note=48 velocity=62 time=17\n",
      "note_on channel=0 note=48 velocity=0 time=150\n",
      "note_on channel=0 note=46 velocity=67 time=10\n",
      "control_change channel=0 control=64 value=31 time=82\n",
      "note_on channel=0 note=46 velocity=0 time=53\n",
      "note_on channel=0 note=44 velocity=62 time=40\n",
      "control_change channel=0 control=64 value=30 time=59\n",
      "control_change channel=0 control=64 value=29 time=60\n",
      "note_on channel=0 note=44 velocity=0 time=15\n",
      "control_change channel=0 control=64 value=29 time=16\n",
      "control_change channel=0 control=64 value=28 time=15\n",
      "note_on channel=0 note=51 velocity=60 time=3\n",
      "control_change channel=0 control=64 value=27 time=12\n",
      "note_on channel=0 note=70 velocity=80 time=2\n",
      "control_change channel=0 control=64 value=25 time=13\n",
      "control_change channel=0 control=64 value=23 time=15\n",
      "note_on channel=0 note=72 velocity=0 time=3\n",
      "control_change channel=0 control=64 value=18 time=12\n",
      "control_change channel=0 control=64 value=10 time=16\n",
      "control_change channel=0 control=64 value=0 time=15\n",
      "note_on channel=0 note=51 velocity=0 time=95\n",
      "note_on channel=0 note=50 velocity=60 time=9\n",
      "note_on channel=0 note=50 velocity=0 time=147\n",
      "note_on channel=0 note=48 velocity=58 time=27\n",
      "note_on channel=0 note=48 velocity=0 time=150\n",
      "note_on channel=0 note=46 velocity=58 time=26\n",
      "note_on channel=0 note=46 velocity=0 time=145\n",
      "note_on channel=0 note=75 velocity=61 time=38\n",
      "note_on channel=0 note=56 velocity=52 time=3\n",
      "note_on channel=0 note=67 velocity=55 time=2\n",
      "note_on channel=0 note=56 velocity=0 time=168\n",
      "note_on channel=0 note=55 velocity=49 time=31\n",
      "note_on channel=0 note=55 velocity=0 time=143\n",
      "note_on channel=0 note=53 velocity=45 time=50\n",
      "control_change channel=0 control=64 value=18 time=7\n",
      "control_change channel=0 control=64 value=29 time=16\n",
      "control_change channel=0 control=64 value=40 time=15\n",
      "control_change channel=0 control=64 value=48 time=14\n",
      "control_change channel=0 control=64 value=54 time=18\n",
      "control_change channel=0 control=64 value=59 time=15\n",
      "control_change channel=0 control=64 value=62 time=15\n",
      "control_change channel=0 control=64 value=64 time=15\n",
      "control_change channel=0 control=64 value=67 time=15\n",
      "control_change channel=0 control=64 value=71 time=23\n",
      "control_change channel=0 control=64 value=75 time=15\n",
      "control_change channel=0 control=64 value=78 time=15\n",
      "control_change channel=0 control=64 value=80 time=15\n",
      "control_change channel=0 control=64 value=81 time=15\n",
      "note_on channel=0 note=67 velocity=0 time=4\n",
      "note_on channel=0 note=51 velocity=52 time=4\n",
      "note_on channel=0 note=53 velocity=0 time=1\n",
      "control_change channel=0 control=64 value=82 time=7\n",
      "control_change channel=0 control=64 value=82 time=15\n",
      "control_change channel=0 control=64 value=83 time=16\n",
      "note_on channel=0 note=51 velocity=0 time=3\n",
      "note_on channel=0 note=70 velocity=0 time=125\n",
      "control_change channel=0 control=64 value=82 time=98\n",
      "control_change channel=0 control=64 value=82 time=16\n",
      "control_change channel=0 control=64 value=81 time=15\n",
      "control_change channel=0 control=64 value=81 time=15\n",
      "control_change channel=0 control=64 value=80 time=16\n",
      "control_change channel=0 control=64 value=78 time=14\n",
      "note_on channel=0 note=58 velocity=54 time=5\n",
      "control_change channel=0 control=64 value=76 time=10\n",
      "note_on channel=0 note=65 velocity=58 time=10\n",
      "control_change channel=0 control=64 value=74 time=6\n",
      "control_change channel=0 control=64 value=69 time=15\n",
      "control_change channel=0 control=64 value=64 time=16\n",
      "control_change channel=0 control=64 value=55 time=15\n",
      "control_change channel=0 control=64 value=34 time=15\n",
      "control_change channel=0 control=64 value=0 time=15\n",
      "note_on channel=0 note=60 velocity=44 time=96\n",
      "note_on channel=0 note=60 velocity=0 time=120\n",
      "control_change channel=0 control=64 value=10 time=66\n",
      "note_on channel=0 note=62 velocity=43 time=0\n",
      "control_change channel=0 control=64 value=13 time=15\n",
      "control_change channel=0 control=64 value=15 time=16\n",
      "control_change channel=0 control=64 value=21 time=14\n",
      "control_change channel=0 control=64 value=34 time=15\n",
      "control_change channel=0 control=64 value=47 time=16\n",
      "control_change channel=0 control=64 value=55 time=15\n",
      "control_change channel=0 control=64 value=59 time=15\n",
      "control_change channel=0 control=64 value=62 time=16\n",
      "control_change channel=0 control=64 value=64 time=15\n",
      "note_on channel=0 note=62 velocity=0 time=4\n",
      "control_change channel=0 control=64 value=65 time=12\n",
      "control_change channel=0 control=64 value=67 time=15\n",
      "note_on channel=0 note=63 velocity=45 time=0\n",
      "control_change channel=0 control=64 value=68 time=14\n",
      "control_change channel=0 control=64 value=69 time=16\n",
      "control_change channel=0 control=64 value=70 time=15\n",
      "note_on channel=0 note=63 velocity=0 time=11\n",
      "control_change channel=0 control=64 value=70 time=5\n",
      "note_on channel=0 note=65 velocity=0 time=21\n",
      "control_change channel=0 control=64 value=70 time=24\n",
      "control_change channel=0 control=64 value=69 time=15\n",
      "control_change channel=0 control=64 value=67 time=15\n",
      "note_on channel=0 note=65 velocity=35 time=14\n",
      "control_change channel=0 control=64 value=64 time=2\n",
      "control_change channel=0 control=64 value=60 time=14\n",
      "note_on channel=0 note=70 velocity=61 time=0\n",
      "note_on channel=0 note=74 velocity=55 time=5\n",
      "control_change channel=0 control=64 value=54 time=11\n",
      "control_change channel=0 control=64 value=50 time=15\n",
      "note_on channel=0 note=75 velocity=0 time=6\n",
      "control_change channel=0 control=64 value=49 time=8\n",
      "control_change channel=0 control=64 value=48 time=46\n",
      "control_change channel=0 control=64 value=47 time=16\n",
      "control_change channel=0 control=64 value=47 time=14\n",
      "control_change channel=0 control=64 value=46 time=16\n",
      "control_change channel=0 control=64 value=45 time=30\n",
      "note_on channel=0 note=65 velocity=0 time=0\n",
      "note_on channel=0 note=68 velocity=57 time=0\n",
      "control_change channel=0 control=64 value=45 time=16\n",
      "control_change channel=0 control=64 value=44 time=14\n",
      "control_change channel=0 control=64 value=44 time=31\n",
      "control_change channel=0 control=64 value=43 time=15\n",
      "control_change channel=0 control=64 value=43 time=16\n",
      "control_change channel=0 control=64 value=42 time=15\n",
      "control_change channel=0 control=64 value=42 time=31\n",
      "control_change channel=0 control=64 value=41 time=14\n",
      "control_change channel=0 control=64 value=41 time=16\n",
      "note_on channel=0 note=67 velocity=52 time=15\n",
      "note_on channel=0 note=68 velocity=0 time=9\n",
      "control_change channel=0 control=64 value=40 time=22\n",
      "control_change channel=0 control=64 value=40 time=21\n",
      "control_change channel=0 control=64 value=38 time=16\n",
      "control_change channel=0 control=64 value=38 time=16\n",
      "control_change channel=0 control=64 value=37 time=15\n",
      "control_change channel=0 control=64 value=36 time=16\n",
      "control_change channel=0 control=64 value=36 time=14\n",
      "control_change channel=0 control=64 value=35 time=16\n",
      "note_on channel=0 note=67 velocity=0 time=5\n",
      "note_on channel=0 note=65 velocity=50 time=19\n",
      "control_change channel=0 control=64 value=34 time=6\n",
      "control_change channel=0 control=64 value=34 time=30\n",
      "control_change channel=0 control=64 value=33 time=15\n",
      "control_change channel=0 control=64 value=32 time=32\n",
      "control_change channel=0 control=64 value=32 time=16\n",
      "control_change channel=0 control=64 value=31 time=45\n",
      "note_on channel=0 note=65 velocity=0 time=1\n",
      "note_on channel=0 note=63 velocity=45 time=25\n",
      "note_on channel=0 note=78 velocity=66 time=5\n",
      "control_change channel=0 control=64 value=30 time=14\n",
      "control_change channel=0 control=64 value=29 time=15\n",
      "control_change channel=0 control=64 value=29 time=16\n",
      "control_change channel=0 control=64 value=28 time=15\n",
      "control_change channel=0 control=64 value=27 time=62\n",
      "control_change channel=0 control=64 value=26 time=14\n",
      "note_on channel=0 note=63 velocity=0 time=21\n",
      "control_change channel=0 control=64 value=25 time=10\n",
      "control_change channel=0 control=64 value=24 time=15\n",
      "note_on channel=0 note=65 velocity=38 time=4\n",
      "control_change channel=0 control=64 value=23 time=41\n",
      "control_change channel=0 control=64 value=21 time=31\n",
      "note_on channel=0 note=65 velocity=0 time=97\n",
      "note_on channel=0 note=63 velocity=40 time=14\n",
      "control_change channel=0 control=64 value=20 time=10\n",
      "control_change channel=0 control=64 value=18 time=129\n",
      "note_on channel=0 note=63 velocity=0 time=2\n",
      "note_on channel=0 note=62 velocity=44 time=35\n",
      "note_on channel=0 note=62 velocity=0 time=133\n",
      "note_on channel=0 note=70 velocity=0 time=14\n",
      "note_on channel=0 note=69 velocity=55 time=7\n",
      "note_on channel=0 note=74 velocity=0 time=1\n",
      "control_change channel=0 control=64 value=20 time=21\n",
      "note_on channel=0 note=60 velocity=38 time=5\n",
      "control_change channel=0 control=64 value=23 time=10\n",
      "control_change channel=0 control=64 value=25 time=15\n",
      "control_change channel=0 control=64 value=27 time=16\n",
      "control_change channel=0 control=64 value=30 time=14\n",
      "control_change channel=0 control=64 value=35 time=15\n",
      "control_change channel=0 control=64 value=41 time=16\n",
      "control_change channel=0 control=64 value=47 time=15\n",
      "control_change channel=0 control=64 value=51 time=16\n",
      "control_change channel=0 control=64 value=56 time=15\n",
      "note_on channel=0 note=60 velocity=0 time=1\n",
      "control_change channel=0 control=64 value=60 time=14\n",
      "note_on channel=0 note=63 velocity=39 time=9\n",
      "control_change channel=0 control=64 value=63 time=7\n",
      "control_change channel=0 control=64 value=64 time=15\n",
      "control_change channel=0 control=64 value=65 time=14\n",
      "control_change channel=0 control=64 value=68 time=16\n",
      "control_change channel=0 control=64 value=71 time=15\n",
      "control_change channel=0 control=64 value=74 time=15\n",
      "control_change channel=0 control=64 value=76 time=15\n",
      "note_on channel=0 note=63 velocity=0 time=2\n",
      "control_change channel=0 control=64 value=77 time=13\n",
      "control_change channel=0 control=64 value=78 time=16\n",
      "note_on channel=0 note=58 velocity=0 time=10\n",
      "control_change channel=0 control=64 value=78 time=5\n",
      "note_on channel=0 note=62 velocity=37 time=16\n",
      "control_change channel=0 control=64 value=79 time=14\n",
      "control_change channel=0 control=64 value=79 time=15\n",
      "note_on channel=0 note=78 velocity=0 time=1\n",
      "control_change channel=0 control=67 value=10 time=15\n",
      "control_change channel=0 control=67 value=16 time=15\n",
      "control_change channel=0 control=67 value=27 time=14\n",
      "control_change channel=0 control=67 value=41 time=16\n",
      "control_change channel=0 control=67 value=54 time=15\n",
      "control_change channel=0 control=67 value=67 time=15\n",
      "control_change channel=0 control=67 value=78 time=15\n",
      "control_change channel=0 control=67 value=88 time=15\n",
      "note_on channel=0 note=62 velocity=0 time=6\n",
      "control_change channel=0 control=67 value=96 time=10\n",
      "control_change channel=0 control=67 value=105 time=15\n",
      "note_on channel=0 note=60 velocity=34 time=9\n",
      "control_change channel=0 control=67 value=111 time=14\n",
      "control_change channel=0 control=67 value=116 time=15\n",
      "control_change channel=0 control=67 value=120 time=15\n",
      "control_change channel=0 control=67 value=123 time=16\n",
      "control_change channel=0 control=64 value=79 time=15\n",
      "control_change channel=0 control=67 value=125 time=0\n",
      "control_change channel=0 control=67 value=126 time=15\n",
      "control_change channel=0 control=64 value=78 time=15\n",
      "control_change channel=0 control=67 value=126 time=0\n",
      "control_change channel=0 control=64 value=78 time=15\n",
      "control_change channel=0 control=67 value=127 time=0\n",
      "note_on channel=0 note=60 velocity=0 time=9\n",
      "note_on channel=0 note=69 velocity=0 time=5\n",
      "control_change channel=0 control=64 value=77 time=3\n",
      "control_change channel=0 control=64 value=77 time=15\n",
      "note_on channel=0 note=77 velocity=56 time=7\n",
      "note_on channel=0 note=74 velocity=46 time=3\n",
      "control_change channel=0 control=64 value=76 time=4\n",
      "note_on channel=0 note=68 velocity=42 time=4\n",
      "control_change channel=0 control=64 value=76 time=27\n",
      "control_change channel=0 control=64 value=75 time=16\n",
      "control_change channel=0 control=64 value=74 time=15\n",
      "control_change channel=0 control=64 value=72 time=14\n",
      "control_change channel=0 control=64 value=72 time=16\n",
      "control_change channel=0 control=64 value=70 time=15\n",
      "control_change channel=0 control=64 value=69 time=15\n",
      "control_change channel=0 control=67 value=126 time=0\n",
      "control_change channel=0 control=64 value=67 time=16\n",
      "control_change channel=0 control=64 value=65 time=14\n",
      "control_change channel=0 control=67 value=126 time=0\n",
      "control_change channel=0 control=64 value=63 time=16\n",
      "note_on channel=0 note=53 velocity=48 time=8\n",
      "control_change channel=0 control=64 value=62 time=7\n",
      "control_change channel=0 control=67 value=125 time=0\n",
      "control_change channel=0 control=64 value=61 time=14\n",
      "control_change channel=0 control=64 value=61 time=31\n",
      "control_change channel=0 control=67 value=125 time=0\n",
      "control_change channel=0 control=64 value=60 time=16\n",
      "control_change channel=0 control=64 value=59 time=15\n",
      "control_change channel=0 control=67 value=124 time=0\n",
      "control_change channel=0 control=64 value=58 time=15\n",
      "note_on channel=0 note=74 velocity=0 time=3\n",
      "control_change channel=0 control=64 value=57 time=13\n",
      "control_change channel=0 control=64 value=56 time=15\n",
      "control_change channel=0 control=67 value=124 time=0\n",
      "control_change channel=0 control=64 value=56 time=15\n",
      "control_change channel=0 control=67 value=123 time=0\n",
      "note_on channel=0 note=53 velocity=0 time=11\n",
      "control_change channel=0 control=64 value=55 time=4\n",
      "note_on channel=0 note=51 velocity=50 time=12\n",
      "control_change channel=0 control=64 value=55 time=3\n",
      "control_change channel=0 control=64 value=54 time=16\n",
      "control_change channel=0 control=67 value=123 time=0\n",
      "control_change channel=0 control=64 value=54 time=15\n",
      "note_on channel=0 note=68 velocity=0 time=3\n",
      "control_change channel=0 control=64 value=53 time=12\n",
      "control_change channel=0 control=64 value=53 time=15\n",
      "control_change channel=0 control=67 value=122 time=0\n",
      "control_change channel=0 control=64 value=52 time=15\n",
      "control_change channel=0 control=67 value=122 time=0\n",
      "control_change channel=0 control=64 value=52 time=31\n",
      "control_change channel=0 control=67 value=121 time=0\n",
      "control_change channel=0 control=64 value=51 time=15\n",
      "control_change channel=0 control=64 value=51 time=15\n",
      "control_change channel=0 control=67 value=121 time=0\n",
      "note_on channel=0 note=51 velocity=0 time=4\n",
      "control_change channel=0 control=64 value=50 time=11\n",
      "control_change channel=0 control=67 value=120 time=0\n",
      "note_on channel=0 note=50 velocity=49 time=1\n",
      "control_change channel=0 control=64 value=50 time=14\n",
      "control_change channel=0 control=67 value=120 time=16\n",
      "control_change channel=0 control=64 value=49 time=15\n",
      "control_change channel=0 control=67 value=119 time=14\n",
      "control_change channel=0 control=64 value=48 time=16\n",
      "control_change channel=0 control=67 value=119 time=0\n",
      "control_change channel=0 control=64 value=47 time=38\n",
      "control_change channel=0 control=67 value=118 time=0\n",
      "control_change channel=0 control=64 value=47 time=31\n",
      "control_change channel=0 control=67 value=117 time=0\n",
      "control_change channel=0 control=64 value=46 time=15\n",
      "note_on channel=0 note=50 velocity=0 time=10\n",
      "control_change channel=0 control=64 value=45 time=5\n",
      "control_change channel=0 control=67 value=116 time=0\n",
      "control_change channel=0 control=64 value=44 time=15\n",
      "note_on channel=0 note=77 velocity=0 time=5\n",
      "control_change channel=0 control=67 value=115 time=10\n",
      "note_on channel=0 note=51 velocity=45 time=1\n",
      "note_on channel=0 note=70 velocity=47 time=10\n",
      "note_on channel=0 note=75 velocity=45 time=3\n",
      "control_change channel=0 control=67 value=114 time=1\n",
      "note_on channel=0 note=67 velocity=41 time=5\n",
      "control_change channel=0 control=64 value=44 time=11\n",
      "control_change channel=0 control=67 value=114 time=0\n",
      "control_change channel=0 control=64 value=43 time=14\n",
      "control_change channel=0 control=67 value=113 time=0\n",
      "control_change channel=0 control=67 value=110 time=16\n",
      "control_change channel=0 control=64 value=43 time=15\n",
      "control_change channel=0 control=67 value=108 time=0\n",
      "control_change channel=0 control=64 value=42 time=16\n",
      "control_change channel=0 control=67 value=105 time=0\n",
      "control_change channel=0 control=64 value=42 time=16\n",
      "control_change channel=0 control=67 value=102 time=0\n",
      "control_change channel=0 control=67 value=98 time=15\n",
      "control_change channel=0 control=64 value=41 time=15\n",
      "control_change channel=0 control=67 value=95 time=0\n",
      "control_change channel=0 control=64 value=41 time=15\n",
      "control_change channel=0 control=67 value=91 time=0\n",
      "note_on channel=0 note=51 velocity=0 time=13\n",
      "control_change channel=0 control=64 value=40 time=2\n",
      "control_change channel=0 control=67 value=86 time=0\n",
      "control_change channel=0 control=64 value=40 time=16\n",
      "control_change channel=0 control=67 value=82 time=0\n",
      "control_change channel=0 control=64 value=39 time=15\n",
      "control_change channel=0 control=67 value=78 time=0\n",
      "note_on channel=0 note=53 velocity=45 time=4\n",
      "control_change channel=0 control=67 value=73 time=10\n",
      "control_change channel=0 control=64 value=39 time=16\n",
      "control_change channel=0 control=67 value=69 time=0\n",
      "control_change channel=0 control=67 value=64 time=15\n",
      "control_change channel=0 control=64 value=38 time=16\n",
      "control_change channel=0 control=67 value=58 time=0\n",
      "control_change channel=0 control=67 value=53 time=15\n",
      "control_change channel=0 control=67 value=48 time=14\n",
      "control_change channel=0 control=67 value=44 time=16\n",
      "control_change channel=0 control=64 value=38 time=15\n",
      "control_change channel=0 control=67 value=40 time=0\n",
      "note_on channel=0 note=53 velocity=0 time=1\n",
      "control_change channel=0 control=67 value=36 time=13\n",
      "control_change channel=0 control=67 value=32 time=16\n",
      "control_change channel=0 control=67 value=27 time=15\n",
      "control_change channel=0 control=67 value=23 time=16\n",
      "note_on channel=0 note=55 velocity=39 time=0\n",
      "control_change channel=0 control=67 value=19 time=15\n",
      "control_change channel=0 control=67 value=16 time=15\n",
      "control_change channel=0 control=67 value=12 time=15\n",
      "control_change channel=0 control=67 value=9 time=15\n",
      "control_change channel=0 control=67 value=0 time=16\n",
      "note_on channel=0 note=70 velocity=0 time=23\n",
      "note_on channel=0 note=67 velocity=0 time=10\n",
      "control_change channel=0 control=64 value=37 time=13\n",
      "note_on channel=0 note=55 velocity=0 time=57\n",
      "note_on channel=0 note=56 velocity=40 time=5\n",
      "control_change channel=0 control=64 value=37 time=44\n",
      "control_change channel=0 control=64 value=36 time=45\n",
      "control_change channel=0 control=64 value=36 time=69\n",
      "note_on channel=0 note=46 velocity=25 time=63\n",
      "note_on channel=0 note=70 velocity=37 time=11\n",
      "note_on channel=0 note=65 velocity=33 time=1\n",
      "control_change channel=0 control=64 value=35 time=1\n",
      "note_on channel=0 note=56 velocity=0 time=25\n",
      "control_change channel=0 control=64 value=34 time=5\n",
      "control_change channel=0 control=64 value=34 time=15\n",
      "control_change channel=0 control=64 value=33 time=32\n",
      "control_change channel=0 control=64 value=32 time=61\n",
      "note_on channel=0 note=75 velocity=0 time=588\n",
      "note_on channel=0 note=65 velocity=0 time=44\n",
      "note_on channel=0 note=74 velocity=36 time=3\n",
      "note_on channel=0 note=70 velocity=0 time=289\n",
      "note_on channel=0 note=68 velocity=19 time=66\n",
      "note_on channel=0 note=51 velocity=17 time=318\n",
      "note_on channel=0 note=68 velocity=0 time=36\n",
      "note_on channel=0 note=46 velocity=0 time=13\n",
      "note_on channel=0 note=74 velocity=0 time=25\n",
      "note_on channel=0 note=75 velocity=41 time=42\n",
      "control_change channel=0 control=64 value=32 time=4\n",
      "note_on channel=0 note=67 velocity=36 time=16\n",
      "note_on channel=0 note=67 velocity=0 time=170\n",
      "note_on channel=0 note=70 velocity=39 time=12\n",
      "control_change channel=0 control=64 value=31 time=107\n",
      "note_on channel=0 note=70 velocity=0 time=29\n",
      "note_on channel=0 note=72 velocity=48 time=28\n",
      "note_on channel=0 note=72 velocity=0 time=137\n",
      "control_change channel=0 control=64 value=30 time=5\n",
      "control_change channel=0 control=64 value=29 time=14\n",
      "note_on channel=0 note=73 velocity=50 time=5\n",
      "note_on channel=0 note=75 velocity=0 time=10\n",
      "control_change channel=0 control=64 value=29 time=46\n",
      "note_on channel=0 note=73 velocity=0 time=40\n",
      "control_change channel=0 control=64 value=28 time=28\n",
      "note_on channel=0 note=72 velocity=53 time=61\n",
      "control_change channel=0 control=64 value=27 time=1\n",
      "note_on channel=0 note=56 velocity=34 time=3\n",
      "note_on channel=0 note=72 velocity=0 time=146\n",
      "note_on channel=0 note=70 velocity=49 time=14\n",
      "control_change channel=0 control=64 value=26 time=48\n",
      "note_on channel=0 note=70 velocity=0 time=102\n",
      "note_on channel=0 note=68 velocity=43 time=43\n",
      "control_change channel=0 control=64 value=28 time=53\n",
      "control_change channel=0 control=64 value=29 time=16\n",
      "control_change channel=0 control=64 value=30 time=15\n",
      "note_on channel=0 note=68 velocity=0 time=0\n",
      "control_change channel=0 control=64 value=32 time=15\n",
      "control_change channel=0 control=64 value=36 time=16\n",
      "control_change channel=0 control=64 value=42 time=15\n",
      "control_change channel=0 control=64 value=47 time=15\n",
      "control_change channel=0 control=64 value=54 time=15\n",
      "note_on channel=0 note=67 velocity=44 time=0\n",
      "control_change channel=0 control=64 value=58 time=15\n",
      "control_change channel=0 control=64 value=60 time=16\n",
      "control_change channel=0 control=64 value=61 time=15\n",
      "control_change channel=0 control=64 value=62 time=14\n",
      "note_on channel=0 note=67 velocity=0 time=38\n",
      "control_change channel=0 control=64 value=62 time=9\n",
      "control_change channel=0 control=64 value=61 time=15\n",
      "control_change channel=0 control=64 value=60 time=14\n",
      "control_change channel=0 control=64 value=57 time=24\n",
      "control_change channel=0 control=64 value=53 time=15\n",
      "control_change channel=0 control=64 value=44 time=15\n",
      "control_change channel=0 control=64 value=20 time=15\n",
      "note_on channel=0 note=74 velocity=44 time=8\n",
      "control_change channel=0 control=64 value=0 time=7\n",
      "note_on channel=0 note=65 velocity=34 time=19\n",
      "note_on channel=0 note=65 velocity=0 time=195\n",
      "note_on channel=0 note=67 velocity=40 time=134\n",
      "note_on channel=0 note=67 velocity=0 time=162\n",
      "note_on channel=0 note=68 velocity=45 time=24\n",
      "note_on channel=0 note=74 velocity=0 time=141\n",
      "note_on channel=0 note=68 velocity=0 time=32\n",
      "note_on channel=0 note=55 velocity=41 time=3\n",
      "note_on channel=0 note=70 velocity=36 time=15\n",
      "note_on channel=0 note=73 velocity=42 time=0\n",
      "note_on channel=0 note=56 velocity=0 time=74\n",
      "note_on channel=0 note=68 velocity=45 time=101\n",
      "note_on channel=0 note=70 velocity=0 time=7\n",
      "note_on channel=0 note=68 velocity=0 time=101\n",
      "note_on channel=0 note=67 velocity=51 time=67\n",
      "note_on channel=0 note=67 velocity=0 time=139\n",
      "note_on channel=0 note=65 velocity=57 time=25\n",
      "note_on channel=0 note=65 velocity=0 time=152\n",
      "note_on channel=0 note=63 velocity=60 time=34\n",
      "note_on channel=0 note=60 velocity=52 time=3\n",
      "note_on channel=0 note=55 velocity=0 time=175\n",
      "note_on channel=0 note=70 velocity=64 time=11\n",
      "note_on channel=0 note=73 velocity=0 time=28\n",
      "note_on channel=0 note=70 velocity=0 time=147\n",
      "note_on channel=0 note=72 velocity=65 time=3\n",
      "note_on channel=0 note=72 velocity=0 time=168\n",
      "note_on channel=0 note=73 velocity=53 time=13\n",
      "note_on channel=0 note=73 velocity=0 time=143\n",
      "note_on channel=0 note=72 velocity=44 time=49\n",
      "note_on channel=0 note=68 velocity=42 time=10\n",
      "note_on channel=0 note=72 velocity=0 time=163\n",
      "note_on channel=0 note=68 velocity=0 time=18\n",
      "note_on channel=0 note=70 velocity=51 time=19\n",
      "note_on channel=0 note=70 velocity=0 time=201\n",
      "note_on channel=0 note=72 velocity=53 time=17\n",
      "note_on channel=0 note=68 velocity=40 time=221\n",
      "note_on channel=0 note=60 velocity=0 time=226\n",
      "note_on channel=0 note=68 velocity=0 time=15\n",
      "note_on channel=0 note=74 velocity=55 time=12\n",
      "note_on channel=0 note=72 velocity=0 time=5\n",
      "note_on channel=0 note=59 velocity=17 time=7\n",
      "note_on channel=0 note=68 velocity=37 time=218\n",
      "note_on channel=0 note=68 velocity=0 time=207\n",
      "note_on channel=0 note=70 velocity=37 time=5\n",
      "note_on channel=0 note=70 velocity=0 time=166\n",
      "note_on channel=0 note=71 velocity=27 time=71\n",
      "note_on channel=0 note=71 velocity=0 time=211\n",
      "note_on channel=0 note=70 velocity=40 time=48\n",
      "note_on channel=0 note=63 velocity=0 time=28\n",
      "note_on channel=0 note=70 velocity=0 time=251\n",
      "note_on channel=0 note=68 velocity=42 time=18\n",
      "note_on channel=0 note=68 velocity=0 time=323\n",
      "note_on channel=0 note=67 velocity=35 time=85\n",
      "control_change channel=0 control=64 value=17 time=202\n",
      "control_change channel=0 control=64 value=25 time=16\n",
      "control_change channel=0 control=64 value=31 time=15\n",
      "control_change channel=0 control=64 value=36 time=14\n",
      "control_change channel=0 control=64 value=40 time=16\n",
      "control_change channel=0 control=64 value=44 time=15\n",
      "control_change channel=0 control=64 value=49 time=15\n",
      "control_change channel=0 control=64 value=53 time=16\n",
      "control_change channel=0 control=64 value=55 time=14\n",
      "control_change channel=0 control=64 value=56 time=16\n",
      "control_change channel=0 control=64 value=57 time=15\n",
      "control_change channel=0 control=64 value=59 time=15\n",
      "control_change channel=0 control=64 value=59 time=16\n",
      "control_change channel=0 control=64 value=60 time=14\n",
      "control_change channel=0 control=64 value=60 time=15\n",
      "control_change channel=0 control=64 value=61 time=16\n",
      "control_change channel=0 control=64 value=60 time=206\n",
      "note_on channel=0 note=67 velocity=0 time=13\n",
      "note_on channel=0 note=68 velocity=34 time=72\n",
      "control_change channel=0 control=64 value=61 time=36\n",
      "control_change channel=0 control=64 value=61 time=76\n",
      "control_change channel=0 control=64 value=62 time=15\n",
      "control_change channel=0 control=64 value=62 time=16\n",
      "control_change channel=0 control=64 value=63 time=15\n",
      "control_change channel=0 control=64 value=64 time=14\n",
      "control_change channel=0 control=64 value=65 time=16\n",
      "note_on channel=0 note=74 velocity=0 time=0\n",
      "note_on channel=0 note=68 velocity=0 time=4\n",
      "control_change channel=0 control=64 value=67 time=11\n",
      "control_change channel=0 control=64 value=70 time=16\n",
      "note_on channel=0 note=65 velocity=29 time=13\n",
      "control_change channel=0 control=64 value=73 time=2\n",
      "control_change channel=0 control=64 value=76 time=14\n",
      "control_change channel=0 control=64 value=77 time=16\n",
      "control_change channel=0 control=64 value=78 time=15\n",
      "control_change channel=0 control=64 value=78 time=14\n",
      "control_change channel=0 control=64 value=79 time=16\n",
      "control_change channel=0 control=64 value=79 time=15\n",
      "control_change channel=0 control=64 value=80 time=31\n",
      "note_on channel=0 note=59 velocity=0 time=96\n",
      "note_on channel=0 note=65 velocity=0 time=43\n",
      "control_change channel=0 control=64 value=79 time=28\n",
      "note_on channel=0 note=58 velocity=23 time=24\n",
      "control_change channel=0 control=64 value=79 time=7\n",
      "control_change channel=0 control=64 value=78 time=14\n",
      "control_change channel=0 control=64 value=78 time=16\n",
      "control_change channel=0 control=64 value=77 time=15\n",
      "control_change channel=0 control=64 value=75 time=14\n",
      "note_on channel=0 note=75 velocity=47 time=15\n",
      "control_change channel=0 control=64 value=72 time=1\n",
      "note_on channel=0 note=67 velocity=47 time=5\n",
      "control_change channel=0 control=64 value=68 time=17\n",
      "control_change channel=0 control=64 value=64 time=16\n",
      "control_change channel=0 control=64 value=54 time=16\n",
      "control_change channel=0 control=64 value=37 time=16\n",
      "control_change channel=0 control=64 value=24 time=15\n",
      "control_change channel=0 control=64 value=21 time=60\n",
      "control_change channel=0 control=64 value=17 time=16\n",
      "control_change channel=0 control=64 value=13 time=14\n",
      "control_change channel=0 control=64 value=0 time=16\n",
      "control_change channel=0 control=64 value=10 time=1208\n",
      "control_change channel=0 control=64 value=13 time=29\n",
      "control_change channel=0 control=64 value=15 time=31\n",
      "control_change channel=0 control=64 value=17 time=14\n",
      "control_change channel=0 control=64 value=20 time=16\n",
      "control_change channel=0 control=64 value=21 time=15\n",
      "control_change channel=0 control=64 value=24 time=16\n",
      "control_change channel=0 control=64 value=25 time=15\n",
      "control_change channel=0 control=64 value=26 time=23\n",
      "control_change channel=0 control=64 value=27 time=15\n",
      "control_change channel=0 control=64 value=28 time=15\n",
      "control_change channel=0 control=64 value=29 time=16\n",
      "control_change channel=0 control=64 value=30 time=15\n",
      "control_change channel=0 control=64 value=31 time=14\n",
      "control_change channel=0 control=64 value=32 time=16\n",
      "control_change channel=0 control=64 value=32 time=15\n",
      "control_change channel=0 control=64 value=33 time=17\n",
      "control_change channel=0 control=64 value=34 time=15\n",
      "control_change channel=0 control=64 value=34 time=14\n",
      "control_change channel=0 control=64 value=35 time=16\n",
      "control_change channel=0 control=64 value=36 time=15\n",
      "control_change channel=0 control=64 value=36 time=16\n",
      "control_change channel=0 control=64 value=37 time=15\n",
      "control_change channel=0 control=64 value=37 time=60\n",
      "control_change channel=0 control=64 value=38 time=46\n",
      "control_change channel=0 control=64 value=38 time=45\n",
      "control_change channel=0 control=64 value=39 time=30\n",
      "control_change channel=0 control=64 value=39 time=31\n",
      "control_change channel=0 control=64 value=40 time=45\n",
      "control_change channel=0 control=64 value=40 time=47\n",
      "control_change channel=0 control=64 value=41 time=29\n",
      "control_change channel=0 control=64 value=41 time=31\n",
      "control_change channel=0 control=64 value=42 time=31\n",
      "control_change channel=0 control=64 value=42 time=15\n",
      "control_change channel=0 control=64 value=43 time=30\n",
      "control_change channel=0 control=64 value=43 time=15\n",
      "control_change channel=0 control=64 value=44 time=16\n",
      "control_change channel=0 control=64 value=45 time=15\n",
      "control_change channel=0 control=64 value=46 time=14\n",
      "control_change channel=0 control=64 value=47 time=16\n",
      "control_change channel=0 control=64 value=48 time=15\n",
      "control_change channel=0 control=64 value=49 time=23\n",
      "control_change channel=0 control=64 value=50 time=15\n",
      "control_change channel=0 control=64 value=51 time=16\n",
      "control_change channel=0 control=64 value=52 time=15\n",
      "control_change channel=0 control=64 value=53 time=15\n",
      "control_change channel=0 control=64 value=54 time=15\n",
      "control_change channel=0 control=64 value=55 time=15\n",
      "control_change channel=0 control=64 value=55 time=15\n",
      "control_change channel=0 control=64 value=56 time=16\n",
      "control_change channel=0 control=64 value=57 time=14\n",
      "control_change channel=0 control=64 value=57 time=16\n",
      "control_change channel=0 control=64 value=58 time=15\n",
      "control_change channel=0 control=64 value=58 time=16\n",
      "control_change channel=0 control=64 value=59 time=16\n",
      "control_change channel=0 control=64 value=59 time=15\n",
      "control_change channel=0 control=64 value=60 time=15\n",
      "control_change channel=0 control=64 value=60 time=15\n",
      "control_change channel=0 control=64 value=61 time=15\n",
      "control_change channel=0 control=64 value=61 time=31\n",
      "control_change channel=0 control=64 value=62 time=14\n",
      "control_change channel=0 control=64 value=62 time=16\n",
      "control_change channel=0 control=64 value=63 time=15\n",
      "control_change channel=0 control=64 value=63 time=31\n",
      "control_change channel=0 control=64 value=64 time=14\n",
      "control_change channel=0 control=64 value=64 time=31\n",
      "control_change channel=0 control=64 value=65 time=15\n",
      "control_change channel=0 control=64 value=65 time=30\n",
      "control_change channel=0 control=64 value=66 time=16\n",
      "control_change channel=0 control=64 value=66 time=29\n",
      "control_change channel=0 control=64 value=67 time=31\n",
      "control_change channel=0 control=64 value=67 time=61\n",
      "note_on channel=0 note=51 velocity=0 time=151\n",
      "control_change channel=0 control=64 value=67 time=130\n",
      "note_on channel=0 note=67 velocity=0 time=29\n",
      "note_on channel=0 note=58 velocity=0 time=26\n",
      "note_on channel=0 note=75 velocity=0 time=3\n",
      "control_change channel=0 control=64 value=66 time=48\n",
      "control_change channel=0 control=64 value=66 time=62\n",
      "control_change channel=0 control=64 value=65 time=46\n",
      "control_change channel=0 control=64 value=65 time=46\n",
      "control_change channel=0 control=64 value=64 time=30\n",
      "control_change channel=0 control=64 value=64 time=15\n",
      "control_change channel=0 control=64 value=63 time=76\n",
      "control_change channel=0 control=64 value=63 time=45\n",
      "control_change channel=0 control=64 value=62 time=45\n",
      "control_change channel=0 control=64 value=62 time=76\n",
      "control_change channel=0 control=64 value=61 time=31\n",
      "control_change channel=0 control=64 value=61 time=31\n",
      "control_change channel=0 control=64 value=60 time=69\n",
      "control_change channel=0 control=64 value=60 time=29\n",
      "control_change channel=0 control=64 value=59 time=30\n",
      "control_change channel=0 control=64 value=59 time=15\n",
      "control_change channel=0 control=64 value=58 time=31\n",
      "control_change channel=0 control=64 value=58 time=16\n",
      "control_change channel=0 control=64 value=57 time=14\n",
      "control_change channel=0 control=64 value=57 time=31\n",
      "control_change channel=0 control=64 value=56 time=15\n",
      "control_change channel=0 control=64 value=56 time=31\n",
      "control_change channel=0 control=64 value=55 time=31\n",
      "control_change channel=0 control=64 value=55 time=30\n",
      "control_change channel=0 control=64 value=54 time=61\n",
      "control_change channel=0 control=64 value=54 time=167\n",
      "control_change channel=0 control=64 value=53 time=138\n",
      "control_change channel=0 control=64 value=53 time=113\n",
      "control_change channel=0 control=64 value=52 time=242\n",
      "control_change channel=0 control=64 value=52 time=124\n",
      "control_change channel=0 control=64 value=51 time=29\n",
      "control_change channel=0 control=64 value=51 time=31\n",
      "control_change channel=0 control=64 value=50 time=62\n",
      "control_change channel=0 control=64 value=50 time=60\n",
      "control_change channel=0 control=64 value=49 time=15\n",
      "control_change channel=0 control=64 value=48 time=16\n",
      "control_change channel=0 control=64 value=47 time=14\n",
      "control_change channel=0 control=64 value=47 time=31\n",
      "control_change channel=0 control=64 value=46 time=31\n",
      "control_change channel=0 control=64 value=45 time=14\n",
      "control_change channel=0 control=64 value=44 time=16\n",
      "control_change channel=0 control=64 value=43 time=15\n",
      "control_change channel=0 control=64 value=42 time=14\n",
      "control_change channel=0 control=64 value=42 time=16\n",
      "control_change channel=0 control=64 value=40 time=15\n",
      "control_change channel=0 control=64 value=39 time=24\n",
      "control_change channel=0 control=64 value=38 time=15\n",
      "control_change channel=0 control=64 value=36 time=14\n",
      "control_change channel=0 control=64 value=34 time=16\n",
      "control_change channel=0 control=64 value=32 time=15\n",
      "control_change channel=0 control=64 value=30 time=16\n",
      "control_change channel=0 control=64 value=29 time=15\n",
      "control_change channel=0 control=64 value=25 time=14\n",
      "control_change channel=0 control=64 value=21 time=16\n",
      "control_change channel=0 control=64 value=18 time=15\n",
      "control_change channel=0 control=64 value=17 time=14\n",
      "control_change channel=0 control=64 value=15 time=16\n",
      "control_change channel=0 control=64 value=13 time=15\n",
      "control_change channel=0 control=64 value=10 time=16\n",
      "control_change channel=0 control=64 value=0 time=45\n",
      "control_change channel=0 control=64 value=10 time=335\n",
      "control_change channel=0 control=64 value=13 time=153\n",
      "control_change channel=0 control=64 value=15 time=250\n",
      "control_change channel=0 control=64 value=17 time=365\n",
      "control_change channel=0 control=64 value=18 time=30\n",
      "note_on channel=0 note=70 velocity=80 time=46\n",
      "control_change channel=0 control=64 value=17 time=61\n",
      "control_change channel=0 control=64 value=15 time=15\n",
      "control_change channel=0 control=64 value=13 time=38\n",
      "note_on channel=0 note=67 velocity=66 time=0\n",
      "note_on channel=0 note=70 velocity=0 time=9\n",
      "control_change channel=0 control=64 value=10 time=82\n",
      "note_on channel=0 note=65 velocity=68 time=14\n",
      "note_on channel=0 note=67 velocity=0 time=2\n",
      "note_on channel=0 note=65 velocity=0 time=82\n",
      "control_change channel=0 control=64 value=0 time=9\n",
      "note_on channel=0 note=67 velocity=72 time=1\n",
      "note_on channel=0 note=67 velocity=0 time=73\n",
      "note_on channel=0 note=63 velocity=78 time=29\n",
      "note_on channel=0 note=63 velocity=0 time=69\n",
      "note_on channel=0 note=68 velocity=72 time=33\n",
      "note_on channel=0 note=68 velocity=0 time=63\n",
      "note_on channel=0 note=67 velocity=82 time=38\n",
      "note_on channel=0 note=67 velocity=0 time=57\n",
      "note_on channel=0 note=68 velocity=88 time=43\n",
      "note_on channel=0 note=68 velocity=0 time=72\n",
      "note_on channel=0 note=72 velocity=91 time=51\n",
      "note_on channel=0 note=72 velocity=0 time=183\n",
      "note_on channel=0 note=70 velocity=68 time=52\n",
      "note_on channel=0 note=70 velocity=0 time=299\n",
      "note_on channel=0 note=69 velocity=77 time=120\n",
      "note_on channel=0 note=69 velocity=0 time=61\n",
      "note_on channel=0 note=65 velocity=78 time=24\n",
      "note_on channel=0 note=65 velocity=0 time=55\n",
      "note_on channel=0 note=75 velocity=91 time=52\n",
      "note_on channel=0 note=75 velocity=0 time=172\n",
      "note_on channel=0 note=74 velocity=91 time=49\n",
      "note_on channel=0 note=72 velocity=91 time=200\n",
      "note_on channel=0 note=74 velocity=0 time=0\n",
      "note_on channel=0 note=72 velocity=0 time=157\n",
      "note_on channel=0 note=74 velocity=52 time=52\n",
      "note_on channel=0 note=74 velocity=0 time=31\n",
      "note_on channel=0 note=72 velocity=60 time=25\n",
      "note_on channel=0 note=72 velocity=0 time=21\n",
      "note_on channel=0 note=74 velocity=67 time=29\n",
      "note_on channel=0 note=72 velocity=78 time=50\n",
      "note_on channel=0 note=74 velocity=0 time=0\n",
      "note_on channel=0 note=70 velocity=88 time=50\n",
      "note_on channel=0 note=72 velocity=0 time=20\n",
      "note_on channel=0 note=77 velocity=76 time=100\n",
      "note_on channel=0 note=70 velocity=0 time=63\n",
      "note_on channel=0 note=77 velocity=0 time=16\n",
      "note_on channel=0 note=74 velocity=73 time=21\n",
      "note_on channel=0 note=70 velocity=74 time=102\n",
      "note_on channel=0 note=74 velocity=0 time=7\n",
      "note_on channel=0 note=70 velocity=0 time=61\n",
      "note_on channel=0 note=68 velocity=75 time=31\n",
      "note_on channel=0 note=68 velocity=0 time=109\n",
      "note_on channel=0 note=77 velocity=70 time=2\n",
      "note_on channel=0 note=77 velocity=0 time=93\n",
      "note_on channel=0 note=74 velocity=69 time=10\n",
      "note_on channel=0 note=74 velocity=0 time=74\n",
      "note_on channel=0 note=68 velocity=72 time=29\n",
      "note_on channel=0 note=68 velocity=0 time=49\n",
      "note_on channel=0 note=63 velocity=78 time=65\n",
      "note_on channel=0 note=67 velocity=74 time=1\n",
      "note_on channel=0 note=62 velocity=75 time=111\n",
      "note_on channel=0 note=63 velocity=0 time=0\n",
      "note_on channel=0 note=67 velocity=0 time=99\n",
      "note_on channel=0 note=62 velocity=0 time=15\n",
      "note_on channel=0 note=80 velocity=79 time=7\n",
      "note_on channel=0 note=60 velocity=58 time=2\n",
      "note_on channel=0 note=59 velocity=53 time=17\n",
      "note_on channel=0 note=59 velocity=0 time=30\n",
      "note_on channel=0 note=60 velocity=0 time=18\n",
      "note_on channel=0 note=62 velocity=78 time=41\n",
      "note_on channel=0 note=80 velocity=0 time=38\n",
      "note_on channel=0 note=62 velocity=0 time=36\n",
      "note_on channel=0 note=58 velocity=77 time=32\n",
      "note_on channel=0 note=79 velocity=73 time=10\n",
      "note_on channel=0 note=58 velocity=0 time=97\n",
      "note_on channel=0 note=63 velocity=83 time=2\n",
      "note_on channel=0 note=79 velocity=0 time=42\n",
      "note_on channel=0 note=63 velocity=0 time=66\n",
      "note_on channel=0 note=77 velocity=77 time=0\n",
      "note_on channel=0 note=62 velocity=80 time=10\n",
      "note_on channel=0 note=63 velocity=86 time=109\n",
      "note_on channel=0 note=62 velocity=0 time=18\n",
      "note_on channel=0 note=63 velocity=0 time=61\n",
      "note_on channel=0 note=77 velocity=0 time=25\n",
      "note_on channel=0 note=67 velocity=92 time=12\n",
      "note_on channel=0 note=75 velocity=76 time=18\n",
      "note_on channel=0 note=75 velocity=0 time=73\n",
      "note_on channel=0 note=72 velocity=75 time=37\n",
      "note_on channel=0 note=67 velocity=0 time=56\n",
      "note_on channel=0 note=72 velocity=0 time=6\n",
      "note_on channel=0 note=74 velocity=73 time=58\n",
      "note_on channel=0 note=65 velocity=76 time=6\n",
      "note_on channel=0 note=74 velocity=0 time=37\n",
      "note_on channel=0 note=75 velocity=79 time=62\n",
      "note_on channel=0 note=75 velocity=0 time=48\n",
      "note_on channel=0 note=65 velocity=0 time=48\n",
      "note_on channel=0 note=77 velocity=92 time=29\n",
      "note_on channel=0 note=62 velocity=66 time=214\n",
      "note_on channel=0 note=62 velocity=0 time=58\n",
      "note_on channel=0 note=58 velocity=68 time=45\n",
      "note_on channel=0 note=58 velocity=0 time=57\n",
      "note_on channel=0 note=68 velocity=91 time=64\n",
      "note_on channel=0 note=77 velocity=0 time=59\n",
      "note_on channel=0 note=75 velocity=74 time=62\n",
      "note_on channel=0 note=68 velocity=0 time=17\n",
      "note_on channel=0 note=75 velocity=0 time=55\n",
      "note_on channel=0 note=67 velocity=89 time=50\n",
      "note_on channel=0 note=77 velocity=65 time=10\n",
      "note_on channel=0 note=79 velocity=68 time=101\n",
      "note_on channel=0 note=77 velocity=0 time=52\n",
      "note_on channel=0 note=67 velocity=0 time=49\n",
      "note_on channel=0 note=65 velocity=88 time=15\n",
      "note_on channel=0 note=80 velocity=75 time=4\n",
      "note_on channel=0 note=79 velocity=0 time=10\n",
      "note_on channel=0 note=77 velocity=64 time=90\n",
      "note_on channel=0 note=80 velocity=0 time=5\n",
      "note_on channel=0 note=65 velocity=0 time=44\n",
      "note_on channel=0 note=65 velocity=3 time=0\n",
      "note_on channel=0 note=65 velocity=0 time=24\n",
      "note_on channel=0 note=77 velocity=0 time=27\n",
      "note_on channel=0 note=67 velocity=64 time=2\n",
      "note_on channel=0 note=70 velocity=61 time=23\n",
      "note_on channel=0 note=67 velocity=0 time=6\n",
      "note_on channel=0 note=65 velocity=65 time=35\n",
      "note_on channel=0 note=65 velocity=0 time=23\n",
      "note_on channel=0 note=67 velocity=64 time=19\n",
      "note_on channel=0 note=67 velocity=0 time=28\n",
      "note_on channel=0 note=80 velocity=56 time=1\n",
      "note_on channel=0 note=70 velocity=0 time=19\n",
      "note_on channel=0 note=65 velocity=71 time=4\n",
      "note_on channel=0 note=63 velocity=78 time=54\n",
      "note_on channel=0 note=80 velocity=0 time=2\n",
      "note_on channel=0 note=65 velocity=0 time=2\n",
      "note_on channel=0 note=79 velocity=72 time=9\n",
      "note_on channel=0 note=63 velocity=0 time=103\n",
      "note_on channel=0 note=70 velocity=65 time=15\n",
      "note_on channel=0 note=70 velocity=0 time=50\n",
      "note_on channel=0 note=79 velocity=0 time=29\n",
      "note_on channel=0 note=67 velocity=51 time=27\n",
      "note_on channel=0 note=75 velocity=74 time=2\n",
      "note_on channel=0 note=67 velocity=0 time=54\n",
      "note_on channel=0 note=75 velocity=0 time=7\n",
      "note_on channel=0 note=79 velocity=80 time=41\n",
      "note_on channel=0 note=65 velocity=52 time=6\n",
      "note_on channel=0 note=79 velocity=0 time=61\n",
      "note_on channel=0 note=65 velocity=0 time=18\n",
      "note_on channel=0 note=84 velocity=84 time=34\n",
      "note_on channel=0 note=63 velocity=43 time=14\n",
      "note_on channel=0 note=72 velocity=59 time=117\n",
      "note_on channel=0 note=72 velocity=0 time=44\n",
      "note_on channel=0 note=63 velocity=0 time=25\n",
      "note_on channel=0 note=69 velocity=58 time=41\n",
      "note_on channel=0 note=69 velocity=0 time=51\n",
      "note_on channel=0 note=65 velocity=46 time=69\n",
      "note_on channel=0 note=65 velocity=0 time=51\n",
      "note_on channel=0 note=62 velocity=49 time=51\n",
      "note_on channel=0 note=62 velocity=0 time=78\n",
      "note_on channel=0 note=69 velocity=48 time=43\n",
      "note_on channel=0 note=69 velocity=0 time=48\n",
      "note_on channel=0 note=74 velocity=62 time=49\n",
      "note_on channel=0 note=65 velocity=37 time=18\n",
      "note_on channel=0 note=84 velocity=0 time=9\n",
      "note_on channel=0 note=74 velocity=0 time=17\n",
      "note_on channel=0 note=65 velocity=0 time=5\n",
      "note_on channel=0 note=77 velocity=74 time=55\n",
      "note_on channel=0 note=63 velocity=46 time=10\n",
      "note_on channel=0 note=63 velocity=0 time=36\n",
      "note_on channel=0 note=77 velocity=0 time=1\n",
      "note_on channel=0 note=82 velocity=77 time=69\n",
      "note_on channel=0 note=61 velocity=47 time=15\n",
      "note_on channel=0 note=61 velocity=0 time=28\n",
      "note_on channel=0 note=70 velocity=57 time=70\n",
      "note_on channel=0 note=70 velocity=0 time=55\n",
      "note_on channel=0 note=67 velocity=58 time=47\n",
      "note_on channel=0 note=67 velocity=0 time=41\n",
      "note_on channel=0 note=63 velocity=61 time=69\n",
      "note_on channel=0 note=63 velocity=0 time=70\n",
      "note_on channel=0 note=60 velocity=50 time=68\n",
      "note_on channel=0 note=67 velocity=44 time=112\n",
      "note_on channel=0 note=60 velocity=0 time=25\n",
      "note_on channel=0 note=67 velocity=0 time=20\n",
      "note_on channel=0 note=72 velocity=57 time=55\n",
      "note_on channel=0 note=82 velocity=0 time=7\n",
      "note_on channel=0 note=63 velocity=38 time=3\n",
      "note_on channel=0 note=72 velocity=0 time=22\n",
      "note_on channel=0 note=63 velocity=0 time=30\n",
      "note_on channel=0 note=60 velocity=45 time=36\n",
      "note_on channel=0 note=75 velocity=67 time=4\n",
      "note_on channel=0 note=60 velocity=0 time=36\n",
      "note_on channel=0 note=75 velocity=0 time=6\n",
      "note_on channel=0 note=62 velocity=59 time=69\n",
      "note_on channel=0 note=80 velocity=84 time=0\n",
      "control_change channel=0 control=64 value=53 time=42\n",
      "control_change channel=0 control=64 value=56 time=16\n",
      "control_change channel=0 control=64 value=58 time=15\n",
      "note_on channel=0 note=62 velocity=0 time=10\n",
      "control_change channel=0 control=64 value=61 time=5\n",
      "control_change channel=0 control=64 value=64 time=15\n",
      "note_on channel=0 note=70 velocity=68 time=6\n",
      "control_change channel=0 control=64 value=66 time=9\n",
      "control_change channel=0 control=64 value=67 time=15\n",
      "control_change channel=0 control=64 value=68 time=16\n",
      "note_on channel=0 note=80 velocity=0 time=1\n",
      "control_change channel=0 control=64 value=70 time=14\n",
      "control_change channel=0 control=64 value=71 time=16\n",
      "control_change channel=0 control=64 value=73 time=15\n",
      "note_on channel=0 note=70 velocity=0 time=9\n",
      "control_change channel=0 control=64 value=76 time=6\n",
      "control_change channel=0 control=64 value=77 time=22\n",
      "note_on channel=0 note=63 velocity=68 time=9\n",
      "note_on channel=0 note=79 velocity=79 time=2\n",
      "control_change channel=0 control=64 value=79 time=4\n",
      "control_change channel=0 control=64 value=80 time=16\n",
      "note_on channel=0 note=63 velocity=0 time=5\n",
      "note_on channel=0 note=72 velocity=72 time=78\n",
      "control_change channel=0 control=64 value=79 time=69\n",
      "note_on channel=0 note=79 velocity=0 time=0\n",
      "control_change channel=0 control=64 value=78 time=15\n",
      "note_on channel=0 note=72 velocity=0 time=0\n",
      "control_change channel=0 control=64 value=75 time=15\n",
      "control_change channel=0 control=64 value=67 time=16\n",
      "note_on channel=0 note=74 velocity=74 time=9\n",
      "note_on channel=0 note=77 velocity=73 time=0\n",
      "control_change channel=0 control=64 value=49 time=6\n",
      "note_on channel=0 note=58 velocity=91 time=7\n",
      "control_change channel=0 control=64 value=0 time=8\n",
      "note_on channel=0 note=58 velocity=0 time=61\n",
      "note_on channel=0 note=74 velocity=0 time=18\n",
      "note_on channel=0 note=55 velocity=77 time=17\n",
      "note_on channel=0 note=55 velocity=0 time=118\n",
      "note_on channel=0 note=53 velocity=74 time=3\n",
      "note_on channel=0 note=73 velocity=79 time=3\n",
      "note_on channel=0 note=53 velocity=0 time=86\n",
      "note_on channel=0 note=55 velocity=76 time=22\n",
      "note_on channel=0 note=55 velocity=0 time=82\n",
      "note_on channel=0 note=77 velocity=0 time=7\n",
      "note_on channel=0 note=51 velocity=76 time=27\n",
      "note_on channel=0 note=72 velocity=80 time=12\n",
      "note_on channel=0 note=79 velocity=74 time=3\n",
      "note_on channel=0 note=73 velocity=0 time=2\n",
      "note_on channel=0 note=51 velocity=0 time=59\n",
      "note_on channel=0 note=56 velocity=80 time=45\n",
      "note_on channel=0 note=79 velocity=0 time=34\n",
      "note_on channel=0 note=56 velocity=0 time=22\n",
      "note_on channel=0 note=55 velocity=80 time=59\n",
      "note_on channel=0 note=70 velocity=74 time=13\n",
      "note_on channel=0 note=72 velocity=0 time=4\n",
      "note_on channel=0 note=74 velocity=66 time=4\n",
      "note_on channel=0 note=55 velocity=0 time=79\n",
      "note_on channel=0 note=56 velocity=86 time=11\n",
      "note_on channel=0 note=70 velocity=0 time=35\n",
      "note_on channel=0 note=56 velocity=0 time=9\n",
      "note_on channel=0 note=74 velocity=0 time=6\n",
      "note_on channel=0 note=60 velocity=92 time=79\n",
      "note_on channel=0 note=68 velocity=79 time=11\n",
      "note_on channel=0 note=75 velocity=68 time=5\n",
      "note_on channel=0 note=75 velocity=0 time=51\n",
      "note_on channel=0 note=68 velocity=0 time=7\n",
      "note_on channel=0 note=67 velocity=72 time=50\n",
      "note_on channel=0 note=60 velocity=0 time=54\n",
      "note_on channel=0 note=67 velocity=0 time=10\n",
      "note_on channel=0 note=58 velocity=74 time=59\n",
      "note_on channel=0 note=68 velocity=72 time=3\n",
      "note_on channel=0 note=68 velocity=0 time=58\n",
      "note_on channel=0 note=70 velocity=75 time=54\n",
      "note_on channel=0 note=70 velocity=0 time=46\n",
      "note_on channel=0 note=58 velocity=0 time=28\n",
      "note_on channel=0 note=72 velocity=80 time=52\n",
      "note_on channel=0 note=57 velocity=78 time=216\n",
      "note_on channel=0 note=77 velocity=78 time=5\n",
      "note_on channel=0 note=72 velocity=0 time=17\n",
      "note_on channel=0 note=57 velocity=0 time=41\n",
      "note_on channel=0 note=53 velocity=77 time=41\n",
      "note_on channel=0 note=53 velocity=0 time=91\n",
      "note_on channel=0 note=63 velocity=90 time=29\n",
      "note_on channel=0 note=79 velocity=77 time=11\n",
      "note_on channel=0 note=77 velocity=0 time=6\n",
      "note_on channel=0 note=70 velocity=73 time=106\n",
      "note_on channel=0 note=63 velocity=0 time=10\n",
      "note_on channel=0 note=70 velocity=0 time=61\n",
      "note_on channel=0 note=79 velocity=0 time=38\n",
      "note_on channel=0 note=62 velocity=84 time=15\n",
      "note_on channel=0 note=72 velocity=73 time=4\n",
      "note_on channel=0 note=72 velocity=0 time=103\n",
      "note_on channel=0 note=74 velocity=72 time=5\n",
      "note_on channel=0 note=74 velocity=0 time=58\n",
      "note_on channel=0 note=62 velocity=0 time=28\n",
      "note_on channel=0 note=60 velocity=78 time=33\n",
      "note_on channel=0 note=75 velocity=72 time=6\n",
      "control_change channel=0 control=64 value=44 time=18\n",
      "control_change channel=0 control=64 value=61 time=16\n",
      "control_change channel=0 control=64 value=65 time=15\n",
      "control_change channel=0 control=64 value=69 time=15\n",
      "note_on channel=0 note=75 velocity=0 time=2\n",
      "control_change channel=0 control=64 value=73 time=13\n",
      "control_change channel=0 control=64 value=78 time=16\n",
      "control_change channel=0 control=64 value=80 time=15\n",
      "note_on channel=0 note=72 velocity=66 time=7\n",
      "control_change channel=0 control=64 value=81 time=9\n",
      "control_change channel=0 control=64 value=82 time=15\n",
      "note_on channel=0 note=72 velocity=0 time=8\n",
      "note_on channel=0 note=81 velocity=65 time=73\n",
      "note_on channel=0 note=81 velocity=0 time=52\n",
      "control_change channel=0 control=64 value=82 time=4\n",
      "note_on channel=0 note=75 velocity=67 time=45\n",
      "note_on channel=0 note=75 velocity=0 time=45\n",
      "control_change channel=0 control=64 value=82 time=46\n",
      "note_on channel=0 note=60 velocity=0 time=6\n",
      "control_change channel=0 control=64 value=80 time=9\n",
      "control_change channel=0 control=64 value=77 time=16\n",
      "note_on channel=0 note=82 velocity=72 time=13\n",
      "control_change channel=0 control=64 value=70 time=1\n",
      "note_on channel=0 note=74 velocity=53 time=22\n",
      "control_change channel=0 control=64 value=56 time=2\n",
      "note_on channel=0 note=58 velocity=48 time=1\n",
      "control_change channel=0 control=64 value=0 time=14\n",
      "note_on channel=0 note=58 velocity=0 time=60\n",
      "note_on channel=0 note=74 velocity=0 time=15\n",
      "note_on channel=0 note=65 velocity=54 time=15\n",
      "note_on channel=0 note=65 velocity=0 time=46\n",
      "note_on channel=0 note=62 velocity=54 time=80\n",
      "note_on channel=0 note=77 velocity=63 time=7\n",
      "note_on channel=0 note=62 velocity=0 time=32\n",
      "note_on channel=0 note=58 velocity=57 time=72\n",
      "note_on channel=0 note=58 velocity=0 time=39\n",
      "note_on channel=0 note=74 velocity=66 time=75\n",
      "note_on channel=0 note=56 velocity=52 time=6\n",
      "note_on channel=0 note=77 velocity=0 time=65\n",
      "note_on channel=0 note=56 velocity=0 time=3\n",
      "note_on channel=0 note=65 velocity=57 time=45\n",
      "note_on channel=0 note=65 velocity=0 time=45\n",
      "note_on channel=0 note=74 velocity=0 time=54\n",
      "note_on channel=0 note=62 velocity=62 time=17\n",
      "note_on channel=0 note=70 velocity=66 time=7\n",
      "note_on channel=0 note=62 velocity=0 time=34\n",
      "note_on channel=0 note=56 velocity=60 time=76\n",
      "note_on channel=0 note=56 velocity=0 time=35\n",
      "note_on channel=0 note=82 velocity=0 time=3\n",
      "note_on channel=0 note=70 velocity=0 time=36\n",
      "note_on channel=0 note=55 velocity=51 time=50\n",
      "note_on channel=0 note=75 velocity=69 time=6\n",
      "note_on channel=0 note=55 velocity=0 time=106\n",
      "note_on channel=0 note=82 velocity=70 time=3\n",
      "note_on channel=0 note=75 velocity=0 time=30\n",
      "note_on channel=0 note=82 velocity=0 time=26\n",
      "note_on channel=0 note=63 velocity=46 time=60\n",
      "note_on channel=0 note=79 velocity=71 time=1\n",
      "note_on channel=0 note=79 velocity=0 time=64\n",
      "note_on channel=0 note=75 velocity=76 time=45\n",
      "note_on channel=0 note=75 velocity=0 time=55\n",
      "note_on channel=0 note=73 velocity=70 time=64\n",
      "note_on channel=0 note=73 velocity=0 time=76\n",
      "note_on channel=0 note=82 velocity=65 time=34\n",
      "note_on channel=0 note=82 velocity=0 time=44\n",
      "note_on channel=0 note=63 velocity=0 time=48\n",
      "note_on channel=0 note=51 velocity=53 time=22\n",
      "note_on channel=0 note=79 velocity=61 time=8\n",
      "note_on channel=0 note=51 velocity=0 time=42\n",
      "note_on channel=0 note=79 velocity=0 time=5\n",
      "note_on channel=0 note=73 velocity=67 time=57\n",
      "note_on channel=0 note=73 velocity=0 time=40\n",
      "note_on channel=0 note=56 velocity=62 time=80\n",
      "note_on channel=0 note=72 velocity=76 time=1\n",
      "note_on channel=0 note=56 velocity=0 time=99\n",
      "note_on channel=0 note=63 velocity=60 time=21\n",
      "note_on channel=0 note=63 velocity=0 time=56\n",
      "note_on channel=0 note=72 velocity=0 time=26\n",
      "note_on channel=0 note=60 velocity=54 time=41\n",
      "note_on channel=0 note=75 velocity=81 time=0\n",
      "note_on channel=0 note=60 velocity=0 time=40\n",
      "note_on channel=0 note=56 velocity=61 time=66\n",
      "note_on channel=0 note=56 velocity=0 time=46\n",
      "note_on channel=0 note=75 velocity=0 time=41\n",
      "note_on channel=0 note=55 velocity=47 time=46\n",
      "note_on channel=0 note=80 velocity=79 time=1\n",
      "note_on channel=0 note=72 velocity=68 time=12\n",
      "note_on channel=0 note=55 velocity=0 time=81\n",
      "note_on channel=0 note=63 velocity=52 time=28\n",
      "note_on channel=0 note=63 velocity=0 time=38\n",
      "note_on channel=0 note=72 velocity=0 time=11\n",
      "note_on channel=0 note=60 velocity=53 time=70\n",
      "note_on channel=0 note=68 velocity=57 time=3\n",
      "note_on channel=0 note=60 velocity=0 time=33\n",
      "note_on channel=0 note=55 velocity=41 time=83\n",
      "note_on channel=0 note=55 velocity=0 time=44\n",
      "note_on channel=0 note=68 velocity=0 time=18\n",
      "note_on channel=0 note=80 velocity=0 time=15\n",
      "note_on channel=0 note=53 velocity=66 time=38\n",
      "note_on channel=0 note=74 velocity=52 time=17\n",
      "note_on channel=0 note=80 velocity=60 time=107\n",
      "note_on channel=0 note=74 velocity=0 time=36\n",
      "note_on channel=0 note=80 velocity=0 time=10\n",
      "note_on channel=0 note=53 velocity=0 time=74\n",
      "note_on channel=0 note=62 velocity=61 time=5\n",
      "note_on channel=0 note=77 velocity=60 time=0\n",
      "note_on channel=0 note=77 velocity=0 time=61\n",
      "note_on channel=0 note=62 velocity=0 time=46\n",
      "note_on channel=0 note=74 velocity=68 time=0\n",
      "note_on channel=0 note=74 velocity=0 time=53\n",
      "note_on channel=0 note=72 velocity=72 time=61\n",
      "note_on channel=0 note=72 velocity=0 time=82\n",
      "note_on channel=0 note=80 velocity=72 time=25\n",
      "note_on channel=0 note=80 velocity=0 time=64\n",
      "note_on channel=0 note=50 velocity=61 time=48\n",
      "note_on channel=0 note=77 velocity=68 time=7\n",
      "note_on channel=0 note=77 velocity=0 time=67\n",
      "note_on channel=0 note=72 velocity=71 time=40\n",
      "note_on channel=0 note=50 velocity=0 time=30\n",
      "note_on channel=0 note=72 velocity=0 time=23\n",
      "note_on channel=0 note=55 velocity=54 time=63\n",
      "note_on channel=0 note=70 velocity=74 time=6\n",
      "note_on channel=0 note=55 velocity=0 time=67\n",
      "note_on channel=0 note=62 velocity=67 time=44\n",
      "note_on channel=0 note=62 velocity=0 time=68\n",
      "note_on channel=0 note=70 velocity=0 time=7\n",
      "note_on channel=0 note=58 velocity=69 time=50\n",
      "note_on channel=0 note=74 velocity=75 time=3\n",
      "note_on channel=0 note=58 velocity=0 time=50\n",
      "note_on channel=0 note=55 velocity=63 time=55\n",
      "note_on channel=0 note=55 velocity=0 time=41\n",
      "note_on channel=0 note=74 velocity=0 time=37\n",
      "note_on channel=0 note=79 velocity=74 time=33\n",
      "note_on channel=0 note=53 velocity=67 time=4\n",
      "note_on channel=0 note=70 velocity=65 time=11\n",
      "note_on channel=0 note=53 velocity=0 time=81\n",
      "note_on channel=0 note=61 velocity=70 time=19\n",
      "note_on channel=0 note=61 velocity=0 time=47\n",
      "note_on channel=0 note=70 velocity=0 time=42\n",
      "note_on channel=0 note=79 velocity=0 time=8\n",
      "note_on channel=0 note=67 velocity=70 time=19\n",
      "note_on channel=0 note=58 velocity=69 time=5\n",
      "note_on channel=0 note=58 velocity=0 time=42\n",
      "note_on channel=0 note=53 velocity=65 time=62\n",
      "note_on channel=0 note=53 velocity=0 time=52\n",
      "note_on channel=0 note=67 velocity=0 time=58\n",
      "note_on channel=0 note=72 velocity=71 time=20\n",
      "note_on channel=0 note=52 velocity=68 time=4\n",
      "note_on channel=0 note=52 velocity=0 time=103\n",
      "note_on channel=0 note=60 velocity=59 time=7\n",
      "note_on channel=0 note=60 velocity=0 time=67\n",
      "note_on channel=0 note=72 velocity=0 time=38\n",
      "note_on channel=0 note=55 velocity=54 time=15\n",
      "note_on channel=0 note=70 velocity=71 time=4\n",
      "note_on channel=0 note=55 velocity=0 time=40\n",
      "note_on channel=0 note=52 velocity=54 time=73\n",
      "note_on channel=0 note=52 velocity=0 time=45\n",
      "note_on channel=0 note=70 velocity=0 time=53\n",
      "note_on channel=0 note=53 velocity=57 time=20\n",
      "note_on channel=0 note=68 velocity=76 time=0\n",
      "note_on channel=0 note=53 velocity=0 time=48\n",
      "note_on channel=0 note=68 velocity=0 time=23\n",
      "note_on channel=0 note=72 velocity=71 time=36\n",
      "note_on channel=0 note=60 velocity=62 time=5\n",
      "note_on channel=0 note=60 velocity=0 time=59\n",
      "note_on channel=0 note=72 velocity=0 time=9\n",
      "note_on channel=0 note=74 velocity=72 time=40\n",
      "note_on channel=0 note=56 velocity=60 time=8\n",
      "note_on channel=0 note=56 velocity=0 time=45\n",
      "note_on channel=0 note=74 velocity=0 time=0\n",
      "note_on channel=0 note=75 velocity=79 time=56\n",
      "note_on channel=0 note=53 velocity=59 time=10\n",
      "note_on channel=0 note=53 velocity=0 time=40\n",
      "note_on channel=0 note=75 velocity=0 time=1\n",
      "note_on channel=0 note=77 velocity=92 time=59\n",
      "note_on channel=0 note=50 velocity=56 time=17\n",
      "note_on channel=0 note=50 velocity=0 time=80\n",
      "note_on channel=0 note=72 velocity=68 time=18\n",
      "note_on channel=0 note=58 velocity=56 time=11\n",
      "note_on channel=0 note=58 velocity=0 time=29\n",
      "note_on channel=0 note=72 velocity=0 time=31\n",
      "note_on channel=0 note=70 velocity=65 time=48\n",
      "note_on channel=0 note=53 velocity=51 time=5\n",
      "note_on channel=0 note=70 velocity=0 time=29\n",
      "note_on channel=0 note=53 velocity=0 time=9\n",
      "note_on channel=0 note=77 velocity=0 time=35\n",
      "note_on channel=0 note=68 velocity=64 time=25\n",
      "note_on channel=0 note=50 velocity=34 time=18\n",
      "note_on channel=0 note=68 velocity=0 time=27\n",
      "note_on channel=0 note=50 velocity=0 time=13\n",
      "note_on channel=0 note=51 velocity=46 time=66\n",
      "note_on channel=0 note=67 velocity=66 time=2\n",
      "note_on channel=0 note=51 velocity=0 time=46\n",
      "note_on channel=0 note=58 velocity=52 time=77\n",
      "note_on channel=0 note=58 velocity=0 time=55\n",
      "note_on channel=0 note=67 velocity=0 time=46\n",
      "note_on channel=0 note=75 velocity=79 time=23\n",
      "note_on channel=0 note=55 velocity=39 time=10\n",
      "note_on channel=0 note=55 velocity=0 time=48\n",
      "note_on channel=0 note=51 velocity=52 time=35\n",
      "note_on channel=0 note=51 velocity=0 time=28\n",
      "note_on channel=0 note=46 velocity=66 time=92\n",
      "note_on channel=0 note=65 velocity=63 time=17\n",
      "note_on channel=0 note=65 velocity=0 time=82\n",
      "note_on channel=0 note=75 velocity=0 time=0\n",
      "note_on channel=0 note=74 velocity=72 time=25\n",
      "note_on channel=0 note=46 velocity=0 time=111\n",
      "note_on channel=0 note=56 velocity=77 time=4\n",
      "note_on channel=0 note=72 velocity=77 time=4\n",
      "note_on channel=0 note=74 velocity=0 time=5\n",
      "note_on channel=0 note=46 velocity=27 time=7\n",
      "note_on channel=0 note=72 velocity=0 time=66\n",
      "note_on channel=0 note=74 velocity=78 time=36\n",
      "note_on channel=0 note=56 velocity=0 time=3\n",
      "note_on channel=0 note=46 velocity=0 time=100\n",
      "note_on channel=0 note=74 velocity=0 time=0\n",
      "note_on channel=0 note=70 velocity=88 time=43\n",
      "note_on channel=0 note=55 velocity=71 time=1\n",
      "note_on channel=0 note=70 velocity=0 time=54\n",
      "note_on channel=0 note=75 velocity=89 time=53\n",
      "note_on channel=0 note=75 velocity=0 time=65\n",
      "note_on channel=0 note=55 velocity=0 time=44\n",
      "note_on channel=0 note=74 velocity=85 time=19\n",
      "note_on channel=0 note=53 velocity=80 time=9\n",
      "note_on channel=0 note=74 velocity=0 time=49\n",
      "note_on channel=0 note=75 velocity=81 time=52\n",
      "note_on channel=0 note=53 velocity=0 time=9\n",
      "note_on channel=0 note=75 velocity=0 time=49\n",
      "note_on channel=0 note=51 velocity=72 time=70\n",
      "note_on channel=0 note=79 velocity=81 time=2\n",
      "note_on channel=0 note=51 velocity=0 time=79\n",
      "note_on channel=0 note=48 velocity=71 time=30\n",
      "note_on channel=0 note=48 velocity=0 time=53\n",
      "note_on channel=0 note=79 velocity=0 time=8\n",
      "note_on channel=0 note=77 velocity=69 time=59\n",
      "note_on channel=0 note=50 velocity=62 time=2\n",
      "note_on channel=0 note=68 velocity=67 time=2\n",
      "note_on channel=0 note=68 velocity=0 time=31\n",
      "note_on channel=0 note=50 velocity=0 time=11\n",
      "note_on channel=0 note=51 velocity=64 time=62\n",
      "note_on channel=0 note=67 velocity=72 time=6\n",
      "note_on channel=0 note=67 velocity=0 time=52\n",
      "note_on channel=0 note=51 velocity=0 time=6\n",
      "note_on channel=0 note=77 velocity=0 time=14\n",
      "note_on channel=0 note=53 velocity=73 time=50\n",
      "note_on channel=0 note=68 velocity=89 time=10\n",
      "note_on channel=0 note=53 velocity=0 time=18\n",
      "note_on channel=0 note=68 velocity=0 time=175\n",
      "note_on channel=0 note=65 velocity=77 time=30\n",
      "note_on channel=0 note=74 velocity=78 time=2\n",
      "note_on channel=0 note=65 velocity=0 time=26\n",
      "note_on channel=0 note=74 velocity=0 time=33\n",
      "note_on channel=0 note=70 velocity=80 time=39\n",
      "note_on channel=0 note=70 velocity=0 time=67\n",
      "note_on channel=0 note=80 velocity=88 time=55\n",
      "note_on channel=0 note=62 velocity=74 time=9\n",
      "note_on channel=0 note=62 velocity=0 time=82\n",
      "note_on channel=0 note=51 velocity=55 time=47\n",
      "note_on channel=0 note=80 velocity=0 time=38\n",
      "note_on channel=0 note=51 velocity=0 time=48\n",
      "note_on channel=0 note=75 velocity=75 time=27\n",
      "note_on channel=0 note=79 velocity=79 time=0\n",
      "note_on channel=0 note=53 velocity=55 time=8\n",
      "note_on channel=0 note=53 velocity=0 time=44\n",
      "note_on channel=0 note=55 velocity=65 time=68\n",
      "note_on channel=0 note=55 velocity=0 time=35\n",
      "note_on channel=0 note=79 velocity=0 time=11\n",
      "note_on channel=0 note=75 velocity=0 time=22\n",
      "note_on channel=0 note=77 velocity=78 time=51\n",
      "note_on channel=0 note=56 velocity=51 time=2\n",
      "note_on channel=0 note=56 velocity=0 time=72\n",
      "note_on channel=0 note=53 velocity=58 time=43\n",
      "note_on channel=0 note=53 velocity=0 time=55\n",
      "note_on channel=0 note=77 velocity=0 time=58\n",
      "note_on channel=0 note=74 velocity=62 time=7\n",
      "note_on channel=0 note=46 velocity=46 time=9\n",
      "note_on channel=0 note=46 velocity=0 time=41\n",
      "note_on channel=0 note=56 velocity=63 time=69\n",
      "note_on channel=0 note=56 velocity=0 time=45\n",
      "note_on channel=0 note=74 velocity=0 time=49\n",
      "note_on channel=0 note=55 velocity=77 time=33\n",
      "note_on channel=0 note=75 velocity=71 time=8\n",
      "note_on channel=0 note=82 velocity=60 time=117\n",
      "note_on channel=0 note=75 velocity=0 time=18\n",
      "note_on channel=0 note=82 velocity=0 time=97\n",
      "note_on channel=0 note=58 velocity=78 time=5\n",
      "note_on channel=0 note=55 velocity=0 time=4\n",
      "note_on channel=0 note=79 velocity=63 time=4\n",
      "note_on channel=0 note=79 velocity=0 time=100\n",
      "note_on channel=0 note=75 velocity=59 time=11\n",
      "note_on channel=0 note=75 velocity=0 time=89\n",
      "note_on channel=0 note=58 velocity=0 time=9\n",
      "note_on channel=0 note=63 velocity=87 time=19\n",
      "note_on channel=0 note=73 velocity=68 time=12\n",
      "note_on channel=0 note=82 velocity=60 time=116\n",
      "note_on channel=0 note=73 velocity=0 time=2\n",
      "note_on channel=0 note=82 velocity=0 time=105\n",
      "note_on channel=0 note=51 velocity=37 time=6\n",
      "note_on channel=0 note=79 velocity=56 time=19\n",
      "note_on channel=0 note=51 velocity=0 time=13\n",
      "note_on channel=0 note=79 velocity=0 time=31\n",
      "note_on channel=0 note=73 velocity=60 time=51\n",
      "note_on channel=0 note=73 velocity=0 time=38\n",
      "note_on channel=0 note=63 velocity=0 time=74\n",
      "note_on channel=0 note=72 velocity=79 time=3\n",
      "note_on channel=0 note=56 velocity=49 time=17\n",
      "note_on channel=0 note=56 velocity=0 time=70\n",
      "note_on channel=0 note=63 velocity=54 time=42\n",
      "note_on channel=0 note=63 velocity=0 time=76\n",
      "note_on channel=0 note=60 velocity=41 time=53\n",
      "note_on channel=0 note=72 velocity=0 time=2\n",
      "note_on channel=0 note=80 velocity=69 time=0\n",
      "note_on channel=0 note=60 velocity=0 time=33\n",
      "note_on channel=0 note=56 velocity=53 time=73\n",
      "note_on channel=0 note=56 velocity=0 time=44\n",
      "note_on channel=0 note=55 velocity=56 time=71\n",
      "note_on channel=0 note=55 velocity=0 time=58\n",
      "note_on channel=0 note=80 velocity=0 time=4\n",
      "note_on channel=0 note=63 velocity=58 time=44\n",
      "note_on channel=0 note=63 velocity=0 time=42\n",
      "note_on channel=0 note=68 velocity=65 time=67\n",
      "note_on channel=0 note=60 velocity=58 time=5\n",
      "note_on channel=0 note=60 velocity=0 time=40\n",
      "note_on channel=0 note=55 velocity=62 time=56\n",
      "note_on channel=0 note=55 velocity=0 time=50\n",
      "note_on channel=0 note=68 velocity=0 time=13\n",
      "note_on channel=0 note=53 velocity=78 time=61\n",
      "note_on channel=0 note=74 velocity=64 time=6\n",
      "note_on channel=0 note=80 velocity=69 time=116\n",
      "note_on channel=0 note=74 velocity=0 time=47\n",
      "note_on channel=0 note=80 velocity=0 time=20\n",
      "note_on channel=0 note=53 velocity=0 time=17\n",
      "note_on channel=0 note=56 velocity=79 time=39\n",
      "note_on channel=0 note=77 velocity=72 time=8\n",
      "note_on channel=0 note=77 velocity=0 time=98\n",
      "note_on channel=0 note=74 velocity=66 time=11\n",
      "note_on channel=0 note=56 velocity=0 time=39\n",
      "note_on channel=0 note=56 velocity=7 time=0\n",
      "note_on channel=0 note=56 velocity=0 time=70\n",
      "note_on channel=0 note=74 velocity=0 time=0\n",
      "note_on channel=0 note=62 velocity=86 time=19\n",
      "note_on channel=0 note=72 velocity=77 time=5\n",
      "note_on channel=0 note=72 velocity=0 time=101\n",
      "note_on channel=0 note=80 velocity=63 time=15\n",
      "note_on channel=0 note=80 velocity=0 time=90\n",
      "note_on channel=0 note=50 velocity=60 time=33\n",
      "note_on channel=0 note=77 velocity=58 time=3\n",
      "note_on channel=0 note=50 velocity=0 time=31\n",
      "note_on channel=0 note=77 velocity=0 time=18\n",
      "note_on channel=0 note=72 velocity=63 time=49\n",
      "note_on channel=0 note=72 velocity=0 time=55\n",
      "note_on channel=0 note=62 velocity=0 time=67\n",
      "note_on channel=0 note=71 velocity=73 time=9\n",
      "note_on channel=0 note=55 velocity=56 time=9\n",
      "note_on channel=0 note=55 velocity=0 time=84\n",
      "note_on channel=0 note=62 velocity=56 time=37\n",
      "note_on channel=0 note=62 velocity=0 time=60\n",
      "note_on channel=0 note=71 velocity=0 time=42\n",
      "note_on channel=0 note=59 velocity=59 time=19\n",
      "note_on channel=0 note=79 velocity=62 time=10\n",
      "note_on channel=0 note=59 velocity=0 time=31\n",
      "note_on channel=0 note=55 velocity=61 time=69\n",
      "note_on channel=0 note=55 velocity=0 time=40\n",
      "note_on channel=0 note=79 velocity=0 time=55\n",
      "note_on channel=0 note=53 velocity=66 time=18\n",
      "note_on channel=0 note=53 velocity=0 time=56\n",
      "note_on channel=0 note=62 velocity=63 time=61\n",
      "note_on channel=0 note=62 velocity=0 time=64\n",
      "note_on channel=0 note=59 velocity=58 time=51\n",
      "note_on channel=0 note=67 velocity=72 time=1\n",
      "note_on channel=0 note=59 velocity=0 time=39\n",
      "note_on channel=0 note=53 velocity=64 time=66\n",
      "note_on channel=0 note=53 velocity=0 time=53\n",
      "note_on channel=0 note=67 velocity=0 time=19\n",
      "note_on channel=0 note=52 velocity=72 time=57\n",
      "note_on channel=0 note=72 velocity=67 time=2\n",
      "note_on channel=0 note=52 velocity=0 time=53\n",
      "note_on channel=0 note=72 velocity=0 time=17\n",
      "note_on channel=0 note=79 velocity=63 time=36\n",
      "note_on channel=0 note=79 velocity=0 time=98\n",
      "note_on channel=0 note=55 velocity=75 time=34\n",
      "note_on channel=0 note=76 velocity=65 time=6\n",
      "note_on channel=0 note=55 velocity=0 time=43\n",
      "note_on channel=0 note=76 velocity=0 time=12\n",
      "note_on channel=0 note=72 velocity=67 time=54\n",
      "note_on channel=0 note=72 velocity=0 time=62\n",
      "note_on channel=0 note=60 velocity=83 time=60\n",
      "note_on channel=0 note=70 velocity=65 time=16\n",
      "note_on channel=0 note=70 velocity=0 time=97\n",
      "note_on channel=0 note=79 velocity=56 time=16\n",
      "note_on channel=0 note=79 velocity=0 time=110\n",
      "note_on channel=0 note=48 velocity=66 time=7\n",
      "note_on channel=0 note=76 velocity=53 time=9\n",
      "note_on channel=0 note=48 velocity=0 time=30\n",
      "note_on channel=0 note=76 velocity=0 time=34\n",
      "note_on channel=0 note=70 velocity=62 time=45\n",
      "note_on channel=0 note=70 velocity=0 time=45\n",
      "note_on channel=0 note=53 velocity=65 time=69\n",
      "note_on channel=0 note=69 velocity=59 time=13\n",
      "control_change channel=0 control=64 value=47 time=79\n",
      "control_change channel=0 control=64 value=59 time=16\n",
      "control_change channel=0 control=64 value=64 time=14\n",
      "note_on channel=0 note=69 velocity=0 time=3\n",
      "note_on channel=0 note=79 velocity=62 time=0\n",
      "control_change channel=0 control=64 value=66 time=12\n",
      "control_change channel=0 control=64 value=69 time=16\n",
      "control_change channel=0 control=64 value=72 time=15\n",
      "control_change channel=0 control=64 value=75 time=16\n",
      "note_on channel=0 note=53 velocity=0 time=3\n",
      "control_change channel=0 control=64 value=78 time=12\n",
      "note_on channel=0 note=79 velocity=0 time=11\n",
      "control_change channel=0 control=64 value=80 time=4\n",
      "note_on channel=0 note=51 velocity=67 time=6\n",
      "control_change channel=0 control=64 value=82 time=10\n",
      "note_on channel=0 note=72 velocity=73 time=4\n",
      "control_change channel=0 control=64 value=83 time=10\n",
      "control_change channel=0 control=64 value=85 time=16\n",
      "control_change channel=0 control=64 value=86 time=15\n",
      "note_on channel=0 note=72 velocity=0 time=14\n",
      "control_change channel=0 control=64 value=88 time=1\n",
      "control_change channel=0 control=64 value=90 time=16\n",
      "control_change channel=0 control=64 value=91 time=15\n",
      "note_on channel=0 note=60 velocity=0 time=9\n",
      "control_change channel=0 control=64 value=91 time=6\n",
      "note_on channel=0 note=67 velocity=78 time=5\n",
      "control_change channel=0 control=64 value=91 time=26\n",
      "control_change channel=0 control=64 value=89 time=15\n",
      "control_change channel=0 control=64 value=81 time=15\n",
      "note_on channel=0 note=51 velocity=0 time=11\n",
      "note_on channel=0 note=67 velocity=0 time=2\n",
      "control_change channel=0 control=64 value=63 time=2\n",
      "control_change channel=0 control=64 value=0 time=16\n",
      "note_on channel=0 note=59 velocity=70 time=28\n",
      "note_on channel=0 note=68 velocity=82 time=6\n",
      "note_on channel=0 note=50 velocity=58 time=12\n",
      "control_change channel=0 control=64 value=64 time=52\n",
      "control_change channel=0 control=64 value=73 time=15\n",
      "note_on channel=0 note=68 velocity=0 time=1\n",
      "control_change channel=0 control=64 value=86 time=15\n",
      "note_on channel=0 note=59 velocity=0 time=13\n",
      "control_change channel=0 control=64 value=98 time=2\n",
      "note_on channel=0 note=50 velocity=0 time=0\n",
      "control_change channel=0 control=64 value=108 time=15\n",
      "note_on channel=0 note=77 velocity=79 time=1\n",
      "note_on channel=0 note=68 velocity=35 time=5\n",
      "control_change channel=0 control=64 value=112 time=9\n",
      "note_on channel=0 note=68 velocity=0 time=15\n",
      "control_change channel=0 control=64 value=112 time=16\n",
      "control_change channel=0 control=64 value=103 time=15\n",
      "note_on channel=0 note=77 velocity=0 time=1\n",
      "control_change channel=0 control=64 value=85 time=15\n",
      "control_change channel=0 control=64 value=63 time=14\n",
      "control_change channel=0 control=64 value=0 time=15\n",
      "note_on channel=0 note=60 velocity=73 time=11\n",
      "note_on channel=0 note=74 velocity=77 time=3\n",
      "note_on channel=0 note=48 velocity=65 time=6\n",
      "control_change channel=0 control=64 value=64 time=26\n",
      "control_change channel=0 control=64 value=76 time=15\n",
      "note_on channel=0 note=60 velocity=0 time=3\n",
      "control_change channel=0 control=64 value=91 time=12\n",
      "control_change channel=0 control=64 value=105 time=16\n",
      "control_change channel=0 control=64 value=114 time=14\n",
      "note_on channel=0 note=68 velocity=89 time=11\n",
      "note_on channel=0 note=74 velocity=0 time=1\n",
      "control_change channel=0 control=64 value=121 time=3\n",
      "note_on channel=0 note=48 velocity=0 time=5\n",
      "control_change channel=0 control=64 value=123 time=11\n",
      "control_change channel=0 control=64 value=125 time=15\n",
      "control_change channel=0 control=64 value=124 time=15\n",
      "note_on channel=0 note=68 velocity=0 time=9\n",
      "control_change channel=0 control=64 value=118 time=6\n",
      "control_change channel=0 control=64 value=101 time=15\n",
      "control_change channel=0 control=64 value=81 time=16\n",
      "control_change channel=0 control=64 value=0 time=15\n",
      "note_on channel=0 note=67 velocity=78 time=14\n",
      "note_on channel=0 note=62 velocity=77 time=1\n",
      "note_on channel=0 note=47 velocity=65 time=13\n",
      "control_change channel=0 control=64 value=47 time=17\n",
      "control_change channel=0 control=64 value=70 time=15\n",
      "note_on channel=0 note=62 velocity=0 time=4\n",
      "control_change channel=0 control=64 value=84 time=12\n",
      "control_change channel=0 control=64 value=102 time=15\n",
      "control_change channel=0 control=64 value=111 time=16\n",
      "note_on channel=0 note=67 velocity=0 time=12\n",
      "control_change channel=0 control=64 value=113 time=3\n",
      "note_on channel=0 note=77 velocity=73 time=21\n",
      "note_on channel=0 note=77 velocity=0 time=42\n",
      "control_change channel=0 control=64 value=113 time=44\n",
      "note_on channel=0 note=47 velocity=0 time=2\n",
      "control_change channel=0 control=64 value=111 time=13\n",
      "note_on channel=0 note=74 velocity=77 time=8\n",
      "control_change channel=0 control=64 value=108 time=7\n",
      "note_on channel=0 note=43 velocity=54 time=1\n",
      "control_change channel=0 control=64 value=104 time=15\n",
      "control_change channel=0 control=64 value=101 time=15\n",
      "note_on channel=0 note=74 velocity=0 time=13\n",
      "control_change channel=0 control=64 value=100 time=3\n",
      "control_change channel=0 control=64 value=99 time=14\n",
      "control_change channel=0 control=64 value=99 time=38\n",
      "note_on channel=0 note=71 velocity=87 time=4\n",
      "note_on channel=0 note=43 velocity=0 time=50\n",
      "note_on channel=0 note=43 velocity=3 time=0\n",
      "note_on channel=0 note=71 velocity=0 time=1\n",
      "control_change channel=0 control=64 value=98 time=21\n",
      "control_change channel=0 control=64 value=95 time=15\n",
      "control_change channel=0 control=64 value=86 time=16\n",
      "note_on channel=0 note=48 velocity=81 time=11\n",
      "control_change channel=0 control=64 value=73 time=3\n",
      "note_on channel=0 note=43 velocity=0 time=3\n",
      "note_on channel=0 note=67 velocity=83 time=0\n",
      "control_change channel=0 control=64 value=0 time=12\n",
      "note_on channel=0 note=67 velocity=0 time=86\n",
      "note_on channel=0 note=75 velocity=73 time=9\n",
      "note_on channel=0 note=75 velocity=0 time=61\n",
      "note_on channel=0 note=48 velocity=0 time=22\n",
      "note_on channel=0 note=46 velocity=69 time=34\n",
      "note_on channel=0 note=72 velocity=73 time=2\n",
      "note_on channel=0 note=72 velocity=0 time=66\n",
      "note_on channel=0 note=67 velocity=67 time=36\n",
      "note_on channel=0 note=67 velocity=0 time=36\n",
      "note_on channel=0 note=46 velocity=0 time=48\n",
      "note_on channel=0 note=45 velocity=61 time=30\n",
      "note_on channel=0 note=66 velocity=70 time=14\n",
      "note_on channel=0 note=45 velocity=0 time=55\n",
      "note_on channel=0 note=66 velocity=0 time=19\n",
      "note_on channel=0 note=75 velocity=60 time=33\n",
      "note_on channel=0 note=75 velocity=0 time=109\n",
      "note_on channel=0 note=72 velocity=70 time=6\n",
      "note_on channel=0 note=57 velocity=71 time=1\n",
      "note_on channel=0 note=72 velocity=0 time=55\n",
      "note_on channel=0 note=69 velocity=77 time=49\n",
      "note_on channel=0 note=69 velocity=0 time=64\n",
      "note_on channel=0 note=57 velocity=0 time=34\n",
      "note_on channel=0 note=59 velocity=76 time=34\n",
      "note_on channel=0 note=65 velocity=86 time=0\n",
      "note_on channel=0 note=74 velocity=82 time=112\n",
      "note_on channel=0 note=65 velocity=0 time=20\n",
      "note_on channel=0 note=59 velocity=0 time=55\n",
      "note_on channel=0 note=71 velocity=81 time=41\n",
      "note_on channel=0 note=74 velocity=0 time=2\n",
      "note_on channel=0 note=55 velocity=71 time=3\n",
      "note_on channel=0 note=65 velocity=81 time=108\n",
      "note_on channel=0 note=71 velocity=0 time=6\n",
      "note_on channel=0 note=65 velocity=0 time=49\n",
      "note_on channel=0 note=55 velocity=0 time=43\n",
      "note_on channel=0 note=60 velocity=82 time=18\n",
      "note_on channel=0 note=64 velocity=90 time=11\n",
      "note_on channel=0 note=74 velocity=67 time=116\n",
      "note_on channel=0 note=64 velocity=0 time=5\n",
      "note_on channel=0 note=74 velocity=0 time=95\n",
      "note_on channel=0 note=60 velocity=0 time=11\n",
      "note_on channel=0 note=55 velocity=68 time=10\n",
      "note_on channel=0 note=71 velocity=67 time=6\n",
      "note_on channel=0 note=71 velocity=0 time=86\n",
      "note_on channel=0 note=67 velocity=69 time=25\n",
      "note_on channel=0 note=67 velocity=0 time=65\n",
      "note_on channel=0 note=55 velocity=0 time=20\n",
      "note_on channel=0 note=56 velocity=69 time=26\n",
      "note_on channel=0 note=63 velocity=81 time=7\n",
      "note_on channel=0 note=63 velocity=0 time=89\n",
      "note_on channel=0 note=72 velocity=48 time=34\n",
      "note_on channel=0 note=71 velocity=49 time=9\n",
      "note_on channel=0 note=71 velocity=0 time=23\n",
      "note_on channel=0 note=72 velocity=0 time=13\n",
      "note_on channel=0 note=56 velocity=0 time=32\n",
      "note_on channel=0 note=67 velocity=74 time=25\n",
      "note_on channel=0 note=51 velocity=77 time=2\n",
      "note_on channel=0 note=67 velocity=0 time=68\n",
      "note_on channel=0 note=63 velocity=75 time=42\n",
      "note_on channel=0 note=51 velocity=0 time=70\n",
      "note_on channel=0 note=63 velocity=0 time=0\n",
      "note_on channel=0 note=53 velocity=86 time=55\n",
      "note_on channel=0 note=62 velocity=84 time=0\n",
      "note_on channel=0 note=53 velocity=0 time=59\n",
      "note_on channel=0 note=72 velocity=69 time=52\n",
      "note_on channel=0 note=62 velocity=0 time=57\n",
      "note_on channel=0 note=72 velocity=0 time=34\n",
      "note_on channel=0 note=68 velocity=72 time=28\n",
      "note_on channel=0 note=51 velocity=61 time=13\n",
      "note_on channel=0 note=51 velocity=0 time=40\n",
      "note_on channel=0 note=68 velocity=0 time=19\n",
      "note_on channel=0 note=53 velocity=74 time=31\n",
      "note_on channel=0 note=65 velocity=71 time=5\n",
      "note_on channel=0 note=53 velocity=0 time=36\n",
      "note_on channel=0 note=65 velocity=0 time=12\n",
      "note_on channel=0 note=55 velocity=81 time=62\n",
      "note_on channel=0 note=62 velocity=80 time=4\n",
      "note_on channel=0 note=62 velocity=0 time=65\n",
      "note_on channel=0 note=71 velocity=78 time=42\n",
      "note_on channel=0 note=71 velocity=0 time=73\n",
      "note_on channel=0 note=55 velocity=0 time=47\n",
      "note_on channel=0 note=69 velocity=79 time=11\n",
      "note_on channel=0 note=69 velocity=0 time=53\n",
      "note_on channel=0 note=71 velocity=68 time=60\n",
      "note_on channel=0 note=60 velocity=91 time=114\n",
      "note_on channel=0 note=72 velocity=81 time=1\n",
      "note_on channel=0 note=71 velocity=0 time=11\n",
      "note_on channel=0 note=48 velocity=22 time=34\n",
      "note_on channel=0 note=48 velocity=0 time=1\n",
      "note_on channel=0 note=72 velocity=0 time=8\n",
      "note_on channel=0 note=60 velocity=0 time=56\n",
      "note_on channel=0 note=58 velocity=72 time=8\n",
      "note_on channel=0 note=58 velocity=0 time=104\n",
      "note_on channel=0 note=56 velocity=65 time=20\n",
      "note_on channel=0 note=77 velocity=74 time=2\n",
      "note_on channel=0 note=56 velocity=0 time=58\n",
      "note_on channel=0 note=58 velocity=71 time=54\n",
      "note_on channel=0 note=58 velocity=0 time=61\n",
      "note_on channel=0 note=77 velocity=0 time=7\n",
      "note_on channel=0 note=55 velocity=73 time=51\n",
      "note_on channel=0 note=75 velocity=79 time=17\n",
      "note_on channel=0 note=55 velocity=0 time=59\n",
      "note_on channel=0 note=60 velocity=82 time=40\n",
      "note_on channel=0 note=60 velocity=0 time=67\n",
      "note_on channel=0 note=75 velocity=0 time=5\n",
      "note_on channel=0 note=59 velocity=85 time=53\n",
      "note_on channel=0 note=74 velocity=78 time=1\n",
      "note_on channel=0 note=59 velocity=0 time=71\n",
      "note_on channel=0 note=60 velocity=86 time=35\n",
      "note_on channel=0 note=60 velocity=0 time=68\n",
      "note_on channel=0 note=63 velocity=95 time=55\n",
      "note_on channel=0 note=72 velocity=80 time=14\n",
      "note_on channel=0 note=74 velocity=0 time=13\n",
      "note_on channel=0 note=72 velocity=0 time=63\n",
      "note_on channel=0 note=69 velocity=73 time=36\n",
      "note_on channel=0 note=63 velocity=0 time=46\n",
      "note_on channel=0 note=69 velocity=0 time=10\n",
      "note_on channel=0 note=62 velocity=75 time=55\n",
      "note_on channel=0 note=71 velocity=70 time=7\n",
      "note_on channel=0 note=71 velocity=0 time=54\n",
      "note_on channel=0 note=72 velocity=77 time=54\n",
      "note_on channel=0 note=72 velocity=0 time=40\n",
      "note_on channel=0 note=62 velocity=0 time=34\n",
      "note_on channel=0 note=74 velocity=84 time=50\n",
      "note_on channel=0 note=59 velocity=72 time=219\n",
      "note_on channel=0 note=59 velocity=0 time=40\n",
      "note_on channel=0 note=55 velocity=70 time=67\n",
      "note_on channel=0 note=55 velocity=0 time=43\n",
      "note_on channel=0 note=65 velocity=94 time=77\n",
      "note_on channel=0 note=74 velocity=0 time=50\n",
      "note_on channel=0 note=72 velocity=68 time=82\n",
      "note_on channel=0 note=65 velocity=0 time=55\n",
      "note_on channel=0 note=72 velocity=0 time=15\n",
      "note_on channel=0 note=63 velocity=79 time=39\n",
      "note_on channel=0 note=74 velocity=71 time=11\n",
      "note_on channel=0 note=63 velocity=0 time=23\n",
      "note_on channel=0 note=74 velocity=0 time=40\n",
      "note_on channel=0 note=75 velocity=69 time=41\n",
      "note_on channel=0 note=75 velocity=0 time=53\n",
      "note_on channel=0 note=62 velocity=92 time=51\n",
      "note_on channel=0 note=77 velocity=82 time=7\n",
      "note_on channel=0 note=74 velocity=63 time=110\n",
      "note_on channel=0 note=77 velocity=0 time=4\n",
      "note_on channel=0 note=62 velocity=0 time=69\n",
      "note_on channel=0 note=74 velocity=0 time=23\n",
      "note_on channel=0 note=63 velocity=56 time=21\n",
      "note_on channel=0 note=67 velocity=61 time=6\n",
      "note_on channel=0 note=63 velocity=0 time=17\n",
      "note_on channel=0 note=62 velocity=60 time=34\n",
      "note_on channel=0 note=62 velocity=0 time=31\n",
      "note_on channel=0 note=63 velocity=65 time=7\n",
      "note_on channel=0 note=77 velocity=53 time=12\n",
      "note_on channel=0 note=63 velocity=0 time=23\n",
      "note_on channel=0 note=62 velocity=68 time=31\n",
      "note_on channel=0 note=77 velocity=0 time=61\n",
      "note_on channel=0 note=75 velocity=65 time=7\n",
      "note_on channel=0 note=60 velocity=73 time=3\n",
      "note_on channel=0 note=62 velocity=0 time=15\n",
      "note_on channel=0 note=67 velocity=0 time=30\n",
      "note_on channel=0 note=60 velocity=0 time=37\n",
      "note_on channel=0 note=59 velocity=72 time=20\n",
      "note_on channel=0 note=75 velocity=0 time=14\n",
      "note_on channel=0 note=79 velocity=69 time=0\n",
      "note_on channel=0 note=59 velocity=0 time=30\n",
      "note_on channel=0 note=79 velocity=0 time=28\n",
      "note_on channel=0 note=60 velocity=76 time=46\n",
      "note_on channel=0 note=75 velocity=85 time=3\n",
      "note_on channel=0 note=60 velocity=0 time=55\n",
      "note_on channel=0 note=75 velocity=0 time=5\n",
      "note_on channel=0 note=63 velocity=74 time=44\n",
      "note_on channel=0 note=74 velocity=85 time=2\n",
      "note_on channel=0 note=63 velocity=0 time=57\n",
      "note_on channel=0 note=74 velocity=0 time=11\n",
      "note_on channel=0 note=68 velocity=74 time=61\n",
      "note_on channel=0 note=72 velocity=79 time=0\n",
      "note_on channel=0 note=84 velocity=79 time=119\n",
      "note_on channel=0 note=72 velocity=0 time=86\n",
      "note_on channel=0 note=80 velocity=77 time=24\n",
      "note_on channel=0 note=84 velocity=0 time=5\n",
      "note_on channel=0 note=80 velocity=0 time=75\n",
      "note_on channel=0 note=77 velocity=78 time=46\n",
      "note_on channel=0 note=77 velocity=0 time=59\n",
      "note_on channel=0 note=74 velocity=71 time=54\n",
      "note_on channel=0 note=74 velocity=0 time=64\n",
      "note_on channel=0 note=77 velocity=73 time=41\n",
      "note_on channel=0 note=77 velocity=0 time=68\n",
      "note_on channel=0 note=74 velocity=69 time=41\n",
      "note_on channel=0 note=58 velocity=63 time=2\n",
      "note_on channel=0 note=74 velocity=0 time=43\n",
      "note_on channel=0 note=68 velocity=0 time=13\n",
      "note_on channel=0 note=58 velocity=0 time=28\n",
      "note_on channel=0 note=72 velocity=68 time=11\n",
      "note_on channel=0 note=62 velocity=68 time=6\n",
      "note_on channel=0 note=72 velocity=0 time=25\n",
      "note_on channel=0 note=62 velocity=0 time=80\n",
      "note_on channel=0 note=67 velocity=72 time=15\n",
      "note_on channel=0 note=70 velocity=80 time=3\n",
      "note_on channel=0 note=82 velocity=77 time=115\n",
      "note_on channel=0 note=70 velocity=0 time=40\n",
      "note_on channel=0 note=82 velocity=0 time=78\n",
      "note_on channel=0 note=79 velocity=73 time=9\n",
      "note_on channel=0 note=79 velocity=0 time=54\n",
      "note_on channel=0 note=75 velocity=82 time=52\n",
      "note_on channel=0 note=75 velocity=0 time=57\n",
      "note_on channel=0 note=72 velocity=77 time=61\n",
      "note_on channel=0 note=72 velocity=0 time=65\n",
      "note_on channel=0 note=75 velocity=75 time=36\n",
      "note_on channel=0 note=75 velocity=0 time=41\n",
      "note_on channel=0 note=72 velocity=71 time=79\n",
      "note_on channel=0 note=56 velocity=61 time=2\n",
      "note_on channel=0 note=67 velocity=0 time=30\n",
      "note_on channel=0 note=72 velocity=0 time=12\n",
      "note_on channel=0 note=56 velocity=0 time=14\n",
      "note_on channel=0 note=70 velocity=69 time=41\n",
      "note_on channel=0 note=60 velocity=48 time=12\n",
      "note_on channel=0 note=70 velocity=0 time=29\n",
      "note_on channel=0 note=60 velocity=0 time=38\n",
      "note_on channel=0 note=68 velocity=74 time=59\n",
      "control_change channel=0 control=64 value=43 time=6\n",
      "note_on channel=0 note=65 velocity=64 time=2\n",
      "control_change channel=0 control=64 value=64 time=13\n",
      "control_change channel=0 control=64 value=69 time=15\n",
      "note_on channel=0 note=65 velocity=0 time=0\n",
      "control_change channel=0 control=64 value=73 time=15\n",
      "control_change channel=0 control=64 value=77 time=16\n",
      "control_change channel=0 control=64 value=81 time=15\n",
      "note_on channel=0 note=68 velocity=0 time=11\n",
      "control_change channel=0 control=64 value=83 time=5\n",
      "control_change channel=0 control=64 value=85 time=15\n",
      "note_on channel=0 note=80 velocity=70 time=3\n",
      "control_change channel=0 control=64 value=85 time=27\n",
      "note_on channel=0 note=80 velocity=0 time=52\n",
      "note_on channel=0 note=77 velocity=66 time=43\n",
      "note_on channel=0 note=74 velocity=59 time=100\n",
      "note_on channel=0 note=77 velocity=0 time=6\n",
      "note_on channel=0 note=74 velocity=0 time=24\n",
      "control_change channel=0 control=64 value=85 time=50\n",
      "control_change channel=0 control=64 value=84 time=15\n",
      "control_change channel=0 control=64 value=80 time=14\n",
      "control_change channel=0 control=64 value=75 time=16\n",
      "control_change channel=0 control=64 value=66 time=15\n",
      "note_on channel=0 note=71 velocity=73 time=1\n",
      "note_on channel=0 note=55 velocity=78 time=3\n",
      "control_change channel=0 control=64 value=25 time=11\n",
      "control_change channel=0 control=64 value=0 time=15\n",
      "note_on channel=0 note=55 velocity=0 time=78\n",
      "note_on channel=0 note=51 velocity=73 time=1\n",
      "note_on channel=0 note=67 velocity=66 time=2\n",
      "note_on channel=0 note=51 velocity=0 time=73\n",
      "note_on channel=0 note=50 velocity=79 time=53\n",
      "note_on channel=0 note=68 velocity=80 time=0\n",
      "note_on channel=0 note=67 velocity=0 time=20\n",
      "note_on channel=0 note=51 velocity=82 time=105\n",
      "note_on channel=0 note=50 velocity=0 time=9\n",
      "note_on channel=0 note=51 velocity=0 time=58\n",
      "note_on channel=0 note=71 velocity=0 time=19\n",
      "note_on channel=0 note=48 velocity=88 time=33\n",
      "note_on channel=0 note=72 velocity=81 time=7\n",
      "note_on channel=0 note=68 velocity=0 time=18\n",
      "note_on channel=0 note=48 velocity=0 time=44\n",
      "note_on channel=0 note=53 velocity=80 time=53\n",
      "note_on channel=0 note=53 velocity=0 time=77\n",
      "note_on channel=0 note=51 velocity=83 time=40\n",
      "note_on channel=0 note=67 velocity=70 time=9\n",
      "note_on channel=0 note=67 velocity=0 time=74\n",
      "note_on channel=0 note=51 velocity=0 time=8\n",
      "note_on channel=0 note=53 velocity=85 time=18\n",
      "note_on channel=0 note=53 velocity=0 time=68\n",
      "note_on channel=0 note=56 velocity=91 time=59\n",
      "note_on channel=0 note=65 velocity=80 time=16\n",
      "note_on channel=0 note=72 velocity=0 time=9\n",
      "note_on channel=0 note=63 velocity=68 time=107\n",
      "note_on channel=0 note=65 velocity=0 time=4\n",
      "note_on channel=0 note=63 velocity=0 time=26\n",
      "note_on channel=0 note=56 velocity=0 time=30\n",
      "note_on channel=0 note=55 velocity=73 time=60\n",
      "note_on channel=0 note=65 velocity=66 time=0\n",
      "note_on channel=0 note=71 velocity=55 time=4\n",
      "note_on channel=0 note=65 velocity=0 time=26\n",
      "note_on channel=0 note=71 velocity=0 time=32\n",
      "note_on channel=0 note=67 velocity=77 time=39\n",
      "note_on channel=0 note=67 velocity=0 time=44\n",
      "note_on channel=0 note=55 velocity=0 time=37\n",
      "note_on channel=0 note=72 velocity=73 time=40\n",
      "note_on channel=0 note=69 velocity=76 time=4\n",
      "note_on channel=0 note=72 velocity=0 time=66\n",
      "note_on channel=0 note=69 velocity=0 time=6\n",
      "note_on channel=0 note=71 velocity=75 time=39\n",
      "note_on channel=0 note=71 velocity=0 time=84\n",
      "note_on channel=0 note=54 velocity=79 time=30\n",
      "note_on channel=0 note=72 velocity=77 time=6\n",
      "note_on channel=0 note=54 velocity=0 time=76\n",
      "note_on channel=0 note=50 velocity=75 time=28\n",
      "note_on channel=0 note=74 velocity=70 time=6\n",
      "note_on channel=0 note=72 velocity=0 time=4\n",
      "note_on channel=0 note=50 velocity=0 time=60\n",
      "note_on channel=0 note=60 velocity=91 time=63\n",
      "note_on channel=0 note=75 velocity=75 time=5\n",
      "note_on channel=0 note=74 velocity=0 time=3\n",
      "note_on channel=0 note=75 velocity=0 time=64\n",
      "note_on channel=0 note=67 velocity=77 time=49\n",
      "note_on channel=0 note=60 velocity=0 time=67\n",
      "note_on channel=0 note=67 velocity=0 time=3\n",
      "note_on channel=0 note=58 velocity=79 time=46\n",
      "note_on channel=0 note=69 velocity=63 time=18\n",
      "note_on channel=0 note=74 velocity=58 time=1\n",
      "note_on channel=0 note=69 velocity=0 time=31\n",
      "note_on channel=0 note=74 velocity=0 time=13\n",
      "note_on channel=0 note=70 velocity=68 time=57\n",
      "note_on channel=0 note=70 velocity=0 time=31\n",
      "note_on channel=0 note=58 velocity=0 time=26\n",
      "note_on channel=0 note=57 velocity=66 time=62\n",
      "note_on channel=0 note=76 velocity=66 time=11\n",
      "note_on channel=0 note=72 velocity=65 time=1\n",
      "note_on channel=0 note=76 velocity=0 time=33\n",
      "control_change channel=0 control=64 value=39 time=3\n",
      "control_change channel=0 control=64 value=58 time=15\n",
      "control_change channel=0 control=64 value=63 time=15\n",
      "control_change channel=0 control=64 value=65 time=16\n",
      "control_change channel=0 control=64 value=67 time=14\n",
      "note_on channel=0 note=72 velocity=0 time=6\n",
      "note_on channel=0 note=69 velocity=62 time=8\n",
      "control_change channel=0 control=64 value=69 time=2\n",
      "control_change channel=0 control=64 value=72 time=15\n",
      "control_change channel=0 control=64 value=75 time=15\n",
      "control_change channel=0 control=64 value=77 time=16\n",
      "control_change channel=0 control=64 value=79 time=14\n",
      "note_on channel=0 note=69 velocity=0 time=20\n",
      "control_change channel=0 control=64 value=80 time=3\n",
      "control_change channel=0 control=64 value=81 time=15\n",
      "control_change channel=0 control=64 value=82 time=15\n",
      "note_on channel=0 note=62 velocity=62 time=13\n",
      "control_change channel=0 control=64 value=83 time=3\n",
      "note_on channel=0 note=78 velocity=65 time=9\n",
      "control_change channel=0 control=64 value=84 time=6\n",
      "note_on channel=0 note=57 velocity=0 time=0\n",
      "note_on channel=0 note=62 velocity=0 time=6\n",
      "control_change channel=0 control=64 value=84 time=10\n",
      "note_on channel=0 note=78 velocity=0 time=12\n",
      "control_change channel=0 control=64 value=84 time=138\n",
      "control_change channel=0 control=64 value=83 time=16\n",
      "control_change channel=0 control=64 value=80 time=15\n",
      "control_change channel=0 control=64 value=76 time=16\n",
      "control_change channel=0 control=64 value=68 time=15\n",
      "note_on channel=0 note=55 velocity=58 time=0\n",
      "note_on channel=0 note=79 velocity=63 time=0\n",
      "control_change channel=0 control=64 value=48 time=14\n",
      "note_on channel=0 note=70 velocity=52 time=6\n",
      "control_change channel=0 control=64 value=0 time=10\n",
      "note_on channel=0 note=55 velocity=0 time=10\n",
      "note_on channel=0 note=70 velocity=0 time=22\n",
      "note_on channel=0 note=74 velocity=59 time=61\n",
      "note_on channel=0 note=58 velocity=56 time=12\n",
      "note_on channel=0 note=58 velocity=0 time=43\n",
      "note_on channel=0 note=74 velocity=0 time=22\n",
      "note_on channel=0 note=72 velocity=70 time=47\n",
      "note_on channel=0 note=56 velocity=54 time=5\n",
      "note_on channel=0 note=56 velocity=0 time=47\n",
      "note_on channel=0 note=72 velocity=0 time=48\n",
      "note_on channel=0 note=58 velocity=59 time=9\n",
      "note_on channel=0 note=74 velocity=60 time=0\n",
      "note_on channel=0 note=58 velocity=0 time=42\n",
      "note_on channel=0 note=55 velocity=55 time=71\n",
      "note_on channel=0 note=70 velocity=72 time=15\n",
      "note_on channel=0 note=74 velocity=0 time=7\n",
      "note_on channel=0 note=55 velocity=0 time=30\n",
      "note_on channel=0 note=79 velocity=0 time=16\n",
      "note_on channel=0 note=70 velocity=0 time=7\n",
      "note_on channel=0 note=56 velocity=62 time=48\n",
      "note_on channel=0 note=76 velocity=63 time=6\n",
      "note_on channel=0 note=56 velocity=0 time=42\n",
      "note_on channel=0 note=76 velocity=0 time=13\n",
      "note_on channel=0 note=74 velocity=68 time=48\n",
      "note_on channel=0 note=53 velocity=60 time=15\n",
      "note_on channel=0 note=53 velocity=0 time=41\n",
      "note_on channel=0 note=74 velocity=0 time=6\n",
      "note_on channel=0 note=76 velocity=77 time=61\n",
      "note_on channel=0 note=55 velocity=47 time=11\n",
      "note_on channel=0 note=55 velocity=0 time=37\n",
      "note_on channel=0 note=76 velocity=0 time=7\n",
      "note_on channel=0 note=79 velocity=88 time=62\n",
      "note_on channel=0 note=52 velocity=56 time=6\n",
      "control_change channel=0 control=64 value=50 time=18\n",
      "control_change channel=0 control=64 value=59 time=15\n",
      "control_change channel=0 control=64 value=61 time=15\n",
      "control_change channel=0 control=64 value=61 time=15\n",
      "note_on channel=0 note=52 velocity=0 time=5\n",
      "control_change channel=0 control=64 value=63 time=11\n",
      "control_change channel=0 control=64 value=64 time=15\n",
      "control_change channel=0 control=64 value=65 time=15\n",
      "note_on channel=0 note=60 velocity=41 time=3\n",
      "note_on channel=0 note=73 velocity=70 time=0\n",
      "note_on channel=0 note=79 velocity=0 time=3\n",
      "control_change channel=0 control=64 value=66 time=10\n",
      "control_change channel=0 control=64 value=67 time=15\n",
      "note_on channel=0 note=60 velocity=0 time=12\n",
      "note_on channel=0 note=73 velocity=0 time=7\n",
      "control_change channel=0 control=64 value=65 time=12\n",
      "control_change channel=0 control=64 value=56 time=15\n",
      "control_change channel=0 control=64 value=0 time=16\n",
      "note_on channel=0 note=77 velocity=80 time=30\n",
      "note_on channel=0 note=56 velocity=50 time=9\n",
      "note_on channel=0 note=72 velocity=66 time=3\n",
      "note_on channel=0 note=56 velocity=0 time=48\n",
      "note_on channel=0 note=72 velocity=0 time=11\n",
      "control_change channel=0 control=64 value=55 time=12\n",
      "control_change channel=0 control=64 value=62 time=16\n",
      "control_change channel=0 control=64 value=65 time=15\n",
      "note_on channel=0 note=70 velocity=62 time=11\n",
      "note_on channel=0 note=77 velocity=0 time=0\n",
      "control_change channel=0 control=64 value=66 time=4\n",
      "note_on channel=0 note=53 velocity=42 time=10\n",
      "control_change channel=0 control=64 value=68 time=5\n",
      "control_change channel=0 control=64 value=69 time=15\n",
      "note_on channel=0 note=53 velocity=0 time=11\n",
      "note_on channel=0 note=70 velocity=0 time=1\n",
      "control_change channel=0 control=64 value=68 time=19\n",
      "control_change channel=0 control=64 value=64 time=15\n",
      "control_change channel=0 control=64 value=44 time=15\n",
      "control_change channel=0 control=64 value=0 time=15\n",
      "note_on channel=0 note=68 velocity=69 time=13\n",
      "note_on channel=0 note=48 velocity=59 time=12\n",
      "note_on channel=0 note=48 velocity=0 time=47\n",
      "control_change channel=0 control=64 value=37 time=3\n",
      "control_change channel=0 control=64 value=53 time=15\n",
      "note_on channel=0 note=68 velocity=0 time=2\n",
      "control_change channel=0 control=64 value=57 time=13\n",
      "note_on channel=0 note=67 velocity=73 time=30\n",
      "control_change channel=0 control=64 value=56 time=1\n",
      "note_on channel=0 note=53 velocity=56 time=5\n",
      "control_change channel=0 control=64 value=53 time=10\n",
      "control_change channel=0 control=64 value=46 time=14\n",
      "control_change channel=0 control=64 value=39 time=16\n",
      "note_on channel=0 note=53 velocity=0 time=7\n",
      "note_on channel=0 note=67 velocity=0 time=6\n",
      "control_change channel=0 control=64 value=38 time=2\n",
      "note_on channel=0 note=65 velocity=69 time=55\n",
      "control_change channel=0 control=64 value=36 time=6\n",
      "note_on channel=0 note=48 velocity=43 time=14\n",
      "control_change channel=0 control=64 value=33 time=1\n",
      "control_change channel=0 control=64 value=30 time=15\n",
      "control_change channel=0 control=64 value=27 time=16\n",
      "note_on channel=0 note=48 velocity=0 time=6\n",
      "note_on channel=0 note=65 velocity=0 time=6\n",
      "control_change channel=0 control=64 value=23 time=3\n",
      "control_change channel=0 control=64 value=15 time=16\n",
      "control_change channel=0 control=64 value=0 time=15\n",
      "note_on channel=0 note=67 velocity=66 time=11\n",
      "note_on channel=0 note=44 velocity=43 time=12\n",
      "note_on channel=0 note=67 velocity=0 time=19\n",
      "note_on channel=0 note=44 velocity=0 time=9\n",
      "note_on channel=0 note=77 velocity=68 time=91\n",
      "note_on channel=0 note=41 velocity=43 time=9\n",
      "note_on channel=0 note=68 velocity=59 time=2\n",
      "note_on channel=0 note=41 velocity=0 time=34\n",
      "note_on channel=0 note=68 velocity=0 time=20\n",
      "note_on channel=0 note=72 velocity=63 time=65\n",
      "note_on channel=0 note=56 velocity=60 time=3\n",
      "note_on channel=0 note=56 velocity=0 time=48\n",
      "note_on channel=0 note=72 velocity=0 time=25\n",
      "note_on channel=0 note=55 velocity=56 time=43\n",
      "note_on channel=0 note=70 velocity=70 time=4\n",
      "note_on channel=0 note=55 velocity=0 time=54\n",
      "note_on channel=0 note=56 velocity=59 time=55\n",
      "note_on channel=0 note=72 velocity=67 time=9\n",
      "note_on channel=0 note=70 velocity=0 time=18\n",
      "note_on channel=0 note=56 velocity=0 time=17\n",
      "note_on channel=0 note=77 velocity=0 time=20\n",
      "note_on channel=0 note=53 velocity=65 time=55\n",
      "note_on channel=0 note=72 velocity=0 time=5\n",
      "note_on channel=0 note=68 velocity=70 time=7\n",
      "note_on channel=0 note=53 velocity=0 time=33\n",
      "note_on channel=0 note=68 velocity=0 time=34\n",
      "note_on channel=0 note=74 velocity=68 time=44\n",
      "note_on channel=0 note=55 velocity=64 time=3\n",
      "note_on channel=0 note=55 velocity=0 time=52\n",
      "note_on channel=0 note=74 velocity=0 time=8\n",
      "note_on channel=0 note=72 velocity=70 time=49\n",
      "note_on channel=0 note=51 velocity=66 time=9\n",
      "note_on channel=0 note=51 velocity=0 time=47\n",
      "note_on channel=0 note=72 velocity=0 time=3\n",
      "note_on channel=0 note=53 velocity=64 time=54\n",
      "note_on channel=0 note=74 velocity=72 time=3\n",
      "note_on channel=0 note=53 velocity=0 time=60\n",
      "note_on channel=0 note=74 velocity=0 time=9\n",
      "note_on channel=0 note=77 velocity=87 time=54\n",
      "note_on channel=0 note=50 velocity=56 time=11\n",
      "control_change channel=0 control=64 value=21 time=34\n",
      "control_change channel=0 control=64 value=29 time=14\n",
      "control_change channel=0 control=64 value=34 time=15\n",
      "note_on channel=0 note=50 velocity=0 time=12\n",
      "control_change channel=0 control=64 value=40 time=4\n",
      "control_change channel=0 control=64 value=43 time=15\n",
      "note_on channel=0 note=77 velocity=0 time=5\n",
      "note_on channel=0 note=72 velocity=74 time=5\n",
      "control_change channel=0 control=64 value=46 time=5\n",
      "note_on channel=0 note=58 velocity=43 time=9\n",
      "control_change channel=0 control=64 value=48 time=6\n",
      "control_change channel=0 control=64 value=48 time=15\n",
      "note_on channel=0 note=58 velocity=0 time=24\n",
      "control_change channel=0 control=64 value=47 time=7\n",
      "note_on channel=0 note=72 velocity=0 time=2\n",
      "control_change channel=0 control=64 value=44 time=12\n",
      "control_change channel=0 control=64 value=41 time=16\n",
      "control_change channel=0 control=64 value=37 time=15\n",
      "control_change channel=0 control=64 value=32 time=15\n",
      "note_on channel=0 note=70 velocity=65 time=0\n",
      "note_on channel=0 note=75 velocity=66 time=6\n",
      "note_on channel=0 note=55 velocity=41 time=1\n",
      "control_change channel=0 control=64 value=29 time=9\n",
      "control_change channel=0 control=64 value=26 time=15\n",
      "control_change channel=0 control=64 value=21 time=16\n",
      "note_on channel=0 note=55 velocity=0 time=6\n",
      "control_change channel=0 control=64 value=13 time=9\n",
      "note_on channel=0 note=70 velocity=0 time=3\n",
      "note_on channel=0 note=75 velocity=0 time=9\n",
      "control_change channel=0 control=64 value=0 time=3\n",
      "note_on channel=0 note=68 velocity=72 time=28\n",
      "note_on channel=0 note=51 velocity=45 time=5\n",
      "note_on channel=0 note=51 velocity=0 time=26\n",
      "note_on channel=0 note=68 velocity=0 time=7\n",
      "note_on channel=0 note=67 velocity=72 time=75\n",
      "note_on channel=0 note=46 velocity=69 time=12\n",
      "note_on channel=0 note=46 velocity=0 time=48\n",
      "note_on channel=0 note=67 velocity=0 time=19\n",
      "note_on channel=0 note=65 velocity=70 time=43\n",
      "note_on channel=0 note=51 velocity=53 time=11\n",
      "note_on channel=0 note=65 velocity=0 time=46\n",
      "note_on channel=0 note=51 velocity=0 time=6\n",
      "note_on channel=0 note=63 velocity=73 time=64\n",
      "note_on channel=0 note=46 velocity=48 time=2\n",
      "note_on channel=0 note=46 velocity=0 time=46\n",
      "note_on channel=0 note=63 velocity=0 time=11\n",
      "note_on channel=0 note=43 velocity=46 time=46\n",
      "note_on channel=0 note=65 velocity=71 time=1\n",
      "note_on channel=0 note=43 velocity=0 time=30\n",
      "note_on channel=0 note=65 velocity=0 time=15\n",
      "note_on channel=0 note=67 velocity=68 time=79\n",
      "note_on channel=0 note=39 velocity=61 time=1\n",
      "note_on channel=0 note=67 velocity=0 time=55\n",
      "note_on channel=0 note=39 velocity=0 time=2\n",
      "note_on channel=0 note=70 velocity=51 time=51\n",
      "note_on channel=0 note=70 velocity=0 time=27\n",
      "note_on channel=0 note=51 velocity=64 time=91\n",
      "note_on channel=0 note=75 velocity=60 time=9\n",
      "note_on channel=0 note=75 velocity=0 time=90\n",
      "note_on channel=0 note=72 velocity=68 time=5\n",
      "note_on channel=0 note=72 velocity=0 time=57\n",
      "note_on channel=0 note=51 velocity=0 time=11\n",
      "note_on channel=0 note=53 velocity=64 time=54\n",
      "note_on channel=0 note=73 velocity=82 time=4\n",
      "note_on channel=0 note=70 velocity=69 time=111\n",
      "note_on channel=0 note=53 velocity=0 time=91\n",
      "note_on channel=0 note=67 velocity=70 time=34\n",
      "note_on channel=0 note=55 velocity=66 time=5\n",
      "note_on channel=0 note=70 velocity=0 time=13\n",
      "note_on channel=0 note=55 velocity=0 time=15\n",
      "note_on channel=0 note=67 velocity=0 time=39\n",
      "note_on channel=0 note=63 velocity=79 time=29\n",
      "note_on channel=0 note=63 velocity=0 time=72\n",
      "note_on channel=0 note=56 velocity=84 time=53\n",
      "note_on channel=0 note=73 velocity=0 time=14\n",
      "note_on channel=0 note=72 velocity=74 time=103\n",
      "note_on channel=0 note=72 velocity=0 time=54\n",
      "note_on channel=0 note=53 velocity=60 time=56\n",
      "note_on channel=0 note=56 velocity=0 time=9\n",
      "note_on channel=0 note=77 velocity=85 time=0\n",
      "note_on channel=0 note=77 velocity=0 time=52\n",
      "note_on channel=0 note=74 velocity=75 time=49\n",
      "note_on channel=0 note=74 velocity=0 time=58\n",
      "note_on channel=0 note=55 velocity=71 time=72\n",
      "note_on channel=0 note=53 velocity=0 time=3\n",
      "note_on channel=0 note=75 velocity=86 time=0\n",
      "note_on channel=0 note=55 velocity=0 time=35\n",
      "note_on channel=0 note=72 velocity=74 time=63\n",
      "note_on channel=0 note=72 velocity=0 time=109\n",
      "note_on channel=0 note=69 velocity=72 time=16\n",
      "note_on channel=0 note=57 velocity=79 time=4\n",
      "note_on channel=0 note=57 velocity=0 time=23\n",
      "note_on channel=0 note=69 velocity=0 time=19\n",
      "note_on channel=0 note=65 velocity=70 time=51\n",
      "note_on channel=0 note=65 velocity=0 time=79\n",
      "note_on channel=0 note=58 velocity=91 time=41\n",
      "note_on channel=0 note=75 velocity=0 time=8\n",
      "note_on channel=0 note=74 velocity=67 time=99\n",
      "note_on channel=0 note=74 velocity=0 time=59\n",
      "note_on channel=0 note=58 velocity=0 time=45\n",
      "note_on channel=0 note=55 velocity=66 time=25\n",
      "note_on channel=0 note=79 velocity=81 time=2\n",
      "note_on channel=0 note=75 velocity=79 time=102\n",
      "note_on channel=0 note=79 velocity=0 time=31\n",
      "note_on channel=0 note=75 velocity=0 time=38\n",
      "note_on channel=0 note=55 velocity=0 time=15\n",
      "note_on channel=0 note=57 velocity=79 time=43\n",
      "note_on channel=0 note=77 velocity=96 time=10\n",
      "note_on channel=0 note=74 velocity=76 time=105\n",
      "note_on channel=0 note=57 velocity=0 time=77\n",
      "note_on channel=0 note=74 velocity=0 time=13\n",
      "note_on channel=0 note=59 velocity=87 time=32\n",
      "note_on channel=0 note=71 velocity=77 time=4\n",
      "note_on channel=0 note=71 velocity=0 time=69\n",
      "note_on channel=0 note=67 velocity=81 time=34\n",
      "note_on channel=0 note=67 velocity=0 time=63\n",
      "note_on channel=0 note=59 velocity=0 time=7\n",
      "note_on channel=0 note=77 velocity=0 time=44\n",
      "note_on channel=0 note=60 velocity=94 time=9\n",
      "note_on channel=0 note=75 velocity=68 time=114\n",
      "note_on channel=0 note=75 velocity=0 time=80\n",
      "note_on channel=0 note=48 velocity=79 time=53\n",
      "note_on channel=0 note=79 velocity=65 time=6\n",
      "note_on channel=0 note=60 velocity=0 time=2\n",
      "note_on channel=0 note=79 velocity=0 time=114\n",
      "note_on channel=0 note=82 velocity=64 time=4\n",
      "note_on channel=0 note=48 velocity=0 time=51\n",
      "note_on channel=0 note=82 velocity=0 time=25\n",
      "note_on channel=0 note=50 velocity=70 time=46\n",
      "note_on channel=0 note=80 velocity=79 time=6\n",
      "note_on channel=0 note=80 velocity=0 time=101\n",
      "note_on channel=0 note=77 velocity=71 time=13\n",
      "note_on channel=0 note=76 velocity=56 time=19\n",
      "note_on channel=0 note=76 velocity=0 time=25\n",
      "note_on channel=0 note=50 velocity=0 time=24\n",
      "note_on channel=0 note=77 velocity=0 time=8\n",
      "note_on channel=0 note=70 velocity=86 time=37\n",
      "note_on channel=0 note=51 velocity=71 time=4\n",
      "note_on channel=0 note=70 velocity=0 time=99\n",
      "note_on channel=0 note=79 velocity=85 time=11\n",
      "note_on channel=0 note=78 velocity=42 time=41\n",
      "note_on channel=0 note=78 velocity=0 time=23\n",
      "note_on channel=0 note=79 velocity=0 time=9\n",
      "note_on channel=0 note=51 velocity=0 time=12\n",
      "note_on channel=0 note=77 velocity=99 time=40\n",
      "note_on channel=0 note=50 velocity=65 time=120\n",
      "note_on channel=0 note=77 velocity=0 time=53\n",
      "note_on channel=0 note=50 velocity=0 time=2\n",
      "note_on channel=0 note=48 velocity=74 time=62\n",
      "note_on channel=0 note=77 velocity=78 time=8\n",
      "note_on channel=0 note=80 velocity=81 time=0\n",
      "note_on channel=0 note=48 velocity=0 time=59\n",
      "note_on channel=0 note=50 velocity=77 time=52\n",
      "note_on channel=0 note=77 velocity=0 time=52\n",
      "note_on channel=0 note=80 velocity=0 time=10\n",
      "note_on channel=0 note=50 velocity=0 time=9\n",
      "note_on channel=0 note=46 velocity=78 time=47\n",
      "note_on channel=0 note=79 velocity=68 time=12\n",
      "note_on channel=0 note=75 velocity=68 time=1\n",
      "note_on channel=0 note=46 velocity=0 time=73\n",
      "note_on channel=0 note=79 velocity=0 time=21\n",
      "note_on channel=0 note=51 velocity=79 time=7\n",
      "note_on channel=0 note=51 velocity=0 time=68\n",
      "note_on channel=0 note=75 velocity=0 time=28\n",
      "note_on channel=0 note=50 velocity=86 time=24\n",
      "note_on channel=0 note=77 velocity=75 time=6\n",
      "note_on channel=0 note=68 velocity=76 time=3\n",
      "note_on channel=0 note=50 velocity=0 time=71\n",
      "note_on channel=0 note=68 velocity=0 time=19\n",
      "note_on channel=0 note=51 velocity=86 time=11\n",
      "note_on channel=0 note=77 velocity=0 time=70\n",
      "note_on channel=0 note=51 velocity=0 time=11\n",
      "note_on channel=0 note=55 velocity=90 time=44\n",
      "note_on channel=0 note=70 velocity=71 time=10\n",
      "note_on channel=0 note=75 velocity=67 time=0\n",
      "note_on channel=0 note=70 velocity=0 time=63\n",
      "note_on channel=0 note=75 velocity=0 time=0\n",
      "note_on channel=0 note=72 velocity=67 time=49\n",
      "note_on channel=0 note=55 velocity=0 time=55\n",
      "note_on channel=0 note=72 velocity=0 time=12\n",
      "note_on channel=0 note=53 velocity=74 time=48\n",
      "note_on channel=0 note=68 velocity=68 time=17\n",
      "note_on channel=0 note=74 velocity=63 time=0\n",
      "note_on channel=0 note=74 velocity=0 time=33\n",
      "note_on channel=0 note=68 velocity=0 time=6\n",
      "note_on channel=0 note=75 velocity=71 time=69\n",
      "note_on channel=0 note=75 velocity=0 time=57\n",
      "note_on channel=0 note=53 velocity=0 time=9\n",
      "note_on channel=0 note=77 velocity=73 time=62\n",
      "note_on channel=0 note=68 velocity=76 time=2\n",
      "note_on channel=0 note=68 velocity=0 time=48\n",
      "note_on channel=0 note=74 velocity=63 time=64\n",
      "note_on channel=0 note=74 velocity=0 time=96\n",
      "note_on channel=0 note=50 velocity=66 time=14\n",
      "note_on channel=0 note=70 velocity=63 time=4\n",
      "note_on channel=0 note=50 velocity=0 time=58\n",
      "note_on channel=0 note=70 velocity=0 time=4\n",
      "note_on channel=0 note=46 velocity=65 time=46\n",
      "note_on channel=0 note=77 velocity=0 time=0\n",
      "note_on channel=0 note=65 velocity=68 time=2\n",
      "note_on channel=0 note=46 velocity=0 time=27\n",
      "note_on channel=0 note=65 velocity=0 time=11\n",
      "note_on channel=0 note=62 velocity=74 time=89\n",
      "note_on channel=0 note=56 velocity=74 time=6\n",
      "note_on channel=0 note=62 velocity=0 time=29\n",
      "note_on channel=0 note=56 velocity=0 time=13\n",
      "note_on channel=0 note=75 velocity=59 time=73\n",
      "note_on channel=0 note=55 velocity=73 time=107\n",
      "note_on channel=0 note=63 velocity=81 time=0\n",
      "note_on channel=0 note=77 velocity=68 time=28\n",
      "note_on channel=0 note=75 velocity=0 time=33\n",
      "note_on channel=0 note=79 velocity=67 time=96\n",
      "note_on channel=0 note=77 velocity=0 time=33\n",
      "note_on channel=0 note=53 velocity=73 time=77\n",
      "note_on channel=0 note=80 velocity=71 time=11\n",
      "note_on channel=0 note=55 velocity=0 time=12\n",
      "note_on channel=0 note=79 velocity=0 time=0\n",
      "note_on channel=0 note=63 velocity=0 time=53\n",
      "note_on channel=0 note=77 velocity=68 time=34\n",
      "note_on channel=0 note=80 velocity=0 time=15\n",
      "note_on channel=0 note=77 velocity=0 time=68\n",
      "note_on channel=0 note=62 velocity=67 time=39\n",
      "note_on channel=0 note=74 velocity=74 time=6\n",
      "note_on channel=0 note=62 velocity=0 time=32\n",
      "note_on channel=0 note=53 velocity=0 time=23\n",
      "note_on channel=0 note=80 velocity=78 time=49\n",
      "note_on channel=0 note=74 velocity=0 time=14\n",
      "note_on channel=0 note=80 velocity=0 time=56\n",
      "note_on channel=0 note=79 velocity=76 time=59\n",
      "note_on channel=0 note=51 velocity=65 time=7\n",
      "note_on channel=0 note=63 velocity=41 time=9\n",
      "control_change channel=0 control=64 value=18 time=13\n",
      "note_on channel=0 note=51 velocity=0 time=12\n",
      "control_change channel=0 control=64 value=57 time=4\n",
      "note_on channel=0 note=63 velocity=0 time=0\n",
      "control_change channel=0 control=64 value=62 time=23\n",
      "control_change channel=0 control=64 value=64 time=16\n",
      "control_change channel=0 control=64 value=65 time=14\n",
      "control_change channel=0 control=64 value=68 time=15\n",
      "note_on channel=0 note=82 velocity=80 time=4\n",
      "note_on channel=0 note=79 velocity=0 time=7\n",
      "control_change channel=0 control=64 value=70 time=5\n",
      "control_change channel=0 control=64 value=73 time=15\n",
      "control_change channel=0 control=64 value=74 time=16\n",
      "control_change channel=0 control=64 value=74 time=14\n",
      "note_on channel=0 note=82 velocity=0 time=45\n",
      "note_on channel=0 note=80 velocity=75 time=4\n",
      "note_on channel=0 note=39 velocity=70 time=16\n",
      "control_change channel=0 control=64 value=74 time=11\n",
      "control_change channel=0 control=64 value=73 time=46\n",
      "note_on channel=0 note=80 velocity=0 time=4\n",
      "control_change channel=0 control=64 value=73 time=27\n",
      "note_on channel=0 note=75 velocity=64 time=22\n",
      "note_on channel=0 note=75 velocity=0 time=31\n",
      "control_change channel=0 control=64 value=72 time=7\n",
      "control_change channel=0 control=64 value=72 time=16\n",
      "note_on channel=0 note=39 velocity=0 time=11\n",
      "control_change channel=0 control=64 value=70 time=4\n",
      "control_change channel=0 control=64 value=68 time=14\n",
      "control_change channel=0 control=64 value=64 time=16\n",
      "note_on channel=0 note=41 velocity=69 time=13\n",
      "control_change channel=0 control=64 value=51 time=2\n",
      "note_on channel=0 note=73 velocity=83 time=1\n",
      "control_change channel=0 control=64 value=0 time=15\n",
      "note_on channel=0 note=41 velocity=0 time=37\n",
      "note_on channel=0 note=70 velocity=60 time=57\n",
      "note_on channel=0 note=43 velocity=64 time=108\n",
      "note_on channel=0 note=67 velocity=57 time=12\n",
      "note_on channel=0 note=43 velocity=0 time=18\n",
      "note_on channel=0 note=70 velocity=0 time=21\n",
      "note_on channel=0 note=67 velocity=0 time=50\n",
      "note_on channel=0 note=63 velocity=58 time=18\n",
      "note_on channel=0 note=63 velocity=0 time=23\n",
      "note_on channel=0 note=73 velocity=0 time=61\n",
      "note_on channel=0 note=56 velocity=80 time=42\n",
      "note_on channel=0 note=44 velocity=72 time=4\n",
      "control_change channel=0 control=64 value=55 time=12\n",
      "control_change channel=0 control=64 value=63 time=15\n",
      "control_change channel=0 control=64 value=66 time=16\n",
      "control_change channel=0 control=64 value=68 time=14\n",
      "note_on channel=0 note=56 velocity=0 time=0\n",
      "control_change channel=0 control=64 value=72 time=16\n",
      "control_change channel=0 control=64 value=76 time=15\n",
      "note_on channel=0 note=44 velocity=0 time=2\n",
      "control_change channel=0 control=64 value=78 time=13\n",
      "note_on channel=0 note=84 velocity=89 time=6\n",
      "control_change channel=0 control=64 value=79 time=10\n",
      "control_change channel=0 control=64 value=80 time=30\n",
      "note_on channel=0 note=84 velocity=0 time=33\n",
      "note_on channel=0 note=80 velocity=93 time=40\n",
      "note_on channel=0 note=41 velocity=73 time=3\n",
      "note_on channel=0 note=80 velocity=0 time=62\n",
      "note_on channel=0 note=77 velocity=86 time=44\n",
      "note_on channel=0 note=77 velocity=0 time=47\n",
      "note_on channel=0 note=41 velocity=0 time=37\n",
      "control_change channel=0 control=64 value=79 time=22\n",
      "control_change channel=0 control=64 value=76 time=15\n",
      "note_on channel=0 note=75 velocity=90 time=2\n",
      "note_on channel=0 note=43 velocity=79 time=6\n",
      "control_change channel=0 control=64 value=70 time=7\n",
      "control_change channel=0 control=64 value=62 time=16\n",
      "control_change channel=0 control=64 value=0 time=14\n",
      "note_on channel=0 note=72 velocity=71 time=57\n",
      "note_on channel=0 note=43 velocity=0 time=35\n",
      "note_on channel=0 note=69 velocity=81 time=98\n",
      "note_on channel=0 note=45 velocity=72 time=7\n",
      "note_on channel=0 note=45 velocity=0 time=26\n",
      "note_on channel=0 note=72 velocity=0 time=1\n",
      "note_on channel=0 note=69 velocity=0 time=43\n",
      "note_on channel=0 note=65 velocity=82 time=24\n",
      "note_on channel=0 note=75 velocity=0 time=19\n",
      "note_on channel=0 note=65 velocity=0 time=60\n",
      "note_on channel=0 note=58 velocity=93 time=43\n",
      "note_on channel=0 note=74 velocity=88 time=7\n",
      "note_on channel=0 note=46 velocity=58 time=22\n",
      "note_on channel=0 note=46 velocity=0 time=25\n",
      "note_on channel=0 note=74 velocity=0 time=34\n",
      "note_on channel=0 note=77 velocity=87 time=34\n",
      "note_on channel=0 note=46 velocity=93 time=118\n",
      "note_on channel=0 note=74 velocity=77 time=1\n",
      "note_on channel=0 note=77 velocity=0 time=12\n",
      "control_change channel=0 control=64 value=39 time=56\n",
      "control_change channel=0 control=64 value=52 time=15\n",
      "note_on channel=0 note=74 velocity=0 time=6\n",
      "control_change channel=0 control=64 value=56 time=11\n",
      "note_on channel=0 note=70 velocity=71 time=5\n",
      "control_change channel=0 control=64 value=58 time=10\n",
      "control_change channel=0 control=64 value=59 time=15\n",
      "note_on channel=0 note=70 velocity=0 time=2\n",
      "control_change channel=0 control=64 value=60 time=13\n",
      "control_change channel=0 control=64 value=60 time=31\n",
      "control_change channel=0 control=64 value=58 time=14\n",
      "note_on channel=0 note=58 velocity=0 time=11\n",
      "control_change channel=0 control=64 value=52 time=5\n",
      "control_change channel=0 control=64 value=37 time=15\n",
      "note_on channel=0 note=48 velocity=81 time=3\n",
      "note_on channel=0 note=68 velocity=80 time=7\n",
      "control_change channel=0 control=64 value=0 time=5\n",
      "note_on channel=0 note=46 velocity=0 time=19\n",
      "note_on channel=0 note=65 velocity=56 time=94\n",
      "note_on channel=0 note=65 velocity=0 time=114\n",
      "note_on channel=0 note=50 velocity=71 time=7\n",
      "note_on channel=0 note=62 velocity=62 time=2\n",
      "note_on channel=0 note=48 velocity=0 time=3\n",
      "note_on channel=0 note=50 velocity=0 time=23\n",
      "note_on channel=0 note=62 velocity=0 time=32\n",
      "note_on channel=0 note=58 velocity=60 time=53\n",
      "note_on channel=0 note=58 velocity=0 time=57\n",
      "note_on channel=0 note=51 velocity=60 time=68\n",
      "note_on channel=0 note=68 velocity=0 time=87\n",
      "note_on channel=0 note=67 velocity=68 time=12\n",
      "note_on channel=0 note=65 velocity=78 time=122\n",
      "note_on channel=0 note=61 velocity=65 time=6\n",
      "note_on channel=0 note=67 velocity=0 time=14\n",
      "note_on channel=0 note=61 velocity=0 time=57\n",
      "note_on channel=0 note=65 velocity=0 time=21\n",
      "note_on channel=0 note=67 velocity=84 time=15\n",
      "note_on channel=0 note=67 velocity=0 time=81\n",
      "note_on channel=0 note=60 velocity=68 time=40\n",
      "note_on channel=0 note=63 velocity=92 time=2\n",
      "note_on channel=0 note=63 velocity=0 time=60\n",
      "note_on channel=0 note=68 velocity=90 time=48\n",
      "note_on channel=0 note=51 velocity=0 time=12\n",
      "note_on channel=0 note=68 velocity=0 time=52\n",
      "note_on channel=0 note=60 velocity=0 time=40\n",
      "note_on channel=0 note=67 velocity=91 time=18\n",
      "note_on channel=0 note=58 velocity=65 time=6\n",
      "note_on channel=0 note=67 velocity=0 time=44\n",
      "note_on channel=0 note=68 velocity=95 time=57\n",
      "note_on channel=0 note=58 velocity=0 time=52\n",
      "note_on channel=0 note=68 velocity=0 time=2\n",
      "note_on channel=0 note=56 velocity=66 time=59\n",
      "note_on channel=0 note=72 velocity=100 time=10\n",
      "note_on channel=0 note=56 velocity=0 time=55\n",
      "note_on channel=0 note=55 velocity=74 time=45\n",
      "note_on channel=0 note=55 velocity=0 time=55\n",
      "note_on channel=0 note=72 velocity=0 time=27\n",
      "note_on channel=0 note=56 velocity=68 time=44\n",
      "note_on channel=0 note=70 velocity=79 time=22\n",
      "note_on channel=0 note=56 velocity=0 time=69\n",
      "note_on channel=0 note=58 velocity=75 time=26\n",
      "note_on channel=0 note=58 velocity=0 time=81\n",
      "note_on channel=0 note=60 velocity=79 time=49\n",
      "note_on channel=0 note=70 velocity=0 time=113\n",
      "note_on channel=0 note=60 velocity=0 time=3\n",
      "note_on channel=0 note=50 velocity=58 time=6\n",
      "note_on channel=0 note=50 velocity=0 time=53\n",
      "note_on channel=0 note=69 velocity=84 time=35\n",
      "note_on channel=0 note=51 velocity=55 time=23\n",
      "note_on channel=0 note=69 velocity=0 time=29\n",
      "note_on channel=0 note=65 velocity=85 time=61\n",
      "note_on channel=0 note=51 velocity=0 time=1\n",
      "note_on channel=0 note=60 velocity=31 time=14\n",
      "note_on channel=0 note=65 velocity=0 time=66\n",
      "note_on channel=0 note=60 velocity=0 time=10\n",
      "note_on channel=0 note=75 velocity=94 time=27\n",
      "note_on channel=0 note=55 velocity=65 time=13\n",
      "note_on channel=0 note=58 velocity=64 time=105\n",
      "note_on channel=0 note=75 velocity=0 time=49\n",
      "note_on channel=0 note=58 velocity=0 time=13\n",
      "note_on channel=0 note=55 velocity=0 time=21\n",
      "note_on channel=0 note=55 velocity=34 time=18\n",
      "note_on channel=0 note=74 velocity=93 time=7\n",
      "note_on channel=0 note=60 velocity=73 time=7\n",
      "note_on channel=0 note=60 velocity=0 time=70\n",
      "note_on channel=0 note=55 velocity=0 time=34\n",
      "note_on channel=0 note=62 velocity=68 time=23\n",
      "note_on channel=0 note=62 velocity=0 time=34\n",
      "note_on channel=0 note=74 velocity=0 time=6\n",
      "note_on channel=0 note=72 velocity=92 time=57\n",
      "note_on channel=0 note=63 velocity=70 time=28\n",
      "note_on channel=0 note=51 velocity=57 time=3\n",
      "control_change channel=0 control=64 value=44 time=23\n",
      "control_change channel=0 control=64 value=58 time=15\n",
      "control_change channel=0 control=64 value=63 time=16\n",
      "note_on channel=0 note=63 velocity=0 time=9\n",
      "control_change channel=0 control=64 value=66 time=6\n",
      "control_change channel=0 control=64 value=70 time=15\n",
      "control_change channel=0 control=64 value=75 time=15\n",
      "note_on channel=0 note=72 velocity=0 time=5\n",
      "note_on channel=0 note=60 velocity=64 time=5\n",
      "control_change channel=0 control=64 value=79 time=5\n",
      "control_change channel=0 control=64 value=81 time=15\n",
      "control_change channel=0 control=64 value=82 time=16\n",
      "control_change channel=0 control=64 value=83 time=14\n",
      "note_on channel=0 note=74 velocity=57 time=25\n",
      "control_change channel=0 control=64 value=83 time=6\n",
      "note_on channel=0 note=60 velocity=0 time=11\n",
      "control_change channel=0 control=64 value=84 time=4\n",
      "note_on channel=0 note=74 velocity=0 time=17\n",
      "note_on channel=0 note=51 velocity=0 time=2\n",
      "control_change channel=0 control=64 value=84 time=11\n",
      "note_on channel=0 note=72 velocity=72 time=2\n",
      "note_on channel=0 note=53 velocity=50 time=3\n",
      "control_change channel=0 control=64 value=85 time=11\n",
      "note_on channel=0 note=72 velocity=0 time=22\n",
      "control_change channel=0 control=64 value=85 time=8\n",
      "note_on channel=0 note=53 velocity=0 time=2\n",
      "note_on channel=0 note=74 velocity=68 time=21\n",
      "control_change channel=0 control=64 value=86 time=8\n",
      "note_on channel=0 note=74 velocity=0 time=15\n",
      "note_on channel=0 note=72 velocity=71 time=11\n",
      "control_change channel=0 control=64 value=86 time=12\n",
      "note_on channel=0 note=72 velocity=0 time=16\n",
      "note_on channel=0 note=74 velocity=63 time=7\n",
      "note_on channel=0 note=72 velocity=78 time=56\n",
      "control_change channel=0 control=64 value=84 time=13\n",
      "note_on channel=0 note=74 velocity=0 time=0\n",
      "control_change channel=0 control=64 value=79 time=16\n",
      "note_on channel=0 note=70 velocity=91 time=1\n",
      "note_on channel=0 note=46 velocity=65 time=11\n",
      "control_change channel=0 control=64 value=70 time=2\n",
      "control_change channel=0 control=64 value=37 time=15\n",
      "note_on channel=0 note=72 velocity=0 time=2\n",
      "control_change channel=0 control=64 value=0 time=14\n",
      "note_on channel=0 note=46 velocity=0 time=8\n",
      "note_on channel=0 note=53 velocity=58 time=68\n",
      "note_on channel=0 note=53 velocity=0 time=62\n",
      "note_on channel=0 note=70 velocity=0 time=32\n",
      "note_on channel=0 note=50 velocity=54 time=22\n",
      "note_on channel=0 note=77 velocity=82 time=14\n",
      "note_on channel=0 note=50 velocity=0 time=27\n",
      "note_on channel=0 note=46 velocity=71 time=61\n",
      "note_on channel=0 note=46 velocity=0 time=41\n",
      "note_on channel=0 note=77 velocity=0 time=47\n",
      "note_on channel=0 note=44 velocity=70 time=35\n",
      "note_on channel=0 note=74 velocity=81 time=9\n",
      "note_on channel=0 note=44 velocity=0 time=66\n",
      "note_on channel=0 note=53 velocity=62 time=47\n",
      "note_on channel=0 note=53 velocity=0 time=52\n",
      "note_on channel=0 note=74 velocity=0 time=16\n",
      "note_on channel=0 note=70 velocity=84 time=42\n",
      "note_on channel=0 note=50 velocity=70 time=6\n",
      "control_change channel=0 control=64 value=48 time=21\n",
      "control_change channel=0 control=64 value=63 time=16\n",
      "note_on channel=0 note=70 velocity=0 time=9\n",
      "control_change channel=0 control=64 value=65 time=7\n",
      "note_on channel=0 note=50 velocity=0 time=0\n",
      "control_change channel=0 control=64 value=66 time=15\n",
      "control_change channel=0 control=64 value=66 time=14\n",
      "control_change channel=0 control=64 value=67 time=16\n",
      "note_on channel=0 note=44 velocity=74 time=13\n",
      "control_change channel=0 control=64 value=67 time=17\n",
      "control_change channel=0 control=64 value=68 time=16\n",
      "note_on channel=0 note=44 velocity=0 time=7\n",
      "control_change channel=0 control=64 value=67 time=53\n",
      "control_change channel=0 control=64 value=65 time=16\n",
      "control_change channel=0 control=64 value=57 time=14\n",
      "note_on channel=0 note=82 velocity=90 time=11\n",
      "note_on channel=0 note=43 velocity=80 time=1\n",
      "control_change channel=0 control=64 value=0 time=3\n",
      "note_on channel=0 note=70 velocity=73 time=117\n",
      "note_on channel=0 note=70 velocity=0 time=32\n",
      "note_on channel=0 note=55 velocity=72 time=85\n",
      "note_on channel=0 note=75 velocity=71 time=10\n",
      "note_on channel=0 note=55 velocity=0 time=64\n",
      "note_on channel=0 note=75 velocity=0 time=14\n",
      "note_on channel=0 note=43 velocity=0 time=2\n",
      "note_on channel=0 note=79 velocity=63 time=25\n",
      "note_on channel=0 note=79 velocity=0 time=88\n",
      "note_on channel=0 note=73 velocity=75 time=27\n",
      "note_on channel=0 note=73 velocity=0 time=51\n",
      "note_on channel=0 note=70 velocity=70 time=56\n",
      "note_on channel=0 note=70 velocity=0 time=34\n",
      "note_on channel=0 note=39 velocity=53 time=84\n",
      "note_on channel=0 note=73 velocity=67 time=1\n",
      "note_on channel=0 note=82 velocity=0 time=24\n",
      "note_on channel=0 note=73 velocity=0 time=47\n",
      "note_on channel=0 note=39 velocity=0 time=9\n",
      "note_on channel=0 note=79 velocity=58 time=22\n",
      "note_on channel=0 note=79 velocity=0 time=36\n",
      "note_on channel=0 note=44 velocity=64 time=73\n",
      "note_on channel=0 note=72 velocity=76 time=9\n",
      "note_on channel=0 note=44 velocity=0 time=63\n",
      "note_on channel=0 note=51 velocity=65 time=44\n",
      "note_on channel=0 note=72 velocity=0 time=25\n",
      "note_on channel=0 note=51 velocity=0 time=28\n",
      "note_on channel=0 note=48 velocity=72 time=76\n",
      "note_on channel=0 note=75 velocity=90 time=0\n",
      "note_on channel=0 note=48 velocity=0 time=62\n",
      "note_on channel=0 note=44 velocity=66 time=58\n",
      "note_on channel=0 note=75 velocity=0 time=42\n",
      "note_on channel=0 note=44 velocity=0 time=16\n",
      "note_on channel=0 note=43 velocity=76 time=46\n",
      "note_on channel=0 note=72 velocity=90 time=7\n",
      "note_on channel=0 note=43 velocity=0 time=105\n",
      "note_on channel=0 note=51 velocity=72 time=0\n",
      "note_on channel=0 note=51 velocity=0 time=61\n",
      "note_on channel=0 note=72 velocity=0 time=22\n",
      "note_on channel=0 note=48 velocity=71 time=36\n",
      "note_on channel=0 note=68 velocity=92 time=4\n",
      "note_on channel=0 note=48 velocity=0 time=58\n",
      "note_on channel=0 note=43 velocity=74 time=43\n",
      "note_on channel=0 note=43 velocity=0 time=70\n",
      "note_on channel=0 note=41 velocity=81 time=59\n",
      "note_on channel=0 note=80 velocity=100 time=4\n",
      "note_on channel=0 note=68 velocity=0 time=33\n",
      "note_on channel=0 note=68 velocity=77 time=93\n",
      "note_on channel=0 note=68 velocity=0 time=73\n",
      "note_on channel=0 note=41 velocity=0 time=2\n",
      "note_on channel=0 note=74 velocity=71 time=52\n",
      "note_on channel=0 note=53 velocity=71 time=3\n",
      "note_on channel=0 note=74 velocity=0 time=75\n",
      "note_on channel=0 note=77 velocity=66 time=27\n",
      "note_on channel=0 note=53 velocity=0 time=7\n",
      "note_on channel=0 note=77 velocity=0 time=87\n",
      "note_on channel=0 note=72 velocity=71 time=19\n",
      "note_on channel=0 note=72 velocity=0 time=65\n",
      "note_on channel=0 note=68 velocity=67 time=46\n",
      "note_on channel=0 note=68 velocity=0 time=33\n",
      "note_on channel=0 note=72 velocity=65 time=66\n",
      "note_on channel=0 note=38 velocity=56 time=9\n",
      "note_on channel=0 note=72 velocity=0 time=84\n",
      "note_on channel=0 note=77 velocity=59 time=19\n",
      "note_on channel=0 note=38 velocity=0 time=15\n",
      "note_on channel=0 note=77 velocity=0 time=75\n",
      "note_on channel=0 note=43 velocity=62 time=21\n",
      "note_on channel=0 note=70 velocity=71 time=11\n",
      "note_on channel=0 note=80 velocity=0 time=51\n",
      "note_on channel=0 note=43 velocity=0 time=34\n",
      "note_on channel=0 note=50 velocity=61 time=16\n",
      "note_on channel=0 note=50 velocity=0 time=73\n",
      "note_on channel=0 note=70 velocity=0 time=0\n",
      "note_on channel=0 note=74 velocity=79 time=60\n",
      "note_on channel=0 note=46 velocity=73 time=1\n",
      "note_on channel=0 note=46 velocity=0 time=69\n",
      "note_on channel=0 note=43 velocity=65 time=45\n",
      "note_on channel=0 note=43 velocity=0 time=54\n",
      "note_on channel=0 note=74 velocity=0 time=0\n",
      "note_on channel=0 note=41 velocity=71 time=60\n",
      "note_on channel=0 note=70 velocity=86 time=5\n",
      "note_on channel=0 note=41 velocity=0 time=88\n",
      "note_on channel=0 note=49 velocity=75 time=24\n",
      "note_on channel=0 note=70 velocity=0 time=59\n",
      "note_on channel=0 note=49 velocity=0 time=6\n",
      "note_on channel=0 note=67 velocity=88 time=46\n",
      "note_on channel=0 note=46 velocity=76 time=12\n",
      "note_on channel=0 note=46 velocity=0 time=82\n",
      "note_on channel=0 note=41 velocity=68 time=29\n",
      "note_on channel=0 note=41 velocity=0 time=59\n",
      "note_on channel=0 note=67 velocity=0 time=17\n",
      "note_on channel=0 note=79 velocity=95 time=33\n",
      "note_on channel=0 note=40 velocity=76 time=7\n",
      "note_on channel=0 note=40 velocity=0 time=106\n",
      "note_on channel=0 note=48 velocity=61 time=6\n",
      "note_on channel=0 note=48 velocity=0 time=55\n",
      "note_on channel=0 note=70 velocity=77 time=60\n",
      "note_on channel=0 note=43 velocity=51 time=4\n",
      "note_on channel=0 note=43 velocity=0 time=56\n",
      "note_on channel=0 note=40 velocity=67 time=40\n",
      "note_on channel=0 note=40 velocity=0 time=46\n",
      "note_on channel=0 note=41 velocity=69 time=69\n",
      "note_on channel=0 note=70 velocity=0 time=0\n",
      "note_on channel=0 note=68 velocity=78 time=12\n",
      "note_on channel=0 note=41 velocity=0 time=48\n",
      "note_on channel=0 note=79 velocity=0 time=18\n",
      "note_on channel=0 note=48 velocity=66 time=40\n",
      "note_on channel=0 note=72 velocity=72 time=4\n",
      "note_on channel=0 note=48 velocity=0 time=67\n",
      "note_on channel=0 note=44 velocity=69 time=53\n",
      "note_on channel=0 note=74 velocity=72 time=4\n",
      "note_on channel=0 note=72 velocity=0 time=1\n",
      "note_on channel=0 note=44 velocity=0 time=49\n",
      "note_on channel=0 note=74 velocity=0 time=24\n",
      "note_on channel=0 note=41 velocity=73 time=29\n",
      "note_on channel=0 note=75 velocity=75 time=13\n",
      "note_on channel=0 note=41 velocity=0 time=51\n",
      "note_on channel=0 note=68 velocity=0 time=29\n",
      "note_on channel=0 note=75 velocity=0 time=11\n",
      "note_on channel=0 note=38 velocity=80 time=12\n",
      "note_on channel=0 note=77 velocity=91 time=3\n",
      "note_on channel=0 note=75 velocity=29 time=5\n",
      "note_on channel=0 note=75 velocity=0 time=26\n",
      "note_on channel=0 note=38 velocity=0 time=59\n",
      "note_on channel=0 note=75 velocity=71 time=27\n",
      "note_on channel=0 note=46 velocity=64 time=5\n",
      "note_on channel=0 note=77 velocity=0 time=16\n",
      "note_on channel=0 note=75 velocity=0 time=40\n",
      "note_on channel=0 note=46 velocity=0 time=6\n",
      "note_on channel=0 note=41 velocity=69 time=31\n",
      "note_on channel=0 note=74 velocity=67 time=18\n",
      "note_on channel=0 note=74 velocity=0 time=46\n",
      "note_on channel=0 note=41 velocity=0 time=11\n",
      "note_on channel=0 note=38 velocity=62 time=37\n",
      "note_on channel=0 note=72 velocity=73 time=10\n",
      "note_on channel=0 note=72 velocity=0 time=22\n",
      "note_on channel=0 note=38 velocity=0 time=41\n",
      "note_on channel=0 note=39 velocity=54 time=44\n",
      "note_on channel=0 note=67 velocity=81 time=0\n",
      "note_on channel=0 note=70 velocity=73 time=7\n",
      "note_on channel=0 note=70 velocity=0 time=43\n",
      "note_on channel=0 note=67 velocity=0 time=7\n",
      "note_on channel=0 note=39 velocity=0 time=14\n",
      "note_on channel=0 note=46 velocity=69 time=34\n",
      "note_on channel=0 note=68 velocity=81 time=6\n",
      "note_on channel=0 note=46 velocity=0 time=57\n",
      "note_on channel=0 note=68 velocity=0 time=3\n",
      "note_on channel=0 note=70 velocity=78 time=59\n",
      "note_on channel=0 note=63 velocity=81 time=9\n",
      "note_on channel=0 note=43 velocity=75 time=1\n",
      "control_change channel=0 control=64 value=34 time=21\n",
      "control_change channel=0 control=64 value=64 time=15\n",
      "control_change channel=0 control=64 value=67 time=15\n",
      "note_on channel=0 note=43 velocity=0 time=12\n",
      "control_change channel=0 control=64 value=70 time=4\n",
      "control_change channel=0 control=64 value=71 time=14\n",
      "control_change channel=0 control=64 value=72 time=16\n",
      "note_on channel=0 note=72 velocity=61 time=24\n",
      "note_on channel=0 note=70 velocity=0 time=3\n",
      "note_on channel=0 note=39 velocity=64 time=12\n",
      "note_on channel=0 note=72 velocity=0 time=4\n",
      "note_on channel=0 note=39 velocity=0 time=24\n",
      "note_on channel=0 note=63 velocity=0 time=19\n",
      "control_change channel=0 control=64 value=72 time=20\n",
      "control_change channel=0 control=64 value=69 time=16\n",
      "control_change channel=0 control=64 value=63 time=16\n",
      "control_change channel=0 control=64 value=10 time=14\n",
      "note_on channel=0 note=65 velocity=77 time=9\n",
      "control_change channel=0 control=64 value=0 time=7\n",
      "note_on channel=0 note=46 velocity=62 time=12\n",
      "note_on channel=0 note=62 velocity=69 time=88\n",
      "note_on channel=0 note=65 velocity=0 time=21\n",
      "note_on channel=0 note=62 velocity=0 time=85\n",
      "note_on channel=0 note=46 velocity=0 time=7\n",
      "note_on channel=0 note=60 velocity=72 time=23\n",
      "note_on channel=0 note=53 velocity=74 time=3\n",
      "note_on channel=0 note=60 velocity=0 time=70\n",
      "note_on channel=0 note=62 velocity=78 time=46\n",
      "note_on channel=0 note=62 velocity=0 time=66\n",
      "note_on channel=0 note=53 velocity=0 time=4\n",
      "note_on channel=0 note=58 velocity=89 time=59\n",
      "note_on channel=0 note=50 velocity=77 time=4\n",
      "note_on channel=0 note=58 velocity=0 time=54\n",
      "note_on channel=0 note=63 velocity=88 time=44\n",
      "note_on channel=0 note=63 velocity=0 time=65\n",
      "note_on channel=0 note=50 velocity=0 time=19\n",
      "note_on channel=0 note=46 velocity=85 time=33\n",
      "note_on channel=0 note=62 velocity=84 time=9\n",
      "note_on channel=0 note=65 velocity=82 time=1\n",
      "control_change channel=0 control=64 value=51 time=54\n",
      "note_on channel=0 note=65 velocity=0 time=2\n",
      "note_on channel=0 note=62 velocity=0 time=10\n",
      "control_change channel=0 control=64 value=60 time=4\n",
      "control_change channel=0 control=64 value=63 time=16\n",
      "control_change channel=0 control=64 value=65 time=14\n",
      "note_on channel=0 note=63 velocity=90 time=10\n",
      "control_change channel=0 control=64 value=67 time=6\n",
      "control_change channel=0 control=64 value=70 time=15\n",
      "note_on channel=0 note=63 velocity=0 time=14\n",
      "control_change channel=0 control=64 value=73 time=1\n",
      "control_change channel=0 control=64 value=75 time=16\n",
      "control_change channel=0 control=64 value=76 time=15\n",
      "control_change channel=0 control=64 value=76 time=15\n",
      "control_change channel=0 control=64 value=76 time=30\n",
      "control_change channel=0 control=64 value=74 time=16\n",
      "note_on channel=0 note=46 velocity=0 time=1\n",
      "control_change channel=0 control=64 value=68 time=14\n",
      "note_on channel=0 note=57 velocity=87 time=9\n",
      "note_on channel=0 note=66 velocity=99 time=0\n",
      "note_on channel=0 note=75 velocity=100 time=0\n",
      "control_change channel=0 control=64 value=0 time=6\n",
      "control_change channel=0 control=64 value=44 time=113\n",
      "control_change channel=0 control=64 value=57 time=16\n",
      "control_change channel=0 control=64 value=60 time=15\n",
      "control_change channel=0 control=64 value=61 time=15\n",
      "control_change channel=0 control=64 value=60 time=16\n",
      "control_change channel=0 control=64 value=60 time=30\n",
      "control_change channel=0 control=64 value=59 time=16\n",
      "note_on channel=0 note=75 velocity=0 time=11\n",
      "control_change channel=0 control=64 value=58 time=3\n",
      "note_on channel=0 note=66 velocity=0 time=0\n",
      "note_on channel=0 note=57 velocity=0 time=2\n",
      "control_change channel=0 control=64 value=56 time=14\n",
      "control_change channel=0 control=64 value=35 time=15\n",
      "control_change channel=0 control=64 value=0 time=15\n",
      "note_on channel=0 note=56 velocity=86 time=13\n",
      "note_on channel=0 note=65 velocity=97 time=6\n",
      "note_on channel=0 note=74 velocity=92 time=3\n",
      "control_change channel=0 control=64 value=25 time=191\n",
      "control_change channel=0 control=64 value=49 time=15\n",
      "control_change channel=0 control=64 value=55 time=14\n",
      "note_on channel=0 note=56 velocity=0 time=0\n",
      "note_on channel=0 note=74 velocity=0 time=104\n",
      "note_on channel=0 note=65 velocity=0 time=15\n",
      "control_change channel=0 control=64 value=54 time=5\n",
      "control_change channel=0 control=64 value=53 time=15\n",
      "control_change channel=0 control=64 value=51 time=14\n",
      "control_change channel=0 control=64 value=49 time=16\n",
      "control_change channel=0 control=64 value=44 time=15\n",
      "control_change channel=0 control=64 value=29 time=15\n",
      "control_change channel=0 control=64 value=0 time=16\n",
      "note_on channel=0 note=56 velocity=56 time=0\n",
      "note_on channel=0 note=56 velocity=0 time=118\n",
      "note_on channel=0 note=53 velocity=57 time=29\n",
      "note_on channel=0 note=62 velocity=66 time=15\n",
      "note_on channel=0 note=62 velocity=0 time=54\n",
      "note_on channel=0 note=53 velocity=0 time=13\n",
      "note_on channel=0 note=58 velocity=57 time=30\n",
      "note_on channel=0 note=50 velocity=45 time=23\n",
      "note_on channel=0 note=58 velocity=0 time=63\n",
      "note_on channel=0 note=50 velocity=0 time=27\n",
      "note_on channel=0 note=46 velocity=54 time=28\n",
      "note_on channel=0 note=77 velocity=69 time=2\n",
      "note_on channel=0 note=68 velocity=56 time=11\n",
      "note_on channel=0 note=68 velocity=0 time=81\n",
      "note_on channel=0 note=68 velocity=18 time=0\n",
      "note_on channel=0 note=68 velocity=0 time=136\n",
      "note_on channel=0 note=46 velocity=0 time=3\n",
      "note_on channel=0 note=77 velocity=0 time=17\n",
      "note_on channel=0 note=51 velocity=41 time=16\n",
      "note_on channel=0 note=75 velocity=62 time=1\n",
      "note_on channel=0 note=67 velocity=52 time=13\n",
      "note_on channel=0 note=67 velocity=0 time=136\n",
      "note_on channel=0 note=58 velocity=49 time=108\n",
      "note_on channel=0 note=65 velocity=62 time=8\n",
      "note_on channel=0 note=58 velocity=0 time=129\n",
      "note_on channel=0 note=51 velocity=0 time=90\n",
      "note_on channel=0 note=75 velocity=0 time=5\n",
      "note_on channel=0 note=74 velocity=74 time=11\n",
      "note_on channel=0 note=59 velocity=50 time=3\n",
      "note_on channel=0 note=65 velocity=0 time=4\n",
      "note_on channel=0 note=59 velocity=0 time=30\n",
      "note_on channel=0 note=67 velocity=77 time=187\n",
      "note_on channel=0 note=75 velocity=81 time=0\n",
      "note_on channel=0 note=60 velocity=58 time=3\n",
      "note_on channel=0 note=74 velocity=0 time=18\n",
      "note_on channel=0 note=79 velocity=81 time=98\n",
      "note_on channel=0 note=75 velocity=0 time=15\n",
      "note_on channel=0 note=79 velocity=0 time=46\n",
      "note_on channel=0 note=75 velocity=77 time=64\n",
      "note_on channel=0 note=75 velocity=0 time=63\n",
      "note_on channel=0 note=67 velocity=0 time=17\n",
      "note_on channel=0 note=72 velocity=78 time=35\n",
      "note_on channel=0 note=72 velocity=0 time=70\n",
      "note_on channel=0 note=60 velocity=0 time=4\n",
      "note_on channel=0 note=68 velocity=73 time=48\n",
      "note_on channel=0 note=60 velocity=60 time=114\n",
      "note_on channel=0 note=60 velocity=0 time=58\n",
      "note_on channel=0 note=68 velocity=0 time=13\n",
      "note_on channel=0 note=56 velocity=63 time=50\n",
      "note_on channel=0 note=65 velocity=71 time=0\n",
      "note_on channel=0 note=56 velocity=0 time=40\n",
      "note_on channel=0 note=53 velocity=63 time=78\n",
      "note_on channel=0 note=53 velocity=0 time=41\n",
      "note_on channel=0 note=58 velocity=73 time=85\n",
      "note_on channel=0 note=50 velocity=44 time=46\n",
      "control_change channel=0 control=64 value=18 time=36\n",
      "control_change channel=0 control=64 value=42 time=15\n",
      "note_on channel=0 note=65 velocity=0 time=9\n",
      "control_change channel=0 control=64 value=53 time=6\n",
      "note_on channel=0 note=77 velocity=71 time=15\n",
      "control_change channel=0 control=64 value=58 time=1\n",
      "control_change channel=0 control=64 value=60 time=15\n",
      "control_change channel=0 control=64 value=61 time=16\n",
      "control_change channel=0 control=64 value=62 time=15\n",
      "note_on channel=0 note=50 velocity=0 time=6\n",
      "note_on channel=0 note=77 velocity=0 time=0\n",
      "control_change channel=0 control=64 value=63 time=9\n",
      "note_on channel=0 note=58 velocity=0 time=7\n",
      "control_change channel=0 control=64 value=62 time=23\n",
      "control_change channel=0 control=64 value=61 time=15\n",
      "note_on channel=0 note=74 velocity=61 time=14\n",
      "control_change channel=0 control=64 value=58 time=1\n",
      "note_on channel=0 note=46 velocity=57 time=1\n",
      "control_change channel=0 control=64 value=55 time=12\n",
      "control_change channel=0 control=64 value=56 time=16\n",
      "control_change channel=0 control=64 value=57 time=15\n",
      "control_change channel=0 control=64 value=58 time=15\n",
      "note_on channel=0 note=74 velocity=0 time=0\n",
      "control_change channel=0 control=64 value=59 time=16\n",
      "control_change channel=0 control=64 value=59 time=15\n",
      "note_on channel=0 note=70 velocity=73 time=7\n",
      "control_change channel=0 control=64 value=60 time=8\n",
      "control_change channel=0 control=64 value=61 time=16\n",
      "control_change channel=0 control=64 value=62 time=14\n",
      "note_on channel=0 note=70 velocity=0 time=8\n",
      "control_change channel=0 control=64 value=61 time=23\n",
      "control_change channel=0 control=64 value=58 time=15\n",
      "control_change channel=0 control=64 value=21 time=15\n",
      "control_change channel=0 control=64 value=0 time=15\n",
      "note_on channel=0 note=67 velocity=79 time=16\n",
      "control_change channel=0 control=64 value=28 time=46\n",
      "control_change channel=0 control=64 value=58 time=14\n",
      "note_on channel=0 note=46 velocity=0 time=8\n",
      "control_change channel=0 control=64 value=63 time=7\n",
      "control_change channel=0 control=64 value=64 time=16\n",
      "control_change channel=0 control=64 value=65 time=14\n",
      "note_on channel=0 note=67 velocity=0 time=1\n",
      "note_on channel=0 note=51 velocity=74 time=11\n",
      "control_change channel=0 control=64 value=66 time=3\n",
      "control_change channel=0 control=64 value=66 time=61\n",
      "control_change channel=0 control=64 value=65 time=15\n",
      "control_change channel=0 control=64 value=59 time=16\n",
      "control_change channel=0 control=64 value=0 time=15\n",
      "note_on channel=0 note=51 velocity=0 time=15\n",
      "note_on channel=0 note=48 velocity=73 time=3\n",
      "note_on channel=0 note=65 velocity=79 time=2\n",
      "note_on channel=0 note=75 velocity=77 time=2\n",
      "control_change channel=0 control=64 value=56 time=69\n",
      "note_on channel=0 note=75 velocity=0 time=9\n",
      "control_change channel=0 control=64 value=62 time=8\n",
      "control_change channel=0 control=64 value=64 time=22\n",
      "control_change channel=0 control=64 value=65 time=16\n",
      "note_on channel=0 note=44 velocity=77 time=1\n",
      "note_on channel=0 note=48 velocity=0 time=3\n",
      "control_change channel=0 control=64 value=66 time=11\n",
      "control_change channel=0 control=64 value=65 time=91\n",
      "note_on channel=0 note=65 velocity=0 time=5\n",
      "control_change channel=0 control=64 value=63 time=10\n",
      "control_change channel=0 control=64 value=55 time=15\n",
      "control_change channel=0 control=64 value=0 time=16\n",
      "note_on channel=0 note=67 velocity=90 time=2\n",
      "note_on channel=0 note=46 velocity=85 time=2\n",
      "note_on channel=0 note=44 velocity=0 time=21\n",
      "note_on channel=0 note=62 velocity=70 time=101\n",
      "control_change channel=0 control=64 value=25 time=25\n",
      "control_change channel=0 control=64 value=48 time=16\n",
      "control_change channel=0 control=64 value=55 time=14\n",
      "control_change channel=0 control=64 value=59 time=15\n",
      "control_change channel=0 control=64 value=61 time=16\n",
      "note_on channel=0 note=62 velocity=0 time=6\n",
      "control_change channel=0 control=64 value=62 time=9\n",
      "control_change channel=0 control=64 value=63 time=16\n",
      "note_on channel=0 note=63 velocity=70 time=12\n",
      "note_on channel=0 note=67 velocity=0 time=0\n",
      "control_change channel=0 control=64 value=64 time=3\n",
      "control_change channel=0 control=64 value=65 time=15\n",
      "control_change channel=0 control=64 value=65 time=15\n",
      "control_change channel=0 control=64 value=66 time=15\n",
      "control_change channel=0 control=64 value=66 time=61\n",
      "note_on channel=0 note=58 velocity=76 time=12\n",
      "note_on channel=0 note=63 velocity=0 time=7\n",
      "control_change channel=0 control=64 value=66 time=57\n",
      "control_change channel=0 control=64 value=64 time=15\n",
      "note_on channel=0 note=58 velocity=0 time=8\n",
      "control_change channel=0 control=64 value=58 time=7\n",
      "control_change channel=0 control=64 value=0 time=16\n",
      "note_on channel=0 note=65 velocity=82 time=33\n",
      "control_change channel=0 control=64 value=21 time=72\n",
      "control_change channel=0 control=64 value=52 time=24\n",
      "control_change channel=0 control=64 value=60 time=16\n",
      "control_change channel=0 control=64 value=63 time=16\n",
      "note_on channel=0 note=60 velocity=71 time=10\n",
      "control_change channel=0 control=64 value=64 time=4\n",
      "control_change channel=0 control=64 value=65 time=15\n",
      "control_change channel=0 control=64 value=66 time=16\n",
      "control_change channel=0 control=64 value=67 time=15\n",
      "control_change channel=0 control=64 value=67 time=16\n",
      "control_change channel=0 control=64 value=68 time=14\n",
      "note_on channel=0 note=60 velocity=0 time=11\n",
      "control_change channel=0 control=64 value=69 time=4\n",
      "control_change channel=0 control=64 value=70 time=16\n",
      "control_change channel=0 control=64 value=70 time=15\n",
      "note_on channel=0 note=62 velocity=72 time=4\n",
      "control_change channel=0 control=64 value=71 time=57\n",
      "note_on channel=0 note=62 velocity=0 time=51\n",
      "note_on channel=0 note=56 velocity=77 time=7\n",
      "control_change channel=0 control=64 value=70 time=65\n",
      "note_on channel=0 note=65 velocity=0 time=35\n",
      "control_change channel=0 control=64 value=69 time=25\n",
      "note_on channel=0 note=56 velocity=0 time=4\n",
      "control_change channel=0 control=64 value=65 time=12\n",
      "note_on channel=0 note=46 velocity=0 time=5\n",
      "note_on channel=0 note=63 velocity=86 time=0\n",
      "note_on channel=0 note=39 velocity=56 time=4\n",
      "control_change channel=0 control=64 value=55 time=6\n",
      "control_change channel=0 control=64 value=0 time=16\n",
      "note_on channel=0 note=61 velocity=67 time=119\n",
      "note_on channel=0 note=61 velocity=0 time=139\n",
      "note_on channel=0 note=58 velocity=59 time=11\n",
      "note_on channel=0 note=58 velocity=0 time=92\n",
      "note_on channel=0 note=55 velocity=64 time=50\n",
      "note_on channel=0 note=55 velocity=0 time=100\n",
      "note_on channel=0 note=60 velocity=72 time=51\n",
      "note_on channel=0 note=60 velocity=0 time=136\n",
      "note_on channel=0 note=56 velocity=68 time=15\n",
      "note_on channel=0 note=56 velocity=0 time=115\n",
      "note_on channel=0 note=53 velocity=71 time=52\n",
      "note_on channel=0 note=53 velocity=0 time=119\n",
      "note_on channel=0 note=59 velocity=63 time=74\n",
      "note_on channel=0 note=59 velocity=0 time=232\n",
      "note_on channel=0 note=55 velocity=58 time=73\n",
      "note_on channel=0 note=58 velocity=62 time=0\n",
      "control_change channel=0 control=64 value=13 time=1283\n",
      "control_change channel=0 control=64 value=23 time=16\n",
      "control_change channel=0 control=64 value=29 time=15\n",
      "control_change channel=0 control=64 value=35 time=15\n",
      "control_change channel=0 control=64 value=40 time=16\n",
      "control_change channel=0 control=64 value=44 time=14\n",
      "control_change channel=0 control=64 value=47 time=15\n",
      "control_change channel=0 control=64 value=50 time=16\n",
      "control_change channel=0 control=64 value=53 time=14\n",
      "control_change channel=0 control=64 value=55 time=15\n",
      "control_change channel=0 control=64 value=57 time=15\n",
      "control_change channel=0 control=64 value=59 time=16\n",
      "control_change channel=0 control=64 value=60 time=16\n",
      "control_change channel=0 control=64 value=62 time=15\n",
      "control_change channel=0 control=64 value=62 time=15\n",
      "control_change channel=0 control=64 value=63 time=15\n",
      "control_change channel=0 control=64 value=64 time=15\n",
      "control_change channel=0 control=64 value=65 time=16\n",
      "control_change channel=0 control=64 value=65 time=15\n",
      "control_change channel=0 control=64 value=66 time=15\n",
      "control_change channel=0 control=64 value=67 time=15\n",
      "control_change channel=0 control=64 value=68 time=15\n",
      "control_change channel=0 control=64 value=69 time=15\n",
      "control_change channel=0 control=64 value=70 time=16\n",
      "control_change channel=0 control=64 value=71 time=15\n",
      "control_change channel=0 control=64 value=72 time=16\n",
      "control_change channel=0 control=64 value=73 time=15\n",
      "control_change channel=0 control=64 value=74 time=15\n",
      "control_change channel=0 control=64 value=74 time=15\n",
      "control_change channel=0 control=64 value=75 time=15\n",
      "control_change channel=0 control=64 value=75 time=16\n",
      "note_on channel=0 note=39 velocity=0 time=19\n",
      "note_on channel=0 note=63 velocity=0 time=64\n",
      "note_on channel=0 note=55 velocity=0 time=37\n",
      "control_change channel=0 control=64 value=75 time=16\n",
      "note_on channel=0 note=58 velocity=0 time=7\n",
      "control_change channel=0 control=64 value=74 time=38\n",
      "control_change channel=0 control=64 value=74 time=15\n",
      "control_change channel=0 control=64 value=73 time=16\n",
      "control_change channel=0 control=64 value=73 time=15\n",
      "control_change channel=0 control=64 value=72 time=16\n",
      "control_change channel=0 control=64 value=72 time=22\n",
      "control_change channel=0 control=64 value=71 time=16\n",
      "control_change channel=0 control=64 value=70 time=15\n",
      "control_change channel=0 control=64 value=69 time=14\n",
      "control_change channel=0 control=64 value=69 time=16\n",
      "control_change channel=0 control=64 value=68 time=30\n",
      "control_change channel=0 control=64 value=68 time=30\n",
      "control_change channel=0 control=64 value=67 time=31\n",
      "control_change channel=0 control=64 value=67 time=31\n",
      "control_change channel=0 control=64 value=66 time=14\n",
      "control_change channel=0 control=64 value=66 time=15\n",
      "control_change channel=0 control=64 value=65 time=30\n",
      "control_change channel=0 control=64 value=65 time=33\n",
      "control_change channel=0 control=64 value=64 time=14\n",
      "control_change channel=0 control=64 value=64 time=47\n",
      "control_change channel=0 control=64 value=63 time=60\n",
      "control_change channel=0 control=64 value=63 time=30\n",
      "control_change channel=0 control=64 value=62 time=77\n",
      "control_change channel=0 control=64 value=62 time=91\n",
      "control_change channel=0 control=64 value=61 time=75\n",
      "control_change channel=0 control=64 value=61 time=15\n",
      "control_change channel=0 control=64 value=60 time=46\n",
      "control_change channel=0 control=64 value=60 time=38\n",
      "control_change channel=0 control=64 value=59 time=16\n",
      "control_change channel=0 control=64 value=59 time=15\n",
      "control_change channel=0 control=64 value=58 time=16\n",
      "control_change channel=0 control=64 value=58 time=29\n",
      "control_change channel=0 control=64 value=57 time=16\n",
      "control_change channel=0 control=64 value=57 time=29\n",
      "control_change channel=0 control=64 value=56 time=47\n",
      "control_change channel=0 control=64 value=56 time=137\n",
      "MetaMessage('end_of_track', time=1)\n"
     ]
    }
   ],
   "source": [
    "for i, track in enumerate(midi_file.tracks):\n",
    "    print(f\"Track {i}: {track.name}\")\n",
    "    for msg in track:\n",
    "        print(msg)\n"
   ]
  },
  {
   "cell_type": "code",
   "execution_count": 92,
   "id": "404b18ec",
   "metadata": {},
   "outputs": [
    {
     "data": {
      "text/plain": [
       "'control_change'"
      ]
     },
     "execution_count": 92,
     "metadata": {},
     "output_type": "execute_result"
    }
   ],
   "source": [
    "midi_file.tracks[1][10].type"
   ]
  },
  {
   "cell_type": "code",
   "execution_count": null,
   "id": "af026979",
   "metadata": {},
   "outputs": [
    {
     "name": "stderr",
     "output_type": "stream",
     "text": [
      "/tmp/ipykernel_9199/1623911266.py:7: UserWarning: Attribute controls are not compatible with 'config.one_token_stream_for_programs' and multi-vocabulary tokenizers. Disabling them from the config.\n",
      "  tokenizer = MIDILike(config)\n"
     ]
    }
   ],
   "source": [
    "from miditok import MIDILike, TokenizerConfig\n",
    "from symusic import Score\n",
    "\n",
    "tokenizer = MIDILike(TokenizerConfig())\n",
    "\n",
    "# Creating a multitrack tokenizer, read the doc to explore all the parameters\n",
    "config = TokenizerConfig(num_velocities=16, use_chords=True, use_programs=True)\n",
    "tokenizer = MIDILike(config)\n",
    "\n",
    "# Loads a midi, converts to tokens, and back to a MIDI\n",
    "midi = Score(example_track.midi_path)\n",
    "tokens = tokenizer(midi)  # calling the tokenizer will automatically detect MIDIs, paths and tokens\n",
    "converted_back_midi = tokenizer(tokens)  "
   ]
  },
  {
   "cell_type": "code",
   "execution_count": 117,
   "id": "0d8d686c",
   "metadata": {},
   "outputs": [
    {
     "data": {
      "text/plain": [
       "(tensor([10093, 10122, 10332, 10337, 10530, 10568, 10797, 10949, 11109, 11110,\n",
       "         11297, 11315, 11493, 11500, 11685, 11706, 11866, 11883, 12019, 12079,\n",
       "         12178, 12301, 12334, 12599, 12601, 12654, 12762, 12908, 13107, 13119,\n",
       "         13294, 13321, 13504, 13522, 13697, 13709, 13873, 13904, 14085, 14118,\n",
       "         14346, 14386, 14564, 14685, 14710, 14716, 14768, 14886, 14923, 14934,\n",
       "         14944, 15100, 15123, 15128, 15161, 15291, 15314, 15317, 15354, 15500,\n",
       "         15508, 15508, 15535, 15691, 15705, 15708, 15721, 15896, 15905, 15906,\n",
       "         15913, 16094, 16120, 16194, 16388, 16389, 16593, 16596, 16776, 16789,\n",
       "         16984, 17020, 17183, 17206, 17290, 17379, 17384, 17580, 17593, 17819,\n",
       "         17824, 17827, 17982, 18077, 18082, 18274, 18285, 18285, 18286, 18310,\n",
       "         18461, 18481, 18484, 18512, 18653, 18674, 18684, 18736, 18858, 18870,\n",
       "         18876, 18882, 18936, 19068, 19069, 19099, 19141, 19275, 19288, 19289,\n",
       "         19329, 19525, 19526, 19563, 19576, 19816, 19824, 19831, 19836]),\n",
       " [Message('note_on', channel=0, note=63, velocity=0, time=37),\n",
       "  Message('note_on', channel=0, note=62, velocity=53, time=29),\n",
       "  Message('note_on', channel=0, note=62, velocity=0, time=210),\n",
       "  Message('note_on', channel=0, note=60, velocity=51, time=5),\n",
       "  Message('note_on', channel=0, note=58, velocity=52, time=193),\n",
       "  Message('note_on', channel=0, note=60, velocity=0, time=38),\n",
       "  Message('note_on', channel=0, note=63, velocity=56, time=229),\n",
       "  Message('note_on', channel=0, note=58, velocity=0, time=152),\n",
       "  Message('note_on', channel=0, note=77, velocity=48, time=160),\n",
       "  Message('note_on', channel=0, note=80, velocity=0, time=1),\n",
       "  Message('note_on', channel=0, note=77, velocity=0, time=187),\n",
       "  Message('note_on', channel=0, note=79, velocity=50, time=18),\n",
       "  Message('note_on', channel=0, note=79, velocity=0, time=178),\n",
       "  Message('note_on', channel=0, note=80, velocity=57, time=7),\n",
       "  Message('note_on', channel=0, note=79, velocity=60, time=185),\n",
       "  Message('note_on', channel=0, note=80, velocity=0, time=21),\n",
       "  Message('note_on', channel=0, note=70, velocity=0, time=160),\n",
       "  Message('note_on', channel=0, note=77, velocity=58, time=17),\n",
       "  Message('note_on', channel=0, note=79, velocity=0, time=136),\n",
       "  Message('note_on', channel=0, note=75, velocity=54, time=60),\n",
       "  Message('note_on', channel=0, note=77, velocity=0, time=99),\n",
       "  Message('note_on', channel=0, note=74, velocity=48, time=123),\n",
       "  Message('note_on', channel=0, note=75, velocity=0, time=33),\n",
       "  Message('note_on', channel=0, note=79, velocity=43, time=11),\n",
       "  Message('note_on', channel=0, note=75, velocity=45, time=2),\n",
       "  Message('note_on', channel=0, note=74, velocity=0, time=12),\n",
       "  Message('note_on', channel=0, note=63, velocity=0, time=13),\n",
       "  Message('note_on', channel=0, note=63, velocity=42, time=8),\n",
       "  Message('note_on', channel=0, note=63, velocity=0, time=9),\n",
       "  Message('note_on', channel=0, note=65, velocity=46, time=6),\n",
       "  Message('note_on', channel=0, note=65, velocity=0, time=14),\n",
       "  Message('note_on', channel=0, note=67, velocity=52, time=11),\n",
       "  Message('note_on', channel=0, note=67, velocity=0, time=183),\n",
       "  Message('note_on', channel=0, note=65, velocity=50, time=18),\n",
       "  Message('note_on', channel=0, note=65, velocity=0, time=175),\n",
       "  Message('note_on', channel=0, note=63, velocity=51, time=12),\n",
       "  Message('note_on', channel=0, note=63, velocity=0, time=164),\n",
       "  Message('note_on', channel=0, note=62, velocity=47, time=31),\n",
       "  Message('note_on', channel=0, note=62, velocity=0, time=181),\n",
       "  Message('note_on', channel=0, note=60, velocity=36, time=33),\n",
       "  Message('note_on', channel=0, note=60, velocity=0, time=228),\n",
       "  Message('note_on', channel=0, note=58, velocity=36, time=40),\n",
       "  Message('note_on', channel=0, note=75, velocity=0, time=178),\n",
       "  Message('note_on', channel=0, note=58, velocity=0, time=121),\n",
       "  Message('note_on', channel=0, note=60, velocity=41, time=25),\n",
       "  Message('note_on', channel=0, note=75, velocity=47, time=6),\n",
       "  Message('note_on', channel=0, note=79, velocity=0, time=52),\n",
       "  Message('note_on', channel=0, note=60, velocity=0, time=118),\n",
       "  Message('note_on', channel=0, note=62, velocity=50, time=37),\n",
       "  Message('note_on', channel=0, note=77, velocity=62, time=11),\n",
       "  Message('note_on', channel=0, note=75, velocity=0, time=10),\n",
       "  Message('note_on', channel=0, note=62, velocity=0, time=156),\n",
       "  Message('note_on', channel=0, note=63, velocity=51, time=23),\n",
       "  Message('note_on', channel=0, note=79, velocity=67, time=5),\n",
       "  Message('note_on', channel=0, note=77, velocity=0, time=33),\n",
       "  Message('note_on', channel=0, note=63, velocity=0, time=130),\n",
       "  Message('note_on', channel=0, note=77, velocity=68, time=23),\n",
       "  Message('note_on', channel=0, note=62, velocity=53, time=3),\n",
       "  Message('note_on', channel=0, note=79, velocity=0, time=37),\n",
       "  Message('note_on', channel=0, note=62, velocity=0, time=146),\n",
       "  Message('note_on', channel=0, note=60, velocity=53, time=8),\n",
       "  Message('note_on', channel=0, note=75, velocity=73, time=0),\n",
       "  Message('note_on', channel=0, note=77, velocity=0, time=27),\n",
       "  Message('note_on', channel=0, note=60, velocity=0, time=156),\n",
       "  Message('note_on', channel=0, note=58, velocity=57, time=14),\n",
       "  Message('note_on', channel=0, note=74, velocity=67, time=3),\n",
       "  Message('note_on', channel=0, note=75, velocity=0, time=13),\n",
       "  Message('note_on', channel=0, note=74, velocity=0, time=175),\n",
       "  Message('note_on', channel=0, note=58, velocity=0, time=9),\n",
       "  Message('note_on', channel=0, note=72, velocity=69, time=1),\n",
       "  Message('note_on', channel=0, note=56, velocity=51, time=7),\n",
       "  Message('note_on', channel=0, note=56, velocity=0, time=181),\n",
       "  Message('note_on', channel=0, note=55, velocity=53, time=26),\n",
       "  Message('note_on', channel=0, note=84, velocity=78, time=74),\n",
       "  Message('note_on', channel=0, note=51, velocity=54, time=194),\n",
       "  Message('note_on', channel=0, note=55, velocity=0, time=1),\n",
       "  Message('note_on', channel=0, note=53, velocity=57, time=204),\n",
       "  Message('note_on', channel=0, note=51, velocity=0, time=3),\n",
       "  Message('note_on', channel=0, note=53, velocity=0, time=180),\n",
       "  Message('note_on', channel=0, note=55, velocity=57, time=13),\n",
       "  Message('note_on', channel=0, note=53, velocity=55, time=195),\n",
       "  Message('note_on', channel=0, note=55, velocity=0, time=36),\n",
       "  Message('note_on', channel=0, note=51, velocity=50, time=163),\n",
       "  Message('note_on', channel=0, note=53, velocity=0, time=23),\n",
       "  Message('note_on', channel=0, note=72, velocity=0, time=84),\n",
       "  Message('note_on', channel=0, note=51, velocity=0, time=89),\n",
       "  Message('note_on', channel=0, note=50, velocity=48, time=5),\n",
       "  Message('note_on', channel=0, note=50, velocity=0, time=196),\n",
       "  Message('note_on', channel=0, note=48, velocity=44, time=13),\n",
       "  Message('note_on', channel=0, note=74, velocity=45, time=226),\n",
       "  Message('note_on', channel=0, note=48, velocity=0, time=5),\n",
       "  Message('note_on', channel=0, note=53, velocity=36, time=3),\n",
       "  Message('note_on', channel=0, note=84, velocity=0, time=155),\n",
       "  Message('note_on', channel=0, note=48, velocity=44, time=95),\n",
       "  Message('note_on', channel=0, note=81, velocity=59, time=5),\n",
       "  Message('note_on', channel=0, note=53, velocity=0, time=192),\n",
       "  Message('note_on', channel=0, note=48, velocity=0, time=11),\n",
       "  Message('note_on', channel=0, note=50, velocity=48, time=0),\n",
       "  Message('note_on', channel=0, note=82, velocity=72, time=1),\n",
       "  Message('note_on', channel=0, note=81, velocity=0, time=24),\n",
       "  Message('note_on', channel=0, note=50, velocity=0, time=151),\n",
       "  Message('note_on', channel=0, note=51, velocity=54, time=20),\n",
       "  Message('note_on', channel=0, note=84, velocity=75, time=3),\n",
       "  Message('note_on', channel=0, note=82, velocity=0, time=28),\n",
       "  Message('note_on', channel=0, note=51, velocity=0, time=141),\n",
       "  Message('note_on', channel=0, note=50, velocity=51, time=21),\n",
       "  Message('note_on', channel=0, note=82, velocity=74, time=10),\n",
       "  Message('note_on', channel=0, note=84, velocity=0, time=52),\n",
       "  Message('note_on', channel=0, note=74, velocity=0, time=122),\n",
       "  Message('note_on', channel=0, note=50, velocity=0, time=12),\n",
       "  Message('note_on', channel=0, note=81, velocity=73, time=6),\n",
       "  Message('note_on', channel=0, note=48, velocity=46, time=6),\n",
       "  Message('note_on', channel=0, note=82, velocity=0, time=54),\n",
       "  Message('note_on', channel=0, note=79, velocity=68, time=132),\n",
       "  Message('note_on', channel=0, note=46, velocity=51, time=1),\n",
       "  Message('note_on', channel=0, note=48, velocity=0, time=30),\n",
       "  Message('note_on', channel=0, note=81, velocity=0, time=42),\n",
       "  Message('note_on', channel=0, note=77, velocity=60, time=134),\n",
       "  Message('note_on', channel=0, note=45, velocity=42, time=13),\n",
       "  Message('note_on', channel=0, note=46, velocity=0, time=1),\n",
       "  Message('note_on', channel=0, note=79, velocity=0, time=40),\n",
       "  Message('note_on', channel=0, note=82, velocity=51, time=196),\n",
       "  Message('note_on', channel=0, note=50, velocity=36, time=1),\n",
       "  Message('note_on', channel=0, note=45, velocity=0, time=37),\n",
       "  Message('note_on', channel=0, note=77, velocity=0, time=13),\n",
       "  Message('note_on', channel=0, note=82, velocity=0, time=240),\n",
       "  Message('note_on', channel=0, note=50, velocity=0, time=8),\n",
       "  Message('note_on', channel=0, note=46, velocity=44, time=7)])"
      ]
     },
     "execution_count": 117,
     "metadata": {},
     "output_type": "execute_result"
    }
   ],
   "source": [
    "class Tokeniser:\n",
    "    def __init__(self, ):\n",
    "        return\n",
    "    \n",
    "    @staticmethod\n",
    "    def process_midi(midi):\n",
    "        # In: Librosa midi file\n",
    "        times = []\n",
    "        msgs = []\n",
    "        for i, track in enumerate(midi.tracks):\n",
    "            abs_time = 0\n",
    "\n",
    "            # remove initial track\n",
    "            if i ==0:\n",
    "                continue\n",
    "\n",
    "            for msg in track:\n",
    "                abs_time += msg.time\n",
    "                if msg.type in ['note_on', 'note_off']:\n",
    "                    msgs.append(msg)\n",
    "                    times.append(abs_time)\n",
    "                else:\n",
    "                    continue\n",
    "\n",
    "        times=  torch.tensor(times)\n",
    "        return times, msgs\n",
    "    \n",
    "    @staticmethod\n",
    "    def collect_indices_between(times, start_time, end_time):\n",
    "        return [i for i, t in enumerate(times) if start_time <= t <= end_time] \n",
    "\n",
    "    @staticmethod\n",
    "    def get_midi_between(midi, start_time, end_time):\n",
    "        times, msgs = Tokeniser.process_midi(midi)\n",
    "        idxs = Tokeniser.collect_indices_between(times, start_time, end_time)\n",
    "        return times[idxs], msgs[idxs[0]:idxs[-1]]\n",
    "    \n",
    "tok = Tokeniser()\n",
    "times, msgs = tok.get_midi_between(midi_file, 10000, 20000)\n",
    "times, msgs"
   ]
  },
  {
   "cell_type": "code",
   "execution_count": 104,
   "id": "fcfdc703",
   "metadata": {},
   "outputs": [],
   "source": [
    "import pandas as pd\n",
    "df = pd.read_csv('/root/musica/data/maestro-v2.0.0.csv')\n",
    "df = df[df['year'].isin([2008, 2009, 2011, 2014])]"
   ]
  },
  {
   "cell_type": "code",
   "execution_count": null,
   "id": "ce166e16",
   "metadata": {},
   "outputs": [
    {
     "data": {
      "text/plain": [
       "(tensor([[-54.6900, -52.5696, -51.3081,  ..., -51.3898, -53.0736, -55.7320],\n",
       "         [-47.6586, -45.5382, -44.2767,  ..., -44.3584, -46.0422, -48.7006],\n",
       "         [-52.8492, -50.6202, -49.1364,  ..., -47.3676, -50.1173, -53.9425],\n",
       "         ...,\n",
       "         [-80.0000, -80.0000, -80.0000,  ..., -80.0000, -80.0000, -80.0000],\n",
       "         [-80.0000, -80.0000, -80.0000,  ..., -80.0000, -80.0000, -80.0000],\n",
       "         [-80.0000, -80.0000, -80.0000,  ..., -80.0000, -80.0000, -80.0000]]),\n",
       " '/root/musica/data/2008/MIDI-Unprocessed_03_R2_2008_01-03_ORIG_MID--AUDIO_03_R2_2008_wav--2.midi')"
      ]
     },
     "execution_count": 82,
     "metadata": {},
     "output_type": "execute_result"
    }
   ],
   "source": [
    "from torch.utils.data import Dataset\n",
    "import os\n",
    "import torch \n",
    "\n",
    "class MaestroDataset(Dataset):\n",
    "    def __init__(self, df_root):\n",
    "        self.dir = df_root\n",
    "        self.df = pd.read_csv(os.path.join(df_root, 'maestro-v2.0.0.csv'))\n",
    "        self.df = df[df['year'].isin([2008, 2009])]\n",
    "\n",
    "        self.n_fft = 2048\n",
    "        self.hop_length = 128\n",
    "        self.n_mels = 256\n",
    "        self.target_sr = 16e3\n",
    "\n",
    "    \n",
    "    def __len__(self):\n",
    "        return len(self.df)\n",
    "    \n",
    "    def __getitem__(self, index):\n",
    "        midi_filename = os.path.join(df_root, self.df.iloc[index]['midi_filename'])\n",
    "        audio_filename = os.path.join(df_root, self.df.iloc[index]['audio_filename'])\n",
    "\n",
    "        y, sr = librosa.load(audio_filename, sr = None, mono=True)\n",
    "        # resample to lower rate\n",
    "        y = librosa.resample(y, orig_sr=sample_rate, target_sr=target_sr)\n",
    "\n",
    "        # Compute mel spectrogram\n",
    "        S = librosa.feature.melspectrogram(y=y, sr=sr, \n",
    "                                           n_fft = self.n_fft, \n",
    "                                           hop_length=self.hop_length, \n",
    "                                           n_mels=self.n_mels, fmax=8000)\n",
    "\n",
    "        # Convert to decibels (log scale)\n",
    "        S_dB = librosa.power_to_db(S, ref=np.max)\n",
    "\n",
    "        return torch.tensor(S_dB), midi_filename\n",
    "    \n",
    "df_root = '/root/musica/data' \n",
    "maestro = MaestroDataset(df_root)\n",
    "maestro[0]"
   ]
  },
  {
   "cell_type": "code",
   "execution_count": 76,
   "id": "6096d51b",
   "metadata": {},
   "outputs": [
    {
     "data": {
      "text/html": [
       "<div>\n",
       "<style scoped>\n",
       "    .dataframe tbody tr th:only-of-type {\n",
       "        vertical-align: middle;\n",
       "    }\n",
       "\n",
       "    .dataframe tbody tr th {\n",
       "        vertical-align: top;\n",
       "    }\n",
       "\n",
       "    .dataframe thead th {\n",
       "        text-align: right;\n",
       "    }\n",
       "</style>\n",
       "<table border=\"1\" class=\"dataframe\">\n",
       "  <thead>\n",
       "    <tr style=\"text-align: right;\">\n",
       "      <th></th>\n",
       "      <th>canonical_composer</th>\n",
       "      <th>canonical_title</th>\n",
       "      <th>split</th>\n",
       "      <th>year</th>\n",
       "      <th>midi_filename</th>\n",
       "      <th>audio_filename</th>\n",
       "      <th>duration</th>\n",
       "    </tr>\n",
       "  </thead>\n",
       "  <tbody>\n",
       "    <tr>\n",
       "      <th>1</th>\n",
       "      <td>Alban Berg</td>\n",
       "      <td>Sonata Op. 1</td>\n",
       "      <td>train</td>\n",
       "      <td>2008</td>\n",
       "      <td>2008/MIDI-Unprocessed_03_R2_2008_01-03_ORIG_MI...</td>\n",
       "      <td>2008/MIDI-Unprocessed_03_R2_2008_01-03_ORIG_MI...</td>\n",
       "      <td>759.518471</td>\n",
       "    </tr>\n",
       "    <tr>\n",
       "      <th>5</th>\n",
       "      <td>Alexander Scriabin</td>\n",
       "      <td>5 Preludes, Op.15</td>\n",
       "      <td>validation</td>\n",
       "      <td>2009</td>\n",
       "      <td>2009/MIDI-Unprocessed_07_R1_2009_04-05_ORIG_MI...</td>\n",
       "      <td>2009/MIDI-Unprocessed_07_R1_2009_04-05_ORIG_MI...</td>\n",
       "      <td>400.557826</td>\n",
       "    </tr>\n",
       "    <tr>\n",
       "      <th>6</th>\n",
       "      <td>Alexander Scriabin</td>\n",
       "      <td>Entragete, Op.63</td>\n",
       "      <td>test</td>\n",
       "      <td>2009</td>\n",
       "      <td>2009/MIDI-Unprocessed_11_R1_2009_06-09_ORIG_MI...</td>\n",
       "      <td>2009/MIDI-Unprocessed_11_R1_2009_06-09_ORIG_MI...</td>\n",
       "      <td>163.745830</td>\n",
       "    </tr>\n",
       "    <tr>\n",
       "      <th>8</th>\n",
       "      <td>Alexander Scriabin</td>\n",
       "      <td>Etude Op. 42, Nos. 4 &amp; 5</td>\n",
       "      <td>test</td>\n",
       "      <td>2009</td>\n",
       "      <td>2009/MIDI-Unprocessed_02_R1_2009_03-06_ORIG_MI...</td>\n",
       "      <td>2009/MIDI-Unprocessed_02_R1_2009_03-06_ORIG_MI...</td>\n",
       "      <td>136.315302</td>\n",
       "    </tr>\n",
       "    <tr>\n",
       "      <th>9</th>\n",
       "      <td>Alexander Scriabin</td>\n",
       "      <td>Etude Op. 8, No. 13</td>\n",
       "      <td>validation</td>\n",
       "      <td>2009</td>\n",
       "      <td>2009/MIDI-Unprocessed_02_R1_2009_03-06_ORIG_MI...</td>\n",
       "      <td>2009/MIDI-Unprocessed_02_R1_2009_03-06_ORIG_MI...</td>\n",
       "      <td>167.085837</td>\n",
       "    </tr>\n",
       "    <tr>\n",
       "      <th>...</th>\n",
       "      <td>...</td>\n",
       "      <td>...</td>\n",
       "      <td>...</td>\n",
       "      <td>...</td>\n",
       "      <td>...</td>\n",
       "      <td>...</td>\n",
       "      <td>...</td>\n",
       "    </tr>\n",
       "    <tr>\n",
       "      <th>1264</th>\n",
       "      <td>Wolfgang Amadeus Mozart</td>\n",
       "      <td>Sonata in D Major, K. 284, First Movement</td>\n",
       "      <td>train</td>\n",
       "      <td>2011</td>\n",
       "      <td>2011/MIDI-Unprocessed_03_R1_2011_MID--AUDIO_R1...</td>\n",
       "      <td>2011/MIDI-Unprocessed_03_R1_2011_MID--AUDIO_R1...</td>\n",
       "      <td>205.236173</td>\n",
       "    </tr>\n",
       "    <tr>\n",
       "      <th>1265</th>\n",
       "      <td>Wolfgang Amadeus Mozart</td>\n",
       "      <td>Sonata in D Major, K. 311</td>\n",
       "      <td>train</td>\n",
       "      <td>2009</td>\n",
       "      <td>2009/MIDI-Unprocessed_14_R1_2009_06-08_ORIG_MI...</td>\n",
       "      <td>2009/MIDI-Unprocessed_14_R1_2009_06-08_ORIG_MI...</td>\n",
       "      <td>910.278203</td>\n",
       "    </tr>\n",
       "    <tr>\n",
       "      <th>1266</th>\n",
       "      <td>Wolfgang Amadeus Mozart</td>\n",
       "      <td>Sonata in D Major, K. 576 (Complete)</td>\n",
       "      <td>train</td>\n",
       "      <td>2014</td>\n",
       "      <td>2014/MIDI-UNPROCESSED_09-10_R1_2014_MID--AUDIO...</td>\n",
       "      <td>2014/MIDI-UNPROCESSED_09-10_R1_2014_MID--AUDIO...</td>\n",
       "      <td>790.820523</td>\n",
       "    </tr>\n",
       "    <tr>\n",
       "      <th>1269</th>\n",
       "      <td>Wolfgang Amadeus Mozart</td>\n",
       "      <td>Sonata in D Major, K.311</td>\n",
       "      <td>train</td>\n",
       "      <td>2009</td>\n",
       "      <td>2009/MIDI-Unprocessed_05_R1_2009_01-02_ORIG_MI...</td>\n",
       "      <td>2009/MIDI-Unprocessed_05_R1_2009_01-02_ORIG_MI...</td>\n",
       "      <td>792.420415</td>\n",
       "    </tr>\n",
       "    <tr>\n",
       "      <th>1270</th>\n",
       "      <td>Wolfgang Amadeus Mozart</td>\n",
       "      <td>Sonata in D-Major, K. 311, First Movement</td>\n",
       "      <td>train</td>\n",
       "      <td>2011</td>\n",
       "      <td>2011/MIDI-Unprocessed_07_R1_2011_MID--AUDIO_R1...</td>\n",
       "      <td>2011/MIDI-Unprocessed_07_R1_2011_MID--AUDIO_R1...</td>\n",
       "      <td>194.098364</td>\n",
       "    </tr>\n",
       "  </tbody>\n",
       "</table>\n",
       "<p>540 rows  7 columns</p>\n",
       "</div>"
      ],
      "text/plain": [
       "           canonical_composer                            canonical_title  \\\n",
       "1                  Alban Berg                               Sonata Op. 1   \n",
       "5          Alexander Scriabin                          5 Preludes, Op.15   \n",
       "6          Alexander Scriabin                           Entragete, Op.63   \n",
       "8          Alexander Scriabin                   Etude Op. 42, Nos. 4 & 5   \n",
       "9          Alexander Scriabin                        Etude Op. 8, No. 13   \n",
       "...                       ...                                        ...   \n",
       "1264  Wolfgang Amadeus Mozart  Sonata in D Major, K. 284, First Movement   \n",
       "1265  Wolfgang Amadeus Mozart                  Sonata in D Major, K. 311   \n",
       "1266  Wolfgang Amadeus Mozart       Sonata in D Major, K. 576 (Complete)   \n",
       "1269  Wolfgang Amadeus Mozart                   Sonata in D Major, K.311   \n",
       "1270  Wolfgang Amadeus Mozart  Sonata in D-Major, K. 311, First Movement   \n",
       "\n",
       "           split  year                                      midi_filename  \\\n",
       "1          train  2008  2008/MIDI-Unprocessed_03_R2_2008_01-03_ORIG_MI...   \n",
       "5     validation  2009  2009/MIDI-Unprocessed_07_R1_2009_04-05_ORIG_MI...   \n",
       "6           test  2009  2009/MIDI-Unprocessed_11_R1_2009_06-09_ORIG_MI...   \n",
       "8           test  2009  2009/MIDI-Unprocessed_02_R1_2009_03-06_ORIG_MI...   \n",
       "9     validation  2009  2009/MIDI-Unprocessed_02_R1_2009_03-06_ORIG_MI...   \n",
       "...          ...   ...                                                ...   \n",
       "1264       train  2011  2011/MIDI-Unprocessed_03_R1_2011_MID--AUDIO_R1...   \n",
       "1265       train  2009  2009/MIDI-Unprocessed_14_R1_2009_06-08_ORIG_MI...   \n",
       "1266       train  2014  2014/MIDI-UNPROCESSED_09-10_R1_2014_MID--AUDIO...   \n",
       "1269       train  2009  2009/MIDI-Unprocessed_05_R1_2009_01-02_ORIG_MI...   \n",
       "1270       train  2011  2011/MIDI-Unprocessed_07_R1_2011_MID--AUDIO_R1...   \n",
       "\n",
       "                                         audio_filename    duration  \n",
       "1     2008/MIDI-Unprocessed_03_R2_2008_01-03_ORIG_MI...  759.518471  \n",
       "5     2009/MIDI-Unprocessed_07_R1_2009_04-05_ORIG_MI...  400.557826  \n",
       "6     2009/MIDI-Unprocessed_11_R1_2009_06-09_ORIG_MI...  163.745830  \n",
       "8     2009/MIDI-Unprocessed_02_R1_2009_03-06_ORIG_MI...  136.315302  \n",
       "9     2009/MIDI-Unprocessed_02_R1_2009_03-06_ORIG_MI...  167.085837  \n",
       "...                                                 ...         ...  \n",
       "1264  2011/MIDI-Unprocessed_03_R1_2011_MID--AUDIO_R1...  205.236173  \n",
       "1265  2009/MIDI-Unprocessed_14_R1_2009_06-08_ORIG_MI...  910.278203  \n",
       "1266  2014/MIDI-UNPROCESSED_09-10_R1_2014_MID--AUDIO...  790.820523  \n",
       "1269  2009/MIDI-Unprocessed_05_R1_2009_01-02_ORIG_MI...  792.420415  \n",
       "1270  2011/MIDI-Unprocessed_07_R1_2011_MID--AUDIO_R1...  194.098364  \n",
       "\n",
       "[540 rows x 7 columns]"
      ]
     },
     "execution_count": 76,
     "metadata": {},
     "output_type": "execute_result"
    }
   ],
   "source": [
    "maestro.df"
   ]
  },
  {
   "cell_type": "code",
   "execution_count": null,
   "id": "883de288",
   "metadata": {},
   "outputs": [],
   "source": []
  }
 ],
 "metadata": {
  "kernelspec": {
   "display_name": "musica-env",
   "language": "python",
   "name": "python3"
  },
  "language_info": {
   "codemirror_mode": {
    "name": "ipython",
    "version": 3
   },
   "file_extension": ".py",
   "mimetype": "text/x-python",
   "name": "python",
   "nbconvert_exporter": "python",
   "pygments_lexer": "ipython3",
   "version": "3.10.16"
  }
 },
 "nbformat": 4,
 "nbformat_minor": 5
}
